<?xml version="1.0" encoding="UTF-8" standalone="no"?><svg xmlns="http://www.w3.org/2000/svg" xmlns:xlink="http://www.w3.org/1999/xlink" contentScriptType="application/ecmascript" contentStyleType="text/css" height="315px" preserveAspectRatio="none" style="width:1227px;height:315px;" version="1.1" viewBox="0 0 1227 315" width="1227px" zoomAndPan="magnify"><defs><filter height="300%" id="fyzm5x96zbvoa" width="300%" x="-1" y="-1"><feGaussianBlur result="blurOut" stdDeviation="2.0"/><feColorMatrix in="blurOut" result="blurOut2" type="matrix" values="0 0 0 0 0 0 0 0 0 0 0 0 0 0 0 0 0 0 .4 0"/><feOffset dx="4.0" dy="4.0" in="blurOut2" result="blurOut3"/><feBlend in="SourceGraphic" in2="blurOut3" mode="normal"/></filter></defs><g><!--MD5=[99b8db98afdc2c8404e39242ef4c1e65]
class Platform--><rect fill="#FEFECE" filter="url(#fyzm5x96zbvoa)" height="52.8047" id="Platform" style="stroke: #A80036; stroke-width: 1.5;" width="119" x="6" y="188.5"/><ellipse cx="38.55" cy="204.5" fill="#ADD1B2" rx="11" ry="11" style="stroke: #A80036; stroke-width: 1.0;"/><path d="M40.8938,200.1719 C39.9563,199.7344 39.3625,199.5938 38.4875,199.5938 C35.8625,199.5938 33.8625,201.6719 33.8625,204.3906 L33.8625,205.5156 C33.8625,208.0938 35.9719,209.9844 38.8625,209.9844 C40.0813,209.9844 41.2375,209.6875 41.9875,209.1406 C42.5656,208.7344 42.8938,208.2813 42.8938,207.8906 C42.8938,207.4375 42.5031,207.0469 42.0344,207.0469 C41.8156,207.0469 41.6125,207.125 41.425,207.3125 C40.9719,207.7969 40.9719,207.7969 40.7844,207.8906 C40.3625,208.1563 39.675,208.2813 38.9094,208.2813 C36.8625,208.2813 35.5656,207.1875 35.5656,205.4844 L35.5656,204.3906 C35.5656,202.6094 36.8156,201.2969 38.55,201.2969 C39.1281,201.2969 39.7375,201.4531 40.2063,201.7031 C40.6906,201.9844 40.8625,202.2031 40.9563,202.6094 C41.0188,203.0156 41.05,203.1406 41.1906,203.2656 C41.3313,203.4063 41.5656,203.5156 41.7844,203.5156 C42.05,203.5156 42.3156,203.375 42.4875,203.1563 C42.5969,203 42.6281,202.8125 42.6281,202.3906 L42.6281,200.9688 C42.6281,200.5313 42.6125,200.4063 42.5188,200.25 C42.3625,199.9844 42.0813,199.8438 41.7844,199.8438 C41.4875,199.8438 41.2844,199.9375 41.0656,200.25 L40.8938,200.1719 Z "/><text fill="#000000" font-family="sans-serif" font-size="12" lengthAdjust="spacingAndGlyphs" textLength="48" x="56.45" y="208.6543">Platform</text><line style="stroke: #A80036; stroke-width: 1.5;" x1="7" x2="124" y1="220.5" y2="220.5"/><text fill="#000000" font-family="sans-serif" font-size="11" lengthAdjust="spacingAndGlyphs" textLength="107" x="12" y="234.7104">-String designation</text><!--MD5=[86c7c362de55a38b660185a1328fe18d]
class Organization--><rect fill="#FEFECE" filter="url(#fyzm5x96zbvoa)" height="52.8047" id="Organization" style="stroke: #A80036; stroke-width: 1.5;" width="108" x="292" y="137.5"/><ellipse cx="307" cy="153.5" fill="#ADD1B2" rx="11" ry="11" style="stroke: #A80036; stroke-width: 1.0;"/><path d="M309.3438,149.1719 C308.4063,148.7344 307.8125,148.5938 306.9375,148.5938 C304.3125,148.5938 302.3125,150.6719 302.3125,153.3906 L302.3125,154.5156 C302.3125,157.0938 304.4219,158.9844 307.3125,158.9844 C308.5313,158.9844 309.6875,158.6875 310.4375,158.1406 C311.0156,157.7344 311.3438,157.2813 311.3438,156.8906 C311.3438,156.4375 310.9531,156.0469 310.4844,156.0469 C310.2656,156.0469 310.0625,156.125 309.875,156.3125 C309.4219,156.7969 309.4219,156.7969 309.2344,156.8906 C308.8125,157.1563 308.125,157.2813 307.3594,157.2813 C305.3125,157.2813 304.0156,156.1875 304.0156,154.4844 L304.0156,153.3906 C304.0156,151.6094 305.2656,150.2969 307,150.2969 C307.5781,150.2969 308.1875,150.4531 308.6563,150.7031 C309.1406,150.9844 309.3125,151.2031 309.4063,151.6094 C309.4688,152.0156 309.5,152.1406 309.6406,152.2656 C309.7813,152.4063 310.0156,152.5156 310.2344,152.5156 C310.5,152.5156 310.7656,152.375 310.9375,152.1563 C311.0469,152 311.0781,151.8125 311.0781,151.3906 L311.0781,149.9688 C311.0781,149.5313 311.0625,149.4063 310.9688,149.25 C310.8125,148.9844 310.5313,148.8438 310.2344,148.8438 C309.9375,148.8438 309.7344,148.9375 309.5156,149.25 L309.3438,149.1719 Z "/><text fill="#000000" font-family="sans-serif" font-size="12" lengthAdjust="spacingAndGlyphs" textLength="76" x="321" y="157.6543">Organization</text><line style="stroke: #A80036; stroke-width: 1.5;" x1="293" x2="399" y1="169.5" y2="169.5"/><text fill="#000000" font-family="sans-serif" font-size="11" lengthAdjust="spacingAndGlyphs" textLength="74" x="298" y="183.7104">-String name</text><!--MD5=[f483d6e5de34a60207b28a5563be5e8b]
class Collaborator--><rect fill="#FEFECE" filter="url(#fyzm5x96zbvoa)" height="65.6094" id="Collaborator" style="stroke: #A80036; stroke-width: 1.5;" width="106" x="498" y="131"/><ellipse cx="513" cy="147" fill="#ADD1B2" rx="11" ry="11" style="stroke: #A80036; stroke-width: 1.0;"/><path d="M515.3438,142.6719 C514.4063,142.2344 513.8125,142.0938 512.9375,142.0938 C510.3125,142.0938 508.3125,144.1719 508.3125,146.8906 L508.3125,148.0156 C508.3125,150.5938 510.4219,152.4844 513.3125,152.4844 C514.5313,152.4844 515.6875,152.1875 516.4375,151.6406 C517.0156,151.2344 517.3438,150.7813 517.3438,150.3906 C517.3438,149.9375 516.9531,149.5469 516.4844,149.5469 C516.2656,149.5469 516.0625,149.625 515.875,149.8125 C515.4219,150.2969 515.4219,150.2969 515.2344,150.3906 C514.8125,150.6563 514.125,150.7813 513.3594,150.7813 C511.3125,150.7813 510.0156,149.6875 510.0156,147.9844 L510.0156,146.8906 C510.0156,145.1094 511.2656,143.7969 513,143.7969 C513.5781,143.7969 514.1875,143.9531 514.6563,144.2031 C515.1406,144.4844 515.3125,144.7031 515.4063,145.1094 C515.4688,145.5156 515.5,145.6406 515.6406,145.7656 C515.7813,145.9063 516.0156,146.0156 516.2344,146.0156 C516.5,146.0156 516.7656,145.875 516.9375,145.6563 C517.0469,145.5 517.0781,145.3125 517.0781,144.8906 L517.0781,143.4688 C517.0781,143.0313 517.0625,142.9063 516.9688,142.75 C516.8125,142.4844 516.5313,142.3438 516.2344,142.3438 C515.9375,142.3438 515.7344,142.4375 515.5156,142.75 L515.3438,142.6719 Z "/><text fill="#000000" font-family="sans-serif" font-size="12" lengthAdjust="spacingAndGlyphs" textLength="74" x="527" y="151.1543">Collaborator</text><line style="stroke: #A80036; stroke-width: 1.5;" x1="499" x2="603" y1="163" y2="163"/><text fill="#000000" font-family="sans-serif" font-size="11" lengthAdjust="spacingAndGlyphs" textLength="74" x="504" y="177.2104">-String name</text><text fill="#000000" font-family="sans-serif" font-size="11" lengthAdjust="spacingAndGlyphs" textLength="73" x="504" y="190.0151">-String email</text><!--MD5=[3fd616f346a44cd59a91eb10b19e157c]
class User--><rect fill="#FEFECE" filter="url(#fyzm5x96zbvoa)" height="65.6094" id="User" style="stroke: #A80036; stroke-width: 1.5;" width="106" x="791.5" y="132"/><ellipse cx="826.75" cy="148" fill="#ADD1B2" rx="11" ry="11" style="stroke: #A80036; stroke-width: 1.0;"/><path d="M829.0938,143.6719 C828.1563,143.2344 827.5625,143.0938 826.6875,143.0938 C824.0625,143.0938 822.0625,145.1719 822.0625,147.8906 L822.0625,149.0156 C822.0625,151.5938 824.1719,153.4844 827.0625,153.4844 C828.2813,153.4844 829.4375,153.1875 830.1875,152.6406 C830.7656,152.2344 831.0938,151.7813 831.0938,151.3906 C831.0938,150.9375 830.7031,150.5469 830.2344,150.5469 C830.0156,150.5469 829.8125,150.625 829.625,150.8125 C829.1719,151.2969 829.1719,151.2969 828.9844,151.3906 C828.5625,151.6563 827.875,151.7813 827.1094,151.7813 C825.0625,151.7813 823.7656,150.6875 823.7656,148.9844 L823.7656,147.8906 C823.7656,146.1094 825.0156,144.7969 826.75,144.7969 C827.3281,144.7969 827.9375,144.9531 828.4063,145.2031 C828.8906,145.4844 829.0625,145.7031 829.1563,146.1094 C829.2188,146.5156 829.25,146.6406 829.3906,146.7656 C829.5313,146.9063 829.7656,147.0156 829.9844,147.0156 C830.25,147.0156 830.5156,146.875 830.6875,146.6563 C830.7969,146.5 830.8281,146.3125 830.8281,145.8906 L830.8281,144.4688 C830.8281,144.0313 830.8125,143.9063 830.7188,143.75 C830.5625,143.4844 830.2813,143.3438 829.9844,143.3438 C829.6875,143.3438 829.4844,143.4375 829.2656,143.75 L829.0938,143.6719 Z "/><text fill="#000000" font-family="sans-serif" font-size="12" lengthAdjust="spacingAndGlyphs" textLength="29" x="845.25" y="152.1543">User</text><line style="stroke: #A80036; stroke-width: 1.5;" x1="792.5" x2="896.5" y1="164" y2="164"/><text fill="#000000" font-family="sans-serif" font-size="11" lengthAdjust="spacingAndGlyphs" textLength="73" x="797.5" y="178.2104">-String email</text><text fill="#000000" font-family="sans-serif" font-size="11" lengthAdjust="spacingAndGlyphs" textLength="94" x="797.5" y="191.0151">-String password</text><!--MD5=[1f687b5315377fe49fca59b457947463]
class Freelancer--><rect fill="#FEFECE" filter="url(#fyzm5x96zbvoa)" height="142.4375" id="Freelancer" style="stroke: #A80036; stroke-width: 1.5;" width="140" x="1074.5" y="162"/><ellipse cx="1108.85" cy="178" fill="#ADD1B2" rx="11" ry="11" style="stroke: #A80036; stroke-width: 1.0;"/><path d="M1111.1938,173.6719 C1110.2563,173.2344 1109.6625,173.0938 1108.7875,173.0938 C1106.1625,173.0938 1104.1625,175.1719 1104.1625,177.8906 L1104.1625,179.0156 C1104.1625,181.5938 1106.2719,183.4844 1109.1625,183.4844 C1110.3813,183.4844 1111.5375,183.1875 1112.2875,182.6406 C1112.8656,182.2344 1113.1938,181.7813 1113.1938,181.3906 C1113.1938,180.9375 1112.8031,180.5469 1112.3344,180.5469 C1112.1156,180.5469 1111.9125,180.625 1111.725,180.8125 C1111.2719,181.2969 1111.2719,181.2969 1111.0844,181.3906 C1110.6625,181.6563 1109.975,181.7813 1109.2094,181.7813 C1107.1625,181.7813 1105.8656,180.6875 1105.8656,178.9844 L1105.8656,177.8906 C1105.8656,176.1094 1107.1156,174.7969 1108.85,174.7969 C1109.4281,174.7969 1110.0375,174.9531 1110.5063,175.2031 C1110.9906,175.4844 1111.1625,175.7031 1111.2563,176.1094 C1111.3188,176.5156 1111.35,176.6406 1111.4906,176.7656 C1111.6313,176.9063 1111.8656,177.0156 1112.0844,177.0156 C1112.35,177.0156 1112.6156,176.875 1112.7875,176.6563 C1112.8969,176.5 1112.9281,176.3125 1112.9281,175.8906 L1112.9281,174.4688 C1112.9281,174.0313 1112.9125,173.9063 1112.8188,173.75 C1112.6625,173.4844 1112.3813,173.3438 1112.0844,173.3438 C1111.7875,173.3438 1111.5844,173.4375 1111.3656,173.75 L1111.1938,173.6719 Z "/><text fill="#000000" font-family="sans-serif" font-size="12" lengthAdjust="spacingAndGlyphs" textLength="65" x="1127.15" y="182.1543">Freelancer</text><line style="stroke: #A80036; stroke-width: 1.5;" x1="1075.5" x2="1213.5" y1="194" y2="194"/><text fill="#000000" font-family="sans-serif" font-size="11" lengthAdjust="spacingAndGlyphs" textLength="51" x="1080.5" y="208.2104">-String id</text><text fill="#000000" font-family="sans-serif" font-size="11" lengthAdjust="spacingAndGlyphs" textLength="74" x="1080.5" y="221.0151">-String name</text><text fill="#000000" font-family="sans-serif" font-size="11" lengthAdjust="spacingAndGlyphs" textLength="128" x="1080.5" y="233.8198">-String expertiseLevel</text><text fill="#000000" font-family="sans-serif" font-size="11" lengthAdjust="spacingAndGlyphs" textLength="73" x="1080.5" y="246.6245">-String email</text><text fill="#000000" font-family="sans-serif" font-size="11" lengthAdjust="spacingAndGlyphs" textLength="58" x="1080.5" y="259.4292">-String NIF</text><text fill="#000000" font-family="sans-serif" font-size="11" lengthAdjust="spacingAndGlyphs" textLength="68" x="1080.5" y="272.2339">-String IBAN</text><text fill="#000000" font-family="sans-serif" font-size="11" lengthAdjust="spacingAndGlyphs" textLength="86" x="1080.5" y="285.0386">-String address</text><text fill="#000000" font-family="sans-serif" font-size="11" lengthAdjust="spacingAndGlyphs" textLength="83" x="1080.5" y="297.8433">-String country</text><!--MD5=[b34797a66dc35cbf1d65f7e3ca75530e]
class Task--><rect fill="#FEFECE" filter="url(#fyzm5x96zbvoa)" height="104.0234" id="Task" style="stroke: #A80036; stroke-width: 1.5;" width="143" x="1073" y="6"/><ellipse cx="1126.25" cy="22" fill="#ADD1B2" rx="11" ry="11" style="stroke: #A80036; stroke-width: 1.0;"/><path d="M1128.5938,17.6719 C1127.6563,17.2344 1127.0625,17.0938 1126.1875,17.0938 C1123.5625,17.0938 1121.5625,19.1719 1121.5625,21.8906 L1121.5625,23.0156 C1121.5625,25.5938 1123.6719,27.4844 1126.5625,27.4844 C1127.7813,27.4844 1128.9375,27.1875 1129.6875,26.6406 C1130.2656,26.2344 1130.5938,25.7813 1130.5938,25.3906 C1130.5938,24.9375 1130.2031,24.5469 1129.7344,24.5469 C1129.5156,24.5469 1129.3125,24.625 1129.125,24.8125 C1128.6719,25.2969 1128.6719,25.2969 1128.4844,25.3906 C1128.0625,25.6563 1127.375,25.7813 1126.6094,25.7813 C1124.5625,25.7813 1123.2656,24.6875 1123.2656,22.9844 L1123.2656,21.8906 C1123.2656,20.1094 1124.5156,18.7969 1126.25,18.7969 C1126.8281,18.7969 1127.4375,18.9531 1127.9063,19.2031 C1128.3906,19.4844 1128.5625,19.7031 1128.6563,20.1094 C1128.7188,20.5156 1128.75,20.6406 1128.8906,20.7656 C1129.0313,20.9063 1129.2656,21.0156 1129.4844,21.0156 C1129.75,21.0156 1130.0156,20.875 1130.1875,20.6563 C1130.2969,20.5 1130.3281,20.3125 1130.3281,19.8906 L1130.3281,18.4688 C1130.3281,18.0313 1130.3125,17.9063 1130.2188,17.75 C1130.0625,17.4844 1129.7813,17.3438 1129.4844,17.3438 C1129.1875,17.3438 1128.9844,17.4375 1128.7656,17.75 L1128.5938,17.6719 Z "/><text fill="#000000" font-family="sans-serif" font-size="12" lengthAdjust="spacingAndGlyphs" textLength="28" x="1146.75" y="26.1543">Task</text><line style="stroke: #A80036; stroke-width: 1.5;" x1="1074" x2="1215" y1="38" y2="38"/><text fill="#000000" font-family="sans-serif" font-size="11" lengthAdjust="spacingAndGlyphs" textLength="51" x="1079" y="52.2104">-String id</text><text fill="#000000" font-family="sans-serif" font-size="11" lengthAdjust="spacingAndGlyphs" textLength="131" x="1079" y="65.0151">-String briefDescription</text><text fill="#000000" font-family="sans-serif" font-size="11" lengthAdjust="spacingAndGlyphs" textLength="123" x="1079" y="77.8198">-Integer timeDuration</text><text fill="#000000" font-family="sans-serif" font-size="11" lengthAdjust="spacingAndGlyphs" textLength="116" x="1079" y="90.6245">-Double costPerHour</text><text fill="#000000" font-family="sans-serif" font-size="11" lengthAdjust="spacingAndGlyphs" textLength="116" x="1079" y="103.4292">-String taskCategory</text><!--MD5=[b645a18afb25b7e5623af7186d8eb36f]
class PaymentTransaction--><rect fill="#FEFECE" filter="url(#fyzm5x96zbvoa)" height="78.4141" id="PaymentTransaction" style="stroke: #A80036; stroke-width: 1.5;" width="183" x="753" y="19"/><ellipse cx="782.4" cy="35" fill="#ADD1B2" rx="11" ry="11" style="stroke: #A80036; stroke-width: 1.0;"/><path d="M784.7438,30.6719 C783.8063,30.2344 783.2125,30.0938 782.3375,30.0938 C779.7125,30.0938 777.7125,32.1719 777.7125,34.8906 L777.7125,36.0156 C777.7125,38.5938 779.8219,40.4844 782.7125,40.4844 C783.9313,40.4844 785.0875,40.1875 785.8375,39.6406 C786.4156,39.2344 786.7438,38.7813 786.7438,38.3906 C786.7438,37.9375 786.3531,37.5469 785.8844,37.5469 C785.6656,37.5469 785.4625,37.625 785.275,37.8125 C784.8219,38.2969 784.8219,38.2969 784.6344,38.3906 C784.2125,38.6563 783.525,38.7813 782.7594,38.7813 C780.7125,38.7813 779.4156,37.6875 779.4156,35.9844 L779.4156,34.8906 C779.4156,33.1094 780.6656,31.7969 782.4,31.7969 C782.9781,31.7969 783.5875,31.9531 784.0563,32.2031 C784.5406,32.4844 784.7125,32.7031 784.8063,33.1094 C784.8688,33.5156 784.9,33.6406 785.0406,33.7656 C785.1813,33.9063 785.4156,34.0156 785.6344,34.0156 C785.9,34.0156 786.1656,33.875 786.3375,33.6563 C786.4469,33.5 786.4781,33.3125 786.4781,32.8906 L786.4781,31.4688 C786.4781,31.0313 786.4625,30.9063 786.3688,30.75 C786.2125,30.4844 785.9313,30.3438 785.6344,30.3438 C785.3375,30.3438 785.1344,30.4375 784.9156,30.75 L784.7438,30.6719 Z "/><text fill="#000000" font-family="sans-serif" font-size="12" lengthAdjust="spacingAndGlyphs" textLength="119" x="799.6" y="39.1543">PaymentTransaction</text><line style="stroke: #A80036; stroke-width: 1.5;" x1="754" x2="935" y1="51" y2="51"/><text fill="#000000" font-family="sans-serif" font-size="11" lengthAdjust="spacingAndGlyphs" textLength="86" x="759" y="65.2104">-Date endDate</text><text fill="#000000" font-family="sans-serif" font-size="11" lengthAdjust="spacingAndGlyphs" textLength="81" x="759" y="78.0151">-Double delay</text><text fill="#000000" font-family="sans-serif" font-size="11" lengthAdjust="spacingAndGlyphs" textLength="171" x="759" y="90.8198">-String workQualityDescription</text><!--MD5=[7640e466c042ba2d6f9c19c816f7f0fc]
link Platform to Organization--><path d="M125.222,204.2465 C174.375,195.245 243.924,182.509 291.542,173.789 " fill="none" id="Platform-Organization" style="stroke: #A80036; stroke-width: 1.0;"/><text fill="#000000" font-family="sans-serif" font-size="13" lengthAdjust="spacingAndGlyphs" textLength="92" x="156" y="176.0669">has registered</text><polygon fill="#000000" points="251,170.0664,257,173.0664,251,176.0664,251,170.0664" style="stroke: #000000; stroke-width: 1.0;"/><text fill="#000000" font-family="sans-serif" font-size="13" lengthAdjust="spacingAndGlyphs" textLength="8" x="132.9881" y="215.9369">1</text><text fill="#000000" font-family="sans-serif" font-size="13" lengthAdjust="spacingAndGlyphs" textLength="7" x="277.1161" y="188.0921">*</text><!--MD5=[22697d4d863c2e08ab1d60ca0d61f844]
link Platform to Freelancer--><path d="M125.164,227.0375 C181.33,237.503 268.58,251 345,251 C345,251 345,251 845.5,251 C924.023,251 1013.97,244.696 1074.33,239.5493 " fill="none" id="Platform-Freelancer" style="stroke: #A80036; stroke-width: 1.0;"/><text fill="#000000" font-family="sans-serif" font-size="13" lengthAdjust="spacingAndGlyphs" textLength="57" x="516" y="247.0669">has/uses</text><polygon fill="#000000" points="576,241.0664,582,244.0664,576,247.0664,576,241.0664" style="stroke: #000000; stroke-width: 1.0;"/><text fill="#000000" font-family="sans-serif" font-size="13" lengthAdjust="spacingAndGlyphs" textLength="8" x="132.9231" y="241.5055">1</text><text fill="#000000" font-family="sans-serif" font-size="13" lengthAdjust="spacingAndGlyphs" textLength="7" x="1059.2723" y="253.1362">*</text><!--MD5=[45817597bcd7048073a670d966abfd17]
link Organization to Collaborator--><path d="M400.071,164 C430.262,164 467.92,164 497.941,164 " fill="none" id="Organization-Collaborator" style="stroke: #A80036; stroke-width: 1.0;"/><text fill="#000000" font-family="sans-serif" font-size="13" lengthAdjust="spacingAndGlyphs" textLength="23" x="431" y="160.0669">has</text><polygon fill="#000000" points="457,154.0664,463,157.0664,457,160.0664,457,154.0664" style="stroke: #000000; stroke-width: 1.0;"/><text fill="#000000" font-family="sans-serif" font-size="13" lengthAdjust="spacingAndGlyphs" textLength="8" x="407.8743" y="177.0968">1</text><text fill="#000000" font-family="sans-serif" font-size="13" lengthAdjust="spacingAndGlyphs" textLength="8" x="481.9171" y="177.1584">1</text><!--MD5=[da2d560b3f89d8c66478284968d27dfa]
link Organization to PaymentTransaction--><path d="M400.13,145.228 C428.918,135.356 465.213,123.389 498,114 C557.795,96.877 572.738,91.749 634,81 C672.742,74.202 715.889,69.058 752.91,65.377 " fill="none" id="Organization-PaymentTransaction" style="stroke: #A80036; stroke-width: 1.0;"/><text fill="#000000" font-family="sans-serif" font-size="13" lengthAdjust="spacingAndGlyphs" textLength="23" x="533" y="82.0669">has</text><polygon fill="#000000" points="559,76.0664,565,79.0664,559,82.0664,559,76.0664" style="stroke: #000000; stroke-width: 1.0;"/><text fill="#000000" font-family="sans-serif" font-size="13" lengthAdjust="spacingAndGlyphs" textLength="8" x="407.9412" y="155.8023">1</text><text fill="#000000" font-family="sans-serif" font-size="13" lengthAdjust="spacingAndGlyphs" textLength="7" x="738.0354" y="78.6643">*</text><!--MD5=[04ce0ecdab38a3951889ff50c232570f]
link Collaborator to User--><path d="M604.114,164.179 C657.009,164.36 738.437,164.64 791.346,164.821 " fill="none" id="Collaborator-User" style="stroke: #A80036; stroke-width: 1.0;"/><text fill="#000000" font-family="sans-serif" font-size="13" lengthAdjust="spacingAndGlyphs" textLength="52" x="646" y="160.0669">acts like</text><polygon fill="#000000" points="701,154.0664,707,157.0664,701,160.0664,701,154.0664" style="stroke: #000000; stroke-width: 1.0;"/><text fill="#000000" font-family="sans-serif" font-size="13" lengthAdjust="spacingAndGlyphs" textLength="24" x="612.0498" y="177.2137">0..1</text><text fill="#000000" font-family="sans-serif" font-size="13" lengthAdjust="spacingAndGlyphs" textLength="8" x="775.6659" y="177.9068">1</text><!--MD5=[c32d3c60a61e5638fef4971a1b3a8306]
link Collaborator to PaymentTransaction--><path d="M604.021,145.173 C637.912,132.899 683.087,116.523 723,102 C732.627,98.497 742.685,94.832 752.709,91.177 " fill="none" id="Collaborator-PaymentTransaction" style="stroke: #A80036; stroke-width: 1.0;"/><text fill="#000000" font-family="sans-serif" font-size="13" lengthAdjust="spacingAndGlyphs" textLength="74" x="635" y="98.0669">loads file of</text><polygon fill="#000000" points="712,92.0664,718,95.0664,712,98.0664,712,92.0664" style="stroke: #000000; stroke-width: 1.0;"/><text fill="#000000" font-family="sans-serif" font-size="13" lengthAdjust="spacingAndGlyphs" textLength="8" x="612.0396" y="155.6838">1</text><text fill="#000000" font-family="sans-serif" font-size="13" lengthAdjust="spacingAndGlyphs" textLength="7" x="738.1155" y="106.4741">*</text><!--MD5=[f6802b286771c18a16ea4be983074371]
link PaymentTransaction to Freelancer--><path d="M912.006,97.056 C960.294,125.413 1025.46,163.682 1074.35,192.392 " fill="none" id="PaymentTransaction-Freelancer" style="stroke: #A80036; stroke-width: 1.0;"/><text fill="#000000" font-family="sans-serif" font-size="13" lengthAdjust="spacingAndGlyphs" textLength="62" x="967" y="125.0669">related to</text><polygon fill="#000000" points="1032,119.0664,1038,122.0664,1032,125.0664,1032,119.0664" style="stroke: #000000; stroke-width: 1.0;"/><text fill="#000000" font-family="sans-serif" font-size="13" lengthAdjust="spacingAndGlyphs" textLength="8" x="915.318" y="117.3906">1</text><text fill="#000000" font-family="sans-serif" font-size="13" lengthAdjust="spacingAndGlyphs" textLength="8" x="1058.7033" y="201.0289">1</text><!--MD5=[271ce7fefd7250ebaca83b70495774bd]
link PaymentTransaction to Task--><path d="M936.124,58 C979.96,58 1031.8,58 1072.69,58 " fill="none" id="PaymentTransaction-Task" style="stroke: #A80036; stroke-width: 1.0;"/><text fill="#000000" font-family="sans-serif" font-size="13" lengthAdjust="spacingAndGlyphs" textLength="62" x="967" y="54.0669">related to</text><polygon fill="#000000" points="1032,48.0664,1038,51.0664,1032,54.0664,1032,48.0664" style="stroke: #000000; stroke-width: 1.0;"/><text fill="#000000" font-family="sans-serif" font-size="13" lengthAdjust="spacingAndGlyphs" textLength="8" x="944.0429" y="70.6763">1</text><text fill="#000000" font-family="sans-serif" font-size="13" lengthAdjust="spacingAndGlyphs" textLength="8" x="1056.8721" y="70.846">1</text><!--MD5=[8cd29750d91ad1f22cd0f4a0df386c1e]
@startuml
skinparam classAttributeIconSize 0
hide methods
left to right direction

class Platform {
  -String designation
}

class Organization {
  -String name
}

class Collaborator {
  -String name
  -String email
}


class User {
  -String email
  -String password
}

class Freelancer {
  -String id
  -String name
  -String expertiseLevel
  -String email
  -String NIF
  -String IBAN
  -String address
  -String country
  }

class Task {
 -String id
 -String briefDescription
 -Integer timeDuration
 -Double costPerHour
 -String taskCategory
}


class PaymentTransaction{
 -Date endDate
 -Double delay
 -String workQualityDescription
}

Platform "1" - - "*" Organization : has registered >
Platform "1" - - "*" Freelancer : has/uses >
Organization "1" - - "1" Collaborator: has >
Organization "1" - - "*" PaymentTransaction: has >
Collaborator "0..1" - - "1" User: acts like >
Collaborator "1" - - "*" PaymentTransaction: loads file of >
PaymentTransaction "1" - - "1" Freelancer: related to >
PaymentTransaction "1" - - "1" Task: related to >
@enduml

PlantUML version 1.2020.12(Sat Jun 06 10:54:15 UTC 2020)
(GPL source distribution)
Java Runtime: Java(TM) SE Runtime Environment
JVM: Java HotSpot(TM) 64-Bit Server VM
Default Encoding: UTF-8
Language: en
Country: US
--></g></svg>