<?xml version="1.0" encoding="UTF-8" standalone="no"?><svg xmlns="http://www.w3.org/2000/svg" xmlns:xlink="http://www.w3.org/1999/xlink" contentScriptType="application/ecmascript" contentStyleType="text/css" height="368px" preserveAspectRatio="none" style="width:513px;height:368px;" version="1.1" viewBox="0 0 513 368" width="513px" zoomAndPan="magnify"><defs><filter height="300%" id="fidjjsi01ea0q" width="300%" x="-1" y="-1"><feGaussianBlur result="blurOut" stdDeviation="2.0"/><feColorMatrix in="blurOut" result="blurOut2" type="matrix" values="0 0 0 0 0 0 0 0 0 0 0 0 0 0 0 0 0 0 .4 0"/><feOffset dx="4.0" dy="4.0" in="blurOut2" result="blurOut3"/><feBlend in="SourceGraphic" in2="blurOut3" mode="normal"/></filter></defs><g><rect fill="#FFFFFF" filter="url(#fidjjsi01ea0q)" height="166.7969" style="stroke: #A80036; stroke-width: 1.0;" width="10" x="94" y="96.2969"/><rect fill="#FFFFFF" filter="url(#fidjjsi01ea0q)" height="29.1328" style="stroke: #A80036; stroke-width: 1.0;" width="10" x="463" y="117.4297"/><rect fill="#FFFFFF" filter="url(#fidjjsi01ea0q)" height="29.1328" style="stroke: #A80036; stroke-width: 1.0;" width="10" x="463" y="175.6953"/><rect fill="#FFFFFF" filter="url(#fidjjsi01ea0q)" height="29.1328" style="stroke: #A80036; stroke-width: 1.0;" width="10" x="463" y="233.9609"/><line style="stroke: #A80036; stroke-width: 1.0; stroke-dasharray: 5.0,5.0;" x1="99" x2="99" y1="86.2969" y2="281.0938"/><line style="stroke: #A80036; stroke-width: 1.0; stroke-dasharray: 5.0,5.0;" x1="467.5" x2="467.5" y1="86.2969" y2="281.0938"/><text fill="#000000" font-family="sans-serif" font-size="14" lengthAdjust="spacingAndGlyphs" textLength="176" x="8" y="82.9951">Manager of Organization</text><ellipse cx="99" cy="13" fill="#FEFECE" filter="url(#fidjjsi01ea0q)" rx="8" ry="8" style="stroke: #A80036; stroke-width: 2.0;"/><path d="M99,21 L99,48 M86,29 L112,29 M99,48 L86,63 M99,48 L112,63 " fill="none" filter="url(#fidjjsi01ea0q)" style="stroke: #A80036; stroke-width: 2.0;"/><text fill="#000000" font-family="sans-serif" font-size="14" lengthAdjust="spacingAndGlyphs" textLength="176" x="8" y="293.0889">Manager of Organization</text><ellipse cx="99" cy="306.3906" fill="#FEFECE" filter="url(#fidjjsi01ea0q)" rx="8" ry="8" style="stroke: #A80036; stroke-width: 2.0;"/><path d="M99,314.3906 L99,341.3906 M86,322.3906 L112,322.3906 M99,341.3906 L86,356.3906 M99,341.3906 L112,356.3906 " fill="none" filter="url(#fidjjsi01ea0q)" style="stroke: #A80036; stroke-width: 2.0;"/><rect fill="#FEFECE" filter="url(#fidjjsi01ea0q)" height="30.2969" style="stroke: #A80036; stroke-width: 1.5;" width="73" x="429.5" y="51"/><text fill="#000000" font-family="sans-serif" font-size="14" lengthAdjust="spacingAndGlyphs" textLength="59" x="436.5" y="70.9951">:System</text><rect fill="#FEFECE" filter="url(#fidjjsi01ea0q)" height="30.2969" style="stroke: #A80036; stroke-width: 1.5;" width="73" x="429.5" y="280.0938"/><text fill="#000000" font-family="sans-serif" font-size="14" lengthAdjust="spacingAndGlyphs" textLength="59" x="436.5" y="300.0889">:System</text><rect fill="#FFFFFF" filter="url(#fidjjsi01ea0q)" height="166.7969" style="stroke: #A80036; stroke-width: 1.0;" width="10" x="94" y="96.2969"/><rect fill="#FFFFFF" filter="url(#fidjjsi01ea0q)" height="29.1328" style="stroke: #A80036; stroke-width: 1.0;" width="10" x="463" y="117.4297"/><rect fill="#FFFFFF" filter="url(#fidjjsi01ea0q)" height="29.1328" style="stroke: #A80036; stroke-width: 1.0;" width="10" x="463" y="175.6953"/><rect fill="#FFFFFF" filter="url(#fidjjsi01ea0q)" height="29.1328" style="stroke: #A80036; stroke-width: 1.0;" width="10" x="463" y="233.9609"/><polygon fill="#A80036" points="451,113.4297,461,117.4297,451,121.4297,455,117.4297" style="stroke: #A80036; stroke-width: 1.0;"/><line style="stroke: #A80036; stroke-width: 1.0;" x1="104" x2="457" y1="117.4297" y2="117.4297"/><text fill="#000000" font-family="sans-serif" font-size="13" font-weight="bold" lengthAdjust="spacingAndGlyphs" textLength="9" x="111" y="112.3638">1</text><text fill="#000000" font-family="sans-serif" font-size="13" lengthAdjust="spacingAndGlyphs" textLength="204" x="124" y="112.3638">begins to load a file (txt or csv).</text><polygon fill="#A80036" points="115,142.5625,105,146.5625,115,150.5625,111,146.5625" style="stroke: #A80036; stroke-width: 1.0;"/><line style="stroke: #A80036; stroke-width: 1.0; stroke-dasharray: 2.0,2.0;" x1="109" x2="467" y1="146.5625" y2="146.5625"/><text fill="#000000" font-family="sans-serif" font-size="13" font-weight="bold" lengthAdjust="spacingAndGlyphs" textLength="9" x="121" y="141.4966">2</text><text fill="#000000" font-family="sans-serif" font-size="13" lengthAdjust="spacingAndGlyphs" textLength="322" x="134" y="141.4966">requests the file that registers a set of transitions.</text><polygon fill="#A80036" points="451,171.6953,461,175.6953,451,179.6953,455,175.6953" style="stroke: #A80036; stroke-width: 1.0;"/><line style="stroke: #A80036; stroke-width: 1.0;" x1="104" x2="457" y1="175.6953" y2="175.6953"/><text fill="#000000" font-family="sans-serif" font-size="13" font-weight="bold" lengthAdjust="spacingAndGlyphs" textLength="8" x="111" y="170.6294">3</text><text fill="#000000" font-family="sans-serif" font-size="13" lengthAdjust="spacingAndGlyphs" textLength="162" x="123" y="170.6294">enters the requested file.</text><polygon fill="#A80036" points="115,200.8281,105,204.8281,115,208.8281,111,204.8281" style="stroke: #A80036; stroke-width: 1.0;"/><line style="stroke: #A80036; stroke-width: 1.0; stroke-dasharray: 2.0,2.0;" x1="109" x2="467" y1="204.8281" y2="204.8281"/><text fill="#000000" font-family="sans-serif" font-size="13" font-weight="bold" lengthAdjust="spacingAndGlyphs" textLength="9" x="121" y="199.7622">4</text><text fill="#000000" font-family="sans-serif" font-size="13" lengthAdjust="spacingAndGlyphs" textLength="260" x="134" y="199.7622">displays the file, asking for confirmation.</text><polygon fill="#A80036" points="451,229.9609,461,233.9609,451,237.9609,455,233.9609" style="stroke: #A80036; stroke-width: 1.0;"/><line style="stroke: #A80036; stroke-width: 1.0;" x1="104" x2="457" y1="233.9609" y2="233.9609"/><text fill="#000000" font-family="sans-serif" font-size="13" font-weight="bold" lengthAdjust="spacingAndGlyphs" textLength="9" x="111" y="228.895">5</text><text fill="#000000" font-family="sans-serif" font-size="13" lengthAdjust="spacingAndGlyphs" textLength="56" x="124" y="228.895">confirms</text><polygon fill="#A80036" points="110,259.0938,100,263.0938,110,267.0938,106,263.0938" style="stroke: #A80036; stroke-width: 1.0;"/><line style="stroke: #A80036; stroke-width: 1.0; stroke-dasharray: 2.0,2.0;" x1="104" x2="467" y1="263.0938" y2="263.0938"/><text fill="#000000" font-family="sans-serif" font-size="13" font-weight="bold" lengthAdjust="spacingAndGlyphs" textLength="9" x="116" y="258.0278">6</text><text fill="#000000" font-family="sans-serif" font-size="13" lengthAdjust="spacingAndGlyphs" textLength="136" x="129" y="258.0278">successful operation.</text><!--MD5=[a09fbc44139e53779aeb09e999365569]
@startuml
autonumber
actor "Manager of Organization" as ADM

activate ADM
ADM -> ":System" : begins to load a file (txt or csv).
activate ":System"
":System" - -> ADM : requests the file that registers a set of transitions.
deactivate ":System"

ADM -> ":System" : enters the requested file.
activate ":System"
":System" - -> ADM : displays the file, asking for confirmation. 
deactivate ":System"

ADM -> ":System" : confirms
activate ":System"
":System" - -> ADM : successful operation.
deactivate ":System"

deactivate ADM
@enduml

PlantUML version 1.2020.10(Sun May 17 09:48:49 UTC 2020)
(GPL source distribution)
Java Runtime: Java(TM) SE Runtime Environment
JVM: Java HotSpot(TM) 64-Bit Server VM
Operating System: Linux
Default Encoding: UTF-8
Language: en
Country: US
--></g></svg>