<?xml version="1.0" encoding="UTF-8" standalone="no"?><svg xmlns="http://www.w3.org/2000/svg" xmlns:xlink="http://www.w3.org/1999/xlink" contentScriptType="application/ecmascript" contentStyleType="text/css" height="1304px" preserveAspectRatio="none" style="width:912px;height:1304px;" version="1.1" viewBox="0 0 912 1304" width="912px" zoomAndPan="magnify"><defs><filter height="300%" id="fttivkk27zr0y" width="300%" x="-1" y="-1"><feGaussianBlur result="blurOut" stdDeviation="2.0"/><feColorMatrix in="blurOut" result="blurOut2" type="matrix" values="0 0 0 0 0 0 0 0 0 0 0 0 0 0 0 0 0 0 .4 0"/><feOffset dx="4.0" dy="4.0" in="blurOut2" result="blurOut3"/><feBlend in="SourceGraphic" in2="blurOut3" mode="normal"/></filter></defs><g><!--MD5=[380d12a68ed0046a60f31008a02875d0]
class AplicacaoPOT--><rect fill="#FEFECE" filter="url(#fttivkk27zr0y)" height="73.6094" id="AplicacaoPOT" style="stroke: #A80036; stroke-width: 1.5;" width="135" x="6" y="252"/><ellipse cx="30.9" cy="268" fill="#ADD1B2" rx="11" ry="11" style="stroke: #A80036; stroke-width: 1.0;"/><path d="M33.2438,263.6719 C32.3063,263.2344 31.7125,263.0938 30.8375,263.0938 C28.2125,263.0938 26.2125,265.1719 26.2125,267.8906 L26.2125,269.0156 C26.2125,271.5938 28.3219,273.4844 31.2125,273.4844 C32.4313,273.4844 33.5875,273.1875 34.3375,272.6406 C34.9156,272.2344 35.2438,271.7813 35.2438,271.3906 C35.2438,270.9375 34.8531,270.5469 34.3844,270.5469 C34.1656,270.5469 33.9625,270.625 33.775,270.8125 C33.3219,271.2969 33.3219,271.2969 33.1344,271.3906 C32.7125,271.6563 32.025,271.7813 31.2594,271.7813 C29.2125,271.7813 27.9156,270.6875 27.9156,268.9844 L27.9156,267.8906 C27.9156,266.1094 29.1656,264.7969 30.9,264.7969 C31.4781,264.7969 32.0875,264.9531 32.5563,265.2031 C33.0406,265.4844 33.2125,265.7031 33.3063,266.1094 C33.3688,266.5156 33.4,266.6406 33.5406,266.7656 C33.6813,266.9063 33.9156,267.0156 34.1344,267.0156 C34.4,267.0156 34.6656,266.875 34.8375,266.6563 C34.9469,266.5 34.9781,266.3125 34.9781,265.8906 L34.9781,264.4688 C34.9781,264.0313 34.9625,263.9063 34.8688,263.75 C34.7125,263.4844 34.4313,263.3438 34.1344,263.3438 C33.8375,263.3438 33.6344,263.4375 33.4156,263.75 L33.2438,263.6719 Z "/><text fill="#000000" font-family="sans-serif" font-size="12" lengthAdjust="spacingAndGlyphs" textLength="81" x="47.1" y="272.1543">AplicacaoPOT</text><line style="stroke: #A80036; stroke-width: 1.5;" x1="7" x2="140" y1="284" y2="284"/><line style="stroke: #A80036; stroke-width: 1.5;" x1="7" x2="140" y1="292" y2="292"/><text fill="#000000" font-family="sans-serif" font-size="11" lengthAdjust="spacingAndGlyphs" textLength="118" x="12" y="306.2104">+static getInstance()</text><text fill="#000000" font-family="sans-serif" font-size="11" lengthAdjust="spacingAndGlyphs" textLength="123" x="12" y="319.0151">+getCurrentSession()</text><!--MD5=[1e13576e8c070e32200b62ceaa1f39ec]
class SessaoUtilizador--><rect fill="#FEFECE" filter="url(#fttivkk27zr0y)" height="60.8047" id="SessaoUtilizador" style="stroke: #A80036; stroke-width: 1.5;" width="134" x="176.5" y="258.5"/><ellipse cx="191.5" cy="274.5" fill="#ADD1B2" rx="11" ry="11" style="stroke: #A80036; stroke-width: 1.0;"/><path d="M193.8438,270.1719 C192.9063,269.7344 192.3125,269.5938 191.4375,269.5938 C188.8125,269.5938 186.8125,271.6719 186.8125,274.3906 L186.8125,275.5156 C186.8125,278.0938 188.9219,279.9844 191.8125,279.9844 C193.0313,279.9844 194.1875,279.6875 194.9375,279.1406 C195.5156,278.7344 195.8438,278.2813 195.8438,277.8906 C195.8438,277.4375 195.4531,277.0469 194.9844,277.0469 C194.7656,277.0469 194.5625,277.125 194.375,277.3125 C193.9219,277.7969 193.9219,277.7969 193.7344,277.8906 C193.3125,278.1563 192.625,278.2813 191.8594,278.2813 C189.8125,278.2813 188.5156,277.1875 188.5156,275.4844 L188.5156,274.3906 C188.5156,272.6094 189.7656,271.2969 191.5,271.2969 C192.0781,271.2969 192.6875,271.4531 193.1563,271.7031 C193.6406,271.9844 193.8125,272.2031 193.9063,272.6094 C193.9688,273.0156 194,273.1406 194.1406,273.2656 C194.2813,273.4063 194.5156,273.5156 194.7344,273.5156 C195,273.5156 195.2656,273.375 195.4375,273.1563 C195.5469,273 195.5781,272.8125 195.5781,272.3906 L195.5781,270.9688 C195.5781,270.5313 195.5625,270.4063 195.4688,270.25 C195.3125,269.9844 195.0313,269.8438 194.7344,269.8438 C194.4375,269.8438 194.2344,269.9375 194.0156,270.25 L193.8438,270.1719 Z "/><text fill="#000000" font-family="sans-serif" font-size="12" lengthAdjust="spacingAndGlyphs" textLength="102" x="205.5" y="278.6543">SessaoUtilizador</text><line style="stroke: #A80036; stroke-width: 1.5;" x1="177.5" x2="309.5" y1="290.5" y2="290.5"/><line style="stroke: #A80036; stroke-width: 1.5;" x1="177.5" x2="309.5" y1="298.5" y2="298.5"/><text fill="#000000" font-family="sans-serif" font-size="11" lengthAdjust="spacingAndGlyphs" textLength="93" x="182.5" y="312.7104">+getUserEmail()</text><!--MD5=[b34797a66dc35cbf1d65f7e3ca75530e]
class Task--><rect fill="#FEFECE" filter="url(#fttivkk27zr0y)" height="112.0234" id="Task" style="stroke: #A80036; stroke-width: 1.5;" width="143" x="494" y="999"/><ellipse cx="547.25" cy="1015" fill="#ADD1B2" rx="11" ry="11" style="stroke: #A80036; stroke-width: 1.0;"/><path d="M549.5938,1010.6719 C548.6563,1010.2344 548.0625,1010.0938 547.1875,1010.0938 C544.5625,1010.0938 542.5625,1012.1719 542.5625,1014.8906 L542.5625,1016.0156 C542.5625,1018.5938 544.6719,1020.4844 547.5625,1020.4844 C548.7813,1020.4844 549.9375,1020.1875 550.6875,1019.6406 C551.2656,1019.2344 551.5938,1018.7813 551.5938,1018.3906 C551.5938,1017.9375 551.2031,1017.5469 550.7344,1017.5469 C550.5156,1017.5469 550.3125,1017.625 550.125,1017.8125 C549.6719,1018.2969 549.6719,1018.2969 549.4844,1018.3906 C549.0625,1018.6563 548.375,1018.7813 547.6094,1018.7813 C545.5625,1018.7813 544.2656,1017.6875 544.2656,1015.9844 L544.2656,1014.8906 C544.2656,1013.1094 545.5156,1011.7969 547.25,1011.7969 C547.8281,1011.7969 548.4375,1011.9531 548.9063,1012.2031 C549.3906,1012.4844 549.5625,1012.7031 549.6563,1013.1094 C549.7188,1013.5156 549.75,1013.6406 549.8906,1013.7656 C550.0313,1013.9063 550.2656,1014.0156 550.4844,1014.0156 C550.75,1014.0156 551.0156,1013.875 551.1875,1013.6563 C551.2969,1013.5 551.3281,1013.3125 551.3281,1012.8906 L551.3281,1011.4688 C551.3281,1011.0313 551.3125,1010.9063 551.2188,1010.75 C551.0625,1010.4844 550.7813,1010.3438 550.4844,1010.3438 C550.1875,1010.3438 549.9844,1010.4375 549.7656,1010.75 L549.5938,1010.6719 Z "/><text fill="#000000" font-family="sans-serif" font-size="12" lengthAdjust="spacingAndGlyphs" textLength="28" x="567.75" y="1019.1543">Task</text><line style="stroke: #A80036; stroke-width: 1.5;" x1="495" x2="636" y1="1031" y2="1031"/><text fill="#000000" font-family="sans-serif" font-size="11" lengthAdjust="spacingAndGlyphs" textLength="51" x="500" y="1045.2104">-String id</text><text fill="#000000" font-family="sans-serif" font-size="11" lengthAdjust="spacingAndGlyphs" textLength="131" x="500" y="1058.0151">-String briefDescription</text><text fill="#000000" font-family="sans-serif" font-size="11" lengthAdjust="spacingAndGlyphs" textLength="123" x="500" y="1070.8198">-Integer timeDuration</text><text fill="#000000" font-family="sans-serif" font-size="11" lengthAdjust="spacingAndGlyphs" textLength="116" x="500" y="1083.6245">-Double costPerHour</text><text fill="#000000" font-family="sans-serif" font-size="11" lengthAdjust="spacingAndGlyphs" textLength="116" x="500" y="1096.4292">-String taskCategory</text><line style="stroke: #A80036; stroke-width: 1.5;" x1="495" x2="636" y1="1103.0234" y2="1103.0234"/><!--MD5=[1f687b5315377fe49fca59b457947463]
class Freelancer--><rect fill="#FEFECE" filter="url(#fttivkk27zr0y)" height="150.4375" id="Freelancer" style="stroke: #A80036; stroke-width: 1.5;" width="140" x="672.5" y="980"/><ellipse cx="706.85" cy="996" fill="#ADD1B2" rx="11" ry="11" style="stroke: #A80036; stroke-width: 1.0;"/><path d="M709.1938,991.6719 C708.2563,991.2344 707.6625,991.0938 706.7875,991.0938 C704.1625,991.0938 702.1625,993.1719 702.1625,995.8906 L702.1625,997.0156 C702.1625,999.5938 704.2719,1001.4844 707.1625,1001.4844 C708.3813,1001.4844 709.5375,1001.1875 710.2875,1000.6406 C710.8656,1000.2344 711.1938,999.7813 711.1938,999.3906 C711.1938,998.9375 710.8031,998.5469 710.3344,998.5469 C710.1156,998.5469 709.9125,998.625 709.725,998.8125 C709.2719,999.2969 709.2719,999.2969 709.0844,999.3906 C708.6625,999.6563 707.975,999.7813 707.2094,999.7813 C705.1625,999.7813 703.8656,998.6875 703.8656,996.9844 L703.8656,995.8906 C703.8656,994.1094 705.1156,992.7969 706.85,992.7969 C707.4281,992.7969 708.0375,992.9531 708.5063,993.2031 C708.9906,993.4844 709.1625,993.7031 709.2563,994.1094 C709.3188,994.5156 709.35,994.6406 709.4906,994.7656 C709.6313,994.9063 709.8656,995.0156 710.0844,995.0156 C710.35,995.0156 710.6156,994.875 710.7875,994.6563 C710.8969,994.5 710.9281,994.3125 710.9281,993.8906 L710.9281,992.4688 C710.9281,992.0313 710.9125,991.9063 710.8188,991.75 C710.6625,991.4844 710.3813,991.3438 710.0844,991.3438 C709.7875,991.3438 709.5844,991.4375 709.3656,991.75 L709.1938,991.6719 Z "/><text fill="#000000" font-family="sans-serif" font-size="12" lengthAdjust="spacingAndGlyphs" textLength="65" x="725.15" y="1000.1543">Freelancer</text><line style="stroke: #A80036; stroke-width: 1.5;" x1="673.5" x2="811.5" y1="1012" y2="1012"/><text fill="#000000" font-family="sans-serif" font-size="11" lengthAdjust="spacingAndGlyphs" textLength="51" x="678.5" y="1026.2104">-String id</text><text fill="#000000" font-family="sans-serif" font-size="11" lengthAdjust="spacingAndGlyphs" textLength="74" x="678.5" y="1039.0151">-String name</text><text fill="#000000" font-family="sans-serif" font-size="11" lengthAdjust="spacingAndGlyphs" textLength="128" x="678.5" y="1051.8198">-String expertiseLevel</text><text fill="#000000" font-family="sans-serif" font-size="11" lengthAdjust="spacingAndGlyphs" textLength="73" x="678.5" y="1064.6245">-String email</text><text fill="#000000" font-family="sans-serif" font-size="11" lengthAdjust="spacingAndGlyphs" textLength="58" x="678.5" y="1077.4292">-String NIF</text><text fill="#000000" font-family="sans-serif" font-size="11" lengthAdjust="spacingAndGlyphs" textLength="68" x="678.5" y="1090.2339">-String IBAN</text><text fill="#000000" font-family="sans-serif" font-size="11" lengthAdjust="spacingAndGlyphs" textLength="86" x="678.5" y="1103.0386">-String address</text><text fill="#000000" font-family="sans-serif" font-size="11" lengthAdjust="spacingAndGlyphs" textLength="83" x="678.5" y="1115.8433">-String country</text><line style="stroke: #A80036; stroke-width: 1.5;" x1="673.5" x2="811.5" y1="1122.4375" y2="1122.4375"/><!--MD5=[86c7c362de55a38b660185a1328fe18d]
class Organization--><rect fill="#FEFECE" filter="url(#fttivkk27zr0y)" height="73.6094" id="Organization" style="stroke: #A80036; stroke-width: 1.5;" width="360" x="394.5" y="541"/><ellipse cx="532.25" cy="557" fill="#ADD1B2" rx="11" ry="11" style="stroke: #A80036; stroke-width: 1.0;"/><path d="M534.5938,552.6719 C533.6563,552.2344 533.0625,552.0938 532.1875,552.0938 C529.5625,552.0938 527.5625,554.1719 527.5625,556.8906 L527.5625,558.0156 C527.5625,560.5938 529.6719,562.4844 532.5625,562.4844 C533.7813,562.4844 534.9375,562.1875 535.6875,561.6406 C536.2656,561.2344 536.5938,560.7813 536.5938,560.3906 C536.5938,559.9375 536.2031,559.5469 535.7344,559.5469 C535.5156,559.5469 535.3125,559.625 535.125,559.8125 C534.6719,560.2969 534.6719,560.2969 534.4844,560.3906 C534.0625,560.6563 533.375,560.7813 532.6094,560.7813 C530.5625,560.7813 529.2656,559.6875 529.2656,557.9844 L529.2656,556.8906 C529.2656,555.1094 530.5156,553.7969 532.25,553.7969 C532.8281,553.7969 533.4375,553.9531 533.9063,554.2031 C534.3906,554.4844 534.5625,554.7031 534.6563,555.1094 C534.7188,555.5156 534.75,555.6406 534.8906,555.7656 C535.0313,555.9063 535.2656,556.0156 535.4844,556.0156 C535.75,556.0156 536.0156,555.875 536.1875,555.6563 C536.2969,555.5 536.3281,555.3125 536.3281,554.8906 L536.3281,553.4688 C536.3281,553.0313 536.3125,552.9063 536.2188,552.75 C536.0625,552.4844 535.7813,552.3438 535.4844,552.3438 C535.1875,552.3438 534.9844,552.4375 534.7656,552.75 L534.5938,552.6719 Z "/><text fill="#000000" font-family="sans-serif" font-size="12" lengthAdjust="spacingAndGlyphs" textLength="76" x="552.75" y="561.1543">Organization</text><line style="stroke: #A80036; stroke-width: 1.5;" x1="395.5" x2="753.5" y1="573" y2="573"/><text fill="#000000" font-family="sans-serif" font-size="11" lengthAdjust="spacingAndGlyphs" textLength="74" x="400.5" y="587.2104">-String name</text><line style="stroke: #A80036; stroke-width: 1.5;" x1="395.5" x2="753.5" y1="593.8047" y2="593.8047"/><text fill="#000000" font-family="sans-serif" font-size="11" lengthAdjust="spacingAndGlyphs" textLength="348" x="400.5" y="608.0151">+PaymentTransactionRecord getPaymentTransactionRecord()</text><!--MD5=[99b8db98afdc2c8404e39242ef4c1e65]
class Platform--><rect fill="#FEFECE" filter="url(#fttivkk27zr0y)" height="73.6094" id="Platform" style="stroke: #A80036; stroke-width: 1.5;" width="274" x="416.5" y="252"/><ellipse cx="525.25" cy="268" fill="#ADD1B2" rx="11" ry="11" style="stroke: #A80036; stroke-width: 1.0;"/><path d="M527.5938,263.6719 C526.6563,263.2344 526.0625,263.0938 525.1875,263.0938 C522.5625,263.0938 520.5625,265.1719 520.5625,267.8906 L520.5625,269.0156 C520.5625,271.5938 522.6719,273.4844 525.5625,273.4844 C526.7813,273.4844 527.9375,273.1875 528.6875,272.6406 C529.2656,272.2344 529.5938,271.7813 529.5938,271.3906 C529.5938,270.9375 529.2031,270.5469 528.7344,270.5469 C528.5156,270.5469 528.3125,270.625 528.125,270.8125 C527.6719,271.2969 527.6719,271.2969 527.4844,271.3906 C527.0625,271.6563 526.375,271.7813 525.6094,271.7813 C523.5625,271.7813 522.2656,270.6875 522.2656,268.9844 L522.2656,267.8906 C522.2656,266.1094 523.5156,264.7969 525.25,264.7969 C525.8281,264.7969 526.4375,264.9531 526.9063,265.2031 C527.3906,265.4844 527.5625,265.7031 527.6563,266.1094 C527.7188,266.5156 527.75,266.6406 527.8906,266.7656 C528.0313,266.9063 528.2656,267.0156 528.4844,267.0156 C528.75,267.0156 529.0156,266.875 529.1875,266.6563 C529.2969,266.5 529.3281,266.3125 529.3281,265.8906 L529.3281,264.4688 C529.3281,264.0313 529.3125,263.9063 529.2188,263.75 C529.0625,263.4844 528.7813,263.3438 528.4844,263.3438 C528.1875,263.3438 527.9844,263.4375 527.7656,263.75 L527.5938,263.6719 Z "/><text fill="#000000" font-family="sans-serif" font-size="12" lengthAdjust="spacingAndGlyphs" textLength="48" x="545.75" y="272.1543">Platform</text><line style="stroke: #A80036; stroke-width: 1.5;" x1="417.5" x2="689.5" y1="284" y2="284"/><text fill="#000000" font-family="sans-serif" font-size="11" lengthAdjust="spacingAndGlyphs" textLength="107" x="422.5" y="298.2104">-String designation</text><line style="stroke: #A80036; stroke-width: 1.5;" x1="417.5" x2="689.5" y1="304.8047" y2="304.8047"/><text fill="#000000" font-family="sans-serif" font-size="11" lengthAdjust="spacingAndGlyphs" textLength="262" x="422.5" y="319.0151">+OrganizationRecord getOrganizationRecord()</text><!--MD5=[cbc641a8e27dbfa422a9c525dae36a67]
class OrganizationRecord--><rect fill="#FEFECE" filter="url(#fttivkk27zr0y)" height="60.8047" id="OrganizationRecord" style="stroke: #A80036; stroke-width: 1.5;" width="224" x="462.5" y="403"/><ellipse cx="510.75" cy="419" fill="#ADD1B2" rx="11" ry="11" style="stroke: #A80036; stroke-width: 1.0;"/><path d="M513.0938,414.6719 C512.1563,414.2344 511.5625,414.0938 510.6875,414.0938 C508.0625,414.0938 506.0625,416.1719 506.0625,418.8906 L506.0625,420.0156 C506.0625,422.5938 508.1719,424.4844 511.0625,424.4844 C512.2813,424.4844 513.4375,424.1875 514.1875,423.6406 C514.7656,423.2344 515.0938,422.7813 515.0938,422.3906 C515.0938,421.9375 514.7031,421.5469 514.2344,421.5469 C514.0156,421.5469 513.8125,421.625 513.625,421.8125 C513.1719,422.2969 513.1719,422.2969 512.9844,422.3906 C512.5625,422.6563 511.875,422.7813 511.1094,422.7813 C509.0625,422.7813 507.7656,421.6875 507.7656,419.9844 L507.7656,418.8906 C507.7656,417.1094 509.0156,415.7969 510.75,415.7969 C511.3281,415.7969 511.9375,415.9531 512.4063,416.2031 C512.8906,416.4844 513.0625,416.7031 513.1563,417.1094 C513.2188,417.5156 513.25,417.6406 513.3906,417.7656 C513.5313,417.9063 513.7656,418.0156 513.9844,418.0156 C514.25,418.0156 514.5156,417.875 514.6875,417.6563 C514.7969,417.5 514.8281,417.3125 514.8281,416.8906 L514.8281,415.4688 C514.8281,415.0313 514.8125,414.9063 514.7188,414.75 C514.5625,414.4844 514.2813,414.3438 513.9844,414.3438 C513.6875,414.3438 513.4844,414.4375 513.2656,414.75 L513.0938,414.6719 Z "/><text fill="#000000" font-family="sans-serif" font-size="12" lengthAdjust="spacingAndGlyphs" textLength="119" x="531.25" y="423.1543">OrganizationRecord</text><line style="stroke: #A80036; stroke-width: 1.5;" x1="463.5" x2="685.5" y1="435" y2="435"/><line style="stroke: #A80036; stroke-width: 1.5;" x1="463.5" x2="685.5" y1="443" y2="443"/><text fill="#000000" font-family="sans-serif" font-size="11" lengthAdjust="spacingAndGlyphs" textLength="212" x="468.5" y="457.2104">+getOrganizationByUserEmail(email)</text><!--MD5=[73a5007b8263922b239a6e877cbbceb6]
class UploadFileController--><rect fill="#FEFECE" filter="url(#fttivkk27zr0y)" height="73.6094" id="UploadFileController" style="stroke: #A80036; stroke-width: 1.5;" width="155" x="344" y="117"/><ellipse cx="359" cy="133" fill="#ADD1B2" rx="11" ry="11" style="stroke: #A80036; stroke-width: 1.0;"/><path d="M361.3438,128.6719 C360.4063,128.2344 359.8125,128.0938 358.9375,128.0938 C356.3125,128.0938 354.3125,130.1719 354.3125,132.8906 L354.3125,134.0156 C354.3125,136.5938 356.4219,138.4844 359.3125,138.4844 C360.5313,138.4844 361.6875,138.1875 362.4375,137.6406 C363.0156,137.2344 363.3438,136.7813 363.3438,136.3906 C363.3438,135.9375 362.9531,135.5469 362.4844,135.5469 C362.2656,135.5469 362.0625,135.625 361.875,135.8125 C361.4219,136.2969 361.4219,136.2969 361.2344,136.3906 C360.8125,136.6563 360.125,136.7813 359.3594,136.7813 C357.3125,136.7813 356.0156,135.6875 356.0156,133.9844 L356.0156,132.8906 C356.0156,131.1094 357.2656,129.7969 359,129.7969 C359.5781,129.7969 360.1875,129.9531 360.6563,130.2031 C361.1406,130.4844 361.3125,130.7031 361.4063,131.1094 C361.4688,131.5156 361.5,131.6406 361.6406,131.7656 C361.7813,131.9063 362.0156,132.0156 362.2344,132.0156 C362.5,132.0156 362.7656,131.875 362.9375,131.6563 C363.0469,131.5 363.0781,131.3125 363.0781,130.8906 L363.0781,129.4688 C363.0781,129.0313 363.0625,128.9063 362.9688,128.75 C362.8125,128.4844 362.5313,128.3438 362.2344,128.3438 C361.9375,128.3438 361.7344,128.4375 361.5156,128.75 L361.3438,128.6719 Z "/><text fill="#000000" font-family="sans-serif" font-size="12" lengthAdjust="spacingAndGlyphs" textLength="123" x="373" y="137.1543">UploadFileController</text><line style="stroke: #A80036; stroke-width: 1.5;" x1="345" x2="498" y1="149" y2="149"/><line style="stroke: #A80036; stroke-width: 1.5;" x1="345" x2="498" y1="157" y2="157"/><text fill="#000000" font-family="sans-serif" font-size="11" lengthAdjust="spacingAndGlyphs" textLength="114" x="350" y="171.2104">+readFile(filename)</text><text fill="#000000" font-family="sans-serif" font-size="11" lengthAdjust="spacingAndGlyphs" textLength="122" x="350" y="184.0151">+uploadFileRegister()</text><!--MD5=[b8fcdd00f36f946ee695dd56ca460965]
class UploadFileUI--><rect fill="#FEFECE" filter="url(#fttivkk27zr0y)" height="48" id="UploadFileUI" style="stroke: #A80036; stroke-width: 1.5;" width="108" x="367.5" y="8"/><ellipse cx="382.5" cy="24" fill="#ADD1B2" rx="11" ry="11" style="stroke: #A80036; stroke-width: 1.0;"/><path d="M384.8438,19.6719 C383.9063,19.2344 383.3125,19.0938 382.4375,19.0938 C379.8125,19.0938 377.8125,21.1719 377.8125,23.8906 L377.8125,25.0156 C377.8125,27.5938 379.9219,29.4844 382.8125,29.4844 C384.0313,29.4844 385.1875,29.1875 385.9375,28.6406 C386.5156,28.2344 386.8438,27.7813 386.8438,27.3906 C386.8438,26.9375 386.4531,26.5469 385.9844,26.5469 C385.7656,26.5469 385.5625,26.625 385.375,26.8125 C384.9219,27.2969 384.9219,27.2969 384.7344,27.3906 C384.3125,27.6563 383.625,27.7813 382.8594,27.7813 C380.8125,27.7813 379.5156,26.6875 379.5156,24.9844 L379.5156,23.8906 C379.5156,22.1094 380.7656,20.7969 382.5,20.7969 C383.0781,20.7969 383.6875,20.9531 384.1563,21.2031 C384.6406,21.4844 384.8125,21.7031 384.9063,22.1094 C384.9688,22.5156 385,22.6406 385.1406,22.7656 C385.2813,22.9063 385.5156,23.0156 385.7344,23.0156 C386,23.0156 386.2656,22.875 386.4375,22.6563 C386.5469,22.5 386.5781,22.3125 386.5781,21.8906 L386.5781,20.4688 C386.5781,20.0313 386.5625,19.9063 386.4688,19.75 C386.3125,19.4844 386.0313,19.3438 385.7344,19.3438 C385.4375,19.3438 385.2344,19.4375 385.0156,19.75 L384.8438,19.6719 Z "/><text fill="#000000" font-family="sans-serif" font-size="12" lengthAdjust="spacingAndGlyphs" textLength="76" x="396.5" y="28.1543">UploadFileUI</text><line style="stroke: #A80036; stroke-width: 1.5;" x1="368.5" x2="474.5" y1="40" y2="40"/><line style="stroke: #A80036; stroke-width: 1.5;" x1="368.5" x2="474.5" y1="48" y2="48"/><!--MD5=[b645a18afb25b7e5623af7186d8eb36f]
class PaymentTransaction--><rect fill="#FEFECE" filter="url(#fttivkk27zr0y)" height="48" id="PaymentTransaction" style="stroke: #A80036; stroke-width: 1.5;" width="151" x="667" y="855"/><ellipse cx="682" cy="871" fill="#ADD1B2" rx="11" ry="11" style="stroke: #A80036; stroke-width: 1.0;"/><path d="M684.3438,866.6719 C683.4063,866.2344 682.8125,866.0938 681.9375,866.0938 C679.3125,866.0938 677.3125,868.1719 677.3125,870.8906 L677.3125,872.0156 C677.3125,874.5938 679.4219,876.4844 682.3125,876.4844 C683.5313,876.4844 684.6875,876.1875 685.4375,875.6406 C686.0156,875.2344 686.3438,874.7813 686.3438,874.3906 C686.3438,873.9375 685.9531,873.5469 685.4844,873.5469 C685.2656,873.5469 685.0625,873.625 684.875,873.8125 C684.4219,874.2969 684.4219,874.2969 684.2344,874.3906 C683.8125,874.6563 683.125,874.7813 682.3594,874.7813 C680.3125,874.7813 679.0156,873.6875 679.0156,871.9844 L679.0156,870.8906 C679.0156,869.1094 680.2656,867.7969 682,867.7969 C682.5781,867.7969 683.1875,867.9531 683.6563,868.2031 C684.1406,868.4844 684.3125,868.7031 684.4063,869.1094 C684.4688,869.5156 684.5,869.6406 684.6406,869.7656 C684.7813,869.9063 685.0156,870.0156 685.2344,870.0156 C685.5,870.0156 685.7656,869.875 685.9375,869.6563 C686.0469,869.5 686.0781,869.3125 686.0781,868.8906 L686.0781,867.4688 C686.0781,867.0313 686.0625,866.9063 685.9688,866.75 C685.8125,866.4844 685.5313,866.3438 685.2344,866.3438 C684.9375,866.3438 684.7344,866.4375 684.5156,866.75 L684.3438,866.6719 Z "/><text fill="#000000" font-family="sans-serif" font-size="12" lengthAdjust="spacingAndGlyphs" textLength="119" x="696" y="875.1543">PaymentTransaction</text><line style="stroke: #A80036; stroke-width: 1.5;" x1="668" x2="817" y1="887" y2="887"/><line style="stroke: #A80036; stroke-width: 1.5;" x1="668" x2="817" y1="895" y2="895"/><!--MD5=[bdfdfa3ae796407f5b3209086ea918e6]
class PaymentTransactionRecord--><rect fill="#FEFECE" filter="url(#fttivkk27zr0y)" height="86.4141" id="PaymentTransactionRecord" style="stroke: #A80036; stroke-width: 1.5;" width="194" x="645.5" y="692"/><ellipse cx="660.5" cy="708" fill="#ADD1B2" rx="11" ry="11" style="stroke: #A80036; stroke-width: 1.0;"/><path d="M662.8438,703.6719 C661.9063,703.2344 661.3125,703.0938 660.4375,703.0938 C657.8125,703.0938 655.8125,705.1719 655.8125,707.8906 L655.8125,709.0156 C655.8125,711.5938 657.9219,713.4844 660.8125,713.4844 C662.0313,713.4844 663.1875,713.1875 663.9375,712.6406 C664.5156,712.2344 664.8438,711.7813 664.8438,711.3906 C664.8438,710.9375 664.4531,710.5469 663.9844,710.5469 C663.7656,710.5469 663.5625,710.625 663.375,710.8125 C662.9219,711.2969 662.9219,711.2969 662.7344,711.3906 C662.3125,711.6563 661.625,711.7813 660.8594,711.7813 C658.8125,711.7813 657.5156,710.6875 657.5156,708.9844 L657.5156,707.8906 C657.5156,706.1094 658.7656,704.7969 660.5,704.7969 C661.0781,704.7969 661.6875,704.9531 662.1563,705.2031 C662.6406,705.4844 662.8125,705.7031 662.9063,706.1094 C662.9688,706.5156 663,706.6406 663.1406,706.7656 C663.2813,706.9063 663.5156,707.0156 663.7344,707.0156 C664,707.0156 664.2656,706.875 664.4375,706.6563 C664.5469,706.5 664.5781,706.3125 664.5781,705.8906 L664.5781,704.4688 C664.5781,704.0313 664.5625,703.9063 664.4688,703.75 C664.3125,703.4844 664.0313,703.3438 663.7344,703.3438 C663.4375,703.3438 663.2344,703.4375 663.0156,703.75 L662.8438,703.6719 Z "/><text fill="#000000" font-family="sans-serif" font-size="12" lengthAdjust="spacingAndGlyphs" textLength="162" x="674.5" y="712.1543">PaymentTransactionRecord</text><line style="stroke: #A80036; stroke-width: 1.5;" x1="646.5" x2="838.5" y1="724" y2="724"/><line style="stroke: #A80036; stroke-width: 1.5;" x1="646.5" x2="838.5" y1="732" y2="732"/><text fill="#000000" font-family="sans-serif" font-size="11" lengthAdjust="spacingAndGlyphs" textLength="114" x="651.5" y="746.2104">+readFile(filename)</text><text fill="#000000" font-family="sans-serif" font-size="11" lengthAdjust="spacingAndGlyphs" textLength="140" x="651.5" y="759.0151">+uploadFileRegister(par)</text><text fill="#000000" font-family="sans-serif" font-size="11" lengthAdjust="spacingAndGlyphs" textLength="140" x="651.5" y="771.8198">+validateUploadFile(par)</text><!--MD5=[5ce80547de3caced9d0089e35ded5090]
class TaskExecution--><rect fill="#FEFECE" filter="url(#fttivkk27zr0y)" height="86.4141" id="TaskExecution" style="stroke: #A80036; stroke-width: 1.5;" width="183" x="700" y="1207"/><ellipse cx="744.25" cy="1223" fill="#ADD1B2" rx="11" ry="11" style="stroke: #A80036; stroke-width: 1.0;"/><path d="M746.5938,1218.6719 C745.6563,1218.2344 745.0625,1218.0938 744.1875,1218.0938 C741.5625,1218.0938 739.5625,1220.1719 739.5625,1222.8906 L739.5625,1224.0156 C739.5625,1226.5938 741.6719,1228.4844 744.5625,1228.4844 C745.7813,1228.4844 746.9375,1228.1875 747.6875,1227.6406 C748.2656,1227.2344 748.5938,1226.7813 748.5938,1226.3906 C748.5938,1225.9375 748.2031,1225.5469 747.7344,1225.5469 C747.5156,1225.5469 747.3125,1225.625 747.125,1225.8125 C746.6719,1226.2969 746.6719,1226.2969 746.4844,1226.3906 C746.0625,1226.6563 745.375,1226.7813 744.6094,1226.7813 C742.5625,1226.7813 741.2656,1225.6875 741.2656,1223.9844 L741.2656,1222.8906 C741.2656,1221.1094 742.5156,1219.7969 744.25,1219.7969 C744.8281,1219.7969 745.4375,1219.9531 745.9063,1220.2031 C746.3906,1220.4844 746.5625,1220.7031 746.6563,1221.1094 C746.7188,1221.5156 746.75,1221.6406 746.8906,1221.7656 C747.0313,1221.9063 747.2656,1222.0156 747.4844,1222.0156 C747.75,1222.0156 748.0156,1221.875 748.1875,1221.6563 C748.2969,1221.5 748.3281,1221.3125 748.3281,1220.8906 L748.3281,1219.4688 C748.3281,1219.0313 748.3125,1218.9063 748.2188,1218.75 C748.0625,1218.4844 747.7813,1218.3438 747.4844,1218.3438 C747.1875,1218.3438 746.9844,1218.4375 746.7656,1218.75 L746.5938,1218.6719 Z "/><text fill="#000000" font-family="sans-serif" font-size="12" lengthAdjust="spacingAndGlyphs" textLength="86" x="764.75" y="1227.1543">TaskExecution</text><line style="stroke: #A80036; stroke-width: 1.5;" x1="701" x2="882" y1="1239" y2="1239"/><text fill="#000000" font-family="sans-serif" font-size="11" lengthAdjust="spacingAndGlyphs" textLength="86" x="706" y="1253.2104">-Date endDate</text><text fill="#000000" font-family="sans-serif" font-size="11" lengthAdjust="spacingAndGlyphs" textLength="81" x="706" y="1266.0151">-Double delay</text><text fill="#000000" font-family="sans-serif" font-size="11" lengthAdjust="spacingAndGlyphs" textLength="171" x="706" y="1278.8198">-String workQualityDescription</text><line style="stroke: #A80036; stroke-width: 1.5;" x1="701" x2="882" y1="1285.4141" y2="1285.4141"/><!--MD5=[09095b1dc00f6d4c5c09c967e0b79399]
link UploadFileUI to UploadFileController--><path d="M421.5,56.14 C421.5,71.83 421.5,93 421.5,111.55 " fill="none" id="UploadFileUI-&gt;UploadFileController" style="stroke: #A80036; stroke-width: 1.0; stroke-dasharray: 7.0,7.0;"/><polygon fill="#A80036" points="421.5,116.71,425.5,107.71,421.5,111.71,417.5,107.71,421.5,116.71" style="stroke: #A80036; stroke-width: 1.0;"/><!--MD5=[124e7af9837343bc760a787a8ffe634d]
link UploadFileController to Platform--><path d="M457.57,191.34 C475.031,208.94 496.038,230.1 513.938,248.14 " fill="none" id="UploadFileController-&gt;Platform" style="stroke: #A80036; stroke-width: 1.0; stroke-dasharray: 7.0,7.0;"/><polygon fill="#A80036" points="517.474,251.7,513.9831,242.4906,513.9557,248.1473,508.2989,248.1199,517.474,251.7" style="stroke: #A80036; stroke-width: 1.0;"/><!--MD5=[7c3e1c314f9c4c95e17634e99bfb5636]
link UploadFileController to Organization--><path d="M410.844,191.03 C406.03,209.15 400.892,231.54 398.5,252 C387.302,347.762 390.979,383.805 444.5,464 C463.566,492.568 491.692,518.248 516.91,537.88 " fill="none" id="UploadFileController-&gt;Organization" style="stroke: #A80036; stroke-width: 1.0; stroke-dasharray: 7.0,7.0;"/><polygon fill="#A80036" points="520.931,540.979,516.2435,532.3172,516.9704,537.9271,511.3605,538.6541,520.931,540.979" style="stroke: #A80036; stroke-width: 1.0;"/><!--MD5=[a85d517ffa375d6d959dfa1c523e9056]
link UploadFileController to AplicacaoPOT--><path d="M343.743,182.59 C291.194,201.5 220.378,227.5 158.5,252 C154.342,253.65 150.08,255.36 145.787,257.11 " fill="none" id="UploadFileController-&gt;AplicacaoPOT" style="stroke: #A80036; stroke-width: 1.0; stroke-dasharray: 7.0,7.0;"/><polygon fill="#A80036" points="141.119,259.02,150.9635,259.3131,145.7465,257.1262,147.9334,251.9091,141.119,259.02" style="stroke: #A80036; stroke-width: 1.0;"/><!--MD5=[2b5c0e5bd7e4aa872cbf586252c7a8a8]
link UploadFileController to SessaoUtilizador--><path d="M372.861,191.34 C346.089,211.35 313.135,235.97 287.189,255.36 " fill="none" id="UploadFileController-&gt;SessaoUtilizador" style="stroke: #A80036; stroke-width: 1.0; stroke-dasharray: 7.0,7.0;"/><polygon fill="#A80036" points="283.087,258.42,292.6895,256.231,287.0904,255.4246,287.8968,249.8255,283.087,258.42" style="stroke: #A80036; stroke-width: 1.0;"/><!--MD5=[9e8875d203b900fbc91803c2ae063253]
link UploadFileController to PaymentTransactionRecord--><path d="M499.144,165.2 C613.676,182.45 814.5,222.09 814.5,288 C814.5,288 814.5,288 814.5,579 C814.5,618.168 795.355,658.157 776.81,687.704 " fill="none" id="UploadFileController-&gt;PaymentTransactionRecord" style="stroke: #A80036; stroke-width: 1.0; stroke-dasharray: 7.0,7.0;"/><polygon fill="#A80036" points="774.08,691.987,782.2906,686.5477,776.7675,687.7707,775.5445,682.2476,774.08,691.987" style="stroke: #A80036; stroke-width: 1.0;"/><!--MD5=[3004397e1a84e5cbb92d48bea4b115b4]
link UploadFileController to OrganizationRecord--><path d="M499.126,157.67 C566.518,164.6 660.46,186.37 707.5,252 C726.661,278.73 721.74,296.354 707.5,326 C692.485,357.258 663.333,382.221 636.138,400.099 " fill="none" id="UploadFileController-&gt;OrganizationRecord" style="stroke: #A80036; stroke-width: 1.0; stroke-dasharray: 7.0,7.0;"/><polygon fill="#A80036" points="631.793,402.908,641.5231,401.3833,635.9926,400.1945,637.1815,394.664,631.793,402.908" style="stroke: #A80036; stroke-width: 1.0;"/><!--MD5=[76dd8b0213adc6164fe232d2ec5e06d4]
link Platform to OrganizationRecord--><path d="M558.854,326.327 C562.094,348.313 566.202,376.193 569.396,397.866 " fill="none" id="Platform-&gt;OrganizationRecord" style="stroke: #A80036; stroke-width: 1.0;"/><polygon fill="#A80036" points="570.146,402.952,572.792,393.4652,569.4175,398.0054,564.8774,394.6308,570.146,402.952" style="stroke: #A80036; stroke-width: 1.0;"/><text fill="#000000" font-family="sans-serif" font-size="13" lengthAdjust="spacingAndGlyphs" textLength="23" x="566.5" y="369.0669">has</text><text fill="#000000" font-family="sans-serif" font-size="13" lengthAdjust="spacingAndGlyphs" textLength="8" x="551.0698" y="345.5799">1</text><text fill="#000000" font-family="sans-serif" font-size="13" lengthAdjust="spacingAndGlyphs" textLength="8" x="560.3186" y="391.7318">1</text><!--MD5=[896b68ddb41e7a366f2f4442a4840a84]
link OrganizationRecord to Organization--><path d="M574.5,464.026 C574.5,484.792 574.5,512.86 574.5,535.823 " fill="none" id="OrganizationRecord-&gt;Organization" style="stroke: #A80036; stroke-width: 1.0;"/><polygon fill="#A80036" points="574.5,540.941,578.5,531.941,574.5,535.941,570.5,531.941,574.5,540.941" style="stroke: #A80036; stroke-width: 1.0;"/><text fill="#000000" font-family="sans-serif" font-size="13" lengthAdjust="spacingAndGlyphs" textLength="23" x="575.5" y="507.0669">has</text><text fill="#000000" font-family="sans-serif" font-size="13" lengthAdjust="spacingAndGlyphs" textLength="8" x="565.675" y="483.9696">1</text><text fill="#000000" font-family="sans-serif" font-size="13" lengthAdjust="spacingAndGlyphs" textLength="7" x="566.8547" y="529.8406">*</text><!--MD5=[cc19b242b95aad757bdcae9c1bda2983]
link Organization to PaymentTransactionRecord--><path d="M613.889,615.341 C637.553,637.174 667.871,665.146 693.127,688.448 " fill="none" id="Organization-&gt;PaymentTransactionRecord" style="stroke: #A80036; stroke-width: 1.0;"/><polygon fill="#A80036" points="696.815,691.85,692.9127,682.8072,693.1402,688.4595,687.4879,688.687,696.815,691.85" style="stroke: #A80036; stroke-width: 1.0;"/><text fill="#000000" font-family="sans-serif" font-size="13" lengthAdjust="spacingAndGlyphs" textLength="23" x="665.5" y="658.0669">has</text><text fill="#000000" font-family="sans-serif" font-size="13" lengthAdjust="spacingAndGlyphs" textLength="8" x="611.5291" y="634.5961">1</text><text fill="#000000" font-family="sans-serif" font-size="13" lengthAdjust="spacingAndGlyphs" textLength="7" x="681.9761" y="680.8221">*</text><!--MD5=[70acf2172686edb70ba20bc7b28c89b2]
link PaymentTransactionRecord to PaymentTransaction--><path d="M742.5,778.22 C742.5,801.282 742.5,829.221 742.5,849.662 " fill="none" id="PaymentTransactionRecord-&gt;PaymentTransaction" style="stroke: #A80036; stroke-width: 1.0;"/><polygon fill="#A80036" points="742.5,854.69,746.5,845.69,742.5,849.69,738.5,845.69,742.5,854.69" style="stroke: #A80036; stroke-width: 1.0;"/><text fill="#000000" font-family="sans-serif" font-size="13" lengthAdjust="spacingAndGlyphs" textLength="23" x="743.5" y="821.0669">has</text><text fill="#000000" font-family="sans-serif" font-size="13" lengthAdjust="spacingAndGlyphs" textLength="8" x="733.8625" y="798.348">1</text><text fill="#000000" font-family="sans-serif" font-size="13" lengthAdjust="spacingAndGlyphs" textLength="7" x="734.6469" y="844.0194">*</text><!--MD5=[bdc7b78a1b1f03a53fec8289ba75cac4]
link Task to TaskExecution--><path d="M629.96,1111.048 C664.186,1140.276 705.748,1175.769 738.143,1203.4339 " fill="none" id="Task-&gt;TaskExecution" style="stroke: #A80036; stroke-width: 1.0;"/><polygon fill="#A80036" points="742.047,1206.7679,737.8009,1197.8814,738.2449,1203.5208,732.6055,1203.9648,742.047,1206.7679" style="stroke: #A80036; stroke-width: 1.0;"/><text fill="#000000" font-family="sans-serif" font-size="13" lengthAdjust="spacingAndGlyphs" textLength="23" x="706.5" y="1173.0669">has</text><text fill="#000000" font-family="sans-serif" font-size="13" lengthAdjust="spacingAndGlyphs" textLength="8" x="629.7064" y="1131.264">1</text><text fill="#000000" font-family="sans-serif" font-size="13" lengthAdjust="spacingAndGlyphs" textLength="8" x="725.862" y="1196.045">1</text><!--MD5=[f6802b286771c18a16ea4be983074371]
link PaymentTransaction to Freelancer--><path d="M742.5,903.106 C742.5,921.566 742.5,948.579 742.5,974.666 " fill="none" id="PaymentTransaction-&gt;Freelancer" style="stroke: #A80036; stroke-width: 1.0;"/><polygon fill="#A80036" points="742.5,979.868,746.5,970.868,742.5,974.868,738.5,970.868,742.5,979.868" style="stroke: #A80036; stroke-width: 1.0;"/><text fill="#000000" font-family="sans-serif" font-size="13" lengthAdjust="spacingAndGlyphs" textLength="62" x="743.5" y="946.0669">related to</text><text fill="#000000" font-family="sans-serif" font-size="13" lengthAdjust="spacingAndGlyphs" textLength="8" x="733.525" y="922.893">1</text><text fill="#000000" font-family="sans-serif" font-size="13" lengthAdjust="spacingAndGlyphs" textLength="8" x="734.1188" y="969.0445">1</text><!--MD5=[271ce7fefd7250ebaca83b70495774bd]
link PaymentTransaction to Task--><path d="M707.948,903.068 C695.658,911.876 682.02,922.368 670.5,933 C650.092,951.834 629.632,974.382 612.263,994.883 " fill="none" id="PaymentTransaction-&gt;Task" style="stroke: #A80036; stroke-width: 1.0;"/><polygon fill="#A80036" points="608.832,998.954,617.6905,994.6496,612.0541,995.1306,611.5731,989.4943,608.832,998.954" style="stroke: #A80036; stroke-width: 1.0;"/><text fill="#000000" font-family="sans-serif" font-size="13" lengthAdjust="spacingAndGlyphs" textLength="62" x="671.5" y="946.0669">related to</text><text fill="#000000" font-family="sans-serif" font-size="13" lengthAdjust="spacingAndGlyphs" textLength="8" x="690.0691" y="923.2412">1</text><text fill="#000000" font-family="sans-serif" font-size="13" lengthAdjust="spacingAndGlyphs" textLength="8" x="605.8714" y="987.8861">1</text><!--MD5=[ccf9e4a23b86a8fcbc3774eff83a0cb7]
link PaymentTransaction to TaskExecution--><path d="M783.035,903.102 C794.532,911.292 806.173,921.4 814.5,933 C827.286,950.813 826.127,958.334 829.5,980 C839.757,1045.873 839.762,1064.128 829.5,1130 C825.714,1154.305 817.823,1180.433 810.208,1201.9967 " fill="none" id="PaymentTransaction-&gt;TaskExecution" style="stroke: #A80036; stroke-width: 1.0;"/><polygon fill="#A80036" points="808.487,1206.8083,815.2849,1199.6817,810.1712,1202.1005,807.7524,1196.9869,808.487,1206.8083" style="stroke: #A80036; stroke-width: 1.0;"/><text fill="#000000" font-family="sans-serif" font-size="13" lengthAdjust="spacingAndGlyphs" textLength="62" x="838.5" y="1059.5669">related to</text><text fill="#000000" font-family="sans-serif" font-size="13" lengthAdjust="spacingAndGlyphs" textLength="8" x="783.9404" y="922.8881">1</text><text fill="#000000" font-family="sans-serif" font-size="13" lengthAdjust="spacingAndGlyphs" textLength="8" x="802.4756" y="1196.0911">1</text><!--MD5=[e28edf12b68b5eaa3419bee795c981f4]
@startuml
skinparam classAttributeIconSize 0

class AplicacaoPOT{
  +static getInstance()
  +getCurrentSession()
}

class SessaoUtilizador{
  +getUserEmail()
}

class Task {
  -String id
  -String briefDescription
  -Integer timeDuration
  -Double costPerHour
  -String taskCategory
}

class Freelancer {
  -String id
  -String name
  -String expertiseLevel
  -String email
  -String NIF
  -String IBAN
  -String address
  -String country
}

class Organization {
  -String name
  +PaymentTransactionRecord getPaymentTransactionRecord()
}


class Platform {
  -String designation
  +OrganizationRecord getOrganizationRecord()
}


class OrganizationRecord  {
  +getOrganizationByUserEmail(email)
}

class UploadFileController {
  +readFile(filename)
  +uploadFileRegister()
}

class UploadFileUI {
}

class PaymentTransaction{
}

class PaymentTransactionRecord{
    +readFile(filename)
    +uploadFileRegister(par)
    +validateUploadFile(par)
}

class TaskExecution {
 -Date endDate
 -Double delay
 -String workQualityDescription
}

UploadFileUI ..> UploadFileController
UploadFileController ..> Platform
UploadFileController ..> Organization
UploadFileController ..> AplicacaoPOT
UploadFileController ..> SessaoUtilizador
UploadFileController ..> PaymentTransactionRecord
UploadFileController ..> OrganizationRecord
Platform "1" - -> "1" OrganizationRecord : has

OrganizationRecord "1" - -> "*" Organization : has
Organization "1" - -> "*" PaymentTransactionRecord : has
PaymentTransactionRecord "1" - -> "*" PaymentTransaction : has
Task "1" - -> "1" TaskExecution : has

PaymentTransaction "1" - -> "1" Freelancer : related to
PaymentTransaction "1" - -> "1" Task : related to
PaymentTransaction "1" - -> "1" TaskExecution : related to
@enduml

PlantUML version 1.2020.11beta3(Unknown compile time)
(GPL source distribution)
Java Runtime: Java(TM) SE Runtime Environment
JVM: Java HotSpot(TM) 64-Bit Server VM
Default Encoding: UTF-8
Language: en
Country: US
--></g></svg>