<?xml version="1.0" encoding="UTF-8" standalone="no"?><svg xmlns="http://www.w3.org/2000/svg" xmlns:xlink="http://www.w3.org/1999/xlink" contentScriptType="application/ecmascript" contentStyleType="text/css" height="528px" preserveAspectRatio="none" style="width:1505px;height:528px;" version="1.1" viewBox="0 0 1505 528" width="1505px" zoomAndPan="magnify"><defs><filter height="300%" id="f61imd6grebjj" width="300%" x="-1" y="-1"><feGaussianBlur result="blurOut" stdDeviation="2.0"/><feColorMatrix in="blurOut" result="blurOut2" type="matrix" values="0 0 0 0 0 0 0 0 0 0 0 0 0 0 0 0 0 0 .4 0"/><feOffset dx="4.0" dy="4.0" in="blurOut2" result="blurOut3"/><feBlend in="SourceGraphic" in2="blurOut3" mode="normal"/></filter></defs><g><!--MD5=[99b8db98afdc2c8404e39242ef4c1e65]
class Platform--><rect fill="#FEFECE" filter="url(#f61imd6grebjj)" height="52.8047" id="Platform" style="stroke: #A80036; stroke-width: 1.5;" width="119" x="6" y="88.5"/><ellipse cx="38.55" cy="104.5" fill="#ADD1B2" rx="11" ry="11" style="stroke: #A80036; stroke-width: 1.0;"/><path d="M40.8938,100.1719 C39.9563,99.7344 39.3625,99.5938 38.4875,99.5938 C35.8625,99.5938 33.8625,101.6719 33.8625,104.3906 L33.8625,105.5156 C33.8625,108.0938 35.9719,109.9844 38.8625,109.9844 C40.0813,109.9844 41.2375,109.6875 41.9875,109.1406 C42.5656,108.7344 42.8938,108.2813 42.8938,107.8906 C42.8938,107.4375 42.5031,107.0469 42.0344,107.0469 C41.8156,107.0469 41.6125,107.125 41.425,107.3125 C40.9719,107.7969 40.9719,107.7969 40.7844,107.8906 C40.3625,108.1563 39.675,108.2813 38.9094,108.2813 C36.8625,108.2813 35.5656,107.1875 35.5656,105.4844 L35.5656,104.3906 C35.5656,102.6094 36.8156,101.2969 38.55,101.2969 C39.1281,101.2969 39.7375,101.4531 40.2063,101.7031 C40.6906,101.9844 40.8625,102.2031 40.9563,102.6094 C41.0188,103.0156 41.05,103.1406 41.1906,103.2656 C41.3313,103.4063 41.5656,103.5156 41.7844,103.5156 C42.05,103.5156 42.3156,103.375 42.4875,103.1563 C42.5969,103 42.6281,102.8125 42.6281,102.3906 L42.6281,100.9688 C42.6281,100.5313 42.6125,100.4063 42.5188,100.25 C42.3625,99.9844 42.0813,99.8438 41.7844,99.8438 C41.4875,99.8438 41.2844,99.9375 41.0656,100.25 L40.8938,100.1719 Z "/><text fill="#000000" font-family="sans-serif" font-size="12" lengthAdjust="spacingAndGlyphs" textLength="48" x="56.45" y="108.6543">Platform</text><line style="stroke: #A80036; stroke-width: 1.5;" x1="7" x2="124" y1="120.5" y2="120.5"/><text fill="#000000" font-family="sans-serif" font-size="11" lengthAdjust="spacingAndGlyphs" textLength="107" x="12" y="134.7104">-String designation</text><!--MD5=[86c7c362de55a38b660185a1328fe18d]
class Organization--><rect fill="#FEFECE" filter="url(#f61imd6grebjj)" height="52.8047" id="Organization" style="stroke: #A80036; stroke-width: 1.5;" width="108" x="292" y="235.5"/><ellipse cx="307" cy="251.5" fill="#ADD1B2" rx="11" ry="11" style="stroke: #A80036; stroke-width: 1.0;"/><path d="M309.3438,247.1719 C308.4063,246.7344 307.8125,246.5938 306.9375,246.5938 C304.3125,246.5938 302.3125,248.6719 302.3125,251.3906 L302.3125,252.5156 C302.3125,255.0938 304.4219,256.9844 307.3125,256.9844 C308.5313,256.9844 309.6875,256.6875 310.4375,256.1406 C311.0156,255.7344 311.3438,255.2813 311.3438,254.8906 C311.3438,254.4375 310.9531,254.0469 310.4844,254.0469 C310.2656,254.0469 310.0625,254.125 309.875,254.3125 C309.4219,254.7969 309.4219,254.7969 309.2344,254.8906 C308.8125,255.1563 308.125,255.2813 307.3594,255.2813 C305.3125,255.2813 304.0156,254.1875 304.0156,252.4844 L304.0156,251.3906 C304.0156,249.6094 305.2656,248.2969 307,248.2969 C307.5781,248.2969 308.1875,248.4531 308.6563,248.7031 C309.1406,248.9844 309.3125,249.2031 309.4063,249.6094 C309.4688,250.0156 309.5,250.1406 309.6406,250.2656 C309.7813,250.4063 310.0156,250.5156 310.2344,250.5156 C310.5,250.5156 310.7656,250.375 310.9375,250.1563 C311.0469,250 311.0781,249.8125 311.0781,249.3906 L311.0781,247.9688 C311.0781,247.5313 311.0625,247.4063 310.9688,247.25 C310.8125,246.9844 310.5313,246.8438 310.2344,246.8438 C309.9375,246.8438 309.7344,246.9375 309.5156,247.25 L309.3438,247.1719 Z "/><text fill="#000000" font-family="sans-serif" font-size="12" lengthAdjust="spacingAndGlyphs" textLength="76" x="321" y="255.6543">Organization</text><line style="stroke: #A80036; stroke-width: 1.5;" x1="293" x2="399" y1="267.5" y2="267.5"/><text fill="#000000" font-family="sans-serif" font-size="11" lengthAdjust="spacingAndGlyphs" textLength="74" x="298" y="281.7104">-String name</text><!--MD5=[f483d6e5de34a60207b28a5563be5e8b]
class Collaborator--><rect fill="#FEFECE" filter="url(#f61imd6grebjj)" height="65.6094" id="Collaborator" style="stroke: #A80036; stroke-width: 1.5;" width="106" x="498" y="180"/><ellipse cx="513" cy="196" fill="#ADD1B2" rx="11" ry="11" style="stroke: #A80036; stroke-width: 1.0;"/><path d="M515.3438,191.6719 C514.4063,191.2344 513.8125,191.0938 512.9375,191.0938 C510.3125,191.0938 508.3125,193.1719 508.3125,195.8906 L508.3125,197.0156 C508.3125,199.5938 510.4219,201.4844 513.3125,201.4844 C514.5313,201.4844 515.6875,201.1875 516.4375,200.6406 C517.0156,200.2344 517.3438,199.7813 517.3438,199.3906 C517.3438,198.9375 516.9531,198.5469 516.4844,198.5469 C516.2656,198.5469 516.0625,198.625 515.875,198.8125 C515.4219,199.2969 515.4219,199.2969 515.2344,199.3906 C514.8125,199.6563 514.125,199.7813 513.3594,199.7813 C511.3125,199.7813 510.0156,198.6875 510.0156,196.9844 L510.0156,195.8906 C510.0156,194.1094 511.2656,192.7969 513,192.7969 C513.5781,192.7969 514.1875,192.9531 514.6563,193.2031 C515.1406,193.4844 515.3125,193.7031 515.4063,194.1094 C515.4688,194.5156 515.5,194.6406 515.6406,194.7656 C515.7813,194.9063 516.0156,195.0156 516.2344,195.0156 C516.5,195.0156 516.7656,194.875 516.9375,194.6563 C517.0469,194.5 517.0781,194.3125 517.0781,193.8906 L517.0781,192.4688 C517.0781,192.0313 517.0625,191.9063 516.9688,191.75 C516.8125,191.4844 516.5313,191.3438 516.2344,191.3438 C515.9375,191.3438 515.7344,191.4375 515.5156,191.75 L515.3438,191.6719 Z "/><text fill="#000000" font-family="sans-serif" font-size="12" lengthAdjust="spacingAndGlyphs" textLength="74" x="527" y="200.1543">Collaborator</text><line style="stroke: #A80036; stroke-width: 1.5;" x1="499" x2="603" y1="212" y2="212"/><text fill="#000000" font-family="sans-serif" font-size="11" lengthAdjust="spacingAndGlyphs" textLength="74" x="504" y="226.2104">-String name</text><text fill="#000000" font-family="sans-serif" font-size="11" lengthAdjust="spacingAndGlyphs" textLength="73" x="504" y="239.0151">-String email</text><!--MD5=[3fd616f346a44cd59a91eb10b19e157c]
class User--><rect fill="#FEFECE" filter="url(#f61imd6grebjj)" height="65.6094" id="User" style="stroke: #A80036; stroke-width: 1.5;" width="106" x="1349.5" y="94"/><ellipse cx="1384.75" cy="110" fill="#ADD1B2" rx="11" ry="11" style="stroke: #A80036; stroke-width: 1.0;"/><path d="M1387.0938,105.6719 C1386.1563,105.2344 1385.5625,105.0938 1384.6875,105.0938 C1382.0625,105.0938 1380.0625,107.1719 1380.0625,109.8906 L1380.0625,111.0156 C1380.0625,113.5938 1382.1719,115.4844 1385.0625,115.4844 C1386.2813,115.4844 1387.4375,115.1875 1388.1875,114.6406 C1388.7656,114.2344 1389.0938,113.7813 1389.0938,113.3906 C1389.0938,112.9375 1388.7031,112.5469 1388.2344,112.5469 C1388.0156,112.5469 1387.8125,112.625 1387.625,112.8125 C1387.1719,113.2969 1387.1719,113.2969 1386.9844,113.3906 C1386.5625,113.6563 1385.875,113.7813 1385.1094,113.7813 C1383.0625,113.7813 1381.7656,112.6875 1381.7656,110.9844 L1381.7656,109.8906 C1381.7656,108.1094 1383.0156,106.7969 1384.75,106.7969 C1385.3281,106.7969 1385.9375,106.9531 1386.4063,107.2031 C1386.8906,107.4844 1387.0625,107.7031 1387.1563,108.1094 C1387.2188,108.5156 1387.25,108.6406 1387.3906,108.7656 C1387.5313,108.9063 1387.7656,109.0156 1387.9844,109.0156 C1388.25,109.0156 1388.5156,108.875 1388.6875,108.6563 C1388.7969,108.5 1388.8281,108.3125 1388.8281,107.8906 L1388.8281,106.4688 C1388.8281,106.0313 1388.8125,105.9063 1388.7188,105.75 C1388.5625,105.4844 1388.2813,105.3438 1387.9844,105.3438 C1387.6875,105.3438 1387.4844,105.4375 1387.2656,105.75 L1387.0938,105.6719 Z "/><text fill="#000000" font-family="sans-serif" font-size="12" lengthAdjust="spacingAndGlyphs" textLength="29" x="1403.25" y="114.1543">User</text><line style="stroke: #A80036; stroke-width: 1.5;" x1="1350.5" x2="1454.5" y1="126" y2="126"/><text fill="#000000" font-family="sans-serif" font-size="11" lengthAdjust="spacingAndGlyphs" textLength="73" x="1355.5" y="140.2104">-String email</text><text fill="#000000" font-family="sans-serif" font-size="11" lengthAdjust="spacingAndGlyphs" textLength="94" x="1355.5" y="153.0151">-String password</text><!--MD5=[1f687b5315377fe49fca59b457947463]
class Freelancer--><rect fill="#FEFECE" filter="url(#f61imd6grebjj)" height="142.4375" id="Freelancer" style="stroke: #A80036; stroke-width: 1.5;" width="140" x="1042.5" y="149"/><ellipse cx="1076.85" cy="165" fill="#ADD1B2" rx="11" ry="11" style="stroke: #A80036; stroke-width: 1.0;"/><path d="M1079.1938,160.6719 C1078.2563,160.2344 1077.6625,160.0938 1076.7875,160.0938 C1074.1625,160.0938 1072.1625,162.1719 1072.1625,164.8906 L1072.1625,166.0156 C1072.1625,168.5938 1074.2719,170.4844 1077.1625,170.4844 C1078.3813,170.4844 1079.5375,170.1875 1080.2875,169.6406 C1080.8656,169.2344 1081.1938,168.7813 1081.1938,168.3906 C1081.1938,167.9375 1080.8031,167.5469 1080.3344,167.5469 C1080.1156,167.5469 1079.9125,167.625 1079.725,167.8125 C1079.2719,168.2969 1079.2719,168.2969 1079.0844,168.3906 C1078.6625,168.6563 1077.975,168.7813 1077.2094,168.7813 C1075.1625,168.7813 1073.8656,167.6875 1073.8656,165.9844 L1073.8656,164.8906 C1073.8656,163.1094 1075.1156,161.7969 1076.85,161.7969 C1077.4281,161.7969 1078.0375,161.9531 1078.5063,162.2031 C1078.9906,162.4844 1079.1625,162.7031 1079.2563,163.1094 C1079.3188,163.5156 1079.35,163.6406 1079.4906,163.7656 C1079.6313,163.9063 1079.8656,164.0156 1080.0844,164.0156 C1080.35,164.0156 1080.6156,163.875 1080.7875,163.6563 C1080.8969,163.5 1080.9281,163.3125 1080.9281,162.8906 L1080.9281,161.4688 C1080.9281,161.0313 1080.9125,160.9063 1080.8188,160.75 C1080.6625,160.4844 1080.3813,160.3438 1080.0844,160.3438 C1079.7875,160.3438 1079.5844,160.4375 1079.3656,160.75 L1079.1938,160.6719 Z "/><text fill="#000000" font-family="sans-serif" font-size="12" lengthAdjust="spacingAndGlyphs" textLength="65" x="1095.15" y="169.1543">Freelancer</text><line style="stroke: #A80036; stroke-width: 1.5;" x1="1043.5" x2="1181.5" y1="181" y2="181"/><text fill="#000000" font-family="sans-serif" font-size="11" lengthAdjust="spacingAndGlyphs" textLength="51" x="1048.5" y="195.2104">-String id</text><text fill="#000000" font-family="sans-serif" font-size="11" lengthAdjust="spacingAndGlyphs" textLength="74" x="1048.5" y="208.0151">-String name</text><text fill="#000000" font-family="sans-serif" font-size="11" lengthAdjust="spacingAndGlyphs" textLength="128" x="1048.5" y="220.8198">-String expertiseLevel</text><text fill="#000000" font-family="sans-serif" font-size="11" lengthAdjust="spacingAndGlyphs" textLength="73" x="1048.5" y="233.6245">-String email</text><text fill="#000000" font-family="sans-serif" font-size="11" lengthAdjust="spacingAndGlyphs" textLength="58" x="1048.5" y="246.4292">-String NIF</text><text fill="#000000" font-family="sans-serif" font-size="11" lengthAdjust="spacingAndGlyphs" textLength="68" x="1048.5" y="259.2339">-String IBAN</text><text fill="#000000" font-family="sans-serif" font-size="11" lengthAdjust="spacingAndGlyphs" textLength="86" x="1048.5" y="272.0386">-String address</text><text fill="#000000" font-family="sans-serif" font-size="11" lengthAdjust="spacingAndGlyphs" textLength="83" x="1048.5" y="284.8433">-String country</text><!--MD5=[b34797a66dc35cbf1d65f7e3ca75530e]
class Task--><rect fill="#FEFECE" filter="url(#f61imd6grebjj)" height="104.0234" id="Task" style="stroke: #A80036; stroke-width: 1.5;" width="143" x="1041" y="413"/><ellipse cx="1094.25" cy="429" fill="#ADD1B2" rx="11" ry="11" style="stroke: #A80036; stroke-width: 1.0;"/><path d="M1096.5938,424.6719 C1095.6563,424.2344 1095.0625,424.0938 1094.1875,424.0938 C1091.5625,424.0938 1089.5625,426.1719 1089.5625,428.8906 L1089.5625,430.0156 C1089.5625,432.5938 1091.6719,434.4844 1094.5625,434.4844 C1095.7813,434.4844 1096.9375,434.1875 1097.6875,433.6406 C1098.2656,433.2344 1098.5938,432.7813 1098.5938,432.3906 C1098.5938,431.9375 1098.2031,431.5469 1097.7344,431.5469 C1097.5156,431.5469 1097.3125,431.625 1097.125,431.8125 C1096.6719,432.2969 1096.6719,432.2969 1096.4844,432.3906 C1096.0625,432.6563 1095.375,432.7813 1094.6094,432.7813 C1092.5625,432.7813 1091.2656,431.6875 1091.2656,429.9844 L1091.2656,428.8906 C1091.2656,427.1094 1092.5156,425.7969 1094.25,425.7969 C1094.8281,425.7969 1095.4375,425.9531 1095.9063,426.2031 C1096.3906,426.4844 1096.5625,426.7031 1096.6563,427.1094 C1096.7188,427.5156 1096.75,427.6406 1096.8906,427.7656 C1097.0313,427.9063 1097.2656,428.0156 1097.4844,428.0156 C1097.75,428.0156 1098.0156,427.875 1098.1875,427.6563 C1098.2969,427.5 1098.3281,427.3125 1098.3281,426.8906 L1098.3281,425.4688 C1098.3281,425.0313 1098.3125,424.9063 1098.2188,424.75 C1098.0625,424.4844 1097.7813,424.3438 1097.4844,424.3438 C1097.1875,424.3438 1096.9844,424.4375 1096.7656,424.75 L1096.5938,424.6719 Z "/><text fill="#000000" font-family="sans-serif" font-size="12" lengthAdjust="spacingAndGlyphs" textLength="28" x="1114.75" y="433.1543">Task</text><line style="stroke: #A80036; stroke-width: 1.5;" x1="1042" x2="1183" y1="445" y2="445"/><text fill="#000000" font-family="sans-serif" font-size="11" lengthAdjust="spacingAndGlyphs" textLength="51" x="1047" y="459.2104">-String id</text><text fill="#000000" font-family="sans-serif" font-size="11" lengthAdjust="spacingAndGlyphs" textLength="131" x="1047" y="472.0151">-String briefDescription</text><text fill="#000000" font-family="sans-serif" font-size="11" lengthAdjust="spacingAndGlyphs" textLength="123" x="1047" y="484.8198">-Integer timeDuration</text><text fill="#000000" font-family="sans-serif" font-size="11" lengthAdjust="spacingAndGlyphs" textLength="116" x="1047" y="497.6245">-Double costPerHour</text><text fill="#000000" font-family="sans-serif" font-size="11" lengthAdjust="spacingAndGlyphs" textLength="116" x="1047" y="510.4292">-String taskCategory</text><!--MD5=[5ce80547de3caced9d0089e35ded5090]
class TaskExecution--><rect fill="#FEFECE" filter="url(#f61imd6grebjj)" height="78.4141" id="TaskExecution" style="stroke: #A80036; stroke-width: 1.5;" width="183" x="1311" y="344"/><ellipse cx="1355.25" cy="360" fill="#ADD1B2" rx="11" ry="11" style="stroke: #A80036; stroke-width: 1.0;"/><path d="M1357.5938,355.6719 C1356.6563,355.2344 1356.0625,355.0938 1355.1875,355.0938 C1352.5625,355.0938 1350.5625,357.1719 1350.5625,359.8906 L1350.5625,361.0156 C1350.5625,363.5938 1352.6719,365.4844 1355.5625,365.4844 C1356.7813,365.4844 1357.9375,365.1875 1358.6875,364.6406 C1359.2656,364.2344 1359.5938,363.7813 1359.5938,363.3906 C1359.5938,362.9375 1359.2031,362.5469 1358.7344,362.5469 C1358.5156,362.5469 1358.3125,362.625 1358.125,362.8125 C1357.6719,363.2969 1357.6719,363.2969 1357.4844,363.3906 C1357.0625,363.6563 1356.375,363.7813 1355.6094,363.7813 C1353.5625,363.7813 1352.2656,362.6875 1352.2656,360.9844 L1352.2656,359.8906 C1352.2656,358.1094 1353.5156,356.7969 1355.25,356.7969 C1355.8281,356.7969 1356.4375,356.9531 1356.9063,357.2031 C1357.3906,357.4844 1357.5625,357.7031 1357.6563,358.1094 C1357.7188,358.5156 1357.75,358.6406 1357.8906,358.7656 C1358.0313,358.9063 1358.2656,359.0156 1358.4844,359.0156 C1358.75,359.0156 1359.0156,358.875 1359.1875,358.6563 C1359.2969,358.5 1359.3281,358.3125 1359.3281,357.8906 L1359.3281,356.4688 C1359.3281,356.0313 1359.3125,355.9063 1359.2188,355.75 C1359.0625,355.4844 1358.7813,355.3438 1358.4844,355.3438 C1358.1875,355.3438 1357.9844,355.4375 1357.7656,355.75 L1357.5938,355.6719 Z "/><text fill="#000000" font-family="sans-serif" font-size="12" lengthAdjust="spacingAndGlyphs" textLength="86" x="1375.75" y="364.1543">TaskExecution</text><line style="stroke: #A80036; stroke-width: 1.5;" x1="1312" x2="1493" y1="376" y2="376"/><text fill="#000000" font-family="sans-serif" font-size="11" lengthAdjust="spacingAndGlyphs" textLength="86" x="1317" y="390.2104">-Date endDate</text><text fill="#000000" font-family="sans-serif" font-size="11" lengthAdjust="spacingAndGlyphs" textLength="81" x="1317" y="403.0151">-Double delay</text><text fill="#000000" font-family="sans-serif" font-size="11" lengthAdjust="spacingAndGlyphs" textLength="171" x="1317" y="415.8198">-String workQualityDescription</text><!--MD5=[b645a18afb25b7e5623af7186d8eb36f]
class PaymentTransaction--><rect fill="#FEFECE" filter="url(#f61imd6grebjj)" height="40" id="PaymentTransaction" style="stroke: #A80036; stroke-width: 1.5;" width="151" x="753" y="278"/><ellipse cx="768" cy="294" fill="#ADD1B2" rx="11" ry="11" style="stroke: #A80036; stroke-width: 1.0;"/><path d="M770.3438,289.6719 C769.4063,289.2344 768.8125,289.0938 767.9375,289.0938 C765.3125,289.0938 763.3125,291.1719 763.3125,293.8906 L763.3125,295.0156 C763.3125,297.5938 765.4219,299.4844 768.3125,299.4844 C769.5313,299.4844 770.6875,299.1875 771.4375,298.6406 C772.0156,298.2344 772.3438,297.7813 772.3438,297.3906 C772.3438,296.9375 771.9531,296.5469 771.4844,296.5469 C771.2656,296.5469 771.0625,296.625 770.875,296.8125 C770.4219,297.2969 770.4219,297.2969 770.2344,297.3906 C769.8125,297.6563 769.125,297.7813 768.3594,297.7813 C766.3125,297.7813 765.0156,296.6875 765.0156,294.9844 L765.0156,293.8906 C765.0156,292.1094 766.2656,290.7969 768,290.7969 C768.5781,290.7969 769.1875,290.9531 769.6563,291.2031 C770.1406,291.4844 770.3125,291.7031 770.4063,292.1094 C770.4688,292.5156 770.5,292.6406 770.6406,292.7656 C770.7813,292.9063 771.0156,293.0156 771.2344,293.0156 C771.5,293.0156 771.7656,292.875 771.9375,292.6563 C772.0469,292.5 772.0781,292.3125 772.0781,291.8906 L772.0781,290.4688 C772.0781,290.0313 772.0625,289.9063 771.9688,289.75 C771.8125,289.4844 771.5313,289.3438 771.2344,289.3438 C770.9375,289.3438 770.7344,289.4375 770.5156,289.75 L770.3438,289.6719 Z "/><text fill="#000000" font-family="sans-serif" font-size="12" lengthAdjust="spacingAndGlyphs" textLength="119" x="782" y="298.1543">PaymentTransaction</text><line style="stroke: #A80036; stroke-width: 1.5;" x1="754" x2="903" y1="310" y2="310"/><!--MD5=[7640e466c042ba2d6f9c19c816f7f0fc]
link Platform to Organization--><path d="M116.934,141.621 C167.251,168.179 244.121,208.753 294.471,235.329 " fill="none" id="Platform-Organization" style="stroke: #A80036; stroke-width: 1.0;"/><text fill="#000000" font-family="sans-serif" font-size="13" lengthAdjust="spacingAndGlyphs" textLength="92" x="156" y="158.0669">has registered</text><polygon fill="#000000" points="251,152.0664,257,155.0664,251,158.0664,251,152.0664" style="stroke: #000000; stroke-width: 1.0;"/><text fill="#000000" font-family="sans-serif" font-size="13" lengthAdjust="spacingAndGlyphs" textLength="8" x="119.3102" y="161.1878">1</text><text fill="#000000" font-family="sans-serif" font-size="13" lengthAdjust="spacingAndGlyphs" textLength="7" x="276.9811" y="225.9133">*</text><!--MD5=[22697d4d863c2e08ab1d60ca0d61f844]
link Platform to Freelancer--><path d="M116.265,88.484 C170.808,61.936 261.667,25 345,25 C345,25 345,25 829.5,25 C919.529,25 1001.613,93.068 1053.71,148.773 " fill="none" id="Platform-Freelancer" style="stroke: #A80036; stroke-width: 1.0;"/><text fill="#000000" font-family="sans-serif" font-size="13" lengthAdjust="spacingAndGlyphs" textLength="57" x="516" y="21.0669">has/uses</text><polygon fill="#000000" points="576,15.0664,582,18.0664,576,21.0664,576,15.0664" style="stroke: #000000; stroke-width: 1.0;"/><text fill="#000000" font-family="sans-serif" font-size="13" lengthAdjust="spacingAndGlyphs" textLength="8" x="119.664" y="77.2995">1</text><text fill="#000000" font-family="sans-serif" font-size="13" lengthAdjust="spacingAndGlyphs" textLength="7" x="1040.2863" y="137.7055">*</text><!--MD5=[45817597bcd7048073a670d966abfd17]
link Organization to Collaborator--><path d="M400.071,249.19 C430.262,241.902 467.92,232.813 497.941,225.566 " fill="none" id="Organization-Collaborator" style="stroke: #A80036; stroke-width: 1.0;"/><text fill="#000000" font-family="sans-serif" font-size="13" lengthAdjust="spacingAndGlyphs" textLength="23" x="431" y="229.0669">has</text><polygon fill="#000000" points="457,223.0664,463,226.0664,457,229.0664,457,223.0664" style="stroke: #000000; stroke-width: 1.0;"/><text fill="#000000" font-family="sans-serif" font-size="13" lengthAdjust="spacingAndGlyphs" textLength="8" x="407.8743" y="260.5654">1</text><text fill="#000000" font-family="sans-serif" font-size="13" lengthAdjust="spacingAndGlyphs" textLength="8" x="481.9171" y="240.4915">1</text><!--MD5=[4078351e3988aa35b1504a42837f2ab1]
link Organization to Task--><path d="M400.318,279.582 C502.812,312.921 734.834,386.174 934,433 C968.901,441.2057 1008.09,448.4726 1040.75,453.999 " fill="none" id="Organization-Task" style="stroke: #A80036; stroke-width: 1.0;"/><text fill="#000000" font-family="sans-serif" font-size="13" lengthAdjust="spacingAndGlyphs" textLength="23" x="660.5" y="348.0669">has</text><polygon fill="#000000" points="686.5,342.0664,692.5,345.0664,686.5,348.0664,686.5,342.0664" style="stroke: #000000; stroke-width: 1.0;"/><text fill="#000000" font-family="sans-serif" font-size="13" lengthAdjust="spacingAndGlyphs" textLength="8" x="408.1545" y="295.0413">1</text><text fill="#000000" font-family="sans-serif" font-size="13" lengthAdjust="spacingAndGlyphs" textLength="7" x="1025.9898" y="465.7105">*</text><!--MD5=[da2d560b3f89d8c66478284968d27dfa]
link Organization to PaymentTransaction--><path d="M400.008,269.639 C428.917,273.561 465.365,278.109 498,281 C585.298,288.734 685.943,293.295 752.798,295.714 " fill="none" id="Organization-PaymentTransaction" style="stroke: #A80036; stroke-width: 1.0;"/><text fill="#000000" font-family="sans-serif" font-size="13" lengthAdjust="spacingAndGlyphs" textLength="23" x="533" y="277.0669">has</text><polygon fill="#000000" points="559,271.0664,565,274.0664,559,277.0664,559,271.0664" style="stroke: #000000; stroke-width: 1.0;"/><text fill="#000000" font-family="sans-serif" font-size="13" lengthAdjust="spacingAndGlyphs" textLength="8" x="408.1654" y="279.5805">1</text><text fill="#000000" font-family="sans-serif" font-size="13" lengthAdjust="spacingAndGlyphs" textLength="7" x="738.0016" y="308.3007">*</text><!--MD5=[04ce0ecdab38a3951889ff50c232570f]
link Collaborator to User--><path d="M604.134,201.711 C693.175,183.029 880.504,146.324 1041,132 C1150.42,122.235 1279.24,123.509 1349.44,125.276 " fill="none" id="Collaborator-User" style="stroke: #A80036; stroke-width: 1.0;"/><text fill="#000000" font-family="sans-serif" font-size="13" lengthAdjust="spacingAndGlyphs" textLength="52" x="940" y="130.0669">acts like</text><polygon fill="#000000" points="995,124.0664,1001,127.0664,995,130.0664,995,124.0664" style="stroke: #000000; stroke-width: 1.0;"/><text fill="#000000" font-family="sans-serif" font-size="13" lengthAdjust="spacingAndGlyphs" textLength="24" x="612.0722" y="213.348">0..1</text><text fill="#000000" font-family="sans-serif" font-size="13" lengthAdjust="spacingAndGlyphs" textLength="8" x="1333.4159" y="138.1919">1</text><!--MD5=[65ab54bb4516ebbc699d18e0b28e9aea]
link Freelancer to User--><path d="M1182.85,197.606 C1234.11,181.052 1302.83,158.864 1349.44,143.81 " fill="none" id="Freelancer-User" style="stroke: #A80036; stroke-width: 1.0;"/><text fill="#000000" font-family="sans-serif" font-size="13" lengthAdjust="spacingAndGlyphs" textLength="52" x="1215" y="163.0669">acts like</text><polygon fill="#000000" points="1270,157.0664,1276,160.0664,1270,163.0664,1270,157.0664" style="stroke: #000000; stroke-width: 1.0;"/><text fill="#000000" font-family="sans-serif" font-size="13" lengthAdjust="spacingAndGlyphs" textLength="24" x="1190.4416" y="208.2858">0..1</text><text fill="#000000" font-family="sans-serif" font-size="13" lengthAdjust="spacingAndGlyphs" textLength="8" x="1333.4159" y="159.3323">1</text><!--MD5=[c32d3c60a61e5638fef4971a1b3a8306]
link Collaborator to PaymentTransaction--><path d="M604.143,229.088 C649.07,242.949 714.126,263.021 762.45,277.93 " fill="none" id="Collaborator-PaymentTransaction" style="stroke: #A80036; stroke-width: 1.0;"/><text fill="#000000" font-family="sans-serif" font-size="13" lengthAdjust="spacingAndGlyphs" textLength="74" x="635" y="236.0669">loads file of</text><polygon fill="#000000" points="712,230.0664,718,233.0664,712,236.0664,712,230.0664" style="stroke: #000000; stroke-width: 1.0;"/><text fill="#000000" font-family="sans-serif" font-size="13" lengthAdjust="spacingAndGlyphs" textLength="8" x="611.8216" y="244.3597">1</text><text fill="#000000" font-family="sans-serif" font-size="13" lengthAdjust="spacingAndGlyphs" textLength="7" x="737.6278" y="267.9491">*</text><!--MD5=[f6802b286771c18a16ea4be983074371]
link PaymentTransaction to Freelancer--><path d="M902.122,277.913 C945.205,265.997 999.526,250.972 1042.04,239.212 " fill="none" id="PaymentTransaction-Freelancer" style="stroke: #A80036; stroke-width: 1.0;"/><text fill="#000000" font-family="sans-serif" font-size="13" lengthAdjust="spacingAndGlyphs" textLength="62" x="935" y="245.0669">related to</text><polygon fill="#000000" points="1000,239.0664,1006,242.0664,1000,245.0664,1000,239.0664" style="stroke: #000000; stroke-width: 1.0;"/><text fill="#000000" font-family="sans-serif" font-size="13" lengthAdjust="spacingAndGlyphs" textLength="8" x="911.9626" y="267.9277">1</text><text fill="#000000" font-family="sans-serif" font-size="13" lengthAdjust="spacingAndGlyphs" textLength="8" x="1026.3613" y="254.0179">1</text><!--MD5=[271ce7fefd7250ebaca83b70495774bd]
link PaymentTransaction to Task--><path d="M849.752,318.073 C869.874,337.255 902.236,366.115 934,386 C967.451,406.94 1007.4,425.2411 1040.92,438.9412 " fill="none" id="PaymentTransaction-Task" style="stroke: #A80036; stroke-width: 1.0;"/><text fill="#000000" font-family="sans-serif" font-size="13" lengthAdjust="spacingAndGlyphs" textLength="62" x="935" y="382.0669">related to</text><polygon fill="#000000" points="1000,376.0664,1006,379.0664,1000,382.0664,1000,376.0664" style="stroke: #000000; stroke-width: 1.0;"/><text fill="#000000" font-family="sans-serif" font-size="13" lengthAdjust="spacingAndGlyphs" textLength="8" x="846.6041" y="337.9135">1</text><text fill="#000000" font-family="sans-serif" font-size="13" lengthAdjust="spacingAndGlyphs" textLength="8" x="1025.1258" y="449.0999">1</text><!--MD5=[ccf9e4a23b86a8fcbc3774eff83a0cb7]
link PaymentTransaction to TaskExecution--><path d="M904.279,309.112 C1008.75,324.637 1198.19,352.788 1310.66,369.501 " fill="none" id="PaymentTransaction-TaskExecution" style="stroke: #A80036; stroke-width: 1.0;"/><text fill="#000000" font-family="sans-serif" font-size="13" lengthAdjust="spacingAndGlyphs" textLength="62" x="1075" y="326.0669">related to</text><polygon fill="#000000" points="1140,320.0664,1146,323.0664,1140,326.0664,1140,320.0664" style="stroke: #000000; stroke-width: 1.0;"/><text fill="#000000" font-family="sans-serif" font-size="13" lengthAdjust="spacingAndGlyphs" textLength="8" x="911.8829" y="322.9592">1</text><text fill="#000000" font-family="sans-serif" font-size="13" lengthAdjust="spacingAndGlyphs" textLength="8" x="1295.0228" y="381.0786">1</text><!--MD5=[bdc7b78a1b1f03a53fec8289ba75cac4]
link Task to TaskExecution--><path d="M1184.32,444.8355 C1222.46,433.9762 1269.93,420.4609 1310.75,408.838 " fill="none" id="Task-TaskExecution" style="stroke: #A80036; stroke-width: 1.0;"/><text fill="#000000" font-family="sans-serif" font-size="13" lengthAdjust="spacingAndGlyphs" textLength="23" x="1229.5" y="415.0669">has</text><polygon fill="#000000" points="1255.5,409.0664,1261.5,412.0664,1255.5,415.0664,1255.5,409.0664" style="stroke: #000000; stroke-width: 1.0;"/><text fill="#000000" font-family="sans-serif" font-size="13" lengthAdjust="spacingAndGlyphs" textLength="8" x="1192.1389" y="455.602">1</text><text fill="#000000" font-family="sans-serif" font-size="13" lengthAdjust="spacingAndGlyphs" textLength="8" x="1295.1199" y="423.5503">1</text><!--MD5=[742bd18051e69d3fcd9185f29e59f9c3]
@startuml
skinparam classAttributeIconSize 0
hide methods
left to right direction

class Platform {
  -String designation
}

class Organization {
  -String name
}

class Collaborator {
  -String name
  -String email
}


class User {
  -String email
  -String password
}

class Freelancer {
  -String id
  -String name
  -String expertiseLevel
  -String email
  -String NIF
  -String IBAN
  -String address
  -String country
  }

class Task {
 -String id
 -String briefDescription
 -Integer timeDuration
 -Double costPerHour
 -String taskCategory
}

class TaskExecution {
 -Date endDate
 -Double delay
 -String workQualityDescription
}

class PaymentTransaction{
}

Platform "1" - - "*" Organization : has registered >
Platform "1" - - "*" Freelancer : has/uses >
Organization "1" - - "1" Collaborator: has >
Organization "1" - - "*" Task: has >
Organization "1" - - "*" PaymentTransaction: has >
Collaborator "0..1" - - "1" User: acts like >
Freelancer "0..1" - - "1" User: acts like >
Collaborator "1" - - "*" PaymentTransaction: loads file of >
PaymentTransaction "1" - - "1" Freelancer: related to >
PaymentTransaction "1" - - "1" Task: related to >
PaymentTransaction "1" - - "1" TaskExecution: related to >
Task "1" - - "1" TaskExecution: has >
@enduml

PlantUML version 1.2020.11beta3(Unknown compile time)
(GPL source distribution)
Java Runtime: Java(TM) SE Runtime Environment
JVM: Java HotSpot(TM) 64-Bit Server VM
Default Encoding: UTF-8
Language: en
Country: US
--></g></svg>