<?xml version="1.0" encoding="UTF-8"?><svg xmlns="http://www.w3.org/2000/svg" xmlns:xlink="http://www.w3.org/1999/xlink" contentScriptType="application/ecmascript" contentStyleType="text/css" height="495px" preserveAspectRatio="none" style="width:1023px;height:495px;" version="1.1" viewBox="0 0 1023 495" width="1023px" zoomAndPan="magnify">
    <defs>
        <filter height="300%" id="foszaxedali9q" width="300%" x="-1" y="-1">
            <feGaussianBlur result="blurOut" stdDeviation="2.0"/>
            <feColorMatrix in="blurOut" result="blurOut2" type="matrix" values="0 0 0 0 0 0 0 0 0 0 0 0 0 0 0 0 0 0 .4 0"/>
            <feOffset dx="4.0" dy="4.0" in="blurOut2" result="blurOut3"/>
            <feBlend in="SourceGraphic" in2="blurOut3" mode="normal"/>
        </filter>
    </defs>
    <g>
        <!--class Plataforma-->
        <rect fill="#FEFECE" filter="url(#foszaxedali9q)" height="52.9551" style="stroke: #A80036; stroke-width: 1.5;" width="122" x="6" y="254.5"/>
        <ellipse cx="33.6" cy="270.5" fill="#ADD1B2" rx="11" ry="11" style="stroke: #A80036; stroke-width: 1.0;"/>
        <path d="M36.5731,276.1431 Q35.9921,276.4419 35.3529,276.5913 Q34.7138,276.7407 34.0082,276.7407 Q31.5014,276.7407 30.1815,275.0889 Q28.8617,273.437 28.8617,270.3159 Q28.8617,267.1865 30.1815,265.5347 Q31.5014,263.8828 34.0082,263.8828 Q34.7138,263.8828 35.3612,264.0322 Q36.0087,264.1816 36.5731,264.4805 L36.5731,267.2031 Q35.9423,266.6221 35.3488,266.3523 Q34.7553,266.0825 34.1244,266.0825 Q32.7797,266.0825 32.0949,267.1492 Q31.4101,268.2158 31.4101,270.3159 Q31.4101,272.4077 32.0949,273.4744 Q32.7797,274.541 34.1244,274.541 Q34.7553,274.541 35.3488,274.2712 Q35.9423,274.0015 36.5731,273.4204 Z "/>
        <text fill="#000000" font-family="sans-serif" font-size="12" lengthAdjust="spacingAndGlyphs" textLength="62" x="50.4" y="275.0352">Plataforma</text>
        <line style="stroke: #A80036; stroke-width: 1.5;" x1="7" x2="127" y1="286.5" y2="286.5"/>
        <rect fill="none" height="6" style="stroke: #C82930; stroke-width: 1.0;" width="6" x="14" y="295.4775"/>
        <text fill="#000000" font-family="sans-serif" font-size="11" lengthAdjust="spacingAndGlyphs" textLength="96" x="26" y="301.1348">String designacao</text>
        <!--class AreaAtividade-->
        <rect fill="#FEFECE" filter="url(#foszaxedali9q)" height="78.8652" style="stroke: #A80036; stroke-width: 1.5;" width="139" x="621" y="8.5"/>
        <ellipse cx="647.7" cy="24.5" fill="#ADD1B2" rx="11" ry="11" style="stroke: #A80036; stroke-width: 1.0;"/>
        <path d="M650.6731,30.1431 Q650.0921,30.4419 649.4529,30.5913 Q648.8138,30.7407 648.1082,30.7407 Q645.6014,30.7407 644.2815,29.0889 Q642.9617,27.437 642.9617,24.3159 Q642.9617,21.1865 644.2815,19.5347 Q645.6014,17.8828 648.1082,17.8828 Q648.8138,17.8828 649.4612,18.0322 Q650.1087,18.1816 650.6731,18.4805 L650.6731,21.2031 Q650.0423,20.6221 649.4488,20.3523 Q648.8553,20.0825 648.2244,20.0825 Q646.8797,20.0825 646.1949,21.1492 Q645.5101,22.2158 645.5101,24.3159 Q645.5101,26.4077 646.1949,27.4744 Q646.8797,28.541 648.2244,28.541 Q648.8553,28.541 649.4488,28.2712 Q650.0423,28.0015 650.6731,27.4204 Z "/>
        <text fill="#000000" font-family="sans-serif" font-size="12" lengthAdjust="spacingAndGlyphs" textLength="81" x="664.3" y="29.0352">AreaAtividade</text>
        <line style="stroke: #A80036; stroke-width: 1.5;" x1="622" x2="759" y1="40.5" y2="40.5"/>
        <rect fill="none" height="6" style="stroke: #C82930; stroke-width: 1.0;" width="6" x="629" y="49.4775"/>
        <text fill="#000000" font-family="sans-serif" font-size="11" lengthAdjust="spacingAndGlyphs" textLength="72" x="641" y="55.1348">String codigo</text>
        <rect fill="none" height="6" style="stroke: #C82930; stroke-width: 1.0;" width="6" x="629" y="62.4326"/>
        <text fill="#000000" font-family="sans-serif" font-size="11" lengthAdjust="spacingAndGlyphs" textLength="89" x="641" y="68.0898">String descBreve</text>
        <rect fill="none" height="6" style="stroke: #C82930; stroke-width: 1.0;" width="6" x="629" y="75.3877"/>
        <text fill="#000000" font-family="sans-serif" font-size="11" lengthAdjust="spacingAndGlyphs" textLength="113" x="641" y="81.0449">String descDetalhada</text>
        <!--class CompetenciaTecnica-->
        <rect fill="#FEFECE" filter="url(#foszaxedali9q)" height="78.8652" style="stroke: #A80036; stroke-width: 1.5;" width="151" x="296" y="114.5"/>
        <ellipse cx="311" cy="130.5" fill="#ADD1B2" rx="11" ry="11" style="stroke: #A80036; stroke-width: 1.0;"/>
        <path d="M313.9731,136.1431 Q313.3921,136.4419 312.7529,136.5913 Q312.1138,136.7407 311.4082,136.7407 Q308.9014,136.7407 307.5815,135.0889 Q306.2617,133.437 306.2617,130.3159 Q306.2617,127.1865 307.5815,125.5347 Q308.9014,123.8828 311.4082,123.8828 Q312.1138,123.8828 312.7612,124.0322 Q313.4087,124.1816 313.9731,124.4805 L313.9731,127.2031 Q313.3423,126.6221 312.7488,126.3523 Q312.1553,126.0825 311.5244,126.0825 Q310.1797,126.0825 309.4949,127.1492 Q308.8101,128.2158 308.8101,130.3159 Q308.8101,132.4077 309.4949,133.4744 Q310.1797,134.541 311.5244,134.541 Q312.1553,134.541 312.7488,134.2712 Q313.3423,134.0015 313.9731,133.4204 Z "/>
        <text fill="#000000" font-family="sans-serif" font-size="12" lengthAdjust="spacingAndGlyphs" textLength="119" x="325" y="135.0352">CompetenciaTecnica</text>
        <line style="stroke: #A80036; stroke-width: 1.5;" x1="297" x2="446" y1="146.5" y2="146.5"/>
        <rect fill="none" height="6" style="stroke: #C82930; stroke-width: 1.0;" width="6" x="304" y="155.4775"/>
        <text fill="#000000" font-family="sans-serif" font-size="11" lengthAdjust="spacingAndGlyphs" textLength="72" x="316" y="161.1348">String codigo</text>
        <rect fill="none" height="6" style="stroke: #C82930; stroke-width: 1.0;" width="6" x="304" y="168.4326"/>
        <text fill="#000000" font-family="sans-serif" font-size="11" lengthAdjust="spacingAndGlyphs" textLength="89" x="316" y="174.0898">String descBreve</text>
        <rect fill="none" height="6" style="stroke: #C82930; stroke-width: 1.0;" width="6" x="304" y="181.3877"/>
        <text fill="#000000" font-family="sans-serif" font-size="11" lengthAdjust="spacingAndGlyphs" textLength="113" x="316" y="187.0449">String descDetalhada</text>
        <!--class Organizacao-->
        <rect fill="#FEFECE" filter="url(#foszaxedali9q)" height="104.7754" style="stroke: #A80036; stroke-width: 1.5;" width="104" x="319.5" y="228.5"/>
        <ellipse cx="334.5" cy="244.5" fill="#ADD1B2" rx="11" ry="11" style="stroke: #A80036; stroke-width: 1.0;"/>
        <path d="M337.4731,250.1431 Q336.8921,250.4419 336.2529,250.5913 Q335.6138,250.7407 334.9082,250.7407 Q332.4014,250.7407 331.0815,249.0889 Q329.7617,247.437 329.7617,244.3159 Q329.7617,241.1865 331.0815,239.5347 Q332.4014,237.8828 334.9082,237.8828 Q335.6138,237.8828 336.2612,238.0322 Q336.9087,238.1816 337.4731,238.4805 L337.4731,241.2031 Q336.8423,240.6221 336.2488,240.3523 Q335.6553,240.0825 335.0244,240.0825 Q333.6797,240.0825 332.9949,241.1492 Q332.3101,242.2158 332.3101,244.3159 Q332.3101,246.4077 332.9949,247.4744 Q333.6797,248.541 335.0244,248.541 Q335.6553,248.541 336.2488,248.2712 Q336.8423,248.0015 337.4731,247.4204 Z "/>
        <text fill="#000000" font-family="sans-serif" font-size="12" lengthAdjust="spacingAndGlyphs" textLength="72" x="348.5" y="249.0352">Organizacao</text>
        <line style="stroke: #A80036; stroke-width: 1.5;" x1="320.5" x2="422.5" y1="260.5" y2="260.5"/>
        <rect fill="none" height="6" style="stroke: #C82930; stroke-width: 1.0;" width="6" x="327.5" y="269.4775"/>
        <text fill="#000000" font-family="sans-serif" font-size="11" lengthAdjust="spacingAndGlyphs" textLength="65" x="339.5" y="275.1348">String nome</text>
        <rect fill="none" height="6" style="stroke: #C82930; stroke-width: 1.0;" width="6" x="327.5" y="282.4326"/>
        <text fill="#000000" font-family="sans-serif" font-size="11" lengthAdjust="spacingAndGlyphs" textLength="52" x="339.5" y="288.0898">String NIF</text>
        <rect fill="none" height="6" style="stroke: #C82930; stroke-width: 1.0;" width="6" x="327.5" y="295.3877"/>
        <text fill="#000000" font-family="sans-serif" font-size="11" lengthAdjust="spacingAndGlyphs" textLength="75" x="339.5" y="301.0449">String website</text>
        <rect fill="none" height="6" style="stroke: #C82930; stroke-width: 1.0;" width="6" x="327.5" y="308.3428"/>
        <text fill="#000000" font-family="sans-serif" font-size="11" lengthAdjust="spacingAndGlyphs" textLength="78" x="339.5" y="314">String telefone</text>
        <rect fill="none" height="6" style="stroke: #C82930; stroke-width: 1.0;" width="6" x="327.5" y="321.2979"/>
        <text fill="#000000" font-family="sans-serif" font-size="11" lengthAdjust="spacingAndGlyphs" textLength="63" x="339.5" y="326.9551">String email</text>
        <!--class Colaborador-->
        <rect fill="#FEFECE" filter="url(#foszaxedali9q)" height="91.8203" style="stroke: #A80036; stroke-width: 1.5;" width="104" x="638.5" y="128"/>
        <ellipse cx="653.5" cy="144" fill="#ADD1B2" rx="11" ry="11" style="stroke: #A80036; stroke-width: 1.0;"/>
        <path d="M656.4731,149.6431 Q655.8921,149.9419 655.2529,150.0913 Q654.6138,150.2407 653.9082,150.2407 Q651.4014,150.2407 650.0815,148.5889 Q648.7617,146.937 648.7617,143.8159 Q648.7617,140.6865 650.0815,139.0347 Q651.4014,137.3828 653.9082,137.3828 Q654.6138,137.3828 655.2612,137.5322 Q655.9087,137.6816 656.4731,137.9805 L656.4731,140.7031 Q655.8423,140.1221 655.2488,139.8523 Q654.6553,139.5825 654.0244,139.5825 Q652.6797,139.5825 651.9949,140.6492 Q651.3101,141.7158 651.3101,143.8159 Q651.3101,145.9077 651.9949,146.9744 Q652.6797,148.041 654.0244,148.041 Q654.6553,148.041 655.2488,147.7712 Q655.8423,147.5015 656.4731,146.9204 Z "/>
        <text fill="#000000" font-family="sans-serif" font-size="12" lengthAdjust="spacingAndGlyphs" textLength="72" x="667.5" y="148.5352">Colaborador</text>
        <line style="stroke: #A80036; stroke-width: 1.5;" x1="639.5" x2="741.5" y1="160" y2="160"/>
        <rect fill="none" height="6" style="stroke: #C82930; stroke-width: 1.0;" width="6" x="646.5" y="168.9775"/>
        <text fill="#000000" font-family="sans-serif" font-size="11" lengthAdjust="spacingAndGlyphs" textLength="65" x="658.5" y="174.6348">String nome</text>
        <rect fill="none" height="6" style="stroke: #C82930; stroke-width: 1.0;" width="6" x="646.5" y="181.9326"/>
        <text fill="#000000" font-family="sans-serif" font-size="11" lengthAdjust="spacingAndGlyphs" textLength="72" x="658.5" y="187.5898">String funcao</text>
        <rect fill="none" height="6" style="stroke: #C82930; stroke-width: 1.0;" width="6" x="646.5" y="194.8877"/>
        <text fill="#000000" font-family="sans-serif" font-size="11" lengthAdjust="spacingAndGlyphs" textLength="78" x="658.5" y="200.5449">String telefone</text>
        <rect fill="none" height="6" style="stroke: #C82930; stroke-width: 1.0;" width="6" x="646.5" y="207.8428"/>
        <text fill="#000000" font-family="sans-serif" font-size="11" lengthAdjust="spacingAndGlyphs" textLength="63" x="658.5" y="213.5">String email</text>
        <!--class EnderecoPostal-->
        <rect fill="#FEFECE" filter="url(#foszaxedali9q)" height="78.8652" style="stroke: #A80036; stroke-width: 1.5;" width="120" x="630.5" y="255.5"/>
        <ellipse cx="645.5" cy="271.5" fill="#ADD1B2" rx="11" ry="11" style="stroke: #A80036; stroke-width: 1.0;"/>
        <path d="M648.4731,277.1431 Q647.8921,277.4419 647.2529,277.5913 Q646.6138,277.7407 645.9082,277.7407 Q643.4014,277.7407 642.0815,276.0889 Q640.7617,274.437 640.7617,271.3159 Q640.7617,268.1865 642.0815,266.5347 Q643.4014,264.8828 645.9082,264.8828 Q646.6138,264.8828 647.2612,265.0322 Q647.9087,265.1816 648.4731,265.4805 L648.4731,268.2031 Q647.8423,267.6221 647.2488,267.3523 Q646.6553,267.0825 646.0244,267.0825 Q644.6797,267.0825 643.9949,268.1492 Q643.3101,269.2158 643.3101,271.3159 Q643.3101,273.4077 643.9949,274.4744 Q644.6797,275.541 646.0244,275.541 Q646.6553,275.541 647.2488,275.2712 Q647.8423,275.0015 648.4731,274.4204 Z "/>
        <text fill="#000000" font-family="sans-serif" font-size="12" lengthAdjust="spacingAndGlyphs" textLength="88" x="659.5" y="276.0352">EnderecoPostal</text>
        <line style="stroke: #A80036; stroke-width: 1.5;" x1="631.5" x2="749.5" y1="287.5" y2="287.5"/>
        <rect fill="none" height="6" style="stroke: #C82930; stroke-width: 1.0;" width="6" x="638.5" y="296.4775"/>
        <text fill="#000000" font-family="sans-serif" font-size="11" lengthAdjust="spacingAndGlyphs" textLength="60" x="650.5" y="302.1348">String local</text>
        <rect fill="none" height="6" style="stroke: #C82930; stroke-width: 1.0;" width="6" x="638.5" y="309.4326"/>
        <text fill="#000000" font-family="sans-serif" font-size="11" lengthAdjust="spacingAndGlyphs" textLength="87" x="650.5" y="315.0898">String codPostal</text>
        <rect fill="none" height="6" style="stroke: #C82930; stroke-width: 1.0;" width="6" x="638.5" y="322.3877"/>
        <text fill="#000000" font-family="sans-serif" font-size="11" lengthAdjust="spacingAndGlyphs" textLength="89" x="650.5" y="328.0449">String localidade</text>
        <!--class Freelancer-->
        <rect fill="#FEFECE" filter="url(#foszaxedali9q)" height="40" style="stroke: #A80036; stroke-width: 1.5;" width="92" x="488" y="367"/>
        <ellipse cx="503" cy="383" fill="#ADD1B2" rx="11" ry="11" style="stroke: #A80036; stroke-width: 1.0;"/>
        <path d="M505.9731,388.6431 Q505.3921,388.9419 504.7529,389.0913 Q504.1138,389.2407 503.4082,389.2407 Q500.9014,389.2407 499.5815,387.5889 Q498.2617,385.937 498.2617,382.8159 Q498.2617,379.6865 499.5815,378.0347 Q500.9014,376.3828 503.4082,376.3828 Q504.1138,376.3828 504.7612,376.5322 Q505.4087,376.6816 505.9731,376.9805 L505.9731,379.7031 Q505.3423,379.1221 504.7488,378.8523 Q504.1553,378.5825 503.5244,378.5825 Q502.1797,378.5825 501.4949,379.6492 Q500.8101,380.7158 500.8101,382.8159 Q500.8101,384.9077 501.4949,385.9744 Q502.1797,387.041 503.5244,387.041 Q504.1553,387.041 504.7488,386.7712 Q505.3423,386.5015 505.9731,385.9204 Z "/>
        <text fill="#000000" font-family="sans-serif" font-size="12" lengthAdjust="spacingAndGlyphs" textLength="60" x="517" y="387.5352">Freelancer</text>
        <line style="stroke: #A80036; stroke-width: 1.5;" x1="489" x2="579" y1="399" y2="399"/>
        <!--class Administrativo-->
        <rect fill="#FEFECE" filter="url(#foszaxedali9q)" height="40" style="stroke: #A80036; stroke-width: 1.5;" width="114" x="477" y="446"/>
        <ellipse cx="492" cy="462" fill="#ADD1B2" rx="11" ry="11" style="stroke: #A80036; stroke-width: 1.0;"/>
        <path d="M494.9731,467.6431 Q494.3921,467.9419 493.7529,468.0913 Q493.1138,468.2407 492.4082,468.2407 Q489.9014,468.2407 488.5815,466.5889 Q487.2617,464.937 487.2617,461.8159 Q487.2617,458.6865 488.5815,457.0347 Q489.9014,455.3828 492.4082,455.3828 Q493.1138,455.3828 493.7612,455.5322 Q494.4087,455.6816 494.9731,455.9805 L494.9731,458.7031 Q494.3423,458.1221 493.7488,457.8523 Q493.1553,457.5825 492.5244,457.5825 Q491.1797,457.5825 490.4949,458.6492 Q489.8101,459.7158 489.8101,461.8159 Q489.8101,463.9077 490.4949,464.9744 Q491.1797,466.041 492.5244,466.041 Q493.1553,466.041 493.7488,465.7712 Q494.3423,465.5015 494.9731,464.9204 Z "/>
        <text fill="#000000" font-family="sans-serif" font-size="12" lengthAdjust="spacingAndGlyphs" textLength="82" x="506" y="466.5352">Administrativo</text>
        <line style="stroke: #A80036; stroke-width: 1.5;" x1="478" x2="590" y1="478" y2="478"/>
        <!--class Utilizador-->
        <rect fill="#FEFECE" filter="url(#foszaxedali9q)" height="78.8652" style="stroke: #A80036; stroke-width: 1.5;" width="113" x="901" y="347.5"/>
        <ellipse cx="927.7" cy="363.5" fill="#ADD1B2" rx="11" ry="11" style="stroke: #A80036; stroke-width: 1.0;"/>
        <path d="M930.6731,369.1431 Q930.0921,369.4419 929.4529,369.5913 Q928.8138,369.7407 928.1082,369.7407 Q925.6014,369.7407 924.2815,368.0889 Q922.9617,366.437 922.9617,363.3159 Q922.9617,360.1865 924.2815,358.5347 Q925.6014,356.8828 928.1082,356.8828 Q928.8138,356.8828 929.4612,357.0322 Q930.1087,357.1816 930.6731,357.4805 L930.6731,360.2031 Q930.0423,359.6221 929.4488,359.3523 Q928.8553,359.0825 928.2244,359.0825 Q926.8797,359.0825 926.1949,360.1492 Q925.5101,361.2158 925.5101,363.3159 Q925.5101,365.4077 926.1949,366.4744 Q926.8797,367.541 928.2244,367.541 Q928.8553,367.541 929.4488,367.2712 Q930.0423,367.0015 930.6731,366.4204 Z "/>
        <text fill="#000000" font-family="sans-serif" font-size="12" lengthAdjust="spacingAndGlyphs" textLength="55" x="944.3" y="368.0352">Utilizador</text>
        <line style="stroke: #A80036; stroke-width: 1.5;" x1="902" x2="1013" y1="379.5" y2="379.5"/>
        <rect fill="none" height="6" style="stroke: #C82930; stroke-width: 1.0;" width="6" x="909" y="388.4775"/>
        <text fill="#000000" font-family="sans-serif" font-size="11" lengthAdjust="spacingAndGlyphs" textLength="65" x="921" y="394.1348">String nome</text>
        <rect fill="none" height="6" style="stroke: #C82930; stroke-width: 1.0;" width="6" x="909" y="401.4326"/>
        <text fill="#000000" font-family="sans-serif" font-size="11" lengthAdjust="spacingAndGlyphs" textLength="63" x="921" y="407.0898">String email</text>
        <rect fill="none" height="6" style="stroke: #C82930; stroke-width: 1.0;" width="6" x="909" y="414.3877"/>
        <text fill="#000000" font-family="sans-serif" font-size="11" lengthAdjust="spacingAndGlyphs" textLength="87" x="921" y="420.0449">String password</text>
        <path d="M86.08,254.46 C102.81,231.25 129.36,197.65 158,174 C212.16,129.28 229.77,120.37 296,97 C405.23,58.45 540.85,49.41 620.99,47.74 " fill="none" style="stroke: #A80036; stroke-width: 1.0;"/>
        <text fill="#000000" font-family="sans-serif" font-size="13" lengthAdjust="spacingAndGlyphs" textLength="42" x="344" y="59.5684">possui</text>
        <polygon fill="#000000" points="389,53.1553,395,56.1553,389,59.1553,389,53.1553" style="stroke: #000000; stroke-width: 1.0;"/>
        <text fill="#000000" font-family="sans-serif" font-size="13" lengthAdjust="spacingAndGlyphs" textLength="8" x="81.7557" y="243.7744">1</text>
        <text fill="#000000" font-family="sans-serif" font-size="13" lengthAdjust="spacingAndGlyphs" textLength="6" x="607.0592" y="61.1246">*</text>
        <path d="M128.13,255.76 C176.28,235.54 244.09,207.07 295.74,185.38 " fill="none" style="stroke: #A80036; stroke-width: 1.0;"/>
        <text fill="#000000" font-family="sans-serif" font-size="13" lengthAdjust="spacingAndGlyphs" textLength="42" x="184.5" y="195.5684">possui</text>
        <polygon fill="#000000" points="229.5,189.1553,235.5,192.1553,229.5,195.1553,229.5,189.1553" style="stroke: #000000; stroke-width: 1.0;"/>
        <text fill="#000000" font-family="sans-serif" font-size="13" lengthAdjust="spacingAndGlyphs" textLength="8" x="136.0677" y="266.188">1</text>
        <text fill="#000000" font-family="sans-serif" font-size="13" lengthAdjust="spacingAndGlyphs" textLength="6" x="281.9871" y="201.7975">*</text>
        <path d="M128.13,281 C183.95,281 266.18,281 319.04,281 " fill="none" style="stroke: #A80036; stroke-width: 1.0;"/>
        <text fill="#000000" font-family="sans-serif" font-size="13" lengthAdjust="spacingAndGlyphs" textLength="93" x="159" y="277.5684">tem registadas</text>
        <polygon fill="#000000" points="255,271.1553,261,274.1553,255,277.1553,255,271.1553" style="stroke: #000000; stroke-width: 1.0;"/>
        <text fill="#000000" font-family="sans-serif" font-size="13" lengthAdjust="spacingAndGlyphs" textLength="8" x="136.0677" y="294.5041">1</text>
        <text fill="#000000" font-family="sans-serif" font-size="13" lengthAdjust="spacingAndGlyphs" textLength="6" x="305.5876" y="294.6121">*</text>
        <path d="M128.31,302.18 C173.89,317.53 238.27,337.83 296,351 C361.93,366.04 439.66,376.49 487.64,382.12 " fill="none" style="stroke: #A80036; stroke-width: 1.0;"/>
        <text fill="#000000" font-family="sans-serif" font-size="13" lengthAdjust="spacingAndGlyphs" textLength="53" x="179" y="308.5684">tem/usa</text>
        <polygon fill="#000000" points="235,302.1553,241,305.1553,235,308.1553,235,302.1553" style="stroke: #000000; stroke-width: 1.0;"/>
        <text fill="#000000" font-family="sans-serif" font-size="13" lengthAdjust="spacingAndGlyphs" textLength="8" x="135.8615" y="318.085">1</text>
        <text fill="#000000" font-family="sans-serif" font-size="13" lengthAdjust="spacingAndGlyphs" textLength="6" x="474.0818" y="395.1133">*</text>
        <path d="M88.94,307.58 C105.65,327.06 130.72,352.67 158,368 C261.54,426.19 400.56,450.73 476.92,460.35 " fill="none" style="stroke: #A80036; stroke-width: 1.0;"/>
        <text fill="#000000" font-family="sans-serif" font-size="13" lengthAdjust="spacingAndGlyphs" textLength="24" x="193.5" y="364.5684">tem</text>
        <polygon fill="#000000" points="220.5,358.1553,226.5,361.1553,220.5,364.1553,220.5,358.1553" style="stroke: #000000; stroke-width: 1.0;"/>
        <text fill="#000000" font-family="sans-serif" font-size="13" lengthAdjust="spacingAndGlyphs" textLength="8" x="85.0886" y="328.0705">1</text>
        <text fill="#000000" font-family="sans-serif" font-size="13" lengthAdjust="spacingAndGlyphs" textLength="6" x="462.8468" y="473.1878">*</text>
        <path d="M447.06,132.74 C489.52,120.23 543.54,103.64 591,87 C600.72,83.59 610.9,79.81 620.87,75.98 " fill="none" style="stroke: #A80036; stroke-width: 1.0;"/>
        <text fill="#000000" font-family="sans-serif" font-size="13" lengthAdjust="spacingAndGlyphs" textLength="67" x="494" y="83.5684">referente a</text>
        <polygon fill="#000000" points="564,77.1553,570,80.1553,564,83.1553,564,77.1553" style="stroke: #000000; stroke-width: 1.0;"/>
        <text fill="#000000" font-family="sans-serif" font-size="13" lengthAdjust="spacingAndGlyphs" textLength="6" x="455.1615" y="143.9123">*</text>
        <text fill="#000000" font-family="sans-serif" font-size="13" lengthAdjust="spacingAndGlyphs" textLength="8" x="604.8167" y="92.4533">1</text>
        <path d="M423.7,244.03 C440.08,233.64 458.72,223.21 477,216 C529.82,195.16 594.26,184.29 638.24,178.88 " fill="none" style="stroke: #A80036; stroke-width: 1.0;"/>
        <text fill="#000000" font-family="sans-serif" font-size="13" lengthAdjust="spacingAndGlyphs" textLength="24" x="515.5" y="182.5684">tem</text>
        <polygon fill="#000000" points="542.5,176.1553,548.5,179.1553,542.5,182.1553,542.5,176.1553" style="stroke: #000000; stroke-width: 1.0;"/>
        <text fill="#000000" font-family="sans-serif" font-size="13" lengthAdjust="spacingAndGlyphs" textLength="8" x="431.6031" y="252.4918">1</text>
        <text fill="#000000" font-family="sans-serif" font-size="13" lengthAdjust="spacingAndGlyphs" textLength="22" x="608.5302" y="192.987">1..*</text>
        <path d="M423.64,277.66 C469.02,273.3 536.41,263.39 591,241 C607.36,234.29 623.78,224.59 638.39,214.64 " fill="none" style="stroke: #A80036; stroke-width: 1.0;"/>
        <text fill="#000000" font-family="sans-serif" font-size="13" lengthAdjust="spacingAndGlyphs" textLength="68" x="493.5" y="237.5684">tem gestor</text>
        <polygon fill="#000000" points="564.5,231.1553,570.5,234.1553,564.5,237.1553,564.5,231.1553" style="stroke: #000000; stroke-width: 1.0;"/>
        <text fill="#000000" font-family="sans-serif" font-size="13" lengthAdjust="spacingAndGlyphs" textLength="8" x="431.5347" y="290.851">1</text>
        <text fill="#000000" font-family="sans-serif" font-size="13" lengthAdjust="spacingAndGlyphs" textLength="8" x="622.4995" y="234.0125">1</text>
        <path d="M423.63,289.82 C440.57,292.35 459.54,294.75 477,296 C527.54,299.61 540.33,296.26 591,296 C603.74,295.94 617.41,295.82 630.38,295.7 " fill="none" style="stroke: #A80036; stroke-width: 1.0;"/>
        <text fill="#000000" font-family="sans-serif" font-size="13" lengthAdjust="spacingAndGlyphs" textLength="86" x="484.5" y="292.5684">localizada em</text>
        <polygon fill="#000000" points="573.5,286.1553,579.5,289.1553,573.5,292.1553,573.5,286.1553" style="stroke: #000000; stroke-width: 1.0;"/>
        <text fill="#000000" font-family="sans-serif" font-size="13" lengthAdjust="spacingAndGlyphs" textLength="8" x="431.5233" y="304.721">1</text>
        <text fill="#000000" font-family="sans-serif" font-size="13" lengthAdjust="spacingAndGlyphs" textLength="8" x="614.5654" y="309.2949">1</text>
        <path d="M580.11,387 C657.73,387 816.34,387 900.75,387 " fill="none" style="stroke: #A80036; stroke-width: 1.0;"/>
        <text fill="#000000" font-family="sans-serif" font-size="13" lengthAdjust="spacingAndGlyphs" textLength="66" x="651" y="383.5684">atua como</text>
        <polygon fill="#000000" points="720,377.1553,726,380.1553,720,383.1553,720,377.1553" style="stroke: #000000; stroke-width: 1.0;"/>
        <text fill="#000000" font-family="sans-serif" font-size="13" lengthAdjust="spacingAndGlyphs" textLength="24" x="587.9185" y="400.597">0..1</text>
        <text fill="#000000" font-family="sans-serif" font-size="13" lengthAdjust="spacingAndGlyphs" textLength="8" x="884.9664" y="400.5578">1</text>
        <path d="M591.41,455.43 C672.28,440.27 820.26,412.53 900.76,397.45 " fill="none" style="stroke: #A80036; stroke-width: 1.0;"/>
        <text fill="#000000" font-family="sans-serif" font-size="13" lengthAdjust="spacingAndGlyphs" textLength="66" x="651" y="420.5684">atua como</text>
        <polygon fill="#000000" points="720,414.1553,726,417.1553,720,420.1553,720,414.1553" style="stroke: #000000; stroke-width: 1.0;"/>
        <text fill="#000000" font-family="sans-serif" font-size="13" lengthAdjust="spacingAndGlyphs" textLength="24" x="599.0017" y="467.6796">0..1</text>
        <text fill="#000000" font-family="sans-serif" font-size="13" lengthAdjust="spacingAndGlyphs" textLength="8" x="884.9777" y="412.3467">1</text>
        <path d="M742.59,215.07 C790.12,253.27 860.46,309.81 907.35,347.5 " fill="none" style="stroke: #A80036; stroke-width: 1.0;"/>
        <text fill="#000000" font-family="sans-serif" font-size="13" lengthAdjust="spacingAndGlyphs" textLength="66" x="791" y="251.5684">atua como</text>
        <polygon fill="#000000" points="860,245.1553,866,248.1553,860,251.1553,860,245.1553" style="stroke: #000000; stroke-width: 1.0;"/>
        <text fill="#000000" font-family="sans-serif" font-size="13" lengthAdjust="spacingAndGlyphs" textLength="24" x="750.401" y="233.5877">0..1</text>
        <text fill="#000000" font-family="sans-serif" font-size="13" lengthAdjust="spacingAndGlyphs" textLength="8" x="889.7045" y="336.7361">1</text>
        <!--
@startuml
hide methods
left to right direction

class Plataforma {
  -String designacao
}

class AreaAtividade {
  -String codigo
  -String descBreve
  -String descDetalhada
 
}

class CompetenciaTecnica {
  -String codigo
  -String descBreve
  -String descDetalhada
}

class Organizacao {
  -String nome
  -String NIF
  -String website
  -String telefone
  -String email
}

class Colaborador {
  -String nome
  -String funcao
  -String telefone
  -String email
}

class EnderecoPostal {
  -String local
  -String codPostal
  -String localidade
}

class Freelancer {
  
}

class Administrativo {
  
}

class Utilizador {
  -String nome
  -String email
  -String password
}


Plataforma "1" - - "*" AreaAtividade : possui >
Plataforma "1" - - "*" CompetenciaTecnica : possui >
Plataforma "1" - - "*" Organizacao : tem registadas >
Plataforma "1" - - "*" Freelancer : tem/usa  >
Plataforma "1" - - "*" Administrativo : tem  >
CompetenciaTecnica "*" - - "1" AreaAtividade : referente a >
Organizacao "1" - - "1..*" Colaborador: tem >
Organizacao "1" - - "1" Colaborador: tem gestor >
Organizacao "1" - - "1" EnderecoPostal: localizada em >

Freelancer "0..1" - - "1" Utilizador: atua como >
Administrativo "0..1" - - "1" Utilizador: atua como >
Colaborador "0..1" - - "1" Utilizador: atua como >

@enduml

PlantUML version 2017.11(Wed Apr 19 17:18:59 WEST 2017)
(GPL source distribution)
Java Runtime: Java(TM) SE Runtime Environment
JVM: Java HotSpot(TM) 64-Bit Server VM
Java Version: 1.8.0_112-b16
Operating System: Mac OS X
OS Version: 10.13.6
Default Encoding: UTF-8
Language: en
Country: US
-->
    </g>
</svg>
