<?xml version="1.0" encoding="UTF-8"?><svg xmlns="http://www.w3.org/2000/svg" xmlns:xlink="http://www.w3.org/1999/xlink" contentScriptType="application/ecmascript" contentStyleType="text/css" height="95px" preserveAspectRatio="none" style="width:393px;height:95px;" version="1.1" viewBox="0 0 393 95" width="393px" zoomAndPan="magnify">
    <defs>
        <filter height="300%" id="f2yji4irib1g7" width="300%" x="-1" y="-1">
            <feGaussianBlur result="blurOut" stdDeviation="2.0"/>
            <feColorMatrix in="blurOut" result="blurOut2" type="matrix" values="0 0 0 0 0 0 0 0 0 0 0 0 0 0 0 0 0 0 .4 0"/>
            <feOffset dx="4.0" dy="4.0" in="blurOut2" result="blurOut3"/>
            <feBlend in="SourceGraphic" in2="blurOut3" mode="normal"/>
        </filter>
    </defs>
    <g>
        <!--class AreaAtividade-->
        <rect fill="#FEFECE" filter="url(#f2yji4irib1g7)" height="78.8652" style="stroke: #A80036; stroke-width: 1.5;" width="139" x="245" y="8"/>
        <ellipse cx="271.7" cy="24" fill="#ADD1B2" rx="11" ry="11" style="stroke: #A80036; stroke-width: 1.0;"/>
        <path d="M274.6731,29.6431 Q274.0921,29.9419 273.4529,30.0913 Q272.8138,30.2407 272.1082,30.2407 Q269.6014,30.2407 268.2815,28.5889 Q266.9617,26.937 266.9617,23.8159 Q266.9617,20.6865 268.2815,19.0347 Q269.6014,17.3828 272.1082,17.3828 Q272.8138,17.3828 273.4612,17.5322 Q274.1087,17.6816 274.6731,17.9805 L274.6731,20.7031 Q274.0423,20.1221 273.4488,19.8523 Q272.8553,19.5825 272.2244,19.5825 Q270.8797,19.5825 270.1949,20.6492 Q269.5101,21.7158 269.5101,23.8159 Q269.5101,25.9077 270.1949,26.9744 Q270.8797,28.041 272.2244,28.041 Q272.8553,28.041 273.4488,27.7712 Q274.0423,27.5015 274.6731,26.9204 Z "/>
        <text fill="#000000" font-family="sans-serif" font-size="12" lengthAdjust="spacingAndGlyphs" textLength="81" x="288.3" y="28.5352">AreaAtividade</text>
        <line style="stroke: #A80036; stroke-width: 1.5;" x1="246" x2="383" y1="40" y2="40"/>
        <rect fill="none" height="6" style="stroke: #C82930; stroke-width: 1.0;" width="6" x="253" y="48.9775"/>
        <text fill="#000000" font-family="sans-serif" font-size="11" lengthAdjust="spacingAndGlyphs" textLength="72" x="265" y="54.6348">String codigo</text>
        <rect fill="none" height="6" style="stroke: #C82930; stroke-width: 1.0;" width="6" x="253" y="61.9326"/>
        <text fill="#000000" font-family="sans-serif" font-size="11" lengthAdjust="spacingAndGlyphs" textLength="89" x="265" y="67.5898">String descBreve</text>
        <rect fill="none" height="6" style="stroke: #C82930; stroke-width: 1.0;" width="6" x="253" y="74.8877"/>
        <text fill="#000000" font-family="sans-serif" font-size="11" lengthAdjust="spacingAndGlyphs" textLength="113" x="265" y="80.5449">String descDetalhada</text>
        <!--class Plataforma-->
        <rect fill="#FEFECE" filter="url(#f2yji4irib1g7)" height="52.9551" style="stroke: #A80036; stroke-width: 1.5;" width="122" x="6" y="21"/>
        <ellipse cx="33.6" cy="37" fill="#ADD1B2" rx="11" ry="11" style="stroke: #A80036; stroke-width: 1.0;"/>
        <path d="M36.5731,42.6431 Q35.9921,42.9419 35.3529,43.0913 Q34.7138,43.2407 34.0082,43.2407 Q31.5014,43.2407 30.1815,41.5889 Q28.8617,39.937 28.8617,36.8159 Q28.8617,33.6865 30.1815,32.0347 Q31.5014,30.3828 34.0082,30.3828 Q34.7138,30.3828 35.3612,30.5322 Q36.0087,30.6816 36.5731,30.9805 L36.5731,33.7031 Q35.9423,33.1221 35.3488,32.8523 Q34.7553,32.5825 34.1244,32.5825 Q32.7797,32.5825 32.0949,33.6492 Q31.4101,34.7158 31.4101,36.8159 Q31.4101,38.9077 32.0949,39.9744 Q32.7797,41.041 34.1244,41.041 Q34.7553,41.041 35.3488,40.7712 Q35.9423,40.5015 36.5731,39.9204 Z "/>
        <text fill="#000000" font-family="sans-serif" font-size="12" lengthAdjust="spacingAndGlyphs" textLength="62" x="50.4" y="41.5352">Plataforma</text>
        <line style="stroke: #A80036; stroke-width: 1.5;" x1="7" x2="127" y1="53" y2="53"/>
        <rect fill="none" height="6" style="stroke: #C82930; stroke-width: 1.0;" width="6" x="14" y="61.9775"/>
        <text fill="#000000" font-family="sans-serif" font-size="11" lengthAdjust="spacingAndGlyphs" textLength="96" x="26" y="67.6348">String designacao</text>
        <path d="M128.06,47.5 C163.4,47.5 208.23,47.5 244.96,47.5 " fill="none" style="stroke: #A80036; stroke-width: 1.0;"/>
        <text fill="#000000" font-family="sans-serif" font-size="13" lengthAdjust="spacingAndGlyphs" textLength="42" x="159" y="44.0684">possui</text>
        <polygon fill="#000000" points="204,37.6553,210,40.6553,204,43.6553,204,37.6553" style="stroke: #000000; stroke-width: 1.0;"/>
        <text fill="#000000" font-family="sans-serif" font-size="13" lengthAdjust="spacingAndGlyphs" textLength="8" x="135.9892" y="61.0041">1</text>
        <text fill="#000000" font-family="sans-serif" font-size="13" lengthAdjust="spacingAndGlyphs" textLength="6" x="231.0259" y="60.913">*</text>
        <!--
@startuml
hide methods
left to right direction

class AreaAtividade {
  -String codigo
  -String descBreve
  -String descDetalhada
 
}

class Plataforma {
  -String designacao
}

Plataforma "1" - - "*" AreaAtividade : possui >
@enduml

PlantUML version 2017.11(Wed Apr 19 17:18:59 WEST 2017)
(GPL source distribution)
Java Runtime: Java(TM) SE Runtime Environment
JVM: Java HotSpot(TM) 64-Bit Server VM
Java Version: 1.8.0_112-b16
Operating System: Mac OS X
OS Version: 10.13.6
Default Encoding: UTF-8
Language: en
Country: US
-->
    </g>
</svg>
