<?xml version="1.0" encoding="UTF-8"?><svg xmlns="http://www.w3.org/2000/svg" xmlns:xlink="http://www.w3.org/1999/xlink" contentScriptType="application/ecmascript" contentStyleType="text/css" height="550px" preserveAspectRatio="none" style="width:637px;height:550px;" version="1.1" viewBox="0 0 637 550" width="637px" zoomAndPan="magnify">
    <defs>
        <filter height="300%" id="fd8sym7e7klph" width="300%" x="-1" y="-1">
            <feGaussianBlur result="blurOut" stdDeviation="2.0"/>
            <feColorMatrix in="blurOut" result="blurOut2" type="matrix" values="0 0 0 0 0 0 0 0 0 0 0 0 0 0 0 0 0 0 .4 0"/>
            <feOffset dx="4.0" dy="4.0" in="blurOut2" result="blurOut3"/>
            <feBlend in="SourceGraphic" in2="blurOut3" mode="normal"/>
        </filter>
    </defs>
    <g>
        <!--class AreaAtividade-->
        <rect fill="#FEFECE" filter="url(#fd8sym7e7klph)" height="99.8203" style="stroke: #A80036; stroke-width: 1.5;" width="305" x="28" y="442"/>
        <ellipse cx="135.75" cy="458" fill="#ADD1B2" rx="11" ry="11" style="stroke: #A80036; stroke-width: 1.0;"/>
        <path d="M138.7231,463.6431 Q138.1421,463.9419 137.5029,464.0913 Q136.8638,464.2407 136.1582,464.2407 Q133.6514,464.2407 132.3315,462.5889 Q131.0117,460.937 131.0117,457.8159 Q131.0117,454.6865 132.3315,453.0347 Q133.6514,451.3828 136.1582,451.3828 Q136.8638,451.3828 137.5112,451.5322 Q138.1587,451.6816 138.7231,451.9805 L138.7231,454.7031 Q138.0923,454.1221 137.4988,453.8523 Q136.9053,453.5825 136.2744,453.5825 Q134.9297,453.5825 134.2449,454.6492 Q133.5601,455.7158 133.5601,457.8159 Q133.5601,459.9077 134.2449,460.9744 Q134.9297,462.041 136.2744,462.041 Q136.9053,462.041 137.4988,461.7712 Q138.0923,461.5015 138.7231,460.9204 Z "/>
        <text fill="#000000" font-family="sans-serif" font-size="12" lengthAdjust="spacingAndGlyphs" textLength="81" x="156.25" y="462.5352">AreaAtividade</text>
        <line style="stroke: #A80036; stroke-width: 1.5;" x1="29" x2="332" y1="474" y2="474"/>
        <rect fill="none" height="6" style="stroke: #C82930; stroke-width: 1.0;" width="6" x="36" y="482.9775"/>
        <text fill="#000000" font-family="sans-serif" font-size="11" lengthAdjust="spacingAndGlyphs" textLength="72" x="48" y="488.6348">String codigo</text>
        <rect fill="none" height="6" style="stroke: #C82930; stroke-width: 1.0;" width="6" x="36" y="495.9326"/>
        <text fill="#000000" font-family="sans-serif" font-size="11" lengthAdjust="spacingAndGlyphs" textLength="89" x="48" y="501.5898">String descBreve</text>
        <rect fill="none" height="6" style="stroke: #C82930; stroke-width: 1.0;" width="6" x="36" y="508.8877"/>
        <text fill="#000000" font-family="sans-serif" font-size="11" lengthAdjust="spacingAndGlyphs" textLength="113" x="48" y="514.5449">String descDetalhada</text>
        <line style="stroke: #A80036; stroke-width: 1.5;" x1="29" x2="332" y1="520.8652" y2="520.8652"/>
        <text fill="#000000" font-family="sans-serif" font-size="11" lengthAdjust="spacingAndGlyphs" textLength="293" x="34" y="535.5">AreaAtividade(String cod, String dsBreve, String dsDet)</text>
        <!--class Plataforma-->
        <rect fill="#FEFECE" filter="url(#fd8sym7e7klph)" height="112.7754" style="stroke: #A80036; stroke-width: 1.5;" width="423" x="205" y="252"/>
        <ellipse cx="381.25" cy="268" fill="#ADD1B2" rx="11" ry="11" style="stroke: #A80036; stroke-width: 1.0;"/>
        <path d="M384.2231,273.6431 Q383.6421,273.9419 383.0029,274.0913 Q382.3638,274.2407 381.6582,274.2407 Q379.1514,274.2407 377.8315,272.5889 Q376.5117,270.937 376.5117,267.8159 Q376.5117,264.6865 377.8315,263.0347 Q379.1514,261.3828 381.6582,261.3828 Q382.3638,261.3828 383.0112,261.5322 Q383.6587,261.6816 384.2231,261.9805 L384.2231,264.7031 Q383.5923,264.1221 382.9988,263.8523 Q382.4053,263.5825 381.7744,263.5825 Q380.4297,263.5825 379.7449,264.6492 Q379.0601,265.7158 379.0601,267.8159 Q379.0601,269.9077 379.7449,270.9744 Q380.4297,272.041 381.7744,272.041 Q382.4053,272.041 382.9988,271.7712 Q383.5923,271.5015 384.2231,270.9204 Z "/>
        <text fill="#000000" font-family="sans-serif" font-size="12" lengthAdjust="spacingAndGlyphs" textLength="62" x="401.75" y="272.5352">Plataforma</text>
        <line style="stroke: #A80036; stroke-width: 1.5;" x1="206" x2="627" y1="284" y2="284"/>
        <rect fill="none" height="6" style="stroke: #C82930; stroke-width: 1.0;" width="6" x="213" y="292.9775"/>
        <text fill="#000000" font-family="sans-serif" font-size="11" lengthAdjust="spacingAndGlyphs" textLength="96" x="225" y="298.6348">String designacao</text>
        <line style="stroke: #A80036; stroke-width: 1.5;" x1="206" x2="627" y1="304.9551" y2="304.9551"/>
        <text fill="#000000" font-family="sans-serif" font-size="11" lengthAdjust="spacingAndGlyphs" textLength="397" x="225" y="319.5898">AreaAtividade novaAreaAtividade(String cod, String dsBreve, String dsDet)</text>
        <text fill="#000000" font-family="sans-serif" font-size="11" lengthAdjust="spacingAndGlyphs" textLength="215" x="225" y="332.5449">validaAreaAtividade(AreaAtividade area)</text>
        <text fill="#000000" font-family="sans-serif" font-size="11" lengthAdjust="spacingAndGlyphs" textLength="221" x="225" y="345.5">registaAreaAtividade(AreaAtividade area)</text>
        <rect fill="#F24D5C" height="6" style="stroke: #C82930; stroke-width: 1.0;" width="6" x="213" y="352.7979"/>
        <text fill="#000000" font-family="sans-serif" font-size="11" lengthAdjust="spacingAndGlyphs" textLength="204" x="225" y="358.4551">addAreaAtividade(AreaAtividade area)</text>
        <!--class DefinirAreaController-->
        <rect fill="#FEFECE" filter="url(#fd8sym7e7klph)" height="73.9102" style="stroke: #A80036; stroke-width: 1.5;" width="331" x="6" y="117"/>
        <ellipse cx="106.75" cy="133" fill="#ADD1B2" rx="11" ry="11" style="stroke: #A80036; stroke-width: 1.0;"/>
        <path d="M109.7231,138.6431 Q109.1421,138.9419 108.5029,139.0913 Q107.8638,139.2407 107.1582,139.2407 Q104.6514,139.2407 103.3315,137.5889 Q102.0117,135.937 102.0117,132.8159 Q102.0117,129.6865 103.3315,128.0347 Q104.6514,126.3828 107.1582,126.3828 Q107.8638,126.3828 108.5112,126.5322 Q109.1587,126.6816 109.7231,126.9805 L109.7231,129.7031 Q109.0923,129.1221 108.4988,128.8523 Q107.9053,128.5825 107.2744,128.5825 Q105.9297,128.5825 105.2449,129.6492 Q104.5601,130.7158 104.5601,132.8159 Q104.5601,134.9077 105.2449,135.9744 Q105.9297,137.041 107.2744,137.041 Q107.9053,137.041 108.4988,136.7712 Q109.0923,136.5015 109.7231,135.9204 Z "/>
        <text fill="#000000" font-family="sans-serif" font-size="12" lengthAdjust="spacingAndGlyphs" textLength="121" x="127.25" y="137.5352">DefinirAreaController</text>
        <line style="stroke: #A80036; stroke-width: 1.5;" x1="7" x2="336" y1="149" y2="149"/>
        <line style="stroke: #A80036; stroke-width: 1.5;" x1="7" x2="336" y1="157" y2="157"/>
        <text fill="#000000" font-family="sans-serif" font-size="11" lengthAdjust="spacingAndGlyphs" textLength="319" x="12" y="171.6348">novaAreaAtividade(String cod, String dsBreve, String dsDet)</text>
        <text fill="#000000" font-family="sans-serif" font-size="11" lengthAdjust="spacingAndGlyphs" textLength="120" x="12" y="184.5898">registaAreaAtividade()</text>
        <!--class DefinirAreaUI-->
        <rect fill="#FEFECE" filter="url(#fd8sym7e7klph)" height="48" style="stroke: #A80036; stroke-width: 1.5;" width="108" x="117.5" y="8"/>
        <ellipse cx="132.5" cy="24" fill="#ADD1B2" rx="11" ry="11" style="stroke: #A80036; stroke-width: 1.0;"/>
        <path d="M135.4731,29.6431 Q134.8921,29.9419 134.2529,30.0913 Q133.6138,30.2407 132.9082,30.2407 Q130.4014,30.2407 129.0815,28.5889 Q127.7617,26.937 127.7617,23.8159 Q127.7617,20.6865 129.0815,19.0347 Q130.4014,17.3828 132.9082,17.3828 Q133.6138,17.3828 134.2612,17.5322 Q134.9087,17.6816 135.4731,17.9805 L135.4731,20.7031 Q134.8423,20.1221 134.2488,19.8523 Q133.6553,19.5825 133.0244,19.5825 Q131.6797,19.5825 130.9949,20.6492 Q130.3101,21.7158 130.3101,23.8159 Q130.3101,25.9077 130.9949,26.9744 Q131.6797,28.041 133.0244,28.041 Q133.6553,28.041 134.2488,27.7712 Q134.8423,27.5015 135.4731,26.9204 Z "/>
        <text fill="#000000" font-family="sans-serif" font-size="12" lengthAdjust="spacingAndGlyphs" textLength="76" x="146.5" y="28.5352">DefinirAreaUI</text>
        <line style="stroke: #A80036; stroke-width: 1.5;" x1="118.5" x2="224.5" y1="40" y2="40"/>
        <line style="stroke: #A80036; stroke-width: 1.5;" x1="118.5" x2="224.5" y1="48" y2="48"/>
        <path d="M171.5,56.14 C171.5,71.83 171.5,93 171.5,111.55 " fill="none" style="stroke: #A80036; stroke-width: 1.0; stroke-dasharray: 7.0,7.0;"/>
        <polygon fill="#A80036" points="171.5,116.71,175.5,107.71,171.5,111.71,167.5,107.71,171.5,116.71" style="stroke: #A80036; stroke-width: 1.0;"/>
        <path d="M229.56,191.14 C257.34,208.43 291.31,229.58 322.63,249.07 " fill="none" style="stroke: #A80036; stroke-width: 1.0; stroke-dasharray: 7.0,7.0;"/>
        <polygon fill="#A80036" points="327.23,251.94,321.7057,243.7864,322.986,249.2964,317.4759,250.5768,327.23,251.94" style="stroke: #A80036; stroke-width: 1.0;"/>
        <path d="M172.47,191.28 C174.05,250.32 177.19,367.53 179.04,436.58 " fill="none" style="stroke: #A80036; stroke-width: 1.0; stroke-dasharray: 7.0,7.0;"/>
        <polygon fill="#A80036" points="179.18,441.88,182.9473,432.7802,179.0515,436.8817,174.95,432.9858,179.18,441.88" style="stroke: #A80036; stroke-width: 1.0;"/>
        <path d="M344.09,365.19 C313.62,388.63 278.35,415.75 248.38,438.8 " fill="none" style="stroke: #A80036; stroke-width: 1.0;"/>
        <polygon fill="#A80036" points="244.38,441.87,253.9476,439.5331,248.3367,438.8132,249.0567,433.2023,244.38,441.87" style="stroke: #A80036; stroke-width: 1.0;"/>
        <text fill="#000000" font-family="sans-serif" font-size="13" lengthAdjust="spacingAndGlyphs" textLength="42" x="299.5" y="408.5684">possui</text>
        <text fill="#000000" font-family="sans-serif" font-size="13" lengthAdjust="spacingAndGlyphs" textLength="8" x="327.2551" y="385.2113">1</text>
        <text fill="#000000" font-family="sans-serif" font-size="13" lengthAdjust="spacingAndGlyphs" textLength="6" x="246.9413" y="431.3686">*</text>
        <!--
@startuml

class AreaAtividade {
  -String codigo
  -String descBreve
  -String descDetalhada
  AreaAtividade(String cod, String dsBreve, String dsDet)
}

class Plataforma {
  -String designacao
  
  AreaAtividade novaAreaAtividade(String cod, String dsBreve, String dsDet)
  validaAreaAtividade(AreaAtividade area)
  registaAreaAtividade(AreaAtividade area) 
  - addAreaAtividade(AreaAtividade area) 
}

class DefinirAreaController {
  novaAreaAtividade(String cod, String dsBreve, String dsDet)
  registaAreaAtividade() 
}

class DefinirAreaUI {
  
}

DefinirAreaUI ..> DefinirAreaController
DefinirAreaController ..> Plataforma
DefinirAreaController ..> AreaAtividade
Plataforma "1" - -> "*" AreaAtividade : possui


@enduml

PlantUML version 2017.11(Wed Apr 19 17:18:59 WEST 2017)
(GPL source distribution)
Java Runtime: Java(TM) SE Runtime Environment
JVM: Java HotSpot(TM) 64-Bit Server VM
Java Version: 1.8.0_112-b16
Operating System: Mac OS X
OS Version: 10.13.6
Default Encoding: UTF-8
Language: en
Country: US
-->
    </g>
</svg>
