<?xml version="1.0" encoding="UTF-8" standalone="no"?><svg xmlns="http://www.w3.org/2000/svg" xmlns:xlink="http://www.w3.org/1999/xlink" contentScriptType="application/ecmascript" contentStyleType="text/css" height="1460px" preserveAspectRatio="none" style="width:1460px;height:1460px;" version="1.1" viewBox="0 0 1460 1460" width="1460px" zoomAndPan="magnify"><defs><filter height="300%" id="f1lfu7cm1p3fs0" width="300%" x="-1" y="-1"><feGaussianBlur result="blurOut" stdDeviation="2.0"/><feColorMatrix in="blurOut" result="blurOut2" type="matrix" values="0 0 0 0 0 0 0 0 0 0 0 0 0 0 0 0 0 0 .4 0"/><feOffset dx="4.0" dy="4.0" in="blurOut2" result="blurOut3"/><feBlend in="SourceGraphic" in2="blurOut3" mode="normal"/></filter></defs><g><rect fill="#FFFFFF" filter="url(#f1lfu7cm1p3fs0)" height="1259.0469" style="stroke: #A80036; stroke-width: 1.0;" width="10" x="56" y="96.2969"/><rect fill="#FFFFFF" filter="url(#f1lfu7cm1p3fs0)" height="1179.6484" style="stroke: #A80036; stroke-width: 1.0;" width="10" x="575" y="117.4297"/><rect fill="#FFFFFF" filter="url(#f1lfu7cm1p3fs0)" height="29.1328" style="stroke: #A80036; stroke-width: 1.0;" width="10" x="575" y="1326.2109"/><rect fill="#FFFFFF" filter="url(#f1lfu7cm1p3fs0)" height="118.2656" style="stroke: #A80036; stroke-width: 1.0;" width="10" x="860" y="146.5625"/><rect fill="#FFFFFF" filter="url(#f1lfu7cm1p3fs0)" height="207.0625" style="stroke: #A80036; stroke-width: 1.0;" width="10" x="860" y="293.9609"/><rect fill="#FFFFFF" filter="url(#f1lfu7cm1p3fs0)" height="59.1328" style="stroke: #A80036; stroke-width: 1.0;" width="10" x="860" y="530.1563"/><rect fill="#FFFFFF" filter="url(#f1lfu7cm1p3fs0)" height="59.1328" style="stroke: #A80036; stroke-width: 1.0;" width="10" x="860" y="618.4219"/><rect fill="#FFFFFF" filter="url(#f1lfu7cm1p3fs0)" height="207.0625" style="stroke: #A80036; stroke-width: 1.0;" width="10" x="860" y="706.6875"/><rect fill="#FFFFFF" filter="url(#f1lfu7cm1p3fs0)" height="59.1328" style="stroke: #A80036; stroke-width: 1.0;" width="10" x="860" y="942.8828"/><rect fill="#FFFFFF" filter="url(#f1lfu7cm1p3fs0)" height="59.1328" style="stroke: #A80036; stroke-width: 1.0;" width="10" x="860" y="1031.1484"/><rect fill="#FFFFFF" filter="url(#f1lfu7cm1p3fs0)" height="118.2656" style="stroke: #A80036; stroke-width: 1.0;" width="10" x="860" y="1119.4141"/><rect fill="#FFFFFF" filter="url(#f1lfu7cm1p3fs0)" height="30" style="stroke: #A80036; stroke-width: 1.0;" width="10" x="1065.5" y="175.6953"/><rect fill="#FFFFFF" filter="url(#f1lfu7cm1p3fs0)" height="74.3984" style="stroke: #A80036; stroke-width: 1.0;" width="10" x="1176" y="323.0938"/><rect fill="#FFFFFF" filter="url(#f1lfu7cm1p3fs0)" height="74.3984" style="stroke: #A80036; stroke-width: 1.0;" width="10" x="1176" y="735.8203"/><rect fill="#FFFFFF" filter="url(#f1lfu7cm1p3fs0)" height="30" style="stroke: #A80036; stroke-width: 1.0;" width="10" x="1176" y="1148.5469"/><rect fill="#FFFFFF" filter="url(#f1lfu7cm1p3fs0)" height="30" style="stroke: #A80036; stroke-width: 1.0;" width="10" x="1330" y="234.8281"/><rect fill="#FFFFFF" filter="url(#f1lfu7cm1p3fs0)" height="74.3984" style="stroke: #A80036; stroke-width: 1.0;" width="10" x="1330" y="426.625"/><rect fill="#FFFFFF" filter="url(#f1lfu7cm1p3fs0)" height="30" style="stroke: #A80036; stroke-width: 1.0;" width="10" x="1330" y="559.2891"/><rect fill="#FFFFFF" filter="url(#f1lfu7cm1p3fs0)" height="30" style="stroke: #A80036; stroke-width: 1.0;" width="10" x="1330" y="647.5547"/><rect fill="#FFFFFF" filter="url(#f1lfu7cm1p3fs0)" height="74.3984" style="stroke: #A80036; stroke-width: 1.0;" width="10" x="1330" y="839.3516"/><rect fill="#FFFFFF" filter="url(#f1lfu7cm1p3fs0)" height="30" style="stroke: #A80036; stroke-width: 1.0;" width="10" x="1330" y="972.0156"/><rect fill="#FFFFFF" filter="url(#f1lfu7cm1p3fs0)" height="30" style="stroke: #A80036; stroke-width: 1.0;" width="10" x="1330" y="1060.2813"/><rect fill="#FFFFFF" filter="url(#f1lfu7cm1p3fs0)" height="30" style="stroke: #A80036; stroke-width: 1.0;" width="10" x="1330" y="1207.6797"/><line style="stroke: #A80036; stroke-width: 1.0; stroke-dasharray: 5.0,5.0;" x1="61" x2="61" y1="86.2969" y2="1373.3438"/><line style="stroke: #A80036; stroke-width: 1.0; stroke-dasharray: 5.0,5.0;" x1="579.5" x2="579.5" y1="86.2969" y2="1373.3438"/><line style="stroke: #A80036; stroke-width: 1.0; stroke-dasharray: 5.0,5.0;" x1="864.5" x2="864.5" y1="86.2969" y2="1373.3438"/><line style="stroke: #A80036; stroke-width: 1.0; stroke-dasharray: 5.0,5.0;" x1="1070.5" x2="1070.5" y1="86.2969" y2="1373.3438"/><line style="stroke: #A80036; stroke-width: 1.0; stroke-dasharray: 5.0,5.0;" x1="1180.5" x2="1180.5" y1="86.2969" y2="1373.3438"/><line style="stroke: #A80036; stroke-width: 1.0; stroke-dasharray: 5.0,5.0;" x1="1334.5" x2="1334.5" y1="86.2969" y2="1373.3438"/><text fill="#000000" font-family="sans-serif" font-size="14" lengthAdjust="spacingAndGlyphs" textLength="100" x="8" y="82.9951">Administrator</text><ellipse cx="61" cy="13" fill="#FEFECE" filter="url(#f1lfu7cm1p3fs0)" rx="8" ry="8" style="stroke: #A80036; stroke-width: 2.0;"/><path d="M61,21 L61,48 M48,29 L74,29 M61,48 L48,63 M61,48 L74,63 " fill="none" filter="url(#f1lfu7cm1p3fs0)" style="stroke: #A80036; stroke-width: 2.0;"/><text fill="#000000" font-family="sans-serif" font-size="14" lengthAdjust="spacingAndGlyphs" textLength="100" x="8" y="1385.3389">Administrator</text><ellipse cx="61" cy="1398.6406" fill="#FEFECE" filter="url(#f1lfu7cm1p3fs0)" rx="8" ry="8" style="stroke: #A80036; stroke-width: 2.0;"/><path d="M61,1406.6406 L61,1433.6406 M48,1414.6406 L74,1414.6406 M61,1433.6406 L48,1448.6406 M61,1433.6406 L74,1448.6406 " fill="none" filter="url(#f1lfu7cm1p3fs0)" style="stroke: #A80036; stroke-width: 2.0;"/><rect fill="#FEFECE" filter="url(#f1lfu7cm1p3fs0)" height="30.2969" style="stroke: #A80036; stroke-width: 1.5;" width="241" x="457.5" y="51"/><text fill="#000000" font-family="sans-serif" font-size="14" lengthAdjust="spacingAndGlyphs" textLength="227" x="464.5" y="70.9951">:CheckPerformanceIndicatorsUI</text><rect fill="#FEFECE" filter="url(#f1lfu7cm1p3fs0)" height="30.2969" style="stroke: #A80036; stroke-width: 1.5;" width="241" x="457.5" y="1372.3438"/><text fill="#000000" font-family="sans-serif" font-size="14" lengthAdjust="spacingAndGlyphs" textLength="227" x="464.5" y="1392.3389">:CheckPerformanceIndicatorsUI</text><rect fill="#FEFECE" filter="url(#f1lfu7cm1p3fs0)" height="30.2969" style="stroke: #A80036; stroke-width: 1.5;" width="301" x="712.5" y="51"/><text fill="#000000" font-family="sans-serif" font-size="14" lengthAdjust="spacingAndGlyphs" textLength="287" x="719.5" y="70.9951">:CheckPerformanceIndicatorsController</text><rect fill="#FEFECE" filter="url(#f1lfu7cm1p3fs0)" height="30.2969" style="stroke: #A80036; stroke-width: 1.5;" width="301" x="712.5" y="1372.3438"/><text fill="#000000" font-family="sans-serif" font-size="14" lengthAdjust="spacingAndGlyphs" textLength="287" x="719.5" y="1392.3389">:CheckPerformanceIndicatorsController</text><rect fill="#FEFECE" filter="url(#f1lfu7cm1p3fs0)" height="30.2969" style="stroke: #A80036; stroke-width: 1.5;" width="82" x="1027.5" y="51"/><text fill="#000000" font-family="sans-serif" font-size="14" lengthAdjust="spacingAndGlyphs" textLength="68" x="1034.5" y="70.9951">:Platform</text><rect fill="#FEFECE" filter="url(#f1lfu7cm1p3fs0)" height="30.2969" style="stroke: #A80036; stroke-width: 1.5;" width="82" x="1027.5" y="1372.3438"/><text fill="#000000" font-family="sans-serif" font-size="14" lengthAdjust="spacingAndGlyphs" textLength="68" x="1034.5" y="1392.3389">:Platform</text><rect fill="#FEFECE" filter="url(#f1lfu7cm1p3fs0)" height="30.2969" style="stroke: #A80036; stroke-width: 1.5;" width="111" x="1123.5" y="51"/><text fill="#000000" font-family="sans-serif" font-size="14" lengthAdjust="spacingAndGlyphs" textLength="97" x="1130.5" y="70.9951">:Organization</text><rect fill="#FEFECE" filter="url(#f1lfu7cm1p3fs0)" height="30.2969" style="stroke: #A80036; stroke-width: 1.5;" width="111" x="1123.5" y="1372.3438"/><text fill="#000000" font-family="sans-serif" font-size="14" lengthAdjust="spacingAndGlyphs" textLength="97" x="1130.5" y="1392.3389">:Organization</text><rect fill="#FEFECE" filter="url(#f1lfu7cm1p3fs0)" height="30.2969" style="stroke: #A80036; stroke-width: 1.5;" width="169" x="1248.5" y="51"/><text fill="#000000" font-family="sans-serif" font-size="14" lengthAdjust="spacingAndGlyphs" textLength="155" x="1255.5" y="70.9951">:OrganizationsRecord</text><rect fill="#FEFECE" filter="url(#f1lfu7cm1p3fs0)" height="30.2969" style="stroke: #A80036; stroke-width: 1.5;" width="169" x="1248.5" y="1372.3438"/><text fill="#000000" font-family="sans-serif" font-size="14" lengthAdjust="spacingAndGlyphs" textLength="155" x="1255.5" y="1392.3389">:OrganizationsRecord</text><rect fill="#FFFFFF" filter="url(#f1lfu7cm1p3fs0)" height="1259.0469" style="stroke: #A80036; stroke-width: 1.0;" width="10" x="56" y="96.2969"/><rect fill="#FFFFFF" filter="url(#f1lfu7cm1p3fs0)" height="1179.6484" style="stroke: #A80036; stroke-width: 1.0;" width="10" x="575" y="117.4297"/><rect fill="#FFFFFF" filter="url(#f1lfu7cm1p3fs0)" height="29.1328" style="stroke: #A80036; stroke-width: 1.0;" width="10" x="575" y="1326.2109"/><rect fill="#FFFFFF" filter="url(#f1lfu7cm1p3fs0)" height="118.2656" style="stroke: #A80036; stroke-width: 1.0;" width="10" x="860" y="146.5625"/><rect fill="#FFFFFF" filter="url(#f1lfu7cm1p3fs0)" height="207.0625" style="stroke: #A80036; stroke-width: 1.0;" width="10" x="860" y="293.9609"/><rect fill="#FFFFFF" filter="url(#f1lfu7cm1p3fs0)" height="59.1328" style="stroke: #A80036; stroke-width: 1.0;" width="10" x="860" y="530.1563"/><rect fill="#FFFFFF" filter="url(#f1lfu7cm1p3fs0)" height="59.1328" style="stroke: #A80036; stroke-width: 1.0;" width="10" x="860" y="618.4219"/><rect fill="#FFFFFF" filter="url(#f1lfu7cm1p3fs0)" height="207.0625" style="stroke: #A80036; stroke-width: 1.0;" width="10" x="860" y="706.6875"/><rect fill="#FFFFFF" filter="url(#f1lfu7cm1p3fs0)" height="59.1328" style="stroke: #A80036; stroke-width: 1.0;" width="10" x="860" y="942.8828"/><rect fill="#FFFFFF" filter="url(#f1lfu7cm1p3fs0)" height="59.1328" style="stroke: #A80036; stroke-width: 1.0;" width="10" x="860" y="1031.1484"/><rect fill="#FFFFFF" filter="url(#f1lfu7cm1p3fs0)" height="118.2656" style="stroke: #A80036; stroke-width: 1.0;" width="10" x="860" y="1119.4141"/><rect fill="#FFFFFF" filter="url(#f1lfu7cm1p3fs0)" height="30" style="stroke: #A80036; stroke-width: 1.0;" width="10" x="1065.5" y="175.6953"/><rect fill="#FFFFFF" filter="url(#f1lfu7cm1p3fs0)" height="74.3984" style="stroke: #A80036; stroke-width: 1.0;" width="10" x="1176" y="323.0938"/><rect fill="#FFFFFF" filter="url(#f1lfu7cm1p3fs0)" height="74.3984" style="stroke: #A80036; stroke-width: 1.0;" width="10" x="1176" y="735.8203"/><rect fill="#FFFFFF" filter="url(#f1lfu7cm1p3fs0)" height="30" style="stroke: #A80036; stroke-width: 1.0;" width="10" x="1176" y="1148.5469"/><rect fill="#FFFFFF" filter="url(#f1lfu7cm1p3fs0)" height="30" style="stroke: #A80036; stroke-width: 1.0;" width="10" x="1330" y="234.8281"/><rect fill="#FFFFFF" filter="url(#f1lfu7cm1p3fs0)" height="74.3984" style="stroke: #A80036; stroke-width: 1.0;" width="10" x="1330" y="426.625"/><rect fill="#FFFFFF" filter="url(#f1lfu7cm1p3fs0)" height="30" style="stroke: #A80036; stroke-width: 1.0;" width="10" x="1330" y="559.2891"/><rect fill="#FFFFFF" filter="url(#f1lfu7cm1p3fs0)" height="30" style="stroke: #A80036; stroke-width: 1.0;" width="10" x="1330" y="647.5547"/><rect fill="#FFFFFF" filter="url(#f1lfu7cm1p3fs0)" height="74.3984" style="stroke: #A80036; stroke-width: 1.0;" width="10" x="1330" y="839.3516"/><rect fill="#FFFFFF" filter="url(#f1lfu7cm1p3fs0)" height="30" style="stroke: #A80036; stroke-width: 1.0;" width="10" x="1330" y="972.0156"/><rect fill="#FFFFFF" filter="url(#f1lfu7cm1p3fs0)" height="30" style="stroke: #A80036; stroke-width: 1.0;" width="10" x="1330" y="1060.2813"/><rect fill="#FFFFFF" filter="url(#f1lfu7cm1p3fs0)" height="30" style="stroke: #A80036; stroke-width: 1.0;" width="10" x="1330" y="1207.6797"/><polygon fill="#A80036" points="563,113.4297,573,117.4297,563,121.4297,567,117.4297" style="stroke: #A80036; stroke-width: 1.0;"/><line style="stroke: #A80036; stroke-width: 1.0;" x1="66" x2="569" y1="117.4297" y2="117.4297"/><text fill="#000000" font-family="sans-serif" font-size="13" font-weight="bold" lengthAdjust="spacingAndGlyphs" textLength="9" x="73" y="112.3638">1</text><text fill="#000000" font-family="sans-serif" font-size="13" lengthAdjust="spacingAndGlyphs" textLength="423" x="86" y="112.3638">initiates the process of viewing freelancers performance statistics</text><polygon fill="#A80036" points="848,142.5625,858,146.5625,848,150.5625,852,146.5625" style="stroke: #A80036; stroke-width: 1.0;"/><line style="stroke: #A80036; stroke-width: 1.0;" x1="585" x2="854" y1="146.5625" y2="146.5625"/><text fill="#000000" font-family="sans-serif" font-size="13" font-weight="bold" lengthAdjust="spacingAndGlyphs" textLength="9" x="592" y="141.4966">2</text><text fill="#000000" font-family="sans-serif" font-size="13" lengthAdjust="spacingAndGlyphs" textLength="119" x="605" y="141.4966">getOrganizations()</text><polygon fill="#A80036" points="1053.5,171.6953,1063.5,175.6953,1053.5,179.6953,1057.5,175.6953" style="stroke: #A80036; stroke-width: 1.0;"/><line style="stroke: #A80036; stroke-width: 1.0;" x1="870" x2="1059.5" y1="175.6953" y2="175.6953"/><text fill="#000000" font-family="sans-serif" font-size="13" font-weight="bold" lengthAdjust="spacingAndGlyphs" textLength="8" x="877" y="170.6294">3</text><text fill="#000000" font-family="sans-serif" font-size="13" lengthAdjust="spacingAndGlyphs" textLength="164" x="889" y="170.6294">getOrganizationsRecord()</text><polygon fill="#A80036" points="1318,230.8281,1328,234.8281,1318,238.8281,1322,234.8281" style="stroke: #A80036; stroke-width: 1.0;"/><line style="stroke: #A80036; stroke-width: 1.0;" x1="870" x2="1324" y1="234.8281" y2="234.8281"/><text fill="#000000" font-family="sans-serif" font-size="13" font-weight="bold" lengthAdjust="spacingAndGlyphs" textLength="9" x="877" y="229.7622">4</text><text fill="#000000" font-family="sans-serif" font-size="13" lengthAdjust="spacingAndGlyphs" textLength="119" x="890" y="229.7622">getOrganizations()</text><polygon fill="#A80036" points="848,289.9609,858,293.9609,848,297.9609,852,293.9609" style="stroke: #A80036; stroke-width: 1.0;"/><line style="stroke: #A80036; stroke-width: 1.0;" x1="585" x2="854" y1="293.9609" y2="293.9609"/><text fill="#000000" font-family="sans-serif" font-size="13" font-weight="bold" lengthAdjust="spacingAndGlyphs" textLength="9" x="592" y="288.895">5</text><text fill="#000000" font-family="sans-serif" font-size="13" lengthAdjust="spacingAndGlyphs" textLength="181" x="605" y="288.895">determinateDelayPlatform()</text><polygon fill="#A80036" points="1164,319.0938,1174,323.0938,1164,327.0938,1168,323.0938" style="stroke: #A80036; stroke-width: 1.0;"/><line style="stroke: #A80036; stroke-width: 1.0;" x1="870" x2="1170" y1="323.0938" y2="323.0938"/><text fill="#000000" font-family="sans-serif" font-size="13" font-weight="bold" lengthAdjust="spacingAndGlyphs" textLength="9" x="877" y="318.0278">6</text><text fill="#000000" font-family="sans-serif" font-size="13" lengthAdjust="spacingAndGlyphs" textLength="238" x="890" y="318.0278">determinateDelayOrg(mapOrgDelay)</text><rect fill="#FFFFFF" filter="url(#f1lfu7cm1p3fs0)" height="40.2656" style="stroke: #000000; stroke-width: 2.0;" width="172" x="1120.5" y="331.0938"/><polygon fill="#EEEEEE" points="1120.5,331.0938,1188.5,331.0938,1188.5,338.0938,1178.5,348.0938,1120.5,348.0938,1120.5,331.0938" style="stroke: #000000; stroke-width: 2.0;"/><text fill="#000000" font-family="sans-serif" font-size="13" font-weight="bold" lengthAdjust="spacingAndGlyphs" textLength="23" x="1133.5" y="345.1606">ref</text><text fill="#000000" font-family="sans-serif" font-size="13" lengthAdjust="spacingAndGlyphs" textLength="164" x="1126.5" y="364.1606">SD_determinateDelayOrg</text><polygon fill="#A80036" points="881,393.4922,871,397.4922,881,401.4922,877,397.4922" style="stroke: #A80036; stroke-width: 1.0;"/><line style="stroke: #A80036; stroke-width: 1.0; stroke-dasharray: 2.0,2.0;" x1="875" x2="1180" y1="397.4922" y2="397.4922"/><text fill="#000000" font-family="sans-serif" font-size="13" font-weight="bold" lengthAdjust="spacingAndGlyphs" textLength="9" x="887" y="392.4263">7</text><text fill="#000000" font-family="sans-serif" font-size="13" lengthAdjust="spacingAndGlyphs" textLength="89" x="900" y="392.4263">mapOrgDelay</text><polygon fill="#A80036" points="1318,422.625,1328,426.625,1318,430.625,1322,426.625" style="stroke: #A80036; stroke-width: 1.0;"/><line style="stroke: #A80036; stroke-width: 1.0;" x1="870" x2="1324" y1="426.625" y2="426.625"/><text fill="#000000" font-family="sans-serif" font-size="13" font-weight="bold" lengthAdjust="spacingAndGlyphs" textLength="9" x="877" y="421.5591">8</text><text fill="#000000" font-family="sans-serif" font-size="13" lengthAdjust="spacingAndGlyphs" textLength="181" x="890" y="421.5591">determinateDelayPlatform()</text><rect fill="#FFFFFF" filter="url(#f1lfu7cm1p3fs0)" height="40.2656" style="stroke: #000000; stroke-width: 2.0;" width="204" x="1245.5" y="434.625"/><polygon fill="#EEEEEE" points="1245.5,434.625,1313.5,434.625,1313.5,441.625,1303.5,451.625,1245.5,451.625,1245.5,434.625" style="stroke: #000000; stroke-width: 2.0;"/><text fill="#000000" font-family="sans-serif" font-size="13" font-weight="bold" lengthAdjust="spacingAndGlyphs" textLength="23" x="1258.5" y="448.6919">ref</text><text fill="#000000" font-family="sans-serif" font-size="13" lengthAdjust="spacingAndGlyphs" textLength="196" x="1251.5" y="467.6919">SD_determinateDelayPlatform</text><polygon fill="#A80036" points="876,497.0234,866,501.0234,876,505.0234,872,501.0234" style="stroke: #A80036; stroke-width: 1.0;"/><line style="stroke: #A80036; stroke-width: 1.0; stroke-dasharray: 2.0,2.0;" x1="870" x2="1334" y1="501.0234" y2="501.0234"/><text fill="#000000" font-family="sans-serif" font-size="13" font-weight="bold" lengthAdjust="spacingAndGlyphs" textLength="9" x="882" y="495.9575">9</text><text fill="#000000" font-family="sans-serif" font-size="13" lengthAdjust="spacingAndGlyphs" textLength="105" x="895" y="495.9575">mapTotalDelays</text><polygon fill="#A80036" points="848,526.1563,858,530.1563,848,534.1563,852,530.1563" style="stroke: #A80036; stroke-width: 1.0;"/><line style="stroke: #A80036; stroke-width: 1.0;" x1="585" x2="854" y1="530.1563" y2="530.1563"/><text fill="#000000" font-family="sans-serif" font-size="13" font-weight="bold" lengthAdjust="spacingAndGlyphs" textLength="19" x="592" y="525.0903">10</text><text fill="#000000" font-family="sans-serif" font-size="13" lengthAdjust="spacingAndGlyphs" textLength="106" x="615" y="525.0903">calcMeanDelay()</text><polygon fill="#A80036" points="1318,555.2891,1328,559.2891,1318,563.2891,1322,559.2891" style="stroke: #A80036; stroke-width: 1.0;"/><line style="stroke: #A80036; stroke-width: 1.0;" x1="870" x2="1324" y1="559.2891" y2="559.2891"/><text fill="#000000" font-family="sans-serif" font-size="13" font-weight="bold" lengthAdjust="spacingAndGlyphs" textLength="18" x="877" y="554.2231">11</text><text fill="#000000" font-family="sans-serif" font-size="13" lengthAdjust="spacingAndGlyphs" textLength="211" x="899" y="554.2231">calcMeanDelay(mapTotalDelays)</text><polygon fill="#A80036" points="848,614.4219,858,618.4219,848,622.4219,852,618.4219" style="stroke: #A80036; stroke-width: 1.0;"/><line style="stroke: #A80036; stroke-width: 1.0;" x1="585" x2="854" y1="618.4219" y2="618.4219"/><text fill="#000000" font-family="sans-serif" font-size="13" font-weight="bold" lengthAdjust="spacingAndGlyphs" textLength="18" x="592" y="613.356">12</text><text fill="#000000" font-family="sans-serif" font-size="13" lengthAdjust="spacingAndGlyphs" textLength="133" x="614" y="613.356">calcDeviationDelay()</text><polygon fill="#A80036" points="1318,643.5547,1328,647.5547,1318,651.5547,1322,647.5547" style="stroke: #A80036; stroke-width: 1.0;"/><line style="stroke: #A80036; stroke-width: 1.0;" x1="870" x2="1324" y1="647.5547" y2="647.5547"/><text fill="#000000" font-family="sans-serif" font-size="13" font-weight="bold" lengthAdjust="spacingAndGlyphs" textLength="17" x="877" y="642.4888">13</text><text fill="#000000" font-family="sans-serif" font-size="13" lengthAdjust="spacingAndGlyphs" textLength="349" x="898" y="642.4888">calcDeviationDelay(mapTotalDelays,mapMeanDelays)</text><polygon fill="#A80036" points="848,702.6875,858,706.6875,848,710.6875,852,706.6875" style="stroke: #A80036; stroke-width: 1.0;"/><line style="stroke: #A80036; stroke-width: 1.0;" x1="585" x2="854" y1="706.6875" y2="706.6875"/><text fill="#000000" font-family="sans-serif" font-size="13" font-weight="bold" lengthAdjust="spacingAndGlyphs" textLength="18" x="592" y="701.6216">14</text><text fill="#000000" font-family="sans-serif" font-size="13" lengthAdjust="spacingAndGlyphs" textLength="168" x="614" y="701.6216">determinatePayPlatform()</text><polygon fill="#A80036" points="1164,731.8203,1174,735.8203,1164,739.8203,1168,735.8203" style="stroke: #A80036; stroke-width: 1.0;"/><line style="stroke: #A80036; stroke-width: 1.0;" x1="870" x2="1170" y1="735.8203" y2="735.8203"/><text fill="#000000" font-family="sans-serif" font-size="13" font-weight="bold" lengthAdjust="spacingAndGlyphs" textLength="18" x="877" y="730.7544">15</text><text fill="#000000" font-family="sans-serif" font-size="13" lengthAdjust="spacingAndGlyphs" textLength="246" x="899" y="730.7544">determinatePayOrg(mapOrgPayment)</text><rect fill="#FFFFFF" filter="url(#f1lfu7cm1p3fs0)" height="40.2656" style="stroke: #000000; stroke-width: 2.0;" width="159" x="1120.5" y="743.8203"/><polygon fill="#EEEEEE" points="1120.5,743.8203,1188.5,743.8203,1188.5,750.8203,1178.5,760.8203,1120.5,760.8203,1120.5,743.8203" style="stroke: #000000; stroke-width: 2.0;"/><text fill="#000000" font-family="sans-serif" font-size="13" font-weight="bold" lengthAdjust="spacingAndGlyphs" textLength="23" x="1133.5" y="757.8872">ref</text><text fill="#000000" font-family="sans-serif" font-size="13" lengthAdjust="spacingAndGlyphs" textLength="151" x="1126.5" y="776.8872">SD_determinatePayOrg</text><polygon fill="#A80036" points="881,806.2188,871,810.2188,881,814.2188,877,810.2188" style="stroke: #A80036; stroke-width: 1.0;"/><line style="stroke: #A80036; stroke-width: 1.0; stroke-dasharray: 2.0,2.0;" x1="875" x2="1180" y1="810.2188" y2="810.2188"/><text fill="#000000" font-family="sans-serif" font-size="13" font-weight="bold" lengthAdjust="spacingAndGlyphs" textLength="18" x="887" y="805.1528">16</text><text fill="#000000" font-family="sans-serif" font-size="13" lengthAdjust="spacingAndGlyphs" textLength="110" x="909" y="805.1528">mapOrgPayment</text><polygon fill="#A80036" points="1318,835.3516,1328,839.3516,1318,843.3516,1322,839.3516" style="stroke: #A80036; stroke-width: 1.0;"/><line style="stroke: #A80036; stroke-width: 1.0;" x1="870" x2="1324" y1="839.3516" y2="839.3516"/><text fill="#000000" font-family="sans-serif" font-size="13" font-weight="bold" lengthAdjust="spacingAndGlyphs" textLength="18" x="877" y="834.2856">17</text><text fill="#000000" font-family="sans-serif" font-size="13" lengthAdjust="spacingAndGlyphs" textLength="168" x="899" y="834.2856">determinatePayPlatform()</text><rect fill="#FFFFFF" filter="url(#f1lfu7cm1p3fs0)" height="40.2656" style="stroke: #000000; stroke-width: 2.0;" width="191" x="1245.5" y="847.3516"/><polygon fill="#EEEEEE" points="1245.5,847.3516,1313.5,847.3516,1313.5,854.3516,1303.5,864.3516,1245.5,864.3516,1245.5,847.3516" style="stroke: #000000; stroke-width: 2.0;"/><text fill="#000000" font-family="sans-serif" font-size="13" font-weight="bold" lengthAdjust="spacingAndGlyphs" textLength="23" x="1258.5" y="861.4185">ref</text><text fill="#000000" font-family="sans-serif" font-size="13" lengthAdjust="spacingAndGlyphs" textLength="183" x="1251.5" y="880.4185">SD_determinatePayPlatform</text><polygon fill="#A80036" points="876,909.75,866,913.75,876,917.75,872,913.75" style="stroke: #A80036; stroke-width: 1.0;"/><line style="stroke: #A80036; stroke-width: 1.0; stroke-dasharray: 2.0,2.0;" x1="870" x2="1334" y1="913.75" y2="913.75"/><text fill="#000000" font-family="sans-serif" font-size="13" font-weight="bold" lengthAdjust="spacingAndGlyphs" textLength="18" x="882" y="908.6841">18</text><text fill="#000000" font-family="sans-serif" font-size="13" lengthAdjust="spacingAndGlyphs" textLength="126" x="904" y="908.6841">mapTotalPayments</text><polygon fill="#A80036" points="848,938.8828,858,942.8828,848,946.8828,852,942.8828" style="stroke: #A80036; stroke-width: 1.0;"/><line style="stroke: #A80036; stroke-width: 1.0;" x1="585" x2="854" y1="942.8828" y2="942.8828"/><text fill="#000000" font-family="sans-serif" font-size="13" font-weight="bold" lengthAdjust="spacingAndGlyphs" textLength="18" x="592" y="937.8169">19</text><text fill="#000000" font-family="sans-serif" font-size="13" lengthAdjust="spacingAndGlyphs" textLength="127" x="614" y="937.8169">calcMeanPayment()</text><polygon fill="#A80036" points="1318,968.0156,1328,972.0156,1318,976.0156,1322,972.0156" style="stroke: #A80036; stroke-width: 1.0;"/><line style="stroke: #A80036; stroke-width: 1.0;" x1="870" x2="1324" y1="972.0156" y2="972.0156"/><text fill="#000000" font-family="sans-serif" font-size="13" font-weight="bold" lengthAdjust="spacingAndGlyphs" textLength="19" x="877" y="966.9497">20</text><text fill="#000000" font-family="sans-serif" font-size="13" lengthAdjust="spacingAndGlyphs" textLength="253" x="900" y="966.9497">calcMeanPayment(mapTotalPayments)</text><polygon fill="#A80036" points="848,1027.1484,858,1031.1484,848,1035.1484,852,1031.1484" style="stroke: #A80036; stroke-width: 1.0;"/><line style="stroke: #A80036; stroke-width: 1.0;" x1="585" x2="854" y1="1031.1484" y2="1031.1484"/><text fill="#000000" font-family="sans-serif" font-size="13" font-weight="bold" lengthAdjust="spacingAndGlyphs" textLength="18" x="592" y="1026.0825">21</text><text fill="#000000" font-family="sans-serif" font-size="13" lengthAdjust="spacingAndGlyphs" textLength="154" x="614" y="1026.0825">calcDeviationPayment()</text><polygon fill="#A80036" points="1318,1056.2813,1328,1060.2813,1318,1064.2813,1322,1060.2813" style="stroke: #A80036; stroke-width: 1.0;"/><line style="stroke: #A80036; stroke-width: 1.0;" x1="870" x2="1324" y1="1060.2813" y2="1060.2813"/><text fill="#000000" font-family="sans-serif" font-size="13" font-weight="bold" lengthAdjust="spacingAndGlyphs" textLength="18" x="877" y="1055.2153">22</text><text fill="#000000" font-family="sans-serif" font-size="13" lengthAdjust="spacingAndGlyphs" textLength="412" x="899" y="1055.2153">calcDeviationPayment(mapTotalPayments,mapMeanPayments)</text><polygon fill="#A80036" points="848,1115.4141,858,1119.4141,848,1123.4141,852,1119.4141" style="stroke: #A80036; stroke-width: 1.0;"/><line style="stroke: #A80036; stroke-width: 1.0;" x1="585" x2="854" y1="1119.4141" y2="1119.4141"/><text fill="#000000" font-family="sans-serif" font-size="13" font-weight="bold" lengthAdjust="spacingAndGlyphs" textLength="17" x="592" y="1114.3481">23</text><text fill="#000000" font-family="sans-serif" font-size="13" lengthAdjust="spacingAndGlyphs" textLength="208" x="613" y="1114.3481">determinateNormalDistribution()</text><polygon fill="#A80036" points="1164,1144.5469,1174,1148.5469,1164,1152.5469,1168,1148.5469" style="stroke: #A80036; stroke-width: 1.0;"/><line style="stroke: #A80036; stroke-width: 1.0;" x1="870" x2="1170" y1="1148.5469" y2="1148.5469"/><text fill="#000000" font-family="sans-serif" font-size="13" font-weight="bold" lengthAdjust="spacingAndGlyphs" textLength="18" x="877" y="1143.481">24</text><text fill="#000000" font-family="sans-serif" font-size="13" lengthAdjust="spacingAndGlyphs" textLength="130" x="899" y="1143.481">calcCounterDelays()</text><polygon fill="#A80036" points="1318,1203.6797,1328,1207.6797,1318,1211.6797,1322,1207.6797" style="stroke: #A80036; stroke-width: 1.0;"/><line style="stroke: #A80036; stroke-width: 1.0;" x1="870" x2="1324" y1="1207.6797" y2="1207.6797"/><text fill="#000000" font-family="sans-serif" font-size="13" font-weight="bold" lengthAdjust="spacingAndGlyphs" textLength="18" x="877" y="1202.6138">25</text><text fill="#000000" font-family="sans-serif" font-size="13" lengthAdjust="spacingAndGlyphs" textLength="208" x="899" y="1202.6138">determinateNormalDistribution()</text><polygon fill="#A80036" points="77,1293.0781,67,1297.0781,77,1301.0781,73,1297.0781" style="stroke: #A80036; stroke-width: 1.0;"/><line style="stroke: #A80036; stroke-width: 1.0; stroke-dasharray: 2.0,2.0;" x1="71" x2="579" y1="1297.0781" y2="1297.0781"/><text fill="#000000" font-family="sans-serif" font-size="13" font-weight="bold" lengthAdjust="spacingAndGlyphs" textLength="18" x="83" y="1276.8794">26</text><text fill="#000000" font-family="sans-serif" font-size="13" lengthAdjust="spacingAndGlyphs" textLength="412" x="105" y="1261.7466">calculates and displays performance statistics for all freelancers</text><text fill="#000000" font-family="sans-serif" font-size="13" lengthAdjust="spacingAndGlyphs" textLength="275" x="105" y="1276.8794">(i.e. the average and standard deviation of</text><text fill="#000000" font-family="sans-serif" font-size="13" lengthAdjust="spacingAndGlyphs" textLength="463" x="105" y="1292.0122">delay and payment, along with histograms for each and all freelancers).</text><polygon fill="#A80036" points="563,1322.2109,573,1326.2109,563,1330.2109,567,1326.2109" style="stroke: #A80036; stroke-width: 1.0;"/><line style="stroke: #A80036; stroke-width: 1.0;" x1="66" x2="569" y1="1326.2109" y2="1326.2109"/><text fill="#000000" font-family="sans-serif" font-size="13" font-weight="bold" lengthAdjust="spacingAndGlyphs" textLength="18" x="73" y="1321.145">27</text><text fill="#000000" font-family="sans-serif" font-size="13" lengthAdjust="spacingAndGlyphs" textLength="56" x="95" y="1321.145">confirms</text><polygon fill="#A80036" points="72,1351.3438,62,1355.3438,72,1359.3438,68,1355.3438" style="stroke: #A80036; stroke-width: 1.0;"/><line style="stroke: #A80036; stroke-width: 1.0; stroke-dasharray: 2.0,2.0;" x1="66" x2="579" y1="1355.3438" y2="1355.3438"/><text fill="#000000" font-family="sans-serif" font-size="13" font-weight="bold" lengthAdjust="spacingAndGlyphs" textLength="18" x="78" y="1350.2778">28</text><text fill="#000000" font-family="sans-serif" font-size="13" lengthAdjust="spacingAndGlyphs" textLength="132" x="100" y="1350.2778">successful operation</text><!--MD5=[94729d2cb0ee8f3592b9425c0dddff0b]
@startuml
autonumber

actor "Administrator" as ADM
participant ":CheckPerformanceIndicatorsUI" as UI
participant ":CheckPerformanceIndicatorsController" as CTL
participant ":Platform" as PLT
participant ":Organization" as O
participant ":OrganizationsRecord" as RO

activate ADM
ADM -> UI : initiates the process of viewing freelancers performance statistics
activate UI

UI -> CTL : getOrganizations()
activate CTL
CTL -> PLT : getOrganizationsRecord()
activate PLT
deactivate PLT
CTL -> RO : getOrganizations()
activate RO
deactivate RO
deactivate CTL

UI -> CTL : determinateDelayPlatform()
activate CTL
CTL -> O : determinateDelayOrg(mapOrgDelay)
activate O
ref over O
SD_determinateDelayOrg
end ref
CTL <- - O : mapOrgDelay
deactivate O
CTL -> RO : determinateDelayPlatform()
activate RO
ref over RO
SD_determinateDelayPlatform
end ref
CTL <- - RO : mapTotalDelays
deactivate RO
deactivate CTL

UI -> CTL : calcMeanDelay()
activate CTL
CTL -> RO : calcMeanDelay(mapTotalDelays)
activate RO
deactivate RO
deactivate CTL

UI -> CTL : calcDeviationDelay()
activate CTL
CTL -> RO : calcDeviationDelay(mapTotalDelays,mapMeanDelays)
activate RO
deactivate RO
deactivate CTL


UI -> CTL : determinatePayPlatform()
activate CTL
CTL -> O : determinatePayOrg(mapOrgPayment)
activate O
ref over O
SD_determinatePayOrg
end ref
CTL <- - O : mapOrgPayment
deactivate O
CTL -> RO : determinatePayPlatform()
activate RO
ref over RO
SD_determinatePayPlatform
end ref
CTL <- - RO : mapTotalPayments
deactivate RO
deactivate CTL

UI -> CTL : calcMeanPayment()
activate CTL
CTL -> RO : calcMeanPayment(mapTotalPayments)
activate RO
deactivate RO
deactivate CTL

UI -> CTL : calcDeviationPayment()
activate CTL
CTL -> RO : calcDeviationPayment(mapTotalPayments,mapMeanPayments)
activate RO
deactivate RO
deactivate CTL


UI -> CTL : determinateNormalDistribution()
activate CTL
CTL -> O : calcCounterDelays()
activate O
deactivate O
CTL -> RO: determinateNormalDistribution()
activate RO
deactivate RO
deactivate CTL

UI - -> ADM : calculates and displays performance statistics for all freelancers \n(i.e. the average and standard deviation of \ndelay and payment, along with histograms for each and all freelancers).
deactivate UI
ADM -> UI : confirms
activate UI
UI - -> ADM : successful operation
deactivate UI
deactivate ADM
@enduml

PlantUML version 1.2020.12(Sat Jun 06 10:54:15 UTC 2020)
(GPL source distribution)
Java Runtime: Java(TM) SE Runtime Environment
JVM: Java HotSpot(TM) 64-Bit Server VM
Default Encoding: UTF-8
Language: en
Country: US
--></g></svg>