<?xml version="1.0" encoding="UTF-8" standalone="no"?><svg xmlns="http://www.w3.org/2000/svg" xmlns:xlink="http://www.w3.org/1999/xlink" contentScriptType="application/ecmascript" contentStyleType="text/css" height="1518px" preserveAspectRatio="none" style="width:1460px;height:1518px;" version="1.1" viewBox="0 0 1460 1518" width="1460px" zoomAndPan="magnify"><defs><filter height="300%" id="f167bm394t5vxu" width="300%" x="-1" y="-1"><feGaussianBlur result="blurOut" stdDeviation="2.0"/><feColorMatrix in="blurOut" result="blurOut2" type="matrix" values="0 0 0 0 0 0 0 0 0 0 0 0 0 0 0 0 0 0 .4 0"/><feOffset dx="4.0" dy="4.0" in="blurOut2" result="blurOut3"/><feBlend in="SourceGraphic" in2="blurOut3" mode="normal"/></filter></defs><g><rect fill="#FFFFFF" filter="url(#f167bm394t5vxu)" height="1317.3125" style="stroke: #A80036; stroke-width: 1.0;" width="10" x="56" y="96.2969"/><rect fill="#FFFFFF" filter="url(#f167bm394t5vxu)" height="1237.9141" style="stroke: #A80036; stroke-width: 1.0;" width="10" x="575" y="117.4297"/><rect fill="#FFFFFF" filter="url(#f167bm394t5vxu)" height="29.1328" style="stroke: #A80036; stroke-width: 1.0;" width="10" x="575" y="1384.4766"/><rect fill="#FFFFFF" filter="url(#f167bm394t5vxu)" height="118.2656" style="stroke: #A80036; stroke-width: 1.0;" width="10" x="860" y="146.5625"/><rect fill="#FFFFFF" filter="url(#f167bm394t5vxu)" height="103.5313" style="stroke: #A80036; stroke-width: 1.0;" width="10" x="860" y="293.9609"/><rect fill="#FFFFFF" filter="url(#f167bm394t5vxu)" height="103.5313" style="stroke: #A80036; stroke-width: 1.0;" width="10" x="860" y="426.625"/><rect fill="#FFFFFF" filter="url(#f167bm394t5vxu)" height="59.1328" style="stroke: #A80036; stroke-width: 1.0;" width="10" x="860" y="559.2891"/><rect fill="#FFFFFF" filter="url(#f167bm394t5vxu)" height="59.1328" style="stroke: #A80036; stroke-width: 1.0;" width="10" x="860" y="647.5547"/><rect fill="#FFFFFF" filter="url(#f167bm394t5vxu)" height="103.5313" style="stroke: #A80036; stroke-width: 1.0;" width="10" x="860" y="735.8203"/><rect fill="#FFFFFF" filter="url(#f167bm394t5vxu)" height="103.5313" style="stroke: #A80036; stroke-width: 1.0;" width="10" x="860" y="868.4844"/><rect fill="#FFFFFF" filter="url(#f167bm394t5vxu)" height="59.1328" style="stroke: #A80036; stroke-width: 1.0;" width="10" x="860" y="1001.1484"/><rect fill="#FFFFFF" filter="url(#f167bm394t5vxu)" height="59.1328" style="stroke: #A80036; stroke-width: 1.0;" width="10" x="860" y="1089.4141"/><rect fill="#FFFFFF" filter="url(#f167bm394t5vxu)" height="118.2656" style="stroke: #A80036; stroke-width: 1.0;" width="10" x="860" y="1177.6797"/><rect fill="#FFFFFF" filter="url(#f167bm394t5vxu)" height="30" style="stroke: #A80036; stroke-width: 1.0;" width="10" x="1065.5" y="175.6953"/><rect fill="#FFFFFF" filter="url(#f167bm394t5vxu)" height="74.3984" style="stroke: #A80036; stroke-width: 1.0;" width="10" x="1176" y="323.0938"/><rect fill="#FFFFFF" filter="url(#f167bm394t5vxu)" height="74.3984" style="stroke: #A80036; stroke-width: 1.0;" width="10" x="1176" y="764.9531"/><rect fill="#FFFFFF" filter="url(#f167bm394t5vxu)" height="30" style="stroke: #A80036; stroke-width: 1.0;" width="10" x="1176" y="1206.8125"/><rect fill="#FFFFFF" filter="url(#f167bm394t5vxu)" height="30" style="stroke: #A80036; stroke-width: 1.0;" width="10" x="1330" y="234.8281"/><rect fill="#FFFFFF" filter="url(#f167bm394t5vxu)" height="74.3984" style="stroke: #A80036; stroke-width: 1.0;" width="10" x="1330" y="455.7578"/><rect fill="#FFFFFF" filter="url(#f167bm394t5vxu)" height="30" style="stroke: #A80036; stroke-width: 1.0;" width="10" x="1330" y="588.4219"/><rect fill="#FFFFFF" filter="url(#f167bm394t5vxu)" height="30" style="stroke: #A80036; stroke-width: 1.0;" width="10" x="1330" y="676.6875"/><rect fill="#FFFFFF" filter="url(#f167bm394t5vxu)" height="74.3984" style="stroke: #A80036; stroke-width: 1.0;" width="10" x="1330" y="897.6172"/><rect fill="#FFFFFF" filter="url(#f167bm394t5vxu)" height="30" style="stroke: #A80036; stroke-width: 1.0;" width="10" x="1330" y="1030.2813"/><rect fill="#FFFFFF" filter="url(#f167bm394t5vxu)" height="30" style="stroke: #A80036; stroke-width: 1.0;" width="10" x="1330" y="1118.5469"/><rect fill="#FFFFFF" filter="url(#f167bm394t5vxu)" height="30" style="stroke: #A80036; stroke-width: 1.0;" width="10" x="1330" y="1265.9453"/><line style="stroke: #A80036; stroke-width: 1.0; stroke-dasharray: 5.0,5.0;" x1="61" x2="61" y1="86.2969" y2="1431.6094"/><line style="stroke: #A80036; stroke-width: 1.0; stroke-dasharray: 5.0,5.0;" x1="579.5" x2="579.5" y1="86.2969" y2="1431.6094"/><line style="stroke: #A80036; stroke-width: 1.0; stroke-dasharray: 5.0,5.0;" x1="864.5" x2="864.5" y1="86.2969" y2="1431.6094"/><line style="stroke: #A80036; stroke-width: 1.0; stroke-dasharray: 5.0,5.0;" x1="1070.5" x2="1070.5" y1="86.2969" y2="1431.6094"/><line style="stroke: #A80036; stroke-width: 1.0; stroke-dasharray: 5.0,5.0;" x1="1180.5" x2="1180.5" y1="86.2969" y2="1431.6094"/><line style="stroke: #A80036; stroke-width: 1.0; stroke-dasharray: 5.0,5.0;" x1="1334.5" x2="1334.5" y1="86.2969" y2="1431.6094"/><text fill="#000000" font-family="sans-serif" font-size="14" lengthAdjust="spacingAndGlyphs" textLength="100" x="8" y="82.9951">Administrator</text><ellipse cx="61" cy="13" fill="#FEFECE" filter="url(#f167bm394t5vxu)" rx="8" ry="8" style="stroke: #A80036; stroke-width: 2.0;"/><path d="M61,21 L61,48 M48,29 L74,29 M61,48 L48,63 M61,48 L74,63 " fill="none" filter="url(#f167bm394t5vxu)" style="stroke: #A80036; stroke-width: 2.0;"/><text fill="#000000" font-family="sans-serif" font-size="14" lengthAdjust="spacingAndGlyphs" textLength="100" x="8" y="1443.6045">Administrator</text><ellipse cx="61" cy="1456.9063" fill="#FEFECE" filter="url(#f167bm394t5vxu)" rx="8" ry="8" style="stroke: #A80036; stroke-width: 2.0;"/><path d="M61,1464.9063 L61,1491.9063 M48,1472.9063 L74,1472.9063 M61,1491.9063 L48,1506.9063 M61,1491.9063 L74,1506.9063 " fill="none" filter="url(#f167bm394t5vxu)" style="stroke: #A80036; stroke-width: 2.0;"/><rect fill="#FEFECE" filter="url(#f167bm394t5vxu)" height="30.2969" style="stroke: #A80036; stroke-width: 1.5;" width="241" x="457.5" y="51"/><text fill="#000000" font-family="sans-serif" font-size="14" lengthAdjust="spacingAndGlyphs" textLength="227" x="464.5" y="70.9951">:CheckPerformanceIndicatorsUI</text><rect fill="#FEFECE" filter="url(#f167bm394t5vxu)" height="30.2969" style="stroke: #A80036; stroke-width: 1.5;" width="241" x="457.5" y="1430.6094"/><text fill="#000000" font-family="sans-serif" font-size="14" lengthAdjust="spacingAndGlyphs" textLength="227" x="464.5" y="1450.6045">:CheckPerformanceIndicatorsUI</text><rect fill="#FEFECE" filter="url(#f167bm394t5vxu)" height="30.2969" style="stroke: #A80036; stroke-width: 1.5;" width="301" x="712.5" y="51"/><text fill="#000000" font-family="sans-serif" font-size="14" lengthAdjust="spacingAndGlyphs" textLength="287" x="719.5" y="70.9951">:CheckPerformanceIndicatorsController</text><rect fill="#FEFECE" filter="url(#f167bm394t5vxu)" height="30.2969" style="stroke: #A80036; stroke-width: 1.5;" width="301" x="712.5" y="1430.6094"/><text fill="#000000" font-family="sans-serif" font-size="14" lengthAdjust="spacingAndGlyphs" textLength="287" x="719.5" y="1450.6045">:CheckPerformanceIndicatorsController</text><rect fill="#FEFECE" filter="url(#f167bm394t5vxu)" height="30.2969" style="stroke: #A80036; stroke-width: 1.5;" width="82" x="1027.5" y="51"/><text fill="#000000" font-family="sans-serif" font-size="14" lengthAdjust="spacingAndGlyphs" textLength="68" x="1034.5" y="70.9951">:Platform</text><rect fill="#FEFECE" filter="url(#f167bm394t5vxu)" height="30.2969" style="stroke: #A80036; stroke-width: 1.5;" width="82" x="1027.5" y="1430.6094"/><text fill="#000000" font-family="sans-serif" font-size="14" lengthAdjust="spacingAndGlyphs" textLength="68" x="1034.5" y="1450.6045">:Platform</text><rect fill="#FEFECE" filter="url(#f167bm394t5vxu)" height="30.2969" style="stroke: #A80036; stroke-width: 1.5;" width="111" x="1123.5" y="51"/><text fill="#000000" font-family="sans-serif" font-size="14" lengthAdjust="spacingAndGlyphs" textLength="97" x="1130.5" y="70.9951">:Organization</text><rect fill="#FEFECE" filter="url(#f167bm394t5vxu)" height="30.2969" style="stroke: #A80036; stroke-width: 1.5;" width="111" x="1123.5" y="1430.6094"/><text fill="#000000" font-family="sans-serif" font-size="14" lengthAdjust="spacingAndGlyphs" textLength="97" x="1130.5" y="1450.6045">:Organization</text><rect fill="#FEFECE" filter="url(#f167bm394t5vxu)" height="30.2969" style="stroke: #A80036; stroke-width: 1.5;" width="169" x="1248.5" y="51"/><text fill="#000000" font-family="sans-serif" font-size="14" lengthAdjust="spacingAndGlyphs" textLength="155" x="1255.5" y="70.9951">:OrganizationsRecord</text><rect fill="#FEFECE" filter="url(#f167bm394t5vxu)" height="30.2969" style="stroke: #A80036; stroke-width: 1.5;" width="169" x="1248.5" y="1430.6094"/><text fill="#000000" font-family="sans-serif" font-size="14" lengthAdjust="spacingAndGlyphs" textLength="155" x="1255.5" y="1450.6045">:OrganizationsRecord</text><rect fill="#FFFFFF" filter="url(#f167bm394t5vxu)" height="1317.3125" style="stroke: #A80036; stroke-width: 1.0;" width="10" x="56" y="96.2969"/><rect fill="#FFFFFF" filter="url(#f167bm394t5vxu)" height="1237.9141" style="stroke: #A80036; stroke-width: 1.0;" width="10" x="575" y="117.4297"/><rect fill="#FFFFFF" filter="url(#f167bm394t5vxu)" height="29.1328" style="stroke: #A80036; stroke-width: 1.0;" width="10" x="575" y="1384.4766"/><rect fill="#FFFFFF" filter="url(#f167bm394t5vxu)" height="118.2656" style="stroke: #A80036; stroke-width: 1.0;" width="10" x="860" y="146.5625"/><rect fill="#FFFFFF" filter="url(#f167bm394t5vxu)" height="103.5313" style="stroke: #A80036; stroke-width: 1.0;" width="10" x="860" y="293.9609"/><rect fill="#FFFFFF" filter="url(#f167bm394t5vxu)" height="103.5313" style="stroke: #A80036; stroke-width: 1.0;" width="10" x="860" y="426.625"/><rect fill="#FFFFFF" filter="url(#f167bm394t5vxu)" height="59.1328" style="stroke: #A80036; stroke-width: 1.0;" width="10" x="860" y="559.2891"/><rect fill="#FFFFFF" filter="url(#f167bm394t5vxu)" height="59.1328" style="stroke: #A80036; stroke-width: 1.0;" width="10" x="860" y="647.5547"/><rect fill="#FFFFFF" filter="url(#f167bm394t5vxu)" height="103.5313" style="stroke: #A80036; stroke-width: 1.0;" width="10" x="860" y="735.8203"/><rect fill="#FFFFFF" filter="url(#f167bm394t5vxu)" height="103.5313" style="stroke: #A80036; stroke-width: 1.0;" width="10" x="860" y="868.4844"/><rect fill="#FFFFFF" filter="url(#f167bm394t5vxu)" height="59.1328" style="stroke: #A80036; stroke-width: 1.0;" width="10" x="860" y="1001.1484"/><rect fill="#FFFFFF" filter="url(#f167bm394t5vxu)" height="59.1328" style="stroke: #A80036; stroke-width: 1.0;" width="10" x="860" y="1089.4141"/><rect fill="#FFFFFF" filter="url(#f167bm394t5vxu)" height="118.2656" style="stroke: #A80036; stroke-width: 1.0;" width="10" x="860" y="1177.6797"/><rect fill="#FFFFFF" filter="url(#f167bm394t5vxu)" height="30" style="stroke: #A80036; stroke-width: 1.0;" width="10" x="1065.5" y="175.6953"/><rect fill="#FFFFFF" filter="url(#f167bm394t5vxu)" height="74.3984" style="stroke: #A80036; stroke-width: 1.0;" width="10" x="1176" y="323.0938"/><rect fill="#FFFFFF" filter="url(#f167bm394t5vxu)" height="74.3984" style="stroke: #A80036; stroke-width: 1.0;" width="10" x="1176" y="764.9531"/><rect fill="#FFFFFF" filter="url(#f167bm394t5vxu)" height="30" style="stroke: #A80036; stroke-width: 1.0;" width="10" x="1176" y="1206.8125"/><rect fill="#FFFFFF" filter="url(#f167bm394t5vxu)" height="30" style="stroke: #A80036; stroke-width: 1.0;" width="10" x="1330" y="234.8281"/><rect fill="#FFFFFF" filter="url(#f167bm394t5vxu)" height="74.3984" style="stroke: #A80036; stroke-width: 1.0;" width="10" x="1330" y="455.7578"/><rect fill="#FFFFFF" filter="url(#f167bm394t5vxu)" height="30" style="stroke: #A80036; stroke-width: 1.0;" width="10" x="1330" y="588.4219"/><rect fill="#FFFFFF" filter="url(#f167bm394t5vxu)" height="30" style="stroke: #A80036; stroke-width: 1.0;" width="10" x="1330" y="676.6875"/><rect fill="#FFFFFF" filter="url(#f167bm394t5vxu)" height="74.3984" style="stroke: #A80036; stroke-width: 1.0;" width="10" x="1330" y="897.6172"/><rect fill="#FFFFFF" filter="url(#f167bm394t5vxu)" height="30" style="stroke: #A80036; stroke-width: 1.0;" width="10" x="1330" y="1030.2813"/><rect fill="#FFFFFF" filter="url(#f167bm394t5vxu)" height="30" style="stroke: #A80036; stroke-width: 1.0;" width="10" x="1330" y="1118.5469"/><rect fill="#FFFFFF" filter="url(#f167bm394t5vxu)" height="30" style="stroke: #A80036; stroke-width: 1.0;" width="10" x="1330" y="1265.9453"/><polygon fill="#A80036" points="563,113.4297,573,117.4297,563,121.4297,567,117.4297" style="stroke: #A80036; stroke-width: 1.0;"/><line style="stroke: #A80036; stroke-width: 1.0;" x1="66" x2="569" y1="117.4297" y2="117.4297"/><text fill="#000000" font-family="sans-serif" font-size="13" font-weight="bold" lengthAdjust="spacingAndGlyphs" textLength="9" x="73" y="112.3638">1</text><text fill="#000000" font-family="sans-serif" font-size="13" lengthAdjust="spacingAndGlyphs" textLength="423" x="86" y="112.3638">initiates the process of viewing freelancers performance statistics</text><polygon fill="#A80036" points="848,142.5625,858,146.5625,848,150.5625,852,146.5625" style="stroke: #A80036; stroke-width: 1.0;"/><line style="stroke: #A80036; stroke-width: 1.0;" x1="585" x2="854" y1="146.5625" y2="146.5625"/><text fill="#000000" font-family="sans-serif" font-size="13" font-weight="bold" lengthAdjust="spacingAndGlyphs" textLength="9" x="592" y="141.4966">2</text><text fill="#000000" font-family="sans-serif" font-size="13" lengthAdjust="spacingAndGlyphs" textLength="119" x="605" y="141.4966">getOrganizations()</text><polygon fill="#A80036" points="1053.5,171.6953,1063.5,175.6953,1053.5,179.6953,1057.5,175.6953" style="stroke: #A80036; stroke-width: 1.0;"/><line style="stroke: #A80036; stroke-width: 1.0;" x1="870" x2="1059.5" y1="175.6953" y2="175.6953"/><text fill="#000000" font-family="sans-serif" font-size="13" font-weight="bold" lengthAdjust="spacingAndGlyphs" textLength="8" x="877" y="170.6294">3</text><text fill="#000000" font-family="sans-serif" font-size="13" lengthAdjust="spacingAndGlyphs" textLength="164" x="889" y="170.6294">getOrganizationsRecord()</text><polygon fill="#A80036" points="1318,230.8281,1328,234.8281,1318,238.8281,1322,234.8281" style="stroke: #A80036; stroke-width: 1.0;"/><line style="stroke: #A80036; stroke-width: 1.0;" x1="870" x2="1324" y1="234.8281" y2="234.8281"/><text fill="#000000" font-family="sans-serif" font-size="13" font-weight="bold" lengthAdjust="spacingAndGlyphs" textLength="9" x="877" y="229.7622">4</text><text fill="#000000" font-family="sans-serif" font-size="13" lengthAdjust="spacingAndGlyphs" textLength="119" x="890" y="229.7622">getOrganizations()</text><polygon fill="#A80036" points="848,289.9609,858,293.9609,848,297.9609,852,293.9609" style="stroke: #A80036; stroke-width: 1.0;"/><line style="stroke: #A80036; stroke-width: 1.0;" x1="585" x2="854" y1="293.9609" y2="293.9609"/><text fill="#000000" font-family="sans-serif" font-size="13" font-weight="bold" lengthAdjust="spacingAndGlyphs" textLength="9" x="592" y="288.895">5</text><text fill="#000000" font-family="sans-serif" font-size="13" lengthAdjust="spacingAndGlyphs" textLength="136" x="605" y="288.895">determinatePayOrg()</text><polygon fill="#A80036" points="1164,319.0938,1174,323.0938,1164,327.0938,1168,323.0938" style="stroke: #A80036; stroke-width: 1.0;"/><line style="stroke: #A80036; stroke-width: 1.0;" x1="870" x2="1170" y1="323.0938" y2="323.0938"/><text fill="#000000" font-family="sans-serif" font-size="13" font-weight="bold" lengthAdjust="spacingAndGlyphs" textLength="9" x="877" y="318.0278">6</text><text fill="#000000" font-family="sans-serif" font-size="13" lengthAdjust="spacingAndGlyphs" textLength="246" x="890" y="318.0278">determinatePayOrg(mapOrgPayment)</text><rect fill="#FFFFFF" filter="url(#f167bm394t5vxu)" height="40.2656" style="stroke: #000000; stroke-width: 2.0;" width="159" x="1120.5" y="331.0938"/><polygon fill="#EEEEEE" points="1120.5,331.0938,1188.5,331.0938,1188.5,338.0938,1178.5,348.0938,1120.5,348.0938,1120.5,331.0938" style="stroke: #000000; stroke-width: 2.0;"/><text fill="#000000" font-family="sans-serif" font-size="13" font-weight="bold" lengthAdjust="spacingAndGlyphs" textLength="23" x="1133.5" y="345.1606">ref</text><text fill="#000000" font-family="sans-serif" font-size="13" lengthAdjust="spacingAndGlyphs" textLength="151" x="1126.5" y="364.1606">SD_determinatePayOrg</text><polygon fill="#A80036" points="876,393.4922,866,397.4922,876,401.4922,872,397.4922" style="stroke: #A80036; stroke-width: 1.0;"/><line style="stroke: #A80036; stroke-width: 1.0; stroke-dasharray: 2.0,2.0;" x1="870" x2="1180" y1="397.4922" y2="397.4922"/><text fill="#000000" font-family="sans-serif" font-size="13" font-weight="bold" lengthAdjust="spacingAndGlyphs" textLength="9" x="882" y="392.4263">7</text><text fill="#000000" font-family="sans-serif" font-size="13" lengthAdjust="spacingAndGlyphs" textLength="110" x="895" y="392.4263">mapOrgPayment</text><polygon fill="#A80036" points="848,422.625,858,426.625,848,430.625,852,426.625" style="stroke: #A80036; stroke-width: 1.0;"/><line style="stroke: #A80036; stroke-width: 1.0;" x1="585" x2="854" y1="426.625" y2="426.625"/><text fill="#000000" font-family="sans-serif" font-size="13" font-weight="bold" lengthAdjust="spacingAndGlyphs" textLength="9" x="592" y="421.5591">8</text><text fill="#000000" font-family="sans-serif" font-size="13" lengthAdjust="spacingAndGlyphs" textLength="168" x="605" y="421.5591">determinatePayPlatform()</text><polygon fill="#A80036" points="1318,451.7578,1328,455.7578,1318,459.7578,1322,455.7578" style="stroke: #A80036; stroke-width: 1.0;"/><line style="stroke: #A80036; stroke-width: 1.0;" x1="870" x2="1324" y1="455.7578" y2="455.7578"/><text fill="#000000" font-family="sans-serif" font-size="13" font-weight="bold" lengthAdjust="spacingAndGlyphs" textLength="9" x="877" y="450.6919">9</text><text fill="#000000" font-family="sans-serif" font-size="13" lengthAdjust="spacingAndGlyphs" textLength="168" x="890" y="450.6919">determinatePayPlatform()</text><rect fill="#FFFFFF" filter="url(#f167bm394t5vxu)" height="40.2656" style="stroke: #000000; stroke-width: 2.0;" width="191" x="1245.5" y="463.7578"/><polygon fill="#EEEEEE" points="1245.5,463.7578,1313.5,463.7578,1313.5,470.7578,1303.5,480.7578,1245.5,480.7578,1245.5,463.7578" style="stroke: #000000; stroke-width: 2.0;"/><text fill="#000000" font-family="sans-serif" font-size="13" font-weight="bold" lengthAdjust="spacingAndGlyphs" textLength="23" x="1258.5" y="477.8247">ref</text><text fill="#000000" font-family="sans-serif" font-size="13" lengthAdjust="spacingAndGlyphs" textLength="183" x="1251.5" y="496.8247">SD_determinatePayPlatform</text><polygon fill="#A80036" points="876,526.1563,866,530.1563,876,534.1563,872,530.1563" style="stroke: #A80036; stroke-width: 1.0;"/><line style="stroke: #A80036; stroke-width: 1.0; stroke-dasharray: 2.0,2.0;" x1="870" x2="1334" y1="530.1563" y2="530.1563"/><text fill="#000000" font-family="sans-serif" font-size="13" font-weight="bold" lengthAdjust="spacingAndGlyphs" textLength="19" x="882" y="525.0903">10</text><text fill="#000000" font-family="sans-serif" font-size="13" lengthAdjust="spacingAndGlyphs" textLength="126" x="905" y="525.0903">mapTotalPayments</text><polygon fill="#A80036" points="848,555.2891,858,559.2891,848,563.2891,852,559.2891" style="stroke: #A80036; stroke-width: 1.0;"/><line style="stroke: #A80036; stroke-width: 1.0;" x1="585" x2="854" y1="559.2891" y2="559.2891"/><text fill="#000000" font-family="sans-serif" font-size="13" font-weight="bold" lengthAdjust="spacingAndGlyphs" textLength="18" x="592" y="554.2231">11</text><text fill="#000000" font-family="sans-serif" font-size="13" lengthAdjust="spacingAndGlyphs" textLength="127" x="614" y="554.2231">calcMeanPayment()</text><polygon fill="#A80036" points="1318,584.4219,1328,588.4219,1318,592.4219,1322,588.4219" style="stroke: #A80036; stroke-width: 1.0;"/><line style="stroke: #A80036; stroke-width: 1.0;" x1="870" x2="1324" y1="588.4219" y2="588.4219"/><text fill="#000000" font-family="sans-serif" font-size="13" font-weight="bold" lengthAdjust="spacingAndGlyphs" textLength="18" x="877" y="583.356">12</text><text fill="#000000" font-family="sans-serif" font-size="13" lengthAdjust="spacingAndGlyphs" textLength="253" x="899" y="583.356">calcMeanPayment(mapTotalPayments)</text><polygon fill="#A80036" points="848,643.5547,858,647.5547,848,651.5547,852,647.5547" style="stroke: #A80036; stroke-width: 1.0;"/><line style="stroke: #A80036; stroke-width: 1.0;" x1="585" x2="854" y1="647.5547" y2="647.5547"/><text fill="#000000" font-family="sans-serif" font-size="13" font-weight="bold" lengthAdjust="spacingAndGlyphs" textLength="17" x="592" y="642.4888">13</text><text fill="#000000" font-family="sans-serif" font-size="13" lengthAdjust="spacingAndGlyphs" textLength="154" x="613" y="642.4888">calcDeviationPayment()</text><polygon fill="#A80036" points="1318,672.6875,1328,676.6875,1318,680.6875,1322,676.6875" style="stroke: #A80036; stroke-width: 1.0;"/><line style="stroke: #A80036; stroke-width: 1.0;" x1="870" x2="1324" y1="676.6875" y2="676.6875"/><text fill="#000000" font-family="sans-serif" font-size="13" font-weight="bold" lengthAdjust="spacingAndGlyphs" textLength="18" x="877" y="671.6216">14</text><text fill="#000000" font-family="sans-serif" font-size="13" lengthAdjust="spacingAndGlyphs" textLength="412" x="899" y="671.6216">calcDeviationPayment(mapTotalPayments,mapMeanPayments)</text><polygon fill="#A80036" points="848,731.8203,858,735.8203,848,739.8203,852,735.8203" style="stroke: #A80036; stroke-width: 1.0;"/><line style="stroke: #A80036; stroke-width: 1.0;" x1="585" x2="854" y1="735.8203" y2="735.8203"/><text fill="#000000" font-family="sans-serif" font-size="13" font-weight="bold" lengthAdjust="spacingAndGlyphs" textLength="18" x="592" y="730.7544">15</text><text fill="#000000" font-family="sans-serif" font-size="13" lengthAdjust="spacingAndGlyphs" textLength="149" x="614" y="730.7544">determinateDelayOrg()</text><polygon fill="#A80036" points="1164,760.9531,1174,764.9531,1164,768.9531,1168,764.9531" style="stroke: #A80036; stroke-width: 1.0;"/><line style="stroke: #A80036; stroke-width: 1.0;" x1="870" x2="1170" y1="764.9531" y2="764.9531"/><text fill="#000000" font-family="sans-serif" font-size="13" font-weight="bold" lengthAdjust="spacingAndGlyphs" textLength="18" x="877" y="759.8872">16</text><text fill="#000000" font-family="sans-serif" font-size="13" lengthAdjust="spacingAndGlyphs" textLength="238" x="899" y="759.8872">determinateDelayOrg(mapOrgDelay)</text><rect fill="#FFFFFF" filter="url(#f167bm394t5vxu)" height="40.2656" style="stroke: #000000; stroke-width: 2.0;" width="172" x="1120.5" y="772.9531"/><polygon fill="#EEEEEE" points="1120.5,772.9531,1188.5,772.9531,1188.5,779.9531,1178.5,789.9531,1120.5,789.9531,1120.5,772.9531" style="stroke: #000000; stroke-width: 2.0;"/><text fill="#000000" font-family="sans-serif" font-size="13" font-weight="bold" lengthAdjust="spacingAndGlyphs" textLength="23" x="1133.5" y="787.02">ref</text><text fill="#000000" font-family="sans-serif" font-size="13" lengthAdjust="spacingAndGlyphs" textLength="164" x="1126.5" y="806.02">SD_determinateDelayOrg</text><polygon fill="#A80036" points="876,835.3516,866,839.3516,876,843.3516,872,839.3516" style="stroke: #A80036; stroke-width: 1.0;"/><line style="stroke: #A80036; stroke-width: 1.0; stroke-dasharray: 2.0,2.0;" x1="870" x2="1180" y1="839.3516" y2="839.3516"/><text fill="#000000" font-family="sans-serif" font-size="13" font-weight="bold" lengthAdjust="spacingAndGlyphs" textLength="18" x="882" y="834.2856">17</text><text fill="#000000" font-family="sans-serif" font-size="13" lengthAdjust="spacingAndGlyphs" textLength="89" x="904" y="834.2856">mapOrgDelay</text><polygon fill="#A80036" points="848,864.4844,858,868.4844,848,872.4844,852,868.4844" style="stroke: #A80036; stroke-width: 1.0;"/><line style="stroke: #A80036; stroke-width: 1.0;" x1="585" x2="854" y1="868.4844" y2="868.4844"/><text fill="#000000" font-family="sans-serif" font-size="13" font-weight="bold" lengthAdjust="spacingAndGlyphs" textLength="18" x="592" y="863.4185">18</text><text fill="#000000" font-family="sans-serif" font-size="13" lengthAdjust="spacingAndGlyphs" textLength="181" x="614" y="863.4185">determinateDelayPlatform()</text><polygon fill="#A80036" points="1318,893.6172,1328,897.6172,1318,901.6172,1322,897.6172" style="stroke: #A80036; stroke-width: 1.0;"/><line style="stroke: #A80036; stroke-width: 1.0;" x1="870" x2="1324" y1="897.6172" y2="897.6172"/><text fill="#000000" font-family="sans-serif" font-size="13" font-weight="bold" lengthAdjust="spacingAndGlyphs" textLength="18" x="877" y="892.5513">19</text><text fill="#000000" font-family="sans-serif" font-size="13" lengthAdjust="spacingAndGlyphs" textLength="181" x="899" y="892.5513">determinateDelayPlatform()</text><rect fill="#FFFFFF" filter="url(#f167bm394t5vxu)" height="40.2656" style="stroke: #000000; stroke-width: 2.0;" width="204" x="1245.5" y="905.6172"/><polygon fill="#EEEEEE" points="1245.5,905.6172,1313.5,905.6172,1313.5,912.6172,1303.5,922.6172,1245.5,922.6172,1245.5,905.6172" style="stroke: #000000; stroke-width: 2.0;"/><text fill="#000000" font-family="sans-serif" font-size="13" font-weight="bold" lengthAdjust="spacingAndGlyphs" textLength="23" x="1258.5" y="919.6841">ref</text><text fill="#000000" font-family="sans-serif" font-size="13" lengthAdjust="spacingAndGlyphs" textLength="196" x="1251.5" y="938.6841">SD_determinateDelayPlatform</text><polygon fill="#A80036" points="876,968.0156,866,972.0156,876,976.0156,872,972.0156" style="stroke: #A80036; stroke-width: 1.0;"/><line style="stroke: #A80036; stroke-width: 1.0; stroke-dasharray: 2.0,2.0;" x1="870" x2="1334" y1="972.0156" y2="972.0156"/><text fill="#000000" font-family="sans-serif" font-size="13" font-weight="bold" lengthAdjust="spacingAndGlyphs" textLength="19" x="882" y="966.9497">20</text><text fill="#000000" font-family="sans-serif" font-size="13" lengthAdjust="spacingAndGlyphs" textLength="105" x="905" y="966.9497">mapTotalDelays</text><polygon fill="#A80036" points="848,997.1484,858,1001.1484,848,1005.1484,852,1001.1484" style="stroke: #A80036; stroke-width: 1.0;"/><line style="stroke: #A80036; stroke-width: 1.0;" x1="585" x2="854" y1="1001.1484" y2="1001.1484"/><text fill="#000000" font-family="sans-serif" font-size="13" font-weight="bold" lengthAdjust="spacingAndGlyphs" textLength="18" x="592" y="996.0825">21</text><text fill="#000000" font-family="sans-serif" font-size="13" lengthAdjust="spacingAndGlyphs" textLength="106" x="614" y="996.0825">calcMeanDelay()</text><polygon fill="#A80036" points="1318,1026.2813,1328,1030.2813,1318,1034.2813,1322,1030.2813" style="stroke: #A80036; stroke-width: 1.0;"/><line style="stroke: #A80036; stroke-width: 1.0;" x1="870" x2="1324" y1="1030.2813" y2="1030.2813"/><text fill="#000000" font-family="sans-serif" font-size="13" font-weight="bold" lengthAdjust="spacingAndGlyphs" textLength="18" x="877" y="1025.2153">22</text><text fill="#000000" font-family="sans-serif" font-size="13" lengthAdjust="spacingAndGlyphs" textLength="211" x="899" y="1025.2153">calcMeanDelay(mapTotalDelays)</text><polygon fill="#A80036" points="848,1085.4141,858,1089.4141,848,1093.4141,852,1089.4141" style="stroke: #A80036; stroke-width: 1.0;"/><line style="stroke: #A80036; stroke-width: 1.0;" x1="585" x2="854" y1="1089.4141" y2="1089.4141"/><text fill="#000000" font-family="sans-serif" font-size="13" font-weight="bold" lengthAdjust="spacingAndGlyphs" textLength="17" x="592" y="1084.3481">23</text><text fill="#000000" font-family="sans-serif" font-size="13" lengthAdjust="spacingAndGlyphs" textLength="133" x="613" y="1084.3481">calcDeviationDelay()</text><polygon fill="#A80036" points="1318,1114.5469,1328,1118.5469,1318,1122.5469,1322,1118.5469" style="stroke: #A80036; stroke-width: 1.0;"/><line style="stroke: #A80036; stroke-width: 1.0;" x1="870" x2="1324" y1="1118.5469" y2="1118.5469"/><text fill="#000000" font-family="sans-serif" font-size="13" font-weight="bold" lengthAdjust="spacingAndGlyphs" textLength="18" x="877" y="1113.481">24</text><text fill="#000000" font-family="sans-serif" font-size="13" lengthAdjust="spacingAndGlyphs" textLength="349" x="899" y="1113.481">calcDeviationDelay(mapTotalDelays,mapMeanDelays)</text><polygon fill="#A80036" points="848,1173.6797,858,1177.6797,848,1181.6797,852,1177.6797" style="stroke: #A80036; stroke-width: 1.0;"/><line style="stroke: #A80036; stroke-width: 1.0;" x1="585" x2="854" y1="1177.6797" y2="1177.6797"/><text fill="#000000" font-family="sans-serif" font-size="13" font-weight="bold" lengthAdjust="spacingAndGlyphs" textLength="18" x="592" y="1172.6138">25</text><text fill="#000000" font-family="sans-serif" font-size="13" lengthAdjust="spacingAndGlyphs" textLength="208" x="614" y="1172.6138">determinateNormalDistribution()</text><polygon fill="#A80036" points="1164,1202.8125,1174,1206.8125,1164,1210.8125,1168,1206.8125" style="stroke: #A80036; stroke-width: 1.0;"/><line style="stroke: #A80036; stroke-width: 1.0;" x1="870" x2="1170" y1="1206.8125" y2="1206.8125"/><text fill="#000000" font-family="sans-serif" font-size="13" font-weight="bold" lengthAdjust="spacingAndGlyphs" textLength="18" x="877" y="1201.7466">26</text><text fill="#000000" font-family="sans-serif" font-size="13" lengthAdjust="spacingAndGlyphs" textLength="130" x="899" y="1201.7466">calcCounterDelays()</text><polygon fill="#A80036" points="1318,1261.9453,1328,1265.9453,1318,1269.9453,1322,1265.9453" style="stroke: #A80036; stroke-width: 1.0;"/><line style="stroke: #A80036; stroke-width: 1.0;" x1="870" x2="1324" y1="1265.9453" y2="1265.9453"/><text fill="#000000" font-family="sans-serif" font-size="13" font-weight="bold" lengthAdjust="spacingAndGlyphs" textLength="18" x="877" y="1260.8794">27</text><text fill="#000000" font-family="sans-serif" font-size="13" lengthAdjust="spacingAndGlyphs" textLength="208" x="899" y="1260.8794">determinateNormalDistribution()</text><polygon fill="#A80036" points="77,1351.3438,67,1355.3438,77,1359.3438,73,1355.3438" style="stroke: #A80036; stroke-width: 1.0;"/><line style="stroke: #A80036; stroke-width: 1.0; stroke-dasharray: 2.0,2.0;" x1="71" x2="579" y1="1355.3438" y2="1355.3438"/><text fill="#000000" font-family="sans-serif" font-size="13" font-weight="bold" lengthAdjust="spacingAndGlyphs" textLength="18" x="83" y="1335.145">28</text><text fill="#000000" font-family="sans-serif" font-size="13" lengthAdjust="spacingAndGlyphs" textLength="412" x="105" y="1320.0122">calculates and displays performance statistics for all freelancers</text><text fill="#000000" font-family="sans-serif" font-size="13" lengthAdjust="spacingAndGlyphs" textLength="275" x="105" y="1335.145">(i.e. the average and standard deviation of</text><text fill="#000000" font-family="sans-serif" font-size="13" lengthAdjust="spacingAndGlyphs" textLength="463" x="105" y="1350.2778">delay and payment, along with histograms for each and all freelancers).</text><polygon fill="#A80036" points="563,1380.4766,573,1384.4766,563,1388.4766,567,1384.4766" style="stroke: #A80036; stroke-width: 1.0;"/><line style="stroke: #A80036; stroke-width: 1.0;" x1="66" x2="569" y1="1384.4766" y2="1384.4766"/><text fill="#000000" font-family="sans-serif" font-size="13" font-weight="bold" lengthAdjust="spacingAndGlyphs" textLength="18" x="73" y="1379.4106">29</text><text fill="#000000" font-family="sans-serif" font-size="13" lengthAdjust="spacingAndGlyphs" textLength="56" x="95" y="1379.4106">confirms</text><polygon fill="#A80036" points="72,1409.6094,62,1413.6094,72,1417.6094,68,1413.6094" style="stroke: #A80036; stroke-width: 1.0;"/><line style="stroke: #A80036; stroke-width: 1.0; stroke-dasharray: 2.0,2.0;" x1="66" x2="579" y1="1413.6094" y2="1413.6094"/><text fill="#000000" font-family="sans-serif" font-size="13" font-weight="bold" lengthAdjust="spacingAndGlyphs" textLength="18" x="78" y="1408.5435">30</text><text fill="#000000" font-family="sans-serif" font-size="13" lengthAdjust="spacingAndGlyphs" textLength="132" x="100" y="1408.5435">successful operation</text><!--MD5=[7c29b12b5e865849172393afb7854db4]
@startuml
autonumber

actor "Administrator" as ADM
participant ":CheckPerformanceIndicatorsUI" as UI
participant ":CheckPerformanceIndicatorsController" as CTL
participant ":Platform" as PLT
participant ":Organization" as O
participant ":OrganizationsRecord" as RO

activate ADM
ADM -> UI : initiates the process of viewing freelancers performance statistics
activate UI

UI -> CTL : getOrganizations()
activate CTL
CTL -> PLT : getOrganizationsRecord()
activate PLT
deactivate PLT
CTL -> RO : getOrganizations()
activate RO
deactivate RO
deactivate CTL

UI -> CTL : determinatePayOrg()
activate CTL

CTL -> O : determinatePayOrg(mapOrgPayment)
activate O
ref over O
SD_determinatePayOrg
end ref
CTL <- - O : mapOrgPayment
deactivate O
deactivate CTL

UI -> CTL : determinatePayPlatform()
activate CTL
CTL -> RO : determinatePayPlatform()
activate RO
ref over RO
SD_determinatePayPlatform
end ref
CTL <- - RO : mapTotalPayments
deactivate RO
deactivate CTL

UI -> CTL : calcMeanPayment()
activate CTL
CTL -> RO : calcMeanPayment(mapTotalPayments)
activate RO
deactivate RO
deactivate CTL

UI -> CTL : calcDeviationPayment()
activate CTL
CTL -> RO : calcDeviationPayment(mapTotalPayments,mapMeanPayments)
activate RO
deactivate RO
deactivate CTL

UI -> CTL : determinateDelayOrg()
activate CTL
CTL -> O : determinateDelayOrg(mapOrgDelay)
activate O
ref over O
SD_determinateDelayOrg
end ref
CTL <- - O : mapOrgDelay
deactivate O
deactivate CTL

UI -> CTL : determinateDelayPlatform()
activate CTL
CTL -> RO : determinateDelayPlatform()
activate RO
ref over RO
SD_determinateDelayPlatform
end ref
CTL <- - RO : mapTotalDelays
deactivate RO
deactivate CTL

UI -> CTL : calcMeanDelay()
activate CTL
CTL -> RO : calcMeanDelay(mapTotalDelays)
activate RO
deactivate RO
deactivate CTL

UI -> CTL : calcDeviationDelay()
activate CTL
CTL -> RO : calcDeviationDelay(mapTotalDelays,mapMeanDelays)
activate RO
deactivate RO
deactivate CTL

UI -> CTL : determinateNormalDistribution()
activate CTL
CTL -> O : calcCounterDelays()
activate O
deactivate O
CTL -> RO: determinateNormalDistribution()
activate RO
deactivate RO
deactivate CTL

UI - -> ADM : calculates and displays performance statistics for all freelancers \n(i.e. the average and standard deviation of \ndelay and payment, along with histograms for each and all freelancers).
deactivate UI
ADM -> UI : confirms
activate UI
UI - -> ADM : successful operation
deactivate UI
deactivate ADM
@enduml

PlantUML version 1.2020.12(Sat Jun 06 10:54:15 UTC 2020)
(GPL source distribution)
Java Runtime: Java(TM) SE Runtime Environment
JVM: Java HotSpot(TM) 64-Bit Server VM
Default Encoding: UTF-8
Language: en
Country: US
--></g></svg>