<?xml version="1.0" encoding="UTF-8" standalone="no"?><svg xmlns="http://www.w3.org/2000/svg" xmlns:xlink="http://www.w3.org/1999/xlink" contentScriptType="application/ecmascript" contentStyleType="text/css" height="334px" preserveAspectRatio="none" style="width:1079px;height:334px;" version="1.1" viewBox="0 0 1079 334" width="1079px" zoomAndPan="magnify"><defs><filter height="300%" id="fd6pgxlrka27g" width="300%" x="-1" y="-1"><feGaussianBlur result="blurOut" stdDeviation="2.0"/><feColorMatrix in="blurOut" result="blurOut2" type="matrix" values="0 0 0 0 0 0 0 0 0 0 0 0 0 0 0 0 0 0 .4 0"/><feOffset dx="4.0" dy="4.0" in="blurOut2" result="blurOut3"/><feBlend in="SourceGraphic" in2="blurOut3" mode="normal"/></filter></defs><g><!--MD5=[99b8db98afdc2c8404e39242ef4c1e65]
class Platform--><rect fill="#FEFECE" filter="url(#fd6pgxlrka27g)" height="52.8047" id="Platform" style="stroke: #A80036; stroke-width: 1.5;" width="119" x="6" y="263"/><ellipse cx="38.55" cy="279" fill="#ADD1B2" rx="11" ry="11" style="stroke: #A80036; stroke-width: 1.0;"/><path d="M40.8938,274.6719 C39.9563,274.2344 39.3625,274.0938 38.4875,274.0938 C35.8625,274.0938 33.8625,276.1719 33.8625,278.8906 L33.8625,280.0156 C33.8625,282.5938 35.9719,284.4844 38.8625,284.4844 C40.0813,284.4844 41.2375,284.1875 41.9875,283.6406 C42.5656,283.2344 42.8938,282.7813 42.8938,282.3906 C42.8938,281.9375 42.5031,281.5469 42.0344,281.5469 C41.8156,281.5469 41.6125,281.625 41.425,281.8125 C40.9719,282.2969 40.9719,282.2969 40.7844,282.3906 C40.3625,282.6563 39.675,282.7813 38.9094,282.7813 C36.8625,282.7813 35.5656,281.6875 35.5656,279.9844 L35.5656,278.8906 C35.5656,277.1094 36.8156,275.7969 38.55,275.7969 C39.1281,275.7969 39.7375,275.9531 40.2063,276.2031 C40.6906,276.4844 40.8625,276.7031 40.9563,277.1094 C41.0188,277.5156 41.05,277.6406 41.1906,277.7656 C41.3313,277.9063 41.5656,278.0156 41.7844,278.0156 C42.05,278.0156 42.3156,277.875 42.4875,277.6563 C42.5969,277.5 42.6281,277.3125 42.6281,276.8906 L42.6281,275.4688 C42.6281,275.0313 42.6125,274.9063 42.5188,274.75 C42.3625,274.4844 42.0813,274.3438 41.7844,274.3438 C41.4875,274.3438 41.2844,274.4375 41.0656,274.75 L40.8938,274.6719 Z "/><text fill="#000000" font-family="sans-serif" font-size="12" lengthAdjust="spacingAndGlyphs" textLength="48" x="56.45" y="283.1543">Platform</text><line style="stroke: #A80036; stroke-width: 1.5;" x1="7" x2="124" y1="295" y2="295"/><text fill="#000000" font-family="sans-serif" font-size="11" lengthAdjust="spacingAndGlyphs" textLength="107" x="12" y="309.2104">-String designation</text><!--MD5=[1f687b5315377fe49fca59b457947463]
class Freelancer--><rect fill="#FEFECE" filter="url(#fd6pgxlrka27g)" height="142.4375" id="Freelancer" style="stroke: #A80036; stroke-width: 1.5;" width="140" x="906.5" y="153.5"/><ellipse cx="940.85" cy="169.5" fill="#ADD1B2" rx="11" ry="11" style="stroke: #A80036; stroke-width: 1.0;"/><path d="M943.1938,165.1719 C942.2563,164.7344 941.6625,164.5938 940.7875,164.5938 C938.1625,164.5938 936.1625,166.6719 936.1625,169.3906 L936.1625,170.5156 C936.1625,173.0938 938.2719,174.9844 941.1625,174.9844 C942.3813,174.9844 943.5375,174.6875 944.2875,174.1406 C944.8656,173.7344 945.1938,173.2813 945.1938,172.8906 C945.1938,172.4375 944.8031,172.0469 944.3344,172.0469 C944.1156,172.0469 943.9125,172.125 943.725,172.3125 C943.2719,172.7969 943.2719,172.7969 943.0844,172.8906 C942.6625,173.1563 941.975,173.2813 941.2094,173.2813 C939.1625,173.2813 937.8656,172.1875 937.8656,170.4844 L937.8656,169.3906 C937.8656,167.6094 939.1156,166.2969 940.85,166.2969 C941.4281,166.2969 942.0375,166.4531 942.5063,166.7031 C942.9906,166.9844 943.1625,167.2031 943.2563,167.6094 C943.3188,168.0156 943.35,168.1406 943.4906,168.2656 C943.6313,168.4063 943.8656,168.5156 944.0844,168.5156 C944.35,168.5156 944.6156,168.375 944.7875,168.1563 C944.8969,168 944.9281,167.8125 944.9281,167.3906 L944.9281,165.9688 C944.9281,165.5313 944.9125,165.4063 944.8188,165.25 C944.6625,164.9844 944.3813,164.8438 944.0844,164.8438 C943.7875,164.8438 943.5844,164.9375 943.3656,165.25 L943.1938,165.1719 Z "/><text fill="#000000" font-family="sans-serif" font-size="12" lengthAdjust="spacingAndGlyphs" textLength="65" x="959.15" y="173.6543">Freelancer</text><line style="stroke: #A80036; stroke-width: 1.5;" x1="907.5" x2="1045.5" y1="185.5" y2="185.5"/><text fill="#000000" font-family="sans-serif" font-size="11" lengthAdjust="spacingAndGlyphs" textLength="51" x="912.5" y="199.7104">-String id</text><text fill="#000000" font-family="sans-serif" font-size="11" lengthAdjust="spacingAndGlyphs" textLength="74" x="912.5" y="212.5151">-String name</text><text fill="#000000" font-family="sans-serif" font-size="11" lengthAdjust="spacingAndGlyphs" textLength="128" x="912.5" y="225.3198">-String expertiseLevel</text><text fill="#000000" font-family="sans-serif" font-size="11" lengthAdjust="spacingAndGlyphs" textLength="73" x="912.5" y="238.1245">-String email</text><text fill="#000000" font-family="sans-serif" font-size="11" lengthAdjust="spacingAndGlyphs" textLength="58" x="912.5" y="250.9292">-String NIF</text><text fill="#000000" font-family="sans-serif" font-size="11" lengthAdjust="spacingAndGlyphs" textLength="68" x="912.5" y="263.7339">-String IBAN</text><text fill="#000000" font-family="sans-serif" font-size="11" lengthAdjust="spacingAndGlyphs" textLength="86" x="912.5" y="276.5386">-String address</text><text fill="#000000" font-family="sans-serif" font-size="11" lengthAdjust="spacingAndGlyphs" textLength="83" x="912.5" y="289.3433">-String country</text><!--MD5=[86c7c362de55a38b660185a1328fe18d]
class Organization--><rect fill="#FEFECE" filter="url(#fd6pgxlrka27g)" height="65.6094" id="Organization" style="stroke: #A80036; stroke-width: 1.5;" width="108" x="313.5" y="205.5"/><ellipse cx="328.5" cy="221.5" fill="#ADD1B2" rx="11" ry="11" style="stroke: #A80036; stroke-width: 1.0;"/><path d="M330.8438,217.1719 C329.9063,216.7344 329.3125,216.5938 328.4375,216.5938 C325.8125,216.5938 323.8125,218.6719 323.8125,221.3906 L323.8125,222.5156 C323.8125,225.0938 325.9219,226.9844 328.8125,226.9844 C330.0313,226.9844 331.1875,226.6875 331.9375,226.1406 C332.5156,225.7344 332.8438,225.2813 332.8438,224.8906 C332.8438,224.4375 332.4531,224.0469 331.9844,224.0469 C331.7656,224.0469 331.5625,224.125 331.375,224.3125 C330.9219,224.7969 330.9219,224.7969 330.7344,224.8906 C330.3125,225.1563 329.625,225.2813 328.8594,225.2813 C326.8125,225.2813 325.5156,224.1875 325.5156,222.4844 L325.5156,221.3906 C325.5156,219.6094 326.7656,218.2969 328.5,218.2969 C329.0781,218.2969 329.6875,218.4531 330.1563,218.7031 C330.6406,218.9844 330.8125,219.2031 330.9063,219.6094 C330.9688,220.0156 331,220.1406 331.1406,220.2656 C331.2813,220.4063 331.5156,220.5156 331.7344,220.5156 C332,220.5156 332.2656,220.375 332.4375,220.1563 C332.5469,220 332.5781,219.8125 332.5781,219.3906 L332.5781,217.9688 C332.5781,217.5313 332.5625,217.4063 332.4688,217.25 C332.3125,216.9844 332.0313,216.8438 331.7344,216.8438 C331.4375,216.8438 331.2344,216.9375 331.0156,217.25 L330.8438,217.1719 Z "/><text fill="#000000" font-family="sans-serif" font-size="12" lengthAdjust="spacingAndGlyphs" textLength="76" x="342.5" y="225.6543">Organization</text><line style="stroke: #A80036; stroke-width: 1.5;" x1="314.5" x2="420.5" y1="237.5" y2="237.5"/><text fill="#000000" font-family="sans-serif" font-size="11" lengthAdjust="spacingAndGlyphs" textLength="74" x="319.5" y="251.7104">-String name</text><text fill="#000000" font-family="sans-serif" font-size="11" lengthAdjust="spacingAndGlyphs" textLength="58" x="319.5" y="264.5151">-String NIF</text><!--MD5=[b34797a66dc35cbf1d65f7e3ca75530e]
class Task--><rect fill="#FEFECE" filter="url(#fd6pgxlrka27g)" height="104.0234" id="Task" style="stroke: #A80036; stroke-width: 1.5;" width="143" x="579" y="172.5"/><ellipse cx="632.25" cy="188.5" fill="#ADD1B2" rx="11" ry="11" style="stroke: #A80036; stroke-width: 1.0;"/><path d="M634.5938,184.1719 C633.6563,183.7344 633.0625,183.5938 632.1875,183.5938 C629.5625,183.5938 627.5625,185.6719 627.5625,188.3906 L627.5625,189.5156 C627.5625,192.0938 629.6719,193.9844 632.5625,193.9844 C633.7813,193.9844 634.9375,193.6875 635.6875,193.1406 C636.2656,192.7344 636.5938,192.2813 636.5938,191.8906 C636.5938,191.4375 636.2031,191.0469 635.7344,191.0469 C635.5156,191.0469 635.3125,191.125 635.125,191.3125 C634.6719,191.7969 634.6719,191.7969 634.4844,191.8906 C634.0625,192.1563 633.375,192.2813 632.6094,192.2813 C630.5625,192.2813 629.2656,191.1875 629.2656,189.4844 L629.2656,188.3906 C629.2656,186.6094 630.5156,185.2969 632.25,185.2969 C632.8281,185.2969 633.4375,185.4531 633.9063,185.7031 C634.3906,185.9844 634.5625,186.2031 634.6563,186.6094 C634.7188,187.0156 634.75,187.1406 634.8906,187.2656 C635.0313,187.4063 635.2656,187.5156 635.4844,187.5156 C635.75,187.5156 636.0156,187.375 636.1875,187.1563 C636.2969,187 636.3281,186.8125 636.3281,186.3906 L636.3281,184.9688 C636.3281,184.5313 636.3125,184.4063 636.2188,184.25 C636.0625,183.9844 635.7813,183.8438 635.4844,183.8438 C635.1875,183.8438 634.9844,183.9375 634.7656,184.25 L634.5938,184.1719 Z "/><text fill="#000000" font-family="sans-serif" font-size="12" lengthAdjust="spacingAndGlyphs" textLength="28" x="652.75" y="192.6543">Task</text><line style="stroke: #A80036; stroke-width: 1.5;" x1="580" x2="721" y1="204.5" y2="204.5"/><text fill="#000000" font-family="sans-serif" font-size="11" lengthAdjust="spacingAndGlyphs" textLength="51" x="585" y="218.7104">-String id</text><text fill="#000000" font-family="sans-serif" font-size="11" lengthAdjust="spacingAndGlyphs" textLength="131" x="585" y="231.5151">-String briefDescription</text><text fill="#000000" font-family="sans-serif" font-size="11" lengthAdjust="spacingAndGlyphs" textLength="123" x="585" y="244.3198">-Integer timeDuration</text><text fill="#000000" font-family="sans-serif" font-size="11" lengthAdjust="spacingAndGlyphs" textLength="116" x="585" y="257.1245">-Double costPerHour</text><text fill="#000000" font-family="sans-serif" font-size="11" lengthAdjust="spacingAndGlyphs" textLength="116" x="585" y="269.9292">-String taskCategory</text><!--MD5=[5ce80547de3caced9d0089e35ded5090]
class TaskExecution--><rect fill="#FEFECE" filter="url(#fd6pgxlrka27g)" height="78.4141" id="TaskExecution" style="stroke: #A80036; stroke-width: 1.5;" width="183" x="885" y="8.5"/><ellipse cx="929.25" cy="24.5" fill="#ADD1B2" rx="11" ry="11" style="stroke: #A80036; stroke-width: 1.0;"/><path d="M931.5938,20.1719 C930.6563,19.7344 930.0625,19.5938 929.1875,19.5938 C926.5625,19.5938 924.5625,21.6719 924.5625,24.3906 L924.5625,25.5156 C924.5625,28.0938 926.6719,29.9844 929.5625,29.9844 C930.7813,29.9844 931.9375,29.6875 932.6875,29.1406 C933.2656,28.7344 933.5938,28.2813 933.5938,27.8906 C933.5938,27.4375 933.2031,27.0469 932.7344,27.0469 C932.5156,27.0469 932.3125,27.125 932.125,27.3125 C931.6719,27.7969 931.6719,27.7969 931.4844,27.8906 C931.0625,28.1563 930.375,28.2813 929.6094,28.2813 C927.5625,28.2813 926.2656,27.1875 926.2656,25.4844 L926.2656,24.3906 C926.2656,22.6094 927.5156,21.2969 929.25,21.2969 C929.8281,21.2969 930.4375,21.4531 930.9063,21.7031 C931.3906,21.9844 931.5625,22.2031 931.6563,22.6094 C931.7188,23.0156 931.75,23.1406 931.8906,23.2656 C932.0313,23.4063 932.2656,23.5156 932.4844,23.5156 C932.75,23.5156 933.0156,23.375 933.1875,23.1563 C933.2969,23 933.3281,22.8125 933.3281,22.3906 L933.3281,20.9688 C933.3281,20.5313 933.3125,20.4063 933.2188,20.25 C933.0625,19.9844 932.7813,19.8438 932.4844,19.8438 C932.1875,19.8438 931.9844,19.9375 931.7656,20.25 L931.5938,20.1719 Z "/><text fill="#000000" font-family="sans-serif" font-size="12" lengthAdjust="spacingAndGlyphs" textLength="86" x="949.75" y="28.6543">TaskExecution</text><line style="stroke: #A80036; stroke-width: 1.5;" x1="886" x2="1067" y1="40.5" y2="40.5"/><text fill="#000000" font-family="sans-serif" font-size="11" lengthAdjust="spacingAndGlyphs" textLength="86" x="891" y="54.7104">-Date endDate</text><text fill="#000000" font-family="sans-serif" font-size="11" lengthAdjust="spacingAndGlyphs" textLength="81" x="891" y="67.5151">-Double delay</text><text fill="#000000" font-family="sans-serif" font-size="11" lengthAdjust="spacingAndGlyphs" textLength="171" x="891" y="80.3198">-String workQualityDescription</text><!--MD5=[b645a18afb25b7e5623af7186d8eb36f]
class PaymentTransaction--><rect fill="#FEFECE" filter="url(#fd6pgxlrka27g)" height="40" id="PaymentTransaction" style="stroke: #A80036; stroke-width: 1.5;" width="151" x="292" y="82.5"/><ellipse cx="307" cy="98.5" fill="#ADD1B2" rx="11" ry="11" style="stroke: #A80036; stroke-width: 1.0;"/><path d="M309.3438,94.1719 C308.4063,93.7344 307.8125,93.5938 306.9375,93.5938 C304.3125,93.5938 302.3125,95.6719 302.3125,98.3906 L302.3125,99.5156 C302.3125,102.0938 304.4219,103.9844 307.3125,103.9844 C308.5313,103.9844 309.6875,103.6875 310.4375,103.1406 C311.0156,102.7344 311.3438,102.2813 311.3438,101.8906 C311.3438,101.4375 310.9531,101.0469 310.4844,101.0469 C310.2656,101.0469 310.0625,101.125 309.875,101.3125 C309.4219,101.7969 309.4219,101.7969 309.2344,101.8906 C308.8125,102.1563 308.125,102.2813 307.3594,102.2813 C305.3125,102.2813 304.0156,101.1875 304.0156,99.4844 L304.0156,98.3906 C304.0156,96.6094 305.2656,95.2969 307,95.2969 C307.5781,95.2969 308.1875,95.4531 308.6563,95.7031 C309.1406,95.9844 309.3125,96.2031 309.4063,96.6094 C309.4688,97.0156 309.5,97.1406 309.6406,97.2656 C309.7813,97.4063 310.0156,97.5156 310.2344,97.5156 C310.5,97.5156 310.7656,97.375 310.9375,97.1563 C311.0469,97 311.0781,96.8125 311.0781,96.3906 L311.0781,94.9688 C311.0781,94.5313 311.0625,94.4063 310.9688,94.25 C310.8125,93.9844 310.5313,93.8438 310.2344,93.8438 C309.9375,93.8438 309.7344,93.9375 309.5156,94.25 L309.3438,94.1719 Z "/><text fill="#000000" font-family="sans-serif" font-size="12" lengthAdjust="spacingAndGlyphs" textLength="119" x="321" y="102.6543">PaymentTransaction</text><line style="stroke: #A80036; stroke-width: 1.5;" x1="293" x2="442" y1="114.5" y2="114.5"/><!--MD5=[22697d4d863c2e08ab1d60ca0d61f844]
link Platform to Freelancer--><path d="M125.159,295.2764 C240.241,305.4156 503.448,322.7124 722,293.5 C785.632,284.9947 855.923,264.9842 906.316,248.6908 " fill="none" id="Platform-Freelancer" style="stroke: #A80036; stroke-width: 1.0;"/><text fill="#000000" font-family="sans-serif" font-size="13" lengthAdjust="spacingAndGlyphs" textLength="57" x="476" y="303.5669">has/uses</text><polygon fill="#000000" points="536,297.5664,542,300.5664,536,303.5664,536,297.5664" style="stroke: #000000; stroke-width: 1.0;"/><text fill="#000000" font-family="sans-serif" font-size="13" lengthAdjust="spacingAndGlyphs" textLength="8" x="132.9174" y="308.9814">1</text><text fill="#000000" font-family="sans-serif" font-size="13" lengthAdjust="spacingAndGlyphs" textLength="7" x="891.7173" y="264.0101">*</text><!--MD5=[f6802b286771c18a16ea4be983074371]
link PaymentTransaction to Freelancer--><path d="M443.174,100.13 C560.473,97.367 782.056,96.296 855,124.5 C873.13,131.51 890.532,142.405 906.199,154.468 " fill="none" id="PaymentTransaction-Freelancer" style="stroke: #A80036; stroke-width: 1.0;"/><text fill="#000000" font-family="sans-serif" font-size="13" lengthAdjust="spacingAndGlyphs" textLength="62" x="613" y="95.5669">related to</text><polygon fill="#000000" points="678,89.5664,684,92.5664,678,95.5664,678,89.5664" style="stroke: #000000; stroke-width: 1.0;"/><text fill="#000000" font-family="sans-serif" font-size="13" lengthAdjust="spacingAndGlyphs" textLength="8" x="451.0169" y="112.7084">1</text><text fill="#000000" font-family="sans-serif" font-size="13" lengthAdjust="spacingAndGlyphs" textLength="8" x="890.5367" y="160.0706">1</text><!--MD5=[271ce7fefd7250ebaca83b70495774bd]
link PaymentTransaction to Task--><path d="M414.587,122.509 C459.195,141.877 527.436,171.504 578.894,193.845 " fill="none" id="PaymentTransaction-Task" style="stroke: #A80036; stroke-width: 1.0;"/><text fill="#000000" font-family="sans-serif" font-size="13" lengthAdjust="spacingAndGlyphs" textLength="61" x="474" y="145.5669">relates to</text><polygon fill="#000000" points="538,139.5664,544,142.5664,538,145.5664,538,139.5664" style="stroke: #000000; stroke-width: 1.0;"/><text fill="#000000" font-family="sans-serif" font-size="13" lengthAdjust="spacingAndGlyphs" textLength="8" x="419.2438" y="142.6762">1</text><text fill="#000000" font-family="sans-serif" font-size="13" lengthAdjust="spacingAndGlyphs" textLength="8" x="563.0971" y="203.5297">1</text><!--MD5=[ccf9e4a23b86a8fcbc3774eff83a0cb7]
link PaymentTransaction to TaskExecution--><path d="M441.801,82.441 C452.213,80.125 462.834,78.044 473,76.5 C615.766,54.814 783.6,49.041 884.652,47.673 " fill="none" id="PaymentTransaction-TaskExecution" style="stroke: #A80036; stroke-width: 1.0;"/><text fill="#000000" font-family="sans-serif" font-size="13" lengthAdjust="spacingAndGlyphs" textLength="62" x="613" y="49.5669">related to</text><polygon fill="#000000" points="678,43.5664,684,46.5664,678,49.5664,678,43.5664" style="stroke: #000000; stroke-width: 1.0;"/><text fill="#000000" font-family="sans-serif" font-size="13" lengthAdjust="spacingAndGlyphs" textLength="8" x="450.9369" y="72.8066">1</text><text fill="#000000" font-family="sans-serif" font-size="13" lengthAdjust="spacingAndGlyphs" textLength="8" x="869.0141" y="60.3401">1</text><!--MD5=[bdc7b78a1b1f03a53fec8289ba75cac4]
link Task to TaskExecution--><path d="M722.203,185.875 C776.107,156.428 850.035,116.041 904.109,86.501 " fill="none" id="Task-TaskExecution" style="stroke: #A80036; stroke-width: 1.0;"/><text fill="#000000" font-family="sans-serif" font-size="13" lengthAdjust="spacingAndGlyphs" textLength="23" x="785.5" y="111.5669">has</text><polygon fill="#000000" points="811.5,105.5664,817.5,108.5664,811.5,111.5664,811.5,105.5664" style="stroke: #000000; stroke-width: 1.0;"/><text fill="#000000" font-family="sans-serif" font-size="13" lengthAdjust="spacingAndGlyphs" textLength="8" x="730.0099" y="194.7378">1</text><text fill="#000000" font-family="sans-serif" font-size="13" lengthAdjust="spacingAndGlyphs" textLength="8" x="882.0244" y="107.1156">1</text><!--MD5=[8853e9d83a8841c20c4ef075af762602]
link Task to Freelancer--><path d="M722.203,224.5 C776.852,224.5 852.082,224.5 906.339,224.5 " fill="none" id="Task-Freelancer" style="stroke: #A80036; stroke-width: 1.0;"/><text fill="#000000" font-family="sans-serif" font-size="13" lengthAdjust="spacingAndGlyphs" textLength="88" x="753" y="220.5669">is assigned to</text><polygon fill="#000000" points="844,214.5664,850,217.5664,844,220.5664,844,214.5664" style="stroke: #000000; stroke-width: 1.0;"/><text fill="#000000" font-family="sans-serif" font-size="13" lengthAdjust="spacingAndGlyphs" textLength="23" x="729.8733" y="237.2633">1..*</text><text fill="#000000" font-family="sans-serif" font-size="13" lengthAdjust="spacingAndGlyphs" textLength="8" x="890.6911" y="237.3246">1</text><!--MD5=[4078351e3988aa35b1504a42837f2ab1]
link Organization to Task--><path d="M421.684,235.8502 C466.156,233.6346 529.964,230.4555 578.744,228.0252 " fill="none" id="Organization-Task" style="stroke: #A80036; stroke-width: 1.0;"/><text fill="#000000" font-family="sans-serif" font-size="13" lengthAdjust="spacingAndGlyphs" textLength="23" x="493" y="226.5669">has</text><polygon fill="#000000" points="519,220.5664,525,223.5664,519,226.5664,519,220.5664" style="stroke: #000000; stroke-width: 1.0;"/><text fill="#000000" font-family="sans-serif" font-size="13" lengthAdjust="spacingAndGlyphs" textLength="8" x="429.5025" y="248.604">1</text><text fill="#000000" font-family="sans-serif" font-size="13" lengthAdjust="spacingAndGlyphs" textLength="7" x="563.9832" y="241.2347">*</text><!--MD5=[7640e466c042ba2d6f9c19c816f7f0fc]
link Platform to Organization--><path d="M125.055,279.5456 C179.621,270.2694 260.294,256.555 313.125,247.5737 " fill="none" id="Platform-Organization" style="stroke: #A80036; stroke-width: 1.0;"/><text fill="#000000" font-family="sans-serif" font-size="13" lengthAdjust="spacingAndGlyphs" textLength="92" x="156" y="252.5669">has registered</text><polygon fill="#000000" points="251,246.5664,257,249.5664,251,252.5664,251,246.5664" style="stroke: #000000; stroke-width: 1.0;"/><text fill="#000000" font-family="sans-serif" font-size="13" lengthAdjust="spacingAndGlyphs" textLength="8" x="133.198" y="291.319">1</text><text fill="#000000" font-family="sans-serif" font-size="13" lengthAdjust="spacingAndGlyphs" textLength="7" x="298.348" y="261.9029">*</text><!--MD5=[f75a9b8ea83d27276a73d9a1531d7f6d]
@startuml
skinparam classAttributeIconSize 0
hide methods
left to right direction

class Platform {
  -String designation
}


class Freelancer {
  -String id
  -String name
  -String expertiseLevel
  -String email
  -String NIF
  -String IBAN
  -String address
  -String country
  }
  
class Organization {
  -String name
  -String NIF
}

class Task {
 -String id
 -String briefDescription
 -Integer timeDuration
 -Double costPerHour
 -String taskCategory
}

class TaskExecution {
 -Date endDate
 -Double delay
 -String workQualityDescription
}

class PaymentTransaction{
}


Platform "1" - - "*" Freelancer : has/uses >
PaymentTransaction "1" - - "1" Freelancer: related to >
PaymentTransaction "1" - - "1" Task: relates to >
PaymentTransaction "1" - - "1" TaskExecution: related to >
Task "1" - - "1" TaskExecution: has >
Task "1..*" - - "1" Freelancer: is assigned to >
Organization "1" - - "*" Task: has >
Platform "1" - - "*" Organization : has registered >
@enduml

PlantUML version 1.2020.11(Sat May 30 10:13:43 UTC 2020)
(GPL source distribution)
Java Runtime: Java(TM) SE Runtime Environment
JVM: Java HotSpot(TM) 64-Bit Server VM
Default Encoding: UTF-8
Language: en
Country: US
--></g></svg>