<?xml version="1.0" encoding="UTF-8" standalone="no"?><svg xmlns="http://www.w3.org/2000/svg" xmlns:xlink="http://www.w3.org/1999/xlink" contentScriptType="application/ecmascript" contentStyleType="text/css" height="1255px" preserveAspectRatio="none" style="width:1642px;height:1255px;" version="1.1" viewBox="0 0 1642 1255" width="1642px" zoomAndPan="magnify"><defs><filter height="300%" id="fnmur8s5fgwx0" width="300%" x="-1" y="-1"><feGaussianBlur result="blurOut" stdDeviation="2.0"/><feColorMatrix in="blurOut" result="blurOut2" type="matrix" values="0 0 0 0 0 0 0 0 0 0 0 0 0 0 0 0 0 0 .4 0"/><feOffset dx="4.0" dy="4.0" in="blurOut2" result="blurOut3"/><feBlend in="SourceGraphic" in2="blurOut3" mode="normal"/></filter></defs><g><rect fill="#FFFFFF" filter="url(#fnmur8s5fgwx0)" height="1054.25" style="stroke: #A80036; stroke-width: 1.0;" width="10" x="56" y="96.2969"/><rect fill="#FFFFFF" filter="url(#fnmur8s5fgwx0)" height="974.8516" style="stroke: #A80036; stroke-width: 1.0;" width="10" x="576" y="117.4297"/><rect fill="#FFFFFF" filter="url(#fnmur8s5fgwx0)" height="29.1328" style="stroke: #A80036; stroke-width: 1.0;" width="10" x="576" y="1121.4141"/><rect fill="#FFFFFF" filter="url(#fnmur8s5fgwx0)" height="118.2656" style="stroke: #A80036; stroke-width: 1.0;" width="10" x="861" y="146.5625"/><rect fill="#FFFFFF" filter="url(#fnmur8s5fgwx0)" height="650.6563" style="stroke: #A80036; stroke-width: 1.0;" width="10" x="861" y="293.9609"/><rect fill="#FFFFFF" filter="url(#fnmur8s5fgwx0)" height="59.1328" style="stroke: #A80036; stroke-width: 1.0;" width="10" x="861" y="973.75"/><rect fill="#FFFFFF" filter="url(#fnmur8s5fgwx0)" height="30" style="stroke: #A80036; stroke-width: 1.0;" width="10" x="1066.5" y="175.6953"/><rect fill="#FFFFFF" filter="url(#fnmur8s5fgwx0)" height="74.3984" style="stroke: #A80036; stroke-width: 1.0;" width="10" x="1177" y="323.0938"/><rect fill="#FFFFFF" filter="url(#fnmur8s5fgwx0)" height="74.3984" style="stroke: #A80036; stroke-width: 1.0;" width="10" x="1177" y="648.4219"/><rect fill="#FFFFFF" filter="url(#fnmur8s5fgwx0)" height="30" style="stroke: #A80036; stroke-width: 1.0;" width="10" x="1330" y="1002.8828"/><rect fill="#FFFFFF" filter="url(#fnmur8s5fgwx0)" height="30" style="stroke: #A80036; stroke-width: 1.0;" width="10" x="1512" y="234.8281"/><rect fill="#FFFFFF" filter="url(#fnmur8s5fgwx0)" height="74.3984" style="stroke: #A80036; stroke-width: 1.0;" width="10" x="1512" y="426.625"/><rect fill="#FFFFFF" filter="url(#fnmur8s5fgwx0)" height="30" style="stroke: #A80036; stroke-width: 1.0;" width="10" x="1512" y="530.1563"/><rect fill="#FFFFFF" filter="url(#fnmur8s5fgwx0)" height="30" style="stroke: #A80036; stroke-width: 1.0;" width="10" x="1512" y="589.2891"/><rect fill="#FFFFFF" filter="url(#fnmur8s5fgwx0)" height="74.3984" style="stroke: #A80036; stroke-width: 1.0;" width="10" x="1512" y="751.9531"/><rect fill="#FFFFFF" filter="url(#fnmur8s5fgwx0)" height="30" style="stroke: #A80036; stroke-width: 1.0;" width="10" x="1512" y="855.4844"/><rect fill="#FFFFFF" filter="url(#fnmur8s5fgwx0)" height="30" style="stroke: #A80036; stroke-width: 1.0;" width="10" x="1512" y="914.6172"/><line style="stroke: #A80036; stroke-width: 1.0; stroke-dasharray: 5.0,5.0;" x1="61" x2="61" y1="86.2969" y2="1168.5469"/><line style="stroke: #A80036; stroke-width: 1.0; stroke-dasharray: 5.0,5.0;" x1="580.5" x2="580.5" y1="86.2969" y2="1168.5469"/><line style="stroke: #A80036; stroke-width: 1.0; stroke-dasharray: 5.0,5.0;" x1="865.5" x2="865.5" y1="86.2969" y2="1168.5469"/><line style="stroke: #A80036; stroke-width: 1.0; stroke-dasharray: 5.0,5.0;" x1="1071.5" x2="1071.5" y1="86.2969" y2="1168.5469"/><line style="stroke: #A80036; stroke-width: 1.0; stroke-dasharray: 5.0,5.0;" x1="1181.5" x2="1181.5" y1="86.2969" y2="1168.5469"/><line style="stroke: #A80036; stroke-width: 1.0; stroke-dasharray: 5.0,5.0;" x1="1334.5" x2="1334.5" y1="86.2969" y2="1168.5469"/><line style="stroke: #A80036; stroke-width: 1.0; stroke-dasharray: 5.0,5.0;" x1="1516.5" x2="1516.5" y1="86.2969" y2="1168.5469"/><text fill="#000000" font-family="sans-serif" font-size="14" lengthAdjust="spacingAndGlyphs" textLength="100" x="8" y="82.9951">Administrator</text><ellipse cx="61" cy="13" fill="#FEFECE" filter="url(#fnmur8s5fgwx0)" rx="8" ry="8" style="stroke: #A80036; stroke-width: 2.0;"/><path d="M61,21 L61,48 M48,29 L74,29 M61,48 L48,63 M61,48 L74,63 " fill="none" filter="url(#fnmur8s5fgwx0)" style="stroke: #A80036; stroke-width: 2.0;"/><text fill="#000000" font-family="sans-serif" font-size="14" lengthAdjust="spacingAndGlyphs" textLength="100" x="8" y="1180.542">Administrator</text><ellipse cx="61" cy="1193.8438" fill="#FEFECE" filter="url(#fnmur8s5fgwx0)" rx="8" ry="8" style="stroke: #A80036; stroke-width: 2.0;"/><path d="M61,1201.8438 L61,1228.8438 M48,1209.8438 L74,1209.8438 M61,1228.8438 L48,1243.8438 M61,1228.8438 L74,1243.8438 " fill="none" filter="url(#fnmur8s5fgwx0)" style="stroke: #A80036; stroke-width: 2.0;"/><rect fill="#FEFECE" filter="url(#fnmur8s5fgwx0)" height="30.2969" style="stroke: #A80036; stroke-width: 1.5;" width="241" x="458.5" y="51"/><text fill="#000000" font-family="sans-serif" font-size="14" lengthAdjust="spacingAndGlyphs" textLength="227" x="465.5" y="70.9951">:CheckPerformanceIndicatorsUI</text><rect fill="#FEFECE" filter="url(#fnmur8s5fgwx0)" height="30.2969" style="stroke: #A80036; stroke-width: 1.5;" width="241" x="458.5" y="1167.5469"/><text fill="#000000" font-family="sans-serif" font-size="14" lengthAdjust="spacingAndGlyphs" textLength="227" x="465.5" y="1187.542">:CheckPerformanceIndicatorsUI</text><rect fill="#FEFECE" filter="url(#fnmur8s5fgwx0)" height="30.2969" style="stroke: #A80036; stroke-width: 1.5;" width="301" x="713.5" y="51"/><text fill="#000000" font-family="sans-serif" font-size="14" lengthAdjust="spacingAndGlyphs" textLength="287" x="720.5" y="70.9951">:CheckPerformanceIndicatorsController</text><rect fill="#FEFECE" filter="url(#fnmur8s5fgwx0)" height="30.2969" style="stroke: #A80036; stroke-width: 1.5;" width="301" x="713.5" y="1167.5469"/><text fill="#000000" font-family="sans-serif" font-size="14" lengthAdjust="spacingAndGlyphs" textLength="287" x="720.5" y="1187.542">:CheckPerformanceIndicatorsController</text><rect fill="#FEFECE" filter="url(#fnmur8s5fgwx0)" height="30.2969" style="stroke: #A80036; stroke-width: 1.5;" width="82" x="1028.5" y="51"/><text fill="#000000" font-family="sans-serif" font-size="14" lengthAdjust="spacingAndGlyphs" textLength="68" x="1035.5" y="70.9951">:Platform</text><rect fill="#FEFECE" filter="url(#fnmur8s5fgwx0)" height="30.2969" style="stroke: #A80036; stroke-width: 1.5;" width="82" x="1028.5" y="1167.5469"/><text fill="#000000" font-family="sans-serif" font-size="14" lengthAdjust="spacingAndGlyphs" textLength="68" x="1035.5" y="1187.542">:Platform</text><rect fill="#FEFECE" filter="url(#fnmur8s5fgwx0)" height="30.2969" style="stroke: #A80036; stroke-width: 1.5;" width="111" x="1124.5" y="51"/><text fill="#000000" font-family="sans-serif" font-size="14" lengthAdjust="spacingAndGlyphs" textLength="97" x="1131.5" y="70.9951">:Organization</text><rect fill="#FEFECE" filter="url(#fnmur8s5fgwx0)" height="30.2969" style="stroke: #A80036; stroke-width: 1.5;" width="111" x="1124.5" y="1167.5469"/><text fill="#000000" font-family="sans-serif" font-size="14" lengthAdjust="spacingAndGlyphs" textLength="97" x="1131.5" y="1187.542">:Organization</text><rect fill="#FEFECE" filter="url(#fnmur8s5fgwx0)" height="30.2969" style="stroke: #A80036; stroke-width: 1.5;" width="167" x="1249.5" y="51"/><text fill="#000000" font-family="sans-serif" font-size="14" lengthAdjust="spacingAndGlyphs" textLength="153" x="1256.5" y="70.9951">:PaymentTransaction</text><rect fill="#FEFECE" filter="url(#fnmur8s5fgwx0)" height="30.2969" style="stroke: #A80036; stroke-width: 1.5;" width="167" x="1249.5" y="1167.5469"/><text fill="#000000" font-family="sans-serif" font-size="14" lengthAdjust="spacingAndGlyphs" textLength="153" x="1256.5" y="1187.542">:PaymentTransaction</text><rect fill="#FEFECE" filter="url(#fnmur8s5fgwx0)" height="30.2969" style="stroke: #A80036; stroke-width: 1.5;" width="169" x="1430.5" y="51"/><text fill="#000000" font-family="sans-serif" font-size="14" lengthAdjust="spacingAndGlyphs" textLength="155" x="1437.5" y="70.9951">:OrganizationsRecord</text><rect fill="#FEFECE" filter="url(#fnmur8s5fgwx0)" height="30.2969" style="stroke: #A80036; stroke-width: 1.5;" width="169" x="1430.5" y="1167.5469"/><text fill="#000000" font-family="sans-serif" font-size="14" lengthAdjust="spacingAndGlyphs" textLength="155" x="1437.5" y="1187.542">:OrganizationsRecord</text><rect fill="#FFFFFF" filter="url(#fnmur8s5fgwx0)" height="1054.25" style="stroke: #A80036; stroke-width: 1.0;" width="10" x="56" y="96.2969"/><rect fill="#FFFFFF" filter="url(#fnmur8s5fgwx0)" height="974.8516" style="stroke: #A80036; stroke-width: 1.0;" width="10" x="576" y="117.4297"/><rect fill="#FFFFFF" filter="url(#fnmur8s5fgwx0)" height="29.1328" style="stroke: #A80036; stroke-width: 1.0;" width="10" x="576" y="1121.4141"/><rect fill="#FFFFFF" filter="url(#fnmur8s5fgwx0)" height="118.2656" style="stroke: #A80036; stroke-width: 1.0;" width="10" x="861" y="146.5625"/><rect fill="#FFFFFF" filter="url(#fnmur8s5fgwx0)" height="650.6563" style="stroke: #A80036; stroke-width: 1.0;" width="10" x="861" y="293.9609"/><rect fill="#FFFFFF" filter="url(#fnmur8s5fgwx0)" height="59.1328" style="stroke: #A80036; stroke-width: 1.0;" width="10" x="861" y="973.75"/><rect fill="#FFFFFF" filter="url(#fnmur8s5fgwx0)" height="30" style="stroke: #A80036; stroke-width: 1.0;" width="10" x="1066.5" y="175.6953"/><rect fill="#FFFFFF" filter="url(#fnmur8s5fgwx0)" height="74.3984" style="stroke: #A80036; stroke-width: 1.0;" width="10" x="1177" y="323.0938"/><rect fill="#FFFFFF" filter="url(#fnmur8s5fgwx0)" height="74.3984" style="stroke: #A80036; stroke-width: 1.0;" width="10" x="1177" y="648.4219"/><rect fill="#FFFFFF" filter="url(#fnmur8s5fgwx0)" height="30" style="stroke: #A80036; stroke-width: 1.0;" width="10" x="1330" y="1002.8828"/><rect fill="#FFFFFF" filter="url(#fnmur8s5fgwx0)" height="30" style="stroke: #A80036; stroke-width: 1.0;" width="10" x="1512" y="234.8281"/><rect fill="#FFFFFF" filter="url(#fnmur8s5fgwx0)" height="74.3984" style="stroke: #A80036; stroke-width: 1.0;" width="10" x="1512" y="426.625"/><rect fill="#FFFFFF" filter="url(#fnmur8s5fgwx0)" height="30" style="stroke: #A80036; stroke-width: 1.0;" width="10" x="1512" y="530.1563"/><rect fill="#FFFFFF" filter="url(#fnmur8s5fgwx0)" height="30" style="stroke: #A80036; stroke-width: 1.0;" width="10" x="1512" y="589.2891"/><rect fill="#FFFFFF" filter="url(#fnmur8s5fgwx0)" height="74.3984" style="stroke: #A80036; stroke-width: 1.0;" width="10" x="1512" y="751.9531"/><rect fill="#FFFFFF" filter="url(#fnmur8s5fgwx0)" height="30" style="stroke: #A80036; stroke-width: 1.0;" width="10" x="1512" y="855.4844"/><rect fill="#FFFFFF" filter="url(#fnmur8s5fgwx0)" height="30" style="stroke: #A80036; stroke-width: 1.0;" width="10" x="1512" y="914.6172"/><polygon fill="#A80036" points="564,113.4297,574,117.4297,564,121.4297,568,117.4297" style="stroke: #A80036; stroke-width: 1.0;"/><line style="stroke: #A80036; stroke-width: 1.0;" x1="66" x2="570" y1="117.4297" y2="117.4297"/><text fill="#000000" font-family="sans-serif" font-size="13" font-weight="bold" lengthAdjust="spacingAndGlyphs" textLength="9" x="73" y="112.3638">1</text><text fill="#000000" font-family="sans-serif" font-size="13" lengthAdjust="spacingAndGlyphs" textLength="423" x="86" y="112.3638">initiates the process of viewing freelancers performance statistics</text><polygon fill="#A80036" points="849,142.5625,859,146.5625,849,150.5625,853,146.5625" style="stroke: #A80036; stroke-width: 1.0;"/><line style="stroke: #A80036; stroke-width: 1.0;" x1="586" x2="855" y1="146.5625" y2="146.5625"/><text fill="#000000" font-family="sans-serif" font-size="13" font-weight="bold" lengthAdjust="spacingAndGlyphs" textLength="9" x="593" y="141.4966">2</text><text fill="#000000" font-family="sans-serif" font-size="13" lengthAdjust="spacingAndGlyphs" textLength="119" x="606" y="141.4966">getOrganizations()</text><polygon fill="#A80036" points="1054.5,171.6953,1064.5,175.6953,1054.5,179.6953,1058.5,175.6953" style="stroke: #A80036; stroke-width: 1.0;"/><line style="stroke: #A80036; stroke-width: 1.0;" x1="871" x2="1060.5" y1="175.6953" y2="175.6953"/><text fill="#000000" font-family="sans-serif" font-size="13" font-weight="bold" lengthAdjust="spacingAndGlyphs" textLength="8" x="878" y="170.6294">3</text><text fill="#000000" font-family="sans-serif" font-size="13" lengthAdjust="spacingAndGlyphs" textLength="164" x="890" y="170.6294">getOrganizationsRecord()</text><polygon fill="#A80036" points="1500,230.8281,1510,234.8281,1500,238.8281,1504,234.8281" style="stroke: #A80036; stroke-width: 1.0;"/><line style="stroke: #A80036; stroke-width: 1.0;" x1="871" x2="1506" y1="234.8281" y2="234.8281"/><text fill="#000000" font-family="sans-serif" font-size="13" font-weight="bold" lengthAdjust="spacingAndGlyphs" textLength="9" x="878" y="229.7622">4</text><text fill="#000000" font-family="sans-serif" font-size="13" lengthAdjust="spacingAndGlyphs" textLength="119" x="891" y="229.7622">getOrganizations()</text><polygon fill="#A80036" points="849,289.9609,859,293.9609,849,297.9609,853,293.9609" style="stroke: #A80036; stroke-width: 1.0;"/><line style="stroke: #A80036; stroke-width: 1.0;" x1="586" x2="855" y1="293.9609" y2="293.9609"/><text fill="#000000" font-family="sans-serif" font-size="13" font-weight="bold" lengthAdjust="spacingAndGlyphs" textLength="9" x="593" y="288.895">5</text><text fill="#000000" font-family="sans-serif" font-size="13" lengthAdjust="spacingAndGlyphs" textLength="176" x="606" y="288.895">calcPerformanceStatistics()</text><polygon fill="#A80036" points="1165,319.0938,1175,323.0938,1165,327.0938,1169,323.0938" style="stroke: #A80036; stroke-width: 1.0;"/><line style="stroke: #A80036; stroke-width: 1.0;" x1="871" x2="1171" y1="323.0938" y2="323.0938"/><text fill="#000000" font-family="sans-serif" font-size="13" font-weight="bold" lengthAdjust="spacingAndGlyphs" textLength="9" x="878" y="318.0278">6</text><text fill="#000000" font-family="sans-serif" font-size="13" lengthAdjust="spacingAndGlyphs" textLength="246" x="891" y="318.0278">determinatePayOrg(mapOrgPayment)</text><rect fill="#FFFFFF" filter="url(#fnmur8s5fgwx0)" height="40.2656" style="stroke: #000000; stroke-width: 2.0;" width="159" x="1121.5" y="331.0938"/><polygon fill="#EEEEEE" points="1121.5,331.0938,1189.5,331.0938,1189.5,338.0938,1179.5,348.0938,1121.5,348.0938,1121.5,331.0938" style="stroke: #000000; stroke-width: 2.0;"/><text fill="#000000" font-family="sans-serif" font-size="13" font-weight="bold" lengthAdjust="spacingAndGlyphs" textLength="23" x="1134.5" y="345.1606">ref</text><text fill="#000000" font-family="sans-serif" font-size="13" lengthAdjust="spacingAndGlyphs" textLength="151" x="1127.5" y="364.1606">SD_determinatePayOrg</text><polygon fill="#A80036" points="882,393.4922,872,397.4922,882,401.4922,878,397.4922" style="stroke: #A80036; stroke-width: 1.0;"/><line style="stroke: #A80036; stroke-width: 1.0; stroke-dasharray: 2.0,2.0;" x1="876" x2="1181" y1="397.4922" y2="397.4922"/><text fill="#000000" font-family="sans-serif" font-size="13" font-weight="bold" lengthAdjust="spacingAndGlyphs" textLength="9" x="888" y="392.4263">7</text><text fill="#000000" font-family="sans-serif" font-size="13" lengthAdjust="spacingAndGlyphs" textLength="110" x="901" y="392.4263">mapOrgPayment</text><polygon fill="#A80036" points="1500,422.625,1510,426.625,1500,430.625,1504,426.625" style="stroke: #A80036; stroke-width: 1.0;"/><line style="stroke: #A80036; stroke-width: 1.0;" x1="871" x2="1506" y1="426.625" y2="426.625"/><text fill="#000000" font-family="sans-serif" font-size="13" font-weight="bold" lengthAdjust="spacingAndGlyphs" textLength="9" x="878" y="421.5591">8</text><text fill="#000000" font-family="sans-serif" font-size="13" lengthAdjust="spacingAndGlyphs" textLength="168" x="891" y="421.5591">determinatePayPlatform()</text><rect fill="#FFFFFF" filter="url(#fnmur8s5fgwx0)" height="40.2656" style="stroke: #000000; stroke-width: 2.0;" width="191" x="1427.5" y="434.625"/><polygon fill="#EEEEEE" points="1427.5,434.625,1495.5,434.625,1495.5,441.625,1485.5,451.625,1427.5,451.625,1427.5,434.625" style="stroke: #000000; stroke-width: 2.0;"/><text fill="#000000" font-family="sans-serif" font-size="13" font-weight="bold" lengthAdjust="spacingAndGlyphs" textLength="23" x="1440.5" y="448.6919">ref</text><text fill="#000000" font-family="sans-serif" font-size="13" lengthAdjust="spacingAndGlyphs" textLength="183" x="1433.5" y="467.6919">SD_determinatePayPlatform</text><polygon fill="#A80036" points="882,497.0234,872,501.0234,882,505.0234,878,501.0234" style="stroke: #A80036; stroke-width: 1.0;"/><line style="stroke: #A80036; stroke-width: 1.0; stroke-dasharray: 2.0,2.0;" x1="876" x2="1516" y1="501.0234" y2="501.0234"/><text fill="#000000" font-family="sans-serif" font-size="13" font-weight="bold" lengthAdjust="spacingAndGlyphs" textLength="9" x="888" y="495.9575">9</text><text fill="#000000" font-family="sans-serif" font-size="13" lengthAdjust="spacingAndGlyphs" textLength="126" x="901" y="495.9575">mapTotalPayments</text><polygon fill="#A80036" points="1500,526.1563,1510,530.1563,1500,534.1563,1504,530.1563" style="stroke: #A80036; stroke-width: 1.0;"/><line style="stroke: #A80036; stroke-width: 1.0;" x1="871" x2="1506" y1="530.1563" y2="530.1563"/><text fill="#000000" font-family="sans-serif" font-size="13" font-weight="bold" lengthAdjust="spacingAndGlyphs" textLength="19" x="878" y="525.0903">10</text><text fill="#000000" font-family="sans-serif" font-size="13" lengthAdjust="spacingAndGlyphs" textLength="253" x="901" y="525.0903">calcMeanPayment(mapTotalPayments)</text><polygon fill="#A80036" points="1500,585.2891,1510,589.2891,1500,593.2891,1504,589.2891" style="stroke: #A80036; stroke-width: 1.0;"/><line style="stroke: #A80036; stroke-width: 1.0;" x1="871" x2="1506" y1="589.2891" y2="589.2891"/><text fill="#000000" font-family="sans-serif" font-size="13" font-weight="bold" lengthAdjust="spacingAndGlyphs" textLength="18" x="878" y="584.2231">11</text><text fill="#000000" font-family="sans-serif" font-size="13" lengthAdjust="spacingAndGlyphs" textLength="412" x="900" y="584.2231">calcDeviationPayment(mapTotalPayments,mapMeanPayments)</text><polygon fill="#A80036" points="1165,644.4219,1175,648.4219,1165,652.4219,1169,648.4219" style="stroke: #A80036; stroke-width: 1.0;"/><line style="stroke: #A80036; stroke-width: 1.0;" x1="871" x2="1171" y1="648.4219" y2="648.4219"/><text fill="#000000" font-family="sans-serif" font-size="13" font-weight="bold" lengthAdjust="spacingAndGlyphs" textLength="18" x="878" y="643.356">12</text><text fill="#000000" font-family="sans-serif" font-size="13" lengthAdjust="spacingAndGlyphs" textLength="238" x="900" y="643.356">determinateDelayOrg(mapOrgDelay)</text><rect fill="#FFFFFF" filter="url(#fnmur8s5fgwx0)" height="40.2656" style="stroke: #000000; stroke-width: 2.0;" width="172" x="1121.5" y="656.4219"/><polygon fill="#EEEEEE" points="1121.5,656.4219,1189.5,656.4219,1189.5,663.4219,1179.5,673.4219,1121.5,673.4219,1121.5,656.4219" style="stroke: #000000; stroke-width: 2.0;"/><text fill="#000000" font-family="sans-serif" font-size="13" font-weight="bold" lengthAdjust="spacingAndGlyphs" textLength="23" x="1134.5" y="670.4888">ref</text><text fill="#000000" font-family="sans-serif" font-size="13" lengthAdjust="spacingAndGlyphs" textLength="164" x="1127.5" y="689.4888">SD_determinateDelayOrg</text><polygon fill="#A80036" points="882,718.8203,872,722.8203,882,726.8203,878,722.8203" style="stroke: #A80036; stroke-width: 1.0;"/><line style="stroke: #A80036; stroke-width: 1.0; stroke-dasharray: 2.0,2.0;" x1="876" x2="1181" y1="722.8203" y2="722.8203"/><text fill="#000000" font-family="sans-serif" font-size="13" font-weight="bold" lengthAdjust="spacingAndGlyphs" textLength="17" x="888" y="717.7544">13</text><text fill="#000000" font-family="sans-serif" font-size="13" lengthAdjust="spacingAndGlyphs" textLength="89" x="909" y="717.7544">mapOrgDelay</text><polygon fill="#A80036" points="1500,747.9531,1510,751.9531,1500,755.9531,1504,751.9531" style="stroke: #A80036; stroke-width: 1.0;"/><line style="stroke: #A80036; stroke-width: 1.0;" x1="871" x2="1506" y1="751.9531" y2="751.9531"/><text fill="#000000" font-family="sans-serif" font-size="13" font-weight="bold" lengthAdjust="spacingAndGlyphs" textLength="18" x="878" y="746.8872">14</text><text fill="#000000" font-family="sans-serif" font-size="13" lengthAdjust="spacingAndGlyphs" textLength="181" x="900" y="746.8872">determinateDelayPlatform()</text><rect fill="#FFFFFF" filter="url(#fnmur8s5fgwx0)" height="40.2656" style="stroke: #000000; stroke-width: 2.0;" width="204" x="1427.5" y="759.9531"/><polygon fill="#EEEEEE" points="1427.5,759.9531,1495.5,759.9531,1495.5,766.9531,1485.5,776.9531,1427.5,776.9531,1427.5,759.9531" style="stroke: #000000; stroke-width: 2.0;"/><text fill="#000000" font-family="sans-serif" font-size="13" font-weight="bold" lengthAdjust="spacingAndGlyphs" textLength="23" x="1440.5" y="774.02">ref</text><text fill="#000000" font-family="sans-serif" font-size="13" lengthAdjust="spacingAndGlyphs" textLength="196" x="1433.5" y="793.02">SD_determinateDelayPlatform</text><polygon fill="#A80036" points="882,822.3516,872,826.3516,882,830.3516,878,826.3516" style="stroke: #A80036; stroke-width: 1.0;"/><line style="stroke: #A80036; stroke-width: 1.0; stroke-dasharray: 2.0,2.0;" x1="876" x2="1516" y1="826.3516" y2="826.3516"/><text fill="#000000" font-family="sans-serif" font-size="13" font-weight="bold" lengthAdjust="spacingAndGlyphs" textLength="18" x="888" y="821.2856">15</text><text fill="#000000" font-family="sans-serif" font-size="13" lengthAdjust="spacingAndGlyphs" textLength="105" x="910" y="821.2856">mapTotalDelays</text><polygon fill="#A80036" points="1500,851.4844,1510,855.4844,1500,859.4844,1504,855.4844" style="stroke: #A80036; stroke-width: 1.0;"/><line style="stroke: #A80036; stroke-width: 1.0;" x1="871" x2="1506" y1="855.4844" y2="855.4844"/><text fill="#000000" font-family="sans-serif" font-size="13" font-weight="bold" lengthAdjust="spacingAndGlyphs" textLength="18" x="878" y="850.4185">16</text><text fill="#000000" font-family="sans-serif" font-size="13" lengthAdjust="spacingAndGlyphs" textLength="211" x="900" y="850.4185">calcMeanDelay(mapTotalDelays)</text><polygon fill="#A80036" points="1500,910.6172,1510,914.6172,1500,918.6172,1504,914.6172" style="stroke: #A80036; stroke-width: 1.0;"/><line style="stroke: #A80036; stroke-width: 1.0;" x1="871" x2="1506" y1="914.6172" y2="914.6172"/><text fill="#000000" font-family="sans-serif" font-size="13" font-weight="bold" lengthAdjust="spacingAndGlyphs" textLength="18" x="878" y="909.5513">17</text><text fill="#000000" font-family="sans-serif" font-size="13" lengthAdjust="spacingAndGlyphs" textLength="349" x="900" y="909.5513">calcDeviationDelay(mapTotalDelays,mapMeanDelays)</text><polygon fill="#A80036" points="849,969.75,859,973.75,849,977.75,853,973.75" style="stroke: #A80036; stroke-width: 1.0;"/><line style="stroke: #A80036; stroke-width: 1.0;" x1="586" x2="855" y1="973.75" y2="973.75"/><text fill="#000000" font-family="sans-serif" font-size="13" font-weight="bold" lengthAdjust="spacingAndGlyphs" textLength="18" x="593" y="968.6841">18</text><text fill="#000000" font-family="sans-serif" font-size="13" lengthAdjust="spacingAndGlyphs" textLength="208" x="615" y="968.6841">determinateNormalDistribution()</text><polygon fill="#A80036" points="1318,998.8828,1328,1002.8828,1318,1006.8828,1322,1002.8828" style="stroke: #A80036; stroke-width: 1.0;"/><line style="stroke: #A80036; stroke-width: 1.0;" x1="871" x2="1324" y1="1002.8828" y2="1002.8828"/><text fill="#000000" font-family="sans-serif" font-size="13" font-weight="bold" lengthAdjust="spacingAndGlyphs" textLength="18" x="878" y="997.8169">19</text><text fill="#000000" font-family="sans-serif" font-size="13" lengthAdjust="spacingAndGlyphs" textLength="208" x="900" y="997.8169">determinateNormalDistribution()</text><polygon fill="#A80036" points="77,1088.2813,67,1092.2813,77,1096.2813,73,1092.2813" style="stroke: #A80036; stroke-width: 1.0;"/><line style="stroke: #A80036; stroke-width: 1.0; stroke-dasharray: 2.0,2.0;" x1="71" x2="580" y1="1092.2813" y2="1092.2813"/><text fill="#000000" font-family="sans-serif" font-size="13" font-weight="bold" lengthAdjust="spacingAndGlyphs" textLength="19" x="83" y="1072.0825">20</text><text fill="#000000" font-family="sans-serif" font-size="13" lengthAdjust="spacingAndGlyphs" textLength="412" x="106" y="1056.9497">calculates and displays performance statistics for all freelancers</text><text fill="#000000" font-family="sans-serif" font-size="13" lengthAdjust="spacingAndGlyphs" textLength="275" x="106" y="1072.0825">(i.e. the average and standard deviation of</text><text fill="#000000" font-family="sans-serif" font-size="13" lengthAdjust="spacingAndGlyphs" textLength="463" x="106" y="1087.2153">delay and payment, along with histograms for each and all freelancers).</text><polygon fill="#A80036" points="564,1117.4141,574,1121.4141,564,1125.4141,568,1121.4141" style="stroke: #A80036; stroke-width: 1.0;"/><line style="stroke: #A80036; stroke-width: 1.0;" x1="66" x2="570" y1="1121.4141" y2="1121.4141"/><text fill="#000000" font-family="sans-serif" font-size="13" font-weight="bold" lengthAdjust="spacingAndGlyphs" textLength="18" x="73" y="1116.3481">21</text><text fill="#000000" font-family="sans-serif" font-size="13" lengthAdjust="spacingAndGlyphs" textLength="56" x="95" y="1116.3481">confirms</text><polygon fill="#A80036" points="72,1146.5469,62,1150.5469,72,1154.5469,68,1150.5469" style="stroke: #A80036; stroke-width: 1.0;"/><line style="stroke: #A80036; stroke-width: 1.0; stroke-dasharray: 2.0,2.0;" x1="66" x2="580" y1="1150.5469" y2="1150.5469"/><text fill="#000000" font-family="sans-serif" font-size="13" font-weight="bold" lengthAdjust="spacingAndGlyphs" textLength="18" x="78" y="1145.481">22</text><text fill="#000000" font-family="sans-serif" font-size="13" lengthAdjust="spacingAndGlyphs" textLength="132" x="100" y="1145.481">successful operation</text><!--MD5=[a5a95f894523d883d88eb1364045ceb3]
@startuml
autonumber

actor "Administrator" as ADM
participant ":CheckPerformanceIndicatorsUI" as UI
participant ":CheckPerformanceIndicatorsController" as CTL
participant ":Platform" as PLT
participant ":Organization" as O
participant ":PaymentTransaction" as T
participant ":OrganizationsRecord" as RO

 

activate ADM
ADM -> UI : initiates the process of viewing freelancers performance statistics
activate UI

 

UI -> CTL : getOrganizations()
activate CTL
CTL -> PLT : getOrganizationsRecord()
activate PLT
deactivate PLT
CTL -> RO : getOrganizations()
activate RO
deactivate RO
deactivate CTL

 

UI -> CTL : calcPerformanceStatistics()
activate CTL

 


CTL -> O : determinatePayOrg(mapOrgPayment)
activate O
ref over O
SD_determinatePayOrg
end ref
CTL <- - O : mapOrgPayment
deactivate O
CTL -> RO : determinatePayPlatform()
activate RO
ref over RO
SD_determinatePayPlatform
end ref
CTL <- - RO : mapTotalPayments
deactivate RO
CTL -> RO : calcMeanPayment(mapTotalPayments)
activate RO
deactivate RO
CTL -> RO : calcDeviationPayment(mapTotalPayments,mapMeanPayments)
activate RO
deactivate RO

 


CTL -> O : determinateDelayOrg(mapOrgDelay)
activate O
ref over O
SD_determinateDelayOrg
end ref
CTL <- - O : mapOrgDelay
deactivate O
CTL -> RO : determinateDelayPlatform()
activate RO
ref over RO
SD_determinateDelayPlatform
end ref
CTL <- - RO : mapTotalDelays
deactivate RO
CTL -> RO : calcMeanDelay(mapTotalDelays)
activate RO
deactivate RO
CTL -> RO : calcDeviationDelay(mapTotalDelays,mapMeanDelays)
activate RO
deactivate RO
deactivate CTL

 


UI -> CTL : determinateNormalDistribution()
activate CTL
CTL -> T: determinateNormalDistribution()
activate T
deactivate T
deactivate CTL

 

UI - -> ADM : calculates and displays performance statistics for all freelancers \n(i.e. the average and standard deviation of \ndelay and payment, along with histograms for each and all freelancers).
deactivate UI
ADM -> UI : confirms
activate UI
UI - -> ADM : successful operation
deactivate UI
deactivate ADM
@enduml

PlantUML version 1.2020.11(Sat May 30 10:13:43 UTC 2020)
(GPL source distribution)
Java Runtime: Java(TM) SE Runtime Environment
JVM: Java HotSpot(TM) 64-Bit Server VM
Default Encoding: UTF-8
Language: en
Country: US
--></g></svg>