<?xml version="1.0" encoding="UTF-8" standalone="no"?><svg xmlns="http://www.w3.org/2000/svg" xmlns:xlink="http://www.w3.org/1999/xlink" contentScriptType="application/ecmascript" contentStyleType="text/css" height="1635px" preserveAspectRatio="none" style="width:601px;height:1635px;" version="1.1" viewBox="0 0 601 1635" width="601px" zoomAndPan="magnify"><defs><filter height="300%" id="f1v3ty6aw8pg26" width="300%" x="-1" y="-1"><feGaussianBlur result="blurOut" stdDeviation="2.0"/><feColorMatrix in="blurOut" result="blurOut2" type="matrix" values="0 0 0 0 0 0 0 0 0 0 0 0 0 0 0 0 0 0 .4 0"/><feOffset dx="4.0" dy="4.0" in="blurOut2" result="blurOut3"/><feBlend in="SourceGraphic" in2="blurOut3" mode="normal"/></filter></defs><g><!--MD5=[6d1d9f2cc80ac448b0efbfee2d40ed62]
class CheckPerformanceIndicatorsUI--><rect fill="#FEFECE" filter="url(#f1v3ty6aw8pg26)" height="48" id="CheckPerformanceIndicatorsUI" style="stroke: #A80036; stroke-width: 1.5;" width="216" x="226.5" y="6"/><ellipse cx="241.5" cy="22" fill="#ADD1B2" rx="11" ry="11" style="stroke: #A80036; stroke-width: 1.0;"/><path d="M243.8438,17.6719 C242.9063,17.2344 242.3125,17.0938 241.4375,17.0938 C238.8125,17.0938 236.8125,19.1719 236.8125,21.8906 L236.8125,23.0156 C236.8125,25.5938 238.9219,27.4844 241.8125,27.4844 C243.0313,27.4844 244.1875,27.1875 244.9375,26.6406 C245.5156,26.2344 245.8438,25.7813 245.8438,25.3906 C245.8438,24.9375 245.4531,24.5469 244.9844,24.5469 C244.7656,24.5469 244.5625,24.625 244.375,24.8125 C243.9219,25.2969 243.9219,25.2969 243.7344,25.3906 C243.3125,25.6563 242.625,25.7813 241.8594,25.7813 C239.8125,25.7813 238.5156,24.6875 238.5156,22.9844 L238.5156,21.8906 C238.5156,20.1094 239.7656,18.7969 241.5,18.7969 C242.0781,18.7969 242.6875,18.9531 243.1563,19.2031 C243.6406,19.4844 243.8125,19.7031 243.9063,20.1094 C243.9688,20.5156 244,20.6406 244.1406,20.7656 C244.2813,20.9063 244.5156,21.0156 244.7344,21.0156 C245,21.0156 245.2656,20.875 245.4375,20.6563 C245.5469,20.5 245.5781,20.3125 245.5781,19.8906 L245.5781,18.4688 C245.5781,18.0313 245.5625,17.9063 245.4688,17.75 C245.3125,17.4844 245.0313,17.3438 244.7344,17.3438 C244.4375,17.3438 244.2344,17.4375 244.0156,17.75 L243.8438,17.6719 Z "/><text fill="#000000" font-family="sans-serif" font-size="12" lengthAdjust="spacingAndGlyphs" textLength="184" x="255.5" y="26.1543">CheckPerformanceIndicatorsUI</text><line style="stroke: #A80036; stroke-width: 1.5;" x1="227.5" x2="441.5" y1="38" y2="38"/><line style="stroke: #A80036; stroke-width: 1.5;" x1="227.5" x2="441.5" y1="46" y2="46"/><!--MD5=[7bbfd4fa480b5af4c92f2a394ac4429f]
class CheckPerformanceIndicatorsController--><rect fill="#FEFECE" filter="url(#f1v3ty6aw8pg26)" height="176.0469" id="CheckPerformanceIndicatorsController" style="stroke: #A80036; stroke-width: 1.5;" width="263" x="203" y="115"/><ellipse cx="218" cy="131" fill="#ADD1B2" rx="11" ry="11" style="stroke: #A80036; stroke-width: 1.0;"/><path d="M220.3438,126.6719 C219.4063,126.2344 218.8125,126.0938 217.9375,126.0938 C215.3125,126.0938 213.3125,128.1719 213.3125,130.8906 L213.3125,132.0156 C213.3125,134.5938 215.4219,136.4844 218.3125,136.4844 C219.5313,136.4844 220.6875,136.1875 221.4375,135.6406 C222.0156,135.2344 222.3438,134.7813 222.3438,134.3906 C222.3438,133.9375 221.9531,133.5469 221.4844,133.5469 C221.2656,133.5469 221.0625,133.625 220.875,133.8125 C220.4219,134.2969 220.4219,134.2969 220.2344,134.3906 C219.8125,134.6563 219.125,134.7813 218.3594,134.7813 C216.3125,134.7813 215.0156,133.6875 215.0156,131.9844 L215.0156,130.8906 C215.0156,129.1094 216.2656,127.7969 218,127.7969 C218.5781,127.7969 219.1875,127.9531 219.6563,128.2031 C220.1406,128.4844 220.3125,128.7031 220.4063,129.1094 C220.4688,129.5156 220.5,129.6406 220.6406,129.7656 C220.7813,129.9063 221.0156,130.0156 221.2344,130.0156 C221.5,130.0156 221.7656,129.875 221.9375,129.6563 C222.0469,129.5 222.0781,129.3125 222.0781,128.8906 L222.0781,127.4688 C222.0781,127.0313 222.0625,126.9063 221.9688,126.75 C221.8125,126.4844 221.5313,126.3438 221.2344,126.3438 C220.9375,126.3438 220.7344,126.4375 220.5156,126.75 L220.3438,126.6719 Z "/><text fill="#000000" font-family="sans-serif" font-size="12" lengthAdjust="spacingAndGlyphs" textLength="231" x="232" y="135.1543">CheckPerformanceIndicatorsController</text><line style="stroke: #A80036; stroke-width: 1.5;" x1="204" x2="465" y1="147" y2="147"/><line style="stroke: #A80036; stroke-width: 1.5;" x1="204" x2="465" y1="155" y2="155"/><ellipse cx="214" cy="166" fill="#84BE84" rx="3" ry="3" style="stroke: #038048; stroke-width: 1.0;"/><text fill="#000000" font-family="sans-serif" font-size="11" lengthAdjust="spacingAndGlyphs" textLength="105" x="223" y="169.2104">getOrganizations()</text><ellipse cx="214" cy="178.8047" fill="#84BE84" rx="3" ry="3" style="stroke: #038048; stroke-width: 1.0;"/><text fill="#000000" font-family="sans-serif" font-size="11" lengthAdjust="spacingAndGlyphs" textLength="119" x="223" y="182.0151">determinatePayOrg()</text><ellipse cx="214" cy="191.6094" fill="#84BE84" rx="3" ry="3" style="stroke: #038048; stroke-width: 1.0;"/><text fill="#000000" font-family="sans-serif" font-size="11" lengthAdjust="spacingAndGlyphs" textLength="145" x="223" y="194.8198">determinatePayPlatform()</text><ellipse cx="214" cy="204.4141" fill="#84BE84" rx="3" ry="3" style="stroke: #038048; stroke-width: 1.0;"/><text fill="#000000" font-family="sans-serif" font-size="11" lengthAdjust="spacingAndGlyphs" textLength="111" x="223" y="207.6245">calcMeanPayment()</text><ellipse cx="214" cy="217.2188" fill="#84BE84" rx="3" ry="3" style="stroke: #038048; stroke-width: 1.0;"/><text fill="#000000" font-family="sans-serif" font-size="11" lengthAdjust="spacingAndGlyphs" textLength="135" x="223" y="220.4292">calcDeviationPayment()</text><ellipse cx="214" cy="230.0234" fill="#84BE84" rx="3" ry="3" style="stroke: #038048; stroke-width: 1.0;"/><text fill="#000000" font-family="sans-serif" font-size="11" lengthAdjust="spacingAndGlyphs" textLength="133" x="223" y="233.2339">determinateDelayOrg()</text><ellipse cx="214" cy="242.8281" fill="#84BE84" rx="3" ry="3" style="stroke: #038048; stroke-width: 1.0;"/><text fill="#000000" font-family="sans-serif" font-size="11" lengthAdjust="spacingAndGlyphs" textLength="159" x="223" y="246.0386">determinateDelayPlatform()</text><ellipse cx="214" cy="255.6328" fill="#84BE84" rx="3" ry="3" style="stroke: #038048; stroke-width: 1.0;"/><text fill="#000000" font-family="sans-serif" font-size="11" lengthAdjust="spacingAndGlyphs" textLength="95" x="223" y="258.8433">calcMeanDelay()</text><ellipse cx="214" cy="268.4375" fill="#84BE84" rx="3" ry="3" style="stroke: #038048; stroke-width: 1.0;"/><text fill="#000000" font-family="sans-serif" font-size="11" lengthAdjust="spacingAndGlyphs" textLength="119" x="223" y="271.6479">calcDeviationDelay()</text><ellipse cx="214" cy="281.2422" fill="#84BE84" rx="3" ry="3" style="stroke: #038048; stroke-width: 1.0;"/><text fill="#000000" font-family="sans-serif" font-size="11" lengthAdjust="spacingAndGlyphs" textLength="183" x="223" y="284.4526">determinateNormalDistribution()</text><!--MD5=[99b8db98afdc2c8404e39242ef4c1e65]
class Platform--><rect fill="#FEFECE" filter="url(#f1v3ty6aw8pg26)" height="73.6094" id="Platform" style="stroke: #A80036; stroke-width: 1.5;" width="166" x="115.5" y="352"/><ellipse cx="170.25" cy="368" fill="#ADD1B2" rx="11" ry="11" style="stroke: #A80036; stroke-width: 1.0;"/><path d="M172.5938,363.6719 C171.6563,363.2344 171.0625,363.0938 170.1875,363.0938 C167.5625,363.0938 165.5625,365.1719 165.5625,367.8906 L165.5625,369.0156 C165.5625,371.5938 167.6719,373.4844 170.5625,373.4844 C171.7813,373.4844 172.9375,373.1875 173.6875,372.6406 C174.2656,372.2344 174.5938,371.7813 174.5938,371.3906 C174.5938,370.9375 174.2031,370.5469 173.7344,370.5469 C173.5156,370.5469 173.3125,370.625 173.125,370.8125 C172.6719,371.2969 172.6719,371.2969 172.4844,371.3906 C172.0625,371.6563 171.375,371.7813 170.6094,371.7813 C168.5625,371.7813 167.2656,370.6875 167.2656,368.9844 L167.2656,367.8906 C167.2656,366.1094 168.5156,364.7969 170.25,364.7969 C170.8281,364.7969 171.4375,364.9531 171.9063,365.2031 C172.3906,365.4844 172.5625,365.7031 172.6563,366.1094 C172.7188,366.5156 172.75,366.6406 172.8906,366.7656 C173.0313,366.9063 173.2656,367.0156 173.4844,367.0156 C173.75,367.0156 174.0156,366.875 174.1875,366.6563 C174.2969,366.5 174.3281,366.3125 174.3281,365.8906 L174.3281,364.4688 C174.3281,364.0313 174.3125,363.9063 174.2188,363.75 C174.0625,363.4844 173.7813,363.3438 173.4844,363.3438 C173.1875,363.3438 172.9844,363.4375 172.7656,363.75 L172.5938,363.6719 Z "/><text fill="#000000" font-family="sans-serif" font-size="12" lengthAdjust="spacingAndGlyphs" textLength="48" x="190.75" y="372.1543">Platform</text><line style="stroke: #A80036; stroke-width: 1.5;" x1="116.5" x2="280.5" y1="384" y2="384"/><rect fill="none" height="6" style="stroke: #C82930; stroke-width: 1.0;" width="6" x="123.5" y="392"/><text fill="#000000" font-family="sans-serif" font-size="11" lengthAdjust="spacingAndGlyphs" textLength="103" x="135.5" y="398.2104">String designation</text><line style="stroke: #A80036; stroke-width: 1.5;" x1="116.5" x2="280.5" y1="404.8047" y2="404.8047"/><ellipse cx="126.5" cy="415.8047" fill="#84BE84" rx="3" ry="3" style="stroke: #038048; stroke-width: 1.0;"/><text fill="#000000" font-family="sans-serif" font-size="11" lengthAdjust="spacingAndGlyphs" textLength="140" x="135.5" y="419.0151">getOrganizationsRecord(</text><!--MD5=[759d9d4bd7fe37fb1c4b72776400893c]
class OrganizationsRecord--><rect fill="#FEFECE" filter="url(#f1v3ty6aw8pg26)" height="150.4375" id="OrganizationsRecord" style="stroke: #A80036; stroke-width: 1.5;" width="385" x="6" y="503"/><ellipse cx="131.25" cy="519" fill="#ADD1B2" rx="11" ry="11" style="stroke: #A80036; stroke-width: 1.0;"/><path d="M133.5938,514.6719 C132.6563,514.2344 132.0625,514.0938 131.1875,514.0938 C128.5625,514.0938 126.5625,516.1719 126.5625,518.8906 L126.5625,520.0156 C126.5625,522.5938 128.6719,524.4844 131.5625,524.4844 C132.7813,524.4844 133.9375,524.1875 134.6875,523.6406 C135.2656,523.2344 135.5938,522.7813 135.5938,522.3906 C135.5938,521.9375 135.2031,521.5469 134.7344,521.5469 C134.5156,521.5469 134.3125,521.625 134.125,521.8125 C133.6719,522.2969 133.6719,522.2969 133.4844,522.3906 C133.0625,522.6563 132.375,522.7813 131.6094,522.7813 C129.5625,522.7813 128.2656,521.6875 128.2656,519.9844 L128.2656,518.8906 C128.2656,517.1094 129.5156,515.7969 131.25,515.7969 C131.8281,515.7969 132.4375,515.9531 132.9063,516.2031 C133.3906,516.4844 133.5625,516.7031 133.6563,517.1094 C133.7188,517.5156 133.75,517.6406 133.8906,517.7656 C134.0313,517.9063 134.2656,518.0156 134.4844,518.0156 C134.75,518.0156 135.0156,517.875 135.1875,517.6563 C135.2969,517.5 135.3281,517.3125 135.3281,516.8906 L135.3281,515.4688 C135.3281,515.0313 135.3125,514.9063 135.2188,514.75 C135.0625,514.4844 134.7813,514.3438 134.4844,514.3438 C134.1875,514.3438 133.9844,514.4375 133.7656,514.75 L133.5938,514.6719 Z "/><text fill="#000000" font-family="sans-serif" font-size="12" lengthAdjust="spacingAndGlyphs" textLength="126" x="151.75" y="523.1543">OrganizationsRecord</text><line style="stroke: #A80036; stroke-width: 1.5;" x1="7" x2="390" y1="535" y2="535"/><line style="stroke: #A80036; stroke-width: 1.5;" x1="7" x2="390" y1="543" y2="543"/><ellipse cx="17" cy="554" fill="#84BE84" rx="3" ry="3" style="stroke: #038048; stroke-width: 1.0;"/><text fill="#000000" font-family="sans-serif" font-size="11" lengthAdjust="spacingAndGlyphs" textLength="105" x="26" y="557.2104">getOrganizations()</text><ellipse cx="17" cy="566.8047" fill="#84BE84" rx="3" ry="3" style="stroke: #038048; stroke-width: 1.0;"/><text fill="#000000" font-family="sans-serif" font-size="11" lengthAdjust="spacingAndGlyphs" textLength="145" x="26" y="570.0151">determinatePayPlatform()</text><ellipse cx="17" cy="579.6094" fill="#84BE84" rx="3" ry="3" style="stroke: #038048; stroke-width: 1.0;"/><text fill="#000000" font-family="sans-serif" font-size="11" lengthAdjust="spacingAndGlyphs" textLength="159" x="26" y="582.8198">determinateDelayPlatform()</text><ellipse cx="17" cy="592.4141" fill="#84BE84" rx="3" ry="3" style="stroke: #038048; stroke-width: 1.0;"/><text fill="#000000" font-family="sans-serif" font-size="11" lengthAdjust="spacingAndGlyphs" textLength="220" x="26" y="595.6245">calcMeanPayment(mapTotalPayments)</text><ellipse cx="17" cy="605.2188" fill="#84BE84" rx="3" ry="3" style="stroke: #038048; stroke-width: 1.0;"/><text fill="#000000" font-family="sans-serif" font-size="11" lengthAdjust="spacingAndGlyphs" textLength="359" x="26" y="608.4292">calcDeviationPayment(mapTotalPayments,mapMeanPayments)</text><ellipse cx="17" cy="618.0234" fill="#84BE84" rx="3" ry="3" style="stroke: #038048; stroke-width: 1.0;"/><text fill="#000000" font-family="sans-serif" font-size="11" lengthAdjust="spacingAndGlyphs" textLength="188" x="26" y="621.2339">calcMeanDelay(mapTotalDelays)</text><ellipse cx="17" cy="630.8281" fill="#84BE84" rx="3" ry="3" style="stroke: #038048; stroke-width: 1.0;"/><text fill="#000000" font-family="sans-serif" font-size="11" lengthAdjust="spacingAndGlyphs" textLength="311" x="26" y="634.0386">calcDeviationDelay(mapTotalDelays,mapMeanDelays)</text><ellipse cx="17" cy="643.6328" fill="#84BE84" rx="3" ry="3" style="stroke: #038048; stroke-width: 1.0;"/><text fill="#000000" font-family="sans-serif" font-size="11" lengthAdjust="spacingAndGlyphs" textLength="183" x="26" y="646.8433">determinateNormalDistribution()</text><!--MD5=[86c7c362de55a38b660185a1328fe18d]
class Organization--><rect fill="#FEFECE" filter="url(#f1v3ty6aw8pg26)" height="112.0234" id="Organization" style="stroke: #A80036; stroke-width: 1.5;" width="254" x="240.5" y="730"/><ellipse cx="325.25" cy="746" fill="#ADD1B2" rx="11" ry="11" style="stroke: #A80036; stroke-width: 1.0;"/><path d="M327.5938,741.6719 C326.6563,741.2344 326.0625,741.0938 325.1875,741.0938 C322.5625,741.0938 320.5625,743.1719 320.5625,745.8906 L320.5625,747.0156 C320.5625,749.5938 322.6719,751.4844 325.5625,751.4844 C326.7813,751.4844 327.9375,751.1875 328.6875,750.6406 C329.2656,750.2344 329.5938,749.7813 329.5938,749.3906 C329.5938,748.9375 329.2031,748.5469 328.7344,748.5469 C328.5156,748.5469 328.3125,748.625 328.125,748.8125 C327.6719,749.2969 327.6719,749.2969 327.4844,749.3906 C327.0625,749.6563 326.375,749.7813 325.6094,749.7813 C323.5625,749.7813 322.2656,748.6875 322.2656,746.9844 L322.2656,745.8906 C322.2656,744.1094 323.5156,742.7969 325.25,742.7969 C325.8281,742.7969 326.4375,742.9531 326.9063,743.2031 C327.3906,743.4844 327.5625,743.7031 327.6563,744.1094 C327.7188,744.5156 327.75,744.6406 327.8906,744.7656 C328.0313,744.9063 328.2656,745.0156 328.4844,745.0156 C328.75,745.0156 329.0156,744.875 329.1875,744.6563 C329.2969,744.5 329.3281,744.3125 329.3281,743.8906 L329.3281,742.4688 C329.3281,742.0313 329.3125,741.9063 329.2188,741.75 C329.0625,741.4844 328.7813,741.3438 328.4844,741.3438 C328.1875,741.3438 327.9844,741.4375 327.7656,741.75 L327.5938,741.6719 Z "/><text fill="#000000" font-family="sans-serif" font-size="12" lengthAdjust="spacingAndGlyphs" textLength="76" x="345.75" y="750.1543">Organization</text><line style="stroke: #A80036; stroke-width: 1.5;" x1="241.5" x2="493.5" y1="762" y2="762"/><rect fill="none" height="6" style="stroke: #C82930; stroke-width: 1.0;" width="6" x="248.5" y="770"/><text fill="#000000" font-family="sans-serif" font-size="11" lengthAdjust="spacingAndGlyphs" textLength="70" x="260.5" y="776.2104">String name</text><rect fill="none" height="6" style="stroke: #C82930; stroke-width: 1.0;" width="6" x="248.5" y="782.8047"/><text fill="#000000" font-family="sans-serif" font-size="11" lengthAdjust="spacingAndGlyphs" textLength="54" x="260.5" y="789.0151">String NIF</text><line style="stroke: #A80036; stroke-width: 1.5;" x1="241.5" x2="493.5" y1="795.6094" y2="795.6094"/><ellipse cx="251.5" cy="806.6094" fill="#84BE84" rx="3" ry="3" style="stroke: #038048; stroke-width: 1.0;"/><text fill="#000000" font-family="sans-serif" font-size="11" lengthAdjust="spacingAndGlyphs" textLength="226" x="260.5" y="809.8198">determinateDelayOrg(mapTotalDelays)</text><ellipse cx="251.5" cy="819.4141" fill="#84BE84" rx="3" ry="3" style="stroke: #038048; stroke-width: 1.0;"/><text fill="#000000" font-family="sans-serif" font-size="11" lengthAdjust="spacingAndGlyphs" textLength="228" x="260.5" y="822.6245">determinatePayOrg(mapTotalPayments)</text><ellipse cx="251.5" cy="832.2188" fill="#84BE84" rx="3" ry="3" style="stroke: #038048; stroke-width: 1.0;"/><text fill="#000000" font-family="sans-serif" font-size="11" lengthAdjust="spacingAndGlyphs" textLength="115" x="260.5" y="835.4292">calcCounterDelays()</text><!--MD5=[ba54b1997298830925be59f10364c919]
class PaymentTransactionList--><rect fill="#FEFECE" filter="url(#f1v3ty6aw8pg26)" height="60.8047" id="PaymentTransactionList" style="stroke: #A80036; stroke-width: 1.5;" width="174" x="280.5" y="919"/><ellipse cx="296.85" cy="935" fill="#ADD1B2" rx="11" ry="11" style="stroke: #A80036; stroke-width: 1.0;"/><path d="M299.1938,930.6719 C298.2563,930.2344 297.6625,930.0938 296.7875,930.0938 C294.1625,930.0938 292.1625,932.1719 292.1625,934.8906 L292.1625,936.0156 C292.1625,938.5938 294.2719,940.4844 297.1625,940.4844 C298.3813,940.4844 299.5375,940.1875 300.2875,939.6406 C300.8656,939.2344 301.1938,938.7813 301.1938,938.3906 C301.1938,937.9375 300.8031,937.5469 300.3344,937.5469 C300.1156,937.5469 299.9125,937.625 299.725,937.8125 C299.2719,938.2969 299.2719,938.2969 299.0844,938.3906 C298.6625,938.6563 297.975,938.7813 297.2094,938.7813 C295.1625,938.7813 293.8656,937.6875 293.8656,935.9844 L293.8656,934.8906 C293.8656,933.1094 295.1156,931.7969 296.85,931.7969 C297.4281,931.7969 298.0375,931.9531 298.5063,932.2031 C298.9906,932.4844 299.1625,932.7031 299.2563,933.1094 C299.3188,933.5156 299.35,933.6406 299.4906,933.7656 C299.6313,933.9063 299.8656,934.0156 300.0844,934.0156 C300.35,934.0156 300.6156,933.875 300.7875,933.6563 C300.8969,933.5 300.9281,933.3125 300.9281,932.8906 L300.9281,931.4688 C300.9281,931.0313 300.9125,930.9063 300.8188,930.75 C300.6625,930.4844 300.3813,930.3438 300.0844,930.3438 C299.7875,930.3438 299.5844,930.4375 299.3656,930.75 L299.1938,930.6719 Z "/><text fill="#000000" font-family="sans-serif" font-size="12" lengthAdjust="spacingAndGlyphs" textLength="139" x="311.15" y="939.1543">PaymentTransactionList</text><line style="stroke: #A80036; stroke-width: 1.5;" x1="281.5" x2="453.5" y1="951" y2="951"/><line style="stroke: #A80036; stroke-width: 1.5;" x1="281.5" x2="453.5" y1="959" y2="959"/><ellipse cx="291.5" cy="970" fill="#84BE84" rx="3" ry="3" style="stroke: #038048; stroke-width: 1.0;"/><text fill="#000000" font-family="sans-serif" font-size="11" lengthAdjust="spacingAndGlyphs" textLength="148" x="300.5" y="973.2104">getPaymentTransactions()</text><!--MD5=[b645a18afb25b7e5623af7186d8eb36f]
class PaymentTransaction--><rect fill="#FEFECE" filter="url(#f1v3ty6aw8pg26)" height="137.6328" id="PaymentTransaction" style="stroke: #A80036; stroke-width: 1.5;" width="201" x="267" y="1057"/><ellipse cx="304.5" cy="1073" fill="#ADD1B2" rx="11" ry="11" style="stroke: #A80036; stroke-width: 1.0;"/><path d="M306.8438,1068.6719 C305.9063,1068.2344 305.3125,1068.0938 304.4375,1068.0938 C301.8125,1068.0938 299.8125,1070.1719 299.8125,1072.8906 L299.8125,1074.0156 C299.8125,1076.5938 301.9219,1078.4844 304.8125,1078.4844 C306.0313,1078.4844 307.1875,1078.1875 307.9375,1077.6406 C308.5156,1077.2344 308.8438,1076.7813 308.8438,1076.3906 C308.8438,1075.9375 308.4531,1075.5469 307.9844,1075.5469 C307.7656,1075.5469 307.5625,1075.625 307.375,1075.8125 C306.9219,1076.2969 306.9219,1076.2969 306.7344,1076.3906 C306.3125,1076.6563 305.625,1076.7813 304.8594,1076.7813 C302.8125,1076.7813 301.5156,1075.6875 301.5156,1073.9844 L301.5156,1072.8906 C301.5156,1071.1094 302.7656,1069.7969 304.5,1069.7969 C305.0781,1069.7969 305.6875,1069.9531 306.1563,1070.2031 C306.6406,1070.4844 306.8125,1070.7031 306.9063,1071.1094 C306.9688,1071.5156 307,1071.6406 307.1406,1071.7656 C307.2813,1071.9063 307.5156,1072.0156 307.7344,1072.0156 C308,1072.0156 308.2656,1071.875 308.4375,1071.6563 C308.5469,1071.5 308.5781,1071.3125 308.5781,1070.8906 L308.5781,1069.4688 C308.5781,1069.0313 308.5625,1068.9063 308.4688,1068.75 C308.3125,1068.4844 308.0313,1068.3438 307.7344,1068.3438 C307.4375,1068.3438 307.2344,1068.4375 307.0156,1068.75 L306.8438,1068.6719 Z "/><text fill="#000000" font-family="sans-serif" font-size="12" lengthAdjust="spacingAndGlyphs" textLength="119" x="323.5" y="1077.1543">PaymentTransaction</text><line style="stroke: #A80036; stroke-width: 1.5;" x1="268" x2="467" y1="1089" y2="1089"/><rect fill="none" height="6" style="stroke: #C82930; stroke-width: 1.0;" width="6" x="275" y="1097"/><text fill="#000000" font-family="sans-serif" font-size="11" lengthAdjust="spacingAndGlyphs" textLength="47" x="287" y="1103.2104">String id</text><rect fill="none" height="6" style="stroke: #C82930; stroke-width: 1.0;" width="6" x="275" y="1109.8047"/><text fill="#000000" font-family="sans-serif" font-size="11" lengthAdjust="spacingAndGlyphs" textLength="82" x="287" y="1116.0151">Date endDate</text><rect fill="none" height="6" style="stroke: #C82930; stroke-width: 1.0;" width="6" x="275" y="1122.6094"/><text fill="#000000" font-family="sans-serif" font-size="11" lengthAdjust="spacingAndGlyphs" textLength="77" x="287" y="1128.8198">Double delay</text><rect fill="none" height="6" style="stroke: #C82930; stroke-width: 1.0;" width="6" x="275" y="1135.4141"/><text fill="#000000" font-family="sans-serif" font-size="11" lengthAdjust="spacingAndGlyphs" textLength="167" x="287" y="1141.6245">String workQualityDescription</text><line style="stroke: #A80036; stroke-width: 1.5;" x1="268" x2="467" y1="1148.2188" y2="1148.2188"/><ellipse cx="278" cy="1159.2188" fill="#84BE84" rx="3" ry="3" style="stroke: #038048; stroke-width: 1.0;"/><text fill="#000000" font-family="sans-serif" font-size="11" lengthAdjust="spacingAndGlyphs" textLength="110" x="287" y="1162.4292">getM_oFreelancer()</text><ellipse cx="278" cy="1172.0234" fill="#84BE84" rx="3" ry="3" style="stroke: #038048; stroke-width: 1.0;"/><text fill="#000000" font-family="sans-serif" font-size="11" lengthAdjust="spacingAndGlyphs" textLength="75" x="287" y="1175.2339">getM_oTask()</text><ellipse cx="278" cy="1184.8281" fill="#84BE84" rx="3" ry="3" style="stroke: #038048; stroke-width: 1.0;"/><text fill="#000000" font-family="sans-serif" font-size="11" lengthAdjust="spacingAndGlyphs" textLength="175" x="287" y="1188.0386">generatePayAmount(task,free)</text><!--MD5=[1f687b5315377fe49fca59b457947463]
class Freelancer--><rect fill="#FEFECE" filter="url(#f1v3ty6aw8pg26)" height="163.2422" id="Freelancer" style="stroke: #A80036; stroke-width: 1.5;" width="150" x="321.5" y="1461"/><ellipse cx="360.35" cy="1477" fill="#ADD1B2" rx="11" ry="11" style="stroke: #A80036; stroke-width: 1.0;"/><path d="M362.6938,1472.6719 C361.7563,1472.2344 361.1625,1472.0938 360.2875,1472.0938 C357.6625,1472.0938 355.6625,1474.1719 355.6625,1476.8906 L355.6625,1478.0156 C355.6625,1480.5938 357.7719,1482.4844 360.6625,1482.4844 C361.8813,1482.4844 363.0375,1482.1875 363.7875,1481.6406 C364.3656,1481.2344 364.6938,1480.7813 364.6938,1480.3906 C364.6938,1479.9375 364.3031,1479.5469 363.8344,1479.5469 C363.6156,1479.5469 363.4125,1479.625 363.225,1479.8125 C362.7719,1480.2969 362.7719,1480.2969 362.5844,1480.3906 C362.1625,1480.6563 361.475,1480.7813 360.7094,1480.7813 C358.6625,1480.7813 357.3656,1479.6875 357.3656,1477.9844 L357.3656,1476.8906 C357.3656,1475.1094 358.6156,1473.7969 360.35,1473.7969 C360.9281,1473.7969 361.5375,1473.9531 362.0063,1474.2031 C362.4906,1474.4844 362.6625,1474.7031 362.7563,1475.1094 C362.8188,1475.5156 362.85,1475.6406 362.9906,1475.7656 C363.1313,1475.9063 363.3656,1476.0156 363.5844,1476.0156 C363.85,1476.0156 364.1156,1475.875 364.2875,1475.6563 C364.3969,1475.5 364.4281,1475.3125 364.4281,1474.8906 L364.4281,1473.4688 C364.4281,1473.0313 364.4125,1472.9063 364.3188,1472.75 C364.1625,1472.4844 363.8813,1472.3438 363.5844,1472.3438 C363.2875,1472.3438 363.0844,1472.4375 362.8656,1472.75 L362.6938,1472.6719 Z "/><text fill="#000000" font-family="sans-serif" font-size="12" lengthAdjust="spacingAndGlyphs" textLength="65" x="379.65" y="1481.1543">Freelancer</text><line style="stroke: #A80036; stroke-width: 1.5;" x1="322.5" x2="470.5" y1="1493" y2="1493"/><rect fill="none" height="6" style="stroke: #C82930; stroke-width: 1.0;" width="6" x="329.5" y="1501"/><text fill="#000000" font-family="sans-serif" font-size="11" lengthAdjust="spacingAndGlyphs" textLength="47" x="341.5" y="1507.2104">String id</text><rect fill="none" height="6" style="stroke: #C82930; stroke-width: 1.0;" width="6" x="329.5" y="1513.8047"/><text fill="#000000" font-family="sans-serif" font-size="11" lengthAdjust="spacingAndGlyphs" textLength="70" x="341.5" y="1520.0151">String name</text><rect fill="none" height="6" style="stroke: #C82930; stroke-width: 1.0;" width="6" x="329.5" y="1526.6094"/><text fill="#000000" font-family="sans-serif" font-size="11" lengthAdjust="spacingAndGlyphs" textLength="124" x="341.5" y="1532.8198">String expertiseLevel</text><rect fill="none" height="6" style="stroke: #C82930; stroke-width: 1.0;" width="6" x="329.5" y="1539.4141"/><text fill="#000000" font-family="sans-serif" font-size="11" lengthAdjust="spacingAndGlyphs" textLength="69" x="341.5" y="1545.6245">String email</text><rect fill="none" height="6" style="stroke: #C82930; stroke-width: 1.0;" width="6" x="329.5" y="1552.2188"/><text fill="#000000" font-family="sans-serif" font-size="11" lengthAdjust="spacingAndGlyphs" textLength="54" x="341.5" y="1558.4292">String NIF</text><rect fill="none" height="6" style="stroke: #C82930; stroke-width: 1.0;" width="6" x="329.5" y="1565.0234"/><text fill="#000000" font-family="sans-serif" font-size="11" lengthAdjust="spacingAndGlyphs" textLength="64" x="341.5" y="1571.2339">String IBAN</text><rect fill="none" height="6" style="stroke: #C82930; stroke-width: 1.0;" width="6" x="329.5" y="1577.8281"/><text fill="#000000" font-family="sans-serif" font-size="11" lengthAdjust="spacingAndGlyphs" textLength="82" x="341.5" y="1584.0386">String address</text><rect fill="none" height="6" style="stroke: #C82930; stroke-width: 1.0;" width="6" x="329.5" y="1590.6328"/><text fill="#000000" font-family="sans-serif" font-size="11" lengthAdjust="spacingAndGlyphs" textLength="79" x="341.5" y="1596.8433">String country</text><line style="stroke: #A80036; stroke-width: 1.5;" x1="322.5" x2="470.5" y1="1603.4375" y2="1603.4375"/><ellipse cx="332.5" cy="1614.4375" fill="#84BE84" rx="3" ry="3" style="stroke: #038048; stroke-width: 1.0;"/><text fill="#000000" font-family="sans-serif" font-size="11" lengthAdjust="spacingAndGlyphs" textLength="37" x="341.5" y="1617.6479">getId()</text><!--MD5=[b34797a66dc35cbf1d65f7e3ca75530e]
class Task--><rect fill="#FEFECE" filter="url(#f1v3ty6aw8pg26)" height="112.0234" id="Task" style="stroke: #A80036; stroke-width: 1.5;" width="153" x="437" y="1272"/><ellipse cx="495.25" cy="1288" fill="#ADD1B2" rx="11" ry="11" style="stroke: #A80036; stroke-width: 1.0;"/><path d="M497.5938,1283.6719 C496.6563,1283.2344 496.0625,1283.0938 495.1875,1283.0938 C492.5625,1283.0938 490.5625,1285.1719 490.5625,1287.8906 L490.5625,1289.0156 C490.5625,1291.5938 492.6719,1293.4844 495.5625,1293.4844 C496.7813,1293.4844 497.9375,1293.1875 498.6875,1292.6406 C499.2656,1292.2344 499.5938,1291.7813 499.5938,1291.3906 C499.5938,1290.9375 499.2031,1290.5469 498.7344,1290.5469 C498.5156,1290.5469 498.3125,1290.625 498.125,1290.8125 C497.6719,1291.2969 497.6719,1291.2969 497.4844,1291.3906 C497.0625,1291.6563 496.375,1291.7813 495.6094,1291.7813 C493.5625,1291.7813 492.2656,1290.6875 492.2656,1288.9844 L492.2656,1287.8906 C492.2656,1286.1094 493.5156,1284.7969 495.25,1284.7969 C495.8281,1284.7969 496.4375,1284.9531 496.9063,1285.2031 C497.3906,1285.4844 497.5625,1285.7031 497.6563,1286.1094 C497.7188,1286.5156 497.75,1286.6406 497.8906,1286.7656 C498.0313,1286.9063 498.2656,1287.0156 498.4844,1287.0156 C498.75,1287.0156 499.0156,1286.875 499.1875,1286.6563 C499.2969,1286.5 499.3281,1286.3125 499.3281,1285.8906 L499.3281,1284.4688 C499.3281,1284.0313 499.3125,1283.9063 499.2188,1283.75 C499.0625,1283.4844 498.7813,1283.3438 498.4844,1283.3438 C498.1875,1283.3438 497.9844,1283.4375 497.7656,1283.75 L497.5938,1283.6719 Z "/><text fill="#000000" font-family="sans-serif" font-size="12" lengthAdjust="spacingAndGlyphs" textLength="28" x="515.75" y="1292.1543">Task</text><line style="stroke: #A80036; stroke-width: 1.5;" x1="438" x2="589" y1="1304" y2="1304"/><rect fill="none" height="6" style="stroke: #C82930; stroke-width: 1.0;" width="6" x="445" y="1312"/><text fill="#000000" font-family="sans-serif" font-size="11" lengthAdjust="spacingAndGlyphs" textLength="47" x="457" y="1318.2104">String id</text><rect fill="none" height="6" style="stroke: #C82930; stroke-width: 1.0;" width="6" x="445" y="1324.8047"/><text fill="#000000" font-family="sans-serif" font-size="11" lengthAdjust="spacingAndGlyphs" textLength="127" x="457" y="1331.0151">String briefDescription</text><rect fill="none" height="6" style="stroke: #C82930; stroke-width: 1.0;" width="6" x="445" y="1337.6094"/><text fill="#000000" font-family="sans-serif" font-size="11" lengthAdjust="spacingAndGlyphs" textLength="119" x="457" y="1343.8198">Integer timeDuration</text><rect fill="none" height="6" style="stroke: #C82930; stroke-width: 1.0;" width="6" x="445" y="1350.4141"/><text fill="#000000" font-family="sans-serif" font-size="11" lengthAdjust="spacingAndGlyphs" textLength="112" x="457" y="1356.6245">Double costPerHour</text><rect fill="none" height="6" style="stroke: #C82930; stroke-width: 1.0;" width="6" x="445" y="1363.2188"/><text fill="#000000" font-family="sans-serif" font-size="11" lengthAdjust="spacingAndGlyphs" textLength="112" x="457" y="1369.4292">String taskCategory</text><line style="stroke: #A80036; stroke-width: 1.5;" x1="438" x2="589" y1="1376.0234" y2="1376.0234"/><!--MD5=[1218de73bc3a601435331dd16635a548]
link CheckPerformanceIndicatorsUI to CheckPerformanceIndicatorsController--><path d="M334.5,54.06 C334.5,68.83 334.5,89.07 334.5,109.83 " fill="none" id="CheckPerformanceIndicatorsUI-&gt;CheckPerformanceIndicatorsController" style="stroke: #A80036; stroke-width: 1.0; stroke-dasharray: 7.0,7.0;"/><polygon fill="#A80036" points="334.5,114.83,338.5,105.83,334.5,109.83,330.5,105.83,334.5,114.83" style="stroke: #A80036; stroke-width: 1.0;"/><!--MD5=[74a9e55b3ecb8927afcc171d691a5f80]
link CheckPerformanceIndicatorsController to Platform--><path d="M270.084,291.15 C255.527,310.85 240.75,330.84 228.432,347.5 " fill="none" id="CheckPerformanceIndicatorsController-&gt;Platform" style="stroke: #A80036; stroke-width: 1.0; stroke-dasharray: 7.0,7.0;"/><polygon fill="#A80036" points="225.355,351.67,233.9205,346.8087,228.3264,347.6487,227.4864,342.0545,225.355,351.67" style="stroke: #A80036; stroke-width: 1.0;"/><!--MD5=[f5a0b2b7fa19dfbd2445943477d0c17d]
link CheckPerformanceIndicatorsController to OrganizationsRecord--><path d="M328.965,291.11 C324.167,333 315.212,383.27 298.5,426 C288.688,451.09 274.244,476.29 259.368,498.73 " fill="none" id="CheckPerformanceIndicatorsController-&gt;OrganizationsRecord" style="stroke: #A80036; stroke-width: 1.0; stroke-dasharray: 7.0,7.0;"/><polygon fill="#A80036" points="256.586,502.88,264.9073,497.6117,259.3602,498.7202,258.2516,493.173,256.586,502.88" style="stroke: #A80036; stroke-width: 1.0;"/><!--MD5=[56056174c092133e5cbe2366d8ab94e9]
link CheckPerformanceIndicatorsController to Organization--><path d="M365.261,291.23 C393.286,381.63 427.61,527.05 408.5,653 C404.852,677.042 397.668,702.734 390.319,725.002 " fill="none" id="CheckPerformanceIndicatorsController-&gt;Organization" style="stroke: #A80036; stroke-width: 1.0; stroke-dasharray: 7.0,7.0;"/><polygon fill="#A80036" points="388.65,729.993,395.2974,722.7258,390.2354,725.251,387.7102,720.1891,388.65,729.993" style="stroke: #A80036; stroke-width: 1.0;"/><!--MD5=[d9ffa4e24b0f90d8cdc0d9eb36306584]
link Platform to OrganizationsRecord--><path d="M198.5,426.06 C198.5,447.81 198.5,476.35 198.5,502.74 " fill="none" id="Platform-OrganizationsRecord" style="stroke: #A80036; stroke-width: 1.0;"/><text fill="#000000" font-family="sans-serif" font-size="13" lengthAdjust="spacingAndGlyphs" textLength="23" x="199.5" y="469.0669">has</text><polygon fill="#000000" points="206.5,478.1328,209.5,484.1328,212.5,478.1328,206.5,478.1328" style="stroke: #000000; stroke-width: 1.0;"/><text fill="#000000" font-family="sans-serif" font-size="13" lengthAdjust="spacingAndGlyphs" textLength="8" x="189.8375" y="445.5505">1</text><text fill="#000000" font-family="sans-serif" font-size="13" lengthAdjust="spacingAndGlyphs" textLength="8" x="190.1188" y="491.9043">1</text><!--MD5=[15b500351a20fc4c9aef6172f83f2b2a]
link OrganizationsRecord to Organization--><path d="M259.274,653.08 C280.093,678.456 303.002,706.381 322.362,729.98 " fill="none" id="OrganizationsRecord-Organization" style="stroke: #A80036; stroke-width: 1.0;"/><text fill="#000000" font-family="sans-serif" font-size="13" lengthAdjust="spacingAndGlyphs" textLength="23" x="294.5" y="696.0669">has</text><polygon fill="#000000" points="301.5,705.1328,304.5,711.1328,307.5,705.1328,301.5,705.1328" style="stroke: #000000; stroke-width: 1.0;"/><text fill="#000000" font-family="sans-serif" font-size="13" lengthAdjust="spacingAndGlyphs" textLength="8" x="257.1288" y="673.6472">1</text><text fill="#000000" font-family="sans-serif" font-size="13" lengthAdjust="spacingAndGlyphs" textLength="7" x="309.1303" y="718.9154">*</text><!--MD5=[322d55b5ad1658b7791494cedb432ac7]
link Organization to PaymentTransactionList--><path d="M367.5,842.127 C367.5,867.896 367.5,897.548 367.5,918.988 " fill="none" id="Organization-PaymentTransactionList" style="stroke: #A80036; stroke-width: 1.0;"/><text fill="#000000" font-family="sans-serif" font-size="13" lengthAdjust="spacingAndGlyphs" textLength="23" x="368.5" y="885.0669">has</text><polygon fill="#000000" points="375.5,894.1328,378.5,900.1328,381.5,894.1328,375.5,894.1328" style="stroke: #000000; stroke-width: 1.0;"/><text fill="#000000" font-family="sans-serif" font-size="13" lengthAdjust="spacingAndGlyphs" textLength="8" x="359.0125" y="861.9551">1</text><text fill="#000000" font-family="sans-serif" font-size="13" lengthAdjust="spacingAndGlyphs" textLength="8" x="358.625" y="907.7757">1</text><!--MD5=[ad9e6b825fedf9daad488846d3a92887]
link PaymentTransactionList to PaymentTransaction--><path d="M367.5,980.102 C367.5,1001.105 367.5,1030.175 367.5,1056.768 " fill="none" id="PaymentTransactionList-PaymentTransaction" style="stroke: #A80036; stroke-width: 1.0;"/><text fill="#000000" font-family="sans-serif" font-size="13" lengthAdjust="spacingAndGlyphs" textLength="103" x="368.5" y="1023.0669">has registries of</text><polygon fill="#000000" points="415.5,1032.1328,418.5,1038.1328,421.5,1032.1328,415.5,1032.1328" style="stroke: #000000; stroke-width: 1.0;"/><text fill="#000000" font-family="sans-serif" font-size="13" lengthAdjust="spacingAndGlyphs" textLength="8" x="358.675" y="1000.0613">1</text><text fill="#000000" font-family="sans-serif" font-size="13" lengthAdjust="spacingAndGlyphs" textLength="7" x="360.1391" y="1045.9477">*</text><!--MD5=[f6802b286771c18a16ea4be983074371]
link PaymentTransaction to Freelancer--><path d="M358.417,1195.16 C352.985,1247.103 348.537,1320.299 356.5,1384 C359.457,1407.652 364.819,1432.848 370.676,1455.992 " fill="none" id="PaymentTransaction-&gt;Freelancer" style="stroke: #A80036; stroke-width: 1.0;"/><polygon fill="#A80036" points="371.933,1460.898,373.5729,1451.1866,370.6914,1456.0546,365.8235,1453.1731,371.933,1460.898" style="stroke: #A80036; stroke-width: 1.0;"/><text fill="#000000" font-family="sans-serif" font-size="13" lengthAdjust="spacingAndGlyphs" textLength="61" x="357.5" y="1332.5669">relates to</text><text fill="#000000" font-family="sans-serif" font-size="13" lengthAdjust="spacingAndGlyphs" textLength="8" x="349.1291" y="1214.7977">1</text><text fill="#000000" font-family="sans-serif" font-size="13" lengthAdjust="spacingAndGlyphs" textLength="8" x="361.3888" y="1450.0244">1</text><!--MD5=[271ce7fefd7250ebaca83b70495774bd]
link PaymentTransaction to Task--><path d="M417.337,1195.269 C434.523,1218.813 453.621,1244.974 470.238,1267.737 " fill="none" id="PaymentTransaction-&gt;Task" style="stroke: #A80036; stroke-width: 1.0;"/><polygon fill="#A80036" points="473.311,1271.947,471.2368,1262.319,470.3636,1267.9081,464.7746,1267.0349,473.311,1271.947" style="stroke: #A80036; stroke-width: 1.0;"/><text fill="#000000" font-family="sans-serif" font-size="13" lengthAdjust="spacingAndGlyphs" textLength="61" x="449.5" y="1238.0669">relates to</text><text fill="#000000" font-family="sans-serif" font-size="13" lengthAdjust="spacingAndGlyphs" textLength="8" x="413.7058" y="1214.6768">1</text><text fill="#000000" font-family="sans-serif" font-size="13" lengthAdjust="spacingAndGlyphs" textLength="8" x="459.6493" y="1260.8782">1</text><!--MD5=[8853e9d83a8841c20c4ef075af762602]
link Task to Freelancer--><path d="M483.217,1384 C471.107,1405.996 456.874,1431.846 443.481,1456.172 " fill="none" id="Task-&gt;Freelancer" style="stroke: #A80036; stroke-width: 1.0;"/><polygon fill="#A80036" points="440.99,1460.695,448.8347,1454.7401,443.4015,1456.3149,441.8266,1450.8817,440.99,1460.695" style="stroke: #A80036; stroke-width: 1.0;"/><text fill="#000000" font-family="sans-serif" font-size="13" lengthAdjust="spacingAndGlyphs" textLength="88" x="465.5" y="1427.0669">is assigned to</text><text fill="#000000" font-family="sans-serif" font-size="13" lengthAdjust="spacingAndGlyphs" textLength="23" x="454.8636" y="1404.2098">1..*</text><text fill="#000000" font-family="sans-serif" font-size="13" lengthAdjust="spacingAndGlyphs" textLength="8" x="436.5961" y="1449.8033">1</text><!--MD5=[c890b805a4d9a945464c90411964b57d]
@startuml
class CheckPerformanceIndicatorsUI {
}

class CheckPerformanceIndicatorsController {
    +getOrganizations()
    +determinatePayOrg()
    +determinatePayPlatform()
    +calcMeanPayment()
    +calcDeviationPayment()
    +determinateDelayOrg()
    +determinateDelayPlatform()
    +calcMeanDelay()
    +calcDeviationDelay()
    +determinateNormalDistribution()
}

class Platform {
    -String designation
    +getOrganizationsRecord(
}


class OrganizationsRecord {
    +getOrganizations()
    +determinatePayPlatform()
    +determinateDelayPlatform()
    +calcMeanPayment(mapTotalPayments)
    +calcDeviationPayment(mapTotalPayments,mapMeanPayments)
    +calcMeanDelay(mapTotalDelays)
    +calcDeviationDelay(mapTotalDelays,mapMeanDelays)
    +determinateNormalDistribution()
}

class Organization {
    -String name
    -String NIF
    +determinateDelayOrg(mapTotalDelays)
    +determinatePayOrg(mapTotalPayments)
    +calcCounterDelays()
}

 
class PaymentTransactionList{
    +getPaymentTransactions()
}

 
class PaymentTransaction {
    -String id
    -Date endDate
    -Double delay
    -String workQualityDescription
    +getM_oFreelancer()
    +getM_oTask()
    +generatePayAmount(task,free)
}

class Freelancer {
    -String id
    -String name
    -String expertiseLevel
    -String email
    -String NIF
    -String IBAN
    -String address
    -String country
    +getId()
}

class Task {
  -String id
  -String briefDescription
  -Integer timeDuration
  -Double costPerHour
  -String taskCategory
}

CheckPerformanceIndicatorsUI ..> CheckPerformanceIndicatorsController
CheckPerformanceIndicatorsController ..> Platform
CheckPerformanceIndicatorsController ..> OrganizationsRecord
CheckPerformanceIndicatorsController ..> Organization


Platform "1" - - "1" OrganizationsRecord : has >
OrganizationsRecord "1" - - "*" Organization : has >
Organization "1" - - "1" PaymentTransactionList : has >
PaymentTransactionList "1" - - "*" PaymentTransaction : has registries of >
PaymentTransaction "1" - -> "1" Freelancer : relates to
PaymentTransaction "1" - -> "1" Task : relates to
Task "1..*" - -> "1" Freelancer : is assigned to
@enduml

PlantUML version 1.2020.12(Sat Jun 06 10:54:15 UTC 2020)
(GPL source distribution)
Java Runtime: Java(TM) SE Runtime Environment
JVM: Java HotSpot(TM) 64-Bit Server VM
Default Encoding: UTF-8
Language: en
Country: US
--></g></svg>