<?xml version="1.0" encoding="UTF-8" standalone="no"?><svg xmlns="http://www.w3.org/2000/svg" xmlns:xlink="http://www.w3.org/1999/xlink" contentScriptType="application/ecmascript" contentStyleType="text/css" height="1532px" preserveAspectRatio="none" style="width:675px;height:1532px;" version="1.1" viewBox="0 0 675 1532" width="675px" zoomAndPan="magnify"><defs><filter height="300%" id="f4qmm3rbdvj9u" width="300%" x="-1" y="-1"><feGaussianBlur result="blurOut" stdDeviation="2.0"/><feColorMatrix in="blurOut" result="blurOut2" type="matrix" values="0 0 0 0 0 0 0 0 0 0 0 0 0 0 0 0 0 0 .4 0"/><feOffset dx="4.0" dy="4.0" in="blurOut2" result="blurOut3"/><feBlend in="SourceGraphic" in2="blurOut3" mode="normal"/></filter></defs><g><!--MD5=[6d1d9f2cc80ac448b0efbfee2d40ed62]
class CheckPerformanceIndicatorsUI--><rect fill="#FEFECE" filter="url(#f4qmm3rbdvj9u)" height="48" id="CheckPerformanceIndicatorsUI" style="stroke: #A80036; stroke-width: 1.5;" width="216" x="281.5" y="6"/><ellipse cx="296.5" cy="22" fill="#ADD1B2" rx="11" ry="11" style="stroke: #A80036; stroke-width: 1.0;"/><path d="M298.8438,17.6719 C297.9063,17.2344 297.3125,17.0938 296.4375,17.0938 C293.8125,17.0938 291.8125,19.1719 291.8125,21.8906 L291.8125,23.0156 C291.8125,25.5938 293.9219,27.4844 296.8125,27.4844 C298.0313,27.4844 299.1875,27.1875 299.9375,26.6406 C300.5156,26.2344 300.8438,25.7813 300.8438,25.3906 C300.8438,24.9375 300.4531,24.5469 299.9844,24.5469 C299.7656,24.5469 299.5625,24.625 299.375,24.8125 C298.9219,25.2969 298.9219,25.2969 298.7344,25.3906 C298.3125,25.6563 297.625,25.7813 296.8594,25.7813 C294.8125,25.7813 293.5156,24.6875 293.5156,22.9844 L293.5156,21.8906 C293.5156,20.1094 294.7656,18.7969 296.5,18.7969 C297.0781,18.7969 297.6875,18.9531 298.1563,19.2031 C298.6406,19.4844 298.8125,19.7031 298.9063,20.1094 C298.9688,20.5156 299,20.6406 299.1406,20.7656 C299.2813,20.9063 299.5156,21.0156 299.7344,21.0156 C300,21.0156 300.2656,20.875 300.4375,20.6563 C300.5469,20.5 300.5781,20.3125 300.5781,19.8906 L300.5781,18.4688 C300.5781,18.0313 300.5625,17.9063 300.4688,17.75 C300.3125,17.4844 300.0313,17.3438 299.7344,17.3438 C299.4375,17.3438 299.2344,17.4375 299.0156,17.75 L298.8438,17.6719 Z "/><text fill="#000000" font-family="sans-serif" font-size="12" lengthAdjust="spacingAndGlyphs" textLength="184" x="310.5" y="26.1543">CheckPerformanceIndicatorsUI</text><line style="stroke: #A80036; stroke-width: 1.5;" x1="282.5" x2="496.5" y1="38" y2="38"/><line style="stroke: #A80036; stroke-width: 1.5;" x1="282.5" x2="496.5" y1="46" y2="46"/><!--MD5=[7bbfd4fa480b5af4c92f2a394ac4429f]
class CheckPerformanceIndicatorsController--><rect fill="#FEFECE" filter="url(#f4qmm3rbdvj9u)" height="86.4141" id="CheckPerformanceIndicatorsController" style="stroke: #A80036; stroke-width: 1.5;" width="263" x="258" y="115"/><ellipse cx="273" cy="131" fill="#ADD1B2" rx="11" ry="11" style="stroke: #A80036; stroke-width: 1.0;"/><path d="M275.3438,126.6719 C274.4063,126.2344 273.8125,126.0938 272.9375,126.0938 C270.3125,126.0938 268.3125,128.1719 268.3125,130.8906 L268.3125,132.0156 C268.3125,134.5938 270.4219,136.4844 273.3125,136.4844 C274.5313,136.4844 275.6875,136.1875 276.4375,135.6406 C277.0156,135.2344 277.3438,134.7813 277.3438,134.3906 C277.3438,133.9375 276.9531,133.5469 276.4844,133.5469 C276.2656,133.5469 276.0625,133.625 275.875,133.8125 C275.4219,134.2969 275.4219,134.2969 275.2344,134.3906 C274.8125,134.6563 274.125,134.7813 273.3594,134.7813 C271.3125,134.7813 270.0156,133.6875 270.0156,131.9844 L270.0156,130.8906 C270.0156,129.1094 271.2656,127.7969 273,127.7969 C273.5781,127.7969 274.1875,127.9531 274.6563,128.2031 C275.1406,128.4844 275.3125,128.7031 275.4063,129.1094 C275.4688,129.5156 275.5,129.6406 275.6406,129.7656 C275.7813,129.9063 276.0156,130.0156 276.2344,130.0156 C276.5,130.0156 276.7656,129.875 276.9375,129.6563 C277.0469,129.5 277.0781,129.3125 277.0781,128.8906 L277.0781,127.4688 C277.0781,127.0313 277.0625,126.9063 276.9688,126.75 C276.8125,126.4844 276.5313,126.3438 276.2344,126.3438 C275.9375,126.3438 275.7344,126.4375 275.5156,126.75 L275.3438,126.6719 Z "/><text fill="#000000" font-family="sans-serif" font-size="12" lengthAdjust="spacingAndGlyphs" textLength="231" x="287" y="135.1543">CheckPerformanceIndicatorsController</text><line style="stroke: #A80036; stroke-width: 1.5;" x1="259" x2="520" y1="147" y2="147"/><line style="stroke: #A80036; stroke-width: 1.5;" x1="259" x2="520" y1="155" y2="155"/><ellipse cx="269" cy="166" fill="#84BE84" rx="3" ry="3" style="stroke: #038048; stroke-width: 1.0;"/><text fill="#000000" font-family="sans-serif" font-size="11" lengthAdjust="spacingAndGlyphs" textLength="105" x="278" y="169.2104">getOrganizations()</text><ellipse cx="269" cy="178.8047" fill="#84BE84" rx="3" ry="3" style="stroke: #038048; stroke-width: 1.0;"/><text fill="#000000" font-family="sans-serif" font-size="11" lengthAdjust="spacingAndGlyphs" textLength="153" x="278" y="182.0151">calcPerformanceStatistics()</text><ellipse cx="269" cy="191.6094" fill="#84BE84" rx="3" ry="3" style="stroke: #038048; stroke-width: 1.0;"/><text fill="#000000" font-family="sans-serif" font-size="11" lengthAdjust="spacingAndGlyphs" textLength="183" x="278" y="194.8198">determinateNormalDistribution()</text><!--MD5=[99b8db98afdc2c8404e39242ef4c1e65]
class Platform--><rect fill="#FEFECE" filter="url(#f4qmm3rbdvj9u)" height="73.6094" id="Platform" style="stroke: #A80036; stroke-width: 1.5;" width="166" x="130.5" y="262"/><ellipse cx="185.25" cy="278" fill="#ADD1B2" rx="11" ry="11" style="stroke: #A80036; stroke-width: 1.0;"/><path d="M187.5938,273.6719 C186.6563,273.2344 186.0625,273.0938 185.1875,273.0938 C182.5625,273.0938 180.5625,275.1719 180.5625,277.8906 L180.5625,279.0156 C180.5625,281.5938 182.6719,283.4844 185.5625,283.4844 C186.7813,283.4844 187.9375,283.1875 188.6875,282.6406 C189.2656,282.2344 189.5938,281.7813 189.5938,281.3906 C189.5938,280.9375 189.2031,280.5469 188.7344,280.5469 C188.5156,280.5469 188.3125,280.625 188.125,280.8125 C187.6719,281.2969 187.6719,281.2969 187.4844,281.3906 C187.0625,281.6563 186.375,281.7813 185.6094,281.7813 C183.5625,281.7813 182.2656,280.6875 182.2656,278.9844 L182.2656,277.8906 C182.2656,276.1094 183.5156,274.7969 185.25,274.7969 C185.8281,274.7969 186.4375,274.9531 186.9063,275.2031 C187.3906,275.4844 187.5625,275.7031 187.6563,276.1094 C187.7188,276.5156 187.75,276.6406 187.8906,276.7656 C188.0313,276.9063 188.2656,277.0156 188.4844,277.0156 C188.75,277.0156 189.0156,276.875 189.1875,276.6563 C189.2969,276.5 189.3281,276.3125 189.3281,275.8906 L189.3281,274.4688 C189.3281,274.0313 189.3125,273.9063 189.2188,273.75 C189.0625,273.4844 188.7813,273.3438 188.4844,273.3438 C188.1875,273.3438 187.9844,273.4375 187.7656,273.75 L187.5938,273.6719 Z "/><text fill="#000000" font-family="sans-serif" font-size="12" lengthAdjust="spacingAndGlyphs" textLength="48" x="205.75" y="282.1543">Platform</text><line style="stroke: #A80036; stroke-width: 1.5;" x1="131.5" x2="295.5" y1="294" y2="294"/><rect fill="none" height="6" style="stroke: #C82930; stroke-width: 1.0;" width="6" x="138.5" y="302"/><text fill="#000000" font-family="sans-serif" font-size="11" lengthAdjust="spacingAndGlyphs" textLength="103" x="150.5" y="308.2104">String designation</text><line style="stroke: #A80036; stroke-width: 1.5;" x1="131.5" x2="295.5" y1="314.8047" y2="314.8047"/><ellipse cx="141.5" cy="325.8047" fill="#84BE84" rx="3" ry="3" style="stroke: #038048; stroke-width: 1.0;"/><text fill="#000000" font-family="sans-serif" font-size="11" lengthAdjust="spacingAndGlyphs" textLength="140" x="150.5" y="329.0151">getOrganizationsRecord(</text><!--MD5=[759d9d4bd7fe37fb1c4b72776400893c]
class OrganizationsRecord--><rect fill="#FEFECE" filter="url(#f4qmm3rbdvj9u)" height="137.6328" id="OrganizationsRecord" style="stroke: #A80036; stroke-width: 1.5;" width="385" x="6" y="413"/><ellipse cx="131.25" cy="429" fill="#ADD1B2" rx="11" ry="11" style="stroke: #A80036; stroke-width: 1.0;"/><path d="M133.5938,424.6719 C132.6563,424.2344 132.0625,424.0938 131.1875,424.0938 C128.5625,424.0938 126.5625,426.1719 126.5625,428.8906 L126.5625,430.0156 C126.5625,432.5938 128.6719,434.4844 131.5625,434.4844 C132.7813,434.4844 133.9375,434.1875 134.6875,433.6406 C135.2656,433.2344 135.5938,432.7813 135.5938,432.3906 C135.5938,431.9375 135.2031,431.5469 134.7344,431.5469 C134.5156,431.5469 134.3125,431.625 134.125,431.8125 C133.6719,432.2969 133.6719,432.2969 133.4844,432.3906 C133.0625,432.6563 132.375,432.7813 131.6094,432.7813 C129.5625,432.7813 128.2656,431.6875 128.2656,429.9844 L128.2656,428.8906 C128.2656,427.1094 129.5156,425.7969 131.25,425.7969 C131.8281,425.7969 132.4375,425.9531 132.9063,426.2031 C133.3906,426.4844 133.5625,426.7031 133.6563,427.1094 C133.7188,427.5156 133.75,427.6406 133.8906,427.7656 C134.0313,427.9063 134.2656,428.0156 134.4844,428.0156 C134.75,428.0156 135.0156,427.875 135.1875,427.6563 C135.2969,427.5 135.3281,427.3125 135.3281,426.8906 L135.3281,425.4688 C135.3281,425.0313 135.3125,424.9063 135.2188,424.75 C135.0625,424.4844 134.7813,424.3438 134.4844,424.3438 C134.1875,424.3438 133.9844,424.4375 133.7656,424.75 L133.5938,424.6719 Z "/><text fill="#000000" font-family="sans-serif" font-size="12" lengthAdjust="spacingAndGlyphs" textLength="126" x="151.75" y="433.1543">OrganizationsRecord</text><line style="stroke: #A80036; stroke-width: 1.5;" x1="7" x2="390" y1="445" y2="445"/><line style="stroke: #A80036; stroke-width: 1.5;" x1="7" x2="390" y1="453" y2="453"/><ellipse cx="17" cy="464" fill="#84BE84" rx="3" ry="3" style="stroke: #038048; stroke-width: 1.0;"/><text fill="#000000" font-family="sans-serif" font-size="11" lengthAdjust="spacingAndGlyphs" textLength="105" x="26" y="467.2104">getOrganizations()</text><ellipse cx="17" cy="476.8047" fill="#84BE84" rx="3" ry="3" style="stroke: #038048; stroke-width: 1.0;"/><text fill="#000000" font-family="sans-serif" font-size="11" lengthAdjust="spacingAndGlyphs" textLength="145" x="26" y="480.0151">determinatePayPlatform()</text><ellipse cx="17" cy="489.6094" fill="#84BE84" rx="3" ry="3" style="stroke: #038048; stroke-width: 1.0;"/><text fill="#000000" font-family="sans-serif" font-size="11" lengthAdjust="spacingAndGlyphs" textLength="159" x="26" y="492.8198">determinateDelayPlatform()</text><ellipse cx="17" cy="502.4141" fill="#84BE84" rx="3" ry="3" style="stroke: #038048; stroke-width: 1.0;"/><text fill="#000000" font-family="sans-serif" font-size="11" lengthAdjust="spacingAndGlyphs" textLength="220" x="26" y="505.6245">calcMeanPayment(mapTotalPayments)</text><ellipse cx="17" cy="515.2188" fill="#84BE84" rx="3" ry="3" style="stroke: #038048; stroke-width: 1.0;"/><text fill="#000000" font-family="sans-serif" font-size="11" lengthAdjust="spacingAndGlyphs" textLength="359" x="26" y="518.4292">calcDeviationPayment(mapTotalPayments,mapMeanPayments)</text><ellipse cx="17" cy="528.0234" fill="#84BE84" rx="3" ry="3" style="stroke: #038048; stroke-width: 1.0;"/><text fill="#000000" font-family="sans-serif" font-size="11" lengthAdjust="spacingAndGlyphs" textLength="188" x="26" y="531.2339">calcMeanDelay(mapTotalDelays)</text><ellipse cx="17" cy="540.8281" fill="#84BE84" rx="3" ry="3" style="stroke: #038048; stroke-width: 1.0;"/><text fill="#000000" font-family="sans-serif" font-size="11" lengthAdjust="spacingAndGlyphs" textLength="311" x="26" y="544.0386">calcDeviationDelay(mapTotalDelays,mapMeanDelays)</text><!--MD5=[86c7c362de55a38b660185a1328fe18d]
class Organization--><rect fill="#FEFECE" filter="url(#f4qmm3rbdvj9u)" height="99.2188" id="Organization" style="stroke: #A80036; stroke-width: 1.5;" width="254" x="208.5" y="628"/><ellipse cx="293.25" cy="644" fill="#ADD1B2" rx="11" ry="11" style="stroke: #A80036; stroke-width: 1.0;"/><path d="M295.5938,639.6719 C294.6563,639.2344 294.0625,639.0938 293.1875,639.0938 C290.5625,639.0938 288.5625,641.1719 288.5625,643.8906 L288.5625,645.0156 C288.5625,647.5938 290.6719,649.4844 293.5625,649.4844 C294.7813,649.4844 295.9375,649.1875 296.6875,648.6406 C297.2656,648.2344 297.5938,647.7813 297.5938,647.3906 C297.5938,646.9375 297.2031,646.5469 296.7344,646.5469 C296.5156,646.5469 296.3125,646.625 296.125,646.8125 C295.6719,647.2969 295.6719,647.2969 295.4844,647.3906 C295.0625,647.6563 294.375,647.7813 293.6094,647.7813 C291.5625,647.7813 290.2656,646.6875 290.2656,644.9844 L290.2656,643.8906 C290.2656,642.1094 291.5156,640.7969 293.25,640.7969 C293.8281,640.7969 294.4375,640.9531 294.9063,641.2031 C295.3906,641.4844 295.5625,641.7031 295.6563,642.1094 C295.7188,642.5156 295.75,642.6406 295.8906,642.7656 C296.0313,642.9063 296.2656,643.0156 296.4844,643.0156 C296.75,643.0156 297.0156,642.875 297.1875,642.6563 C297.2969,642.5 297.3281,642.3125 297.3281,641.8906 L297.3281,640.4688 C297.3281,640.0313 297.3125,639.9063 297.2188,639.75 C297.0625,639.4844 296.7813,639.3438 296.4844,639.3438 C296.1875,639.3438 295.9844,639.4375 295.7656,639.75 L295.5938,639.6719 Z "/><text fill="#000000" font-family="sans-serif" font-size="12" lengthAdjust="spacingAndGlyphs" textLength="76" x="313.75" y="648.1543">Organization</text><line style="stroke: #A80036; stroke-width: 1.5;" x1="209.5" x2="461.5" y1="660" y2="660"/><rect fill="none" height="6" style="stroke: #C82930; stroke-width: 1.0;" width="6" x="216.5" y="668"/><text fill="#000000" font-family="sans-serif" font-size="11" lengthAdjust="spacingAndGlyphs" textLength="70" x="228.5" y="674.2104">String name</text><rect fill="none" height="6" style="stroke: #C82930; stroke-width: 1.0;" width="6" x="216.5" y="680.8047"/><text fill="#000000" font-family="sans-serif" font-size="11" lengthAdjust="spacingAndGlyphs" textLength="54" x="228.5" y="687.0151">String NIF</text><line style="stroke: #A80036; stroke-width: 1.5;" x1="209.5" x2="461.5" y1="693.6094" y2="693.6094"/><ellipse cx="219.5" cy="704.6094" fill="#84BE84" rx="3" ry="3" style="stroke: #038048; stroke-width: 1.0;"/><text fill="#000000" font-family="sans-serif" font-size="11" lengthAdjust="spacingAndGlyphs" textLength="226" x="228.5" y="707.8198">determinateDelayOrg(mapTotalDelays)</text><ellipse cx="219.5" cy="717.4141" fill="#84BE84" rx="3" ry="3" style="stroke: #038048; stroke-width: 1.0;"/><text fill="#000000" font-family="sans-serif" font-size="11" lengthAdjust="spacingAndGlyphs" textLength="228" x="228.5" y="720.6245">determinatePayOrg(mapTotalPayments)</text><!--MD5=[ba54b1997298830925be59f10364c919]
class PaymentTransactionList--><rect fill="#FEFECE" filter="url(#f4qmm3rbdvj9u)" height="60.8047" id="PaymentTransactionList" style="stroke: #A80036; stroke-width: 1.5;" width="187" x="267" y="804"/><ellipse cx="289.2" cy="820" fill="#ADD1B2" rx="11" ry="11" style="stroke: #A80036; stroke-width: 1.0;"/><path d="M291.5438,815.6719 C290.6063,815.2344 290.0125,815.0938 289.1375,815.0938 C286.5125,815.0938 284.5125,817.1719 284.5125,819.8906 L284.5125,821.0156 C284.5125,823.5938 286.6219,825.4844 289.5125,825.4844 C290.7313,825.4844 291.8875,825.1875 292.6375,824.6406 C293.2156,824.2344 293.5438,823.7813 293.5438,823.3906 C293.5438,822.9375 293.1531,822.5469 292.6844,822.5469 C292.4656,822.5469 292.2625,822.625 292.075,822.8125 C291.6219,823.2969 291.6219,823.2969 291.4344,823.3906 C291.0125,823.6563 290.325,823.7813 289.5594,823.7813 C287.5125,823.7813 286.2156,822.6875 286.2156,820.9844 L286.2156,819.8906 C286.2156,818.1094 287.4656,816.7969 289.2,816.7969 C289.7781,816.7969 290.3875,816.9531 290.8563,817.2031 C291.3406,817.4844 291.5125,817.7031 291.6063,818.1094 C291.6688,818.5156 291.7,818.6406 291.8406,818.7656 C291.9813,818.9063 292.2156,819.0156 292.4344,819.0156 C292.7,819.0156 292.9656,818.875 293.1375,818.6563 C293.2469,818.5 293.2781,818.3125 293.2781,817.8906 L293.2781,816.4688 C293.2781,816.0313 293.2625,815.9063 293.1688,815.75 C293.0125,815.4844 292.7313,815.3438 292.4344,815.3438 C292.1375,815.3438 291.9344,815.4375 291.7156,815.75 L291.5438,815.6719 Z "/><text fill="#000000" font-family="sans-serif" font-size="12" lengthAdjust="spacingAndGlyphs" textLength="139" x="304.8" y="824.1543">PaymentTransactionList</text><line style="stroke: #A80036; stroke-width: 1.5;" x1="268" x2="453" y1="836" y2="836"/><line style="stroke: #A80036; stroke-width: 1.5;" x1="268" x2="453" y1="844" y2="844"/><ellipse cx="278" cy="855" fill="#84BE84" rx="3" ry="3" style="stroke: #038048; stroke-width: 1.0;"/><text fill="#000000" font-family="sans-serif" font-size="11" lengthAdjust="spacingAndGlyphs" textLength="161" x="287" y="858.2104">getPaymentTransactionList()</text><!--MD5=[b645a18afb25b7e5623af7186d8eb36f]
class PaymentTransaction--><rect fill="#FEFECE" filter="url(#f4qmm3rbdvj9u)" height="150.4375" id="PaymentTransaction" style="stroke: #A80036; stroke-width: 1.5;" width="209" x="337" y="942"/><ellipse cx="378.1" cy="958" fill="#ADD1B2" rx="11" ry="11" style="stroke: #A80036; stroke-width: 1.0;"/><path d="M380.4438,953.6719 C379.5063,953.2344 378.9125,953.0938 378.0375,953.0938 C375.4125,953.0938 373.4125,955.1719 373.4125,957.8906 L373.4125,959.0156 C373.4125,961.5938 375.5219,963.4844 378.4125,963.4844 C379.6313,963.4844 380.7875,963.1875 381.5375,962.6406 C382.1156,962.2344 382.4438,961.7813 382.4438,961.3906 C382.4438,960.9375 382.0531,960.5469 381.5844,960.5469 C381.3656,960.5469 381.1625,960.625 380.975,960.8125 C380.5219,961.2969 380.5219,961.2969 380.3344,961.3906 C379.9125,961.6563 379.225,961.7813 378.4594,961.7813 C376.4125,961.7813 375.1156,960.6875 375.1156,958.9844 L375.1156,957.8906 C375.1156,956.1094 376.3656,954.7969 378.1,954.7969 C378.6781,954.7969 379.2875,954.9531 379.7563,955.2031 C380.2406,955.4844 380.4125,955.7031 380.5063,956.1094 C380.5688,956.5156 380.6,956.6406 380.7406,956.7656 C380.8813,956.9063 381.1156,957.0156 381.3344,957.0156 C381.6,957.0156 381.8656,956.875 382.0375,956.6563 C382.1469,956.5 382.1781,956.3125 382.1781,955.8906 L382.1781,954.4688 C382.1781,954.0313 382.1625,953.9063 382.0688,953.75 C381.9125,953.4844 381.6313,953.3438 381.3344,953.3438 C381.0375,953.3438 380.8344,953.4375 380.6156,953.75 L380.4438,953.6719 Z "/><text fill="#000000" font-family="sans-serif" font-size="12" lengthAdjust="spacingAndGlyphs" textLength="119" x="397.9" y="962.1543">PaymentTransaction</text><line style="stroke: #A80036; stroke-width: 1.5;" x1="338" x2="545" y1="974" y2="974"/><rect fill="none" height="6" style="stroke: #C82930; stroke-width: 1.0;" width="6" x="345" y="982"/><text fill="#000000" font-family="sans-serif" font-size="11" lengthAdjust="spacingAndGlyphs" textLength="47" x="357" y="988.2104">String id</text><rect fill="none" height="6" style="stroke: #C82930; stroke-width: 1.0;" width="6" x="345" y="994.8047"/><text fill="#000000" font-family="sans-serif" font-size="11" lengthAdjust="spacingAndGlyphs" textLength="82" x="357" y="1001.0151">Date endDate</text><rect fill="none" height="6" style="stroke: #C82930; stroke-width: 1.0;" width="6" x="345" y="1007.6094"/><text fill="#000000" font-family="sans-serif" font-size="11" lengthAdjust="spacingAndGlyphs" textLength="77" x="357" y="1013.8198">Double delay</text><rect fill="none" height="6" style="stroke: #C82930; stroke-width: 1.0;" width="6" x="345" y="1020.4141"/><text fill="#000000" font-family="sans-serif" font-size="11" lengthAdjust="spacingAndGlyphs" textLength="167" x="357" y="1026.6245">String workQualityDescription</text><line style="stroke: #A80036; stroke-width: 1.5;" x1="338" x2="545" y1="1033.2188" y2="1033.2188"/><ellipse cx="348" cy="1044.2188" fill="#84BE84" rx="3" ry="3" style="stroke: #038048; stroke-width: 1.0;"/><text fill="#000000" font-family="sans-serif" font-size="11" lengthAdjust="spacingAndGlyphs" textLength="110" x="357" y="1047.4292">getM_oFreelancer()</text><ellipse cx="348" cy="1057.0234" fill="#84BE84" rx="3" ry="3" style="stroke: #038048; stroke-width: 1.0;"/><text fill="#000000" font-family="sans-serif" font-size="11" lengthAdjust="spacingAndGlyphs" textLength="75" x="357" y="1060.2339">getM_oTask()</text><ellipse cx="348" cy="1069.8281" fill="#84BE84" rx="3" ry="3" style="stroke: #038048; stroke-width: 1.0;"/><text fill="#000000" font-family="sans-serif" font-size="11" lengthAdjust="spacingAndGlyphs" textLength="175" x="357" y="1073.0386">generatePayAmount(task,free)</text><ellipse cx="348" cy="1082.6328" fill="#84BE84" rx="3" ry="3" style="stroke: #038048; stroke-width: 1.0;"/><text fill="#000000" font-family="sans-serif" font-size="11" lengthAdjust="spacingAndGlyphs" textLength="183" x="357" y="1085.8433">determinateNormalDistribution()</text><!--MD5=[1f687b5315377fe49fca59b457947463]
class Freelancer--><rect fill="#FEFECE" filter="url(#f4qmm3rbdvj9u)" height="163.2422" id="Freelancer" style="stroke: #A80036; stroke-width: 1.5;" width="150" x="395.5" y="1358"/><ellipse cx="434.35" cy="1374" fill="#ADD1B2" rx="11" ry="11" style="stroke: #A80036; stroke-width: 1.0;"/><path d="M436.6938,1369.6719 C435.7563,1369.2344 435.1625,1369.0938 434.2875,1369.0938 C431.6625,1369.0938 429.6625,1371.1719 429.6625,1373.8906 L429.6625,1375.0156 C429.6625,1377.5938 431.7719,1379.4844 434.6625,1379.4844 C435.8813,1379.4844 437.0375,1379.1875 437.7875,1378.6406 C438.3656,1378.2344 438.6938,1377.7813 438.6938,1377.3906 C438.6938,1376.9375 438.3031,1376.5469 437.8344,1376.5469 C437.6156,1376.5469 437.4125,1376.625 437.225,1376.8125 C436.7719,1377.2969 436.7719,1377.2969 436.5844,1377.3906 C436.1625,1377.6563 435.475,1377.7813 434.7094,1377.7813 C432.6625,1377.7813 431.3656,1376.6875 431.3656,1374.9844 L431.3656,1373.8906 C431.3656,1372.1094 432.6156,1370.7969 434.35,1370.7969 C434.9281,1370.7969 435.5375,1370.9531 436.0063,1371.2031 C436.4906,1371.4844 436.6625,1371.7031 436.7563,1372.1094 C436.8188,1372.5156 436.85,1372.6406 436.9906,1372.7656 C437.1313,1372.9063 437.3656,1373.0156 437.5844,1373.0156 C437.85,1373.0156 438.1156,1372.875 438.2875,1372.6563 C438.3969,1372.5 438.4281,1372.3125 438.4281,1371.8906 L438.4281,1370.4688 C438.4281,1370.0313 438.4125,1369.9063 438.3188,1369.75 C438.1625,1369.4844 437.8813,1369.3438 437.5844,1369.3438 C437.2875,1369.3438 437.0844,1369.4375 436.8656,1369.75 L436.6938,1369.6719 Z "/><text fill="#000000" font-family="sans-serif" font-size="12" lengthAdjust="spacingAndGlyphs" textLength="65" x="453.65" y="1378.1543">Freelancer</text><line style="stroke: #A80036; stroke-width: 1.5;" x1="396.5" x2="544.5" y1="1390" y2="1390"/><rect fill="none" height="6" style="stroke: #C82930; stroke-width: 1.0;" width="6" x="403.5" y="1398"/><text fill="#000000" font-family="sans-serif" font-size="11" lengthAdjust="spacingAndGlyphs" textLength="47" x="415.5" y="1404.2104">String id</text><rect fill="none" height="6" style="stroke: #C82930; stroke-width: 1.0;" width="6" x="403.5" y="1410.8047"/><text fill="#000000" font-family="sans-serif" font-size="11" lengthAdjust="spacingAndGlyphs" textLength="70" x="415.5" y="1417.0151">String name</text><rect fill="none" height="6" style="stroke: #C82930; stroke-width: 1.0;" width="6" x="403.5" y="1423.6094"/><text fill="#000000" font-family="sans-serif" font-size="11" lengthAdjust="spacingAndGlyphs" textLength="124" x="415.5" y="1429.8198">String expertiseLevel</text><rect fill="none" height="6" style="stroke: #C82930; stroke-width: 1.0;" width="6" x="403.5" y="1436.4141"/><text fill="#000000" font-family="sans-serif" font-size="11" lengthAdjust="spacingAndGlyphs" textLength="69" x="415.5" y="1442.6245">String email</text><rect fill="none" height="6" style="stroke: #C82930; stroke-width: 1.0;" width="6" x="403.5" y="1449.2188"/><text fill="#000000" font-family="sans-serif" font-size="11" lengthAdjust="spacingAndGlyphs" textLength="54" x="415.5" y="1455.4292">String NIF</text><rect fill="none" height="6" style="stroke: #C82930; stroke-width: 1.0;" width="6" x="403.5" y="1462.0234"/><text fill="#000000" font-family="sans-serif" font-size="11" lengthAdjust="spacingAndGlyphs" textLength="64" x="415.5" y="1468.2339">String IBAN</text><rect fill="none" height="6" style="stroke: #C82930; stroke-width: 1.0;" width="6" x="403.5" y="1474.8281"/><text fill="#000000" font-family="sans-serif" font-size="11" lengthAdjust="spacingAndGlyphs" textLength="82" x="415.5" y="1481.0386">String address</text><rect fill="none" height="6" style="stroke: #C82930; stroke-width: 1.0;" width="6" x="403.5" y="1487.6328"/><text fill="#000000" font-family="sans-serif" font-size="11" lengthAdjust="spacingAndGlyphs" textLength="79" x="415.5" y="1493.8433">String country</text><line style="stroke: #A80036; stroke-width: 1.5;" x1="396.5" x2="544.5" y1="1500.4375" y2="1500.4375"/><ellipse cx="406.5" cy="1511.4375" fill="#84BE84" rx="3" ry="3" style="stroke: #038048; stroke-width: 1.0;"/><text fill="#000000" font-family="sans-serif" font-size="11" lengthAdjust="spacingAndGlyphs" textLength="37" x="415.5" y="1514.6479">getId()</text><!--MD5=[b34797a66dc35cbf1d65f7e3ca75530e]
class Task--><rect fill="#FEFECE" filter="url(#f4qmm3rbdvj9u)" height="112.0234" id="Task" style="stroke: #A80036; stroke-width: 1.5;" width="153" x="511" y="1169"/><ellipse cx="569.25" cy="1185" fill="#ADD1B2" rx="11" ry="11" style="stroke: #A80036; stroke-width: 1.0;"/><path d="M571.5938,1180.6719 C570.6563,1180.2344 570.0625,1180.0938 569.1875,1180.0938 C566.5625,1180.0938 564.5625,1182.1719 564.5625,1184.8906 L564.5625,1186.0156 C564.5625,1188.5938 566.6719,1190.4844 569.5625,1190.4844 C570.7813,1190.4844 571.9375,1190.1875 572.6875,1189.6406 C573.2656,1189.2344 573.5938,1188.7813 573.5938,1188.3906 C573.5938,1187.9375 573.2031,1187.5469 572.7344,1187.5469 C572.5156,1187.5469 572.3125,1187.625 572.125,1187.8125 C571.6719,1188.2969 571.6719,1188.2969 571.4844,1188.3906 C571.0625,1188.6563 570.375,1188.7813 569.6094,1188.7813 C567.5625,1188.7813 566.2656,1187.6875 566.2656,1185.9844 L566.2656,1184.8906 C566.2656,1183.1094 567.5156,1181.7969 569.25,1181.7969 C569.8281,1181.7969 570.4375,1181.9531 570.9063,1182.2031 C571.3906,1182.4844 571.5625,1182.7031 571.6563,1183.1094 C571.7188,1183.5156 571.75,1183.6406 571.8906,1183.7656 C572.0313,1183.9063 572.2656,1184.0156 572.4844,1184.0156 C572.75,1184.0156 573.0156,1183.875 573.1875,1183.6563 C573.2969,1183.5 573.3281,1183.3125 573.3281,1182.8906 L573.3281,1181.4688 C573.3281,1181.0313 573.3125,1180.9063 573.2188,1180.75 C573.0625,1180.4844 572.7813,1180.3438 572.4844,1180.3438 C572.1875,1180.3438 571.9844,1180.4375 571.7656,1180.75 L571.5938,1180.6719 Z "/><text fill="#000000" font-family="sans-serif" font-size="12" lengthAdjust="spacingAndGlyphs" textLength="28" x="589.75" y="1189.1543">Task</text><line style="stroke: #A80036; stroke-width: 1.5;" x1="512" x2="663" y1="1201" y2="1201"/><rect fill="none" height="6" style="stroke: #C82930; stroke-width: 1.0;" width="6" x="519" y="1209"/><text fill="#000000" font-family="sans-serif" font-size="11" lengthAdjust="spacingAndGlyphs" textLength="47" x="531" y="1215.2104">String id</text><rect fill="none" height="6" style="stroke: #C82930; stroke-width: 1.0;" width="6" x="519" y="1221.8047"/><text fill="#000000" font-family="sans-serif" font-size="11" lengthAdjust="spacingAndGlyphs" textLength="127" x="531" y="1228.0151">String briefDescription</text><rect fill="none" height="6" style="stroke: #C82930; stroke-width: 1.0;" width="6" x="519" y="1234.6094"/><text fill="#000000" font-family="sans-serif" font-size="11" lengthAdjust="spacingAndGlyphs" textLength="119" x="531" y="1240.8198">Integer timeDuration</text><rect fill="none" height="6" style="stroke: #C82930; stroke-width: 1.0;" width="6" x="519" y="1247.4141"/><text fill="#000000" font-family="sans-serif" font-size="11" lengthAdjust="spacingAndGlyphs" textLength="112" x="531" y="1253.6245">Double costPerHour</text><rect fill="none" height="6" style="stroke: #C82930; stroke-width: 1.0;" width="6" x="519" y="1260.2188"/><text fill="#000000" font-family="sans-serif" font-size="11" lengthAdjust="spacingAndGlyphs" textLength="112" x="531" y="1266.4292">String taskCategory</text><line style="stroke: #A80036; stroke-width: 1.5;" x1="512" x2="663" y1="1273.0234" y2="1273.0234"/><!--MD5=[1218de73bc3a601435331dd16635a548]
link CheckPerformanceIndicatorsUI to CheckPerformanceIndicatorsController--><path d="M389.5,54.11 C389.5,69.63 389.5,90.64 389.5,109.63 " fill="none" id="CheckPerformanceIndicatorsUI-&gt;CheckPerformanceIndicatorsController" style="stroke: #A80036; stroke-width: 1.0; stroke-dasharray: 7.0,7.0;"/><polygon fill="#A80036" points="389.5,114.92,393.5,105.92,389.5,109.92,385.5,105.92,389.5,114.92" style="stroke: #A80036; stroke-width: 1.0;"/><!--MD5=[74a9e55b3ecb8927afcc171d691a5f80]
link CheckPerformanceIndicatorsController to Platform--><path d="M336.217,201.08 C313.072,219.36 286.111,240.65 263.365,258.62 " fill="none" id="CheckPerformanceIndicatorsController-&gt;Platform" style="stroke: #A80036; stroke-width: 1.0; stroke-dasharray: 7.0,7.0;"/><polygon fill="#A80036" points="259.169,261.93,268.7126,259.4971,263.0948,258.8336,263.7584,253.2158,259.169,261.93" style="stroke: #A80036; stroke-width: 1.0;"/><!--MD5=[f5a0b2b7fa19dfbd2445943477d0c17d]
link CheckPerformanceIndicatorsController to OrganizationsRecord--><path d="M374.96,201.29 C361.458,238.13 339.549,292.35 313.5,336 C298.62,360.93 279.913,386.34 261.937,408.77 " fill="none" id="CheckPerformanceIndicatorsController-&gt;OrganizationsRecord" style="stroke: #A80036; stroke-width: 1.0; stroke-dasharray: 7.0,7.0;"/><polygon fill="#A80036" points="258.59,412.92,267.3458,408.4105,261.7222,409.0226,261.1101,403.399,258.59,412.92" style="stroke: #A80036; stroke-width: 1.0;"/><!--MD5=[56056174c092133e5cbe2366d8ab94e9]
link CheckPerformanceIndicatorsController to Organization--><path d="M399.869,201.1 C415.972,273.89 441.853,427.32 408.5,551 C401.609,576.553 388.09,602.258 374.539,623.69 " fill="none" id="CheckPerformanceIndicatorsController-&gt;Organization" style="stroke: #A80036; stroke-width: 1.0; stroke-dasharray: 7.0,7.0;"/><polygon fill="#A80036" points="371.831,627.919,380.0541,622.4986,374.5282,623.7089,373.3179,618.183,371.831,627.919" style="stroke: #A80036; stroke-width: 1.0;"/><!--MD5=[dbb1c8abc1be40c3863b2fcff884048c]
link CheckPerformanceIndicatorsController to PaymentTransaction--><path d="M457.295,201.02 C487.118,225.11 515.5,258.43 515.5,298 C515.5,298 515.5,298 515.5,835.5 C515.5,870.381 503.523,906.41 489.206,937.018 " fill="none" id="CheckPerformanceIndicatorsController-&gt;PaymentTransaction" style="stroke: #A80036; stroke-width: 1.0; stroke-dasharray: 7.0,7.0;"/><polygon fill="#A80036" points="486.89,941.883,494.3712,935.4774,489.0399,937.3688,487.1486,932.0375,486.89,941.883" style="stroke: #A80036; stroke-width: 1.0;"/><!--MD5=[d9ffa4e24b0f90d8cdc0d9eb36306584]
link Platform to OrganizationsRecord--><path d="M210.501,336.19 C208.688,358.06 206.319,386.65 204.165,412.64 " fill="none" id="Platform-OrganizationsRecord" style="stroke: #A80036; stroke-width: 1.0;"/><text fill="#000000" font-family="sans-serif" font-size="13" lengthAdjust="spacingAndGlyphs" textLength="23" x="209.5" y="379.0669">has</text><polygon fill="#000000" points="216.5,388.1328,219.5,394.1328,222.5,388.1328,216.5,388.1328" style="stroke: #000000; stroke-width: 1.0;"/><text fill="#000000" font-family="sans-serif" font-size="13" lengthAdjust="spacingAndGlyphs" textLength="8" x="201.3418" y="355.702">1</text><text fill="#000000" font-family="sans-serif" font-size="13" lengthAdjust="spacingAndGlyphs" textLength="8" x="196.3367" y="401.8065">1</text><!--MD5=[15b500351a20fc4c9aef6172f83f2b2a]
link OrganizationsRecord to Organization--><path d="M246.801,551.221 C264.674,576.464 284.561,604.554 300.968,627.726 " fill="none" id="OrganizationsRecord-Organization" style="stroke: #A80036; stroke-width: 1.0;"/><text fill="#000000" font-family="sans-serif" font-size="13" lengthAdjust="spacingAndGlyphs" textLength="23" x="280.5" y="594.0669">has</text><polygon fill="#000000" points="287.5,603.1328,290.5,609.1328,293.5,603.1328,287.5,603.1328" style="stroke: #000000; stroke-width: 1.0;"/><text fill="#000000" font-family="sans-serif" font-size="13" lengthAdjust="spacingAndGlyphs" textLength="8" x="243.0234" y="570.6242">1</text><text fill="#000000" font-family="sans-serif" font-size="13" lengthAdjust="spacingAndGlyphs" textLength="7" x="288.8575" y="617.0909">*</text><!--MD5=[322d55b5ad1658b7791494cedb432ac7]
link Organization to PaymentTransactionList--><path d="M343.342,727.118 C347.38,752.154 352.175,781.884 355.668,803.541 " fill="none" id="Organization-PaymentTransactionList" style="stroke: #A80036; stroke-width: 1.0;"/><text fill="#000000" font-family="sans-serif" font-size="13" lengthAdjust="spacingAndGlyphs" textLength="23" x="351.5" y="770.0669">has</text><polygon fill="#000000" points="358.5,779.1328,361.5,785.1328,364.5,779.1328,358.5,779.1328" style="stroke: #000000; stroke-width: 1.0;"/><text fill="#000000" font-family="sans-serif" font-size="13" lengthAdjust="spacingAndGlyphs" textLength="8" x="335.8823" y="747.2111">1</text><text fill="#000000" font-family="sans-serif" font-size="13" lengthAdjust="spacingAndGlyphs" textLength="8" x="345.8464" y="792.7096">1</text><!--MD5=[ad9e6b825fedf9daad488846d3a92887]
link PaymentTransactionList to PaymentTransaction--><path d="M361.683,865.343 C363.028,879.817 365.81,897.225 371.5,912 C375.372,922.054 380.364,932.108 385.897,941.786 " fill="none" id="PaymentTransactionList-PaymentTransaction" style="stroke: #A80036; stroke-width: 1.0;"/><text fill="#000000" font-family="sans-serif" font-size="13" lengthAdjust="spacingAndGlyphs" textLength="103" x="372.5" y="908.0669">has registries of</text><polygon fill="#000000" points="419.5,917.1328,422.5,923.1328,425.5,917.1328,419.5,917.1328" style="stroke: #000000; stroke-width: 1.0;"/><text fill="#000000" font-family="sans-serif" font-size="13" lengthAdjust="spacingAndGlyphs" textLength="8" x="353.1284" y="884.991">1</text><text fill="#000000" font-family="sans-serif" font-size="13" lengthAdjust="spacingAndGlyphs" textLength="7" x="373.2637" y="930.9547">*</text><!--MD5=[f6802b286771c18a16ea4be983074371]
link PaymentTransaction to Freelancer--><path d="M431.855,1092.24 C426.584,1145.07 422.578,1217.628 430.5,1281 C433.457,1304.652 438.819,1329.848 444.676,1352.992 " fill="none" id="PaymentTransaction-&gt;Freelancer" style="stroke: #A80036; stroke-width: 1.0;"/><polygon fill="#A80036" points="445.933,1357.898,447.5729,1348.1866,444.6914,1353.0546,439.8235,1350.1731,445.933,1357.898" style="stroke: #A80036; stroke-width: 1.0;"/><text fill="#000000" font-family="sans-serif" font-size="13" lengthAdjust="spacingAndGlyphs" textLength="61" x="431.5" y="1229.5669">relates to</text><text fill="#000000" font-family="sans-serif" font-size="13" lengthAdjust="spacingAndGlyphs" textLength="8" x="422.5118" y="1112.4366">1</text><text fill="#000000" font-family="sans-serif" font-size="13" lengthAdjust="spacingAndGlyphs" textLength="8" x="435.3888" y="1347.0244">1</text><!--MD5=[271ce7fefd7250ebaca83b70495774bd]
link PaymentTransaction to Task--><path d="M494.003,1092.08 C510.935,1115.969 529.467,1142.118 545.535,1164.788 " fill="none" id="PaymentTransaction-&gt;Task" style="stroke: #A80036; stroke-width: 1.0;"/><polygon fill="#A80036" points="548.505,1168.98,546.5647,1159.3242,545.614,1164.9006,540.0376,1163.9498,548.505,1168.98" style="stroke: #A80036; stroke-width: 1.0;"/><text fill="#000000" font-family="sans-serif" font-size="13" lengthAdjust="spacingAndGlyphs" textLength="61" x="523.5" y="1135.0669">relates to</text><text fill="#000000" font-family="sans-serif" font-size="13" lengthAdjust="spacingAndGlyphs" textLength="8" x="491.0049" y="1112.6472">1</text><text fill="#000000" font-family="sans-serif" font-size="13" lengthAdjust="spacingAndGlyphs" textLength="8" x="534.9963" y="1157.9154">1</text><!--MD5=[8853e9d83a8841c20c4ef075af762602]
link Task to Freelancer--><path d="M557.217,1281 C545.107,1302.996 530.874,1328.846 517.481,1353.172 " fill="none" id="Task-&gt;Freelancer" style="stroke: #A80036; stroke-width: 1.0;"/><polygon fill="#A80036" points="514.99,1357.695,522.8347,1351.7401,517.4015,1353.3149,515.8266,1347.8817,514.99,1357.695" style="stroke: #A80036; stroke-width: 1.0;"/><text fill="#000000" font-family="sans-serif" font-size="13" lengthAdjust="spacingAndGlyphs" textLength="88" x="539.5" y="1324.0669">is assigned to</text><text fill="#000000" font-family="sans-serif" font-size="13" lengthAdjust="spacingAndGlyphs" textLength="23" x="528.8636" y="1301.2098">1..*</text><text fill="#000000" font-family="sans-serif" font-size="13" lengthAdjust="spacingAndGlyphs" textLength="8" x="510.5961" y="1346.8033">1</text><!--MD5=[861854fa703ae2290f2c9d58d245f18a]
@startuml
class CheckPerformanceIndicatorsUI {
}


class CheckPerformanceIndicatorsController {
    +getOrganizations()
    +calcPerformanceStatistics()
    +determinateNormalDistribution()
}

class Platform {
    -String designation
    +getOrganizationsRecord(
}


class OrganizationsRecord {
    +getOrganizations()
    +determinatePayPlatform()
    +determinateDelayPlatform()
    +calcMeanPayment(mapTotalPayments)
    +calcDeviationPayment(mapTotalPayments,mapMeanPayments)
    +calcMeanDelay(mapTotalDelays)
    +calcDeviationDelay(mapTotalDelays,mapMeanDelays)
}

class Organization {
    -String name
    -String NIF
    +determinateDelayOrg(mapTotalDelays)
    +determinatePayOrg(mapTotalPayments)
}

 
class PaymentTransactionList{
    +getPaymentTransactionList()
}

 
class PaymentTransaction {
    -String id
    -Date endDate
    -Double delay
    -String workQualityDescription
    +getM_oFreelancer()
    +getM_oTask()
    +generatePayAmount(task,free)
    +determinateNormalDistribution()
}


class Freelancer {
    -String id
    -String name
    -String expertiseLevel
    -String email
    -String NIF
    -String IBAN
    -String address
    -String country
    +getId()
}

class Task {
  -String id
  -String briefDescription
  -Integer timeDuration
  -Double costPerHour
  -String taskCategory
}


CheckPerformanceIndicatorsUI ..> CheckPerformanceIndicatorsController
CheckPerformanceIndicatorsController ..> Platform
CheckPerformanceIndicatorsController ..> OrganizationsRecord
CheckPerformanceIndicatorsController ..> Organization
CheckPerformanceIndicatorsController ..> PaymentTransaction


Platform "1" - - "1" OrganizationsRecord : has >
OrganizationsRecord "1" - - "*" Organization : has >
Organization "1" - - "1" PaymentTransactionList : has >
PaymentTransactionList "1" - - "*" PaymentTransaction : has registries of >
PaymentTransaction "1" - -> "1" Freelancer : relates to
PaymentTransaction "1" - -> "1" Task : relates to
Task "1..*" - -> "1" Freelancer : is assigned to
@enduml

PlantUML version 1.2020.12(Sat Jun 06 10:54:15 UTC 2020)
(GPL source distribution)
Java Runtime: Java(TM) SE Runtime Environment
JVM: Java HotSpot(TM) 64-Bit Server VM
Default Encoding: UTF-8
Language: en
Country: US
--></g></svg>