<?xml version="1.0" encoding="UTF-8" standalone="no"?><svg xmlns="http://www.w3.org/2000/svg" xmlns:xlink="http://www.w3.org/1999/xlink" contentScriptType="application/ecmascript" contentStyleType="text/css" height="232px" preserveAspectRatio="none" style="width:1219px;height:232px;" version="1.1" viewBox="0 0 1219 232" width="1219px" zoomAndPan="magnify"><defs><filter height="300%" id="fh9s0mlwcn8gk" width="300%" x="-1" y="-1"><feGaussianBlur result="blurOut" stdDeviation="2.0"/><feColorMatrix in="blurOut" result="blurOut2" type="matrix" values="0 0 0 0 0 0 0 0 0 0 0 0 0 0 0 0 0 0 .4 0"/><feOffset dx="4.0" dy="4.0" in="blurOut2" result="blurOut3"/><feBlend in="SourceGraphic" in2="blurOut3" mode="normal"/></filter></defs><g><!--MD5=[99b8db98afdc2c8404e39242ef4c1e65]
class Platform--><rect fill="#FEFECE" filter="url(#fh9s0mlwcn8gk)" height="60.8047" id="Platform" style="stroke: #A80036; stroke-width: 1.5;" width="129" x="6" y="50.5"/><ellipse cx="43.05" cy="66.5" fill="#ADD1B2" rx="11" ry="11" style="stroke: #A80036; stroke-width: 1.0;"/><path d="M45.3938,62.1719 C44.4563,61.7344 43.8625,61.5938 42.9875,61.5938 C40.3625,61.5938 38.3625,63.6719 38.3625,66.3906 L38.3625,67.5156 C38.3625,70.0938 40.4719,71.9844 43.3625,71.9844 C44.5813,71.9844 45.7375,71.6875 46.4875,71.1406 C47.0656,70.7344 47.3938,70.2813 47.3938,69.8906 C47.3938,69.4375 47.0031,69.0469 46.5344,69.0469 C46.3156,69.0469 46.1125,69.125 45.925,69.3125 C45.4719,69.7969 45.4719,69.7969 45.2844,69.8906 C44.8625,70.1563 44.175,70.2813 43.4094,70.2813 C41.3625,70.2813 40.0656,69.1875 40.0656,67.4844 L40.0656,66.3906 C40.0656,64.6094 41.3156,63.2969 43.05,63.2969 C43.6281,63.2969 44.2375,63.4531 44.7063,63.7031 C45.1906,63.9844 45.3625,64.2031 45.4563,64.6094 C45.5188,65.0156 45.55,65.1406 45.6906,65.2656 C45.8313,65.4063 46.0656,65.5156 46.2844,65.5156 C46.55,65.5156 46.8156,65.375 46.9875,65.1563 C47.0969,65 47.1281,64.8125 47.1281,64.3906 L47.1281,62.9688 C47.1281,62.5313 47.1125,62.4063 47.0188,62.25 C46.8625,61.9844 46.5813,61.8438 46.2844,61.8438 C45.9875,61.8438 45.7844,61.9375 45.5656,62.25 L45.3938,62.1719 Z "/><text fill="#000000" font-family="sans-serif" font-size="12" lengthAdjust="spacingAndGlyphs" textLength="48" x="61.95" y="70.6543">Platform</text><line style="stroke: #A80036; stroke-width: 1.5;" x1="7" x2="134" y1="82.5" y2="82.5"/><rect fill="none" height="6" style="stroke: #C82930; stroke-width: 1.0;" width="6" x="14" y="90.5"/><text fill="#000000" font-family="sans-serif" font-size="11" lengthAdjust="spacingAndGlyphs" textLength="103" x="26" y="96.7104">String designation</text><line style="stroke: #A80036; stroke-width: 1.5;" x1="7" x2="134" y1="103.3047" y2="103.3047"/><!--MD5=[86c7c362de55a38b660185a1328fe18d]
class Organization--><rect fill="#FEFECE" filter="url(#fh9s0mlwcn8gk)" height="73.6094" id="Organization" style="stroke: #A80036; stroke-width: 1.5;" width="108" x="233" y="44"/><ellipse cx="248" cy="60" fill="#ADD1B2" rx="11" ry="11" style="stroke: #A80036; stroke-width: 1.0;"/><path d="M250.3438,55.6719 C249.4063,55.2344 248.8125,55.0938 247.9375,55.0938 C245.3125,55.0938 243.3125,57.1719 243.3125,59.8906 L243.3125,61.0156 C243.3125,63.5938 245.4219,65.4844 248.3125,65.4844 C249.5313,65.4844 250.6875,65.1875 251.4375,64.6406 C252.0156,64.2344 252.3438,63.7813 252.3438,63.3906 C252.3438,62.9375 251.9531,62.5469 251.4844,62.5469 C251.2656,62.5469 251.0625,62.625 250.875,62.8125 C250.4219,63.2969 250.4219,63.2969 250.2344,63.3906 C249.8125,63.6563 249.125,63.7813 248.3594,63.7813 C246.3125,63.7813 245.0156,62.6875 245.0156,60.9844 L245.0156,59.8906 C245.0156,58.1094 246.2656,56.7969 248,56.7969 C248.5781,56.7969 249.1875,56.9531 249.6563,57.2031 C250.1406,57.4844 250.3125,57.7031 250.4063,58.1094 C250.4688,58.5156 250.5,58.6406 250.6406,58.7656 C250.7813,58.9063 251.0156,59.0156 251.2344,59.0156 C251.5,59.0156 251.7656,58.875 251.9375,58.6563 C252.0469,58.5 252.0781,58.3125 252.0781,57.8906 L252.0781,56.4688 C252.0781,56.0313 252.0625,55.9063 251.9688,55.75 C251.8125,55.4844 251.5313,55.3438 251.2344,55.3438 C250.9375,55.3438 250.7344,55.4375 250.5156,55.75 L250.3438,55.6719 Z "/><text fill="#000000" font-family="sans-serif" font-size="12" lengthAdjust="spacingAndGlyphs" textLength="76" x="262" y="64.1543">Organization</text><line style="stroke: #A80036; stroke-width: 1.5;" x1="234" x2="340" y1="76" y2="76"/><rect fill="none" height="6" style="stroke: #C82930; stroke-width: 1.0;" width="6" x="241" y="84"/><text fill="#000000" font-family="sans-serif" font-size="11" lengthAdjust="spacingAndGlyphs" textLength="70" x="253" y="90.2104">String name</text><rect fill="none" height="6" style="stroke: #C82930; stroke-width: 1.0;" width="6" x="241" y="96.8047"/><text fill="#000000" font-family="sans-serif" font-size="11" lengthAdjust="spacingAndGlyphs" textLength="54" x="253" y="103.0151">String NIF</text><line style="stroke: #A80036; stroke-width: 1.5;" x1="234" x2="340" y1="109.6094" y2="109.6094"/><!--MD5=[b645a18afb25b7e5623af7186d8eb36f]
class PaymentTransaction--><rect fill="#FEFECE" filter="url(#fh9s0mlwcn8gk)" height="99.2188" id="PaymentTransaction" style="stroke: #A80036; stroke-width: 1.5;" width="193" x="439" y="31.5"/><ellipse cx="472.9" cy="47.5" fill="#ADD1B2" rx="11" ry="11" style="stroke: #A80036; stroke-width: 1.0;"/><path d="M475.2438,43.1719 C474.3063,42.7344 473.7125,42.5938 472.8375,42.5938 C470.2125,42.5938 468.2125,44.6719 468.2125,47.3906 L468.2125,48.5156 C468.2125,51.0938 470.3219,52.9844 473.2125,52.9844 C474.4313,52.9844 475.5875,52.6875 476.3375,52.1406 C476.9156,51.7344 477.2438,51.2813 477.2438,50.8906 C477.2438,50.4375 476.8531,50.0469 476.3844,50.0469 C476.1656,50.0469 475.9625,50.125 475.775,50.3125 C475.3219,50.7969 475.3219,50.7969 475.1344,50.8906 C474.7125,51.1563 474.025,51.2813 473.2594,51.2813 C471.2125,51.2813 469.9156,50.1875 469.9156,48.4844 L469.9156,47.3906 C469.9156,45.6094 471.1656,44.2969 472.9,44.2969 C473.4781,44.2969 474.0875,44.4531 474.5563,44.7031 C475.0406,44.9844 475.2125,45.2031 475.3063,45.6094 C475.3688,46.0156 475.4,46.1406 475.5406,46.2656 C475.6813,46.4063 475.9156,46.5156 476.1344,46.5156 C476.4,46.5156 476.6656,46.375 476.8375,46.1563 C476.9469,46 476.9781,45.8125 476.9781,45.3906 L476.9781,43.9688 C476.9781,43.5313 476.9625,43.4063 476.8688,43.25 C476.7125,42.9844 476.4313,42.8438 476.1344,42.8438 C475.8375,42.8438 475.6344,42.9375 475.4156,43.25 L475.2438,43.1719 Z "/><text fill="#000000" font-family="sans-serif" font-size="12" lengthAdjust="spacingAndGlyphs" textLength="119" x="491.1" y="51.6543">PaymentTransaction</text><line style="stroke: #A80036; stroke-width: 1.5;" x1="440" x2="631" y1="63.5" y2="63.5"/><rect fill="none" height="6" style="stroke: #C82930; stroke-width: 1.0;" width="6" x="447" y="71.5"/><text fill="#000000" font-family="sans-serif" font-size="11" lengthAdjust="spacingAndGlyphs" textLength="47" x="459" y="77.7104">String id</text><rect fill="none" height="6" style="stroke: #C82930; stroke-width: 1.0;" width="6" x="447" y="84.3047"/><text fill="#000000" font-family="sans-serif" font-size="11" lengthAdjust="spacingAndGlyphs" textLength="82" x="459" y="90.5151">Date endDate</text><rect fill="none" height="6" style="stroke: #C82930; stroke-width: 1.0;" width="6" x="447" y="97.1094"/><text fill="#000000" font-family="sans-serif" font-size="11" lengthAdjust="spacingAndGlyphs" textLength="77" x="459" y="103.3198">Double delay</text><rect fill="none" height="6" style="stroke: #C82930; stroke-width: 1.0;" width="6" x="447" y="109.9141"/><text fill="#000000" font-family="sans-serif" font-size="11" lengthAdjust="spacingAndGlyphs" textLength="167" x="459" y="116.1245">String workQualityDescription</text><line style="stroke: #A80036; stroke-width: 1.5;" x1="440" x2="631" y1="122.7188" y2="122.7188"/><!--MD5=[1f687b5315377fe49fca59b457947463]
class Freelancer--><rect fill="#FEFECE" filter="url(#fh9s0mlwcn8gk)" height="150.4375" id="Freelancer" style="stroke: #A80036; stroke-width: 1.5;" width="150" x="1058" y="6"/><ellipse cx="1096.85" cy="22" fill="#ADD1B2" rx="11" ry="11" style="stroke: #A80036; stroke-width: 1.0;"/><path d="M1099.1938,17.6719 C1098.2563,17.2344 1097.6625,17.0938 1096.7875,17.0938 C1094.1625,17.0938 1092.1625,19.1719 1092.1625,21.8906 L1092.1625,23.0156 C1092.1625,25.5938 1094.2719,27.4844 1097.1625,27.4844 C1098.3813,27.4844 1099.5375,27.1875 1100.2875,26.6406 C1100.8656,26.2344 1101.1938,25.7813 1101.1938,25.3906 C1101.1938,24.9375 1100.8031,24.5469 1100.3344,24.5469 C1100.1156,24.5469 1099.9125,24.625 1099.725,24.8125 C1099.2719,25.2969 1099.2719,25.2969 1099.0844,25.3906 C1098.6625,25.6563 1097.975,25.7813 1097.2094,25.7813 C1095.1625,25.7813 1093.8656,24.6875 1093.8656,22.9844 L1093.8656,21.8906 C1093.8656,20.1094 1095.1156,18.7969 1096.85,18.7969 C1097.4281,18.7969 1098.0375,18.9531 1098.5063,19.2031 C1098.9906,19.4844 1099.1625,19.7031 1099.2563,20.1094 C1099.3188,20.5156 1099.35,20.6406 1099.4906,20.7656 C1099.6313,20.9063 1099.8656,21.0156 1100.0844,21.0156 C1100.35,21.0156 1100.6156,20.875 1100.7875,20.6563 C1100.8969,20.5 1100.9281,20.3125 1100.9281,19.8906 L1100.9281,18.4688 C1100.9281,18.0313 1100.9125,17.9063 1100.8188,17.75 C1100.6625,17.4844 1100.3813,17.3438 1100.0844,17.3438 C1099.7875,17.3438 1099.5844,17.4375 1099.3656,17.75 L1099.1938,17.6719 Z "/><text fill="#000000" font-family="sans-serif" font-size="12" lengthAdjust="spacingAndGlyphs" textLength="65" x="1116.15" y="26.1543">Freelancer</text><line style="stroke: #A80036; stroke-width: 1.5;" x1="1059" x2="1207" y1="38" y2="38"/><rect fill="none" height="6" style="stroke: #C82930; stroke-width: 1.0;" width="6" x="1066" y="46"/><text fill="#000000" font-family="sans-serif" font-size="11" lengthAdjust="spacingAndGlyphs" textLength="47" x="1078" y="52.2104">String id</text><rect fill="none" height="6" style="stroke: #C82930; stroke-width: 1.0;" width="6" x="1066" y="58.8047"/><text fill="#000000" font-family="sans-serif" font-size="11" lengthAdjust="spacingAndGlyphs" textLength="70" x="1078" y="65.0151">String name</text><rect fill="none" height="6" style="stroke: #C82930; stroke-width: 1.0;" width="6" x="1066" y="71.6094"/><text fill="#000000" font-family="sans-serif" font-size="11" lengthAdjust="spacingAndGlyphs" textLength="124" x="1078" y="77.8198">String expertiseLevel</text><rect fill="none" height="6" style="stroke: #C82930; stroke-width: 1.0;" width="6" x="1066" y="84.4141"/><text fill="#000000" font-family="sans-serif" font-size="11" lengthAdjust="spacingAndGlyphs" textLength="69" x="1078" y="90.6245">String email</text><rect fill="none" height="6" style="stroke: #C82930; stroke-width: 1.0;" width="6" x="1066" y="97.2188"/><text fill="#000000" font-family="sans-serif" font-size="11" lengthAdjust="spacingAndGlyphs" textLength="54" x="1078" y="103.4292">String NIF</text><rect fill="none" height="6" style="stroke: #C82930; stroke-width: 1.0;" width="6" x="1066" y="110.0234"/><text fill="#000000" font-family="sans-serif" font-size="11" lengthAdjust="spacingAndGlyphs" textLength="64" x="1078" y="116.2339">String IBAN</text><rect fill="none" height="6" style="stroke: #C82930; stroke-width: 1.0;" width="6" x="1066" y="122.8281"/><text fill="#000000" font-family="sans-serif" font-size="11" lengthAdjust="spacingAndGlyphs" textLength="82" x="1078" y="129.0386">String address</text><rect fill="none" height="6" style="stroke: #C82930; stroke-width: 1.0;" width="6" x="1066" y="135.6328"/><text fill="#000000" font-family="sans-serif" font-size="11" lengthAdjust="spacingAndGlyphs" textLength="79" x="1078" y="141.8433">String country</text><line style="stroke: #A80036; stroke-width: 1.5;" x1="1059" x2="1207" y1="148.4375" y2="148.4375"/><!--MD5=[b34797a66dc35cbf1d65f7e3ca75530e]
class Task--><rect fill="#FEFECE" filter="url(#fh9s0mlwcn8gk)" height="112.0234" id="Task" style="stroke: #A80036; stroke-width: 1.5;" width="153" x="755" y="109"/><ellipse cx="813.25" cy="125" fill="#ADD1B2" rx="11" ry="11" style="stroke: #A80036; stroke-width: 1.0;"/><path d="M815.5938,120.6719 C814.6563,120.2344 814.0625,120.0938 813.1875,120.0938 C810.5625,120.0938 808.5625,122.1719 808.5625,124.8906 L808.5625,126.0156 C808.5625,128.5938 810.6719,130.4844 813.5625,130.4844 C814.7813,130.4844 815.9375,130.1875 816.6875,129.6406 C817.2656,129.2344 817.5938,128.7813 817.5938,128.3906 C817.5938,127.9375 817.2031,127.5469 816.7344,127.5469 C816.5156,127.5469 816.3125,127.625 816.125,127.8125 C815.6719,128.2969 815.6719,128.2969 815.4844,128.3906 C815.0625,128.6563 814.375,128.7813 813.6094,128.7813 C811.5625,128.7813 810.2656,127.6875 810.2656,125.9844 L810.2656,124.8906 C810.2656,123.1094 811.5156,121.7969 813.25,121.7969 C813.8281,121.7969 814.4375,121.9531 814.9063,122.2031 C815.3906,122.4844 815.5625,122.7031 815.6563,123.1094 C815.7188,123.5156 815.75,123.6406 815.8906,123.7656 C816.0313,123.9063 816.2656,124.0156 816.4844,124.0156 C816.75,124.0156 817.0156,123.875 817.1875,123.6563 C817.2969,123.5 817.3281,123.3125 817.3281,122.8906 L817.3281,121.4688 C817.3281,121.0313 817.3125,120.9063 817.2188,120.75 C817.0625,120.4844 816.7813,120.3438 816.4844,120.3438 C816.1875,120.3438 815.9844,120.4375 815.7656,120.75 L815.5938,120.6719 Z "/><text fill="#000000" font-family="sans-serif" font-size="12" lengthAdjust="spacingAndGlyphs" textLength="28" x="833.75" y="129.1543">Task</text><line style="stroke: #A80036; stroke-width: 1.5;" x1="756" x2="907" y1="141" y2="141"/><rect fill="none" height="6" style="stroke: #C82930; stroke-width: 1.0;" width="6" x="763" y="149"/><text fill="#000000" font-family="sans-serif" font-size="11" lengthAdjust="spacingAndGlyphs" textLength="47" x="775" y="155.2104">String id</text><rect fill="none" height="6" style="stroke: #C82930; stroke-width: 1.0;" width="6" x="763" y="161.8047"/><text fill="#000000" font-family="sans-serif" font-size="11" lengthAdjust="spacingAndGlyphs" textLength="127" x="775" y="168.0151">String briefDescription</text><rect fill="none" height="6" style="stroke: #C82930; stroke-width: 1.0;" width="6" x="763" y="174.6094"/><text fill="#000000" font-family="sans-serif" font-size="11" lengthAdjust="spacingAndGlyphs" textLength="119" x="775" y="180.8198">Integer timeDuration</text><rect fill="none" height="6" style="stroke: #C82930; stroke-width: 1.0;" width="6" x="763" y="187.4141"/><text fill="#000000" font-family="sans-serif" font-size="11" lengthAdjust="spacingAndGlyphs" textLength="112" x="775" y="193.6245">Double costPerHour</text><rect fill="none" height="6" style="stroke: #C82930; stroke-width: 1.0;" width="6" x="763" y="200.2188"/><text fill="#000000" font-family="sans-serif" font-size="11" lengthAdjust="spacingAndGlyphs" textLength="112" x="775" y="206.4292">String taskCategory</text><line style="stroke: #A80036; stroke-width: 1.5;" x1="756" x2="907" y1="213.0234" y2="213.0234"/><!--MD5=[7640e466c042ba2d6f9c19c816f7f0fc]
link Platform to Organization--><path d="M135.276,81 C166.397,81 203.396,81 232.947,81 " fill="none" id="Platform-Organization" style="stroke: #A80036; stroke-width: 1.0;"/><text fill="#000000" font-family="sans-serif" font-size="13" lengthAdjust="spacingAndGlyphs" textLength="23" x="166" y="77.0669">has</text><polygon fill="#000000" points="192,71.0664,198,74.0664,192,77.0664,192,71.0664" style="stroke: #000000; stroke-width: 1.0;"/><text fill="#000000" font-family="sans-serif" font-size="13" lengthAdjust="spacingAndGlyphs" textLength="8" x="142.7984" y="93.9052">1</text><text fill="#000000" font-family="sans-serif" font-size="13" lengthAdjust="spacingAndGlyphs" textLength="8" x="217.1461" y="94.1099">1</text><!--MD5=[da2d560b3f89d8c66478284968d27dfa]
link Organization to PaymentTransaction--><path d="M341.183,81 C369.631,81 405.537,81 438.66,81 " fill="none" id="Organization-PaymentTransaction" style="stroke: #A80036; stroke-width: 1.0;"/><text fill="#000000" font-family="sans-serif" font-size="13" lengthAdjust="spacingAndGlyphs" textLength="23" x="372" y="77.0669">has</text><polygon fill="#000000" points="398,71.0664,404,74.0664,398,77.0664,398,71.0664" style="stroke: #000000; stroke-width: 1.0;"/><text fill="#000000" font-family="sans-serif" font-size="13" lengthAdjust="spacingAndGlyphs" textLength="8" x="349.0013" y="94.1099">1</text><text fill="#000000" font-family="sans-serif" font-size="13" lengthAdjust="spacingAndGlyphs" textLength="7" x="423.9777" y="93.6378">*</text><!--MD5=[f6802b286771c18a16ea4be983074371]
link PaymentTransaction to Freelancer--><path d="M632.177,81 C748.85,81 943.899,81 1052.63,81 " fill="none" id="PaymentTransaction-&gt;Freelancer" style="stroke: #A80036; stroke-width: 1.0;"/><polygon fill="#A80036" points="1057.74,81,1048.74,77,1052.74,81,1048.74,85,1057.74,81" style="stroke: #A80036; stroke-width: 1.0;"/><text fill="#000000" font-family="sans-serif" font-size="13" lengthAdjust="spacingAndGlyphs" textLength="61" x="801" y="77.0669">relates to</text><text fill="#000000" font-family="sans-serif" font-size="13" lengthAdjust="spacingAndGlyphs" textLength="8" x="639.8851" y="93.6378">1</text><text fill="#000000" font-family="sans-serif" font-size="13" lengthAdjust="spacingAndGlyphs" textLength="8" x="1041.9378" y="93.7902">1</text><!--MD5=[271ce7fefd7250ebaca83b70495774bd]
link PaymentTransaction to Task--><path d="M632.36,108.389 C670.367,119.248 713.585,131.5956 749.938,141.9822 " fill="none" id="PaymentTransaction-&gt;Task" style="stroke: #A80036; stroke-width: 1.0;"/><polygon fill="#A80036" points="754.791,143.369,747.237,137.0495,749.9836,141.9948,745.0382,144.7414,754.791,143.369" style="stroke: #A80036; stroke-width: 1.0;"/><text fill="#000000" font-family="sans-serif" font-size="13" lengthAdjust="spacingAndGlyphs" textLength="61" x="663" y="114.0669">relates to</text><text fill="#000000" font-family="sans-serif" font-size="13" lengthAdjust="spacingAndGlyphs" textLength="8" x="640.0821" y="123.1238">1</text><text fill="#000000" font-family="sans-serif" font-size="13" lengthAdjust="spacingAndGlyphs" textLength="8" x="739.0984" y="154.0942">1</text><!--MD5=[8853e9d83a8841c20c4ef075af762602]
link Task to Freelancer--><path d="M908.076,143.8033 C952.3,131.3999 1008.07,115.758 1052.89,103.188 " fill="none" id="Task-&gt;Freelancer" style="stroke: #A80036; stroke-width: 1.0;"/><polygon fill="#A80036" points="1057.74,101.826,1047.9962,100.3912,1052.9238,103.1694,1050.1456,108.097,1057.74,101.826" style="stroke: #A80036; stroke-width: 1.0;"/><text fill="#000000" font-family="sans-serif" font-size="13" lengthAdjust="spacingAndGlyphs" textLength="88" x="939" y="107.0669">is assigned to</text><text fill="#000000" font-family="sans-serif" font-size="13" lengthAdjust="spacingAndGlyphs" textLength="23" x="915.9203" y="154.6552">1..*</text><text fill="#000000" font-family="sans-serif" font-size="13" lengthAdjust="spacingAndGlyphs" textLength="8" x="1041.9378" y="116.6662">1</text><!--MD5=[fd8827d906f84d6f44b9c34777e06854]
@startuml
left to right direction

class Platform {
    -String designation
}

class Organization {
    -String name
    -String NIF
}


 
class PaymentTransaction {
    -String id
    -Date endDate
    -Double delay
    -String workQualityDescription
}

class Freelancer {
    -String id
    -String name
    -String expertiseLevel
    -String email
    -String NIF
    -String IBAN
    -String address
    -String country
}

class Task {
  -String id
  -String briefDescription
  -Integer timeDuration
  -Double costPerHour
  -String taskCategory
}


Platform "1" - - "1" Organization : has >
Organization "1" - - "*" PaymentTransaction : has >
PaymentTransaction "1" - -> "1" Freelancer : relates to
PaymentTransaction "1" - -> "1" Task : relates to
Task "1..*" - -> "1" Freelancer : is assigned to
@enduml

PlantUML version 1.2020.12(Sat Jun 06 10:54:15 UTC 2020)
(GPL source distribution)
Java Runtime: Java(TM) SE Runtime Environment
JVM: Java HotSpot(TM) 64-Bit Server VM
Default Encoding: UTF-8
Language: en
Country: US
--></g></svg>