<?xml version="1.0" encoding="UTF-8" standalone="no"?><svg xmlns="http://www.w3.org/2000/svg" xmlns:xlink="http://www.w3.org/1999/xlink" contentScriptType="application/ecmascript" contentStyleType="text/css" height="258px" preserveAspectRatio="none" style="width:1079px;height:258px;" version="1.1" viewBox="0 0 1079 258" width="1079px" zoomAndPan="magnify"><defs><filter height="300%" id="f1cjx768orl9qe" width="300%" x="-1" y="-1"><feGaussianBlur result="blurOut" stdDeviation="2.0"/><feColorMatrix in="blurOut" result="blurOut2" type="matrix" values="0 0 0 0 0 0 0 0 0 0 0 0 0 0 0 0 0 0 .4 0"/><feOffset dx="4.0" dy="4.0" in="blurOut2" result="blurOut3"/><feBlend in="SourceGraphic" in2="blurOut3" mode="normal"/></filter></defs><g><!--MD5=[99b8db98afdc2c8404e39242ef4c1e65]
class Platform--><rect fill="#FEFECE" filter="url(#f1cjx768orl9qe)" height="52.8047" id="Platform" style="stroke: #A80036; stroke-width: 1.5;" width="120" x="6" y="172.5"/><ellipse cx="37.2" cy="188.5" fill="#ADD1B2" rx="11" ry="11" style="stroke: #A80036; stroke-width: 1.0;"/><path d="M40.1688,194.1406 Q39.5906,194.4375 38.95,194.5859 Q38.3094,194.7344 37.6063,194.7344 Q35.1063,194.7344 33.7859,193.0859 Q32.4656,191.4375 32.4656,188.3125 Q32.4656,185.1875 33.7859,183.5313 Q35.1063,181.875 37.6063,181.875 Q38.3094,181.875 38.9578,182.0313 Q39.6063,182.1875 40.1688,182.4844 L40.1688,185.2031 Q39.5438,184.625 38.95,184.3516 Q38.3563,184.0781 37.7313,184.0781 Q36.3875,184.0781 35.7,185.1484 Q35.0125,186.2188 35.0125,188.3125 Q35.0125,190.4063 35.7,191.4766 Q36.3875,192.5469 37.7313,192.5469 Q38.3563,192.5469 38.95,192.2734 Q39.5438,192 40.1688,191.4219 L40.1688,194.1406 Z "/><text fill="#000000" font-family="sans-serif" font-size="12" lengthAdjust="spacingAndGlyphs" textLength="52" x="54.8" y="192.6543">Platform</text><line style="stroke: #A80036; stroke-width: 1.5;" x1="7" x2="125" y1="204.5" y2="204.5"/><text fill="#000000" font-family="sans-serif" font-size="11" lengthAdjust="spacingAndGlyphs" textLength="108" x="12" y="218.7104">-String designation</text><!--MD5=[86c7c362de55a38b660185a1328fe18d]
class Organization--><rect fill="#FEFECE" filter="url(#f1cjx768orl9qe)" height="65.6094" id="Organization" style="stroke: #A80036; stroke-width: 1.5;" width="110" x="293" y="108"/><ellipse cx="308" cy="124" fill="#ADD1B2" rx="11" ry="11" style="stroke: #A80036; stroke-width: 1.0;"/><path d="M310.9688,129.6406 Q310.3906,129.9375 309.75,130.0859 Q309.1094,130.2344 308.4063,130.2344 Q305.9063,130.2344 304.5859,128.5859 Q303.2656,126.9375 303.2656,123.8125 Q303.2656,120.6875 304.5859,119.0313 Q305.9063,117.375 308.4063,117.375 Q309.1094,117.375 309.7578,117.5313 Q310.4063,117.6875 310.9688,117.9844 L310.9688,120.7031 Q310.3438,120.125 309.75,119.8516 Q309.1563,119.5781 308.5313,119.5781 Q307.1875,119.5781 306.5,120.6484 Q305.8125,121.7188 305.8125,123.8125 Q305.8125,125.9063 306.5,126.9766 Q307.1875,128.0469 308.5313,128.0469 Q309.1563,128.0469 309.75,127.7734 Q310.3438,127.5 310.9688,126.9219 L310.9688,129.6406 Z "/><text fill="#000000" font-family="sans-serif" font-size="12" lengthAdjust="spacingAndGlyphs" textLength="78" x="322" y="128.1543">Organization</text><line style="stroke: #A80036; stroke-width: 1.5;" x1="294" x2="402" y1="140" y2="140"/><text fill="#000000" font-family="sans-serif" font-size="11" lengthAdjust="spacingAndGlyphs" textLength="74" x="299" y="154.2104">-String name</text><text fill="#000000" font-family="sans-serif" font-size="11" lengthAdjust="spacingAndGlyphs" textLength="59" x="299" y="167.0151">-String NIF</text><!--MD5=[f483d6e5de34a60207b28a5563be5e8b]
class Collaborator--><rect fill="#FEFECE" filter="url(#f1cjx768orl9qe)" height="65.6094" id="Collaborator" style="stroke: #A80036; stroke-width: 1.5;" width="109" x="708" y="8"/><ellipse cx="723" cy="24" fill="#ADD1B2" rx="11" ry="11" style="stroke: #A80036; stroke-width: 1.0;"/><path d="M725.9688,29.6406 Q725.3906,29.9375 724.75,30.0859 Q724.1094,30.2344 723.4063,30.2344 Q720.9063,30.2344 719.5859,28.5859 Q718.2656,26.9375 718.2656,23.8125 Q718.2656,20.6875 719.5859,19.0313 Q720.9063,17.375 723.4063,17.375 Q724.1094,17.375 724.7578,17.5313 Q725.4063,17.6875 725.9688,17.9844 L725.9688,20.7031 Q725.3438,20.125 724.75,19.8516 Q724.1563,19.5781 723.5313,19.5781 Q722.1875,19.5781 721.5,20.6484 Q720.8125,21.7188 720.8125,23.8125 Q720.8125,25.9063 721.5,26.9766 Q722.1875,28.0469 723.5313,28.0469 Q724.1563,28.0469 724.75,27.7734 Q725.3438,27.5 725.9688,26.9219 L725.9688,29.6406 Z "/><text fill="#000000" font-family="sans-serif" font-size="12" lengthAdjust="spacingAndGlyphs" textLength="77" x="737" y="28.1543">Collaborator</text><line style="stroke: #A80036; stroke-width: 1.5;" x1="709" x2="816" y1="40" y2="40"/><text fill="#000000" font-family="sans-serif" font-size="11" lengthAdjust="spacingAndGlyphs" textLength="74" x="714" y="54.2104">-String name</text><text fill="#000000" font-family="sans-serif" font-size="11" lengthAdjust="spacingAndGlyphs" textLength="73" x="714" y="67.0151">-String email</text><!--MD5=[b24ed8d4ae84bae9290d9aab401637c7]
class Manager--><rect fill="#FEFECE" filter="url(#f1cjx768orl9qe)" height="65.6094" id="Manager" style="stroke: #A80036; stroke-width: 1.5;" width="87" x="719" y="109"/><ellipse cx="734" cy="125" fill="#ADD1B2" rx="11" ry="11" style="stroke: #A80036; stroke-width: 1.0;"/><path d="M736.9688,130.6406 Q736.3906,130.9375 735.75,131.0859 Q735.1094,131.2344 734.4063,131.2344 Q731.9063,131.2344 730.5859,129.5859 Q729.2656,127.9375 729.2656,124.8125 Q729.2656,121.6875 730.5859,120.0313 Q731.9063,118.375 734.4063,118.375 Q735.1094,118.375 735.7578,118.5313 Q736.4063,118.6875 736.9688,118.9844 L736.9688,121.7031 Q736.3438,121.125 735.75,120.8516 Q735.1563,120.5781 734.5313,120.5781 Q733.1875,120.5781 732.5,121.6484 Q731.8125,122.7188 731.8125,124.8125 Q731.8125,126.9063 732.5,127.9766 Q733.1875,129.0469 734.5313,129.0469 Q735.1563,129.0469 735.75,128.7734 Q736.3438,128.5 736.9688,127.9219 L736.9688,130.6406 Z "/><text fill="#000000" font-family="sans-serif" font-size="12" lengthAdjust="spacingAndGlyphs" textLength="55" x="748" y="129.1543">Manager</text><line style="stroke: #A80036; stroke-width: 1.5;" x1="720" x2="805" y1="141" y2="141"/><text fill="#000000" font-family="sans-serif" font-size="11" lengthAdjust="spacingAndGlyphs" textLength="74" x="725" y="155.2104">-String name</text><text fill="#000000" font-family="sans-serif" font-size="11" lengthAdjust="spacingAndGlyphs" textLength="73" x="725" y="168.0151">-String email</text><!--MD5=[3fd616f346a44cd59a91eb10b19e157c]
class User--><rect fill="#FEFECE" filter="url(#f1cjx768orl9qe)" height="65.6094" id="User" style="stroke: #A80036; stroke-width: 1.5;" width="110" x="958" y="109"/><ellipse cx="995.05" cy="125" fill="#ADD1B2" rx="11" ry="11" style="stroke: #A80036; stroke-width: 1.0;"/><path d="M998.0188,130.6406 Q997.4406,130.9375 996.8,131.0859 Q996.1594,131.2344 995.4563,131.2344 Q992.9563,131.2344 991.6359,129.5859 Q990.3156,127.9375 990.3156,124.8125 Q990.3156,121.6875 991.6359,120.0313 Q992.9563,118.375 995.4563,118.375 Q996.1594,118.375 996.8078,118.5313 Q997.4563,118.6875 998.0188,118.9844 L998.0188,121.7031 Q997.3938,121.125 996.8,120.8516 Q996.2063,120.5781 995.5813,120.5781 Q994.2375,120.5781 993.55,121.6484 Q992.8625,122.7188 992.8625,124.8125 Q992.8625,126.9063 993.55,127.9766 Q994.2375,129.0469 995.5813,129.0469 Q996.2063,129.0469 996.8,128.7734 Q997.3938,128.5 998.0188,127.9219 L998.0188,130.6406 Z "/><text fill="#000000" font-family="sans-serif" font-size="12" lengthAdjust="spacingAndGlyphs" textLength="29" x="1013.95" y="129.1543">User</text><line style="stroke: #A80036; stroke-width: 1.5;" x1="959" x2="1067" y1="141" y2="141"/><text fill="#000000" font-family="sans-serif" font-size="11" lengthAdjust="spacingAndGlyphs" textLength="73" x="964" y="155.2104">-String email</text><text fill="#000000" font-family="sans-serif" font-size="11" lengthAdjust="spacingAndGlyphs" textLength="98" x="964" y="168.0151">-String password</text><!--MD5=[38d767b50186fba503091f69c245e88c]
class ExternalPwdGeneratorAlgorithm--><rect fill="#FEFECE" filter="url(#f1cjx768orl9qe)" height="40" id="ExternalPwdGeneratorAlgorithm" style="stroke: #A80036; stroke-width: 1.5;" width="231" x="433" y="207"/><ellipse cx="448" cy="223" fill="#ADD1B2" rx="11" ry="11" style="stroke: #A80036; stroke-width: 1.0;"/><path d="M450.9688,228.6406 Q450.3906,228.9375 449.75,229.0859 Q449.1094,229.2344 448.4063,229.2344 Q445.9063,229.2344 444.5859,227.5859 Q443.2656,225.9375 443.2656,222.8125 Q443.2656,219.6875 444.5859,218.0313 Q445.9063,216.375 448.4063,216.375 Q449.1094,216.375 449.7578,216.5313 Q450.4063,216.6875 450.9688,216.9844 L450.9688,219.7031 Q450.3438,219.125 449.75,218.8516 Q449.1563,218.5781 448.5313,218.5781 Q447.1875,218.5781 446.5,219.6484 Q445.8125,220.7188 445.8125,222.8125 Q445.8125,224.9063 446.5,225.9766 Q447.1875,227.0469 448.5313,227.0469 Q449.1563,227.0469 449.75,226.7734 Q450.3438,226.5 450.9688,225.9219 L450.9688,228.6406 Z "/><text fill="#000000" font-family="sans-serif" font-size="12" lengthAdjust="spacingAndGlyphs" textLength="199" x="462" y="227.1543">ExternalPwdGeneratorAlgorithm</text><line style="stroke: #A80036; stroke-width: 1.5;" x1="434" x2="663" y1="239" y2="239"/><!--MD5=[7640e466c042ba2d6f9c19c816f7f0fc]
link Platform to Organization--><path d="M126.1502,186.6287 C175.4865,176.4815 244.7693,162.2318 292.7267,152.3683 " fill="none" id="Platform-Organization" style="stroke: #A80036; stroke-width: 1.0;"/><text fill="#000000" font-family="sans-serif" font-size="13" lengthAdjust="spacingAndGlyphs" textLength="92" x="157" y="156.0669">has registered</text><polygon fill="#000000" points="252,150.0664,258,153.0664,252,156.0664,252,150.0664" style="stroke: #000000; stroke-width: 1.0;"/><text fill="#000000" font-family="sans-serif" font-size="13" lengthAdjust="spacingAndGlyphs" textLength="8" x="133.9685" y="198.1219">1</text><text fill="#000000" font-family="sans-serif" font-size="13" lengthAdjust="spacingAndGlyphs" textLength="7" x="277.829" y="167.0058">*</text><!--MD5=[3313b9194d9f022f4001b189f9265f96]
link Platform to ExternalPwdGeneratorAlgorithm--><path d="M126.0157,203.8708 C136.0257,204.6249 146.3041,205.3636 156,206 C249.1176,212.1114 354.7512,217.6859 432.9583,221.5533 " fill="none" id="Platform-ExternalPwdGeneratorAlgorithm" style="stroke: #A80036; stroke-width: 1.0;"/><text fill="#000000" font-family="sans-serif" font-size="13" lengthAdjust="spacingAndGlyphs" textLength="55" x="175.5" y="202.0669">resort to</text><polygon fill="#000000" points="233.5,196.0664,239.5,199.0664,233.5,202.0664,233.5,196.0664" style="stroke: #000000; stroke-width: 1.0;"/><text fill="#000000" font-family="sans-serif" font-size="13" lengthAdjust="spacingAndGlyphs" textLength="8" x="133.8176" y="217.4654">1</text><text fill="#000000" font-family="sans-serif" font-size="13" lengthAdjust="spacingAndGlyphs" textLength="8" x="416.9266" y="233.7626">1</text><!--MD5=[45817597bcd7048073a670d966abfd17]
link Organization to Collaborator--><path d="M403.22,124.9891 C413.1133,122.2403 423.3451,119.4749 433,117 C529.2493,92.3273 642.2548,67.0591 707.7901,52.7672 " fill="none" id="Organization-Collaborator" style="stroke: #A80036; stroke-width: 1.0;"/><text fill="#000000" font-family="sans-serif" font-size="13" lengthAdjust="spacingAndGlyphs" textLength="23" x="530.5" y="60.0669">has</text><polygon fill="#000000" points="556.5,54.0664,562.5,57.0664,556.5,60.0664,556.5,54.0664" style="stroke: #000000; stroke-width: 1.0;"/><text fill="#000000" font-family="sans-serif" font-size="13" lengthAdjust="spacingAndGlyphs" textLength="8" x="411.1777" y="135.9475">1</text><text fill="#000000" font-family="sans-serif" font-size="13" lengthAdjust="spacingAndGlyphs" textLength="8" x="691.901" y="67.4583">1</text><!--MD5=[bc039f41cf0b27fadee5cae63fc6e1fe]
link Organization to Manager--><path d="M403.0424,141.1328 C486.3953,141.3339 642.954,141.7116 718.93,141.8949 " fill="none" id="Organization-Manager" style="stroke: #A80036; stroke-width: 1.0;"/><text fill="#000000" font-family="sans-serif" font-size="13" lengthAdjust="spacingAndGlyphs" textLength="23" x="530.5" y="138.0669">has</text><polygon fill="#000000" points="556.5,132.0664,562.5,135.0664,556.5,138.0664,556.5,132.0664" style="stroke: #000000; stroke-width: 1.0;"/><text fill="#000000" font-family="sans-serif" font-size="13" lengthAdjust="spacingAndGlyphs" textLength="8" x="410.9762" y="154.2605">1</text><text fill="#000000" font-family="sans-serif" font-size="13" lengthAdjust="spacingAndGlyphs" textLength="8" x="703.0512" y="155.2299">1</text><!--MD5=[04ce0ecdab38a3951889ff50c232570f]
link Collaborator to User--><path d="M817.1637,63.0401 C858.7679,79.8146 915.7997,102.8095 957.5874,119.658 " fill="none" id="Collaborator-User" style="stroke: #A80036; stroke-width: 1.0;"/><text fill="#000000" font-family="sans-serif" font-size="13" lengthAdjust="spacingAndGlyphs" textLength="52" x="862" y="79.0669">acts like</text><polygon fill="#000000" points="917,73.0664,923,76.0664,917,79.0664,917,73.0664" style="stroke: #000000; stroke-width: 1.0;"/><text fill="#000000" font-family="sans-serif" font-size="13" lengthAdjust="spacingAndGlyphs" textLength="24" x="824.8717" y="78.5528">0..1</text><text fill="#000000" font-family="sans-serif" font-size="13" lengthAdjust="spacingAndGlyphs" textLength="8" x="941.9752" y="129.8568">1</text><!--MD5=[6eb6e197a729f6ec2412743e0bdbca1d]
link Manager to User--><path d="M806.1338,142 C848.1865,142 911.9805,142 957.6002,142 " fill="none" id="Manager-User" style="stroke: #A80036; stroke-width: 1.0;"/><text fill="#000000" font-family="sans-serif" font-size="13" lengthAdjust="spacingAndGlyphs" textLength="52" x="862" y="138.0669">acts like</text><polygon fill="#000000" points="917,132.0664,923,135.0664,917,138.0664,917,132.0664" style="stroke: #000000; stroke-width: 1.0;"/><text fill="#000000" font-family="sans-serif" font-size="13" lengthAdjust="spacingAndGlyphs" textLength="24" x="813.9573" y="155.1584">0..1</text><text fill="#000000" font-family="sans-serif" font-size="13" lengthAdjust="spacingAndGlyphs" textLength="8" x="941.9896" y="155.0614">1</text><!--MD5=[ee83525721cfd00449d18a755fcc2712]
link ExternalPwdGeneratorAlgorithm to User--><path d="M664.2903,227.1448 C715.7995,225.2869 776.9061,220.427 831,209 C874.8145,199.7444 922.2271,182.0218 957.6731,167.1282 " fill="none" id="ExternalPwdGeneratorAlgorithm-User" style="stroke: #A80036; stroke-width: 1.0;"/><text fill="#000000" font-family="sans-serif" font-size="13" lengthAdjust="spacingAndGlyphs" textLength="122" x="695" y="205.0669">generate password</text><polygon fill="#000000" points="820,199.0664,826,202.0664,820,205.0664,820,199.0664" style="stroke: #000000; stroke-width: 1.0;"/><text fill="#000000" font-family="sans-serif" font-size="13" lengthAdjust="spacingAndGlyphs" textLength="8" x="671.9644" y="239.7057">1</text><text fill="#000000" font-family="sans-serif" font-size="13" lengthAdjust="spacingAndGlyphs" textLength="7" x="943.1359" y="183.4091">*</text><!--MD5=[ffc75fc5c43a668dd18c00d01c84fb97]
@startuml
skinparam classAttributeIconSize 0
hide methods
left to right direction

class Platform {
  -String designation
}

class Organization {
  -String name
  -String NIF
}

class Collaborator {
  -String name
  -String email
}

class Manager {
  -String name
  -String email
}

class User {
  -String email
  -String password
}

class ExternalPwdGeneratorAlgorithm {
}

Platform "1" - - "*" Organization : has registered >
Platform "1" - - "1" ExternalPwdGeneratorAlgorithm : resort to >

Organization "1" - - "1" Collaborator: has >
Organization "1" - - "1" Manager: has >

Collaborator "0..1" - - "1" User: acts like >
Manager "0..1" - - "1" User: acts like >

ExternalPwdGeneratorAlgorithm "1" - - "*" User : generate password >
@enduml

PlantUML version 1.2019.12(Sun Nov 03 10:24:54 UTC 2019)
(GPL source distribution)
Java Runtime: OpenJDK Runtime Environment
JVM: OpenJDK 64-Bit Server VM
Java Version: 1.8.0_232-heroku-b09
Operating System: Linux
Default Encoding: UTF-8
Language: en
Country: US
--></g></svg>