<?xml version="1.0" encoding="UTF-8" standalone="no"?><svg xmlns="http://www.w3.org/2000/svg" xmlns:xlink="http://www.w3.org/1999/xlink" contentScriptType="application/ecmascript" contentStyleType="text/css" height="190px" preserveAspectRatio="none" style="width:338px;height:190px;" version="1.1" viewBox="0 0 338 190" width="338px" zoomAndPan="magnify"><defs><filter height="300%" id="fvvcefgzibjba" width="300%" x="-1" y="-1"><feGaussianBlur result="blurOut" stdDeviation="2.0"/><feColorMatrix in="blurOut" result="blurOut2" type="matrix" values="0 0 0 0 0 0 0 0 0 0 0 0 0 0 0 0 0 0 .4 0"/><feOffset dx="4.0" dy="4.0" in="blurOut2" result="blurOut3"/><feBlend in="SourceGraphic" in2="blurOut3" mode="normal"/></filter></defs><g><!--MD5=[c770a74bfa57c89e52aad2356be61140]
class PasswordGeneratorAlgorithm--><rect fill="#FEFECE" filter="url(#fvvcefgzibjba)" height="58.7422" id="PasswordGeneratorAlgorithm" style="stroke: #A80036; stroke-width: 1.5;" width="321" x="6" y="8"/><ellipse cx="70.75" cy="26.9688" fill="#B4A7E5" rx="11" ry="11" style="stroke: #A80036; stroke-width: 1.0;"/><path d="M66.6719,22.7344 L66.6719,20.5781 L74.0625,20.5781 L74.0625,22.7344 L71.5938,22.7344 L71.5938,30.8125 L74.0625,30.8125 L74.0625,32.9688 L66.6719,32.9688 L66.6719,30.8125 L69.1406,30.8125 L69.1406,22.7344 L66.6719,22.7344 Z "/><text fill="#000000" font-family="sans-serif" font-size="12" font-style="italic" lengthAdjust="spacingAndGlyphs" textLength="70" x="147.75" y="24.1387">«interface»</text><text fill="#000000" font-family="sans-serif" font-size="12" font-style="italic" lengthAdjust="spacingAndGlyphs" textLength="183" x="91.25" y="38.1074">PasswordGeneratorAlgorithm</text><line style="stroke: #A80036; stroke-width: 1.5;" x1="7" x2="326" y1="45.9375" y2="45.9375"/><text fill="#000000" font-family="sans-serif" font-size="11" lengthAdjust="spacingAndGlyphs" textLength="309" x="12" y="60.1479">+String generatePassword(String name, String email)</text><!--MD5=[b25af0b5c2b0a37097f3de26f46a575d]
class ExternalAlgorithm1API--><rect fill="#FEFECE" filter="url(#fvvcefgzibjba)" height="52.8047" id="ExternalAlgorithm1API" style="stroke: #A80036; stroke-width: 1.5;" width="321" x="6" y="127"/><ellipse cx="93.75" cy="143" fill="#ADD1B2" rx="11" ry="11" style="stroke: #A80036; stroke-width: 1.0;"/><path d="M96.7188,148.6406 Q96.1406,148.9375 95.5,149.0859 Q94.8594,149.2344 94.1563,149.2344 Q91.6563,149.2344 90.3359,147.5859 Q89.0156,145.9375 89.0156,142.8125 Q89.0156,139.6875 90.3359,138.0313 Q91.6563,136.375 94.1563,136.375 Q94.8594,136.375 95.5078,136.5313 Q96.1563,136.6875 96.7188,136.9844 L96.7188,139.7031 Q96.0938,139.125 95.5,138.8516 Q94.9063,138.5781 94.2813,138.5781 Q92.9375,138.5781 92.25,139.6484 Q91.5625,140.7188 91.5625,142.8125 Q91.5625,144.9063 92.25,145.9766 Q92.9375,147.0469 94.2813,147.0469 Q94.9063,147.0469 95.5,146.7734 Q96.0938,146.5 96.7188,145.9219 L96.7188,148.6406 Z "/><text fill="#000000" font-family="sans-serif" font-size="12" lengthAdjust="spacingAndGlyphs" textLength="137" x="114.25" y="147.1543">ExternalAlgorithm1API</text><line style="stroke: #A80036; stroke-width: 1.5;" x1="7" x2="326" y1="159" y2="159"/><text fill="#000000" font-family="sans-serif" font-size="11" lengthAdjust="spacingAndGlyphs" textLength="309" x="12" y="173.2104">+String generatePassword(String name, String email)</text><!--MD5=[e98c9c9e85d0ef030564f21851b6dc0b]
reverse link PasswordGeneratorAlgorithm to ExternalAlgorithm1API--><path d="M166.5,87.4007 C166.5,100.9277 166.5,115.0541 166.5,126.7587 " fill="none" id="PasswordGeneratorAlgorithm&lt;-ExternalAlgorithm1API" style="stroke: #A80036; stroke-width: 1.0; stroke-dasharray: 7.0,7.0;"/><polygon fill="none" points="159.5001,87.0719,166.5,67.0718,173.5001,87.0718,159.5001,87.0719" style="stroke: #A80036; stroke-width: 1.0;"/><!--MD5=[a531fd008a7ca44f371c5bc9b274f956]
@startuml
skinparam classAttributeIconSize 0
hide attributes

interface PasswordGeneratorAlgorithm << interface >>
{
 +String generatePassword(String name, String email)
}


class ExternalAlgorithm1API
{
    +String generatePassword(String name, String email)
}

PasswordGeneratorAlgorithm <|.. ExternalAlgorithm1API
@enduml

PlantUML version 1.2019.12(Sun Nov 03 10:24:54 UTC 2019)
(GPL source distribution)
Java Runtime: OpenJDK Runtime Environment
JVM: OpenJDK 64-Bit Server VM
Java Version: 1.8.0_232-heroku-b09
Operating System: Linux
Default Encoding: UTF-8
Language: en
Country: US
--></g></svg>