<?xml version="1.0" encoding="UTF-8" standalone="no"?><svg xmlns="http://www.w3.org/2000/svg" xmlns:xlink="http://www.w3.org/1999/xlink" contentScriptType="application/ecmascript" contentStyleType="text/css" height="803px" preserveAspectRatio="none" style="width:1277px;height:803px;" version="1.1" viewBox="0 0 1277 803" width="1277px" zoomAndPan="magnify"><defs><filter height="300%" id="fdi298h77bm6z" width="300%" x="-1" y="-1"><feGaussianBlur result="blurOut" stdDeviation="2.0"/><feColorMatrix in="blurOut" result="blurOut2" type="matrix" values="0 0 0 0 0 0 0 0 0 0 0 0 0 0 0 0 0 0 .4 0"/><feOffset dx="4.0" dy="4.0" in="blurOut2" result="blurOut3"/><feBlend in="SourceGraphic" in2="blurOut3" mode="normal"/></filter></defs><g><!--MD5=[f483d6e5de34a60207b28a5563be5e8b]
class Collaborator--><rect fill="#FEFECE" filter="url(#fdi298h77bm6z)" height="124.8281" id="Collaborator" style="stroke: #A80036; stroke-width: 1.5;" width="188" x="148.5223" y="668"/><ellipse cx="199.7723" cy="684" fill="#ADD1B2" rx="11" ry="11" style="stroke: #A80036; stroke-width: 1.0;"/><path d="M202.7411,689.6406 Q202.1629,689.9375 201.5223,690.0859 Q200.8817,690.2344 200.1786,690.2344 Q197.6786,690.2344 196.3582,688.5859 Q195.0379,686.9375 195.0379,683.8125 Q195.0379,680.6875 196.3582,679.0313 Q197.6786,677.375 200.1786,677.375 Q200.8817,677.375 201.5301,677.5313 Q202.1786,677.6875 202.7411,677.9844 L202.7411,680.7031 Q202.1161,680.125 201.5223,679.8516 Q200.9286,679.5781 200.3036,679.5781 Q198.9598,679.5781 198.2723,680.6484 Q197.5848,681.7188 197.5848,683.8125 Q197.5848,685.9063 198.2723,686.9766 Q198.9598,688.0469 200.3036,688.0469 Q200.9286,688.0469 201.5223,687.7734 Q202.1161,687.5 202.7411,686.9219 L202.7411,689.6406 Z "/><text fill="#000000" font-family="sans-serif" font-size="12" lengthAdjust="spacingAndGlyphs" textLength="77" x="220.2723" y="688.1543">Collaborator</text><line style="stroke: #A80036; stroke-width: 1.5;" x1="149.5223" x2="335.5223" y1="700" y2="700"/><text fill="#000000" font-family="sans-serif" font-size="11" lengthAdjust="spacingAndGlyphs" textLength="74" x="154.5223" y="714.2104">-String name</text><text fill="#000000" font-family="sans-serif" font-size="11" lengthAdjust="spacingAndGlyphs" textLength="73" x="154.5223" y="727.0151">-String email</text><line style="stroke: #A80036; stroke-width: 1.5;" x1="149.5223" x2="335.5223" y1="733.6094" y2="733.6094"/><text fill="#000000" font-family="sans-serif" font-size="11" lengthAdjust="spacingAndGlyphs" textLength="176" x="154.5223" y="747.8198">+Colaborador(nameM, emailM)</text><text fill="#000000" font-family="sans-serif" font-size="11" lengthAdjust="spacingAndGlyphs" textLength="174" x="154.5223" y="760.6245">+Colaborador(nameC, emailC)</text><text fill="#000000" font-family="sans-serif" font-size="11" lengthAdjust="spacingAndGlyphs" textLength="106" x="154.5223" y="773.4292">+String getNome()</text><text fill="#000000" font-family="sans-serif" font-size="11" lengthAdjust="spacingAndGlyphs" textLength="104" x="154.5223" y="786.2339">+String getEmail()</text><!--MD5=[86c7c362de55a38b660185a1328fe18d]
class Organization--><rect fill="#FEFECE" filter="url(#fdi298h77bm6z)" height="112.0234" id="Organization" style="stroke: #A80036; stroke-width: 1.5;" width="285" x="35.0223" y="479"/><ellipse cx="134.2723" cy="495" fill="#ADD1B2" rx="11" ry="11" style="stroke: #A80036; stroke-width: 1.0;"/><path d="M137.2411,500.6406 Q136.6629,500.9375 136.0223,501.0859 Q135.3817,501.2344 134.6786,501.2344 Q132.1786,501.2344 130.8582,499.5859 Q129.5379,497.9375 129.5379,494.8125 Q129.5379,491.6875 130.8582,490.0313 Q132.1786,488.375 134.6786,488.375 Q135.3817,488.375 136.0301,488.5313 Q136.6786,488.6875 137.2411,488.9844 L137.2411,491.7031 Q136.6161,491.125 136.0223,490.8516 Q135.4286,490.5781 134.8036,490.5781 Q133.4598,490.5781 132.7723,491.6484 Q132.0848,492.7188 132.0848,494.8125 Q132.0848,496.9063 132.7723,497.9766 Q133.4598,499.0469 134.8036,499.0469 Q135.4286,499.0469 136.0223,498.7734 Q136.6161,498.5 137.2411,497.9219 L137.2411,500.6406 Z "/><text fill="#000000" font-family="sans-serif" font-size="12" lengthAdjust="spacingAndGlyphs" textLength="78" x="154.7723" y="499.1543">Organization</text><line style="stroke: #A80036; stroke-width: 1.5;" x1="36.0223" x2="319.0223" y1="511" y2="511"/><text fill="#000000" font-family="sans-serif" font-size="11" lengthAdjust="spacingAndGlyphs" textLength="74" x="41.0223" y="525.2104">-String name</text><text fill="#000000" font-family="sans-serif" font-size="11" lengthAdjust="spacingAndGlyphs" textLength="59" x="41.0223" y="538.0151">-String NIF</text><line style="stroke: #A80036; stroke-width: 1.5;" x1="36.0223" x2="319.0223" y1="544.6094" y2="544.6094"/><text fill="#000000" font-family="sans-serif" font-size="11" lengthAdjust="spacingAndGlyphs" text-decoration="underline" textLength="273" x="41.0223" y="558.8198">+Colaborador newCollaborator(nameM, emailM)</text><text fill="#000000" font-family="sans-serif" font-size="11" lengthAdjust="spacingAndGlyphs" text-decoration="underline" textLength="271" x="41.0223" y="571.6245">+Colaborador newCollaborator(nameC, emailC)</text><text fill="#000000" font-family="sans-serif" font-size="11" lengthAdjust="spacingAndGlyphs" textLength="244" x="41.0223" y="584.4292">+Organizacao(name, NIF, manager, collab)</text><!--MD5=[99b8db98afdc2c8404e39242ef4c1e65]
class Platform--><rect fill="#FEFECE" filter="url(#fdi298h77bm6z)" height="99.2188" id="Platform" style="stroke: #A80036; stroke-width: 1.5;" width="354" x="46.5223" y="277.5"/><ellipse cx="193.2723" cy="293.5" fill="#ADD1B2" rx="11" ry="11" style="stroke: #A80036; stroke-width: 1.0;"/><path d="M196.2411,299.1406 Q195.6629,299.4375 195.0223,299.5859 Q194.3817,299.7344 193.6786,299.7344 Q191.1786,299.7344 189.8582,298.0859 Q188.5379,296.4375 188.5379,293.3125 Q188.5379,290.1875 189.8582,288.5313 Q191.1786,286.875 193.6786,286.875 Q194.3817,286.875 195.0301,287.0313 Q195.6786,287.1875 196.2411,287.4844 L196.2411,290.2031 Q195.6161,289.625 195.0223,289.3516 Q194.4286,289.0781 193.8036,289.0781 Q192.4598,289.0781 191.7723,290.1484 Q191.0848,291.2188 191.0848,293.3125 Q191.0848,295.4063 191.7723,296.4766 Q192.4598,297.5469 193.8036,297.5469 Q194.4286,297.5469 195.0223,297.2734 Q195.6161,297 196.2411,296.4219 L196.2411,299.1406 Z "/><text fill="#000000" font-family="sans-serif" font-size="12" lengthAdjust="spacingAndGlyphs" textLength="52" x="213.7723" y="297.6543">Platform</text><line style="stroke: #A80036; stroke-width: 1.5;" x1="47.5223" x2="399.5223" y1="309.5" y2="309.5"/><text fill="#000000" font-family="sans-serif" font-size="11" lengthAdjust="spacingAndGlyphs" textLength="108" x="52.5223" y="323.7104">-String designation</text><line style="stroke: #A80036; stroke-width: 1.5;" x1="47.5223" x2="399.5223" y1="330.3047" y2="330.3047"/><text fill="#000000" font-family="sans-serif" font-size="11" lengthAdjust="spacingAndGlyphs" textLength="273" x="52.5223" y="344.5151">+OrganizationsRecord getOrganizationsRecord()</text><text fill="#000000" font-family="sans-serif" font-size="11" lengthAdjust="spacingAndGlyphs" textLength="265" x="52.5223" y="357.3198">+FacadeAuthorization getFacadeAuthorization()</text><text fill="#000000" font-family="sans-serif" font-size="11" lengthAdjust="spacingAndGlyphs" textLength="342" x="52.5223" y="370.1245">+PasswordGeneratorAlgorithm getPwdGeneratorAlgorithm()</text><!--MD5=[759d9d4bd7fe37fb1c4b72776400893c]
class OrganizationsRecord--><rect fill="#FEFECE" filter="url(#fdi298h77bm6z)" height="150.4375" id="OrganizationsRecord" style="stroke: #A80036; stroke-width: 1.5;" width="447" x="436.0223" y="252"/><ellipse cx="590.7723" cy="268" fill="#ADD1B2" rx="11" ry="11" style="stroke: #A80036; stroke-width: 1.0;"/><path d="M593.7411,273.6406 Q593.1629,273.9375 592.5223,274.0859 Q591.8817,274.2344 591.1786,274.2344 Q588.6786,274.2344 587.3582,272.5859 Q586.0379,270.9375 586.0379,267.8125 Q586.0379,264.6875 587.3582,263.0313 Q588.6786,261.375 591.1786,261.375 Q591.8817,261.375 592.5301,261.5313 Q593.1786,261.6875 593.7411,261.9844 L593.7411,264.7031 Q593.1161,264.125 592.5223,263.8516 Q591.9286,263.5781 591.3036,263.5781 Q589.9598,263.5781 589.2723,264.6484 Q588.5848,265.7188 588.5848,267.8125 Q588.5848,269.9063 589.2723,270.9766 Q589.9598,272.0469 591.3036,272.0469 Q591.9286,272.0469 592.5223,271.7734 Q593.1161,271.5 593.7411,270.9219 L593.7411,273.6406 Z "/><text fill="#000000" font-family="sans-serif" font-size="12" lengthAdjust="spacingAndGlyphs" textLength="129" x="611.2723" y="272.1543">OrganizationsRecord</text><line style="stroke: #A80036; stroke-width: 1.5;" x1="437.0223" x2="882.0223" y1="284" y2="284"/><line style="stroke: #A80036; stroke-width: 1.5;" x1="437.0223" x2="882.0223" y1="292" y2="292"/><text fill="#000000" font-family="sans-serif" font-size="11" lengthAdjust="spacingAndGlyphs" textLength="435" x="442.0223" y="306.2104">+Organization newOrganization(name, NIF, nameM, emailM, nameC, emailC)</text><text fill="#000000" font-family="sans-serif" font-size="11" lengthAdjust="spacingAndGlyphs" textLength="226" x="442.0223" y="319.0151">+validateOrganization(Organization org)</text><text fill="#000000" font-family="sans-serif" font-size="11" lengthAdjust="spacingAndGlyphs" textLength="227" x="442.0223" y="331.8198">+organizationRegister(Organization org)</text><text fill="#000000" font-family="sans-serif" font-size="11" lengthAdjust="spacingAndGlyphs" textLength="198" x="442.0223" y="344.6245">-addOrganization(Organization org)</text><text fill="#000000" font-family="sans-serif" font-size="11" lengthAdjust="spacingAndGlyphs" textLength="276" x="442.0223" y="357.4292">-RegistesManagerAsUser(Collaborator manager)</text><text fill="#000000" font-family="sans-serif" font-size="11" lengthAdjust="spacingAndGlyphs" textLength="212" x="442.0223" y="370.2339">-enviaPwd(String emailM, String pwd)</text><text fill="#000000" font-family="sans-serif" font-size="11" lengthAdjust="spacingAndGlyphs" textLength="279" x="442.0223" y="383.0386">-RegistesCollaboratorAsUser(Collaborator collab)</text><text fill="#000000" font-family="sans-serif" font-size="11" lengthAdjust="spacingAndGlyphs" textLength="211" x="442.0223" y="395.8433">-enviaPwd(String emailC, String pwd)</text><!--MD5=[c92a301914785b9701ae4dd841eeae97]
class FacadeAuthorization--><rect fill="#FEFECE" filter="url(#fdi298h77bm6z)" height="73.6094" id="FacadeAuthorization" style="stroke: #A80036; stroke-width: 1.5;" width="465" x="427.0223" y="498"/><ellipse cx="591.2723" cy="514" fill="#ADD1B2" rx="11" ry="11" style="stroke: #A80036; stroke-width: 1.0;"/><path d="M594.2411,519.6406 Q593.6629,519.9375 593.0223,520.0859 Q592.3817,520.2344 591.6786,520.2344 Q589.1786,520.2344 587.8582,518.5859 Q586.5379,516.9375 586.5379,513.8125 Q586.5379,510.6875 587.8582,509.0313 Q589.1786,507.375 591.6786,507.375 Q592.3817,507.375 593.0301,507.5313 Q593.6786,507.6875 594.2411,507.9844 L594.2411,510.7031 Q593.6161,510.125 593.0223,509.8516 Q592.4286,509.5781 591.8036,509.5781 Q590.4598,509.5781 589.7723,510.6484 Q589.0848,511.7188 589.0848,513.8125 Q589.0848,515.9063 589.7723,516.9766 Q590.4598,518.0469 591.8036,518.0469 Q592.4286,518.0469 593.0223,517.7734 Q593.6161,517.5 594.2411,516.9219 L594.2411,519.6406 Z "/><text fill="#000000" font-family="sans-serif" font-size="12" lengthAdjust="spacingAndGlyphs" textLength="128" x="611.7723" y="518.1543">FacadeAuthorization</text><line style="stroke: #A80036; stroke-width: 1.5;" x1="428.0223" x2="891.0223" y1="530" y2="530"/><line style="stroke: #A80036; stroke-width: 1.5;" x1="428.0223" x2="891.0223" y1="538" y2="538"/><text fill="#000000" font-family="sans-serif" font-size="11" lengthAdjust="spacingAndGlyphs" textLength="453" x="433.0223" y="552.2104">+registesUserWithRoles(nameM, emailM, pwd, ["MANAGER", "COLLABORATOR"])</text><text fill="#000000" font-family="sans-serif" font-size="11" lengthAdjust="spacingAndGlyphs" textLength="371" x="433.0223" y="565.0151">+registesUserWithRoles(nameC, emailC, pwd, "COLLABORATOR")</text><!--MD5=[c770a74bfa57c89e52aad2356be61140]
class PasswordGeneratorAlgorithm--><rect fill="#FEFECE" filter="url(#fdi298h77bm6z)" height="79.5469" id="PasswordGeneratorAlgorithm" style="stroke: #A80036; stroke-width: 1.5;" width="339" x="927.0223" y="495"/><ellipse cx="1000.7723" cy="513.9688" fill="#B4A7E5" rx="11" ry="11" style="stroke: #A80036; stroke-width: 1.0;"/><path d="M996.6942,509.7344 L996.6942,507.5781 L1004.0848,507.5781 L1004.0848,509.7344 L1001.6161,509.7344 L1001.6161,517.8125 L1004.0848,517.8125 L1004.0848,519.9688 L996.6942,519.9688 L996.6942,517.8125 L999.1629,517.8125 L999.1629,509.7344 L996.6942,509.7344 Z "/><text fill="#000000" font-family="sans-serif" font-size="12" font-style="italic" lengthAdjust="spacingAndGlyphs" textLength="70" x="1077.7723" y="511.1387">«interface»</text><text fill="#000000" font-family="sans-serif" font-size="12" font-style="italic" lengthAdjust="spacingAndGlyphs" textLength="183" x="1021.2723" y="525.1074">PasswordGeneratorAlgorithm</text><line style="stroke: #A80036; stroke-width: 1.5;" x1="928.0223" x2="1265.0223" y1="532.9375" y2="532.9375"/><line style="stroke: #A80036; stroke-width: 1.5;" x1="928.0223" x2="1265.0223" y1="540.9375" y2="540.9375"/><text fill="#000000" font-family="sans-serif" font-size="11" lengthAdjust="spacingAndGlyphs" textLength="327" x="933.0223" y="555.1479">+String generatePassword(String nameM, String emailM)</text><text fill="#000000" font-family="sans-serif" font-size="11" lengthAdjust="spacingAndGlyphs" textLength="325" x="933.0223" y="567.9526">+String generatePassword(String nameC, String emailC)</text><!--MD5=[9f44d23a8a3e238f6a921a3f88c65a2a]
class OrganizationRecordController--><rect fill="#FEFECE" filter="url(#fdi298h77bm6z)" height="73.6094" id="OrganizationRecordController" style="stroke: #A80036; stroke-width: 1.5;" width="372" x="37.5223" y="117"/><ellipse cx="127.7723" cy="133" fill="#ADD1B2" rx="11" ry="11" style="stroke: #A80036; stroke-width: 1.0;"/><path d="M130.7411,138.6406 Q130.1629,138.9375 129.5223,139.0859 Q128.8817,139.2344 128.1786,139.2344 Q125.6786,139.2344 124.3582,137.5859 Q123.0379,135.9375 123.0379,132.8125 Q123.0379,129.6875 124.3582,128.0313 Q125.6786,126.375 128.1786,126.375 Q128.8817,126.375 129.5301,126.5313 Q130.1786,126.6875 130.7411,126.9844 L130.7411,129.7031 Q130.1161,129.125 129.5223,128.8516 Q128.9286,128.5781 128.3036,128.5781 Q126.9598,128.5781 126.2723,129.6484 Q125.5848,130.7188 125.5848,132.8125 Q125.5848,134.9063 126.2723,135.9766 Q126.9598,137.0469 128.3036,137.0469 Q128.9286,137.0469 129.5223,136.7734 Q130.1161,136.5 130.7411,135.9219 L130.7411,138.6406 Z "/><text fill="#000000" font-family="sans-serif" font-size="12" lengthAdjust="spacingAndGlyphs" textLength="183" x="148.2723" y="137.1543">OrganizationRecordController</text><line style="stroke: #A80036; stroke-width: 1.5;" x1="38.5223" x2="408.5223" y1="149" y2="149"/><line style="stroke: #A80036; stroke-width: 1.5;" x1="38.5223" x2="408.5223" y1="157" y2="157"/><text fill="#000000" font-family="sans-serif" font-size="11" lengthAdjust="spacingAndGlyphs" textLength="360" x="43.5223" y="171.2104">+newOrganization(name, NIF, nameM, emailM, nameC, emailC)</text><text fill="#000000" font-family="sans-serif" font-size="11" lengthAdjust="spacingAndGlyphs" textLength="133" x="43.5223" y="184.0151">+organizationRegister()</text><!--MD5=[b29882ecfc700c7cd112b970f8492af2]
class OrganizationRecordUI--><rect fill="#FEFECE" filter="url(#fdi298h77bm6z)" height="48" id="OrganizationRecordUI" style="stroke: #A80036; stroke-width: 1.5;" width="166" x="140.5223" y="8"/><ellipse cx="155.5223" cy="24" fill="#ADD1B2" rx="11" ry="11" style="stroke: #A80036; stroke-width: 1.0;"/><path d="M158.4911,29.6406 Q157.9129,29.9375 157.2723,30.0859 Q156.6317,30.2344 155.9286,30.2344 Q153.4286,30.2344 152.1082,28.5859 Q150.7879,26.9375 150.7879,23.8125 Q150.7879,20.6875 152.1082,19.0313 Q153.4286,17.375 155.9286,17.375 Q156.6317,17.375 157.2801,17.5313 Q157.9286,17.6875 158.4911,17.9844 L158.4911,20.7031 Q157.8661,20.125 157.2723,19.8516 Q156.6786,19.5781 156.0536,19.5781 Q154.7098,19.5781 154.0223,20.6484 Q153.3348,21.7188 153.3348,23.8125 Q153.3348,25.9063 154.0223,26.9766 Q154.7098,28.0469 156.0536,28.0469 Q156.6786,28.0469 157.2723,27.7734 Q157.8661,27.5 158.4911,26.9219 L158.4911,29.6406 Z "/><text fill="#000000" font-family="sans-serif" font-size="12" lengthAdjust="spacingAndGlyphs" textLength="134" x="169.5223" y="28.1543">OrganizationRecordUI</text><line style="stroke: #A80036; stroke-width: 1.5;" x1="141.5223" x2="305.5223" y1="40" y2="40"/><line style="stroke: #A80036; stroke-width: 1.5;" x1="141.5223" x2="305.5223" y1="48" y2="48"/><!--MD5=[51764ff3e7c7ff1799ee9bb480086dcf]
link OrganizationRecordUI to OrganizationRecordController--><path d="M223.5223,56.1033 C223.5223,71.972 223.5223,93.1768 223.5223,111.7934 " fill="none" id="OrganizationRecordUI-&gt;OrganizationRecordController" style="stroke: #A80036; stroke-width: 1.0; stroke-dasharray: 7.0,7.0;"/><polygon fill="#A80036" points="223.5223,116.9691,227.5223,107.9691,223.5223,111.9691,219.5223,107.9691,223.5223,116.9691" style="stroke: #A80036; stroke-width: 1.0;"/><!--MD5=[9fc5896629388248e03ad7eb6b0daae2]
link OrganizationRecordController to Platform--><path d="M223.5223,191.1128 C223.5223,214.7547 223.5223,245.7988 223.5223,272.2458 " fill="none" id="OrganizationRecordController-&gt;Platform" style="stroke: #A80036; stroke-width: 1.0; stroke-dasharray: 7.0,7.0;"/><polygon fill="#A80036" points="223.5223,277.4704,227.5223,268.4704,223.5223,272.4704,219.5223,268.4704,223.5223,277.4704" style="stroke: #A80036; stroke-width: 1.0;"/><!--MD5=[cda96632a4ee569e1e6a0b7f1d1d5843]
link OrganizationRecordController to OrganizationsRecord--><path d="M316.7877,191.0067 C360.3753,208.3017 413.9894,229.5752 465.7576,250.1163 " fill="none" id="OrganizationRecordController-&gt;OrganizationsRecord" style="stroke: #A80036; stroke-width: 1.0; stroke-dasharray: 7.0,7.0;"/><polygon fill="#A80036" points="470.4395,251.974,463.5493,244.9366,465.792,250.1299,460.5987,252.3726,470.4395,251.974" style="stroke: #A80036; stroke-width: 1.0;"/><!--MD5=[a302c1269582845cba10a5907c450f8a]
link OrganizationRecordController to Organization--><path d="M100.2125,191.0986 C72.2528,205.5263 45.9824,225.2441 29.5223,252 C-5.4097,308.7821 2.377,341.1101 29.5223,402 C42.1543,430.3349 64.1366,455.1571 87.3546,475.4442 " fill="none" id="OrganizationRecordController-&gt;Organization" style="stroke: #A80036; stroke-width: 1.0; stroke-dasharray: 7.0,7.0;"/><polygon fill="#A80036" points="91.395,478.9194,87.1799,470.0181,87.6042,475.659,81.9633,476.0834,91.395,478.9194" style="stroke: #A80036; stroke-width: 1.0;"/><!--MD5=[15b500351a20fc4c9aef6172f83f2b2a]
link OrganizationsRecord to Organization--><path d="M435.9734,397.3309 C429.7688,398.9453 423.6095,400.5057 417.5223,402 C345.5606,419.6658 316.3805,392.7645 253.5223,432 C236.4909,442.6309 222.0152,458.5862 210.4125,474.7839 " fill="none" id="OrganizationsRecord-&gt;Organization" style="stroke: #A80036; stroke-width: 1.0;"/><polygon fill="#A80036" points="207.5248,478.9041,215.966,473.8301,210.3946,474.8097,209.415,469.2383,207.5248,478.9041" style="stroke: #A80036; stroke-width: 1.0;"/><text fill="#000000" font-family="sans-serif" font-size="13" lengthAdjust="spacingAndGlyphs" textLength="92" x="254.5223" y="445.0669">has registered</text><text fill="#000000" font-family="sans-serif" font-size="13" lengthAdjust="spacingAndGlyphs" textLength="8" x="419.7959" y="396.6503">1</text><text fill="#000000" font-family="sans-serif" font-size="13" lengthAdjust="spacingAndGlyphs" textLength="7" x="203.9204" y="467.8298">*</text><!--MD5=[0ef8e5073de95fb7f0f924ad4fed3da9]
link OrganizationsRecord to Collaborator--><path d="M511.0414,402.1016 C475.4862,424.0312 439.2507,450.0074 409.5223,479 C367.1575,520.3164 370.1771,541.6493 337.5223,591 C323.5773,612.0749 319.7462,617.1122 305.5223,638 C299.8833,646.2809 293.9601,654.9785 288.0959,663.5891 " fill="none" id="OrganizationsRecord-&gt;Collaborator" style="stroke: #A80036; stroke-width: 1.0; stroke-dasharray: 7.0,7.0;"/><polygon fill="#A80036" points="285.2233,667.8069,293.5956,662.6199,288.0379,663.6743,286.9835,658.1166,285.2233,667.8069" style="stroke: #A80036; stroke-width: 1.0;"/><!--MD5=[38e4da47db94f125de95f0b63b16a0a0]
link OrganizationsRecord to FacadeAuthorization--><path d="M659.5223,402.0928 C659.5223,432.6387 659.5223,466.7986 659.5223,492.8376 " fill="none" id="OrganizationsRecord-&gt;FacadeAuthorization" style="stroke: #A80036; stroke-width: 1.0; stroke-dasharray: 7.0,7.0;"/><polygon fill="#A80036" points="659.5223,497.9337,663.5223,488.9337,659.5223,492.9337,655.5223,488.9337,659.5223,497.9337" style="stroke: #A80036; stroke-width: 1.0;"/><!--MD5=[417a8373f3b7665318c477596f7910b2]
link OrganizationsRecord to PasswordGeneratorAlgorithm--><path d="M817.2893,402.0928 C881.3749,432.5957 953.0321,466.7026 1007.7099,492.7277 " fill="none" id="OrganizationsRecord-&gt;PasswordGeneratorAlgorithm" style="stroke: #A80036; stroke-width: 1.0; stroke-dasharray: 7.0,7.0;"/><polygon fill="#A80036" points="1012.2805,494.9032,1005.8731,487.4235,1007.7658,492.7544,1002.435,494.647,1012.2805,494.9032" style="stroke: #A80036; stroke-width: 1.0;"/><!--MD5=[45817597bcd7048073a670d966abfd17]
link Organization to Collaborator--><path d="M168.9841,591.063 C168.464,606.5786 169.6714,623.2114 174.5223,638 C177.379,646.7088 181.4034,655.2735 186.084,663.4649 " fill="none" id="Organization-&gt;Collaborator" style="stroke: #A80036; stroke-width: 1.0;"/><polygon fill="#A80036" points="188.7485,667.9758,187.6151,658.1924,186.2055,663.6708,180.7271,662.2612,188.7485,667.9758" style="stroke: #A80036; stroke-width: 1.0;"/><text fill="#000000" font-family="sans-serif" font-size="13" lengthAdjust="spacingAndGlyphs" textLength="23" x="175.5223" y="634.0669">has</text><text fill="#000000" font-family="sans-serif" font-size="13" lengthAdjust="spacingAndGlyphs" textLength="8" x="159.3776" y="611.2809">1</text><text fill="#000000" font-family="sans-serif" font-size="13" lengthAdjust="spacingAndGlyphs" textLength="8" x="174.0684" y="656.9638">1</text><!--MD5=[45817597bcd7048073a670d966abfd17]
link Organization to Collaborator--><path d="M196.1487,591.0225 C203.6087,613.4597 212.2692,639.5078 220.0724,662.9774 " fill="none" id="Organization-&gt;Collaborator-1" style="stroke: #A80036; stroke-width: 1.0;"/><polygon fill="#A80036" points="221.7237,667.9442,222.6798,658.1419,220.1462,663.1996,215.0884,660.6659,221.7237,667.9442" style="stroke: #A80036; stroke-width: 1.0;"/><text fill="#000000" font-family="sans-serif" font-size="13" lengthAdjust="spacingAndGlyphs" textLength="85" x="211.5223" y="634.0669">has manager</text><text fill="#000000" font-family="sans-serif" font-size="13" lengthAdjust="spacingAndGlyphs" textLength="8" x="190.0227" y="611.2352">1</text><text fill="#000000" font-family="sans-serif" font-size="13" lengthAdjust="spacingAndGlyphs" textLength="8" x="210.8564" y="656.9285">1</text><!--MD5=[c149a08e019b2f35376439ca5b9576e3]
@startuml
skinparam classAttributeIconSize 0

class Collaborator {
  -String name
  -String email
  +Colaborador(nameM, emailM)
  +Colaborador(nameC, emailC)
  +String getNome()
  +String getEmail()
}

class Organization {
  -String name
  -String NIF
  +{static} Colaborador newCollaborator(nameM, emailM)
  +{static} Colaborador newCollaborator(nameC, emailC)
  +Organizacao(name, NIF, manager, collab)
}

class Platform {
  -String designation
  +OrganizationsRecord getOrganizationsRecord()
  +FacadeAuthorization getFacadeAuthorization()
  +PasswordGeneratorAlgorithm getPwdGeneratorAlgorithm()
}

class OrganizationsRecord {
  +Organization newOrganization(name, NIF, nameM, emailM, nameC, emailC)
  +validateOrganization(Organization org)
  +organizationRegister(Organization org)
  -addOrganization(Organization org)
  -RegistesManagerAsUser(Collaborator manager)
  -enviaPwd(String emailM, String pwd)
  -RegistesCollaboratorAsUser(Collaborator collab)
  -enviaPwd(String emailC, String pwd)
}

class FacadeAuthorization {
  +registesUserWithRoles(nameM, emailM, pwd, ["MANAGER", "COLLABORATOR"])
  +registesUserWithRoles(nameC, emailC, pwd, "COLLABORATOR")
}

interface PasswordGeneratorAlgorithm <<interface>>{
   +String generatePassword(String nameM, String emailM)
   +String generatePassword(String nameC, String emailC)
}

class OrganizationRecordController {
    +newOrganization(name, NIF, nameM, emailM, nameC, emailC)
    +organizationRegister()
}

class OrganizationRecordUI {
}

OrganizationRecordUI ..> OrganizationRecordController
OrganizationRecordController ..> Platform
OrganizationRecordController ..> OrganizationsRecord
OrganizationRecordController ..> Organization

OrganizationsRecord "1" - -> "*" Organization : has registered
OrganizationsRecord ..> Collaborator
OrganizationsRecord ..> FacadeAuthorization
OrganizationsRecord ..> PasswordGeneratorAlgorithm
Organization "1" - -> "1" Collaborator: has
Organization "1" - -> "1" Collaborator: has manager
@enduml

PlantUML version 1.2019.12(Sun Nov 03 10:24:54 UTC 2019)
(GPL source distribution)
Java Runtime: OpenJDK Runtime Environment
JVM: OpenJDK 64-Bit Server VM
Java Version: 1.8.0_232-heroku-b09
Operating System: Linux
Default Encoding: UTF-8
Language: en
Country: US
--></g></svg>