<?xml version="1.0" encoding="UTF-8" standalone="no"?><svg xmlns="http://www.w3.org/2000/svg" xmlns:xlink="http://www.w3.org/1999/xlink" contentScriptType="application/ecmascript" contentStyleType="text/css" height="157px" preserveAspectRatio="none" style="width:1079px;height:157px;" version="1.1" viewBox="0 0 1079 157" width="1079px" zoomAndPan="magnify"><defs><filter height="300%" id="f1ktf6bxkvo7nk" width="300%" x="-1" y="-1"><feGaussianBlur result="blurOut" stdDeviation="2.0"/><feColorMatrix in="blurOut" result="blurOut2" type="matrix" values="0 0 0 0 0 0 0 0 0 0 0 0 0 0 0 0 0 0 .4 0"/><feOffset dx="4.0" dy="4.0" in="blurOut2" result="blurOut3"/><feBlend in="SourceGraphic" in2="blurOut3" mode="normal"/></filter></defs><g><!--MD5=[99b8db98afdc2c8404e39242ef4c1e65]
class Platform--><rect fill="#FEFECE" filter="url(#f1ktf6bxkvo7nk)" height="52.8047" id="Platform" style="stroke: #A80036; stroke-width: 1.5;" width="120" x="6" y="71.5"/><ellipse cx="37.2" cy="87.5" fill="#ADD1B2" rx="11" ry="11" style="stroke: #A80036; stroke-width: 1.0;"/><path d="M40.1688,93.1406 Q39.5906,93.4375 38.95,93.5859 Q38.3094,93.7344 37.6063,93.7344 Q35.1063,93.7344 33.7859,92.0859 Q32.4656,90.4375 32.4656,87.3125 Q32.4656,84.1875 33.7859,82.5313 Q35.1063,80.875 37.6063,80.875 Q38.3094,80.875 38.9578,81.0313 Q39.6063,81.1875 40.1688,81.4844 L40.1688,84.2031 Q39.5438,83.625 38.95,83.3516 Q38.3563,83.0781 37.7313,83.0781 Q36.3875,83.0781 35.7,84.1484 Q35.0125,85.2188 35.0125,87.3125 Q35.0125,89.4063 35.7,90.4766 Q36.3875,91.5469 37.7313,91.5469 Q38.3563,91.5469 38.95,91.2734 Q39.5438,91 40.1688,90.4219 L40.1688,93.1406 Z "/><text fill="#000000" font-family="sans-serif" font-size="12" lengthAdjust="spacingAndGlyphs" textLength="52" x="54.8" y="91.6543">Platform</text><line style="stroke: #A80036; stroke-width: 1.5;" x1="7" x2="125" y1="103.5" y2="103.5"/><text fill="#000000" font-family="sans-serif" font-size="11" lengthAdjust="spacingAndGlyphs" textLength="108" x="12" y="117.7104">-String designation</text><!--MD5=[86c7c362de55a38b660185a1328fe18d]
class Organization--><rect fill="#FEFECE" filter="url(#f1ktf6bxkvo7nk)" height="52.8047" id="Organization" style="stroke: #A80036; stroke-width: 1.5;" width="110" x="293" y="19.5"/><ellipse cx="308" cy="35.5" fill="#ADD1B2" rx="11" ry="11" style="stroke: #A80036; stroke-width: 1.0;"/><path d="M310.9688,41.1406 Q310.3906,41.4375 309.75,41.5859 Q309.1094,41.7344 308.4063,41.7344 Q305.9063,41.7344 304.5859,40.0859 Q303.2656,38.4375 303.2656,35.3125 Q303.2656,32.1875 304.5859,30.5313 Q305.9063,28.875 308.4063,28.875 Q309.1094,28.875 309.7578,29.0313 Q310.4063,29.1875 310.9688,29.4844 L310.9688,32.2031 Q310.3438,31.625 309.75,31.3516 Q309.1563,31.0781 308.5313,31.0781 Q307.1875,31.0781 306.5,32.1484 Q305.8125,33.2188 305.8125,35.3125 Q305.8125,37.4063 306.5,38.4766 Q307.1875,39.5469 308.5313,39.5469 Q309.1563,39.5469 309.75,39.2734 Q310.3438,39 310.9688,38.4219 L310.9688,41.1406 Z "/><text fill="#000000" font-family="sans-serif" font-size="12" lengthAdjust="spacingAndGlyphs" textLength="78" x="322" y="39.6543">Organization</text><line style="stroke: #A80036; stroke-width: 1.5;" x1="294" x2="402" y1="51.5" y2="51.5"/><text fill="#000000" font-family="sans-serif" font-size="11" lengthAdjust="spacingAndGlyphs" textLength="74" x="299" y="65.7104">-String name</text><!--MD5=[f483d6e5de34a60207b28a5563be5e8b]
class Collaborator--><rect fill="#FEFECE" filter="url(#f1ktf6bxkvo7nk)" height="65.6094" id="Collaborator" style="stroke: #A80036; stroke-width: 1.5;" width="109" x="708" y="8"/><ellipse cx="723" cy="24" fill="#ADD1B2" rx="11" ry="11" style="stroke: #A80036; stroke-width: 1.0;"/><path d="M725.9688,29.6406 Q725.3906,29.9375 724.75,30.0859 Q724.1094,30.2344 723.4063,30.2344 Q720.9063,30.2344 719.5859,28.5859 Q718.2656,26.9375 718.2656,23.8125 Q718.2656,20.6875 719.5859,19.0313 Q720.9063,17.375 723.4063,17.375 Q724.1094,17.375 724.7578,17.5313 Q725.4063,17.6875 725.9688,17.9844 L725.9688,20.7031 Q725.3438,20.125 724.75,19.8516 Q724.1563,19.5781 723.5313,19.5781 Q722.1875,19.5781 721.5,20.6484 Q720.8125,21.7188 720.8125,23.8125 Q720.8125,25.9063 721.5,26.9766 Q722.1875,28.0469 723.5313,28.0469 Q724.1563,28.0469 724.75,27.7734 Q725.3438,27.5 725.9688,26.9219 L725.9688,29.6406 Z "/><text fill="#000000" font-family="sans-serif" font-size="12" lengthAdjust="spacingAndGlyphs" textLength="77" x="737" y="28.1543">Collaborator</text><line style="stroke: #A80036; stroke-width: 1.5;" x1="709" x2="816" y1="40" y2="40"/><text fill="#000000" font-family="sans-serif" font-size="11" lengthAdjust="spacingAndGlyphs" textLength="74" x="714" y="54.2104">-String name</text><text fill="#000000" font-family="sans-serif" font-size="11" lengthAdjust="spacingAndGlyphs" textLength="73" x="714" y="67.0151">-String email</text><!--MD5=[3fd616f346a44cd59a91eb10b19e157c]
class User--><rect fill="#FEFECE" filter="url(#f1ktf6bxkvo7nk)" height="65.6094" id="User" style="stroke: #A80036; stroke-width: 1.5;" width="110" x="958" y="64"/><ellipse cx="995.05" cy="80" fill="#ADD1B2" rx="11" ry="11" style="stroke: #A80036; stroke-width: 1.0;"/><path d="M998.0188,85.6406 Q997.4406,85.9375 996.8,86.0859 Q996.1594,86.2344 995.4563,86.2344 Q992.9563,86.2344 991.6359,84.5859 Q990.3156,82.9375 990.3156,79.8125 Q990.3156,76.6875 991.6359,75.0313 Q992.9563,73.375 995.4563,73.375 Q996.1594,73.375 996.8078,73.5313 Q997.4563,73.6875 998.0188,73.9844 L998.0188,76.7031 Q997.3938,76.125 996.8,75.8516 Q996.2063,75.5781 995.5813,75.5781 Q994.2375,75.5781 993.55,76.6484 Q992.8625,77.7188 992.8625,79.8125 Q992.8625,81.9063 993.55,82.9766 Q994.2375,84.0469 995.5813,84.0469 Q996.2063,84.0469 996.8,83.7734 Q997.3938,83.5 998.0188,82.9219 L998.0188,85.6406 Z "/><text fill="#000000" font-family="sans-serif" font-size="12" lengthAdjust="spacingAndGlyphs" textLength="29" x="1013.95" y="84.1543">User</text><line style="stroke: #A80036; stroke-width: 1.5;" x1="959" x2="1067" y1="96" y2="96"/><text fill="#000000" font-family="sans-serif" font-size="11" lengthAdjust="spacingAndGlyphs" textLength="73" x="964" y="110.2104">-String email</text><text fill="#000000" font-family="sans-serif" font-size="11" lengthAdjust="spacingAndGlyphs" textLength="98" x="964" y="123.0151">-String password</text><!--MD5=[38d767b50186fba503091f69c245e88c]
class ExternalPwdGeneratorAlgorithm--><rect fill="#FEFECE" filter="url(#f1ktf6bxkvo7nk)" height="40" id="ExternalPwdGeneratorAlgorithm" style="stroke: #A80036; stroke-width: 1.5;" width="231" x="433" y="106"/><ellipse cx="448" cy="122" fill="#ADD1B2" rx="11" ry="11" style="stroke: #A80036; stroke-width: 1.0;"/><path d="M450.9688,127.6406 Q450.3906,127.9375 449.75,128.0859 Q449.1094,128.2344 448.4063,128.2344 Q445.9063,128.2344 444.5859,126.5859 Q443.2656,124.9375 443.2656,121.8125 Q443.2656,118.6875 444.5859,117.0313 Q445.9063,115.375 448.4063,115.375 Q449.1094,115.375 449.7578,115.5313 Q450.4063,115.6875 450.9688,115.9844 L450.9688,118.7031 Q450.3438,118.125 449.75,117.8516 Q449.1563,117.5781 448.5313,117.5781 Q447.1875,117.5781 446.5,118.6484 Q445.8125,119.7188 445.8125,121.8125 Q445.8125,123.9063 446.5,124.9766 Q447.1875,126.0469 448.5313,126.0469 Q449.1563,126.0469 449.75,125.7734 Q450.3438,125.5 450.9688,124.9219 L450.9688,127.6406 Z "/><text fill="#000000" font-family="sans-serif" font-size="12" lengthAdjust="spacingAndGlyphs" textLength="199" x="462" y="126.1543">ExternalPwdGeneratorAlgorithm</text><line style="stroke: #A80036; stroke-width: 1.5;" x1="434" x2="663" y1="138" y2="138"/><!--MD5=[7640e466c042ba2d6f9c19c816f7f0fc]
link Platform to Organization--><path d="M126.1502,86.9085 C175.4865,77.811 244.7693,65.0354 292.7267,56.1922 " fill="none" id="Platform-Organization" style="stroke: #A80036; stroke-width: 1.0;"/><text fill="#000000" font-family="sans-serif" font-size="13" lengthAdjust="spacingAndGlyphs" textLength="92" x="157" y="59.0669">has registered</text><polygon fill="#000000" points="252,53.0664,258,56.0664,252,59.0664,252,53.0664" style="stroke: #000000; stroke-width: 1.0;"/><text fill="#000000" font-family="sans-serif" font-size="13" lengthAdjust="spacingAndGlyphs" textLength="8" x="133.9685" y="98.5577">1</text><text fill="#000000" font-family="sans-serif" font-size="13" lengthAdjust="spacingAndGlyphs" textLength="7" x="277.829" y="70.6585">*</text><!--MD5=[3313b9194d9f022f4001b189f9265f96]
link Platform to ExternalPwdGeneratorAlgorithm--><path d="M126.4776,104.4775 C136.3373,105.4098 146.4474,106.2916 156,107 C249.0383,113.8992 354.6774,118.8492 432.9067,121.9638 " fill="none" id="Platform-ExternalPwdGeneratorAlgorithm" style="stroke: #A80036; stroke-width: 1.0;"/><text fill="#000000" font-family="sans-serif" font-size="13" lengthAdjust="spacingAndGlyphs" textLength="55" x="175.5" y="103.0669">resort to</text><polygon fill="#000000" points="233.5,97.0664,239.5,100.0664,233.5,103.0664,233.5,97.0664" style="stroke: #000000; stroke-width: 1.0;"/><text fill="#000000" font-family="sans-serif" font-size="13" lengthAdjust="spacingAndGlyphs" textLength="8" x="133.9328" y="118.1795">1</text><text fill="#000000" font-family="sans-serif" font-size="13" lengthAdjust="spacingAndGlyphs" textLength="8" x="416.8715" y="134.2679">1</text><!--MD5=[45817597bcd7048073a670d966abfd17]
link Organization to Collaborator--><path d="M403.2718,40.04 C413.1597,39.19 423.3762,38.4519 433,38 C529.7167,33.4587 642.5715,36.2335 707.9511,38.6355 " fill="none" id="Organization-Collaborator" style="stroke: #A80036; stroke-width: 1.0;"/><text fill="#000000" font-family="sans-serif" font-size="13" lengthAdjust="spacingAndGlyphs" textLength="23" x="530.5" y="32.0669">has</text><polygon fill="#000000" points="556.5,26.0664,562.5,29.0664,556.5,32.0664,556.5,26.0664" style="stroke: #000000; stroke-width: 1.0;"/><text fill="#000000" font-family="sans-serif" font-size="13" lengthAdjust="spacingAndGlyphs" textLength="8" x="410.866" y="52.3252">1</text><text fill="#000000" font-family="sans-serif" font-size="13" lengthAdjust="spacingAndGlyphs" textLength="8" x="692.0836" y="51.4276">1</text><!--MD5=[45817597bcd7048073a670d966abfd17]
link Organization to Collaborator--><path d="M403.0872,58.659 C412.9947,60.4657 423.2656,62.0361 433,63 C535.167,73.1165 561.9524,74.2575 664,63 C678.3685,61.4149 693.7058,58.5667 707.8952,55.434 " fill="none" id="Organization-Collaborator-1" style="stroke: #A80036; stroke-width: 1.0;"/><text fill="#000000" font-family="sans-serif" font-size="13" lengthAdjust="spacingAndGlyphs" textLength="85" x="499.5" y="59.0669">has manager</text><polygon fill="#000000" points="587.5,53.0664,593.5,56.0664,587.5,59.0664,587.5,53.0664" style="stroke: #000000; stroke-width: 1.0;"/><text fill="#000000" font-family="sans-serif" font-size="13" lengthAdjust="spacingAndGlyphs" textLength="8" x="411.027" y="73.4568">1</text><text fill="#000000" font-family="sans-serif" font-size="13" lengthAdjust="spacingAndGlyphs" textLength="8" x="692.0202" y="70.4834">1</text><!--MD5=[04ce0ecdab38a3951889ff50c232570f]
link Collaborator to User--><path d="M817.1637,53.2202 C858.7679,62.521 915.7997,75.2706 957.5874,84.6124 " fill="none" id="Collaborator-User" style="stroke: #A80036; stroke-width: 1.0;"/><text fill="#000000" font-family="sans-serif" font-size="13" lengthAdjust="spacingAndGlyphs" textLength="52" x="862" y="60.0669">acts like</text><polygon fill="#000000" points="917,54.0664,923,57.0664,917,60.0664,917,54.0664" style="stroke: #000000; stroke-width: 1.0;"/><text fill="#000000" font-family="sans-serif" font-size="13" lengthAdjust="spacingAndGlyphs" textLength="24" x="824.8717" y="67.5975">0..1</text><text fill="#000000" font-family="sans-serif" font-size="13" lengthAdjust="spacingAndGlyphs" textLength="8" x="941.9752" y="96.0866">1</text><!--MD5=[ee83525721cfd00449d18a755fcc2712]
link ExternalPwdGeneratorAlgorithm to User--><path d="M664.2158,118.7755 C757.9924,112.9208 885.9821,104.9301 957.971,100.4356 " fill="none" id="ExternalPwdGeneratorAlgorithm-User" style="stroke: #A80036; stroke-width: 1.0;"/><text fill="#000000" font-family="sans-serif" font-size="13" lengthAdjust="spacingAndGlyphs" textLength="122" x="695" y="105.0669">generate password</text><polygon fill="#000000" points="820,99.0664,826,102.0664,820,105.0664,820,99.0664" style="stroke: #000000; stroke-width: 1.0;"/><text fill="#000000" font-family="sans-serif" font-size="13" lengthAdjust="spacingAndGlyphs" textLength="8" x="671.8851" y="130.8643">1</text><text fill="#000000" font-family="sans-serif" font-size="13" lengthAdjust="spacingAndGlyphs" textLength="7" x="943.1062" y="114.0071">*</text><!--MD5=[d95aacbaaed9992574937ef82d175e58]
@startuml
skinparam classAttributeIconSize 0
hide methods
left to right direction

class Platform {
  -String designation
}

class Organization {
  -String name
}

class Collaborator {
  -String name
  -String email
}

class User {
  -String email
  -String password
}

class ExternalPwdGeneratorAlgorithm {
}

Platform "1" - - "*" Organization : has registered >
Platform "1" - - "1" ExternalPwdGeneratorAlgorithm : resort to >

Organization "1" - - "1" Collaborator: has >
Organization "1" - - "1" Collaborator: has manager >

Collaborator "0..1" - - "1" User: acts like >

ExternalPwdGeneratorAlgorithm "1" - - "*" User : generate password >
@enduml

PlantUML version 1.2019.12(Sun Nov 03 10:24:54 UTC 2019)
(GPL source distribution)
Java Runtime: OpenJDK Runtime Environment
JVM: OpenJDK 64-Bit Server VM
Java Version: 1.8.0_232-heroku-b09
Operating System: Linux
Default Encoding: UTF-8
Language: en
Country: US
--></g></svg>