<?xml version="1.0" encoding="UTF-8" standalone="no"?><svg xmlns="http://www.w3.org/2000/svg" xmlns:xlink="http://www.w3.org/1999/xlink" contentScriptType="application/ecmascript" contentStyleType="text/css" height="791px" preserveAspectRatio="none" style="width:1686px;height:791px;" version="1.1" viewBox="0 0 1686 791" width="1686px" zoomAndPan="magnify"><defs><filter height="300%" id="f1h62i7wqgt88t" width="300%" x="-1" y="-1"><feGaussianBlur result="blurOut" stdDeviation="2.0"/><feColorMatrix in="blurOut" result="blurOut2" type="matrix" values="0 0 0 0 0 0 0 0 0 0 0 0 0 0 0 0 0 0 .4 0"/><feOffset dx="4.0" dy="4.0" in="blurOut2" result="blurOut3"/><feBlend in="SourceGraphic" in2="blurOut3" mode="normal"/></filter></defs><g><!--MD5=[f483d6e5de34a60207b28a5563be5e8b]
class Collaborator--><rect fill="#FEFECE" filter="url(#f1h62i7wqgt88t)" height="112.0234" id="Collaborator" style="stroke: #A80036; stroke-width: 1.5;" width="188" x="6" y="668"/><ellipse cx="57.25" cy="684" fill="#ADD1B2" rx="11" ry="11" style="stroke: #A80036; stroke-width: 1.0;"/><path d="M60.2188,689.6406 Q59.6406,689.9375 59,690.0859 Q58.3594,690.2344 57.6563,690.2344 Q55.1563,690.2344 53.8359,688.5859 Q52.5156,686.9375 52.5156,683.8125 Q52.5156,680.6875 53.8359,679.0313 Q55.1563,677.375 57.6563,677.375 Q58.3594,677.375 59.0078,677.5313 Q59.6563,677.6875 60.2188,677.9844 L60.2188,680.7031 Q59.5938,680.125 59,679.8516 Q58.4063,679.5781 57.7813,679.5781 Q56.4375,679.5781 55.75,680.6484 Q55.0625,681.7188 55.0625,683.8125 Q55.0625,685.9063 55.75,686.9766 Q56.4375,688.0469 57.7813,688.0469 Q58.4063,688.0469 59,687.7734 Q59.5938,687.5 60.2188,686.9219 L60.2188,689.6406 Z "/><text fill="#000000" font-family="sans-serif" font-size="12" lengthAdjust="spacingAndGlyphs" textLength="77" x="77.75" y="688.1543">Collaborator</text><line style="stroke: #A80036; stroke-width: 1.5;" x1="7" x2="193" y1="700" y2="700"/><text fill="#000000" font-family="sans-serif" font-size="11" lengthAdjust="spacingAndGlyphs" textLength="74" x="12" y="714.2104">-String name</text><text fill="#000000" font-family="sans-serif" font-size="11" lengthAdjust="spacingAndGlyphs" textLength="73" x="12" y="727.0151">-String email</text><line style="stroke: #A80036; stroke-width: 1.5;" x1="7" x2="193" y1="733.6094" y2="733.6094"/><text fill="#000000" font-family="sans-serif" font-size="11" lengthAdjust="spacingAndGlyphs" textLength="176" x="12" y="747.8198">+Collaborator(nameM, emailM)</text><text fill="#000000" font-family="sans-serif" font-size="11" lengthAdjust="spacingAndGlyphs" textLength="106" x="12" y="760.6245">+String getNome()</text><text fill="#000000" font-family="sans-serif" font-size="11" lengthAdjust="spacingAndGlyphs" textLength="104" x="12" y="773.4292">+String getEmail()</text><!--MD5=[b24ed8d4ae84bae9290d9aab401637c7]
class Manager--><rect fill="#FEFECE" filter="url(#f1h62i7wqgt88t)" height="112.0234" id="Manager" style="stroke: #A80036; stroke-width: 1.5;" width="167" x="269.5" y="668"/><ellipse cx="321.25" cy="684" fill="#ADD1B2" rx="11" ry="11" style="stroke: #A80036; stroke-width: 1.0;"/><path d="M324.2188,689.6406 Q323.6406,689.9375 323,690.0859 Q322.3594,690.2344 321.6563,690.2344 Q319.1563,690.2344 317.8359,688.5859 Q316.5156,686.9375 316.5156,683.8125 Q316.5156,680.6875 317.8359,679.0313 Q319.1563,677.375 321.6563,677.375 Q322.3594,677.375 323.0078,677.5313 Q323.6563,677.6875 324.2188,677.9844 L324.2188,680.7031 Q323.5938,680.125 323,679.8516 Q322.4063,679.5781 321.7813,679.5781 Q320.4375,679.5781 319.75,680.6484 Q319.0625,681.7188 319.0625,683.8125 Q319.0625,685.9063 319.75,686.9766 Q320.4375,688.0469 321.7813,688.0469 Q322.4063,688.0469 323,687.7734 Q323.5938,687.5 324.2188,686.9219 L324.2188,689.6406 Z "/><text fill="#000000" font-family="sans-serif" font-size="12" lengthAdjust="spacingAndGlyphs" textLength="55" x="341.75" y="688.1543">Manager</text><line style="stroke: #A80036; stroke-width: 1.5;" x1="270.5" x2="435.5" y1="700" y2="700"/><text fill="#000000" font-family="sans-serif" font-size="11" lengthAdjust="spacingAndGlyphs" textLength="74" x="275.5" y="714.2104">-String name</text><text fill="#000000" font-family="sans-serif" font-size="11" lengthAdjust="spacingAndGlyphs" textLength="73" x="275.5" y="727.0151">-String email</text><line style="stroke: #A80036; stroke-width: 1.5;" x1="270.5" x2="435.5" y1="733.6094" y2="733.6094"/><text fill="#000000" font-family="sans-serif" font-size="11" lengthAdjust="spacingAndGlyphs" textLength="155" x="275.5" y="747.8198">+Manager(nameM, emailM)</text><text fill="#000000" font-family="sans-serif" font-size="11" lengthAdjust="spacingAndGlyphs" textLength="106" x="275.5" y="760.6245">+String getName()</text><text fill="#000000" font-family="sans-serif" font-size="11" lengthAdjust="spacingAndGlyphs" textLength="104" x="275.5" y="773.4292">+String getEmail()</text><!--MD5=[86c7c362de55a38b660185a1328fe18d]
class Organization--><rect fill="#FEFECE" filter="url(#f1h62i7wqgt88t)" height="112.0234" id="Organization" style="stroke: #A80036; stroke-width: 1.5;" width="283" x="56.5" y="479"/><ellipse cx="154.75" cy="495" fill="#ADD1B2" rx="11" ry="11" style="stroke: #A80036; stroke-width: 1.0;"/><path d="M157.7188,500.6406 Q157.1406,500.9375 156.5,501.0859 Q155.8594,501.2344 155.1563,501.2344 Q152.6563,501.2344 151.3359,499.5859 Q150.0156,497.9375 150.0156,494.8125 Q150.0156,491.6875 151.3359,490.0313 Q152.6563,488.375 155.1563,488.375 Q155.8594,488.375 156.5078,488.5313 Q157.1563,488.6875 157.7188,488.9844 L157.7188,491.7031 Q157.0938,491.125 156.5,490.8516 Q155.9063,490.5781 155.2813,490.5781 Q153.9375,490.5781 153.25,491.6484 Q152.5625,492.7188 152.5625,494.8125 Q152.5625,496.9063 153.25,497.9766 Q153.9375,499.0469 155.2813,499.0469 Q155.9063,499.0469 156.5,498.7734 Q157.0938,498.5 157.7188,497.9219 L157.7188,500.6406 Z "/><text fill="#000000" font-family="sans-serif" font-size="12" lengthAdjust="spacingAndGlyphs" textLength="78" x="175.25" y="499.1543">Organization</text><line style="stroke: #A80036; stroke-width: 1.5;" x1="57.5" x2="338.5" y1="511" y2="511"/><text fill="#000000" font-family="sans-serif" font-size="11" lengthAdjust="spacingAndGlyphs" textLength="74" x="62.5" y="525.2104">-String name</text><text fill="#000000" font-family="sans-serif" font-size="11" lengthAdjust="spacingAndGlyphs" textLength="59" x="62.5" y="538.0151">-String NIF</text><line style="stroke: #A80036; stroke-width: 1.5;" x1="57.5" x2="338.5" y1="544.6094" y2="544.6094"/><text fill="#000000" font-family="sans-serif" font-size="11" lengthAdjust="spacingAndGlyphs" text-decoration="underline" textLength="231" x="62.5" y="558.8198">+Manager newManager(nameM, emailM)</text><text fill="#000000" font-family="sans-serif" font-size="11" lengthAdjust="spacingAndGlyphs" text-decoration="underline" textLength="271" x="62.5" y="571.6245">+Collaborator newCollaborator(nameC, emailC)</text><text fill="#000000" font-family="sans-serif" font-size="11" lengthAdjust="spacingAndGlyphs" textLength="244" x="62.5" y="584.4292">+Organizacao(name, NIF, manager, collab)</text><!--MD5=[99b8db98afdc2c8404e39242ef4c1e65]
class Platform--><rect fill="#FEFECE" filter="url(#f1h62i7wqgt88t)" height="99.2188" id="Platform" style="stroke: #A80036; stroke-width: 1.5;" width="354" x="1321" y="485.5"/><ellipse cx="1467.75" cy="501.5" fill="#ADD1B2" rx="11" ry="11" style="stroke: #A80036; stroke-width: 1.0;"/><path d="M1470.7188,507.1406 Q1470.1406,507.4375 1469.5,507.5859 Q1468.8594,507.7344 1468.1563,507.7344 Q1465.6563,507.7344 1464.3359,506.0859 Q1463.0156,504.4375 1463.0156,501.3125 Q1463.0156,498.1875 1464.3359,496.5313 Q1465.6563,494.875 1468.1563,494.875 Q1468.8594,494.875 1469.5078,495.0313 Q1470.1563,495.1875 1470.7188,495.4844 L1470.7188,498.2031 Q1470.0938,497.625 1469.5,497.3516 Q1468.9063,497.0781 1468.2813,497.0781 Q1466.9375,497.0781 1466.25,498.1484 Q1465.5625,499.2188 1465.5625,501.3125 Q1465.5625,503.4063 1466.25,504.4766 Q1466.9375,505.5469 1468.2813,505.5469 Q1468.9063,505.5469 1469.5,505.2734 Q1470.0938,505 1470.7188,504.4219 L1470.7188,507.1406 Z "/><text fill="#000000" font-family="sans-serif" font-size="12" lengthAdjust="spacingAndGlyphs" textLength="52" x="1488.25" y="505.6543">Platform</text><line style="stroke: #A80036; stroke-width: 1.5;" x1="1322" x2="1674" y1="517.5" y2="517.5"/><text fill="#000000" font-family="sans-serif" font-size="11" lengthAdjust="spacingAndGlyphs" textLength="108" x="1327" y="531.7104">-String designation</text><line style="stroke: #A80036; stroke-width: 1.5;" x1="1322" x2="1674" y1="538.3047" y2="538.3047"/><text fill="#000000" font-family="sans-serif" font-size="11" lengthAdjust="spacingAndGlyphs" textLength="273" x="1327" y="552.5151">+OrganizationsRecord getOrganizationsRecord()</text><text fill="#000000" font-family="sans-serif" font-size="11" lengthAdjust="spacingAndGlyphs" textLength="265" x="1327" y="565.3198">+FacadeAuthorization getFacadeAuthorization()</text><text fill="#000000" font-family="sans-serif" font-size="11" lengthAdjust="spacingAndGlyphs" textLength="342" x="1327" y="578.1245">+PasswordGeneratorAlgorithm getPwdGeneratorAlgorithm()</text><!--MD5=[759d9d4bd7fe37fb1c4b72776400893c]
class OrganizationsRecord--><rect fill="#FEFECE" filter="url(#f1h62i7wqgt88t)" height="150.4375" id="OrganizationsRecord" style="stroke: #A80036; stroke-width: 1.5;" width="447" x="312.5" y="252"/><ellipse cx="467.25" cy="268" fill="#ADD1B2" rx="11" ry="11" style="stroke: #A80036; stroke-width: 1.0;"/><path d="M470.2188,273.6406 Q469.6406,273.9375 469,274.0859 Q468.3594,274.2344 467.6563,274.2344 Q465.1563,274.2344 463.8359,272.5859 Q462.5156,270.9375 462.5156,267.8125 Q462.5156,264.6875 463.8359,263.0313 Q465.1563,261.375 467.6563,261.375 Q468.3594,261.375 469.0078,261.5313 Q469.6563,261.6875 470.2188,261.9844 L470.2188,264.7031 Q469.5938,264.125 469,263.8516 Q468.4063,263.5781 467.7813,263.5781 Q466.4375,263.5781 465.75,264.6484 Q465.0625,265.7188 465.0625,267.8125 Q465.0625,269.9063 465.75,270.9766 Q466.4375,272.0469 467.7813,272.0469 Q468.4063,272.0469 469,271.7734 Q469.5938,271.5 470.2188,270.9219 L470.2188,273.6406 Z "/><text fill="#000000" font-family="sans-serif" font-size="12" lengthAdjust="spacingAndGlyphs" textLength="129" x="487.75" y="272.1543">OrganizationsRecord</text><line style="stroke: #A80036; stroke-width: 1.5;" x1="313.5" x2="758.5" y1="284" y2="284"/><line style="stroke: #A80036; stroke-width: 1.5;" x1="313.5" x2="758.5" y1="292" y2="292"/><text fill="#000000" font-family="sans-serif" font-size="11" lengthAdjust="spacingAndGlyphs" textLength="435" x="318.5" y="306.2104">+Organization newOrganization(name, NIF, nameM, emailM, nameC, emailC)</text><text fill="#000000" font-family="sans-serif" font-size="11" lengthAdjust="spacingAndGlyphs" textLength="226" x="318.5" y="319.0151">+validateOrganization(Organization org)</text><text fill="#000000" font-family="sans-serif" font-size="11" lengthAdjust="spacingAndGlyphs" textLength="227" x="318.5" y="331.8198">+organizationRegister(Organization org)</text><text fill="#000000" font-family="sans-serif" font-size="11" lengthAdjust="spacingAndGlyphs" textLength="198" x="318.5" y="344.6245">-addOrganization(Organization org)</text><text fill="#000000" font-family="sans-serif" font-size="11" lengthAdjust="spacingAndGlyphs" textLength="255" x="318.5" y="357.4292">-RegistesManagerAsUser(Manager manager)</text><text fill="#000000" font-family="sans-serif" font-size="11" lengthAdjust="spacingAndGlyphs" textLength="210" x="318.5" y="370.2339">-sendPwd(String emailM, String pwd)</text><text fill="#000000" font-family="sans-serif" font-size="11" lengthAdjust="spacingAndGlyphs" textLength="279" x="318.5" y="383.0386">-RegistesCollaboratorAsUser(Collaborator collab)</text><text fill="#000000" font-family="sans-serif" font-size="11" lengthAdjust="spacingAndGlyphs" textLength="209" x="318.5" y="395.8433">-sendPwd(String emailC, String pwd)</text><!--MD5=[c92a301914785b9701ae4dd841eeae97]
class FacadeAuthorization--><rect fill="#FEFECE" filter="url(#f1h62i7wqgt88t)" height="73.6094" id="FacadeAuthorization" style="stroke: #A80036; stroke-width: 1.5;" width="465" x="446.5" y="498"/><ellipse cx="610.75" cy="514" fill="#ADD1B2" rx="11" ry="11" style="stroke: #A80036; stroke-width: 1.0;"/><path d="M613.7188,519.6406 Q613.1406,519.9375 612.5,520.0859 Q611.8594,520.2344 611.1563,520.2344 Q608.6563,520.2344 607.3359,518.5859 Q606.0156,516.9375 606.0156,513.8125 Q606.0156,510.6875 607.3359,509.0313 Q608.6563,507.375 611.1563,507.375 Q611.8594,507.375 612.5078,507.5313 Q613.1563,507.6875 613.7188,507.9844 L613.7188,510.7031 Q613.0938,510.125 612.5,509.8516 Q611.9063,509.5781 611.2813,509.5781 Q609.9375,509.5781 609.25,510.6484 Q608.5625,511.7188 608.5625,513.8125 Q608.5625,515.9063 609.25,516.9766 Q609.9375,518.0469 611.2813,518.0469 Q611.9063,518.0469 612.5,517.7734 Q613.0938,517.5 613.7188,516.9219 L613.7188,519.6406 Z "/><text fill="#000000" font-family="sans-serif" font-size="12" lengthAdjust="spacingAndGlyphs" textLength="128" x="631.25" y="518.1543">FacadeAuthorization</text><line style="stroke: #A80036; stroke-width: 1.5;" x1="447.5" x2="910.5" y1="530" y2="530"/><line style="stroke: #A80036; stroke-width: 1.5;" x1="447.5" x2="910.5" y1="538" y2="538"/><text fill="#000000" font-family="sans-serif" font-size="11" lengthAdjust="spacingAndGlyphs" textLength="453" x="452.5" y="552.2104">+registesUserWithRoles(nameM, emailM, pwd, ["MANAGER", "COLLABORATOR"])</text><text fill="#000000" font-family="sans-serif" font-size="11" lengthAdjust="spacingAndGlyphs" textLength="371" x="452.5" y="565.0151">+registesUserWithRoles(nameC, emailC, pwd, "COLLABORATOR")</text><!--MD5=[c770a74bfa57c89e52aad2356be61140]
class PasswordGeneratorAlgorithm--><rect fill="#FEFECE" filter="url(#f1h62i7wqgt88t)" height="79.5469" id="PasswordGeneratorAlgorithm" style="stroke: #A80036; stroke-width: 1.5;" width="339" x="946.5" y="495"/><ellipse cx="1020.25" cy="513.9688" fill="#B4A7E5" rx="11" ry="11" style="stroke: #A80036; stroke-width: 1.0;"/><path d="M1016.1719,509.7344 L1016.1719,507.5781 L1023.5625,507.5781 L1023.5625,509.7344 L1021.0938,509.7344 L1021.0938,517.8125 L1023.5625,517.8125 L1023.5625,519.9688 L1016.1719,519.9688 L1016.1719,517.8125 L1018.6406,517.8125 L1018.6406,509.7344 L1016.1719,509.7344 Z "/><text fill="#000000" font-family="sans-serif" font-size="12" font-style="italic" lengthAdjust="spacingAndGlyphs" textLength="70" x="1097.25" y="511.1387">«interface»</text><text fill="#000000" font-family="sans-serif" font-size="12" font-style="italic" lengthAdjust="spacingAndGlyphs" textLength="183" x="1040.75" y="525.1074">PasswordGeneratorAlgorithm</text><line style="stroke: #A80036; stroke-width: 1.5;" x1="947.5" x2="1284.5" y1="532.9375" y2="532.9375"/><line style="stroke: #A80036; stroke-width: 1.5;" x1="947.5" x2="1284.5" y1="540.9375" y2="540.9375"/><text fill="#000000" font-family="sans-serif" font-size="11" lengthAdjust="spacingAndGlyphs" textLength="327" x="952.5" y="555.1479">+String generatePassword(String nameM, String emailM)</text><text fill="#000000" font-family="sans-serif" font-size="11" lengthAdjust="spacingAndGlyphs" textLength="325" x="952.5" y="567.9526">+String generatePassword(String nameC, String emailC)</text><!--MD5=[9f44d23a8a3e238f6a921a3f88c65a2a]
class OrganizationRecordController--><rect fill="#FEFECE" filter="url(#f1h62i7wqgt88t)" height="73.6094" id="OrganizationRecordController" style="stroke: #A80036; stroke-width: 1.5;" width="372" x="350" y="117"/><ellipse cx="440.25" cy="133" fill="#ADD1B2" rx="11" ry="11" style="stroke: #A80036; stroke-width: 1.0;"/><path d="M443.2188,138.6406 Q442.6406,138.9375 442,139.0859 Q441.3594,139.2344 440.6563,139.2344 Q438.1563,139.2344 436.8359,137.5859 Q435.5156,135.9375 435.5156,132.8125 Q435.5156,129.6875 436.8359,128.0313 Q438.1563,126.375 440.6563,126.375 Q441.3594,126.375 442.0078,126.5313 Q442.6563,126.6875 443.2188,126.9844 L443.2188,129.7031 Q442.5938,129.125 442,128.8516 Q441.4063,128.5781 440.7813,128.5781 Q439.4375,128.5781 438.75,129.6484 Q438.0625,130.7188 438.0625,132.8125 Q438.0625,134.9063 438.75,135.9766 Q439.4375,137.0469 440.7813,137.0469 Q441.4063,137.0469 442,136.7734 Q442.5938,136.5 443.2188,135.9219 L443.2188,138.6406 Z "/><text fill="#000000" font-family="sans-serif" font-size="12" lengthAdjust="spacingAndGlyphs" textLength="183" x="460.75" y="137.1543">OrganizationRecordController</text><line style="stroke: #A80036; stroke-width: 1.5;" x1="351" x2="721" y1="149" y2="149"/><line style="stroke: #A80036; stroke-width: 1.5;" x1="351" x2="721" y1="157" y2="157"/><text fill="#000000" font-family="sans-serif" font-size="11" lengthAdjust="spacingAndGlyphs" textLength="360" x="356" y="171.2104">+newOrganization(name, NIF, nameM, emailM, nameC, emailC)</text><text fill="#000000" font-family="sans-serif" font-size="11" lengthAdjust="spacingAndGlyphs" textLength="133" x="356" y="184.0151">+organizationRegister()</text><!--MD5=[b29882ecfc700c7cd112b970f8492af2]
class OrganizationRecordUI--><rect fill="#FEFECE" filter="url(#f1h62i7wqgt88t)" height="48" id="OrganizationRecordUI" style="stroke: #A80036; stroke-width: 1.5;" width="166" x="453" y="8"/><ellipse cx="468" cy="24" fill="#ADD1B2" rx="11" ry="11" style="stroke: #A80036; stroke-width: 1.0;"/><path d="M470.9688,29.6406 Q470.3906,29.9375 469.75,30.0859 Q469.1094,30.2344 468.4063,30.2344 Q465.9063,30.2344 464.5859,28.5859 Q463.2656,26.9375 463.2656,23.8125 Q463.2656,20.6875 464.5859,19.0313 Q465.9063,17.375 468.4063,17.375 Q469.1094,17.375 469.7578,17.5313 Q470.4063,17.6875 470.9688,17.9844 L470.9688,20.7031 Q470.3438,20.125 469.75,19.8516 Q469.1563,19.5781 468.5313,19.5781 Q467.1875,19.5781 466.5,20.6484 Q465.8125,21.7188 465.8125,23.8125 Q465.8125,25.9063 466.5,26.9766 Q467.1875,28.0469 468.5313,28.0469 Q469.1563,28.0469 469.75,27.7734 Q470.3438,27.5 470.9688,26.9219 L470.9688,29.6406 Z "/><text fill="#000000" font-family="sans-serif" font-size="12" lengthAdjust="spacingAndGlyphs" textLength="134" x="482" y="28.1543">OrganizationRecordUI</text><line style="stroke: #A80036; stroke-width: 1.5;" x1="454" x2="618" y1="40" y2="40"/><line style="stroke: #A80036; stroke-width: 1.5;" x1="454" x2="618" y1="48" y2="48"/><!--MD5=[51764ff3e7c7ff1799ee9bb480086dcf]
link OrganizationRecordUI to OrganizationRecordController--><path d="M536,56.1033 C536,71.972 536,93.1768 536,111.7934 " fill="none" id="OrganizationRecordUI-&gt;OrganizationRecordController" style="stroke: #A80036; stroke-width: 1.0; stroke-dasharray: 7.0,7.0;"/><polygon fill="#A80036" points="536,116.9691,540,107.9691,536,111.9691,532,107.9691,536,116.9691" style="stroke: #A80036; stroke-width: 1.0;"/><!--MD5=[9fc5896629388248e03ad7eb6b0daae2]
link OrganizationRecordController to Platform--><path d="M629.553,191.0517 C802.2163,259.4349 1171.2589,405.5942 1368.0769,483.544 " fill="none" id="OrganizationRecordController-&gt;Platform" style="stroke: #A80036; stroke-width: 1.0; stroke-dasharray: 7.0,7.0;"/><polygon fill="#A80036" points="1372.9827,485.4869,1366.088,478.4539,1368.334,483.6458,1363.1422,485.8918,1372.9827,485.4869" style="stroke: #A80036; stroke-width: 1.0;"/><!--MD5=[cda96632a4ee569e1e6a0b7f1d1d5843]
link OrganizationRecordController to OrganizationsRecord--><path d="M536,191.1128 C536,207.3573 536,227.0965 536,246.4379 " fill="none" id="OrganizationRecordController-&gt;OrganizationsRecord" style="stroke: #A80036; stroke-width: 1.0; stroke-dasharray: 7.0,7.0;"/><polygon fill="#A80036" points="536,251.8794,540,242.8794,536,246.8794,532,242.8794,536,251.8794" style="stroke: #A80036; stroke-width: 1.0;"/><!--MD5=[a302c1269582845cba10a5907c450f8a]
link OrganizationRecordController to Organization--><path d="M388.2915,191.1102 C354.1103,205.4817 320.368,225.1698 295,252 C237.1258,313.21 213.6496,410.4544 204.2155,473.5043 " fill="none" id="OrganizationRecordController-&gt;Organization" style="stroke: #A80036; stroke-width: 1.0; stroke-dasharray: 7.0,7.0;"/><polygon fill="#A80036" points="203.4527,478.7391,208.7089,470.4101,204.1738,473.7914,200.7925,469.2563,203.4527,478.7391" style="stroke: #A80036; stroke-width: 1.0;"/><!--MD5=[15b500351a20fc4c9aef6172f83f2b2a]
link OrganizationsRecord to Organization--><path d="M318.4342,402.1058 C302.4327,411.1199 287.0723,421.0641 273,432 C257.9927,443.6625 244.6106,459.0993 233.4533,474.463 " fill="none" id="OrganizationsRecord-&gt;Organization" style="stroke: #A80036; stroke-width: 1.0;"/><polygon fill="#A80036" points="230.3659,478.7912,238.8487,473.7871,233.2695,474.7207,232.3359,469.1414,230.3659,478.7912" style="stroke: #A80036; stroke-width: 1.0;"/><text fill="#000000" font-family="sans-serif" font-size="13" lengthAdjust="spacingAndGlyphs" textLength="92" x="274" y="445.0669">has registered</text><text fill="#000000" font-family="sans-serif" font-size="13" lengthAdjust="spacingAndGlyphs" textLength="8" x="296.2401" y="419.4549">1</text><text fill="#000000" font-family="sans-serif" font-size="13" lengthAdjust="spacingAndGlyphs" textLength="7" x="226.8839" y="468.1002">*</text><!--MD5=[0ef8e5073de95fb7f0f924ad4fed3da9]
link OrganizationsRecord to Collaborator--><path d="M312.2435,368.4157 C196.8698,394.8007 73.2465,432.714 39,479 C-0.9396,532.9806 28.7653,610.0896 59.0648,663.3161 " fill="none" id="OrganizationsRecord-&gt;Collaborator" style="stroke: #A80036; stroke-width: 1.0; stroke-dasharray: 7.0,7.0;"/><polygon fill="#A80036" points="61.6201,667.7474,60.5895,657.9526,59.1224,663.4159,53.6591,661.9489,61.6201,667.7474" style="stroke: #A80036; stroke-width: 1.0;"/><!--MD5=[4985805830a0763124d0742bc31f299d]
link OrganizationsRecord to Manager--><path d="M476.1012,402.1933 C459.2274,425.8236 441.9606,452.6475 429,479 C399.7373,538.4989 378.8057,611.6602 366.4126,662.4668 " fill="none" id="OrganizationsRecord-&gt;Manager" style="stroke: #A80036; stroke-width: 1.0; stroke-dasharray: 7.0,7.0;"/><polygon fill="#A80036" points="365.1659,667.6209,371.1696,659.8135,366.3413,662.761,363.3938,657.9328,365.1659,667.6209" style="stroke: #A80036; stroke-width: 1.0;"/><!--MD5=[2be4ff2a9e06800f5acb3be33084569d]
link OrganizationsRecord to Platform--><path d="M759.855,366.232 C913.4077,394.3959 1121.4257,435.0184 1303,479 C1309.884,480.6675 1316.8897,482.4185 1323.9555,484.2297 " fill="none" id="OrganizationsRecord-&gt;Platform" style="stroke: #A80036; stroke-width: 1.0; stroke-dasharray: 7.0,7.0;"/><polygon fill="#A80036" points="1328.8561,485.4929,1321.1395,479.3729,1324.0144,484.2448,1319.1425,487.1196,1328.8561,485.4929" style="stroke: #A80036; stroke-width: 1.0;"/><!--MD5=[38e4da47db94f125de95f0b63b16a0a0]
link OrganizationsRecord to FacadeAuthorization--><path d="M587.6263,402.0928 C608.8891,433.0205 632.6991,467.6532 650.6821,493.8103 " fill="none" id="OrganizationsRecord-&gt;FacadeAuthorization" style="stroke: #A80036; stroke-width: 1.0; stroke-dasharray: 7.0,7.0;"/><polygon fill="#A80036" points="653.5169,497.9337,651.7143,488.2512,650.6842,493.8135,645.122,492.7835,653.5169,497.9337" style="stroke: #A80036; stroke-width: 1.0;"/><!--MD5=[417a8373f3b7665318c477596f7910b2]
link OrganizationsRecord to PasswordGeneratorAlgorithm--><path d="M745.3933,402.0928 C830.9621,432.7795 926.7015,467.1136 999.4345,493.1972 " fill="none" id="OrganizationsRecord-&gt;PasswordGeneratorAlgorithm" style="stroke: #A80036; stroke-width: 1.0; stroke-dasharray: 7.0,7.0;"/><polygon fill="#A80036" points="1004.1916,494.9032,997.0702,488.0999,999.4851,493.2154,994.3696,495.6303,1004.1916,494.9032" style="stroke: #A80036; stroke-width: 1.0;"/><!--MD5=[45817597bcd7048073a670d966abfd17]
link Organization to Collaborator--><path d="M168.8621,591.1945 C157.1194,613.8411 143.5448,640.0208 131.5679,663.119 " fill="none" id="Organization-&gt;Collaborator" style="stroke: #A80036; stroke-width: 1.0;"/><polygon fill="#A80036" points="129.1949,667.6956,136.8887,661.547,131.4964,663.2568,129.7866,657.8645,129.1949,667.6956" style="stroke: #A80036; stroke-width: 1.0;"/><text fill="#000000" font-family="sans-serif" font-size="13" lengthAdjust="spacingAndGlyphs" textLength="23" x="153" y="634.0669">has</text><text fill="#000000" font-family="sans-serif" font-size="13" lengthAdjust="spacingAndGlyphs" textLength="8" x="156.8234" y="611.0308">1</text><text fill="#000000" font-family="sans-serif" font-size="13" lengthAdjust="spacingAndGlyphs" textLength="8" x="124.2655" y="656.993">1</text><!--MD5=[bc039f41cf0b27fadee5cae63fc6e1fe]
link Organization to Manager--><path d="M244.0854,591.1945 C262.8128,614.0299 284.4862,640.4573 303.5442,663.6958 " fill="none" id="Organization-&gt;Manager" style="stroke: #A80036; stroke-width: 1.0;"/><polygon fill="#A80036" points="306.8245,667.6956,304.2103,658.2,303.6539,663.8294,298.0245,663.273,306.8245,667.6956" style="stroke: #A80036; stroke-width: 1.0;"/><text fill="#000000" font-family="sans-serif" font-size="13" lengthAdjust="spacingAndGlyphs" textLength="23" x="282" y="634.0669">has</text><text fill="#000000" font-family="sans-serif" font-size="13" lengthAdjust="spacingAndGlyphs" textLength="8" x="241.2146" y="611.0308">1</text><text fill="#000000" font-family="sans-serif" font-size="13" lengthAdjust="spacingAndGlyphs" textLength="8" x="292.7094" y="656.993">1</text><!--MD5=[a5533dc2095da79bf28ac5ff8493b23f]
@startuml
skinparam classAttributeIconSize 0

class Collaborator {
  -String name
  -String email
  +Collaborator(nameM, emailM)
  +String getNome()
  +String getEmail()
}

class Manager {
  -String name
  -String email
  +Manager(nameM, emailM)
  +String getName()
  +String getEmail()
}

class Organization {
  -String name
  -String NIF
  +{static} Manager newManager(nameM, emailM)
  +{static} Collaborator newCollaborator(nameC, emailC)
  +Organizacao(name, NIF, manager, collab)
}

class Platform {
  -String designation
  +OrganizationsRecord getOrganizationsRecord()
  +FacadeAuthorization getFacadeAuthorization()
  +PasswordGeneratorAlgorithm getPwdGeneratorAlgorithm()
}

class OrganizationsRecord {
  +Organization newOrganization(name, NIF, nameM, emailM, nameC, emailC)
  +validateOrganization(Organization org)
  +organizationRegister(Organization org)
  -addOrganization(Organization org)
  -RegistesManagerAsUser(Manager manager)
  -sendPwd(String emailM, String pwd)
  -RegistesCollaboratorAsUser(Collaborator collab)
  -sendPwd(String emailC, String pwd)
}

class FacadeAuthorization {
  +registesUserWithRoles(nameM, emailM, pwd, ["MANAGER", "COLLABORATOR"])
  +registesUserWithRoles(nameC, emailC, pwd, "COLLABORATOR")
}

interface PasswordGeneratorAlgorithm <<interface>>{
   +String generatePassword(String nameM, String emailM)
   +String generatePassword(String nameC, String emailC)
}

class OrganizationRecordController {
    +newOrganization(name, NIF, nameM, emailM, nameC, emailC)
    +organizationRegister()
}

class OrganizationRecordUI {
}

OrganizationRecordUI ..> OrganizationRecordController
OrganizationRecordController ..> Platform
OrganizationRecordController ..> OrganizationsRecord
OrganizationRecordController ..> Organization

OrganizationsRecord "1" - -> "*" Organization : has registered
OrganizationsRecord ..> Collaborator
OrganizationsRecord ..> Manager
OrganizationsRecord ..> Platform
OrganizationsRecord ..> FacadeAuthorization
OrganizationsRecord ..> PasswordGeneratorAlgorithm
Organization "1" - -> "1" Collaborator: has
Organization "1" - -> "1" Manager: has
@enduml

PlantUML version 1.2019.12(Sun Nov 03 10:24:54 UTC 2019)
(GPL source distribution)
Java Runtime: OpenJDK Runtime Environment
JVM: OpenJDK 64-Bit Server VM
Java Version: 1.8.0_232-heroku-b09
Operating System: Linux
Default Encoding: UTF-8
Language: en
Country: US
--></g></svg>