<?xml version="1.0" encoding="UTF-8" standalone="no"?><svg xmlns="http://www.w3.org/2000/svg" xmlns:xlink="http://www.w3.org/1999/xlink" contentScriptType="application/ecmascript" contentStyleType="text/css" height="804px" preserveAspectRatio="none" style="width:1656px;height:804px;" version="1.1" viewBox="0 0 1656 804" width="1656px" zoomAndPan="magnify"><defs><filter height="300%" id="fwlun30econzf" width="300%" x="-1" y="-1"><feGaussianBlur result="blurOut" stdDeviation="2.0"/><feColorMatrix in="blurOut" result="blurOut2" type="matrix" values="0 0 0 0 0 0 0 0 0 0 0 0 0 0 0 0 0 0 .4 0"/><feOffset dx="4.0" dy="4.0" in="blurOut2" result="blurOut3"/><feBlend in="SourceGraphic" in2="blurOut3" mode="normal"/></filter></defs><g><!--MD5=[f483d6e5de34a60207b28a5563be5e8b]
class Collaborator--><rect fill="#FEFECE" filter="url(#fwlun30econzf)" height="112.0234" id="Collaborator" style="stroke: #A80036; stroke-width: 1.5;" width="188" x="9.919" y="681"/><ellipse cx="61.169" cy="697" fill="#ADD1B2" rx="11" ry="11" style="stroke: #A80036; stroke-width: 1.0;"/><path d="M64.1378,702.6406 Q63.5596,702.9375 62.919,703.0859 Q62.2784,703.2344 61.5753,703.2344 Q59.0753,703.2344 57.7549,701.5859 Q56.4346,699.9375 56.4346,696.8125 Q56.4346,693.6875 57.7549,692.0313 Q59.0753,690.375 61.5753,690.375 Q62.2784,690.375 62.9268,690.5313 Q63.5753,690.6875 64.1378,690.9844 L64.1378,693.7031 Q63.5128,693.125 62.919,692.8516 Q62.3253,692.5781 61.7003,692.5781 Q60.3565,692.5781 59.669,693.6484 Q58.9815,694.7188 58.9815,696.8125 Q58.9815,698.9063 59.669,699.9766 Q60.3565,701.0469 61.7003,701.0469 Q62.3253,701.0469 62.919,700.7734 Q63.5128,700.5 64.1378,699.9219 L64.1378,702.6406 Z "/><text fill="#000000" font-family="sans-serif" font-size="12" lengthAdjust="spacingAndGlyphs" textLength="77" x="81.669" y="701.1543">Collaborator</text><line style="stroke: #A80036; stroke-width: 1.5;" x1="10.919" x2="196.919" y1="713" y2="713"/><text fill="#000000" font-family="sans-serif" font-size="11" lengthAdjust="spacingAndGlyphs" textLength="74" x="15.919" y="727.2104">-String name</text><text fill="#000000" font-family="sans-serif" font-size="11" lengthAdjust="spacingAndGlyphs" textLength="73" x="15.919" y="740.0151">-String email</text><line style="stroke: #A80036; stroke-width: 1.5;" x1="10.919" x2="196.919" y1="746.6094" y2="746.6094"/><text fill="#000000" font-family="sans-serif" font-size="11" lengthAdjust="spacingAndGlyphs" textLength="176" x="15.919" y="760.8198">+Collaborator(nameM, emailM)</text><text fill="#000000" font-family="sans-serif" font-size="11" lengthAdjust="spacingAndGlyphs" textLength="106" x="15.919" y="773.6245">+String getName()</text><text fill="#000000" font-family="sans-serif" font-size="11" lengthAdjust="spacingAndGlyphs" textLength="104" x="15.919" y="786.4292">+String getEmail()</text><!--MD5=[b24ed8d4ae84bae9290d9aab401637c7]
class Manager--><rect fill="#FEFECE" filter="url(#fwlun30econzf)" height="112.0234" id="Manager" style="stroke: #A80036; stroke-width: 1.5;" width="167" x="297.419" y="681"/><ellipse cx="349.169" cy="697" fill="#ADD1B2" rx="11" ry="11" style="stroke: #A80036; stroke-width: 1.0;"/><path d="M352.1378,702.6406 Q351.5596,702.9375 350.919,703.0859 Q350.2784,703.2344 349.5753,703.2344 Q347.0753,703.2344 345.7549,701.5859 Q344.4346,699.9375 344.4346,696.8125 Q344.4346,693.6875 345.7549,692.0313 Q347.0753,690.375 349.5753,690.375 Q350.2784,690.375 350.9268,690.5313 Q351.5753,690.6875 352.1378,690.9844 L352.1378,693.7031 Q351.5128,693.125 350.919,692.8516 Q350.3253,692.5781 349.7003,692.5781 Q348.3565,692.5781 347.669,693.6484 Q346.9815,694.7188 346.9815,696.8125 Q346.9815,698.9063 347.669,699.9766 Q348.3565,701.0469 349.7003,701.0469 Q350.3253,701.0469 350.919,700.7734 Q351.5128,700.5 352.1378,699.9219 L352.1378,702.6406 Z "/><text fill="#000000" font-family="sans-serif" font-size="12" lengthAdjust="spacingAndGlyphs" textLength="55" x="369.669" y="701.1543">Manager</text><line style="stroke: #A80036; stroke-width: 1.5;" x1="298.419" x2="463.419" y1="713" y2="713"/><text fill="#000000" font-family="sans-serif" font-size="11" lengthAdjust="spacingAndGlyphs" textLength="74" x="303.419" y="727.2104">-String name</text><text fill="#000000" font-family="sans-serif" font-size="11" lengthAdjust="spacingAndGlyphs" textLength="73" x="303.419" y="740.0151">-String email</text><line style="stroke: #A80036; stroke-width: 1.5;" x1="298.419" x2="463.419" y1="746.6094" y2="746.6094"/><text fill="#000000" font-family="sans-serif" font-size="11" lengthAdjust="spacingAndGlyphs" textLength="155" x="303.419" y="760.8198">+Manager(nameM, emailM)</text><text fill="#000000" font-family="sans-serif" font-size="11" lengthAdjust="spacingAndGlyphs" textLength="106" x="303.419" y="773.6245">+String getName()</text><text fill="#000000" font-family="sans-serif" font-size="11" lengthAdjust="spacingAndGlyphs" textLength="104" x="303.419" y="786.4292">+String getEmail()</text><!--MD5=[86c7c362de55a38b660185a1328fe18d]
class Organization--><rect fill="#FEFECE" filter="url(#fwlun30econzf)" height="124.8281" id="Organization" style="stroke: #A80036; stroke-width: 1.5;" width="348" x="43.919" y="479"/><ellipse cx="174.669" cy="495" fill="#ADD1B2" rx="11" ry="11" style="stroke: #A80036; stroke-width: 1.0;"/><path d="M177.6377,500.6406 Q177.0596,500.9375 176.419,501.0859 Q175.7784,501.2344 175.0752,501.2344 Q172.5752,501.2344 171.2549,499.5859 Q169.9346,497.9375 169.9346,494.8125 Q169.9346,491.6875 171.2549,490.0313 Q172.5752,488.375 175.0752,488.375 Q175.7784,488.375 176.4268,488.5313 Q177.0752,488.6875 177.6377,488.9844 L177.6377,491.7031 Q177.0127,491.125 176.419,490.8516 Q175.8252,490.5781 175.2002,490.5781 Q173.8565,490.5781 173.169,491.6484 Q172.4815,492.7188 172.4815,494.8125 Q172.4815,496.9063 173.169,497.9766 Q173.8565,499.0469 175.2002,499.0469 Q175.8252,499.0469 176.419,498.7734 Q177.0127,498.5 177.6377,497.9219 L177.6377,500.6406 Z "/><text fill="#000000" font-family="sans-serif" font-size="12" lengthAdjust="spacingAndGlyphs" textLength="78" x="195.169" y="499.1543">Organization</text><line style="stroke: #A80036; stroke-width: 1.5;" x1="44.919" x2="390.919" y1="511" y2="511"/><text fill="#000000" font-family="sans-serif" font-size="11" lengthAdjust="spacingAndGlyphs" textLength="74" x="49.919" y="525.2104">-String name</text><text fill="#000000" font-family="sans-serif" font-size="11" lengthAdjust="spacingAndGlyphs" textLength="59" x="49.919" y="538.0151">-String NIF</text><line style="stroke: #A80036; stroke-width: 1.5;" x1="44.919" x2="390.919" y1="544.6094" y2="544.6094"/><text fill="#000000" font-family="sans-serif" font-size="11" lengthAdjust="spacingAndGlyphs" text-decoration="underline" textLength="231" x="49.919" y="558.8198">+Manager newManager(nameM, emailM)</text><text fill="#000000" font-family="sans-serif" font-size="11" lengthAdjust="spacingAndGlyphs" text-decoration="underline" textLength="271" x="49.919" y="571.6245">+Collaborator newCollaborator(nameC, emailC)</text><text fill="#000000" font-family="sans-serif" font-size="11" lengthAdjust="spacingAndGlyphs" textLength="336" x="49.919" y="584.4292">+Organizacao(name, NIF, nameM, emailM, nameC, emailC)</text><text fill="#000000" font-family="sans-serif" font-size="11" lengthAdjust="spacingAndGlyphs" textLength="63" x="49.919" y="597.2339">-getName()</text><!--MD5=[99b8db98afdc2c8404e39242ef4c1e65]
class Platform--><rect fill="#FEFECE" filter="url(#fwlun30econzf)" height="99.2188" id="Platform" style="stroke: #A80036; stroke-width: 1.5;" width="354" x="1291.919" y="492"/><ellipse cx="1438.669" cy="508" fill="#ADD1B2" rx="11" ry="11" style="stroke: #A80036; stroke-width: 1.0;"/><path d="M1441.6378,513.6406 Q1441.0596,513.9375 1440.419,514.0859 Q1439.7784,514.2344 1439.0753,514.2344 Q1436.5753,514.2344 1435.2549,512.5859 Q1433.9346,510.9375 1433.9346,507.8125 Q1433.9346,504.6875 1435.2549,503.0313 Q1436.5753,501.375 1439.0753,501.375 Q1439.7784,501.375 1440.4268,501.5313 Q1441.0753,501.6875 1441.6378,501.9844 L1441.6378,504.7031 Q1441.0128,504.125 1440.419,503.8516 Q1439.8253,503.5781 1439.2003,503.5781 Q1437.8565,503.5781 1437.169,504.6484 Q1436.4815,505.7188 1436.4815,507.8125 Q1436.4815,509.9063 1437.169,510.9766 Q1437.8565,512.0469 1439.2003,512.0469 Q1439.8253,512.0469 1440.419,511.7734 Q1441.0128,511.5 1441.6378,510.9219 L1441.6378,513.6406 Z "/><text fill="#000000" font-family="sans-serif" font-size="12" lengthAdjust="spacingAndGlyphs" textLength="52" x="1459.169" y="512.1543">Platform</text><line style="stroke: #A80036; stroke-width: 1.5;" x1="1292.919" x2="1644.919" y1="524" y2="524"/><text fill="#000000" font-family="sans-serif" font-size="11" lengthAdjust="spacingAndGlyphs" textLength="108" x="1297.919" y="538.2104">-String designation</text><line style="stroke: #A80036; stroke-width: 1.5;" x1="1292.919" x2="1644.919" y1="544.8047" y2="544.8047"/><text fill="#000000" font-family="sans-serif" font-size="11" lengthAdjust="spacingAndGlyphs" textLength="273" x="1297.919" y="559.0151">+OrganizationsRecord getOrganizationsRecord()</text><text fill="#000000" font-family="sans-serif" font-size="11" lengthAdjust="spacingAndGlyphs" textLength="265" x="1297.919" y="571.8198">+FacadeAuthorization getFacadeAuthorization()</text><text fill="#000000" font-family="sans-serif" font-size="11" lengthAdjust="spacingAndGlyphs" textLength="342" x="1297.919" y="584.6245">+PasswordGeneratorAlgorithm getPwdGeneratorAlgorithm()</text><!--MD5=[759d9d4bd7fe37fb1c4b72776400893c]
class OrganizationsRecord--><rect fill="#FEFECE" filter="url(#fwlun30econzf)" height="150.4375" id="OrganizationsRecord" style="stroke: #A80036; stroke-width: 1.5;" width="447" x="343.419" y="252"/><ellipse cx="498.169" cy="268" fill="#ADD1B2" rx="11" ry="11" style="stroke: #A80036; stroke-width: 1.0;"/><path d="M501.1378,273.6406 Q500.5596,273.9375 499.919,274.0859 Q499.2784,274.2344 498.5753,274.2344 Q496.0753,274.2344 494.7549,272.5859 Q493.4346,270.9375 493.4346,267.8125 Q493.4346,264.6875 494.7549,263.0313 Q496.0753,261.375 498.5753,261.375 Q499.2784,261.375 499.9268,261.5313 Q500.5753,261.6875 501.1378,261.9844 L501.1378,264.7031 Q500.5128,264.125 499.919,263.8516 Q499.3253,263.5781 498.7003,263.5781 Q497.3565,263.5781 496.669,264.6484 Q495.9815,265.7188 495.9815,267.8125 Q495.9815,269.9063 496.669,270.9766 Q497.3565,272.0469 498.7003,272.0469 Q499.3253,272.0469 499.919,271.7734 Q500.5128,271.5 501.1378,270.9219 L501.1378,273.6406 Z "/><text fill="#000000" font-family="sans-serif" font-size="12" lengthAdjust="spacingAndGlyphs" textLength="129" x="518.669" y="272.1543">OrganizationsRecord</text><line style="stroke: #A80036; stroke-width: 1.5;" x1="344.419" x2="789.419" y1="284" y2="284"/><line style="stroke: #A80036; stroke-width: 1.5;" x1="344.419" x2="789.419" y1="292" y2="292"/><text fill="#000000" font-family="sans-serif" font-size="11" lengthAdjust="spacingAndGlyphs" textLength="435" x="349.419" y="306.2104">+Organization newOrganization(name, NIF, nameM, emailM, nameC, emailC)</text><text fill="#000000" font-family="sans-serif" font-size="11" lengthAdjust="spacingAndGlyphs" textLength="226" x="349.419" y="319.0151">+validateOrganization(Organization org)</text><text fill="#000000" font-family="sans-serif" font-size="11" lengthAdjust="spacingAndGlyphs" textLength="227" x="349.419" y="331.8198">+organizationRegister(Organization org)</text><text fill="#000000" font-family="sans-serif" font-size="11" lengthAdjust="spacingAndGlyphs" textLength="198" x="349.419" y="344.6245">-addOrganization(Organization org)</text><text fill="#000000" font-family="sans-serif" font-size="11" lengthAdjust="spacingAndGlyphs" textLength="255" x="349.419" y="357.4292">-RegistesManagerAsUser(Manager manager)</text><text fill="#000000" font-family="sans-serif" font-size="11" lengthAdjust="spacingAndGlyphs" textLength="388" x="349.419" y="370.2339">-sendEmail(String orgName, String emailM, String pwd, "MANAGER")</text><text fill="#000000" font-family="sans-serif" font-size="11" lengthAdjust="spacingAndGlyphs" textLength="279" x="349.419" y="383.0386">-RegistesCollaboratorAsUser(Collaborator collab)</text><text fill="#000000" font-family="sans-serif" font-size="11" lengthAdjust="spacingAndGlyphs" textLength="423" x="349.419" y="395.8433">-sendEmail(String orgName, String emailC, String pwd, "COLLABORATOR")</text><!--MD5=[c92a301914785b9701ae4dd841eeae97]
class FacadeAuthorization--><rect fill="#FEFECE" filter="url(#fwlun30econzf)" height="73.6094" id="FacadeAuthorization" style="stroke: #A80036; stroke-width: 1.5;" width="384" x="497.919" y="504.5"/><ellipse cx="621.669" cy="520.5" fill="#ADD1B2" rx="11" ry="11" style="stroke: #A80036; stroke-width: 1.0;"/><path d="M624.6378,526.1406 Q624.0596,526.4375 623.419,526.5859 Q622.7784,526.7344 622.0753,526.7344 Q619.5753,526.7344 618.2549,525.0859 Q616.9346,523.4375 616.9346,520.3125 Q616.9346,517.1875 618.2549,515.5313 Q619.5753,513.875 622.0753,513.875 Q622.7784,513.875 623.4268,514.0313 Q624.0753,514.1875 624.6378,514.4844 L624.6378,517.2031 Q624.0128,516.625 623.419,516.3516 Q622.8253,516.0781 622.2003,516.0781 Q620.8565,516.0781 620.169,517.1484 Q619.4815,518.2188 619.4815,520.3125 Q619.4815,522.4063 620.169,523.4766 Q620.8565,524.5469 622.2003,524.5469 Q622.8253,524.5469 623.419,524.2734 Q624.0128,524 624.6378,523.4219 L624.6378,526.1406 Z "/><text fill="#000000" font-family="sans-serif" font-size="12" lengthAdjust="spacingAndGlyphs" textLength="128" x="642.169" y="524.6543">FacadeAuthorization</text><line style="stroke: #A80036; stroke-width: 1.5;" x1="498.919" x2="880.919" y1="536.5" y2="536.5"/><line style="stroke: #A80036; stroke-width: 1.5;" x1="498.919" x2="880.919" y1="544.5" y2="544.5"/><text fill="#000000" font-family="sans-serif" font-size="11" lengthAdjust="spacingAndGlyphs" textLength="346" x="503.919" y="558.7104">+registesUserWithRoles(nameM, emailM, pwdM, "MANAGER")</text><text fill="#000000" font-family="sans-serif" font-size="11" lengthAdjust="spacingAndGlyphs" textLength="372" x="503.919" y="571.5151">+registesUserWithRole(nameC, emailC, pwdC, "COLLABORATOR")</text><!--MD5=[c770a74bfa57c89e52aad2356be61140]
class PasswordGeneratorAlgorithm--><rect fill="#FEFECE" filter="url(#fwlun30econzf)" height="79.5469" id="PasswordGeneratorAlgorithm" style="stroke: #A80036; stroke-width: 1.5;" width="339" x="917.419" y="501.5"/><ellipse cx="991.169" cy="520.4688" fill="#B4A7E5" rx="11" ry="11" style="stroke: #A80036; stroke-width: 1.0;"/><path d="M987.0909,516.2344 L987.0909,514.0781 L994.4815,514.0781 L994.4815,516.2344 L992.0128,516.2344 L992.0128,524.3125 L994.4815,524.3125 L994.4815,526.4688 L987.0909,526.4688 L987.0909,524.3125 L989.5596,524.3125 L989.5596,516.2344 L987.0909,516.2344 Z "/><text fill="#000000" font-family="sans-serif" font-size="12" font-style="italic" lengthAdjust="spacingAndGlyphs" textLength="70" x="1068.169" y="517.6387">«interface»</text><text fill="#000000" font-family="sans-serif" font-size="12" font-style="italic" lengthAdjust="spacingAndGlyphs" textLength="183" x="1011.669" y="531.6074">PasswordGeneratorAlgorithm</text><line style="stroke: #A80036; stroke-width: 1.5;" x1="918.419" x2="1255.419" y1="539.4375" y2="539.4375"/><line style="stroke: #A80036; stroke-width: 1.5;" x1="918.419" x2="1255.419" y1="547.4375" y2="547.4375"/><text fill="#000000" font-family="sans-serif" font-size="11" lengthAdjust="spacingAndGlyphs" textLength="327" x="923.419" y="561.6479">+String generatePassword(String nameM, String emailM)</text><text fill="#000000" font-family="sans-serif" font-size="11" lengthAdjust="spacingAndGlyphs" textLength="325" x="923.419" y="574.4526">+String generatePassword(String nameC, String emailC)</text><!--MD5=[9f44d23a8a3e238f6a921a3f88c65a2a]
class OrganizationRecordController--><rect fill="#FEFECE" filter="url(#fwlun30econzf)" height="73.6094" id="OrganizationRecordController" style="stroke: #A80036; stroke-width: 1.5;" width="372" x="380.919" y="117"/><ellipse cx="471.169" cy="133" fill="#ADD1B2" rx="11" ry="11" style="stroke: #A80036; stroke-width: 1.0;"/><path d="M474.1378,138.6406 Q473.5596,138.9375 472.919,139.0859 Q472.2784,139.2344 471.5753,139.2344 Q469.0753,139.2344 467.7549,137.5859 Q466.4346,135.9375 466.4346,132.8125 Q466.4346,129.6875 467.7549,128.0313 Q469.0753,126.375 471.5753,126.375 Q472.2784,126.375 472.9268,126.5313 Q473.5753,126.6875 474.1378,126.9844 L474.1378,129.7031 Q473.5128,129.125 472.919,128.8516 Q472.3253,128.5781 471.7003,128.5781 Q470.3565,128.5781 469.669,129.6484 Q468.9815,130.7188 468.9815,132.8125 Q468.9815,134.9063 469.669,135.9766 Q470.3565,137.0469 471.7003,137.0469 Q472.3253,137.0469 472.919,136.7734 Q473.5128,136.5 474.1378,135.9219 L474.1378,138.6406 Z "/><text fill="#000000" font-family="sans-serif" font-size="12" lengthAdjust="spacingAndGlyphs" textLength="183" x="491.669" y="137.1543">OrganizationRecordController</text><line style="stroke: #A80036; stroke-width: 1.5;" x1="381.919" x2="751.919" y1="149" y2="149"/><line style="stroke: #A80036; stroke-width: 1.5;" x1="381.919" x2="751.919" y1="157" y2="157"/><text fill="#000000" font-family="sans-serif" font-size="11" lengthAdjust="spacingAndGlyphs" textLength="360" x="386.919" y="171.2104">+newOrganization(name, NIF, nameM, emailM, nameC, emailC)</text><text fill="#000000" font-family="sans-serif" font-size="11" lengthAdjust="spacingAndGlyphs" textLength="133" x="386.919" y="184.0151">+organizationRegister()</text><!--MD5=[b29882ecfc700c7cd112b970f8492af2]
class OrganizationRecordUI--><rect fill="#FEFECE" filter="url(#fwlun30econzf)" height="48" id="OrganizationRecordUI" style="stroke: #A80036; stroke-width: 1.5;" width="166" x="483.919" y="8"/><ellipse cx="498.919" cy="24" fill="#ADD1B2" rx="11" ry="11" style="stroke: #A80036; stroke-width: 1.0;"/><path d="M501.8878,29.6406 Q501.3096,29.9375 500.669,30.0859 Q500.0284,30.2344 499.3253,30.2344 Q496.8253,30.2344 495.5049,28.5859 Q494.1846,26.9375 494.1846,23.8125 Q494.1846,20.6875 495.5049,19.0313 Q496.8253,17.375 499.3253,17.375 Q500.0284,17.375 500.6768,17.5313 Q501.3253,17.6875 501.8878,17.9844 L501.8878,20.7031 Q501.2628,20.125 500.669,19.8516 Q500.0753,19.5781 499.4503,19.5781 Q498.1065,19.5781 497.419,20.6484 Q496.7315,21.7188 496.7315,23.8125 Q496.7315,25.9063 497.419,26.9766 Q498.1065,28.0469 499.4503,28.0469 Q500.0753,28.0469 500.669,27.7734 Q501.2628,27.5 501.8878,26.9219 L501.8878,29.6406 Z "/><text fill="#000000" font-family="sans-serif" font-size="12" lengthAdjust="spacingAndGlyphs" textLength="134" x="512.919" y="28.1543">OrganizationRecordUI</text><line style="stroke: #A80036; stroke-width: 1.5;" x1="484.919" x2="648.919" y1="40" y2="40"/><line style="stroke: #A80036; stroke-width: 1.5;" x1="484.919" x2="648.919" y1="48" y2="48"/><!--MD5=[51764ff3e7c7ff1799ee9bb480086dcf]
link OrganizationRecordUI to OrganizationRecordController--><path d="M566.919,56.1033 C566.919,71.972 566.919,93.1768 566.919,111.7934 " fill="none" id="OrganizationRecordUI-&gt;OrganizationRecordController" style="stroke: #A80036; stroke-width: 1.0; stroke-dasharray: 7.0,7.0;"/><polygon fill="#A80036" points="566.919,116.9691,570.919,107.9691,566.919,111.9691,562.919,107.9691,566.919,116.9691" style="stroke: #A80036; stroke-width: 1.0;"/><!--MD5=[9fc5896629388248e03ad7eb6b0daae2]
link OrganizationRecordController to Platform--><path d="M659.5681,191.0049 C704.4786,209.1132 759.1309,231.4008 807.919,252 C1000.1143,333.1483 1221.961,431.2225 1353.5583,489.8655 " fill="none" id="OrganizationRecordController-&gt;Platform" style="stroke: #A80036; stroke-width: 1.0; stroke-dasharray: 7.0,7.0;"/><polygon fill="#A80036" points="1358.2014,491.9348,1351.6092,484.6175,1353.6344,489.8994,1348.3525,491.9246,1358.2014,491.9348" style="stroke: #A80036; stroke-width: 1.0;"/><!--MD5=[cda96632a4ee569e1e6a0b7f1d1d5843]
link OrganizationRecordController to OrganizationsRecord--><path d="M566.919,191.1128 C566.919,207.3573 566.919,227.0965 566.919,246.4379 " fill="none" id="OrganizationRecordController-&gt;OrganizationsRecord" style="stroke: #A80036; stroke-width: 1.0; stroke-dasharray: 7.0,7.0;"/><polygon fill="#A80036" points="566.919,251.8794,570.919,242.8794,566.919,246.8794,562.919,242.8794,566.919,251.8794" style="stroke: #A80036; stroke-width: 1.0;"/><!--MD5=[a302c1269582845cba10a5907c450f8a]
link OrganizationRecordController to Organization--><path d="M420.963,191.0624 C386.3466,205.4711 351.9598,225.1889 325.919,252 C266.7266,312.9436 239.4384,409.281 227.2339,473.8949 " fill="none" id="OrganizationRecordController-&gt;Organization" style="stroke: #A80036; stroke-width: 1.0; stroke-dasharray: 7.0,7.0;"/><polygon fill="#A80036" points="226.3104,478.8791,231.883,470.7584,227.2213,473.9628,224.0169,469.301,226.3104,478.8791" style="stroke: #A80036; stroke-width: 1.0;"/><!--MD5=[15b500351a20fc4c9aef6172f83f2b2a]
link OrganizationsRecord to Organization--><path d="M374.5888,402.0769 C357.3049,411.2948 340.4773,421.2837 324.919,432 C307.262,444.1619 290.1088,459.5311 274.895,474.879 " fill="none" id="OrganizationsRecord-&gt;Organization" style="stroke: #A80036; stroke-width: 1.0;"/><polygon fill="#A80036" points="271.0697,478.7786,280.2276,475.1546,274.571,475.2092,274.5165,469.5526,271.0697,478.7786" style="stroke: #A80036; stroke-width: 1.0;"/><text fill="#000000" font-family="sans-serif" font-size="13" lengthAdjust="spacingAndGlyphs" textLength="92" x="325.919" y="445.0669">has registered</text><text fill="#000000" font-family="sans-serif" font-size="13" lengthAdjust="spacingAndGlyphs" textLength="8" x="346.3422" y="422.6438">1</text><text fill="#000000" font-family="sans-serif" font-size="13" lengthAdjust="spacingAndGlyphs" textLength="7" x="269.8106" y="467.7438">*</text><!--MD5=[0ef8e5073de95fb7f0f924ad4fed3da9]
link OrganizationsRecord to Collaborator--><path d="M343.4177,361.9501 C212.593,387.4791 65.507,426.7565 25.919,479 C-18.2196,537.249 20.5298,620.4524 57.4587,676.4814 " fill="none" id="OrganizationsRecord-&gt;Collaborator" style="stroke: #A80036; stroke-width: 1.0; stroke-dasharray: 7.0,7.0;"/><polygon fill="#A80036" points="60.3397,680.8041,58.6768,671.0966,57.5667,676.6435,52.0198,675.5335,60.3397,680.8041" style="stroke: #A80036; stroke-width: 1.0;"/><!--MD5=[4985805830a0763124d0742bc31f299d]
link OrganizationsRecord to Manager--><path d="M520.7679,402.3249 C506.8403,426.4086 492.0434,453.4538 479.919,479 C448.7194,544.7384 419.7384,623.1441 401.2988,676.1316 " fill="none" id="OrganizationsRecord-&gt;Manager" style="stroke: #A80036; stroke-width: 1.0; stroke-dasharray: 7.0,7.0;"/><polygon fill="#A80036" points="399.6583,680.8587,406.3881,673.6678,401.2977,676.1351,398.8304,671.0447,399.6583,680.8587" style="stroke: #A80036; stroke-width: 1.0;"/><!--MD5=[2be4ff2a9e06800f5acb3be33084569d]
link OrganizationsRecord to Platform--><path d="M790.7616,369.2632 C930.4948,397.0908 1113.6557,436.2002 1273.919,479 C1287.1493,482.5333 1300.813,486.4183 1314.4801,490.4691 " fill="none" id="OrganizationsRecord-&gt;Platform" style="stroke: #A80036; stroke-width: 1.0; stroke-dasharray: 7.0,7.0;"/><polygon fill="#A80036" points="1319.5147,491.9687,1312.031,485.566,1314.7228,490.5414,1309.7473,493.2331,1319.5147,491.9687" style="stroke: #A80036; stroke-width: 1.0;"/><!--MD5=[38e4da47db94f125de95f0b63b16a0a0]
link OrganizationsRecord to FacadeAuthorization--><path d="M609.9385,402.0217 C628.8112,434.9339 650.2436,472.31 666.1688,500.0818 " fill="none" id="OrganizationsRecord-&gt;FacadeAuthorization" style="stroke: #A80036; stroke-width: 1.0; stroke-dasharray: 7.0,7.0;"/><polygon fill="#A80036" points="668.6761,504.4544,667.6691,494.6572,666.1889,500.1169,660.7291,498.6367,668.6761,504.4544" style="stroke: #A80036; stroke-width: 1.0;"/><!--MD5=[417a8373f3b7665318c477596f7910b2]
link OrganizationsRecord to PasswordGeneratorAlgorithm--><path d="M748.7898,402.0217 C828.0153,434.7022 917.9104,471.7839 985.0859,499.4938 " fill="none" id="OrganizationsRecord-&gt;PasswordGeneratorAlgorithm" style="stroke: #A80036; stroke-width: 1.0; stroke-dasharray: 7.0,7.0;"/><polygon fill="#A80036" points="989.8828,501.4726,983.0883,494.3428,985.2606,499.5659,980.0375,501.7382,989.8828,501.4726" style="stroke: #A80036; stroke-width: 1.0;"/><!--MD5=[45817597bcd7048073a670d966abfd17]
link Organization to Collaborator--><path d="M181.3783,604.1641 C167.885,627.3039 152.6281,653.4683 139.2444,676.4201 " fill="none" id="Organization-&gt;Collaborator" style="stroke: #A80036; stroke-width: 1.0;"/><polygon fill="#A80036" points="136.5937,680.9658,144.5828,675.2061,139.1124,676.6465,137.672,671.1761,136.5937,680.9658" style="stroke: #A80036; stroke-width: 1.0;"/><text fill="#000000" font-family="sans-serif" font-size="13" lengthAdjust="spacingAndGlyphs" textLength="23" x="161.919" y="647.0669">has</text><text fill="#000000" font-family="sans-serif" font-size="13" lengthAdjust="spacingAndGlyphs" textLength="8" x="168.9442" y="623.9219">1</text><text fill="#000000" font-family="sans-serif" font-size="13" lengthAdjust="spacingAndGlyphs" textLength="8" x="132.2676" y="669.8994">1</text><!--MD5=[bc039f41cf0b27fadee5cae63fc6e1fe]
link Organization to Manager--><path d="M270.1658,604.1641 C289.6197,627.4968 311.6374,653.9046 330.8878,676.9932 " fill="none" id="Organization-&gt;Manager" style="stroke: #A80036; stroke-width: 1.0;"/><polygon fill="#A80036" points="334.2,680.9658,331.509,671.4917,330.9982,677.1254,325.3645,676.6146,334.2,680.9658" style="stroke: #A80036; stroke-width: 1.0;"/><text fill="#000000" font-family="sans-serif" font-size="13" lengthAdjust="spacingAndGlyphs" textLength="23" x="310.919" y="647.0669">has</text><text fill="#000000" font-family="sans-serif" font-size="13" lengthAdjust="spacingAndGlyphs" textLength="8" x="267.4428" y="623.9219">1</text><text fill="#000000" font-family="sans-serif" font-size="13" lengthAdjust="spacingAndGlyphs" textLength="8" x="319.7016" y="669.8994">1</text><!--MD5=[f8e26657bc0c6c881df86e6cd232fd22]
@startuml
skinparam classAttributeIconSize 0

class Collaborator {
  -String name
  -String email
  +Collaborator(nameM, emailM)
  +String getName()
  +String getEmail()
}

class Manager {
  -String name
  -String email
  +Manager(nameM, emailM)
  +String getName()
  +String getEmail()
}

class Organization {
  -String name
  -String NIF
  +{static} Manager newManager(nameM, emailM)
  +{static} Collaborator newCollaborator(nameC, emailC)
  +Organizacao(name, NIF, nameM, emailM, nameC, emailC)
  -getName()
}

class Platform {
  -String designation
  +OrganizationsRecord getOrganizationsRecord()
  +FacadeAuthorization getFacadeAuthorization()
  +PasswordGeneratorAlgorithm getPwdGeneratorAlgorithm()
}

class OrganizationsRecord {
  +Organization newOrganization(name, NIF, nameM, emailM, nameC, emailC)
  +validateOrganization(Organization org)
  +organizationRegister(Organization org)
  -addOrganization(Organization org)
  -RegistesManagerAsUser(Manager manager)
  -sendEmail(String orgName, String emailM, String pwd, "MANAGER")
  -RegistesCollaboratorAsUser(Collaborator collab)
  -sendEmail(String orgName, String emailC, String pwd, "COLLABORATOR")
}

class FacadeAuthorization {
  +registesUserWithRoles(nameM, emailM, pwdM, "MANAGER")
  +registesUserWithRole(nameC, emailC, pwdC, "COLLABORATOR")
}

interface PasswordGeneratorAlgorithm <<interface>>{
   +String generatePassword(String nameM, String emailM)
   +String generatePassword(String nameC, String emailC)
}

class OrganizationRecordController {
    +newOrganization(name, NIF, nameM, emailM, nameC, emailC)
    +organizationRegister()
}

class OrganizationRecordUI {
}

OrganizationRecordUI ..> OrganizationRecordController
OrganizationRecordController ..> Platform
OrganizationRecordController ..> OrganizationsRecord
OrganizationRecordController ..> Organization

OrganizationsRecord "1" - -> "*" Organization : has registered
OrganizationsRecord ..> Collaborator
OrganizationsRecord ..> Manager
OrganizationsRecord ..> Platform
OrganizationsRecord ..> FacadeAuthorization
OrganizationsRecord ..> PasswordGeneratorAlgorithm
Organization "1" - -> "1" Collaborator: has
Organization "1" - -> "1" Manager: has
@enduml

PlantUML version 1.2019.12(Sun Nov 03 10:24:54 UTC 2019)
(GPL source distribution)
Java Runtime: OpenJDK Runtime Environment
JVM: OpenJDK 64-Bit Server VM
Java Version: 1.8.0_232-heroku-b09
Operating System: Linux
Default Encoding: UTF-8
Language: en
Country: US
--></g></svg>