<?xml version="1.0" encoding="UTF-8" standalone="no"?><svg xmlns="http://www.w3.org/2000/svg" xmlns:xlink="http://www.w3.org/1999/xlink" contentScriptType="application/ecmascript" contentStyleType="text/css" height="790px" preserveAspectRatio="none" style="width:1263px;height:790px;" version="1.1" viewBox="0 0 1263 790" width="1263px" zoomAndPan="magnify"><defs><filter height="300%" id="fsxfqvf7w8lf8" width="300%" x="-1" y="-1"><feGaussianBlur result="blurOut" stdDeviation="2.0"/><feColorMatrix in="blurOut" result="blurOut2" type="matrix" values="0 0 0 0 0 0 0 0 0 0 0 0 0 0 0 0 0 0 .4 0"/><feOffset dx="4.0" dy="4.0" in="blurOut2" result="blurOut3"/><feBlend in="SourceGraphic" in2="blurOut3" mode="normal"/></filter></defs><g><!--MD5=[f483d6e5de34a60207b28a5563be5e8b]
class Collaborator--><rect fill="#FEFECE" filter="url(#fsxfqvf7w8lf8)" height="124.8281" id="Collaborator" style="stroke: #A80036; stroke-width: 1.5;" width="188" x="135.3038" y="655"/><ellipse cx="186.5538" cy="671" fill="#ADD1B2" rx="11" ry="11" style="stroke: #A80036; stroke-width: 1.0;"/><path d="M189.5226,676.6406 Q188.9444,676.9375 188.3038,677.0859 Q187.6632,677.2344 186.9601,677.2344 Q184.4601,677.2344 183.1397,675.5859 Q181.8194,673.9375 181.8194,670.8125 Q181.8194,667.6875 183.1397,666.0313 Q184.4601,664.375 186.9601,664.375 Q187.6632,664.375 188.3116,664.5313 Q188.9601,664.6875 189.5226,664.9844 L189.5226,667.7031 Q188.8976,667.125 188.3038,666.8516 Q187.7101,666.5781 187.0851,666.5781 Q185.7413,666.5781 185.0538,667.6484 Q184.3663,668.7188 184.3663,670.8125 Q184.3663,672.9063 185.0538,673.9766 Q185.7413,675.0469 187.0851,675.0469 Q187.7101,675.0469 188.3038,674.7734 Q188.8976,674.5 189.5226,673.9219 L189.5226,676.6406 Z "/><text fill="#000000" font-family="sans-serif" font-size="12" lengthAdjust="spacingAndGlyphs" textLength="77" x="207.0538" y="675.1543">Collaborator</text><line style="stroke: #A80036; stroke-width: 1.5;" x1="136.3038" x2="322.3038" y1="687" y2="687"/><text fill="#000000" font-family="sans-serif" font-size="11" lengthAdjust="spacingAndGlyphs" textLength="74" x="141.3038" y="701.2104">-String name</text><text fill="#000000" font-family="sans-serif" font-size="11" lengthAdjust="spacingAndGlyphs" textLength="73" x="141.3038" y="714.0151">-String email</text><line style="stroke: #A80036; stroke-width: 1.5;" x1="136.3038" x2="322.3038" y1="720.6094" y2="720.6094"/><text fill="#000000" font-family="sans-serif" font-size="11" lengthAdjust="spacingAndGlyphs" textLength="176" x="141.3038" y="734.8198">+Colaborador(nameM, emailM)</text><text fill="#000000" font-family="sans-serif" font-size="11" lengthAdjust="spacingAndGlyphs" textLength="174" x="141.3038" y="747.6245">+Colaborador(nameC, emailC)</text><text fill="#000000" font-family="sans-serif" font-size="11" lengthAdjust="spacingAndGlyphs" textLength="106" x="141.3038" y="760.4292">+String getNome()</text><text fill="#000000" font-family="sans-serif" font-size="11" lengthAdjust="spacingAndGlyphs" textLength="104" x="141.3038" y="773.2339">+String getEmail()</text><!--MD5=[86c7c362de55a38b660185a1328fe18d]
class Organization--><rect fill="#FEFECE" filter="url(#fsxfqvf7w8lf8)" height="99.2188" id="Organization" style="stroke: #A80036; stroke-width: 1.5;" width="285" x="21.8038" y="479"/><ellipse cx="121.0538" cy="495" fill="#ADD1B2" rx="11" ry="11" style="stroke: #A80036; stroke-width: 1.0;"/><path d="M124.0226,500.6406 Q123.4444,500.9375 122.8038,501.0859 Q122.1632,501.2344 121.4601,501.2344 Q118.9601,501.2344 117.6397,499.5859 Q116.3194,497.9375 116.3194,494.8125 Q116.3194,491.6875 117.6397,490.0313 Q118.9601,488.375 121.4601,488.375 Q122.1632,488.375 122.8116,488.5313 Q123.4601,488.6875 124.0226,488.9844 L124.0226,491.7031 Q123.3976,491.125 122.8038,490.8516 Q122.2101,490.5781 121.5851,490.5781 Q120.2413,490.5781 119.5538,491.6484 Q118.8663,492.7188 118.8663,494.8125 Q118.8663,496.9063 119.5538,497.9766 Q120.2413,499.0469 121.5851,499.0469 Q122.2101,499.0469 122.8038,498.7734 Q123.3976,498.5 124.0226,497.9219 L124.0226,500.6406 Z "/><text fill="#000000" font-family="sans-serif" font-size="12" lengthAdjust="spacingAndGlyphs" textLength="78" x="141.5538" y="499.1543">Organization</text><line style="stroke: #A80036; stroke-width: 1.5;" x1="22.8038" x2="305.8038" y1="511" y2="511"/><text fill="#000000" font-family="sans-serif" font-size="11" lengthAdjust="spacingAndGlyphs" textLength="74" x="27.8038" y="525.2104">-String name</text><line style="stroke: #A80036; stroke-width: 1.5;" x1="22.8038" x2="305.8038" y1="531.8047" y2="531.8047"/><text fill="#000000" font-family="sans-serif" font-size="11" lengthAdjust="spacingAndGlyphs" text-decoration="underline" textLength="273" x="27.8038" y="546.0151">+Colaborador newCollaborator(nameM, emailM)</text><text fill="#000000" font-family="sans-serif" font-size="11" lengthAdjust="spacingAndGlyphs" text-decoration="underline" textLength="271" x="27.8038" y="558.8198">+Colaborador newCollaborator(nameC, emailC)</text><text fill="#000000" font-family="sans-serif" font-size="11" lengthAdjust="spacingAndGlyphs" textLength="219" x="27.8038" y="571.6245">+Organizacao(name, manager, collab)</text><!--MD5=[99b8db98afdc2c8404e39242ef4c1e65]
class Platform--><rect fill="#FEFECE" filter="url(#fsxfqvf7w8lf8)" height="99.2188" id="Platform" style="stroke: #A80036; stroke-width: 1.5;" width="354" x="46.3038" y="277.5"/><ellipse cx="193.0538" cy="293.5" fill="#ADD1B2" rx="11" ry="11" style="stroke: #A80036; stroke-width: 1.0;"/><path d="M196.0226,299.1406 Q195.4444,299.4375 194.8038,299.5859 Q194.1632,299.7344 193.4601,299.7344 Q190.9601,299.7344 189.6397,298.0859 Q188.3194,296.4375 188.3194,293.3125 Q188.3194,290.1875 189.6397,288.5313 Q190.9601,286.875 193.4601,286.875 Q194.1632,286.875 194.8116,287.0313 Q195.4601,287.1875 196.0226,287.4844 L196.0226,290.2031 Q195.3976,289.625 194.8038,289.3516 Q194.2101,289.0781 193.5851,289.0781 Q192.2413,289.0781 191.5538,290.1484 Q190.8663,291.2188 190.8663,293.3125 Q190.8663,295.4063 191.5538,296.4766 Q192.2413,297.5469 193.5851,297.5469 Q194.2101,297.5469 194.8038,297.2734 Q195.3976,297 196.0226,296.4219 L196.0226,299.1406 Z "/><text fill="#000000" font-family="sans-serif" font-size="12" lengthAdjust="spacingAndGlyphs" textLength="52" x="213.5538" y="297.6543">Platform</text><line style="stroke: #A80036; stroke-width: 1.5;" x1="47.3038" x2="399.3038" y1="309.5" y2="309.5"/><text fill="#000000" font-family="sans-serif" font-size="11" lengthAdjust="spacingAndGlyphs" textLength="108" x="52.3038" y="323.7104">-String designation</text><line style="stroke: #A80036; stroke-width: 1.5;" x1="47.3038" x2="399.3038" y1="330.3047" y2="330.3047"/><text fill="#000000" font-family="sans-serif" font-size="11" lengthAdjust="spacingAndGlyphs" textLength="273" x="52.3038" y="344.5151">+OrganizationsRecord getOrganizationsRecord()</text><text fill="#000000" font-family="sans-serif" font-size="11" lengthAdjust="spacingAndGlyphs" textLength="265" x="52.3038" y="357.3198">+FacadeAuthorization getFacadeAuthorization()</text><text fill="#000000" font-family="sans-serif" font-size="11" lengthAdjust="spacingAndGlyphs" textLength="342" x="52.3038" y="370.1245">+PasswordGeneratorAlgorithm getPwdGeneratorAlgorithm()</text><!--MD5=[759d9d4bd7fe37fb1c4b72776400893c]
class OrganizationsRecord--><rect fill="#FEFECE" filter="url(#fsxfqvf7w8lf8)" height="150.4375" id="OrganizationsRecord" style="stroke: #A80036; stroke-width: 1.5;" width="422" x="435.3038" y="252"/><ellipse cx="577.5538" cy="268" fill="#ADD1B2" rx="11" ry="11" style="stroke: #A80036; stroke-width: 1.0;"/><path d="M580.5226,273.6406 Q579.9444,273.9375 579.3038,274.0859 Q578.6632,274.2344 577.9601,274.2344 Q575.4601,274.2344 574.1397,272.5859 Q572.8194,270.9375 572.8194,267.8125 Q572.8194,264.6875 574.1397,263.0313 Q575.4601,261.375 577.9601,261.375 Q578.6632,261.375 579.3116,261.5313 Q579.9601,261.6875 580.5226,261.9844 L580.5226,264.7031 Q579.8976,264.125 579.3038,263.8516 Q578.7101,263.5781 578.0851,263.5781 Q576.7413,263.5781 576.0538,264.6484 Q575.3663,265.7188 575.3663,267.8125 Q575.3663,269.9063 576.0538,270.9766 Q576.7413,272.0469 578.0851,272.0469 Q578.7101,272.0469 579.3038,271.7734 Q579.8976,271.5 580.5226,270.9219 L580.5226,273.6406 Z "/><text fill="#000000" font-family="sans-serif" font-size="12" lengthAdjust="spacingAndGlyphs" textLength="129" x="598.0538" y="272.1543">OrganizationsRecord</text><line style="stroke: #A80036; stroke-width: 1.5;" x1="436.3038" x2="856.3038" y1="284" y2="284"/><line style="stroke: #A80036; stroke-width: 1.5;" x1="436.3038" x2="856.3038" y1="292" y2="292"/><text fill="#000000" font-family="sans-serif" font-size="11" lengthAdjust="spacingAndGlyphs" textLength="410" x="441.3038" y="306.2104">+Organization newOrganization(name, nameM, emailM, nameC, emailC)</text><text fill="#000000" font-family="sans-serif" font-size="11" lengthAdjust="spacingAndGlyphs" textLength="226" x="441.3038" y="319.0151">+validateOrganization(Organization org)</text><text fill="#000000" font-family="sans-serif" font-size="11" lengthAdjust="spacingAndGlyphs" textLength="227" x="441.3038" y="331.8198">+organizationRegister(Organization org)</text><text fill="#000000" font-family="sans-serif" font-size="11" lengthAdjust="spacingAndGlyphs" textLength="198" x="441.3038" y="344.6245">-addOrganization(Organization org)</text><text fill="#000000" font-family="sans-serif" font-size="11" lengthAdjust="spacingAndGlyphs" textLength="276" x="441.3038" y="357.4292">-RegistesManagerAsUser(Collaborator manager)</text><text fill="#000000" font-family="sans-serif" font-size="11" lengthAdjust="spacingAndGlyphs" textLength="212" x="441.3038" y="370.2339">-enviaPwd(String emailM, String pwd)</text><text fill="#000000" font-family="sans-serif" font-size="11" lengthAdjust="spacingAndGlyphs" textLength="279" x="441.3038" y="383.0386">-RegistesCollaboratorAsUser(Collaborator collab)</text><text fill="#000000" font-family="sans-serif" font-size="11" lengthAdjust="spacingAndGlyphs" textLength="211" x="441.3038" y="395.8433">-enviaPwd(String emailC, String pwd)</text><!--MD5=[c92a301914785b9701ae4dd841eeae97]
class FacadeAuthorization--><rect fill="#FEFECE" filter="url(#fsxfqvf7w8lf8)" height="73.6094" id="FacadeAuthorization" style="stroke: #A80036; stroke-width: 1.5;" width="465" x="413.8038" y="491.5"/><ellipse cx="578.0538" cy="507.5" fill="#ADD1B2" rx="11" ry="11" style="stroke: #A80036; stroke-width: 1.0;"/><path d="M581.0226,513.1406 Q580.4444,513.4375 579.8038,513.5859 Q579.1632,513.7344 578.4601,513.7344 Q575.9601,513.7344 574.6397,512.0859 Q573.3194,510.4375 573.3194,507.3125 Q573.3194,504.1875 574.6397,502.5313 Q575.9601,500.875 578.4601,500.875 Q579.1632,500.875 579.8116,501.0313 Q580.4601,501.1875 581.0226,501.4844 L581.0226,504.2031 Q580.3976,503.625 579.8038,503.3516 Q579.2101,503.0781 578.5851,503.0781 Q577.2413,503.0781 576.5538,504.1484 Q575.8663,505.2188 575.8663,507.3125 Q575.8663,509.4063 576.5538,510.4766 Q577.2413,511.5469 578.5851,511.5469 Q579.2101,511.5469 579.8038,511.2734 Q580.3976,511 581.0226,510.4219 L581.0226,513.1406 Z "/><text fill="#000000" font-family="sans-serif" font-size="12" lengthAdjust="spacingAndGlyphs" textLength="128" x="598.5538" y="511.6543">FacadeAuthorization</text><line style="stroke: #A80036; stroke-width: 1.5;" x1="414.8038" x2="877.8038" y1="523.5" y2="523.5"/><line style="stroke: #A80036; stroke-width: 1.5;" x1="414.8038" x2="877.8038" y1="531.5" y2="531.5"/><text fill="#000000" font-family="sans-serif" font-size="11" lengthAdjust="spacingAndGlyphs" textLength="453" x="419.8038" y="545.7104">+registesUserWithRoles(nameM, emailM, pwd, ["MANAGER", "COLLABORATOR"])</text><text fill="#000000" font-family="sans-serif" font-size="11" lengthAdjust="spacingAndGlyphs" textLength="371" x="419.8038" y="558.5151">+registesUserWithRoles(nameC, emailC, pwd, "COLLABORATOR")</text><!--MD5=[c770a74bfa57c89e52aad2356be61140]
class PasswordGeneratorAlgorithm--><rect fill="#FEFECE" filter="url(#fsxfqvf7w8lf8)" height="79.5469" id="PasswordGeneratorAlgorithm" style="stroke: #A80036; stroke-width: 1.5;" width="339" x="913.8038" y="488.5"/><ellipse cx="987.5538" cy="507.4688" fill="#B4A7E5" rx="11" ry="11" style="stroke: #A80036; stroke-width: 1.0;"/><path d="M983.4757,503.2344 L983.4757,501.0781 L990.8663,501.0781 L990.8663,503.2344 L988.3976,503.2344 L988.3976,511.3125 L990.8663,511.3125 L990.8663,513.4688 L983.4757,513.4688 L983.4757,511.3125 L985.9444,511.3125 L985.9444,503.2344 L983.4757,503.2344 Z "/><text fill="#000000" font-family="sans-serif" font-size="12" font-style="italic" lengthAdjust="spacingAndGlyphs" textLength="70" x="1064.5538" y="504.6387">«interface»</text><text fill="#000000" font-family="sans-serif" font-size="12" font-style="italic" lengthAdjust="spacingAndGlyphs" textLength="183" x="1008.0538" y="518.6074">PasswordGeneratorAlgorithm</text><line style="stroke: #A80036; stroke-width: 1.5;" x1="914.8038" x2="1251.8038" y1="526.4375" y2="526.4375"/><line style="stroke: #A80036; stroke-width: 1.5;" x1="914.8038" x2="1251.8038" y1="534.4375" y2="534.4375"/><text fill="#000000" font-family="sans-serif" font-size="11" lengthAdjust="spacingAndGlyphs" textLength="327" x="919.8038" y="548.6479">+String generatePassword(String nameM, String emailM)</text><text fill="#000000" font-family="sans-serif" font-size="11" lengthAdjust="spacingAndGlyphs" textLength="325" x="919.8038" y="561.4526">+String generatePassword(String nameC, String emailC)</text><!--MD5=[9f44d23a8a3e238f6a921a3f88c65a2a]
class OrganizationRecordController--><rect fill="#FEFECE" filter="url(#fsxfqvf7w8lf8)" height="73.6094" id="OrganizationRecordController" style="stroke: #A80036; stroke-width: 1.5;" width="347" x="49.8038" y="117"/><ellipse cx="127.5538" cy="133" fill="#ADD1B2" rx="11" ry="11" style="stroke: #A80036; stroke-width: 1.0;"/><path d="M130.5226,138.6406 Q129.9444,138.9375 129.3038,139.0859 Q128.6632,139.2344 127.9601,139.2344 Q125.4601,139.2344 124.1397,137.5859 Q122.8194,135.9375 122.8194,132.8125 Q122.8194,129.6875 124.1397,128.0313 Q125.4601,126.375 127.9601,126.375 Q128.6632,126.375 129.3116,126.5313 Q129.9601,126.6875 130.5226,126.9844 L130.5226,129.7031 Q129.8976,129.125 129.3038,128.8516 Q128.7101,128.5781 128.0851,128.5781 Q126.7413,128.5781 126.0538,129.6484 Q125.3663,130.7188 125.3663,132.8125 Q125.3663,134.9063 126.0538,135.9766 Q126.7413,137.0469 128.0851,137.0469 Q128.7101,137.0469 129.3038,136.7734 Q129.8976,136.5 130.5226,135.9219 L130.5226,138.6406 Z "/><text fill="#000000" font-family="sans-serif" font-size="12" lengthAdjust="spacingAndGlyphs" textLength="183" x="148.0538" y="137.1543">OrganizationRecordController</text><line style="stroke: #A80036; stroke-width: 1.5;" x1="50.8038" x2="395.8038" y1="149" y2="149"/><line style="stroke: #A80036; stroke-width: 1.5;" x1="50.8038" x2="395.8038" y1="157" y2="157"/><text fill="#000000" font-family="sans-serif" font-size="11" lengthAdjust="spacingAndGlyphs" textLength="335" x="55.8038" y="171.2104">+newOrganization(name, nameM, emailM, nameC, emailC)</text><text fill="#000000" font-family="sans-serif" font-size="11" lengthAdjust="spacingAndGlyphs" textLength="133" x="55.8038" y="184.0151">+organizationRegister()</text><!--MD5=[b29882ecfc700c7cd112b970f8492af2]
class OrganizationRecordUI--><rect fill="#FEFECE" filter="url(#fsxfqvf7w8lf8)" height="48" id="OrganizationRecordUI" style="stroke: #A80036; stroke-width: 1.5;" width="166" x="140.3038" y="8"/><ellipse cx="155.3038" cy="24" fill="#ADD1B2" rx="11" ry="11" style="stroke: #A80036; stroke-width: 1.0;"/><path d="M158.2726,29.6406 Q157.6944,29.9375 157.0538,30.0859 Q156.4132,30.2344 155.7101,30.2344 Q153.2101,30.2344 151.8897,28.5859 Q150.5694,26.9375 150.5694,23.8125 Q150.5694,20.6875 151.8897,19.0313 Q153.2101,17.375 155.7101,17.375 Q156.4132,17.375 157.0616,17.5313 Q157.7101,17.6875 158.2726,17.9844 L158.2726,20.7031 Q157.6476,20.125 157.0538,19.8516 Q156.4601,19.5781 155.8351,19.5781 Q154.4913,19.5781 153.8038,20.6484 Q153.1163,21.7188 153.1163,23.8125 Q153.1163,25.9063 153.8038,26.9766 Q154.4913,28.0469 155.8351,28.0469 Q156.4601,28.0469 157.0538,27.7734 Q157.6476,27.5 158.2726,26.9219 L158.2726,29.6406 Z "/><text fill="#000000" font-family="sans-serif" font-size="12" lengthAdjust="spacingAndGlyphs" textLength="134" x="169.3038" y="28.1543">OrganizationRecordUI</text><line style="stroke: #A80036; stroke-width: 1.5;" x1="141.3038" x2="305.3038" y1="40" y2="40"/><line style="stroke: #A80036; stroke-width: 1.5;" x1="141.3038" x2="305.3038" y1="48" y2="48"/><!--MD5=[51764ff3e7c7ff1799ee9bb480086dcf]
link OrganizationRecordUI to OrganizationRecordController--><path d="M223.3038,56.1033 C223.3038,71.972 223.3038,93.1768 223.3038,111.7934 " fill="none" id="OrganizationRecordUI-&gt;OrganizationRecordController" style="stroke: #A80036; stroke-width: 1.0; stroke-dasharray: 7.0,7.0;"/><polygon fill="#A80036" points="223.3038,116.9691,227.3038,107.9691,223.3038,111.9691,219.3038,107.9691,223.3038,116.9691" style="stroke: #A80036; stroke-width: 1.0;"/><!--MD5=[9fc5896629388248e03ad7eb6b0daae2]
link OrganizationRecordController to Platform--><path d="M223.3038,191.1128 C223.3038,214.7547 223.3038,245.7988 223.3038,272.2458 " fill="none" id="OrganizationRecordController-&gt;Platform" style="stroke: #A80036; stroke-width: 1.0; stroke-dasharray: 7.0,7.0;"/><polygon fill="#A80036" points="223.3038,277.4704,227.3038,268.4704,223.3038,272.4704,219.3038,268.4704,223.3038,277.4704" style="stroke: #A80036; stroke-width: 1.0;"/><!--MD5=[cda96632a4ee569e1e6a0b7f1d1d5843]
link OrganizationRecordController to OrganizationsRecord--><path d="M313.7883,191.0067 C355.9911,208.2669 407.8825,229.4896 458.0132,249.9923 " fill="none" id="OrganizationRecordController-&gt;OrganizationsRecord" style="stroke: #A80036; stroke-width: 1.0; stroke-dasharray: 7.0,7.0;"/><polygon fill="#A80036" points="462.8587,251.974,456.0428,244.8646,458.2308,250.0812,453.0143,252.2692,462.8587,251.974" style="stroke: #A80036; stroke-width: 1.0;"/><!--MD5=[a302c1269582845cba10a5907c450f8a]
link OrganizationRecordController to Organization--><path d="M99.9939,191.0986 C72.0343,205.5263 45.7638,225.2441 29.3038,252 C-5.6282,308.7821 2.7943,340.8306 29.3038,402 C41.6187,430.4161 63.8084,455.3722 86.6873,475.4435 " fill="none" id="OrganizationRecordController-&gt;Organization" style="stroke: #A80036; stroke-width: 1.0; stroke-dasharray: 7.0,7.0;"/><polygon fill="#A80036" points="90.6631,478.8777,86.4666,469.9676,86.8791,475.6094,81.2373,476.022,90.6631,478.8777" style="stroke: #A80036; stroke-width: 1.0;"/><!--MD5=[15b500351a20fc4c9aef6172f83f2b2a]
link OrganizationsRecord to Organization--><path d="M435.1469,397.4212 C429.1493,399.0145 423.1928,400.5451 417.3038,402 C339.8439,421.1363 308.9112,391.2663 240.3038,432 C222.7232,442.438 207.6512,458.5926 195.6746,474.7181 " fill="none" id="OrganizationsRecord-&gt;Organization" style="stroke: #A80036; stroke-width: 1.0;"/><polygon fill="#A80036" points="192.6968,478.8136,201.2248,473.8867,195.6372,474.7696,194.7544,469.1821,192.6968,478.8136" style="stroke: #A80036; stroke-width: 1.0;"/><text fill="#000000" font-family="sans-serif" font-size="13" lengthAdjust="spacingAndGlyphs" textLength="92" x="241.3038" y="445.0669">has registered</text><text fill="#000000" font-family="sans-serif" font-size="13" lengthAdjust="spacingAndGlyphs" textLength="8" x="419.4147" y="396.7439">1</text><text fill="#000000" font-family="sans-serif" font-size="13" lengthAdjust="spacingAndGlyphs" textLength="7" x="189.1974" y="467.8326">*</text><!--MD5=[0ef8e5073de95fb7f0f924ad4fed3da9]
link OrganizationsRecord to Collaborator--><path d="M499.9162,402.1237 C463.9322,424.2089 426.9699,450.2532 396.3038,479 C388.7257,486.1037 322.0164,582.4314 275.2431,650.4634 " fill="none" id="OrganizationsRecord-&gt;Collaborator" style="stroke: #A80036; stroke-width: 1.0; stroke-dasharray: 7.0,7.0;"/><polygon fill="#A80036" points="272.1919,654.9023,280.5865,649.7515,275.0243,650.7819,273.9939,645.2197,272.1919,654.9023" style="stroke: #A80036; stroke-width: 1.0;"/><!--MD5=[38e4da47db94f125de95f0b63b16a0a0]
link OrganizationsRecord to FacadeAuthorization--><path d="M646.3038,402.0312 C646.3038,430.445 646.3038,461.7838 646.3038,486.1566 " fill="none" id="OrganizationsRecord-&gt;FacadeAuthorization" style="stroke: #A80036; stroke-width: 1.0; stroke-dasharray: 7.0,7.0;"/><polygon fill="#A80036" points="646.3038,491.2482,650.3038,482.2482,646.3038,486.2482,642.3038,482.2482,646.3038,491.2482" style="stroke: #A80036; stroke-width: 1.0;"/><!--MD5=[417a8373f3b7665318c477596f7910b2]
link OrganizationsRecord to PasswordGeneratorAlgorithm--><path d="M809.0264,402.0312 C870.7424,430.4883 938.821,461.8792 991.7135,486.2679 " fill="none" id="OrganizationsRecord-&gt;PasswordGeneratorAlgorithm" style="stroke: #A80036; stroke-width: 1.0; stroke-dasharray: 7.0,7.0;"/><polygon fill="#A80036" points="996.4605,488.4567,989.9625,481.0556,991.92,486.363,986.6126,488.3205,996.4605,488.4567" style="stroke: #A80036; stroke-width: 1.0;"/><!--MD5=[45817597bcd7048073a670d966abfd17]
link Organization to Collaborator--><path d="M156.2947,578.0323 C155.5126,593.4027 156.4452,610.1882 161.3038,625 C164.1604,633.7088 168.1849,642.2735 172.8654,650.4649 " fill="none" id="Organization-&gt;Collaborator" style="stroke: #A80036; stroke-width: 1.0;"/><polygon fill="#A80036" points="175.53,654.9758,174.3966,645.1924,172.987,650.6708,167.5086,649.2612,175.53,654.9758" style="stroke: #A80036; stroke-width: 1.0;"/><text fill="#000000" font-family="sans-serif" font-size="13" lengthAdjust="spacingAndGlyphs" textLength="23" x="162.3038" y="621.0669">has</text><text fill="#000000" font-family="sans-serif" font-size="13" lengthAdjust="spacingAndGlyphs" textLength="8" x="146.6059" y="598.1133">1</text><text fill="#000000" font-family="sans-serif" font-size="13" lengthAdjust="spacingAndGlyphs" textLength="8" x="160.8499" y="643.9638">1</text><!--MD5=[45817597bcd7048073a670d966abfd17]
link Organization to Collaborator--><path d="M181.3817,578.1575 C188.9317,600.1106 197.9272,626.2667 206.0745,649.9564 " fill="none" id="Organization-&gt;Collaborator-1" style="stroke: #A80036; stroke-width: 1.0;"/><polygon fill="#A80036" points="207.7993,654.9717,208.6548,645.1601,206.1731,650.2435,201.0897,647.7619,207.7993,654.9717" style="stroke: #A80036; stroke-width: 1.0;"/><text fill="#000000" font-family="sans-serif" font-size="13" lengthAdjust="spacingAndGlyphs" textLength="85" x="198.3038" y="621.0669">has manager</text><text fill="#000000" font-family="sans-serif" font-size="13" lengthAdjust="spacingAndGlyphs" textLength="8" x="175.2208" y="598.2561">1</text><text fill="#000000" font-family="sans-serif" font-size="13" lengthAdjust="spacingAndGlyphs" textLength="8" x="196.8503" y="643.9592">1</text><!--MD5=[aa8be0010af8861ec67ceedd1ca7e702]
@startuml
skinparam classAttributeIconSize 0

class Collaborator {
  -String name
  -String email
  +Colaborador(nameM, emailM)
  +Colaborador(nameC, emailC)
  +String getNome()
  +String getEmail()
}

class Organization {
  -String name
  +{static} Colaborador newCollaborator(nameM, emailM)
  +{static} Colaborador newCollaborator(nameC, emailC)
  +Organizacao(name, manager, collab)
}

class Platform {
  -String designation
  +OrganizationsRecord getOrganizationsRecord()
  +FacadeAuthorization getFacadeAuthorization()
  +PasswordGeneratorAlgorithm getPwdGeneratorAlgorithm()
}

class OrganizationsRecord {
  +Organization newOrganization(name, nameM, emailM, nameC, emailC)
  +validateOrganization(Organization org)
  +organizationRegister(Organization org)
  -addOrganization(Organization org)
  -RegistesManagerAsUser(Collaborator manager)
  -enviaPwd(String emailM, String pwd)
  -RegistesCollaboratorAsUser(Collaborator collab)
  -enviaPwd(String emailC, String pwd)
}

class FacadeAuthorization {
  +registesUserWithRoles(nameM, emailM, pwd, ["MANAGER", "COLLABORATOR"])
  +registesUserWithRoles(nameC, emailC, pwd, "COLLABORATOR")
}

interface PasswordGeneratorAlgorithm <<interface>>{
   +String generatePassword(String nameM, String emailM)
   +String generatePassword(String nameC, String emailC)
}

class OrganizationRecordController {
    +newOrganization(name, nameM, emailM, nameC, emailC)
    +organizationRegister()
}

class OrganizationRecordUI {
}

OrganizationRecordUI ..> OrganizationRecordController
OrganizationRecordController ..> Platform
OrganizationRecordController ..> OrganizationsRecord
OrganizationRecordController ..> Organization

OrganizationsRecord "1" - -> "*" Organization : has registered
OrganizationsRecord ..> Collaborator
OrganizationsRecord ..> FacadeAuthorization
OrganizationsRecord ..> PasswordGeneratorAlgorithm
Organization "1" - -> "1" Collaborator: has
Organization "1" - -> "1" Collaborator: has manager
@enduml

PlantUML version 1.2019.12(Sun Nov 03 10:24:54 UTC 2019)
(GPL source distribution)
Java Runtime: OpenJDK Runtime Environment
JVM: OpenJDK 64-Bit Server VM
Java Version: 1.8.0_232-heroku-b09
Operating System: Linux
Default Encoding: UTF-8
Language: en
Country: US
--></g></svg>