<?xml version="1.0" encoding="UTF-8" standalone="no"?><svg xmlns="http://www.w3.org/2000/svg" xmlns:xlink="http://www.w3.org/1999/xlink" contentScriptType="application/ecmascript" contentStyleType="text/css" height="791px" preserveAspectRatio="none" style="width:1695px;height:791px;" version="1.1" viewBox="0 0 1695 791" width="1695px" zoomAndPan="magnify"><defs><filter height="300%" id="f16jrds9gyqeee" width="300%" x="-1" y="-1"><feGaussianBlur result="blurOut" stdDeviation="2.0"/><feColorMatrix in="blurOut" result="blurOut2" type="matrix" values="0 0 0 0 0 0 0 0 0 0 0 0 0 0 0 0 0 0 .4 0"/><feOffset dx="4.0" dy="4.0" in="blurOut2" result="blurOut3"/><feBlend in="SourceGraphic" in2="blurOut3" mode="normal"/></filter></defs><g><!--MD5=[f483d6e5de34a60207b28a5563be5e8b]
class Collaborator--><rect fill="#FEFECE" filter="url(#f16jrds9gyqeee)" height="112.0234" id="Collaborator" style="stroke: #A80036; stroke-width: 1.5;" width="188" x="6" y="668"/><ellipse cx="57.25" cy="684" fill="#ADD1B2" rx="11" ry="11" style="stroke: #A80036; stroke-width: 1.0;"/><path d="M60.2188,689.6406 Q59.6406,689.9375 59,690.0859 Q58.3594,690.2344 57.6563,690.2344 Q55.1563,690.2344 53.8359,688.5859 Q52.5156,686.9375 52.5156,683.8125 Q52.5156,680.6875 53.8359,679.0313 Q55.1563,677.375 57.6563,677.375 Q58.3594,677.375 59.0078,677.5313 Q59.6563,677.6875 60.2188,677.9844 L60.2188,680.7031 Q59.5938,680.125 59,679.8516 Q58.4063,679.5781 57.7813,679.5781 Q56.4375,679.5781 55.75,680.6484 Q55.0625,681.7188 55.0625,683.8125 Q55.0625,685.9063 55.75,686.9766 Q56.4375,688.0469 57.7813,688.0469 Q58.4063,688.0469 59,687.7734 Q59.5938,687.5 60.2188,686.9219 L60.2188,689.6406 Z "/><text fill="#000000" font-family="sans-serif" font-size="12" lengthAdjust="spacingAndGlyphs" textLength="77" x="77.75" y="688.1543">Collaborator</text><line style="stroke: #A80036; stroke-width: 1.5;" x1="7" x2="193" y1="700" y2="700"/><text fill="#000000" font-family="sans-serif" font-size="11" lengthAdjust="spacingAndGlyphs" textLength="74" x="12" y="714.2104">-String name</text><text fill="#000000" font-family="sans-serif" font-size="11" lengthAdjust="spacingAndGlyphs" textLength="73" x="12" y="727.0151">-String email</text><line style="stroke: #A80036; stroke-width: 1.5;" x1="7" x2="193" y1="733.6094" y2="733.6094"/><text fill="#000000" font-family="sans-serif" font-size="11" lengthAdjust="spacingAndGlyphs" textLength="176" x="12" y="747.8198">+Collaborator(nameM, emailM)</text><text fill="#000000" font-family="sans-serif" font-size="11" lengthAdjust="spacingAndGlyphs" textLength="106" x="12" y="760.6245">+String getName()</text><text fill="#000000" font-family="sans-serif" font-size="11" lengthAdjust="spacingAndGlyphs" textLength="104" x="12" y="773.4292">+String getEmail()</text><!--MD5=[b24ed8d4ae84bae9290d9aab401637c7]
class Manager--><rect fill="#FEFECE" filter="url(#f16jrds9gyqeee)" height="112.0234" id="Manager" style="stroke: #A80036; stroke-width: 1.5;" width="167" x="269.5" y="668"/><ellipse cx="321.25" cy="684" fill="#ADD1B2" rx="11" ry="11" style="stroke: #A80036; stroke-width: 1.0;"/><path d="M324.2188,689.6406 Q323.6406,689.9375 323,690.0859 Q322.3594,690.2344 321.6563,690.2344 Q319.1563,690.2344 317.8359,688.5859 Q316.5156,686.9375 316.5156,683.8125 Q316.5156,680.6875 317.8359,679.0313 Q319.1563,677.375 321.6563,677.375 Q322.3594,677.375 323.0078,677.5313 Q323.6563,677.6875 324.2188,677.9844 L324.2188,680.7031 Q323.5938,680.125 323,679.8516 Q322.4063,679.5781 321.7813,679.5781 Q320.4375,679.5781 319.75,680.6484 Q319.0625,681.7188 319.0625,683.8125 Q319.0625,685.9063 319.75,686.9766 Q320.4375,688.0469 321.7813,688.0469 Q322.4063,688.0469 323,687.7734 Q323.5938,687.5 324.2188,686.9219 L324.2188,689.6406 Z "/><text fill="#000000" font-family="sans-serif" font-size="12" lengthAdjust="spacingAndGlyphs" textLength="55" x="341.75" y="688.1543">Manager</text><line style="stroke: #A80036; stroke-width: 1.5;" x1="270.5" x2="435.5" y1="700" y2="700"/><text fill="#000000" font-family="sans-serif" font-size="11" lengthAdjust="spacingAndGlyphs" textLength="74" x="275.5" y="714.2104">-String name</text><text fill="#000000" font-family="sans-serif" font-size="11" lengthAdjust="spacingAndGlyphs" textLength="73" x="275.5" y="727.0151">-String email</text><line style="stroke: #A80036; stroke-width: 1.5;" x1="270.5" x2="435.5" y1="733.6094" y2="733.6094"/><text fill="#000000" font-family="sans-serif" font-size="11" lengthAdjust="spacingAndGlyphs" textLength="155" x="275.5" y="747.8198">+Manager(nameM, emailM)</text><text fill="#000000" font-family="sans-serif" font-size="11" lengthAdjust="spacingAndGlyphs" textLength="106" x="275.5" y="760.6245">+String getName()</text><text fill="#000000" font-family="sans-serif" font-size="11" lengthAdjust="spacingAndGlyphs" textLength="104" x="275.5" y="773.4292">+String getEmail()</text><!--MD5=[86c7c362de55a38b660185a1328fe18d]
class Organization--><rect fill="#FEFECE" filter="url(#f16jrds9gyqeee)" height="112.0234" id="Organization" style="stroke: #A80036; stroke-width: 1.5;" width="283" x="56.5" y="479"/><ellipse cx="154.75" cy="495" fill="#ADD1B2" rx="11" ry="11" style="stroke: #A80036; stroke-width: 1.0;"/><path d="M157.7188,500.6406 Q157.1406,500.9375 156.5,501.0859 Q155.8594,501.2344 155.1563,501.2344 Q152.6563,501.2344 151.3359,499.5859 Q150.0156,497.9375 150.0156,494.8125 Q150.0156,491.6875 151.3359,490.0313 Q152.6563,488.375 155.1563,488.375 Q155.8594,488.375 156.5078,488.5313 Q157.1563,488.6875 157.7188,488.9844 L157.7188,491.7031 Q157.0938,491.125 156.5,490.8516 Q155.9063,490.5781 155.2813,490.5781 Q153.9375,490.5781 153.25,491.6484 Q152.5625,492.7188 152.5625,494.8125 Q152.5625,496.9063 153.25,497.9766 Q153.9375,499.0469 155.2813,499.0469 Q155.9063,499.0469 156.5,498.7734 Q157.0938,498.5 157.7188,497.9219 L157.7188,500.6406 Z "/><text fill="#000000" font-family="sans-serif" font-size="12" lengthAdjust="spacingAndGlyphs" textLength="78" x="175.25" y="499.1543">Organization</text><line style="stroke: #A80036; stroke-width: 1.5;" x1="57.5" x2="338.5" y1="511" y2="511"/><text fill="#000000" font-family="sans-serif" font-size="11" lengthAdjust="spacingAndGlyphs" textLength="74" x="62.5" y="525.2104">-String name</text><text fill="#000000" font-family="sans-serif" font-size="11" lengthAdjust="spacingAndGlyphs" textLength="59" x="62.5" y="538.0151">-String NIF</text><line style="stroke: #A80036; stroke-width: 1.5;" x1="57.5" x2="338.5" y1="544.6094" y2="544.6094"/><text fill="#000000" font-family="sans-serif" font-size="11" lengthAdjust="spacingAndGlyphs" text-decoration="underline" textLength="231" x="62.5" y="558.8198">+Manager newManager(nameM, emailM)</text><text fill="#000000" font-family="sans-serif" font-size="11" lengthAdjust="spacingAndGlyphs" text-decoration="underline" textLength="271" x="62.5" y="571.6245">+Collaborator newCollaborator(nameC, emailC)</text><text fill="#000000" font-family="sans-serif" font-size="11" lengthAdjust="spacingAndGlyphs" textLength="244" x="62.5" y="584.4292">+Organizacao(name, NIF, manager, collab)</text><!--MD5=[99b8db98afdc2c8404e39242ef4c1e65]
class Platform--><rect fill="#FEFECE" filter="url(#f16jrds9gyqeee)" height="99.2188" id="Platform" style="stroke: #A80036; stroke-width: 1.5;" width="354" x="1330" y="485.5"/><ellipse cx="1476.75" cy="501.5" fill="#ADD1B2" rx="11" ry="11" style="stroke: #A80036; stroke-width: 1.0;"/><path d="M1479.7188,507.1406 Q1479.1406,507.4375 1478.5,507.5859 Q1477.8594,507.7344 1477.1563,507.7344 Q1474.6563,507.7344 1473.3359,506.0859 Q1472.0156,504.4375 1472.0156,501.3125 Q1472.0156,498.1875 1473.3359,496.5313 Q1474.6563,494.875 1477.1563,494.875 Q1477.8594,494.875 1478.5078,495.0313 Q1479.1563,495.1875 1479.7188,495.4844 L1479.7188,498.2031 Q1479.0938,497.625 1478.5,497.3516 Q1477.9063,497.0781 1477.2813,497.0781 Q1475.9375,497.0781 1475.25,498.1484 Q1474.5625,499.2188 1474.5625,501.3125 Q1474.5625,503.4063 1475.25,504.4766 Q1475.9375,505.5469 1477.2813,505.5469 Q1477.9063,505.5469 1478.5,505.2734 Q1479.0938,505 1479.7188,504.4219 L1479.7188,507.1406 Z "/><text fill="#000000" font-family="sans-serif" font-size="12" lengthAdjust="spacingAndGlyphs" textLength="52" x="1497.25" y="505.6543">Platform</text><line style="stroke: #A80036; stroke-width: 1.5;" x1="1331" x2="1683" y1="517.5" y2="517.5"/><text fill="#000000" font-family="sans-serif" font-size="11" lengthAdjust="spacingAndGlyphs" textLength="108" x="1336" y="531.7104">-String designation</text><line style="stroke: #A80036; stroke-width: 1.5;" x1="1331" x2="1683" y1="538.3047" y2="538.3047"/><text fill="#000000" font-family="sans-serif" font-size="11" lengthAdjust="spacingAndGlyphs" textLength="273" x="1336" y="552.5151">+OrganizationsRecord getOrganizationsRecord()</text><text fill="#000000" font-family="sans-serif" font-size="11" lengthAdjust="spacingAndGlyphs" textLength="265" x="1336" y="565.3198">+FacadeAuthorization getFacadeAuthorization()</text><text fill="#000000" font-family="sans-serif" font-size="11" lengthAdjust="spacingAndGlyphs" textLength="342" x="1336" y="578.1245">+PasswordGeneratorAlgorithm getPwdGeneratorAlgorithm()</text><!--MD5=[759d9d4bd7fe37fb1c4b72776400893c]
class OrganizationsRecord--><rect fill="#FEFECE" filter="url(#f16jrds9gyqeee)" height="150.4375" id="OrganizationsRecord" style="stroke: #A80036; stroke-width: 1.5;" width="447" x="314.5" y="252"/><ellipse cx="469.25" cy="268" fill="#ADD1B2" rx="11" ry="11" style="stroke: #A80036; stroke-width: 1.0;"/><path d="M472.2188,273.6406 Q471.6406,273.9375 471,274.0859 Q470.3594,274.2344 469.6563,274.2344 Q467.1563,274.2344 465.8359,272.5859 Q464.5156,270.9375 464.5156,267.8125 Q464.5156,264.6875 465.8359,263.0313 Q467.1563,261.375 469.6563,261.375 Q470.3594,261.375 471.0078,261.5313 Q471.6563,261.6875 472.2188,261.9844 L472.2188,264.7031 Q471.5938,264.125 471,263.8516 Q470.4063,263.5781 469.7813,263.5781 Q468.4375,263.5781 467.75,264.6484 Q467.0625,265.7188 467.0625,267.8125 Q467.0625,269.9063 467.75,270.9766 Q468.4375,272.0469 469.7813,272.0469 Q470.4063,272.0469 471,271.7734 Q471.5938,271.5 472.2188,270.9219 L472.2188,273.6406 Z "/><text fill="#000000" font-family="sans-serif" font-size="12" lengthAdjust="spacingAndGlyphs" textLength="129" x="489.75" y="272.1543">OrganizationsRecord</text><line style="stroke: #A80036; stroke-width: 1.5;" x1="315.5" x2="760.5" y1="284" y2="284"/><line style="stroke: #A80036; stroke-width: 1.5;" x1="315.5" x2="760.5" y1="292" y2="292"/><text fill="#000000" font-family="sans-serif" font-size="11" lengthAdjust="spacingAndGlyphs" textLength="435" x="320.5" y="306.2104">+Organization newOrganization(name, NIF, nameM, emailM, nameC, emailC)</text><text fill="#000000" font-family="sans-serif" font-size="11" lengthAdjust="spacingAndGlyphs" textLength="226" x="320.5" y="319.0151">+validateOrganization(Organization org)</text><text fill="#000000" font-family="sans-serif" font-size="11" lengthAdjust="spacingAndGlyphs" textLength="227" x="320.5" y="331.8198">+organizationRegister(Organization org)</text><text fill="#000000" font-family="sans-serif" font-size="11" lengthAdjust="spacingAndGlyphs" textLength="198" x="320.5" y="344.6245">-addOrganization(Organization org)</text><text fill="#000000" font-family="sans-serif" font-size="11" lengthAdjust="spacingAndGlyphs" textLength="255" x="320.5" y="357.4292">-RegistesManagerAsUser(Manager manager)</text><text fill="#000000" font-family="sans-serif" font-size="11" lengthAdjust="spacingAndGlyphs" textLength="210" x="320.5" y="370.2339">-sendPwd(String emailM, String pwd)</text><text fill="#000000" font-family="sans-serif" font-size="11" lengthAdjust="spacingAndGlyphs" textLength="279" x="320.5" y="383.0386">-RegistesCollaboratorAsUser(Collaborator collab)</text><text fill="#000000" font-family="sans-serif" font-size="11" lengthAdjust="spacingAndGlyphs" textLength="209" x="320.5" y="395.8433">-sendPwd(String emailC, String pwd)</text><!--MD5=[c92a301914785b9701ae4dd841eeae97]
class FacadeAuthorization--><rect fill="#FEFECE" filter="url(#f16jrds9gyqeee)" height="73.6094" id="FacadeAuthorization" style="stroke: #A80036; stroke-width: 1.5;" width="474" x="446" y="498"/><ellipse cx="614.75" cy="514" fill="#ADD1B2" rx="11" ry="11" style="stroke: #A80036; stroke-width: 1.0;"/><path d="M617.7188,519.6406 Q617.1406,519.9375 616.5,520.0859 Q615.8594,520.2344 615.1563,520.2344 Q612.6563,520.2344 611.3359,518.5859 Q610.0156,516.9375 610.0156,513.8125 Q610.0156,510.6875 611.3359,509.0313 Q612.6563,507.375 615.1563,507.375 Q615.8594,507.375 616.5078,507.5313 Q617.1563,507.6875 617.7188,507.9844 L617.7188,510.7031 Q617.0938,510.125 616.5,509.8516 Q615.9063,509.5781 615.2813,509.5781 Q613.9375,509.5781 613.25,510.6484 Q612.5625,511.7188 612.5625,513.8125 Q612.5625,515.9063 613.25,516.9766 Q613.9375,518.0469 615.2813,518.0469 Q615.9063,518.0469 616.5,517.7734 Q617.0938,517.5 617.7188,516.9219 L617.7188,519.6406 Z "/><text fill="#000000" font-family="sans-serif" font-size="12" lengthAdjust="spacingAndGlyphs" textLength="128" x="635.25" y="518.1543">FacadeAuthorization</text><line style="stroke: #A80036; stroke-width: 1.5;" x1="447" x2="919" y1="530" y2="530"/><line style="stroke: #A80036; stroke-width: 1.5;" x1="447" x2="919" y1="538" y2="538"/><text fill="#000000" font-family="sans-serif" font-size="11" lengthAdjust="spacingAndGlyphs" textLength="462" x="452" y="552.2104">+registesUserWithRoles(nameM, emailM, pwdM, ["MANAGER", "COLLABORATOR"])</text><text fill="#000000" font-family="sans-serif" font-size="11" lengthAdjust="spacingAndGlyphs" textLength="372" x="452" y="565.0151">+registesUserWithRole(nameC, emailC, pwdC, "COLLABORATOR")</text><!--MD5=[c770a74bfa57c89e52aad2356be61140]
class PasswordGeneratorAlgorithm--><rect fill="#FEFECE" filter="url(#f16jrds9gyqeee)" height="79.5469" id="PasswordGeneratorAlgorithm" style="stroke: #A80036; stroke-width: 1.5;" width="339" x="955.5" y="495"/><ellipse cx="1029.25" cy="513.9688" fill="#B4A7E5" rx="11" ry="11" style="stroke: #A80036; stroke-width: 1.0;"/><path d="M1025.1719,509.7344 L1025.1719,507.5781 L1032.5625,507.5781 L1032.5625,509.7344 L1030.0938,509.7344 L1030.0938,517.8125 L1032.5625,517.8125 L1032.5625,519.9688 L1025.1719,519.9688 L1025.1719,517.8125 L1027.6406,517.8125 L1027.6406,509.7344 L1025.1719,509.7344 Z "/><text fill="#000000" font-family="sans-serif" font-size="12" font-style="italic" lengthAdjust="spacingAndGlyphs" textLength="70" x="1106.25" y="511.1387">«interface»</text><text fill="#000000" font-family="sans-serif" font-size="12" font-style="italic" lengthAdjust="spacingAndGlyphs" textLength="183" x="1049.75" y="525.1074">PasswordGeneratorAlgorithm</text><line style="stroke: #A80036; stroke-width: 1.5;" x1="956.5" x2="1293.5" y1="532.9375" y2="532.9375"/><line style="stroke: #A80036; stroke-width: 1.5;" x1="956.5" x2="1293.5" y1="540.9375" y2="540.9375"/><text fill="#000000" font-family="sans-serif" font-size="11" lengthAdjust="spacingAndGlyphs" textLength="327" x="961.5" y="555.1479">+String generatePassword(String nameM, String emailM)</text><text fill="#000000" font-family="sans-serif" font-size="11" lengthAdjust="spacingAndGlyphs" textLength="325" x="961.5" y="567.9526">+String generatePassword(String nameC, String emailC)</text><!--MD5=[9f44d23a8a3e238f6a921a3f88c65a2a]
class OrganizationRecordController--><rect fill="#FEFECE" filter="url(#f16jrds9gyqeee)" height="73.6094" id="OrganizationRecordController" style="stroke: #A80036; stroke-width: 1.5;" width="372" x="352" y="117"/><ellipse cx="442.25" cy="133" fill="#ADD1B2" rx="11" ry="11" style="stroke: #A80036; stroke-width: 1.0;"/><path d="M445.2188,138.6406 Q444.6406,138.9375 444,139.0859 Q443.3594,139.2344 442.6563,139.2344 Q440.1563,139.2344 438.8359,137.5859 Q437.5156,135.9375 437.5156,132.8125 Q437.5156,129.6875 438.8359,128.0313 Q440.1563,126.375 442.6563,126.375 Q443.3594,126.375 444.0078,126.5313 Q444.6563,126.6875 445.2188,126.9844 L445.2188,129.7031 Q444.5938,129.125 444,128.8516 Q443.4063,128.5781 442.7813,128.5781 Q441.4375,128.5781 440.75,129.6484 Q440.0625,130.7188 440.0625,132.8125 Q440.0625,134.9063 440.75,135.9766 Q441.4375,137.0469 442.7813,137.0469 Q443.4063,137.0469 444,136.7734 Q444.5938,136.5 445.2188,135.9219 L445.2188,138.6406 Z "/><text fill="#000000" font-family="sans-serif" font-size="12" lengthAdjust="spacingAndGlyphs" textLength="183" x="462.75" y="137.1543">OrganizationRecordController</text><line style="stroke: #A80036; stroke-width: 1.5;" x1="353" x2="723" y1="149" y2="149"/><line style="stroke: #A80036; stroke-width: 1.5;" x1="353" x2="723" y1="157" y2="157"/><text fill="#000000" font-family="sans-serif" font-size="11" lengthAdjust="spacingAndGlyphs" textLength="360" x="358" y="171.2104">+newOrganization(name, NIF, nameM, emailM, nameC, emailC)</text><text fill="#000000" font-family="sans-serif" font-size="11" lengthAdjust="spacingAndGlyphs" textLength="133" x="358" y="184.0151">+organizationRegister()</text><!--MD5=[b29882ecfc700c7cd112b970f8492af2]
class OrganizationRecordUI--><rect fill="#FEFECE" filter="url(#f16jrds9gyqeee)" height="48" id="OrganizationRecordUI" style="stroke: #A80036; stroke-width: 1.5;" width="166" x="455" y="8"/><ellipse cx="470" cy="24" fill="#ADD1B2" rx="11" ry="11" style="stroke: #A80036; stroke-width: 1.0;"/><path d="M472.9688,29.6406 Q472.3906,29.9375 471.75,30.0859 Q471.1094,30.2344 470.4063,30.2344 Q467.9063,30.2344 466.5859,28.5859 Q465.2656,26.9375 465.2656,23.8125 Q465.2656,20.6875 466.5859,19.0313 Q467.9063,17.375 470.4063,17.375 Q471.1094,17.375 471.7578,17.5313 Q472.4063,17.6875 472.9688,17.9844 L472.9688,20.7031 Q472.3438,20.125 471.75,19.8516 Q471.1563,19.5781 470.5313,19.5781 Q469.1875,19.5781 468.5,20.6484 Q467.8125,21.7188 467.8125,23.8125 Q467.8125,25.9063 468.5,26.9766 Q469.1875,28.0469 470.5313,28.0469 Q471.1563,28.0469 471.75,27.7734 Q472.3438,27.5 472.9688,26.9219 L472.9688,29.6406 Z "/><text fill="#000000" font-family="sans-serif" font-size="12" lengthAdjust="spacingAndGlyphs" textLength="134" x="484" y="28.1543">OrganizationRecordUI</text><line style="stroke: #A80036; stroke-width: 1.5;" x1="456" x2="620" y1="40" y2="40"/><line style="stroke: #A80036; stroke-width: 1.5;" x1="456" x2="620" y1="48" y2="48"/><!--MD5=[51764ff3e7c7ff1799ee9bb480086dcf]
link OrganizationRecordUI to OrganizationRecordController--><path d="M538,56.1033 C538,71.972 538,93.1768 538,111.7934 " fill="none" id="OrganizationRecordUI-&gt;OrganizationRecordController" style="stroke: #A80036; stroke-width: 1.0; stroke-dasharray: 7.0,7.0;"/><polygon fill="#A80036" points="538,116.9691,542,107.9691,538,111.9691,534,107.9691,538,116.9691" style="stroke: #A80036; stroke-width: 1.0;"/><!--MD5=[9fc5896629388248e03ad7eb6b0daae2]
link OrganizationRecordController to Platform--><path d="M632.2338,191.0517 C806.1534,259.4349 1177.8814,405.5942 1376.1315,483.544 " fill="none" id="OrganizationRecordController-&gt;Platform" style="stroke: #A80036; stroke-width: 1.0; stroke-dasharray: 7.0,7.0;"/><polygon fill="#A80036" points="1381.073,485.4869,1374.161,478.4709,1376.4198,483.6572,1371.2335,485.916,1381.073,485.4869" style="stroke: #A80036; stroke-width: 1.0;"/><!--MD5=[cda96632a4ee569e1e6a0b7f1d1d5843]
link OrganizationRecordController to OrganizationsRecord--><path d="M538,191.1128 C538,207.3573 538,227.0965 538,246.4379 " fill="none" id="OrganizationRecordController-&gt;OrganizationsRecord" style="stroke: #A80036; stroke-width: 1.0; stroke-dasharray: 7.0,7.0;"/><polygon fill="#A80036" points="538,251.8794,542,242.8794,538,246.8794,534,242.8794,538,251.8794" style="stroke: #A80036; stroke-width: 1.0;"/><!--MD5=[a302c1269582845cba10a5907c450f8a]
link OrganizationRecordController to Organization--><path d="M390.7226,191.09 C356.432,205.4706 322.5304,225.1681 297,252 C238.8059,313.1606 214.6123,410.4182 204.6955,473.4844 " fill="none" id="OrganizationRecordController-&gt;Organization" style="stroke: #A80036; stroke-width: 1.0; stroke-dasharray: 7.0,7.0;"/><polygon fill="#A80036" points="203.8926,478.7206,209.2107,470.431,204.6506,473.7784,201.3032,469.2182,203.8926,478.7206" style="stroke: #A80036; stroke-width: 1.0;"/><!--MD5=[15b500351a20fc4c9aef6172f83f2b2a]
link OrganizationsRecord to Organization--><path d="M318.4454,402.1751 C302.4425,411.166 287.0812,421.0865 273,432 C257.9776,443.643 244.5905,459.0733 233.4332,474.4371 " fill="none" id="OrganizationsRecord-&gt;Organization" style="stroke: #A80036; stroke-width: 1.0;"/><polygon fill="#A80036" points="230.346,478.7655,238.8288,473.7612,233.2495,474.6949,232.3158,469.1156,230.346,478.7655" style="stroke: #A80036; stroke-width: 1.0;"/><text fill="#000000" font-family="sans-serif" font-size="13" lengthAdjust="spacingAndGlyphs" textLength="92" x="274" y="445.0669">has registered</text><text fill="#000000" font-family="sans-serif" font-size="13" lengthAdjust="spacingAndGlyphs" textLength="8" x="298.2198" y="418.755">1</text><text fill="#000000" font-family="sans-serif" font-size="13" lengthAdjust="spacingAndGlyphs" textLength="7" x="226.8616" y="468.0714">*</text><!--MD5=[0ef8e5073de95fb7f0f924ad4fed3da9]
link OrganizationsRecord to Collaborator--><path d="M314.3747,368.0698 C198.2496,394.4264 73.4996,432.4264 39,479 C-1.0333,533.0439 28.8355,610.3165 59.1945,663.5586 " fill="none" id="OrganizationsRecord-&gt;Collaborator" style="stroke: #A80036; stroke-width: 1.0; stroke-dasharray: 7.0,7.0;"/><polygon fill="#A80036" points="61.7545,667.9909,60.7167,658.1969,59.2537,663.6612,53.7893,662.1982,61.7545,667.9909" style="stroke: #A80036; stroke-width: 1.0;"/><!--MD5=[4985805830a0763124d0742bc31f299d]
link OrganizationsRecord to Manager--><path d="M475.989,402.3516 C458.7286,425.8796 441.1338,452.6077 428,479 C398.4935,538.2933 377.9399,611.4881 365.9058,662.3588 " fill="none" id="OrganizationsRecord-&gt;Manager" style="stroke: #A80036; stroke-width: 1.0; stroke-dasharray: 7.0,7.0;"/><polygon fill="#A80036" points="364.6961,667.5196,370.6448,659.6702,365.8374,662.6516,362.8559,657.8442,364.6961,667.5196" style="stroke: #A80036; stroke-width: 1.0;"/><!--MD5=[2be4ff2a9e06800f5acb3be33084569d]
link OrganizationsRecord to Platform--><path d="M761.8057,365.7035 C916.9672,393.816 1127.9608,434.5893 1312,479 C1318.8854,480.6615 1325.8923,482.4076 1332.9591,484.2146 " fill="none" id="OrganizationsRecord-&gt;Platform" style="stroke: #A80036; stroke-width: 1.0; stroke-dasharray: 7.0,7.0;"/><polygon fill="#A80036" points="1337.8604,485.475,1330.1404,479.3593,1333.018,484.2296,1328.1477,487.1072,1337.8604,485.475" style="stroke: #A80036; stroke-width: 1.0;"/><!--MD5=[38e4da47db94f125de95f0b63b16a0a0]
link OrganizationsRecord to FacadeAuthorization--><path d="M590.3483,402.0928 C611.9085,433.0205 636.0515,467.6532 654.286,493.8103 " fill="none" id="OrganizationsRecord-&gt;FacadeAuthorization" style="stroke: #A80036; stroke-width: 1.0; stroke-dasharray: 7.0,7.0;"/><polygon fill="#A80036" points="657.1605,497.9337,655.2951,488.2631,654.3012,493.832,648.7323,492.838,657.1605,497.9337" style="stroke: #A80036; stroke-width: 1.0;"/><!--MD5=[417a8373f3b7665318c477596f7910b2]
link OrganizationsRecord to PasswordGeneratorAlgorithm--><path d="M749.9205,402.0928 C836.5219,432.7795 933.4168,467.1136 1007.0276,493.1972 " fill="none" id="OrganizationsRecord-&gt;PasswordGeneratorAlgorithm" style="stroke: #A80036; stroke-width: 1.0; stroke-dasharray: 7.0,7.0;"/><polygon fill="#A80036" points="1011.8422,494.9032,1004.6952,488.1267,1007.1294,493.2331,1002.023,495.6672,1011.8422,494.9032" style="stroke: #A80036; stroke-width: 1.0;"/><!--MD5=[45817597bcd7048073a670d966abfd17]
link Organization to Collaborator--><path d="M168.8621,591.1945 C157.1194,613.8411 143.5448,640.0208 131.5679,663.119 " fill="none" id="Organization-&gt;Collaborator" style="stroke: #A80036; stroke-width: 1.0;"/><polygon fill="#A80036" points="129.1949,667.6956,136.8887,661.547,131.4964,663.2568,129.7866,657.8645,129.1949,667.6956" style="stroke: #A80036; stroke-width: 1.0;"/><text fill="#000000" font-family="sans-serif" font-size="13" lengthAdjust="spacingAndGlyphs" textLength="23" x="153" y="634.0669">has</text><text fill="#000000" font-family="sans-serif" font-size="13" lengthAdjust="spacingAndGlyphs" textLength="8" x="156.8234" y="611.0308">1</text><text fill="#000000" font-family="sans-serif" font-size="13" lengthAdjust="spacingAndGlyphs" textLength="8" x="124.2655" y="656.993">1</text><!--MD5=[bc039f41cf0b27fadee5cae63fc6e1fe]
link Organization to Manager--><path d="M244.0854,591.1945 C262.8128,614.0299 284.4862,640.4573 303.5442,663.6958 " fill="none" id="Organization-&gt;Manager" style="stroke: #A80036; stroke-width: 1.0;"/><polygon fill="#A80036" points="306.8245,667.6956,304.2103,658.2,303.6539,663.8294,298.0245,663.273,306.8245,667.6956" style="stroke: #A80036; stroke-width: 1.0;"/><text fill="#000000" font-family="sans-serif" font-size="13" lengthAdjust="spacingAndGlyphs" textLength="23" x="282" y="634.0669">has</text><text fill="#000000" font-family="sans-serif" font-size="13" lengthAdjust="spacingAndGlyphs" textLength="8" x="241.2146" y="611.0308">1</text><text fill="#000000" font-family="sans-serif" font-size="13" lengthAdjust="spacingAndGlyphs" textLength="8" x="292.7094" y="656.993">1</text><!--MD5=[cf4d55c71814dfc94166cf56990f3285]
@startuml
skinparam classAttributeIconSize 0

class Collaborator {
  -String name
  -String email
  +Collaborator(nameM, emailM)
  +String getName()
  +String getEmail()
}

class Manager {
  -String name
  -String email
  +Manager(nameM, emailM)
  +String getName()
  +String getEmail()
}

class Organization {
  -String name
  -String NIF
  +{static} Manager newManager(nameM, emailM)
  +{static} Collaborator newCollaborator(nameC, emailC)
  +Organizacao(name, NIF, manager, collab)
}

class Platform {
  -String designation
  +OrganizationsRecord getOrganizationsRecord()
  +FacadeAuthorization getFacadeAuthorization()
  +PasswordGeneratorAlgorithm getPwdGeneratorAlgorithm()
}

class OrganizationsRecord {
  +Organization newOrganization(name, NIF, nameM, emailM, nameC, emailC)
  +validateOrganization(Organization org)
  +organizationRegister(Organization org)
  -addOrganization(Organization org)
  -RegistesManagerAsUser(Manager manager)
  -sendPwd(String emailM, String pwd)
  -RegistesCollaboratorAsUser(Collaborator collab)
  -sendPwd(String emailC, String pwd)
}

class FacadeAuthorization {
  +registesUserWithRoles(nameM, emailM, pwdM, ["MANAGER", "COLLABORATOR"])
  +registesUserWithRole(nameC, emailC, pwdC, "COLLABORATOR")
}

interface PasswordGeneratorAlgorithm <<interface>>{
   +String generatePassword(String nameM, String emailM)
   +String generatePassword(String nameC, String emailC)
}

class OrganizationRecordController {
    +newOrganization(name, NIF, nameM, emailM, nameC, emailC)
    +organizationRegister()
}

class OrganizationRecordUI {
}

OrganizationRecordUI ..> OrganizationRecordController
OrganizationRecordController ..> Platform
OrganizationRecordController ..> OrganizationsRecord
OrganizationRecordController ..> Organization

OrganizationsRecord "1" - -> "*" Organization : has registered
OrganizationsRecord ..> Collaborator
OrganizationsRecord ..> Manager
OrganizationsRecord ..> Platform
OrganizationsRecord ..> FacadeAuthorization
OrganizationsRecord ..> PasswordGeneratorAlgorithm
Organization "1" - -> "1" Collaborator: has
Organization "1" - -> "1" Manager: has
@enduml

PlantUML version 1.2019.12(Sun Nov 03 10:24:54 UTC 2019)
(GPL source distribution)
Java Runtime: OpenJDK Runtime Environment
JVM: OpenJDK 64-Bit Server VM
Java Version: 1.8.0_232-heroku-b09
Operating System: Linux
Default Encoding: UTF-8
Language: en
Country: US
--></g></svg>