<?xml version="1.0" encoding="UTF-8" standalone="no"?><svg xmlns="http://www.w3.org/2000/svg" xmlns:xlink="http://www.w3.org/1999/xlink" contentScriptType="application/ecmascript" contentStyleType="text/css" height="469px" preserveAspectRatio="none" style="width:1516px;height:469px;" version="1.1" viewBox="0 0 1516 469" width="1516px" zoomAndPan="magnify"><defs><filter height="300%" id="fbc6s0gyrfwg7" width="300%" x="-1" y="-1"><feGaussianBlur result="blurOut" stdDeviation="2.0"/><feColorMatrix in="blurOut" result="blurOut2" type="matrix" values="0 0 0 0 0 0 0 0 0 0 0 0 0 0 0 0 0 0 .4 0"/><feOffset dx="4.0" dy="4.0" in="blurOut2" result="blurOut3"/><feBlend in="SourceGraphic" in2="blurOut3" mode="normal"/></filter></defs><g><!--MD5=[99b8db98afdc2c8404e39242ef4c1e65]
class Platform--><rect fill="#FEFECE" filter="url(#fbc6s0gyrfwg7)" height="52.8047" id="Platform" style="stroke: #A80036; stroke-width: 1.5;" width="120" x="6" y="401.5"/><ellipse cx="37.2" cy="417.5" fill="#ADD1B2" rx="11" ry="11" style="stroke: #A80036; stroke-width: 1.0;"/><path d="M40.1688,423.1406 Q39.5906,423.4375 38.95,423.5859 Q38.3094,423.7344 37.6063,423.7344 Q35.1063,423.7344 33.7859,422.0859 Q32.4656,420.4375 32.4656,417.3125 Q32.4656,414.1875 33.7859,412.5313 Q35.1063,410.875 37.6063,410.875 Q38.3094,410.875 38.9578,411.0313 Q39.6063,411.1875 40.1688,411.4844 L40.1688,414.2031 Q39.5438,413.625 38.95,413.3516 Q38.3563,413.0781 37.7313,413.0781 Q36.3875,413.0781 35.7,414.1484 Q35.0125,415.2188 35.0125,417.3125 Q35.0125,419.4063 35.7,420.4766 Q36.3875,421.5469 37.7313,421.5469 Q38.3563,421.5469 38.95,421.2734 Q39.5438,421 40.1688,420.4219 L40.1688,423.1406 Z "/><text fill="#000000" font-family="sans-serif" font-size="12" lengthAdjust="spacingAndGlyphs" textLength="52" x="54.8" y="421.6543">Platform</text><line style="stroke: #A80036; stroke-width: 1.5;" x1="7" x2="125" y1="433.5" y2="433.5"/><text fill="#000000" font-family="sans-serif" font-size="11" lengthAdjust="spacingAndGlyphs" textLength="108" x="12" y="447.7104">-String designation</text><!--MD5=[86c7c362de55a38b660185a1328fe18d]
class Organization--><rect fill="#FEFECE" filter="url(#fbc6s0gyrfwg7)" height="65.6094" id="Organization" style="stroke: #A80036; stroke-width: 1.5;" width="110" x="293" y="259"/><ellipse cx="308" cy="275" fill="#ADD1B2" rx="11" ry="11" style="stroke: #A80036; stroke-width: 1.0;"/><path d="M310.9688,280.6406 Q310.3906,280.9375 309.75,281.0859 Q309.1094,281.2344 308.4063,281.2344 Q305.9063,281.2344 304.5859,279.5859 Q303.2656,277.9375 303.2656,274.8125 Q303.2656,271.6875 304.5859,270.0313 Q305.9063,268.375 308.4063,268.375 Q309.1094,268.375 309.7578,268.5313 Q310.4063,268.6875 310.9688,268.9844 L310.9688,271.7031 Q310.3438,271.125 309.75,270.8516 Q309.1563,270.5781 308.5313,270.5781 Q307.1875,270.5781 306.5,271.6484 Q305.8125,272.7188 305.8125,274.8125 Q305.8125,276.9063 306.5,277.9766 Q307.1875,279.0469 308.5313,279.0469 Q309.1563,279.0469 309.75,278.7734 Q310.3438,278.5 310.9688,277.9219 L310.9688,280.6406 Z "/><text fill="#000000" font-family="sans-serif" font-size="12" lengthAdjust="spacingAndGlyphs" textLength="78" x="322" y="279.1543">Organization</text><line style="stroke: #A80036; stroke-width: 1.5;" x1="294" x2="402" y1="291" y2="291"/><text fill="#000000" font-family="sans-serif" font-size="11" lengthAdjust="spacingAndGlyphs" textLength="74" x="299" y="305.2104">-String name</text><text fill="#000000" font-family="sans-serif" font-size="11" lengthAdjust="spacingAndGlyphs" textLength="59" x="299" y="318.0151">-String NIF</text><!--MD5=[f483d6e5de34a60207b28a5563be5e8b]
class Collaborator--><rect fill="#FEFECE" filter="url(#fbc6s0gyrfwg7)" height="65.6094" id="Collaborator" style="stroke: #A80036; stroke-width: 1.5;" width="109" x="501" y="139"/><ellipse cx="516" cy="155" fill="#ADD1B2" rx="11" ry="11" style="stroke: #A80036; stroke-width: 1.0;"/><path d="M518.9688,160.6406 Q518.3906,160.9375 517.75,161.0859 Q517.1094,161.2344 516.4063,161.2344 Q513.9063,161.2344 512.5859,159.5859 Q511.2656,157.9375 511.2656,154.8125 Q511.2656,151.6875 512.5859,150.0313 Q513.9063,148.375 516.4063,148.375 Q517.1094,148.375 517.7578,148.5313 Q518.4063,148.6875 518.9688,148.9844 L518.9688,151.7031 Q518.3438,151.125 517.75,150.8516 Q517.1563,150.5781 516.5313,150.5781 Q515.1875,150.5781 514.5,151.6484 Q513.8125,152.7188 513.8125,154.8125 Q513.8125,156.9063 514.5,157.9766 Q515.1875,159.0469 516.5313,159.0469 Q517.1563,159.0469 517.75,158.7734 Q518.3438,158.5 518.9688,157.9219 L518.9688,160.6406 Z "/><text fill="#000000" font-family="sans-serif" font-size="12" lengthAdjust="spacingAndGlyphs" textLength="77" x="530" y="159.1543">Collaborator</text><line style="stroke: #A80036; stroke-width: 1.5;" x1="502" x2="609" y1="171" y2="171"/><text fill="#000000" font-family="sans-serif" font-size="11" lengthAdjust="spacingAndGlyphs" textLength="74" x="507" y="185.2104">-String name</text><text fill="#000000" font-family="sans-serif" font-size="11" lengthAdjust="spacingAndGlyphs" textLength="73" x="507" y="198.0151">-String email</text><!--MD5=[3fd616f346a44cd59a91eb10b19e157c]
class User--><rect fill="#FEFECE" filter="url(#fbc6s0gyrfwg7)" height="65.6094" id="User" style="stroke: #A80036; stroke-width: 1.5;" width="110" x="779" y="41"/><ellipse cx="816.05" cy="57" fill="#ADD1B2" rx="11" ry="11" style="stroke: #A80036; stroke-width: 1.0;"/><path d="M819.0188,62.6406 Q818.4406,62.9375 817.8,63.0859 Q817.1594,63.2344 816.4563,63.2344 Q813.9563,63.2344 812.6359,61.5859 Q811.3156,59.9375 811.3156,56.8125 Q811.3156,53.6875 812.6359,52.0313 Q813.9563,50.375 816.4563,50.375 Q817.1594,50.375 817.8078,50.5313 Q818.4563,50.6875 819.0188,50.9844 L819.0188,53.7031 Q818.3938,53.125 817.8,52.8516 Q817.2063,52.5781 816.5813,52.5781 Q815.2375,52.5781 814.55,53.6484 Q813.8625,54.7188 813.8625,56.8125 Q813.8625,58.9063 814.55,59.9766 Q815.2375,61.0469 816.5813,61.0469 Q817.2063,61.0469 817.8,60.7734 Q818.3938,60.5 819.0188,59.9219 L819.0188,62.6406 Z "/><text fill="#000000" font-family="sans-serif" font-size="12" lengthAdjust="spacingAndGlyphs" textLength="29" x="834.95" y="61.1543">User</text><line style="stroke: #A80036; stroke-width: 1.5;" x1="780" x2="888" y1="73" y2="73"/><text fill="#000000" font-family="sans-serif" font-size="11" lengthAdjust="spacingAndGlyphs" textLength="73" x="785" y="87.2104">-String email</text><text fill="#000000" font-family="sans-serif" font-size="11" lengthAdjust="spacingAndGlyphs" textLength="98" x="785" y="100.0151">-String password</text><!--MD5=[1f687b5315377fe49fca59b457947463]
class Freelancer--><rect fill="#FEFECE" filter="url(#fbc6s0gyrfwg7)" height="142.4375" id="Freelancer" style="stroke: #A80036; stroke-width: 1.5;" width="136" x="1369" y="145"/><ellipse cx="1400.65" cy="161" fill="#ADD1B2" rx="11" ry="11" style="stroke: #A80036; stroke-width: 1.0;"/><path d="M1403.6188,166.6406 Q1403.0406,166.9375 1402.4,167.0859 Q1401.7594,167.2344 1401.0563,167.2344 Q1398.5563,167.2344 1397.2359,165.5859 Q1395.9156,163.9375 1395.9156,160.8125 Q1395.9156,157.6875 1397.2359,156.0313 Q1398.5563,154.375 1401.0563,154.375 Q1401.7594,154.375 1402.4078,154.5313 Q1403.0563,154.6875 1403.6188,154.9844 L1403.6188,157.7031 Q1402.9938,157.125 1402.4,156.8516 Q1401.8063,156.5781 1401.1813,156.5781 Q1399.8375,156.5781 1399.15,157.6484 Q1398.4625,158.7188 1398.4625,160.8125 Q1398.4625,162.9063 1399.15,163.9766 Q1399.8375,165.0469 1401.1813,165.0469 Q1401.8063,165.0469 1402.4,164.7734 Q1402.9938,164.5 1403.6188,163.9219 L1403.6188,166.6406 Z "/><text fill="#000000" font-family="sans-serif" font-size="12" lengthAdjust="spacingAndGlyphs" textLength="67" x="1418.35" y="165.1543">Freelancer</text><line style="stroke: #A80036; stroke-width: 1.5;" x1="1370" x2="1504" y1="177" y2="177"/><text fill="#000000" font-family="sans-serif" font-size="11" lengthAdjust="spacingAndGlyphs" textLength="52" x="1375" y="191.2104">-String id</text><text fill="#000000" font-family="sans-serif" font-size="11" lengthAdjust="spacingAndGlyphs" textLength="74" x="1375" y="204.0151">-String name</text><text fill="#000000" font-family="sans-serif" font-size="11" lengthAdjust="spacingAndGlyphs" textLength="124" x="1375" y="216.8198">-String expertiseLevel</text><text fill="#000000" font-family="sans-serif" font-size="11" lengthAdjust="spacingAndGlyphs" textLength="73" x="1375" y="229.6245">-String email</text><text fill="#000000" font-family="sans-serif" font-size="11" lengthAdjust="spacingAndGlyphs" textLength="59" x="1375" y="242.4292">-String NIF</text><text fill="#000000" font-family="sans-serif" font-size="11" lengthAdjust="spacingAndGlyphs" textLength="68" x="1375" y="255.2339">-String IBAN</text><text fill="#000000" font-family="sans-serif" font-size="11" lengthAdjust="spacingAndGlyphs" textLength="89" x="1375" y="268.0386">-String address</text><text fill="#000000" font-family="sans-serif" font-size="11" lengthAdjust="spacingAndGlyphs" textLength="84" x="1375" y="280.8433">-String country</text><!--MD5=[b34797a66dc35cbf1d65f7e3ca75530e]
class Task--><rect fill="#FEFECE" filter="url(#fbc6s0gyrfwg7)" height="104.0234" id="Task" style="stroke: #A80036; stroke-width: 1.5;" width="144" x="1062" y="255"/><ellipse cx="1115.25" cy="271" fill="#ADD1B2" rx="11" ry="11" style="stroke: #A80036; stroke-width: 1.0;"/><path d="M1118.2188,276.6406 Q1117.6406,276.9375 1117,277.0859 Q1116.3594,277.2344 1115.6563,277.2344 Q1113.1563,277.2344 1111.8359,275.5859 Q1110.5156,273.9375 1110.5156,270.8125 Q1110.5156,267.6875 1111.8359,266.0313 Q1113.1563,264.375 1115.6563,264.375 Q1116.3594,264.375 1117.0078,264.5313 Q1117.6563,264.6875 1118.2188,264.9844 L1118.2188,267.7031 Q1117.5938,267.125 1117,266.8516 Q1116.4063,266.5781 1115.7813,266.5781 Q1114.4375,266.5781 1113.75,267.6484 Q1113.0625,268.7188 1113.0625,270.8125 Q1113.0625,272.9063 1113.75,273.9766 Q1114.4375,275.0469 1115.7813,275.0469 Q1116.4063,275.0469 1117,274.7734 Q1117.5938,274.5 1118.2188,273.9219 L1118.2188,276.6406 Z "/><text fill="#000000" font-family="sans-serif" font-size="12" lengthAdjust="spacingAndGlyphs" textLength="29" x="1135.75" y="275.1543">Task</text><line style="stroke: #A80036; stroke-width: 1.5;" x1="1063" x2="1205" y1="287" y2="287"/><text fill="#000000" font-family="sans-serif" font-size="11" lengthAdjust="spacingAndGlyphs" textLength="52" x="1068" y="301.2104">-String id</text><text fill="#000000" font-family="sans-serif" font-size="11" lengthAdjust="spacingAndGlyphs" textLength="132" x="1068" y="314.0151">-String briefDescription</text><text fill="#000000" font-family="sans-serif" font-size="11" lengthAdjust="spacingAndGlyphs" textLength="121" x="1068" y="326.8198">-Integer timeDuration</text><text fill="#000000" font-family="sans-serif" font-size="11" lengthAdjust="spacingAndGlyphs" textLength="117" x="1068" y="339.6245">-Double costPerHour</text><text fill="#000000" font-family="sans-serif" font-size="11" lengthAdjust="spacingAndGlyphs" textLength="117" x="1068" y="352.4292">-String taskCategory</text><!--MD5=[b645a18afb25b7e5623af7186d8eb36f]
class PaymentTransaction--><rect fill="#FEFECE" filter="url(#fbc6s0gyrfwg7)" height="104.0234" id="PaymentTransaction" style="stroke: #A80036; stroke-width: 1.5;" width="184" x="742" y="142"/><ellipse cx="767.8" cy="158" fill="#ADD1B2" rx="11" ry="11" style="stroke: #A80036; stroke-width: 1.0;"/><path d="M770.7688,163.6406 Q770.1906,163.9375 769.55,164.0859 Q768.9094,164.2344 768.2063,164.2344 Q765.7063,164.2344 764.3859,162.5859 Q763.0656,160.9375 763.0656,157.8125 Q763.0656,154.6875 764.3859,153.0313 Q765.7063,151.375 768.2063,151.375 Q768.9094,151.375 769.5578,151.5313 Q770.2063,151.6875 770.7688,151.9844 L770.7688,154.7031 Q770.1438,154.125 769.55,153.8516 Q768.9563,153.5781 768.3313,153.5781 Q766.9875,153.5781 766.3,154.6484 Q765.6125,155.7188 765.6125,157.8125 Q765.6125,159.9063 766.3,160.9766 Q766.9875,162.0469 768.3313,162.0469 Q768.9563,162.0469 769.55,161.7734 Q770.1438,161.5 770.7688,160.9219 L770.7688,163.6406 Z "/><text fill="#000000" font-family="sans-serif" font-size="12" lengthAdjust="spacingAndGlyphs" textLength="128" x="784.2" y="162.1543">PaymentTransaction</text><line style="stroke: #A80036; stroke-width: 1.5;" x1="743" x2="925" y1="174" y2="174"/><text fill="#000000" font-family="sans-serif" font-size="11" lengthAdjust="spacingAndGlyphs" textLength="52" x="748" y="188.2104">-String id</text><text fill="#000000" font-family="sans-serif" font-size="11" lengthAdjust="spacingAndGlyphs" textLength="81" x="748" y="201.0151">-Date endDate</text><text fill="#000000" font-family="sans-serif" font-size="11" lengthAdjust="spacingAndGlyphs" textLength="78" x="748" y="213.8198">-Integer delay</text><text fill="#000000" font-family="sans-serif" font-size="11" lengthAdjust="spacingAndGlyphs" textLength="172" x="748" y="226.6245">-String workQualityDescription</text><text fill="#000000" font-family="sans-serif" font-size="11" lengthAdjust="spacingAndGlyphs" textLength="110" x="748" y="239.4292">-Double payAmount</text><!--MD5=[7640e466c042ba2d6f9c19c816f7f0fc]
link Platform to Organization--><path d="M121.0419,401.455 C170.5707,377.5687 242.9819,342.647 292.6158,318.7101 " fill="none" id="Platform-Organization" style="stroke: #A80036; stroke-width: 1.0;"/><text fill="#000000" font-family="sans-serif" font-size="13" lengthAdjust="spacingAndGlyphs" textLength="92" x="157" y="332.0669">has registered</text><polygon fill="#000000" points="252,326.0664,258,329.0664,252,332.0664,252,326.0664" style="stroke: #000000; stroke-width: 1.0;"/><text fill="#000000" font-family="sans-serif" font-size="13" lengthAdjust="spacingAndGlyphs" textLength="8" x="125.4834" y="390.2634">1</text><text fill="#000000" font-family="sans-serif" font-size="13" lengthAdjust="spacingAndGlyphs" textLength="7" x="278.0713" y="335.1937">*</text><!--MD5=[22697d4d863c2e08ab1d60ca0d61f844]
link Platform to Freelancer--><path d="M126.0526,437.7776 C183.0182,446.1967 271.0992,457 348,457 C348,457 348,457 1134,457 C1244.232,457 1337.5806,358.0935 1390.4383,287.0045 " fill="none" id="Platform-Freelancer" style="stroke: #A80036; stroke-width: 1.0;"/><text fill="#000000" font-family="sans-serif" font-size="13" lengthAdjust="spacingAndGlyphs" textLength="57" x="641" y="453.0669">has/uses</text><polygon fill="#000000" points="701,447.0664,707,450.0664,701,453.0664,701,447.0664" style="stroke: #000000; stroke-width: 1.0;"/><text fill="#000000" font-family="sans-serif" font-size="13" lengthAdjust="spacingAndGlyphs" textLength="8" x="133.859" y="451.9702">1</text><text fill="#000000" font-family="sans-serif" font-size="13" lengthAdjust="spacingAndGlyphs" textLength="7" x="1377.9628" y="307.6412">*</text><!--MD5=[45817597bcd7048073a670d966abfd17]
link Organization to Collaborator--><path d="M391.1373,258.842 C404.2633,249.3603 418.9424,239.3438 433,231 C454.5171,218.2287 479.2177,205.9182 500.7764,195.8765 " fill="none" id="Organization-Collaborator" style="stroke: #A80036; stroke-width: 1.0;"/><text fill="#000000" font-family="sans-serif" font-size="13" lengthAdjust="spacingAndGlyphs" textLength="23" x="434" y="208.0669">has</text><polygon fill="#000000" points="460,202.0664,466,205.0664,460,208.0664,460,202.0664" style="stroke: #000000; stroke-width: 1.0;"/><text fill="#000000" font-family="sans-serif" font-size="13" lengthAdjust="spacingAndGlyphs" textLength="8" x="390.8425" y="247.9559">1</text><text fill="#000000" font-family="sans-serif" font-size="13" lengthAdjust="spacingAndGlyphs" textLength="8" x="484.8854" y="212.1948">1</text><!--MD5=[4078351e3988aa35b1504a42837f2ab1]
link Organization to Task--><path d="M403.0831,296.8061 C479.2088,303.2126 620.9061,314.2891 742,319 C837.0434,322.6975 860.8858,320.5556 956,321 C989.7774,321.1578 998.3007,323.3019 1032,321 C1041.7189,320.3361 1051.9225,319.3204 1061.9641,318.1327 " fill="none" id="Organization-Task" style="stroke: #A80036; stroke-width: 1.0;"/><text fill="#000000" font-family="sans-serif" font-size="13" lengthAdjust="spacingAndGlyphs" textLength="23" x="658" y="311.0669">has</text><polygon fill="#000000" points="684,305.0664,690,308.0664,684,311.0664,684,305.0664" style="stroke: #000000; stroke-width: 1.0;"/><text fill="#000000" font-family="sans-serif" font-size="13" lengthAdjust="spacingAndGlyphs" textLength="8" x="411.0224" y="310.5618">1</text><text fill="#000000" font-family="sans-serif" font-size="13" lengthAdjust="spacingAndGlyphs" textLength="7" x="1047.1745" y="332.1267">*</text><!--MD5=[da2d560b3f89d8c66478284968d27dfa]
link Organization to PaymentTransaction--><path d="M403.2772,280.8536 C485.7509,264.2231 641.989,232.7183 741.899,212.5718 " fill="none" id="Organization-PaymentTransaction" style="stroke: #A80036; stroke-width: 1.0;"/><text fill="#000000" font-family="sans-serif" font-size="13" lengthAdjust="spacingAndGlyphs" textLength="23" x="537.5" y="236.0669">has</text><polygon fill="#000000" points="563.5,230.0664,569.5,233.0664,563.5,236.0664,563.5,230.0664" style="stroke: #000000; stroke-width: 1.0;"/><text fill="#000000" font-family="sans-serif" font-size="13" lengthAdjust="spacingAndGlyphs" textLength="8" x="410.8721" y="292.4868">1</text><text fill="#000000" font-family="sans-serif" font-size="13" lengthAdjust="spacingAndGlyphs" textLength="7" x="726.982" y="226.8023">*</text><!--MD5=[04ce0ecdab38a3951889ff50c232570f]
link Collaborator to User--><path d="M610.1903,152.7553 C658.981,135.5866 730.0621,110.5742 778.9592,93.368 " fill="none" id="Collaborator-User" style="stroke: #A80036; stroke-width: 1.0;"/><text fill="#000000" font-family="sans-serif" font-size="13" lengthAdjust="spacingAndGlyphs" textLength="52" x="643.5" y="114.0669">acts like</text><polygon fill="#000000" points="698.5,108.0664,704.5,111.0664,698.5,114.0664,698.5,108.0664" style="stroke: #000000; stroke-width: 1.0;"/><text fill="#000000" font-family="sans-serif" font-size="13" lengthAdjust="spacingAndGlyphs" textLength="24" x="617.9014" y="163.4945">0..1</text><text fill="#000000" font-family="sans-serif" font-size="13" lengthAdjust="spacingAndGlyphs" textLength="8" x="763.0256" y="109.0805">1</text><!--MD5=[d2c3650dbd07e79cdad2ffd4a879dec6]
link Collaborator to Freelancer--><path d="M582.5938,138.9281 C615.6084,101.6917 675.3025,43.6851 742,23 C820.1077,-1.2238 845.5517,8.314 926,23 C1091.3571,53.1863 1272.7037,134.0947 1368.6269,181.0158 " fill="none" id="Collaborator-Freelancer" style="stroke: #A80036; stroke-width: 1.0;"/><text fill="#000000" font-family="sans-serif" font-size="13" lengthAdjust="spacingAndGlyphs" textLength="41" x="967" y="26.0669">create</text><polygon fill="#000000" points="1011,20.0664,1017,23.0664,1011,26.0664,1011,20.0664" style="stroke: #000000; stroke-width: 1.0;"/><text fill="#000000" font-family="sans-serif" font-size="13" lengthAdjust="spacingAndGlyphs" textLength="8" x="579.1404" y="128.0589">1</text><text fill="#000000" font-family="sans-serif" font-size="13" lengthAdjust="spacingAndGlyphs" textLength="7" x="1354.215" y="190.2327">*</text><!--MD5=[f919d21ae7a75ef5ececc535e09d5009]
link Collaborator to Task--><path d="M599.1661,205.0567 C635.3522,230.4637 689.2255,263.8578 742,280 C849.7983,312.9725 981.766,314.6273 1061.7826,311.6571 " fill="none" id="Collaborator-Task" style="stroke: #A80036; stroke-width: 1.0;"/><text fill="#000000" font-family="sans-serif" font-size="13" lengthAdjust="spacingAndGlyphs" textLength="41" x="807" y="276.0669">create</text><polygon fill="#000000" points="851,270.0664,857,273.0664,851,276.0664,851,270.0664" style="stroke: #000000; stroke-width: 1.0;"/><text fill="#000000" font-family="sans-serif" font-size="13" lengthAdjust="spacingAndGlyphs" textLength="8" x="598.4795" y="224.6495">1</text><text fill="#000000" font-family="sans-serif" font-size="13" lengthAdjust="spacingAndGlyphs" textLength="7" x="1046.9742" y="308.4365">*</text><!--MD5=[c32d3c60a61e5638fef4971a1b3a8306]
link Collaborator to PaymentTransaction--><path d="M610.1903,176.3202 C647.6546,179.2797 698.2614,183.2774 741.8757,186.7227 " fill="none" id="Collaborator-PaymentTransaction" style="stroke: #A80036; stroke-width: 1.0;"/><text fill="#000000" font-family="sans-serif" font-size="13" lengthAdjust="spacingAndGlyphs" textLength="41" x="649" y="176.0669">create</text><polygon fill="#000000" points="693,170.0664,699,173.0664,693,176.0664,693,170.0664" style="stroke: #000000; stroke-width: 1.0;"/><text fill="#000000" font-family="sans-serif" font-size="13" lengthAdjust="spacingAndGlyphs" textLength="8" x="618.0768" y="190.0106">1</text><text fill="#000000" font-family="sans-serif" font-size="13" lengthAdjust="spacingAndGlyphs" textLength="7" x="726.9568" y="198.8126">*</text><!--MD5=[f6802b286771c18a16ea4be983074371]
link PaymentTransaction to Freelancer--><path d="M926.2391,197.3653 C1048.144,201.8129 1260.1116,209.5464 1368.6584,213.5066 " fill="none" id="PaymentTransaction-Freelancer" style="stroke: #A80036; stroke-width: 1.0;"/><text fill="#000000" font-family="sans-serif" font-size="13" lengthAdjust="spacingAndGlyphs" textLength="61" x="1097" y="199.0669">relates to</text><polygon fill="#000000" points="1161,193.0664,1167,196.0664,1161,199.0664,1161,193.0664" style="stroke: #000000; stroke-width: 1.0;"/><text fill="#000000" font-family="sans-serif" font-size="13" lengthAdjust="spacingAndGlyphs" textLength="8" x="933.9082" y="210.3024">1</text><text fill="#000000" font-family="sans-serif" font-size="13" lengthAdjust="spacingAndGlyphs" textLength="8" x="1353.1982" y="226.0741">1</text><!--MD5=[271ce7fefd7250ebaca83b70495774bd]
link PaymentTransaction to Task--><path d="M926.0487,228.6717 C969.6251,245.0855 1020.9123,264.4036 1061.6495,279.748 " fill="none" id="PaymentTransaction-Task" style="stroke: #A80036; stroke-width: 1.0;"/><text fill="#000000" font-family="sans-serif" font-size="13" lengthAdjust="spacingAndGlyphs" textLength="61" x="957" y="237.0669">relates to</text><polygon fill="#000000" points="1021,231.0664,1027,234.0664,1021,237.0664,1021,231.0664" style="stroke: #000000; stroke-width: 1.0;"/><text fill="#000000" font-family="sans-serif" font-size="13" lengthAdjust="spacingAndGlyphs" textLength="8" x="934.0027" y="244.2355">1</text><text fill="#000000" font-family="sans-serif" font-size="13" lengthAdjust="spacingAndGlyphs" textLength="8" x="1045.7759" y="289.7836">1</text><!--MD5=[8853e9d83a8841c20c4ef075af762602]
link Task to Freelancer--><path d="M1206.1911,285.3188 C1255.5527,270.4941 1320.5576,250.9711 1368.9994,236.4226 " fill="none" id="Task-Freelancer" style="stroke: #A80036; stroke-width: 1.0;"/><text fill="#000000" font-family="sans-serif" font-size="13" lengthAdjust="spacingAndGlyphs" textLength="88" x="1237" y="242.0669">is assigned to</text><polygon fill="#000000" points="1328,236.0664,1334,239.0664,1328,242.0664,1328,236.0664" style="stroke: #000000; stroke-width: 1.0;"/><text fill="#000000" font-family="sans-serif" font-size="13" lengthAdjust="spacingAndGlyphs" textLength="23" x="1213.9064" y="296.0834">1..*</text><text fill="#000000" font-family="sans-serif" font-size="13" lengthAdjust="spacingAndGlyphs" textLength="8" x="1353.1243" y="251.5269">1</text><!--MD5=[177be041d41cfff30068de7af697c55d]
@startuml
skinparam classAttributeIconSize 0
hide methods
left to right direction

class Platform {
  -String designation
}

class Organization {
  -String name
  -String NIF
}

class Collaborator {
  -String name
  -String email
}


class User {
  -String email
  -String password
}

class Freelancer {
  -String id
  -String name
  -String expertiseLevel
  -String email
  -String NIF
  -String IBAN
  -String address
  -String country
  }

class Task {
 -String id
 -String briefDescription
 -Integer timeDuration
 -Double costPerHour
 -String taskCategory
}

class PaymentTransaction{
  -String id
  -Date endDate
  -Integer delay
  -String workQualityDescription
  -Double payAmount
}

Platform "1" - - "*" Organization : has registered >
Platform "1" - - "*" Freelancer : has/uses >
Organization "1" - - "1" Collaborator: has >
Organization "1" - - "*" Task: has >
Organization "1" - - "*" PaymentTransaction: has >
Collaborator "0..1" - - "1" User: acts like >
Collaborator "1" - - "*" Freelancer: create >
Collaborator "1" - - "*" Task: create >
Collaborator "1" - - "*" PaymentTransaction: create >
PaymentTransaction "1" - - "1" Freelancer: relates to >
PaymentTransaction "1" - - "1" Task: relates to >
Task "1..*" - - "1" Freelancer: is assigned to >
@enduml

PlantUML version 1.2019.12(Sun Nov 03 10:24:54 UTC 2019)
(GPL source distribution)
Java Runtime: OpenJDK Runtime Environment
JVM: OpenJDK 64-Bit Server VM
Java Version: 1.8.0_232-heroku-b09
Operating System: Linux
Default Encoding: UTF-8
Language: en
Country: US
--></g></svg>