<?xml version="1.0" encoding="UTF-8" standalone="no"?><svg xmlns="http://www.w3.org/2000/svg" xmlns:xlink="http://www.w3.org/1999/xlink" contentScriptType="application/ecmascript" contentStyleType="text/css" height="1482px" preserveAspectRatio="none" style="width:1174px;height:1482px;" version="1.1" viewBox="0 0 1174 1482" width="1174px" zoomAndPan="magnify"><defs><filter height="300%" id="fho6j0dz7yg18" width="300%" x="-1" y="-1"><feGaussianBlur result="blurOut" stdDeviation="2.0"/><feColorMatrix in="blurOut" result="blurOut2" type="matrix" values="0 0 0 0 0 0 0 0 0 0 0 0 0 0 0 0 0 0 .4 0"/><feOffset dx="4.0" dy="4.0" in="blurOut2" result="blurOut3"/><feBlend in="SourceGraphic" in2="blurOut3" mode="normal"/></filter></defs><g><!--MD5=[52de6b799a0982f4494b9c19495c1271]
class POTApplication--><rect fill="#FEFECE" filter="url(#fho6j0dz7yg18)" height="73.6094" id="POTApplication" style="stroke: #A80036; stroke-width: 1.5;" width="136" x="6" y="283"/><ellipse cx="25.95" cy="299" fill="#ADD1B2" rx="11" ry="11" style="stroke: #A80036; stroke-width: 1.0;"/><path d="M28.9188,304.6406 Q28.3406,304.9375 27.7,305.0859 Q27.0594,305.2344 26.3563,305.2344 Q23.8563,305.2344 22.5359,303.5859 Q21.2156,301.9375 21.2156,298.8125 Q21.2156,295.6875 22.5359,294.0313 Q23.8563,292.375 26.3563,292.375 Q27.0594,292.375 27.7078,292.5313 Q28.3563,292.6875 28.9188,292.9844 L28.9188,295.7031 Q28.2938,295.125 27.7,294.8516 Q27.1063,294.5781 26.4813,294.5781 Q25.1375,294.5781 24.45,295.6484 Q23.7625,296.7188 23.7625,298.8125 Q23.7625,300.9063 24.45,301.9766 Q25.1375,303.0469 26.4813,303.0469 Q27.1063,303.0469 27.7,302.7734 Q28.2938,302.5 28.9188,301.9219 L28.9188,304.6406 Z "/><text fill="#000000" font-family="sans-serif" font-size="12" lengthAdjust="spacingAndGlyphs" textLength="93" x="41.05" y="303.1543">POTApplication</text><line style="stroke: #A80036; stroke-width: 1.5;" x1="7" x2="141" y1="315" y2="315"/><line style="stroke: #A80036; stroke-width: 1.5;" x1="7" x2="141" y1="323" y2="323"/><text fill="#000000" font-family="sans-serif" font-size="11" lengthAdjust="spacingAndGlyphs" textLength="118" x="12" y="337.2104">+static getInstance()</text><text fill="#000000" font-family="sans-serif" font-size="11" lengthAdjust="spacingAndGlyphs" textLength="124" x="12" y="350.0151">+getCurrentSession()</text><!--MD5=[c5b08e60048ef1bcd788d24cf324082e]
class UserSession--><rect fill="#FEFECE" filter="url(#fho6j0dz7yg18)" height="60.8047" id="UserSession" style="stroke: #A80036; stroke-width: 1.5;" width="110" x="177" y="289.5"/><ellipse cx="192" cy="305.5" fill="#ADD1B2" rx="11" ry="11" style="stroke: #A80036; stroke-width: 1.0;"/><path d="M194.9688,311.1406 Q194.3906,311.4375 193.75,311.5859 Q193.1094,311.7344 192.4063,311.7344 Q189.9063,311.7344 188.5859,310.0859 Q187.2656,308.4375 187.2656,305.3125 Q187.2656,302.1875 188.5859,300.5313 Q189.9063,298.875 192.4063,298.875 Q193.1094,298.875 193.7578,299.0313 Q194.4063,299.1875 194.9688,299.4844 L194.9688,302.2031 Q194.3438,301.625 193.75,301.3516 Q193.1563,301.0781 192.5313,301.0781 Q191.1875,301.0781 190.5,302.1484 Q189.8125,303.2188 189.8125,305.3125 Q189.8125,307.4063 190.5,308.4766 Q191.1875,309.5469 192.5313,309.5469 Q193.1563,309.5469 193.75,309.2734 Q194.3438,309 194.9688,308.4219 L194.9688,311.1406 Z "/><text fill="#000000" font-family="sans-serif" font-size="12" lengthAdjust="spacingAndGlyphs" textLength="78" x="206" y="309.6543">UserSession</text><line style="stroke: #A80036; stroke-width: 1.5;" x1="178" x2="286" y1="321.5" y2="321.5"/><line style="stroke: #A80036; stroke-width: 1.5;" x1="178" x2="286" y1="329.5" y2="329.5"/><text fill="#000000" font-family="sans-serif" font-size="11" lengthAdjust="spacingAndGlyphs" textLength="93" x="183" y="343.7104">+getUserEmail()</text><!--MD5=[b34797a66dc35cbf1d65f7e3ca75530e]
class Task--><rect fill="#FEFECE" filter="url(#fho6j0dz7yg18)" height="112.0234" id="Task" style="stroke: #A80036; stroke-width: 1.5;" width="144" x="751" y="1132"/><ellipse cx="804.25" cy="1148" fill="#ADD1B2" rx="11" ry="11" style="stroke: #A80036; stroke-width: 1.0;"/><path d="M807.2188,1153.6406 Q806.6406,1153.9375 806,1154.0859 Q805.3594,1154.2344 804.6563,1154.2344 Q802.1563,1154.2344 800.8359,1152.5859 Q799.5156,1150.9375 799.5156,1147.8125 Q799.5156,1144.6875 800.8359,1143.0313 Q802.1563,1141.375 804.6563,1141.375 Q805.3594,1141.375 806.0078,1141.5313 Q806.6563,1141.6875 807.2188,1141.9844 L807.2188,1144.7031 Q806.5938,1144.125 806,1143.8516 Q805.4063,1143.5781 804.7813,1143.5781 Q803.4375,1143.5781 802.75,1144.6484 Q802.0625,1145.7188 802.0625,1147.8125 Q802.0625,1149.9063 802.75,1150.9766 Q803.4375,1152.0469 804.7813,1152.0469 Q805.4063,1152.0469 806,1151.7734 Q806.5938,1151.5 807.2188,1150.9219 L807.2188,1153.6406 Z "/><text fill="#000000" font-family="sans-serif" font-size="12" lengthAdjust="spacingAndGlyphs" textLength="29" x="824.75" y="1152.1543">Task</text><line style="stroke: #A80036; stroke-width: 1.5;" x1="752" x2="894" y1="1164" y2="1164"/><text fill="#000000" font-family="sans-serif" font-size="11" lengthAdjust="spacingAndGlyphs" textLength="52" x="757" y="1178.2104">-String id</text><text fill="#000000" font-family="sans-serif" font-size="11" lengthAdjust="spacingAndGlyphs" textLength="132" x="757" y="1191.0151">-String briefDescription</text><text fill="#000000" font-family="sans-serif" font-size="11" lengthAdjust="spacingAndGlyphs" textLength="121" x="757" y="1203.8198">-Integer timeDuration</text><text fill="#000000" font-family="sans-serif" font-size="11" lengthAdjust="spacingAndGlyphs" textLength="117" x="757" y="1216.6245">-Double costPerHour</text><text fill="#000000" font-family="sans-serif" font-size="11" lengthAdjust="spacingAndGlyphs" textLength="117" x="757" y="1229.4292">-String taskCategory</text><line style="stroke: #A80036; stroke-width: 1.5;" x1="752" x2="894" y1="1236.0234" y2="1236.0234"/><!--MD5=[1f687b5315377fe49fca59b457947463]
class Freelancer--><rect fill="#FEFECE" filter="url(#fho6j0dz7yg18)" height="150.4375" id="Freelancer" style="stroke: #A80036; stroke-width: 1.5;" width="136" x="755" y="1321"/><ellipse cx="786.65" cy="1337" fill="#ADD1B2" rx="11" ry="11" style="stroke: #A80036; stroke-width: 1.0;"/><path d="M789.6188,1342.6406 Q789.0406,1342.9375 788.4,1343.0859 Q787.7594,1343.2344 787.0563,1343.2344 Q784.5563,1343.2344 783.2359,1341.5859 Q781.9156,1339.9375 781.9156,1336.8125 Q781.9156,1333.6875 783.2359,1332.0313 Q784.5563,1330.375 787.0563,1330.375 Q787.7594,1330.375 788.4078,1330.5313 Q789.0563,1330.6875 789.6188,1330.9844 L789.6188,1333.7031 Q788.9938,1333.125 788.4,1332.8516 Q787.8063,1332.5781 787.1813,1332.5781 Q785.8375,1332.5781 785.15,1333.6484 Q784.4625,1334.7188 784.4625,1336.8125 Q784.4625,1338.9063 785.15,1339.9766 Q785.8375,1341.0469 787.1813,1341.0469 Q787.8063,1341.0469 788.4,1340.7734 Q788.9938,1340.5 789.6188,1339.9219 L789.6188,1342.6406 Z "/><text fill="#000000" font-family="sans-serif" font-size="12" lengthAdjust="spacingAndGlyphs" textLength="67" x="804.35" y="1341.1543">Freelancer</text><line style="stroke: #A80036; stroke-width: 1.5;" x1="756" x2="890" y1="1353" y2="1353"/><text fill="#000000" font-family="sans-serif" font-size="11" lengthAdjust="spacingAndGlyphs" textLength="52" x="761" y="1367.2104">-String id</text><text fill="#000000" font-family="sans-serif" font-size="11" lengthAdjust="spacingAndGlyphs" textLength="74" x="761" y="1380.0151">-String name</text><text fill="#000000" font-family="sans-serif" font-size="11" lengthAdjust="spacingAndGlyphs" textLength="124" x="761" y="1392.8198">-String expertiseLevel</text><text fill="#000000" font-family="sans-serif" font-size="11" lengthAdjust="spacingAndGlyphs" textLength="73" x="761" y="1405.6245">-String email</text><text fill="#000000" font-family="sans-serif" font-size="11" lengthAdjust="spacingAndGlyphs" textLength="59" x="761" y="1418.4292">-String NIF</text><text fill="#000000" font-family="sans-serif" font-size="11" lengthAdjust="spacingAndGlyphs" textLength="68" x="761" y="1431.2339">-String IBAN</text><text fill="#000000" font-family="sans-serif" font-size="11" lengthAdjust="spacingAndGlyphs" textLength="89" x="761" y="1444.0386">-String address</text><text fill="#000000" font-family="sans-serif" font-size="11" lengthAdjust="spacingAndGlyphs" textLength="84" x="761" y="1456.8433">-String country</text><line style="stroke: #A80036; stroke-width: 1.5;" x1="756" x2="890" y1="1463.4375" y2="1463.4375"/><!--MD5=[86c7c362de55a38b660185a1328fe18d]
class Organization--><rect fill="#FEFECE" filter="url(#fho6j0dz7yg18)" height="99.2188" id="Organization" style="stroke: #A80036; stroke-width: 1.5;" width="183" x="557.5" y="578"/><ellipse cx="605.75" cy="594" fill="#ADD1B2" rx="11" ry="11" style="stroke: #A80036; stroke-width: 1.0;"/><path d="M608.7188,599.6406 Q608.1406,599.9375 607.5,600.0859 Q606.8594,600.2344 606.1563,600.2344 Q603.6563,600.2344 602.3359,598.5859 Q601.0156,596.9375 601.0156,593.8125 Q601.0156,590.6875 602.3359,589.0313 Q603.6563,587.375 606.1563,587.375 Q606.8594,587.375 607.5078,587.5313 Q608.1563,587.6875 608.7188,587.9844 L608.7188,590.7031 Q608.0938,590.125 607.5,589.8516 Q606.9063,589.5781 606.2813,589.5781 Q604.9375,589.5781 604.25,590.6484 Q603.5625,591.7188 603.5625,593.8125 Q603.5625,595.9063 604.25,596.9766 Q604.9375,598.0469 606.2813,598.0469 Q606.9063,598.0469 607.5,597.7734 Q608.0938,597.5 608.7188,596.9219 L608.7188,599.6406 Z "/><text fill="#000000" font-family="sans-serif" font-size="12" lengthAdjust="spacingAndGlyphs" textLength="78" x="626.25" y="598.1543">Organization</text><line style="stroke: #A80036; stroke-width: 1.5;" x1="558.5" x2="739.5" y1="610" y2="610"/><text fill="#000000" font-family="sans-serif" font-size="11" lengthAdjust="spacingAndGlyphs" textLength="74" x="563.5" y="624.2104">-String name</text><text fill="#000000" font-family="sans-serif" font-size="11" lengthAdjust="spacingAndGlyphs" textLength="59" x="563.5" y="637.0151">-String NIF</text><line style="stroke: #A80036; stroke-width: 1.5;" x1="558.5" x2="739.5" y1="643.6094" y2="643.6094"/><text fill="#000000" font-family="sans-serif" font-size="11" lengthAdjust="spacingAndGlyphs" textLength="89" x="563.5" y="657.8198">+getTasksList()</text><text fill="#000000" font-family="sans-serif" font-size="11" lengthAdjust="spacingAndGlyphs" textLength="171" x="563.5" y="670.6245">+getPaymentTransactionList()</text><!--MD5=[bfe5ad1e6c67e1aa0bfa76859c3b49e3]
class TasksList--><rect fill="#FEFECE" filter="url(#fho6j0dz7yg18)" height="60.8047" id="TasksList" style="stroke: #A80036; stroke-width: 1.5;" width="121" x="927.5" y="773"/><ellipse cx="956.9" cy="789" fill="#ADD1B2" rx="11" ry="11" style="stroke: #A80036; stroke-width: 1.0;"/><path d="M959.8688,794.6406 Q959.2906,794.9375 958.65,795.0859 Q958.0094,795.2344 957.3063,795.2344 Q954.8063,795.2344 953.4859,793.5859 Q952.1656,791.9375 952.1656,788.8125 Q952.1656,785.6875 953.4859,784.0313 Q954.8063,782.375 957.3063,782.375 Q958.0094,782.375 958.6578,782.5313 Q959.3063,782.6875 959.8688,782.9844 L959.8688,785.7031 Q959.2438,785.125 958.65,784.8516 Q958.0563,784.5781 957.4313,784.5781 Q956.0875,784.5781 955.4,785.6484 Q954.7125,786.7188 954.7125,788.8125 Q954.7125,790.9063 955.4,791.9766 Q956.0875,793.0469 957.4313,793.0469 Q958.0563,793.0469 958.65,792.7734 Q959.2438,792.5 959.8688,791.9219 L959.8688,794.6406 Z "/><text fill="#000000" font-family="sans-serif" font-size="12" lengthAdjust="spacingAndGlyphs" textLength="57" x="974.1" y="793.1543">TasksList</text><line style="stroke: #A80036; stroke-width: 1.5;" x1="928.5" x2="1047.5" y1="805" y2="805"/><line style="stroke: #A80036; stroke-width: 1.5;" x1="928.5" x2="1047.5" y1="813" y2="813"/><text fill="#000000" font-family="sans-serif" font-size="11" lengthAdjust="spacingAndGlyphs" textLength="109" x="933.5" y="827.2104">+taskExists(taskId)</text><!--MD5=[99b8db98afdc2c8404e39242ef4c1e65]
class Platform--><rect fill="#FEFECE" filter="url(#fho6j0dz7yg18)" height="86.4141" id="Platform" style="stroke: #A80036; stroke-width: 1.5;" width="285" x="621.5" y="277"/><ellipse cx="733.75" cy="293" fill="#ADD1B2" rx="11" ry="11" style="stroke: #A80036; stroke-width: 1.0;"/><path d="M736.7188,298.6406 Q736.1406,298.9375 735.5,299.0859 Q734.8594,299.2344 734.1563,299.2344 Q731.6563,299.2344 730.3359,297.5859 Q729.0156,295.9375 729.0156,292.8125 Q729.0156,289.6875 730.3359,288.0313 Q731.6563,286.375 734.1563,286.375 Q734.8594,286.375 735.5078,286.5313 Q736.1563,286.6875 736.7188,286.9844 L736.7188,289.7031 Q736.0938,289.125 735.5,288.8516 Q734.9063,288.5781 734.2813,288.5781 Q732.9375,288.5781 732.25,289.6484 Q731.5625,290.7188 731.5625,292.8125 Q731.5625,294.9063 732.25,295.9766 Q732.9375,297.0469 734.2813,297.0469 Q734.9063,297.0469 735.5,296.7734 Q736.0938,296.5 736.7188,295.9219 L736.7188,298.6406 Z "/><text fill="#000000" font-family="sans-serif" font-size="12" lengthAdjust="spacingAndGlyphs" textLength="52" x="754.25" y="297.1543">Platform</text><line style="stroke: #A80036; stroke-width: 1.5;" x1="622.5" x2="905.5" y1="309" y2="309"/><text fill="#000000" font-family="sans-serif" font-size="11" lengthAdjust="spacingAndGlyphs" textLength="108" x="627.5" y="323.2104">-String designation</text><line style="stroke: #A80036; stroke-width: 1.5;" x1="622.5" x2="905.5" y1="329.8047" y2="329.8047"/><text fill="#000000" font-family="sans-serif" font-size="11" lengthAdjust="spacingAndGlyphs" textLength="273" x="627.5" y="344.0151">+OrganizationsRecord getOrganizationsRecord()</text><text fill="#000000" font-family="sans-serif" font-size="11" lengthAdjust="spacingAndGlyphs" textLength="251" x="627.5" y="356.8198">+FreelancersRecord getFreelancersRecord()</text><!--MD5=[c7635c972eb61a4e069c06c1240b28a8]
class FreelancersRecord--><rect fill="#FEFECE" filter="url(#fho6j0dz7yg18)" height="60.8047" id="FreelancersRecord" style="stroke: #A80036; stroke-width: 1.5;" width="150" x="1013" y="440"/><ellipse cx="1028" cy="456" fill="#ADD1B2" rx="11" ry="11" style="stroke: #A80036; stroke-width: 1.0;"/><path d="M1030.9688,461.6406 Q1030.3906,461.9375 1029.75,462.0859 Q1029.1094,462.2344 1028.4063,462.2344 Q1025.9063,462.2344 1024.5859,460.5859 Q1023.2656,458.9375 1023.2656,455.8125 Q1023.2656,452.6875 1024.5859,451.0313 Q1025.9063,449.375 1028.4063,449.375 Q1029.1094,449.375 1029.7578,449.5313 Q1030.4063,449.6875 1030.9688,449.9844 L1030.9688,452.7031 Q1030.3438,452.125 1029.75,451.8516 Q1029.1563,451.5781 1028.5313,451.5781 Q1027.1875,451.5781 1026.5,452.6484 Q1025.8125,453.7188 1025.8125,455.8125 Q1025.8125,457.9063 1026.5,458.9766 Q1027.1875,460.0469 1028.5313,460.0469 Q1029.1563,460.0469 1029.75,459.7734 Q1030.3438,459.5 1030.9688,458.9219 L1030.9688,461.6406 Z "/><text fill="#000000" font-family="sans-serif" font-size="12" lengthAdjust="spacingAndGlyphs" textLength="118" x="1042" y="460.1543">FreelancersRecord</text><line style="stroke: #A80036; stroke-width: 1.5;" x1="1014" x2="1162" y1="472" y2="472"/><line style="stroke: #A80036; stroke-width: 1.5;" x1="1014" x2="1162" y1="480" y2="480"/><text fill="#000000" font-family="sans-serif" font-size="11" lengthAdjust="spacingAndGlyphs" textLength="131" x="1019" y="494.2104">+freelancerExists(frlId)</text><!--MD5=[759d9d4bd7fe37fb1c4b72776400893c]
class OrganizationsRecord--><rect fill="#FEFECE" filter="url(#fho6j0dz7yg18)" height="60.8047" id="OrganizationsRecord" style="stroke: #A80036; stroke-width: 1.5;" width="221" x="550.5" y="440"/><ellipse cx="592.5" cy="456" fill="#ADD1B2" rx="11" ry="11" style="stroke: #A80036; stroke-width: 1.0;"/><path d="M595.4688,461.6406 Q594.8906,461.9375 594.25,462.0859 Q593.6094,462.2344 592.9063,462.2344 Q590.4063,462.2344 589.0859,460.5859 Q587.7656,458.9375 587.7656,455.8125 Q587.7656,452.6875 589.0859,451.0313 Q590.4063,449.375 592.9063,449.375 Q593.6094,449.375 594.2578,449.5313 Q594.9063,449.6875 595.4688,449.9844 L595.4688,452.7031 Q594.8438,452.125 594.25,451.8516 Q593.6563,451.5781 593.0313,451.5781 Q591.6875,451.5781 591,452.6484 Q590.3125,453.7188 590.3125,455.8125 Q590.3125,457.9063 591,458.9766 Q591.6875,460.0469 593.0313,460.0469 Q593.6563,460.0469 594.25,459.7734 Q594.8438,459.5 595.4688,458.9219 L595.4688,461.6406 Z "/><text fill="#000000" font-family="sans-serif" font-size="12" lengthAdjust="spacingAndGlyphs" textLength="129" x="612.5" y="460.1543">OrganizationsRecord</text><line style="stroke: #A80036; stroke-width: 1.5;" x1="551.5" x2="770.5" y1="472" y2="472"/><line style="stroke: #A80036; stroke-width: 1.5;" x1="551.5" x2="770.5" y1="480" y2="480"/><text fill="#000000" font-family="sans-serif" font-size="11" lengthAdjust="spacingAndGlyphs" textLength="209" x="556.5" y="494.2104">+getOrganizationByUserEmail(email)</text><!--MD5=[9ab0068e71df7f673644752c40fe3ac4]
class CreatePaymentTransactionController--><rect fill="#FEFECE" filter="url(#fho6j0dz7yg18)" height="99.2188" id="CreatePaymentTransactionController" style="stroke: #A80036; stroke-width: 1.5;" width="591" x="201.5" y="117"/><ellipse cx="377.25" cy="133" fill="#ADD1B2" rx="11" ry="11" style="stroke: #A80036; stroke-width: 1.0;"/><path d="M380.2188,138.6406 Q379.6406,138.9375 379,139.0859 Q378.3594,139.2344 377.6563,139.2344 Q375.1563,139.2344 373.8359,137.5859 Q372.5156,135.9375 372.5156,132.8125 Q372.5156,129.6875 373.8359,128.0313 Q375.1563,126.375 377.6563,126.375 Q378.3594,126.375 379.0078,126.5313 Q379.6563,126.6875 380.2188,126.9844 L380.2188,129.7031 Q379.5938,129.125 379,128.8516 Q378.4063,128.5781 377.7813,128.5781 Q376.4375,128.5781 375.75,129.6484 Q375.0625,130.7188 375.0625,132.8125 Q375.0625,134.9063 375.75,135.9766 Q376.4375,137.0469 377.7813,137.0469 Q378.4063,137.0469 379,136.7734 Q379.5938,136.5 380.2188,135.9219 L380.2188,138.6406 Z "/><text fill="#000000" font-family="sans-serif" font-size="12" lengthAdjust="spacingAndGlyphs" textLength="231" x="397.75" y="137.1543">CreatePaymentTransactionController</text><line style="stroke: #A80036; stroke-width: 1.5;" x1="202.5" x2="791.5" y1="149" y2="149"/><line style="stroke: #A80036; stroke-width: 1.5;" x1="202.5" x2="791.5" y1="157" y2="157"/><text fill="#000000" font-family="sans-serif" font-size="11" lengthAdjust="spacingAndGlyphs" textLength="575" x="207.5" y="171.2104">+newPaymentTransaction(payTId, taskId, briefDescription, timeDuration, costPerHour, taskCategory,</text><text fill="#000000" font-family="sans-serif" font-size="11" lengthAdjust="spacingAndGlyphs" textLength="227" x="207.5" y="184.0151">endDate, delay, workQualityDescription,</text><text fill="#000000" font-family="sans-serif" font-size="11" lengthAdjust="spacingAndGlyphs" textLength="359" x="207.5" y="196.8198">frlId, name, expertiseLevel, email, NIF, IBAN, address, country)</text><text fill="#000000" font-family="sans-serif" font-size="11" lengthAdjust="spacingAndGlyphs" textLength="180" x="207.5" y="209.6245">+paymentTransactionRegister()</text><!--MD5=[e472615a113cc15971a8fcaedb5e2163]
class CreatePaymentTransactionUI--><rect fill="#FEFECE" filter="url(#fho6j0dz7yg18)" height="48" id="CreatePaymentTransactionUI" style="stroke: #A80036; stroke-width: 1.5;" width="214" x="390" y="8"/><ellipse cx="405" cy="24" fill="#ADD1B2" rx="11" ry="11" style="stroke: #A80036; stroke-width: 1.0;"/><path d="M407.9688,29.6406 Q407.3906,29.9375 406.75,30.0859 Q406.1094,30.2344 405.4063,30.2344 Q402.9063,30.2344 401.5859,28.5859 Q400.2656,26.9375 400.2656,23.8125 Q400.2656,20.6875 401.5859,19.0313 Q402.9063,17.375 405.4063,17.375 Q406.1094,17.375 406.7578,17.5313 Q407.4063,17.6875 407.9688,17.9844 L407.9688,20.7031 Q407.3438,20.125 406.75,19.8516 Q406.1563,19.5781 405.5313,19.5781 Q404.1875,19.5781 403.5,20.6484 Q402.8125,21.7188 402.8125,23.8125 Q402.8125,25.9063 403.5,26.9766 Q404.1875,28.0469 405.5313,28.0469 Q406.1563,28.0469 406.75,27.7734 Q407.3438,27.5 407.9688,26.9219 L407.9688,29.6406 Z "/><text fill="#000000" font-family="sans-serif" font-size="12" lengthAdjust="spacingAndGlyphs" textLength="182" x="419" y="28.1543">CreatePaymentTransactionUI</text><line style="stroke: #A80036; stroke-width: 1.5;" x1="391" x2="603" y1="40" y2="40"/><line style="stroke: #A80036; stroke-width: 1.5;" x1="391" x2="603" y1="48" y2="48"/><!--MD5=[b645a18afb25b7e5623af7186d8eb36f]
class PaymentTransaction--><rect fill="#FEFECE" filter="url(#fho6j0dz7yg18)" height="124.8281" id="PaymentTransaction" style="stroke: #A80036; stroke-width: 1.5;" width="476" x="415" y="930"/><ellipse cx="584.75" cy="946" fill="#ADD1B2" rx="11" ry="11" style="stroke: #A80036; stroke-width: 1.0;"/><path d="M587.7188,951.6406 Q587.1406,951.9375 586.5,952.0859 Q585.8594,952.2344 585.1563,952.2344 Q582.6563,952.2344 581.3359,950.5859 Q580.0156,948.9375 580.0156,945.8125 Q580.0156,942.6875 581.3359,941.0313 Q582.6563,939.375 585.1563,939.375 Q585.8594,939.375 586.5078,939.5313 Q587.1563,939.6875 587.7188,939.9844 L587.7188,942.7031 Q587.0938,942.125 586.5,941.8516 Q585.9063,941.5781 585.2813,941.5781 Q583.9375,941.5781 583.25,942.6484 Q582.5625,943.7188 582.5625,945.8125 Q582.5625,947.9063 583.25,948.9766 Q583.9375,950.0469 585.2813,950.0469 Q585.9063,950.0469 586.5,949.7734 Q587.0938,949.5 587.7188,948.9219 L587.7188,951.6406 Z "/><text fill="#000000" font-family="sans-serif" font-size="12" lengthAdjust="spacingAndGlyphs" textLength="128" x="605.25" y="950.1543">PaymentTransaction</text><line style="stroke: #A80036; stroke-width: 1.5;" x1="416" x2="890" y1="962" y2="962"/><text fill="#000000" font-family="sans-serif" font-size="11" lengthAdjust="spacingAndGlyphs" textLength="52" x="421" y="976.2104">-String id</text><text fill="#000000" font-family="sans-serif" font-size="11" lengthAdjust="spacingAndGlyphs" textLength="81" x="421" y="989.0151">-Date endDate</text><text fill="#000000" font-family="sans-serif" font-size="11" lengthAdjust="spacingAndGlyphs" textLength="77" x="421" y="1001.8198">-Double delay</text><text fill="#000000" font-family="sans-serif" font-size="11" lengthAdjust="spacingAndGlyphs" textLength="172" x="421" y="1014.6245">-String workQualityDescription</text><line style="stroke: #A80036; stroke-width: 1.5;" x1="416" x2="890" y1="1021.2188" y2="1021.2188"/><text fill="#000000" font-family="sans-serif" font-size="11" lengthAdjust="spacingAndGlyphs" textLength="186" x="421" y="1035.4292">+generatePayAmount(task, free)</text><text fill="#000000" font-family="sans-serif" font-size="11" lengthAdjust="spacingAndGlyphs" textLength="464" x="421" y="1048.2339">+PaymentTransaction(payTId, task, free, endDate, delay, workQualityDescription)</text><!--MD5=[ba54b1997298830925be59f10364c919]
class PaymentTransactionList--><rect fill="#FEFECE" filter="url(#fho6j0dz7yg18)" height="99.2188" id="PaymentTransactionList" style="stroke: #A80036; stroke-width: 1.5;" width="499" x="393.5" y="754"/><ellipse cx="564.25" cy="770" fill="#ADD1B2" rx="11" ry="11" style="stroke: #A80036; stroke-width: 1.0;"/><path d="M567.2188,775.6406 Q566.6406,775.9375 566,776.0859 Q565.3594,776.2344 564.6563,776.2344 Q562.1563,776.2344 560.8359,774.5859 Q559.5156,772.9375 559.5156,769.8125 Q559.5156,766.6875 560.8359,765.0313 Q562.1563,763.375 564.6563,763.375 Q565.3594,763.375 566.0078,763.5313 Q566.6563,763.6875 567.2188,763.9844 L567.2188,766.7031 Q566.5938,766.125 566,765.8516 Q565.4063,765.5781 564.7813,765.5781 Q563.4375,765.5781 562.75,766.6484 Q562.0625,767.7188 562.0625,769.8125 Q562.0625,771.9063 562.75,772.9766 Q563.4375,774.0469 564.7813,774.0469 Q565.4063,774.0469 566,773.7734 Q566.5938,773.5 567.2188,772.9219 L567.2188,775.6406 Z "/><text fill="#000000" font-family="sans-serif" font-size="12" lengthAdjust="spacingAndGlyphs" textLength="149" x="584.75" y="774.1543">PaymentTransactionList</text><line style="stroke: #A80036; stroke-width: 1.5;" x1="394.5" x2="891.5" y1="786" y2="786"/><line style="stroke: #A80036; stroke-width: 1.5;" x1="394.5" x2="891.5" y1="794" y2="794"/><text fill="#000000" font-family="sans-serif" font-size="11" lengthAdjust="spacingAndGlyphs" textLength="487" x="399.5" y="808.2104">+newPaymentTransaction(payTId, task, free, endDate, delay, workQualityDescription)</text><text fill="#000000" font-family="sans-serif" font-size="11" lengthAdjust="spacingAndGlyphs" textLength="204" x="399.5" y="821.0151">+validatePaymentTransaction(payT)</text><text fill="#000000" font-family="sans-serif" font-size="11" lengthAdjust="spacingAndGlyphs" textLength="207" x="399.5" y="833.8198">+paymentTransactionRegister(payT)</text><text fill="#000000" font-family="sans-serif" font-size="11" lengthAdjust="spacingAndGlyphs" textLength="181" x="399.5" y="846.6245">+addPaymentTransaction(payT)</text><!--MD5=[d75f8faab7003fe4f7fadde3e00b3cf7]
link CreatePaymentTransactionUI to CreatePaymentTransactionController--><path d="M497,56.0459 C497,71.4478 497,92.0929 497,111.3652 " fill="none" id="CreatePaymentTransactionUI-&gt;CreatePaymentTransactionController" style="stroke: #A80036; stroke-width: 1.0; stroke-dasharray: 7.0,7.0;"/><polygon fill="#A80036" points="497,116.759,501,107.759,497,111.759,493,107.759,497,116.759" style="stroke: #A80036; stroke-width: 1.0;"/><!--MD5=[c21c0329c000ce3a64d50b793859385d]
link CreatePaymentTransactionController to Platform--><path d="M583.3185,216.1251 C615.8472,234.826 652.6648,255.9927 684.5383,274.317 " fill="none" id="CreatePaymentTransactionController-&gt;Platform" style="stroke: #A80036; stroke-width: 1.0; stroke-dasharray: 7.0,7.0;"/><polygon fill="#A80036" points="689.204,276.9993,683.3953,269.0458,684.8693,274.5072,679.4079,275.9812,689.204,276.9993" style="stroke: #A80036; stroke-width: 1.0;"/><!--MD5=[f04e3b22971df4e8085f55a70756c755]
link CreatePaymentTransactionController to Task--><path d="M405.2182,216.0179 C370.8611,241.6596 340,276.7339 340,320 C340,320 340,320 340,992.5 C340,1137.7552 479.6705,1018.5139 741,1132 C742.7641,1132.7661 744.5301,1133.5717 746.2947,1134.4121 " fill="none" id="CreatePaymentTransactionController-&gt;Task" style="stroke: #A80036; stroke-width: 1.0; stroke-dasharray: 7.0,7.0;"/><polygon fill="#A80036" points="750.9594,1136.7141,744.6588,1129.1443,746.4756,1134.5014,741.1185,1136.3183,750.9594,1136.7141" style="stroke: #A80036; stroke-width: 1.0;"/><!--MD5=[d808bb2ca26b86ab5f675405e49fd624]
link CreatePaymentTransactionController to Organization--><path d="M492.9703,216.0644 C489.5064,283.6553 490.5247,407.0664 533,501 C545.3021,528.206 565.7458,553.495 586.0729,574.1995 " fill="none" id="CreatePaymentTransactionController-&gt;Organization" style="stroke: #A80036; stroke-width: 1.0; stroke-dasharray: 7.0,7.0;"/><polygon fill="#A80036" points="589.5979,577.7463,586.0906,568.5431,586.0732,574.1999,580.4164,574.1826,589.5979,577.7463" style="stroke: #A80036; stroke-width: 1.0;"/><!--MD5=[c3f8496c633e2f7f52d8bf9bc86aad29]
link CreatePaymentTransactionController to POTApplication--><path d="M328.4018,216.0459 C273.7167,233.5892 213.1977,254.585 159,277 C155.0457,278.6354 151.0224,280.3795 146.9844,282.1936 " fill="none" id="CreatePaymentTransactionController-&gt;POTApplication" style="stroke: #A80036; stroke-width: 1.0; stroke-dasharray: 7.0,7.0;"/><polygon fill="#A80036" points="142.2407,284.3531,152.0892,284.2646,146.7913,282.2814,148.7745,276.9836,142.2407,284.3531" style="stroke: #A80036; stroke-width: 1.0;"/><!--MD5=[044b46cd6ff48909710cb1d203e462f9]
link CreatePaymentTransactionController to UserSession--><path d="M368.2402,216.0897 C349.5246,225.0964 330.8928,235.1246 314,246 C296.6092,257.196 279.3165,272.0938 265.1264,285.5866 " fill="none" id="CreatePaymentTransactionController-&gt;UserSession" style="stroke: #A80036; stroke-width: 1.0; stroke-dasharray: 7.0,7.0;"/><polygon fill="#A80036" points="261.2088,289.3508,270.4699,285.9995,264.8142,285.8865,264.9271,280.2308,261.2088,289.3508" style="stroke: #A80036; stroke-width: 1.0;"/><!--MD5=[a5b2a848340ab19653babd02d4515d20]
link CreatePaymentTransactionController to TasksList--><path d="M785.2895,216.0104 C879.3038,240.5247 960,274.7468 960,320 C960,320 960,320 960,627.5 C960,676.6 970.7599,732.4589 978.9394,767.8287 " fill="none" id="CreatePaymentTransactionController-&gt;TasksList" style="stroke: #A80036; stroke-width: 1.0; stroke-dasharray: 7.0,7.0;"/><polygon fill="#A80036" points="980.1259,772.8953,981.9683,763.2203,978.9858,768.027,974.179,765.0445,980.1259,772.8953" style="stroke: #A80036; stroke-width: 1.0;"/><!--MD5=[546fd7e0e055f1eba4c284893e3481a0]
link CreatePaymentTransactionController to FreelancersRecord--><path d="M792.517,191.4135 C876.037,203.4305 953.1598,220.8919 986,246 C1046.9918,292.6316 1072.5866,384.1056 1082.4461,434.7079 " fill="none" id="CreatePaymentTransactionController-&gt;FreelancersRecord" style="stroke: #A80036; stroke-width: 1.0; stroke-dasharray: 7.0,7.0;"/><polygon fill="#A80036" points="1083.4071,439.7734,1085.6594,430.1855,1082.4751,434.861,1077.7996,431.6767,1083.4071,439.7734" style="stroke: #A80036; stroke-width: 1.0;"/><!--MD5=[19aba29190c83d802a073857acc5c053]
link CreatePaymentTransactionController to OrganizationsRecord--><path d="M523.7144,216.0194 C556.9969,277.7138 613.0244,381.5696 642.1455,435.5502 " fill="none" id="CreatePaymentTransactionController-&gt;OrganizationsRecord" style="stroke: #A80036; stroke-width: 1.0; stroke-dasharray: 7.0,7.0;"/><polygon fill="#A80036" points="644.5366,439.9825,643.7839,430.1624,642.1626,435.582,636.7431,433.9608,644.5366,439.9825" style="stroke: #A80036; stroke-width: 1.0;"/><!--MD5=[59ac9a6802ae404b65a1b78c8af4ba66]
link CreatePaymentTransactionController to PaymentTransactionList--><path d="M460.876,216.0852 C443.3364,244.941 426,282.8571 426,320 C426,320 426,320 426,627.5 C426,682.1274 467.9942,722.7522 515.0352,751.1226 " fill="none" id="CreatePaymentTransactionController-&gt;PaymentTransactionList" style="stroke: #A80036; stroke-width: 1.0; stroke-dasharray: 7.0,7.0;"/><polygon fill="#A80036" points="519.602,753.83,513.8998,745.7997,515.3009,751.2803,509.8203,752.6814,519.602,753.83" style="stroke: #A80036; stroke-width: 1.0;"/><!--MD5=[d77b6fe82f72fca34ebf8190bf84198d]
link Platform to FreelancersRecord--><path d="M856.8454,363.1273 C907.9175,386.8505 970.2784,415.8176 1017.3515,437.6833 " fill="none" id="Platform-&gt;FreelancersRecord" style="stroke: #A80036; stroke-width: 1.0;"/><polygon fill="#A80036" points="1022.1463,439.9105,1015.6691,432.4912,1017.6117,437.804,1012.2988,439.7466,1022.1463,439.9105" style="stroke: #A80036; stroke-width: 1.0;"/><text fill="#000000" font-family="sans-serif" font-size="13" lengthAdjust="spacingAndGlyphs" textLength="23" x="956" y="406.0669">has</text><text fill="#000000" font-family="sans-serif" font-size="13" lengthAdjust="spacingAndGlyphs" textLength="8" x="863.5604" y="383.5561">1</text><text fill="#000000" font-family="sans-serif" font-size="13" lengthAdjust="spacingAndGlyphs" textLength="8" x="999.739" y="429.1553">1</text><!--MD5=[d9ffa4e24b0f90d8cdc0d9eb36306584]
link Platform to OrganizationsRecord--><path d="M734.4843,363.1273 C718.7683,386.0909 699.6897,413.9679 684.9114,435.5615 " fill="none" id="Platform-&gt;OrganizationsRecord" style="stroke: #A80036; stroke-width: 1.0;"/><polygon fill="#A80036" points="682.0153,439.7931,690.3993,434.6251,684.8392,435.6669,683.7974,430.1068,682.0153,439.7931" style="stroke: #A80036; stroke-width: 1.0;"/><text fill="#000000" font-family="sans-serif" font-size="13" lengthAdjust="spacingAndGlyphs" textLength="23" x="714" y="406.0669">has</text><text fill="#000000" font-family="sans-serif" font-size="13" lengthAdjust="spacingAndGlyphs" textLength="8" x="720.9333" y="383.5561">1</text><text fill="#000000" font-family="sans-serif" font-size="13" lengthAdjust="spacingAndGlyphs" textLength="8" x="677.5247" y="429.0137">1</text><!--MD5=[0634d34efc8f03ad94b2231e46fef7de]
link FreelancersRecord to Freelancer--><path d="M1092.3529,501.1135 C1096.4627,532.7037 1102,583.4422 1102,627.5 C1102,627.5 1102,627.5 1102,1188 C1102,1290.776 978.8057,1348.8071 896.1416,1376.1775 " fill="none" id="FreelancersRecord-&gt;Freelancer" style="stroke: #A80036; stroke-width: 1.0;"/><polygon fill="#A80036" points="891.2511,1377.7768,901.0486,1378.7813,896.0034,1376.2227,898.562,1371.1775,891.2511,1377.7768" style="stroke: #A80036; stroke-width: 1.0;"/><text fill="#000000" font-family="sans-serif" font-size="13" lengthAdjust="spacingAndGlyphs" textLength="23" x="1103" y="896.0669">has</text><text fill="#000000" font-family="sans-serif" font-size="13" lengthAdjust="spacingAndGlyphs" textLength="8" x="1084.4257" y="521.0751">1</text><text fill="#000000" font-family="sans-serif" font-size="13" lengthAdjust="spacingAndGlyphs" textLength="7" x="899.0989" y="1372.0136">*</text><!--MD5=[15b500351a20fc4c9aef6172f83f2b2a]
link OrganizationsRecord to Organization--><path d="M658.6578,501.1439 C657.104,521.472 655.0211,548.7237 653.1874,572.7143 " fill="none" id="OrganizationsRecord-&gt;Organization" style="stroke: #A80036; stroke-width: 1.0;"/><polygon fill="#A80036" points="652.8002,577.7804,657.4746,569.1115,653.1813,572.7949,649.4979,568.5017,652.8002,577.7804" style="stroke: #A80036; stroke-width: 1.0;"/><text fill="#000000" font-family="sans-serif" font-size="13" lengthAdjust="spacingAndGlyphs" textLength="23" x="658" y="544.0669">has</text><text fill="#000000" font-family="sans-serif" font-size="13" lengthAdjust="spacingAndGlyphs" textLength="8" x="649.4092" y="520.7527">1</text><text fill="#000000" font-family="sans-serif" font-size="13" lengthAdjust="spacingAndGlyphs" textLength="7" x="645.8424" y="566.7947">*</text><!--MD5=[d15cad16830e0e3b1d195407ed1d0016]
link Organization to TasksList--><path d="M740.5914,668.7627 C791.2479,692.3593 854.908,723.2996 910,754 C918.9094,758.9648 928.2057,764.5176 937.1469,770.0599 " fill="none" id="Organization-&gt;TasksList" style="stroke: #A80036; stroke-width: 1.0;"/><polygon fill="#A80036" points="941.5044,772.7771,935.9841,764.6207,937.2617,770.1314,931.751,771.409,941.5044,772.7771" style="stroke: #A80036; stroke-width: 1.0;"/><text fill="#000000" font-family="sans-serif" font-size="13" lengthAdjust="spacingAndGlyphs" textLength="23" x="847" y="720.0669">has</text><text fill="#000000" font-family="sans-serif" font-size="13" lengthAdjust="spacingAndGlyphs" textLength="8" x="748.5076" y="668.622">1</text><text fill="#000000" font-family="sans-serif" font-size="13" lengthAdjust="spacingAndGlyphs" textLength="8" x="923.0897" y="761.9944">1</text><!--MD5=[322d55b5ad1658b7791494cedb432ac7]
link Organization to PaymentTransactionList--><path d="M647.2967,677.4638 C646.5398,699.667 645.6465,725.8705 644.871,748.6176 " fill="none" id="Organization-&gt;PaymentTransactionList" style="stroke: #A80036; stroke-width: 1.0;"/><polygon fill="#A80036" points="644.6972,753.7161,649.0016,744.8577,644.8676,748.719,641.0063,744.585,644.6972,753.7161" style="stroke: #A80036; stroke-width: 1.0;"/><text fill="#000000" font-family="sans-serif" font-size="13" lengthAdjust="spacingAndGlyphs" textLength="23" x="648" y="720.0669">has</text><text fill="#000000" font-family="sans-serif" font-size="13" lengthAdjust="spacingAndGlyphs" textLength="8" x="638.5303" y="697.2466">1</text><text fill="#000000" font-family="sans-serif" font-size="13" lengthAdjust="spacingAndGlyphs" textLength="8" x="636.3878" y="743.0797">1</text><!--MD5=[ad9e6b825fedf9daad488846d3a92887]
link PaymentTransactionList to PaymentTransaction--><path d="M645.6274,853.1575 C646.7889,875.1106 648.1728,901.2667 649.4263,924.9564 " fill="none" id="PaymentTransactionList-&gt;PaymentTransaction" style="stroke: #A80036; stroke-width: 1.0;"/><polygon fill="#A80036" points="649.6916,929.9717,653.2103,920.7729,649.4273,924.9787,645.2215,921.1957,649.6916,929.9717" style="stroke: #A80036; stroke-width: 1.0;"/><text fill="#000000" font-family="sans-serif" font-size="13" lengthAdjust="spacingAndGlyphs" textLength="23" x="649" y="896.0669">has</text><text fill="#000000" font-family="sans-serif" font-size="13" lengthAdjust="spacingAndGlyphs" textLength="8" x="637.4344" y="873.2561">1</text><text fill="#000000" font-family="sans-serif" font-size="13" lengthAdjust="spacingAndGlyphs" textLength="7" x="641.9044" y="918.9592">*</text><!--MD5=[bbdb20f51a48c3a19382c1ddd3c52d99]
link TasksList to Task--><path d="M981.1723,834.2993 C969.8155,882.7261 944.7084,978.9879 909,1055 C897.3816,1079.732 881.8243,1105.3042 867.1369,1127.3375 " fill="none" id="TasksList-&gt;Task" style="stroke: #A80036; stroke-width: 1.0;"/><polygon fill="#A80036" points="864.2124,1131.6957,872.5487,1126.4511,866.9984,1127.5438,865.9057,1121.9935,864.2124,1131.6957" style="stroke: #A80036; stroke-width: 1.0;"/><text fill="#000000" font-family="sans-serif" font-size="13" lengthAdjust="spacingAndGlyphs" textLength="23" x="956" y="997.0669">has</text><text fill="#000000" font-family="sans-serif" font-size="13" lengthAdjust="spacingAndGlyphs" textLength="8" x="971.0406" y="853.9387">1</text><text fill="#000000" font-family="sans-serif" font-size="13" lengthAdjust="spacingAndGlyphs" textLength="7" x="861.8086" y="1120.9931">*</text><!--MD5=[8853e9d83a8841c20c4ef075af762602]
link Task to Freelancer--><path d="M823,1244.0138 C823,1266.0314 823,1291.7242 823,1315.6529 " fill="none" id="Task-&gt;Freelancer" style="stroke: #A80036; stroke-width: 1.0;"/><polygon fill="#A80036" points="823,1320.7303,827,1311.7303,823,1315.7303,819,1311.7303,823,1320.7303" style="stroke: #A80036; stroke-width: 1.0;"/><text fill="#000000" font-family="sans-serif" font-size="13" lengthAdjust="spacingAndGlyphs" textLength="88" x="824" y="1287.0669">is assigned to</text><text fill="#000000" font-family="sans-serif" font-size="13" lengthAdjust="spacingAndGlyphs" textLength="23" x="798.5266" y="1264.2254">1..*</text><text fill="#000000" font-family="sans-serif" font-size="13" lengthAdjust="spacingAndGlyphs" textLength="8" x="814.6188" y="1309.8937">1</text><!--MD5=[f6802b286771c18a16ea4be983074371]
link PaymentTransaction to Freelancer--><path d="M645.3325,1055.1688 C641.5927,1107.9445 642.7038,1184.1798 670,1244 C687.7763,1282.9571 720.205,1317.4424 750.6467,1343.6765 " fill="none" id="PaymentTransaction-&gt;Freelancer" style="stroke: #A80036; stroke-width: 1.0;"/><polygon fill="#A80036" points="754.7335,1347.1598,750.4786,1338.2775,750.9282,1343.9164,745.2892,1344.366,754.7335,1347.1598" style="stroke: #A80036; stroke-width: 1.0;"/><text fill="#000000" font-family="sans-serif" font-size="13" lengthAdjust="spacingAndGlyphs" textLength="61" x="671" y="1192.5669">relates to</text><text fill="#000000" font-family="sans-serif" font-size="13" lengthAdjust="spacingAndGlyphs" textLength="8" x="636.0564" y="1074.9271">1</text><text fill="#000000" font-family="sans-serif" font-size="13" lengthAdjust="spacingAndGlyphs" textLength="8" x="738.8294" y="1338.0478">1</text><!--MD5=[271ce7fefd7250ebaca83b70495774bd]
link PaymentTransaction to Task--><path d="M707.4905,1055.1641 C727.7798,1078.4968 750.7431,1104.9046 770.8202,1127.9932 " fill="none" id="PaymentTransaction-&gt;Task" style="stroke: #A80036; stroke-width: 1.0;"/><polygon fill="#A80036" points="774.2746,1131.9658,771.3872,1122.5497,770.9936,1128.1928,765.3505,1127.7992,774.2746,1131.9658" style="stroke: #A80036; stroke-width: 1.0;"/><text fill="#000000" font-family="sans-serif" font-size="13" lengthAdjust="spacingAndGlyphs" textLength="61" x="750" y="1098.0669">relates to</text><text fill="#000000" font-family="sans-serif" font-size="13" lengthAdjust="spacingAndGlyphs" textLength="8" x="705.0129" y="1074.9219">1</text><text fill="#000000" font-family="sans-serif" font-size="13" lengthAdjust="spacingAndGlyphs" textLength="8" x="759.5192" y="1120.8994">1</text><!--MD5=[776d5124f2785696fedc62e2b5622552]
@startuml
skinparam classAttributeIconSize 0

class POTApplication
{
  +static getInstance()
  +getCurrentSession()
}

class UserSession
{
  +getUserEmail()
}

class Task {
  -String id
  -String briefDescription
  -Integer timeDuration
  -Double costPerHour
  -String taskCategory
}

class Freelancer {
  -String id
  -String name
  -String expertiseLevel
  -String email
  -String NIF
  -String IBAN
  -String address
  -String country
}

class Organization {
  -String name
  -String NIF
  +getTasksList()
  +getPaymentTransactionList()
  
}

class TasksList {
  +taskExists(taskId)
}

class Platform {
  -String designation
  +OrganizationsRecord getOrganizationsRecord()
  +FreelancersRecord getFreelancersRecord()
}

class FreelancersRecord {
  +freelancerExists(frlId)
}

class OrganizationsRecord  {
  +getOrganizationByUserEmail(email)
}

class CreatePaymentTransactionController {
  +newPaymentTransaction(payTId, taskId, briefDescription, timeDuration, costPerHour, taskCategory, \nendDate, delay, workQualityDescription, \nfrlId, name, expertiseLevel, email, NIF, IBAN, address, country)
  +paymentTransactionRegister()
}

class CreatePaymentTransactionUI {
}

class PaymentTransaction{
  -String id
  -Date endDate
  -Double delay
  -String workQualityDescription
  +generatePayAmount(task, free)
  +PaymentTransaction(payTId, task, free, endDate, delay, workQualityDescription)
}

class PaymentTransactionList{
  +newPaymentTransaction(payTId, task, free, endDate, delay, workQualityDescription)
  +validatePaymentTransaction(payT)
  +paymentTransactionRegister(payT)
  +addPaymentTransaction(payT)
}

CreatePaymentTransactionUI ..> CreatePaymentTransactionController
CreatePaymentTransactionController ..> Platform
CreatePaymentTransactionController ..> Task
CreatePaymentTransactionController ..> Organization
CreatePaymentTransactionController ..> POTApplication
CreatePaymentTransactionController ..> UserSession
CreatePaymentTransactionController ..> TasksList
CreatePaymentTransactionController ..> FreelancersRecord
CreatePaymentTransactionController ..> OrganizationsRecord
CreatePaymentTransactionController ..> PaymentTransactionList
Platform "1" - -> "1" FreelancersRecord : has
Platform "1" - -> "1" OrganizationsRecord : has

FreelancersRecord "1" - -> "*" Freelancer : has
OrganizationsRecord "1" - -> "*" Organization : has
Organization "1" - -> "1" TasksList : has
Organization "1" - -> "1" PaymentTransactionList : has
PaymentTransactionList "1" - -> "*" PaymentTransaction : has
TasksList "1" - -> "*" Task : has
Task "1..*" - -> "1" Freelancer : is assigned to

PaymentTransaction "1" - -> "1" Freelancer : relates to
PaymentTransaction "1" - -> "1" Task : relates to
@enduml

PlantUML version 1.2019.12(Sun Nov 03 10:24:54 UTC 2019)
(GPL source distribution)
Java Runtime: OpenJDK Runtime Environment
JVM: OpenJDK 64-Bit Server VM
Java Version: 1.8.0_232-heroku-b09
Operating System: Linux
Default Encoding: UTF-8
Language: en
Country: US
--></g></svg>