<?xml version="1.0" encoding="UTF-8" standalone="no"?><svg xmlns="http://www.w3.org/2000/svg" xmlns:xlink="http://www.w3.org/1999/xlink" contentScriptType="application/ecmascript" contentStyleType="text/css" height="1445px" preserveAspectRatio="none" style="width:1323px;height:1445px;" version="1.1" viewBox="0 0 1323 1445" width="1323px" zoomAndPan="magnify"><defs><filter height="300%" id="f1ok45yp92idjn" width="300%" x="-1" y="-1"><feGaussianBlur result="blurOut" stdDeviation="2.0"/><feColorMatrix in="blurOut" result="blurOut2" type="matrix" values="0 0 0 0 0 0 0 0 0 0 0 0 0 0 0 0 0 0 .4 0"/><feOffset dx="4.0" dy="4.0" in="blurOut2" result="blurOut3"/><feBlend in="SourceGraphic" in2="blurOut3" mode="normal"/></filter></defs><g><!--MD5=[52de6b799a0982f4494b9c19495c1271]
class POTApplication--><rect fill="#FEFECE" filter="url(#f1ok45yp92idjn)" height="73.6094" id="POTApplication" style="stroke: #A80036; stroke-width: 1.5;" width="136" x="6" y="252"/><ellipse cx="25.95" cy="268" fill="#ADD1B2" rx="11" ry="11" style="stroke: #A80036; stroke-width: 1.0;"/><path d="M28.9188,273.6406 Q28.3406,273.9375 27.7,274.0859 Q27.0594,274.2344 26.3563,274.2344 Q23.8563,274.2344 22.5359,272.5859 Q21.2156,270.9375 21.2156,267.8125 Q21.2156,264.6875 22.5359,263.0313 Q23.8563,261.375 26.3563,261.375 Q27.0594,261.375 27.7078,261.5313 Q28.3563,261.6875 28.9188,261.9844 L28.9188,264.7031 Q28.2938,264.125 27.7,263.8516 Q27.1063,263.5781 26.4813,263.5781 Q25.1375,263.5781 24.45,264.6484 Q23.7625,265.7188 23.7625,267.8125 Q23.7625,269.9063 24.45,270.9766 Q25.1375,272.0469 26.4813,272.0469 Q27.1063,272.0469 27.7,271.7734 Q28.2938,271.5 28.9188,270.9219 L28.9188,273.6406 Z "/><text fill="#000000" font-family="sans-serif" font-size="12" lengthAdjust="spacingAndGlyphs" textLength="93" x="41.05" y="272.1543">POTApplication</text><line style="stroke: #A80036; stroke-width: 1.5;" x1="7" x2="141" y1="284" y2="284"/><line style="stroke: #A80036; stroke-width: 1.5;" x1="7" x2="141" y1="292" y2="292"/><text fill="#000000" font-family="sans-serif" font-size="11" lengthAdjust="spacingAndGlyphs" textLength="118" x="12" y="306.2104">+static getInstance()</text><text fill="#000000" font-family="sans-serif" font-size="11" lengthAdjust="spacingAndGlyphs" textLength="124" x="12" y="319.0151">+getCurrentSession()</text><!--MD5=[c5b08e60048ef1bcd788d24cf324082e]
class UserSession--><rect fill="#FEFECE" filter="url(#f1ok45yp92idjn)" height="60.8047" id="UserSession" style="stroke: #A80036; stroke-width: 1.5;" width="110" x="177" y="258.5"/><ellipse cx="192" cy="274.5" fill="#ADD1B2" rx="11" ry="11" style="stroke: #A80036; stroke-width: 1.0;"/><path d="M194.9688,280.1406 Q194.3906,280.4375 193.75,280.5859 Q193.1094,280.7344 192.4063,280.7344 Q189.9063,280.7344 188.5859,279.0859 Q187.2656,277.4375 187.2656,274.3125 Q187.2656,271.1875 188.5859,269.5313 Q189.9063,267.875 192.4063,267.875 Q193.1094,267.875 193.7578,268.0313 Q194.4063,268.1875 194.9688,268.4844 L194.9688,271.2031 Q194.3438,270.625 193.75,270.3516 Q193.1563,270.0781 192.5313,270.0781 Q191.1875,270.0781 190.5,271.1484 Q189.8125,272.2188 189.8125,274.3125 Q189.8125,276.4063 190.5,277.4766 Q191.1875,278.5469 192.5313,278.5469 Q193.1563,278.5469 193.75,278.2734 Q194.3438,278 194.9688,277.4219 L194.9688,280.1406 Z "/><text fill="#000000" font-family="sans-serif" font-size="12" lengthAdjust="spacingAndGlyphs" textLength="78" x="206" y="278.6543">UserSession</text><line style="stroke: #A80036; stroke-width: 1.5;" x1="178" x2="286" y1="290.5" y2="290.5"/><line style="stroke: #A80036; stroke-width: 1.5;" x1="178" x2="286" y1="298.5" y2="298.5"/><text fill="#000000" font-family="sans-serif" font-size="11" lengthAdjust="spacingAndGlyphs" textLength="93" x="183" y="312.7104">+getUserEmail()</text><!--MD5=[b34797a66dc35cbf1d65f7e3ca75530e]
class Task--><rect fill="#FEFECE" filter="url(#f1ok45yp92idjn)" height="112.0234" id="Task" style="stroke: #A80036; stroke-width: 1.5;" width="144" x="759" y="1095"/><ellipse cx="812.25" cy="1111" fill="#ADD1B2" rx="11" ry="11" style="stroke: #A80036; stroke-width: 1.0;"/><path d="M815.2188,1116.6406 Q814.6406,1116.9375 814,1117.0859 Q813.3594,1117.2344 812.6563,1117.2344 Q810.1563,1117.2344 808.8359,1115.5859 Q807.5156,1113.9375 807.5156,1110.8125 Q807.5156,1107.6875 808.8359,1106.0313 Q810.1563,1104.375 812.6563,1104.375 Q813.3594,1104.375 814.0078,1104.5313 Q814.6563,1104.6875 815.2188,1104.9844 L815.2188,1107.7031 Q814.5938,1107.125 814,1106.8516 Q813.4063,1106.5781 812.7813,1106.5781 Q811.4375,1106.5781 810.75,1107.6484 Q810.0625,1108.7188 810.0625,1110.8125 Q810.0625,1112.9063 810.75,1113.9766 Q811.4375,1115.0469 812.7813,1115.0469 Q813.4063,1115.0469 814,1114.7734 Q814.5938,1114.5 815.2188,1113.9219 L815.2188,1116.6406 Z "/><text fill="#000000" font-family="sans-serif" font-size="12" lengthAdjust="spacingAndGlyphs" textLength="29" x="832.75" y="1115.1543">Task</text><line style="stroke: #A80036; stroke-width: 1.5;" x1="760" x2="902" y1="1127" y2="1127"/><text fill="#000000" font-family="sans-serif" font-size="11" lengthAdjust="spacingAndGlyphs" textLength="52" x="765" y="1141.2104">-String id</text><text fill="#000000" font-family="sans-serif" font-size="11" lengthAdjust="spacingAndGlyphs" textLength="132" x="765" y="1154.0151">-String briefDescription</text><text fill="#000000" font-family="sans-serif" font-size="11" lengthAdjust="spacingAndGlyphs" textLength="121" x="765" y="1166.8198">-Integer timeDuration</text><text fill="#000000" font-family="sans-serif" font-size="11" lengthAdjust="spacingAndGlyphs" textLength="117" x="765" y="1179.6245">-Double costPerHour</text><text fill="#000000" font-family="sans-serif" font-size="11" lengthAdjust="spacingAndGlyphs" textLength="117" x="765" y="1192.4292">-String taskCategory</text><line style="stroke: #A80036; stroke-width: 1.5;" x1="760" x2="902" y1="1199.0234" y2="1199.0234"/><!--MD5=[1f687b5315377fe49fca59b457947463]
class Freelancer--><rect fill="#FEFECE" filter="url(#f1ok45yp92idjn)" height="150.4375" id="Freelancer" style="stroke: #A80036; stroke-width: 1.5;" width="136" x="763" y="1284"/><ellipse cx="794.65" cy="1300" fill="#ADD1B2" rx="11" ry="11" style="stroke: #A80036; stroke-width: 1.0;"/><path d="M797.6188,1305.6406 Q797.0406,1305.9375 796.4,1306.0859 Q795.7594,1306.2344 795.0563,1306.2344 Q792.5563,1306.2344 791.2359,1304.5859 Q789.9156,1302.9375 789.9156,1299.8125 Q789.9156,1296.6875 791.2359,1295.0313 Q792.5563,1293.375 795.0563,1293.375 Q795.7594,1293.375 796.4078,1293.5313 Q797.0563,1293.6875 797.6188,1293.9844 L797.6188,1296.7031 Q796.9938,1296.125 796.4,1295.8516 Q795.8063,1295.5781 795.1813,1295.5781 Q793.8375,1295.5781 793.15,1296.6484 Q792.4625,1297.7188 792.4625,1299.8125 Q792.4625,1301.9063 793.15,1302.9766 Q793.8375,1304.0469 795.1813,1304.0469 Q795.8063,1304.0469 796.4,1303.7734 Q796.9938,1303.5 797.6188,1302.9219 L797.6188,1305.6406 Z "/><text fill="#000000" font-family="sans-serif" font-size="12" lengthAdjust="spacingAndGlyphs" textLength="67" x="812.35" y="1304.1543">Freelancer</text><line style="stroke: #A80036; stroke-width: 1.5;" x1="764" x2="898" y1="1316" y2="1316"/><text fill="#000000" font-family="sans-serif" font-size="11" lengthAdjust="spacingAndGlyphs" textLength="52" x="769" y="1330.2104">-String id</text><text fill="#000000" font-family="sans-serif" font-size="11" lengthAdjust="spacingAndGlyphs" textLength="74" x="769" y="1343.0151">-String name</text><text fill="#000000" font-family="sans-serif" font-size="11" lengthAdjust="spacingAndGlyphs" textLength="124" x="769" y="1355.8198">-String expertiseLevel</text><text fill="#000000" font-family="sans-serif" font-size="11" lengthAdjust="spacingAndGlyphs" textLength="73" x="769" y="1368.6245">-String email</text><text fill="#000000" font-family="sans-serif" font-size="11" lengthAdjust="spacingAndGlyphs" textLength="59" x="769" y="1381.4292">-String NIF</text><text fill="#000000" font-family="sans-serif" font-size="11" lengthAdjust="spacingAndGlyphs" textLength="68" x="769" y="1394.2339">-String IBAN</text><text fill="#000000" font-family="sans-serif" font-size="11" lengthAdjust="spacingAndGlyphs" textLength="89" x="769" y="1407.0386">-String address</text><text fill="#000000" font-family="sans-serif" font-size="11" lengthAdjust="spacingAndGlyphs" textLength="84" x="769" y="1419.8433">-String country</text><line style="stroke: #A80036; stroke-width: 1.5;" x1="764" x2="898" y1="1426.4375" y2="1426.4375"/><!--MD5=[86c7c362de55a38b660185a1328fe18d]
class Organization--><rect fill="#FEFECE" filter="url(#f1ok45yp92idjn)" height="86.4141" id="Organization" style="stroke: #A80036; stroke-width: 1.5;" width="183" x="567.5" y="541"/><ellipse cx="615.75" cy="557" fill="#ADD1B2" rx="11" ry="11" style="stroke: #A80036; stroke-width: 1.0;"/><path d="M618.7188,562.6406 Q618.1406,562.9375 617.5,563.0859 Q616.8594,563.2344 616.1563,563.2344 Q613.6563,563.2344 612.3359,561.5859 Q611.0156,559.9375 611.0156,556.8125 Q611.0156,553.6875 612.3359,552.0313 Q613.6563,550.375 616.1563,550.375 Q616.8594,550.375 617.5078,550.5313 Q618.1563,550.6875 618.7188,550.9844 L618.7188,553.7031 Q618.0938,553.125 617.5,552.8516 Q616.9063,552.5781 616.2813,552.5781 Q614.9375,552.5781 614.25,553.6484 Q613.5625,554.7188 613.5625,556.8125 Q613.5625,558.9063 614.25,559.9766 Q614.9375,561.0469 616.2813,561.0469 Q616.9063,561.0469 617.5,560.7734 Q618.0938,560.5 618.7188,559.9219 L618.7188,562.6406 Z "/><text fill="#000000" font-family="sans-serif" font-size="12" lengthAdjust="spacingAndGlyphs" textLength="78" x="636.25" y="561.1543">Organization</text><line style="stroke: #A80036; stroke-width: 1.5;" x1="568.5" x2="749.5" y1="573" y2="573"/><text fill="#000000" font-family="sans-serif" font-size="11" lengthAdjust="spacingAndGlyphs" textLength="74" x="573.5" y="587.2104">-String name</text><text fill="#000000" font-family="sans-serif" font-size="11" lengthAdjust="spacingAndGlyphs" textLength="59" x="573.5" y="600.0151">-String NIF</text><line style="stroke: #A80036; stroke-width: 1.5;" x1="568.5" x2="749.5" y1="606.6094" y2="606.6094"/><text fill="#000000" font-family="sans-serif" font-size="11" lengthAdjust="spacingAndGlyphs" textLength="171" x="573.5" y="620.8198">+getPaymentTransactionList()</text><!--MD5=[cf2635f8a68afd84898027166f4516bc]
class TaskList--><rect fill="#FEFECE" filter="url(#f1ok45yp92idjn)" height="48" id="TaskList" style="stroke: #A80036; stroke-width: 1.5;" width="82" x="954" y="729.5"/><ellipse cx="969" cy="745.5" fill="#ADD1B2" rx="11" ry="11" style="stroke: #A80036; stroke-width: 1.0;"/><path d="M971.9688,751.1406 Q971.3906,751.4375 970.75,751.5859 Q970.1094,751.7344 969.4063,751.7344 Q966.9063,751.7344 965.5859,750.0859 Q964.2656,748.4375 964.2656,745.3125 Q964.2656,742.1875 965.5859,740.5313 Q966.9063,738.875 969.4063,738.875 Q970.1094,738.875 970.7578,739.0313 Q971.4063,739.1875 971.9688,739.4844 L971.9688,742.2031 Q971.3438,741.625 970.75,741.3516 Q970.1563,741.0781 969.5313,741.0781 Q968.1875,741.0781 967.5,742.1484 Q966.8125,743.2188 966.8125,745.3125 Q966.8125,747.4063 967.5,748.4766 Q968.1875,749.5469 969.5313,749.5469 Q970.1563,749.5469 970.75,749.2734 Q971.3438,749 971.9688,748.4219 L971.9688,751.1406 Z "/><text fill="#000000" font-family="sans-serif" font-size="12" lengthAdjust="spacingAndGlyphs" textLength="50" x="983" y="749.6543">TaskList</text><line style="stroke: #A80036; stroke-width: 1.5;" x1="955" x2="1035" y1="761.5" y2="761.5"/><line style="stroke: #A80036; stroke-width: 1.5;" x1="955" x2="1035" y1="769.5" y2="769.5"/><!--MD5=[99b8db98afdc2c8404e39242ef4c1e65]
class Platform--><rect fill="#FEFECE" filter="url(#f1ok45yp92idjn)" height="73.6094" id="Platform" style="stroke: #A80036; stroke-width: 1.5;" width="285" x="742.5" y="252"/><ellipse cx="854.75" cy="268" fill="#ADD1B2" rx="11" ry="11" style="stroke: #A80036; stroke-width: 1.0;"/><path d="M857.7188,273.6406 Q857.1406,273.9375 856.5,274.0859 Q855.8594,274.2344 855.1563,274.2344 Q852.6563,274.2344 851.3359,272.5859 Q850.0156,270.9375 850.0156,267.8125 Q850.0156,264.6875 851.3359,263.0313 Q852.6563,261.375 855.1563,261.375 Q855.8594,261.375 856.5078,261.5313 Q857.1563,261.6875 857.7188,261.9844 L857.7188,264.7031 Q857.0938,264.125 856.5,263.8516 Q855.9063,263.5781 855.2813,263.5781 Q853.9375,263.5781 853.25,264.6484 Q852.5625,265.7188 852.5625,267.8125 Q852.5625,269.9063 853.25,270.9766 Q853.9375,272.0469 855.2813,272.0469 Q855.9063,272.0469 856.5,271.7734 Q857.0938,271.5 857.7188,270.9219 L857.7188,273.6406 Z "/><text fill="#000000" font-family="sans-serif" font-size="12" lengthAdjust="spacingAndGlyphs" textLength="52" x="875.25" y="272.1543">Platform</text><line style="stroke: #A80036; stroke-width: 1.5;" x1="743.5" x2="1026.5" y1="284" y2="284"/><text fill="#000000" font-family="sans-serif" font-size="11" lengthAdjust="spacingAndGlyphs" textLength="108" x="748.5" y="298.2104">-String designation</text><line style="stroke: #A80036; stroke-width: 1.5;" x1="743.5" x2="1026.5" y1="304.8047" y2="304.8047"/><text fill="#000000" font-family="sans-serif" font-size="11" lengthAdjust="spacingAndGlyphs" textLength="273" x="748.5" y="319.0151">+OrganizationsRecord getOrganizationsRecord()</text><!--MD5=[c7635c972eb61a4e069c06c1240b28a8]
class FreelancersRecord--><rect fill="#FEFECE" filter="url(#f1ok45yp92idjn)" height="48" id="FreelancersRecord" style="stroke: #A80036; stroke-width: 1.5;" width="150" x="1006" y="409.5"/><ellipse cx="1021" cy="425.5" fill="#ADD1B2" rx="11" ry="11" style="stroke: #A80036; stroke-width: 1.0;"/><path d="M1023.9688,431.1406 Q1023.3906,431.4375 1022.75,431.5859 Q1022.1094,431.7344 1021.4063,431.7344 Q1018.9063,431.7344 1017.5859,430.0859 Q1016.2656,428.4375 1016.2656,425.3125 Q1016.2656,422.1875 1017.5859,420.5313 Q1018.9063,418.875 1021.4063,418.875 Q1022.1094,418.875 1022.7578,419.0313 Q1023.4063,419.1875 1023.9688,419.4844 L1023.9688,422.2031 Q1023.3438,421.625 1022.75,421.3516 Q1022.1563,421.0781 1021.5313,421.0781 Q1020.1875,421.0781 1019.5,422.1484 Q1018.8125,423.2188 1018.8125,425.3125 Q1018.8125,427.4063 1019.5,428.4766 Q1020.1875,429.5469 1021.5313,429.5469 Q1022.1563,429.5469 1022.75,429.2734 Q1023.3438,429 1023.9688,428.4219 L1023.9688,431.1406 Z "/><text fill="#000000" font-family="sans-serif" font-size="12" lengthAdjust="spacingAndGlyphs" textLength="118" x="1035" y="429.6543">FreelancersRecord</text><line style="stroke: #A80036; stroke-width: 1.5;" x1="1007" x2="1155" y1="441.5" y2="441.5"/><line style="stroke: #A80036; stroke-width: 1.5;" x1="1007" x2="1155" y1="449.5" y2="449.5"/><!--MD5=[759d9d4bd7fe37fb1c4b72776400893c]
class OrganizationsRecord--><rect fill="#FEFECE" filter="url(#f1ok45yp92idjn)" height="60.8047" id="OrganizationsRecord" style="stroke: #A80036; stroke-width: 1.5;" width="221" x="568.5" y="403"/><ellipse cx="610.5" cy="419" fill="#ADD1B2" rx="11" ry="11" style="stroke: #A80036; stroke-width: 1.0;"/><path d="M613.4688,424.6406 Q612.8906,424.9375 612.25,425.0859 Q611.6094,425.2344 610.9063,425.2344 Q608.4063,425.2344 607.0859,423.5859 Q605.7656,421.9375 605.7656,418.8125 Q605.7656,415.6875 607.0859,414.0313 Q608.4063,412.375 610.9063,412.375 Q611.6094,412.375 612.2578,412.5313 Q612.9063,412.6875 613.4688,412.9844 L613.4688,415.7031 Q612.8438,415.125 612.25,414.8516 Q611.6563,414.5781 611.0313,414.5781 Q609.6875,414.5781 609,415.6484 Q608.3125,416.7188 608.3125,418.8125 Q608.3125,420.9063 609,421.9766 Q609.6875,423.0469 611.0313,423.0469 Q611.6563,423.0469 612.25,422.7734 Q612.8438,422.5 613.4688,421.9219 L613.4688,424.6406 Z "/><text fill="#000000" font-family="sans-serif" font-size="12" lengthAdjust="spacingAndGlyphs" textLength="129" x="630.5" y="423.1543">OrganizationsRecord</text><line style="stroke: #A80036; stroke-width: 1.5;" x1="569.5" x2="788.5" y1="435" y2="435"/><line style="stroke: #A80036; stroke-width: 1.5;" x1="569.5" x2="788.5" y1="443" y2="443"/><text fill="#000000" font-family="sans-serif" font-size="11" lengthAdjust="spacingAndGlyphs" textLength="209" x="574.5" y="457.2104">+getOrganizationByUserEmail(email)</text><!--MD5=[9ab0068e71df7f673644752c40fe3ac4]
class CreatePaymentTransactionController--><rect fill="#FEFECE" filter="url(#f1ok45yp92idjn)" height="73.6094" id="CreatePaymentTransactionController" style="stroke: #A80036; stroke-width: 1.5;" width="588" x="272" y="117"/><ellipse cx="446.25" cy="133" fill="#ADD1B2" rx="11" ry="11" style="stroke: #A80036; stroke-width: 1.0;"/><path d="M449.2188,138.6406 Q448.6406,138.9375 448,139.0859 Q447.3594,139.2344 446.6563,139.2344 Q444.1563,139.2344 442.8359,137.5859 Q441.5156,135.9375 441.5156,132.8125 Q441.5156,129.6875 442.8359,128.0313 Q444.1563,126.375 446.6563,126.375 Q447.3594,126.375 448.0078,126.5313 Q448.6563,126.6875 449.2188,126.9844 L449.2188,129.7031 Q448.5938,129.125 448,128.8516 Q447.4063,128.5781 446.7813,128.5781 Q445.4375,128.5781 444.75,129.6484 Q444.0625,130.7188 444.0625,132.8125 Q444.0625,134.9063 444.75,135.9766 Q445.4375,137.0469 446.7813,137.0469 Q447.4063,137.0469 448,136.7734 Q448.5938,136.5 449.2188,135.9219 L449.2188,138.6406 Z "/><text fill="#000000" font-family="sans-serif" font-size="12" lengthAdjust="spacingAndGlyphs" textLength="231" x="466.75" y="137.1543">CreatePaymentTransactionController</text><line style="stroke: #A80036; stroke-width: 1.5;" x1="273" x2="859" y1="149" y2="149"/><line style="stroke: #A80036; stroke-width: 1.5;" x1="273" x2="859" y1="157" y2="157"/><text fill="#000000" font-family="sans-serif" font-size="11" lengthAdjust="spacingAndGlyphs" textLength="576" x="278" y="171.2104">+newPaymentTransaction(payTId, taskString, eDate, delay, workQualityDescription, freelancerString)</text><text fill="#000000" font-family="sans-serif" font-size="11" lengthAdjust="spacingAndGlyphs" textLength="180" x="278" y="184.0151">+paymentTransactionRegister()</text><!--MD5=[e472615a113cc15971a8fcaedb5e2163]
class CreatePaymentTransactionUI--><rect fill="#FEFECE" filter="url(#f1ok45yp92idjn)" height="48" id="CreatePaymentTransactionUI" style="stroke: #A80036; stroke-width: 1.5;" width="214" x="459" y="8"/><ellipse cx="474" cy="24" fill="#ADD1B2" rx="11" ry="11" style="stroke: #A80036; stroke-width: 1.0;"/><path d="M476.9688,29.6406 Q476.3906,29.9375 475.75,30.0859 Q475.1094,30.2344 474.4063,30.2344 Q471.9063,30.2344 470.5859,28.5859 Q469.2656,26.9375 469.2656,23.8125 Q469.2656,20.6875 470.5859,19.0313 Q471.9063,17.375 474.4063,17.375 Q475.1094,17.375 475.7578,17.5313 Q476.4063,17.6875 476.9688,17.9844 L476.9688,20.7031 Q476.3438,20.125 475.75,19.8516 Q475.1563,19.5781 474.5313,19.5781 Q473.1875,19.5781 472.5,20.6484 Q471.8125,21.7188 471.8125,23.8125 Q471.8125,25.9063 472.5,26.9766 Q473.1875,28.0469 474.5313,28.0469 Q475.1563,28.0469 475.75,27.7734 Q476.3438,27.5 476.9688,26.9219 L476.9688,29.6406 Z "/><text fill="#000000" font-family="sans-serif" font-size="12" lengthAdjust="spacingAndGlyphs" textLength="182" x="488" y="28.1543">CreatePaymentTransactionUI</text><line style="stroke: #A80036; stroke-width: 1.5;" x1="460" x2="672" y1="40" y2="40"/><line style="stroke: #A80036; stroke-width: 1.5;" x1="460" x2="672" y1="48" y2="48"/><!--MD5=[b645a18afb25b7e5623af7186d8eb36f]
class PaymentTransaction--><rect fill="#FEFECE" filter="url(#f1ok45yp92idjn)" height="137.6328" id="PaymentTransaction" style="stroke: #A80036; stroke-width: 1.5;" width="503" x="409.5" y="880"/><ellipse cx="592.75" cy="896" fill="#ADD1B2" rx="11" ry="11" style="stroke: #A80036; stroke-width: 1.0;"/><path d="M595.7188,901.6406 Q595.1406,901.9375 594.5,902.0859 Q593.8594,902.2344 593.1563,902.2344 Q590.6563,902.2344 589.3359,900.5859 Q588.0156,898.9375 588.0156,895.8125 Q588.0156,892.6875 589.3359,891.0313 Q590.6563,889.375 593.1563,889.375 Q593.8594,889.375 594.5078,889.5313 Q595.1563,889.6875 595.7188,889.9844 L595.7188,892.7031 Q595.0938,892.125 594.5,891.8516 Q593.9063,891.5781 593.2813,891.5781 Q591.9375,891.5781 591.25,892.6484 Q590.5625,893.7188 590.5625,895.8125 Q590.5625,897.9063 591.25,898.9766 Q591.9375,900.0469 593.2813,900.0469 Q593.9063,900.0469 594.5,899.7734 Q595.0938,899.5 595.7188,898.9219 L595.7188,901.6406 Z "/><text fill="#000000" font-family="sans-serif" font-size="12" lengthAdjust="spacingAndGlyphs" textLength="128" x="613.25" y="900.1543">PaymentTransaction</text><line style="stroke: #A80036; stroke-width: 1.5;" x1="410.5" x2="911.5" y1="912" y2="912"/><text fill="#000000" font-family="sans-serif" font-size="11" lengthAdjust="spacingAndGlyphs" textLength="52" x="415.5" y="926.2104">-String id</text><text fill="#000000" font-family="sans-serif" font-size="11" lengthAdjust="spacingAndGlyphs" textLength="81" x="415.5" y="939.0151">-Date endDate</text><text fill="#000000" font-family="sans-serif" font-size="11" lengthAdjust="spacingAndGlyphs" textLength="78" x="415.5" y="951.8198">-Integer delay</text><text fill="#000000" font-family="sans-serif" font-size="11" lengthAdjust="spacingAndGlyphs" textLength="172" x="415.5" y="964.6245">-String workQualityDescription</text><text fill="#000000" font-family="sans-serif" font-size="11" lengthAdjust="spacingAndGlyphs" textLength="110" x="415.5" y="977.4292">-Double payAmount</text><line style="stroke: #A80036; stroke-width: 1.5;" x1="410.5" x2="911.5" y1="984.0234" y2="984.0234"/><text fill="#000000" font-family="sans-serif" font-size="11" lengthAdjust="spacingAndGlyphs" textLength="186" x="415.5" y="998.2339">+generatePayAmount(task, free)</text><text fill="#000000" font-family="sans-serif" font-size="11" lengthAdjust="spacingAndGlyphs" textLength="491" x="415.5" y="1011.0386">+PaymentTransaction(org, payTId, task, free, endDate, delay, workQualityDescription)</text><!--MD5=[ba54b1997298830925be59f10364c919]
class PaymentTransactionList--><rect fill="#FEFECE" filter="url(#f1ok45yp92idjn)" height="99.2188" id="PaymentTransactionList" style="stroke: #A80036; stroke-width: 1.5;" width="526" x="393" y="704"/><ellipse cx="577.25" cy="720" fill="#ADD1B2" rx="11" ry="11" style="stroke: #A80036; stroke-width: 1.0;"/><path d="M580.2188,725.6406 Q579.6406,725.9375 579,726.0859 Q578.3594,726.2344 577.6563,726.2344 Q575.1563,726.2344 573.8359,724.5859 Q572.5156,722.9375 572.5156,719.8125 Q572.5156,716.6875 573.8359,715.0313 Q575.1563,713.375 577.6563,713.375 Q578.3594,713.375 579.0078,713.5313 Q579.6563,713.6875 580.2188,713.9844 L580.2188,716.7031 Q579.5938,716.125 579,715.8516 Q578.4063,715.5781 577.7813,715.5781 Q576.4375,715.5781 575.75,716.6484 Q575.0625,717.7188 575.0625,719.8125 Q575.0625,721.9063 575.75,722.9766 Q576.4375,724.0469 577.7813,724.0469 Q578.4063,724.0469 579,723.7734 Q579.5938,723.5 580.2188,722.9219 L580.2188,725.6406 Z "/><text fill="#000000" font-family="sans-serif" font-size="12" lengthAdjust="spacingAndGlyphs" textLength="149" x="597.75" y="724.1543">PaymentTransactionList</text><line style="stroke: #A80036; stroke-width: 1.5;" x1="394" x2="918" y1="736" y2="736"/><line style="stroke: #A80036; stroke-width: 1.5;" x1="394" x2="918" y1="744" y2="744"/><text fill="#000000" font-family="sans-serif" font-size="11" lengthAdjust="spacingAndGlyphs" textLength="514" x="399" y="758.2104">+newPaymentTransaction(org, payTId, task, free, endDate, delay, workQualityDescription)</text><text fill="#000000" font-family="sans-serif" font-size="11" lengthAdjust="spacingAndGlyphs" textLength="204" x="399" y="771.0151">+validatePaymentTransaction(payT)</text><text fill="#000000" font-family="sans-serif" font-size="11" lengthAdjust="spacingAndGlyphs" textLength="207" x="399" y="783.8198">+paymentTransactionRegister(payT)</text><text fill="#000000" font-family="sans-serif" font-size="11" lengthAdjust="spacingAndGlyphs" textLength="181" x="399" y="796.6245">+addPaymentTransaction(payT)</text><!--MD5=[7829b64950ce38e0487c4015ea331f97]
class Date--><rect fill="#FEFECE" filter="url(#f1ok45yp92idjn)" height="60.8047" id="Date" style="stroke: #A80036; stroke-width: 1.5;" width="178" x="1134" y="258.5"/><ellipse cx="1203.75" cy="274.5" fill="#ADD1B2" rx="11" ry="11" style="stroke: #A80036; stroke-width: 1.0;"/><path d="M1206.7188,280.1406 Q1206.1406,280.4375 1205.5,280.5859 Q1204.8594,280.7344 1204.1563,280.7344 Q1201.6563,280.7344 1200.3359,279.0859 Q1199.0156,277.4375 1199.0156,274.3125 Q1199.0156,271.1875 1200.3359,269.5313 Q1201.6563,267.875 1204.1563,267.875 Q1204.8594,267.875 1205.5078,268.0313 Q1206.1563,268.1875 1206.7188,268.4844 L1206.7188,271.2031 Q1206.0938,270.625 1205.5,270.3516 Q1204.9063,270.0781 1204.2813,270.0781 Q1202.9375,270.0781 1202.25,271.1484 Q1201.5625,272.2188 1201.5625,274.3125 Q1201.5625,276.4063 1202.25,277.4766 Q1202.9375,278.5469 1204.2813,278.5469 Q1204.9063,278.5469 1205.5,278.2734 Q1206.0938,278 1206.7188,277.4219 L1206.7188,280.1406 Z "/><text fill="#000000" font-family="sans-serif" font-size="12" lengthAdjust="spacingAndGlyphs" textLength="30" x="1224.25" y="278.6543">Date</text><line style="stroke: #A80036; stroke-width: 1.5;" x1="1135" x2="1311" y1="290.5" y2="290.5"/><line style="stroke: #A80036; stroke-width: 1.5;" x1="1135" x2="1311" y1="298.5" y2="298.5"/><text fill="#000000" font-family="sans-serif" font-size="11" lengthAdjust="spacingAndGlyphs" textLength="166" x="1140" y="312.7104">+convertStringToDate(eDate)</text><!--MD5=[d75f8faab7003fe4f7fadde3e00b3cf7]
link CreatePaymentTransactionUI to CreatePaymentTransactionController--><path d="M566,56.1033 C566,71.972 566,93.1768 566,111.7934 " fill="none" id="CreatePaymentTransactionUI-&gt;CreatePaymentTransactionController" style="stroke: #A80036; stroke-width: 1.0; stroke-dasharray: 7.0,7.0;"/><polygon fill="#A80036" points="566,116.9691,570,107.9691,566,111.9691,562,107.9691,566,116.9691" style="stroke: #A80036; stroke-width: 1.0;"/><!--MD5=[c21c0329c000ce3a64d50b793859385d]
link CreatePaymentTransactionController to Platform--><path d="M653.5901,191.0679 C696.7459,209.3313 748.7847,231.354 792.5755,249.8862 " fill="none" id="CreatePaymentTransactionController-&gt;Platform" style="stroke: #A80036; stroke-width: 1.0; stroke-dasharray: 7.0,7.0;"/><polygon fill="#A80036" points="797.3287,251.8977,790.5994,244.7063,792.7241,249.949,787.4814,252.0737,797.3287,251.8977" style="stroke: #A80036; stroke-width: 1.0;"/><!--MD5=[f04e3b22971df4e8085f55a70756c755]
link CreatePaymentTransactionController to Task--><path d="M419.3614,191.0251 C376.0541,211.3306 340,242.2684 340,289 C340,289 340,289 340,949 C340,1124.8598 556.5395,1012.3091 749,1095 C750.767,1095.7592 752.5358,1096.5586 754.3028,1097.3932 " fill="none" id="CreatePaymentTransactionController-&gt;Task" style="stroke: #A80036; stroke-width: 1.0; stroke-dasharray: 7.0,7.0;"/><polygon fill="#A80036" points="758.9735,1099.6815,752.6512,1092.1298,754.4834,1097.4817,749.1315,1099.3139,758.9735,1099.6815" style="stroke: #A80036; stroke-width: 1.0;"/><!--MD5=[d808bb2ca26b86ab5f675405e49fd624]
link CreatePaymentTransactionController to Organization--><path d="M554.8084,191.3179 C538.8963,251.1366 515.3839,371.1859 551,464 C561.6348,491.7139 581.9546,517.0352 602.1258,537.2003 " fill="none" id="CreatePaymentTransactionController-&gt;Organization" style="stroke: #A80036; stroke-width: 1.0; stroke-dasharray: 7.0,7.0;"/><polygon fill="#A80036" points="605.8881,540.905,602.2817,531.7402,602.3254,537.3969,596.6687,537.4405,605.8881,540.905" style="stroke: #A80036; stroke-width: 1.0;"/><!--MD5=[c3f8496c633e2f7f52d8bf9bc86aad29]
link CreatePaymentTransactionController to POTApplication--><path d="M382.4948,191.0394 C311.8574,207.1505 230.9259,227.891 159,252 C155.0515,253.3235 151.0328,254.7575 146.9985,256.266 " fill="none" id="CreatePaymentTransactionController-&gt;POTApplication" style="stroke: #A80036; stroke-width: 1.0; stroke-dasharray: 7.0,7.0;"/><polygon fill="#A80036" points="142.2586,258.0691,152.0927,258.6079,146.9319,256.2914,149.2484,251.1306,142.2586,258.0691" style="stroke: #A80036; stroke-width: 1.0;"/><!--MD5=[044b46cd6ff48909710cb1d203e462f9]
link CreatePaymentTransactionController to UserSession--><path d="M387.4909,191.0758 C362.1486,199.2923 336.9342,209.1737 314,221 C296.8716,229.8325 280.1011,242.7411 266.235,254.9441 " fill="none" id="CreatePaymentTransactionController-&gt;UserSession" style="stroke: #A80036; stroke-width: 1.0; stroke-dasharray: 7.0,7.0;"/><polygon fill="#A80036" points="262.4032,258.3633,271.7816,255.3557,266.1339,255.0343,266.4552,249.3866,262.4032,258.3633" style="stroke: #A80036; stroke-width: 1.0;"/><!--MD5=[da3ba2fd2050f5fe3136cfce7fae0061]
link CreatePaymentTransactionController to TaskList--><path d="M597.2484,191.1388 C643.1177,245.2609 727.0171,342.6635 762,373 C780.1599,388.7479 790.8355,385.2099 807,403 C899.5504,504.8578 961.9444,660.5634 985.0404,724.5315 " fill="none" id="CreatePaymentTransactionController-&gt;TaskList" style="stroke: #A80036; stroke-width: 1.0; stroke-dasharray: 7.0,7.0;"/><polygon fill="#A80036" points="986.7653,729.3416,987.4924,719.5196,985.0775,724.6351,979.962,722.2202,986.7653,729.3416" style="stroke: #A80036; stroke-width: 1.0;"/><!--MD5=[546fd7e0e055f1eba4c284893e3481a0]
link CreatePaymentTransactionController to FreelancersRecord--><path d="M860.1012,187.1878 C941.9304,202.153 1016.314,223.1413 1045,252 C1085.2051,292.4471 1086.9604,364.0806 1084.259,404.1954 " fill="none" id="CreatePaymentTransactionController-&gt;FreelancersRecord" style="stroke: #A80036; stroke-width: 1.0; stroke-dasharray: 7.0,7.0;"/><polygon fill="#A80036" points="1083.8712,409.4023,1088.5287,400.7243,1084.2426,404.4161,1080.5508,400.13,1083.8712,409.4023" style="stroke: #A80036; stroke-width: 1.0;"/><!--MD5=[19aba29190c83d802a073857acc5c053]
link CreatePaymentTransactionController to OrganizationsRecord--><path d="M581.0055,191.1154 C602.8593,245.1697 643.1718,344.8808 664.6497,398.0052 " fill="none" id="CreatePaymentTransactionController-&gt;OrganizationsRecord" style="stroke: #A80036; stroke-width: 1.0; stroke-dasharray: 7.0,7.0;"/><polygon fill="#A80036" points="666.5419,402.6854,666.8768,392.8422,664.6677,398.0499,659.46,395.8409,666.5419,402.6854" style="stroke: #A80036; stroke-width: 1.0;"/><!--MD5=[59ac9a6802ae404b65a1b78c8af4ba66]
link CreatePaymentTransactionController to PaymentTransactionList--><path d="M505,191.1735 C474.5,214.8147 444,248.5647 444,289 C444,289 444,289 444,584 C444,635.6994 482.9364,674.2171 527.4362,701.3562 " fill="none" id="CreatePaymentTransactionController-&gt;PaymentTransactionList" style="stroke: #A80036; stroke-width: 1.0; stroke-dasharray: 7.0,7.0;"/><polygon fill="#A80036" points="531.7588,703.9471,526.0957,695.8892,527.4702,701.3766,521.9828,702.7511,531.7588,703.9471" style="stroke: #A80036; stroke-width: 1.0;"/><!--MD5=[b56d67246e7766ab3ab92921b292528b]
link CreatePaymentTransactionController to Date--><path d="M860.2278,179.8679 C960.9479,190.9845 1060.0538,205.0918 1107,221 C1131.15,229.1835 1155.8099,242.7634 1176.1479,255.6447 " fill="none" id="CreatePaymentTransactionController-&gt;Date" style="stroke: #A80036; stroke-width: 1.0; stroke-dasharray: 7.0,7.0;"/><polygon fill="#A80036" points="1180.4205,258.3806,1174.9984,250.1586,1176.2099,255.6842,1170.6842,256.8956,1180.4205,258.3806" style="stroke: #A80036; stroke-width: 1.0;"/><!--MD5=[d77b6fe82f72fca34ebf8190bf84198d]
link Platform to FreelancersRecord--><path d="M935.2204,326.0247 C969.3045,351.1531 1013.5978,383.808 1044.3745,406.4981 " fill="none" id="Platform-&gt;FreelancersRecord" style="stroke: #A80036; stroke-width: 1.0;"/><polygon fill="#A80036" points="1048.4361,409.4924,1043.5655,400.9322,1044.4115,406.5254,1038.8183,407.3715,1048.4361,409.4924" style="stroke: #A80036; stroke-width: 1.0;"/><text fill="#000000" font-family="sans-serif" font-size="13" lengthAdjust="spacingAndGlyphs" textLength="23" x="995" y="369.0669">has</text><text fill="#000000" font-family="sans-serif" font-size="13" lengthAdjust="spacingAndGlyphs" textLength="8" x="935.1645" y="345.7893">1</text><text fill="#000000" font-family="sans-serif" font-size="13" lengthAdjust="spacingAndGlyphs" textLength="8" x="1031.0666" y="398.5025">1</text><!--MD5=[d9ffa4e24b0f90d8cdc0d9eb36306584]
link Platform to OrganizationsRecord--><path d="M832.2174,326.0247 C799.7027,348.8323 758.3486,377.8404 726.8004,399.9701 " fill="none" id="Platform-&gt;OrganizationsRecord" style="stroke: #A80036; stroke-width: 1.0;"/><polygon fill="#A80036" points="722.612,402.9081,732.2771,401.0143,726.7053,400.0367,727.6829,394.465,722.612,402.9081" style="stroke: #A80036; stroke-width: 1.0;"/><text fill="#000000" font-family="sans-serif" font-size="13" lengthAdjust="spacingAndGlyphs" textLength="23" x="790" y="369.0669">has</text><text fill="#000000" font-family="sans-serif" font-size="13" lengthAdjust="spacingAndGlyphs" textLength="8" x="814.4579" y="345.7893">1</text><text fill="#000000" font-family="sans-serif" font-size="13" lengthAdjust="spacingAndGlyphs" textLength="8" x="722.782" y="392.1524">1</text><!--MD5=[0634d34efc8f03ad94b2231e46fef7de]
link FreelancersRecord to Freelancer--><path d="M1083.081,457.7204 C1085.4514,487.4423 1089,539.3881 1089,584 C1089,584 1089,584 1089,1151 C1089,1246.5678 980.3837,1305.6858 904.1003,1335.4208 " fill="none" id="FreelancersRecord-&gt;Freelancer" style="stroke: #A80036; stroke-width: 1.0;"/><polygon fill="#A80036" points="899.1239,1337.3369,908.9601,1337.8354,903.7899,1335.5401,906.0852,1330.3698,899.1239,1337.3369" style="stroke: #A80036; stroke-width: 1.0;"/><text fill="#000000" font-family="sans-serif" font-size="13" lengthAdjust="spacingAndGlyphs" textLength="23" x="1090" y="846.0669">has</text><text fill="#000000" font-family="sans-serif" font-size="13" lengthAdjust="spacingAndGlyphs" textLength="8" x="1074.6132" y="477.5353">1</text><text fill="#000000" font-family="sans-serif" font-size="13" lengthAdjust="spacingAndGlyphs" textLength="7" x="906.9578" y="1331.1974">*</text><!--MD5=[15b500351a20fc4c9aef6172f83f2b2a]
link OrganizationsRecord to Organization--><path d="M674.9044,464.3191 C672.1739,484.8665 668.5283,512.2996 665.4163,535.7173 " fill="none" id="OrganizationsRecord-&gt;Organization" style="stroke: #A80036; stroke-width: 1.0;"/><polygon fill="#A80036" points="664.72,540.957,669.8708,532.5624,665.3787,536.0006,661.9405,531.5085,664.72,540.957" style="stroke: #A80036; stroke-width: 1.0;"/><text fill="#000000" font-family="sans-serif" font-size="13" lengthAdjust="spacingAndGlyphs" textLength="23" x="672" y="507.0669">has</text><text fill="#000000" font-family="sans-serif" font-size="13" lengthAdjust="spacingAndGlyphs" textLength="8" x="665.3106" y="483.9624">1</text><text fill="#000000" font-family="sans-serif" font-size="13" lengthAdjust="spacingAndGlyphs" textLength="7" x="658.0738" y="529.9462">*</text><!--MD5=[522c679f4dd7ba84a6aa9ac03f58229d]
link Organization to TaskList--><path d="M712.1846,627.0228 C735.4766,643.9444 763.8748,662.1266 792,674 C852.6281,699.5949 877.8935,675.0642 937,704 C948.2358,709.5005 959.0798,717.6852 968.2902,725.8229 " fill="none" id="Organization-&gt;TaskList" style="stroke: #A80036; stroke-width: 1.0;"/><polygon fill="#A80036" points="972.1339,729.2996,968.1426,720.2957,968.4258,725.9455,962.776,726.2287,972.1339,729.2996" style="stroke: #A80036; stroke-width: 1.0;"/><text fill="#000000" font-family="sans-serif" font-size="13" lengthAdjust="spacingAndGlyphs" textLength="23" x="793" y="670.0669">has</text><text fill="#000000" font-family="sans-serif" font-size="13" lengthAdjust="spacingAndGlyphs" textLength="8" x="712.3308" y="647.4342">1</text><text fill="#000000" font-family="sans-serif" font-size="13" lengthAdjust="spacingAndGlyphs" textLength="8" x="957.2495" y="718.2603">1</text><!--MD5=[322d55b5ad1658b7791494cedb432ac7]
link Organization to PaymentTransactionList--><path d="M658.2352,627.2106 C657.8511,648.913 657.3815,675.4437 656.9721,698.5762 " fill="none" id="Organization-&gt;PaymentTransactionList" style="stroke: #A80036; stroke-width: 1.0;"/><polygon fill="#A80036" points="656.8803,703.7629,661.0391,694.8352,656.9689,698.7637,653.0404,694.6935,656.8803,703.7629" style="stroke: #A80036; stroke-width: 1.0;"/><text fill="#000000" font-family="sans-serif" font-size="13" lengthAdjust="spacingAndGlyphs" textLength="23" x="659" y="670.0669">has</text><text fill="#000000" font-family="sans-serif" font-size="13" lengthAdjust="spacingAndGlyphs" textLength="8" x="649.4758" y="647.3371">1</text><text fill="#000000" font-family="sans-serif" font-size="13" lengthAdjust="spacingAndGlyphs" textLength="8" x="648.4416" y="692.7748">1</text><!--MD5=[ad9e6b825fedf9daad488846d3a92887]
link PaymentTransactionList to PaymentTransaction--><path d="M657.2682,803.0856 C657.8246,824.8415 658.4895,850.8409 659.103,874.8264 " fill="none" id="PaymentTransactionList-&gt;PaymentTransaction" style="stroke: #A80036; stroke-width: 1.0;"/><polygon fill="#A80036" points="659.233,879.9118,663.0013,870.8123,659.105,874.9134,655.0039,871.0172,659.233,879.9118" style="stroke: #A80036; stroke-width: 1.0;"/><text fill="#000000" font-family="sans-serif" font-size="13" lengthAdjust="spacingAndGlyphs" textLength="23" x="660" y="846.0669">has</text><text fill="#000000" font-family="sans-serif" font-size="13" lengthAdjust="spacingAndGlyphs" textLength="8" x="648.884" y="823.1741">1</text><text fill="#000000" font-family="sans-serif" font-size="13" lengthAdjust="spacingAndGlyphs" textLength="7" x="651.6898" y="869.1063">*</text><!--MD5=[14c738364c5fdafcb97ced6863906d7f]
link TaskList to Task--><path d="M992.3372,777.5564 C986.3601,825.3463 969.2101,934.8049 930,1018 C917.9274,1043.6154 900.5137,1069.1843 883.6466,1090.9597 " fill="none" id="TaskList-&gt;Task" style="stroke: #A80036; stroke-width: 1.0;"/><polygon fill="#A80036" points="880.5049,1094.9807,889.198,1090.3515,883.5833,1091.0407,882.8941,1085.426,880.5049,1094.9807" style="stroke: #A80036; stroke-width: 1.0;"/><text fill="#000000" font-family="sans-serif" font-size="13" lengthAdjust="spacingAndGlyphs" textLength="23" x="975" y="953.5669">has</text><text fill="#000000" font-family="sans-serif" font-size="13" lengthAdjust="spacingAndGlyphs" textLength="8" x="982.6299" y="797.7266">1</text><text fill="#000000" font-family="sans-serif" font-size="13" lengthAdjust="spacingAndGlyphs" textLength="7" x="879.3993" y="1083.9162">*</text><!--MD5=[8853e9d83a8841c20c4ef075af762602]
link Task to Freelancer--><path d="M831,1207.0138 C831,1229.0314 831,1254.7242 831,1278.6529 " fill="none" id="Task-&gt;Freelancer" style="stroke: #A80036; stroke-width: 1.0;"/><polygon fill="#A80036" points="831,1283.7303,835,1274.7303,831,1278.7303,827,1274.7303,831,1283.7303" style="stroke: #A80036; stroke-width: 1.0;"/><text fill="#000000" font-family="sans-serif" font-size="13" lengthAdjust="spacingAndGlyphs" textLength="88" x="832" y="1250.0669">is assigned to</text><text fill="#000000" font-family="sans-serif" font-size="13" lengthAdjust="spacingAndGlyphs" textLength="23" x="806.5266" y="1227.2254">1..*</text><text fill="#000000" font-family="sans-serif" font-size="13" lengthAdjust="spacingAndGlyphs" textLength="8" x="822.6188" y="1272.8937">1</text><!--MD5=[f6802b286771c18a16ea4be983074371]
link PaymentTransaction to Freelancer--><path d="M652.6591,1018.2075 C649.1394,1072.0836 650.8905,1147.4554 678,1207 C695.7433,1245.9722 728.1684,1280.4591 758.6164,1306.6903 " fill="none" id="PaymentTransaction-&gt;Freelancer" style="stroke: #A80036; stroke-width: 1.0;"/><polygon fill="#A80036" points="762.7041,1310.1732,758.4479,1301.2915,758.8983,1306.9304,753.2594,1307.3808,762.7041,1310.1732" style="stroke: #A80036; stroke-width: 1.0;"/><text fill="#000000" font-family="sans-serif" font-size="13" lengthAdjust="spacingAndGlyphs" textLength="61" x="679" y="1155.5669">relates to</text><text fill="#000000" font-family="sans-serif" font-size="13" lengthAdjust="spacingAndGlyphs" textLength="8" x="643.4829" y="1037.6094">1</text><text fill="#000000" font-family="sans-serif" font-size="13" lengthAdjust="spacingAndGlyphs" textLength="8" x="746.7967" y="1301.0627">1</text><!--MD5=[271ce7fefd7250ebaca83b70495774bd]
link PaymentTransaction to Task--><path d="M719.2665,1018.2343 C739.1649,1041.8782 761.2393,1068.1079 780.4769,1090.9667 " fill="none" id="PaymentTransaction-&gt;Task" style="stroke: #A80036; stroke-width: 1.0;"/><polygon fill="#A80036" points="783.7862,1094.8989,781.0515,1085.4373,780.5667,1091.0734,774.9306,1090.5886,783.7862,1094.8989" style="stroke: #A80036; stroke-width: 1.0;"/><text fill="#000000" font-family="sans-serif" font-size="13" lengthAdjust="spacingAndGlyphs" textLength="61" x="758" y="1061.0669">relates to</text><text fill="#000000" font-family="sans-serif" font-size="13" lengthAdjust="spacingAndGlyphs" textLength="8" x="716.4388" y="1037.6388">1</text><text fill="#000000" font-family="sans-serif" font-size="13" lengthAdjust="spacingAndGlyphs" textLength="8" x="769.2244" y="1083.8239">1</text><!--MD5=[4a619daefb2418c550e8e18bc0107801]
@startuml
skinparam classAttributeIconSize 0

class POTApplication
{
  +static getInstance()
  +getCurrentSession()
}

class UserSession
{
  +getUserEmail()
}

class Task {
  -String id
  -String briefDescription
  -Integer timeDuration
  -Double costPerHour
  -String taskCategory
}

class Freelancer {
  -String id
  -String name
  -String expertiseLevel
  -String email
  -String NIF
  -String IBAN
  -String address
  -String country
}

class Organization {
  -String name
  -String NIF
  +getPaymentTransactionList()
}

class TaskList {
}

class Platform {
  -String designation
  +OrganizationsRecord getOrganizationsRecord()
}

class FreelancersRecord {
}

class OrganizationsRecord {
  +getOrganizationByUserEmail(email)
}

class CreatePaymentTransactionController {
  +newPaymentTransaction(payTId, taskString, eDate, delay, workQualityDescription, freelancerString)
  +paymentTransactionRegister()
}

class CreatePaymentTransactionUI {
}

class PaymentTransaction{
  -String id
  -Date endDate
  -Integer delay
  -String workQualityDescription
  -Double payAmount
  +generatePayAmount(task, free)
  +PaymentTransaction(org, payTId, task, free, endDate, delay, workQualityDescription)
}

class PaymentTransactionList{
  +newPaymentTransaction(org, payTId, task, free, endDate, delay, workQualityDescription)
  +validatePaymentTransaction(payT)
  +paymentTransactionRegister(payT)
  +addPaymentTransaction(payT)
}

class Date {
 +convertStringToDate(eDate) 
}

CreatePaymentTransactionUI ..> CreatePaymentTransactionController
CreatePaymentTransactionController ..> Platform
CreatePaymentTransactionController ..> Task
CreatePaymentTransactionController ..> Organization
CreatePaymentTransactionController ..> POTApplication
CreatePaymentTransactionController ..> UserSession
CreatePaymentTransactionController ..> TaskList
CreatePaymentTransactionController ..> FreelancersRecord
CreatePaymentTransactionController ..> OrganizationsRecord
CreatePaymentTransactionController ..> PaymentTransactionList
CreatePaymentTransactionController ..> Date
Platform "1" - -> "1" FreelancersRecord : has
Platform "1" - -> "1" OrganizationsRecord : has

FreelancersRecord "1" - -> "*" Freelancer : has
OrganizationsRecord "1" - -> "*" Organization : has
Organization "1" - -> "1" TaskList : has
Organization "1" - -> "1" PaymentTransactionList : has
PaymentTransactionList "1" - -> "*" PaymentTransaction : has
TaskList "1" - -> "*" Task : has
Task "1..*" - -> "1" Freelancer : is assigned to

PaymentTransaction "1" - -> "1" Freelancer : relates to
PaymentTransaction "1" - -> "1" Task : relates to
@enduml

PlantUML version 1.2019.12(Sun Nov 03 10:24:54 UTC 2019)
(GPL source distribution)
Java Runtime: OpenJDK Runtime Environment
JVM: OpenJDK 64-Bit Server VM
Java Version: 1.8.0_232-heroku-b09
Operating System: Linux
Default Encoding: UTF-8
Language: en
Country: US
--></g></svg>