<?xml version="1.0" encoding="UTF-8" standalone="no"?><svg xmlns="http://www.w3.org/2000/svg" xmlns:xlink="http://www.w3.org/1999/xlink" contentScriptType="application/ecmascript" contentStyleType="text/css" height="1457px" preserveAspectRatio="none" style="width:1411px;height:1457px;" version="1.1" viewBox="0 0 1411 1457" width="1411px" zoomAndPan="magnify"><defs><filter height="300%" id="f1og0nv8an9qie" width="300%" x="-1" y="-1"><feGaussianBlur result="blurOut" stdDeviation="2.0"/><feColorMatrix in="blurOut" result="blurOut2" type="matrix" values="0 0 0 0 0 0 0 0 0 0 0 0 0 0 0 0 0 0 .4 0"/><feOffset dx="4.0" dy="4.0" in="blurOut2" result="blurOut3"/><feBlend in="SourceGraphic" in2="blurOut3" mode="normal"/></filter></defs><g><!--MD5=[52de6b799a0982f4494b9c19495c1271]
class POTApplication--><rect fill="#FEFECE" filter="url(#f1og0nv8an9qie)" height="73.6094" id="POTApplication" style="stroke: #A80036; stroke-width: 1.5;" width="136" x="6" y="258"/><ellipse cx="25.95" cy="274" fill="#ADD1B2" rx="11" ry="11" style="stroke: #A80036; stroke-width: 1.0;"/><path d="M28.9188,279.6406 Q28.3406,279.9375 27.7,280.0859 Q27.0594,280.2344 26.3563,280.2344 Q23.8563,280.2344 22.5359,278.5859 Q21.2156,276.9375 21.2156,273.8125 Q21.2156,270.6875 22.5359,269.0313 Q23.8563,267.375 26.3563,267.375 Q27.0594,267.375 27.7078,267.5313 Q28.3563,267.6875 28.9188,267.9844 L28.9188,270.7031 Q28.2938,270.125 27.7,269.8516 Q27.1063,269.5781 26.4813,269.5781 Q25.1375,269.5781 24.45,270.6484 Q23.7625,271.7188 23.7625,273.8125 Q23.7625,275.9063 24.45,276.9766 Q25.1375,278.0469 26.4813,278.0469 Q27.1063,278.0469 27.7,277.7734 Q28.2938,277.5 28.9188,276.9219 L28.9188,279.6406 Z "/><text fill="#000000" font-family="sans-serif" font-size="12" lengthAdjust="spacingAndGlyphs" textLength="93" x="41.05" y="278.1543">POTApplication</text><line style="stroke: #A80036; stroke-width: 1.5;" x1="7" x2="141" y1="290" y2="290"/><line style="stroke: #A80036; stroke-width: 1.5;" x1="7" x2="141" y1="298" y2="298"/><text fill="#000000" font-family="sans-serif" font-size="11" lengthAdjust="spacingAndGlyphs" textLength="118" x="12" y="312.2104">+static getInstance()</text><text fill="#000000" font-family="sans-serif" font-size="11" lengthAdjust="spacingAndGlyphs" textLength="124" x="12" y="325.0151">+getCurrentSession()</text><!--MD5=[c5b08e60048ef1bcd788d24cf324082e]
class UserSession--><rect fill="#FEFECE" filter="url(#f1og0nv8an9qie)" height="60.8047" id="UserSession" style="stroke: #A80036; stroke-width: 1.5;" width="110" x="177" y="264.5"/><ellipse cx="192" cy="280.5" fill="#ADD1B2" rx="11" ry="11" style="stroke: #A80036; stroke-width: 1.0;"/><path d="M194.9688,286.1406 Q194.3906,286.4375 193.75,286.5859 Q193.1094,286.7344 192.4063,286.7344 Q189.9063,286.7344 188.5859,285.0859 Q187.2656,283.4375 187.2656,280.3125 Q187.2656,277.1875 188.5859,275.5313 Q189.9063,273.875 192.4063,273.875 Q193.1094,273.875 193.7578,274.0313 Q194.4063,274.1875 194.9688,274.4844 L194.9688,277.2031 Q194.3438,276.625 193.75,276.3516 Q193.1563,276.0781 192.5313,276.0781 Q191.1875,276.0781 190.5,277.1484 Q189.8125,278.2188 189.8125,280.3125 Q189.8125,282.4063 190.5,283.4766 Q191.1875,284.5469 192.5313,284.5469 Q193.1563,284.5469 193.75,284.2734 Q194.3438,284 194.9688,283.4219 L194.9688,286.1406 Z "/><text fill="#000000" font-family="sans-serif" font-size="12" lengthAdjust="spacingAndGlyphs" textLength="78" x="206" y="284.6543">UserSession</text><line style="stroke: #A80036; stroke-width: 1.5;" x1="178" x2="286" y1="296.5" y2="296.5"/><line style="stroke: #A80036; stroke-width: 1.5;" x1="178" x2="286" y1="304.5" y2="304.5"/><text fill="#000000" font-family="sans-serif" font-size="11" lengthAdjust="spacingAndGlyphs" textLength="93" x="183" y="318.7104">+getUserEmail()</text><!--MD5=[b34797a66dc35cbf1d65f7e3ca75530e]
class Task--><rect fill="#FEFECE" filter="url(#f1og0nv8an9qie)" height="112.0234" id="Task" style="stroke: #A80036; stroke-width: 1.5;" width="144" x="762" y="1107"/><ellipse cx="815.25" cy="1123" fill="#ADD1B2" rx="11" ry="11" style="stroke: #A80036; stroke-width: 1.0;"/><path d="M818.2188,1128.6406 Q817.6406,1128.9375 817,1129.0859 Q816.3594,1129.2344 815.6563,1129.2344 Q813.1563,1129.2344 811.8359,1127.5859 Q810.5156,1125.9375 810.5156,1122.8125 Q810.5156,1119.6875 811.8359,1118.0313 Q813.1563,1116.375 815.6563,1116.375 Q816.3594,1116.375 817.0078,1116.5313 Q817.6563,1116.6875 818.2188,1116.9844 L818.2188,1119.7031 Q817.5938,1119.125 817,1118.8516 Q816.4063,1118.5781 815.7813,1118.5781 Q814.4375,1118.5781 813.75,1119.6484 Q813.0625,1120.7188 813.0625,1122.8125 Q813.0625,1124.9063 813.75,1125.9766 Q814.4375,1127.0469 815.7813,1127.0469 Q816.4063,1127.0469 817,1126.7734 Q817.5938,1126.5 818.2188,1125.9219 L818.2188,1128.6406 Z "/><text fill="#000000" font-family="sans-serif" font-size="12" lengthAdjust="spacingAndGlyphs" textLength="29" x="835.75" y="1127.1543">Task</text><line style="stroke: #A80036; stroke-width: 1.5;" x1="763" x2="905" y1="1139" y2="1139"/><text fill="#000000" font-family="sans-serif" font-size="11" lengthAdjust="spacingAndGlyphs" textLength="52" x="768" y="1153.2104">-String id</text><text fill="#000000" font-family="sans-serif" font-size="11" lengthAdjust="spacingAndGlyphs" textLength="132" x="768" y="1166.0151">-String briefDescription</text><text fill="#000000" font-family="sans-serif" font-size="11" lengthAdjust="spacingAndGlyphs" textLength="121" x="768" y="1178.8198">-Integer timeDuration</text><text fill="#000000" font-family="sans-serif" font-size="11" lengthAdjust="spacingAndGlyphs" textLength="117" x="768" y="1191.6245">-Double costPerHour</text><text fill="#000000" font-family="sans-serif" font-size="11" lengthAdjust="spacingAndGlyphs" textLength="117" x="768" y="1204.4292">-String taskCategory</text><line style="stroke: #A80036; stroke-width: 1.5;" x1="763" x2="905" y1="1211.0234" y2="1211.0234"/><!--MD5=[1f687b5315377fe49fca59b457947463]
class Freelancer--><rect fill="#FEFECE" filter="url(#f1og0nv8an9qie)" height="150.4375" id="Freelancer" style="stroke: #A80036; stroke-width: 1.5;" width="136" x="766" y="1296"/><ellipse cx="797.65" cy="1312" fill="#ADD1B2" rx="11" ry="11" style="stroke: #A80036; stroke-width: 1.0;"/><path d="M800.6188,1317.6406 Q800.0406,1317.9375 799.4,1318.0859 Q798.7594,1318.2344 798.0563,1318.2344 Q795.5563,1318.2344 794.2359,1316.5859 Q792.9156,1314.9375 792.9156,1311.8125 Q792.9156,1308.6875 794.2359,1307.0313 Q795.5563,1305.375 798.0563,1305.375 Q798.7594,1305.375 799.4078,1305.5313 Q800.0563,1305.6875 800.6188,1305.9844 L800.6188,1308.7031 Q799.9938,1308.125 799.4,1307.8516 Q798.8063,1307.5781 798.1813,1307.5781 Q796.8375,1307.5781 796.15,1308.6484 Q795.4625,1309.7188 795.4625,1311.8125 Q795.4625,1313.9063 796.15,1314.9766 Q796.8375,1316.0469 798.1813,1316.0469 Q798.8063,1316.0469 799.4,1315.7734 Q799.9938,1315.5 800.6188,1314.9219 L800.6188,1317.6406 Z "/><text fill="#000000" font-family="sans-serif" font-size="12" lengthAdjust="spacingAndGlyphs" textLength="67" x="815.35" y="1316.1543">Freelancer</text><line style="stroke: #A80036; stroke-width: 1.5;" x1="767" x2="901" y1="1328" y2="1328"/><text fill="#000000" font-family="sans-serif" font-size="11" lengthAdjust="spacingAndGlyphs" textLength="52" x="772" y="1342.2104">-String id</text><text fill="#000000" font-family="sans-serif" font-size="11" lengthAdjust="spacingAndGlyphs" textLength="74" x="772" y="1355.0151">-String name</text><text fill="#000000" font-family="sans-serif" font-size="11" lengthAdjust="spacingAndGlyphs" textLength="124" x="772" y="1367.8198">-String expertiseLevel</text><text fill="#000000" font-family="sans-serif" font-size="11" lengthAdjust="spacingAndGlyphs" textLength="73" x="772" y="1380.6245">-String email</text><text fill="#000000" font-family="sans-serif" font-size="11" lengthAdjust="spacingAndGlyphs" textLength="59" x="772" y="1393.4292">-String NIF</text><text fill="#000000" font-family="sans-serif" font-size="11" lengthAdjust="spacingAndGlyphs" textLength="68" x="772" y="1406.2339">-String IBAN</text><text fill="#000000" font-family="sans-serif" font-size="11" lengthAdjust="spacingAndGlyphs" textLength="89" x="772" y="1419.0386">-String address</text><text fill="#000000" font-family="sans-serif" font-size="11" lengthAdjust="spacingAndGlyphs" textLength="84" x="772" y="1431.8433">-String country</text><line style="stroke: #A80036; stroke-width: 1.5;" x1="767" x2="901" y1="1438.4375" y2="1438.4375"/><!--MD5=[86c7c362de55a38b660185a1328fe18d]
class Organization--><rect fill="#FEFECE" filter="url(#f1og0nv8an9qie)" height="99.2188" id="Organization" style="stroke: #A80036; stroke-width: 1.5;" width="183" x="568.5" y="553"/><ellipse cx="616.75" cy="569" fill="#ADD1B2" rx="11" ry="11" style="stroke: #A80036; stroke-width: 1.0;"/><path d="M619.7188,574.6406 Q619.1406,574.9375 618.5,575.0859 Q617.8594,575.2344 617.1563,575.2344 Q614.6563,575.2344 613.3359,573.5859 Q612.0156,571.9375 612.0156,568.8125 Q612.0156,565.6875 613.3359,564.0313 Q614.6563,562.375 617.1563,562.375 Q617.8594,562.375 618.5078,562.5313 Q619.1563,562.6875 619.7188,562.9844 L619.7188,565.7031 Q619.0938,565.125 618.5,564.8516 Q617.9063,564.5781 617.2813,564.5781 Q615.9375,564.5781 615.25,565.6484 Q614.5625,566.7188 614.5625,568.8125 Q614.5625,570.9063 615.25,571.9766 Q615.9375,573.0469 617.2813,573.0469 Q617.9063,573.0469 618.5,572.7734 Q619.0938,572.5 619.7188,571.9219 L619.7188,574.6406 Z "/><text fill="#000000" font-family="sans-serif" font-size="12" lengthAdjust="spacingAndGlyphs" textLength="78" x="637.25" y="573.1543">Organization</text><line style="stroke: #A80036; stroke-width: 1.5;" x1="569.5" x2="750.5" y1="585" y2="585"/><text fill="#000000" font-family="sans-serif" font-size="11" lengthAdjust="spacingAndGlyphs" textLength="74" x="574.5" y="599.2104">-String name</text><text fill="#000000" font-family="sans-serif" font-size="11" lengthAdjust="spacingAndGlyphs" textLength="59" x="574.5" y="612.0151">-String NIF</text><line style="stroke: #A80036; stroke-width: 1.5;" x1="569.5" x2="750.5" y1="618.6094" y2="618.6094"/><text fill="#000000" font-family="sans-serif" font-size="11" lengthAdjust="spacingAndGlyphs" textLength="82" x="574.5" y="632.8198">+getTaskList()</text><text fill="#000000" font-family="sans-serif" font-size="11" lengthAdjust="spacingAndGlyphs" textLength="171" x="574.5" y="645.6245">+getPaymentTransactionList()</text><!--MD5=[cf2635f8a68afd84898027166f4516bc]
class TaskList--><rect fill="#FEFECE" filter="url(#f1og0nv8an9qie)" height="60.8047" id="TaskList" style="stroke: #A80036; stroke-width: 1.5;" width="211" x="927.5" y="748"/><ellipse cx="1003.75" cy="764" fill="#ADD1B2" rx="11" ry="11" style="stroke: #A80036; stroke-width: 1.0;"/><path d="M1006.7188,769.6406 Q1006.1406,769.9375 1005.5,770.0859 Q1004.8594,770.2344 1004.1563,770.2344 Q1001.6563,770.2344 1000.3359,768.5859 Q999.0156,766.9375 999.0156,763.8125 Q999.0156,760.6875 1000.3359,759.0313 Q1001.6563,757.375 1004.1563,757.375 Q1004.8594,757.375 1005.5078,757.5313 Q1006.1563,757.6875 1006.7188,757.9844 L1006.7188,760.7031 Q1006.0938,760.125 1005.5,759.8516 Q1004.9063,759.5781 1004.2813,759.5781 Q1002.9375,759.5781 1002.25,760.6484 Q1001.5625,761.7188 1001.5625,763.8125 Q1001.5625,765.9063 1002.25,766.9766 Q1002.9375,768.0469 1004.2813,768.0469 Q1004.9063,768.0469 1005.5,767.7734 Q1006.0938,767.5 1006.7188,766.9219 L1006.7188,769.6406 Z "/><text fill="#000000" font-family="sans-serif" font-size="12" lengthAdjust="spacingAndGlyphs" textLength="50" x="1024.25" y="768.1543">TaskList</text><line style="stroke: #A80036; stroke-width: 1.5;" x1="928.5" x2="1137.5" y1="780" y2="780"/><line style="stroke: #A80036; stroke-width: 1.5;" x1="928.5" x2="1137.5" y1="788" y2="788"/><text fill="#000000" font-family="sans-serif" font-size="11" lengthAdjust="spacingAndGlyphs" textLength="199" x="933.5" y="802.2104">+getTaskByStringValue(taskString)</text><!--MD5=[99b8db98afdc2c8404e39242ef4c1e65]
class Platform--><rect fill="#FEFECE" filter="url(#f1og0nv8an9qie)" height="86.4141" id="Platform" style="stroke: #A80036; stroke-width: 1.5;" width="285" x="830.5" y="252"/><ellipse cx="942.75" cy="268" fill="#ADD1B2" rx="11" ry="11" style="stroke: #A80036; stroke-width: 1.0;"/><path d="M945.7188,273.6406 Q945.1406,273.9375 944.5,274.0859 Q943.8594,274.2344 943.1563,274.2344 Q940.6563,274.2344 939.3359,272.5859 Q938.0156,270.9375 938.0156,267.8125 Q938.0156,264.6875 939.3359,263.0313 Q940.6563,261.375 943.1563,261.375 Q943.8594,261.375 944.5078,261.5313 Q945.1563,261.6875 945.7188,261.9844 L945.7188,264.7031 Q945.0938,264.125 944.5,263.8516 Q943.9063,263.5781 943.2813,263.5781 Q941.9375,263.5781 941.25,264.6484 Q940.5625,265.7188 940.5625,267.8125 Q940.5625,269.9063 941.25,270.9766 Q941.9375,272.0469 943.2813,272.0469 Q943.9063,272.0469 944.5,271.7734 Q945.0938,271.5 945.7188,270.9219 L945.7188,273.6406 Z "/><text fill="#000000" font-family="sans-serif" font-size="12" lengthAdjust="spacingAndGlyphs" textLength="52" x="963.25" y="272.1543">Platform</text><line style="stroke: #A80036; stroke-width: 1.5;" x1="831.5" x2="1114.5" y1="284" y2="284"/><text fill="#000000" font-family="sans-serif" font-size="11" lengthAdjust="spacingAndGlyphs" textLength="108" x="836.5" y="298.2104">-String designation</text><line style="stroke: #A80036; stroke-width: 1.5;" x1="831.5" x2="1114.5" y1="304.8047" y2="304.8047"/><text fill="#000000" font-family="sans-serif" font-size="11" lengthAdjust="spacingAndGlyphs" textLength="273" x="836.5" y="319.0151">+OrganizationsRecord getOrganizationsRecord()</text><text fill="#000000" font-family="sans-serif" font-size="11" lengthAdjust="spacingAndGlyphs" textLength="251" x="836.5" y="331.8198">+FreelancersRecord getFreelancersRecord()</text><!--MD5=[c7635c972eb61a4e069c06c1240b28a8]
class FreelancersRecord--><rect fill="#FEFECE" filter="url(#f1og0nv8an9qie)" height="60.8047" id="FreelancersRecord" style="stroke: #A80036; stroke-width: 1.5;" width="278" x="1030" y="415"/><ellipse cx="1105.75" cy="431" fill="#ADD1B2" rx="11" ry="11" style="stroke: #A80036; stroke-width: 1.0;"/><path d="M1108.7188,436.6406 Q1108.1406,436.9375 1107.5,437.0859 Q1106.8594,437.2344 1106.1563,437.2344 Q1103.6563,437.2344 1102.3359,435.5859 Q1101.0156,433.9375 1101.0156,430.8125 Q1101.0156,427.6875 1102.3359,426.0313 Q1103.6563,424.375 1106.1563,424.375 Q1106.8594,424.375 1107.5078,424.5313 Q1108.1563,424.6875 1108.7188,424.9844 L1108.7188,427.7031 Q1108.0938,427.125 1107.5,426.8516 Q1106.9063,426.5781 1106.2813,426.5781 Q1104.9375,426.5781 1104.25,427.6484 Q1103.5625,428.7188 1103.5625,430.8125 Q1103.5625,432.9063 1104.25,433.9766 Q1104.9375,435.0469 1106.2813,435.0469 Q1106.9063,435.0469 1107.5,434.7734 Q1108.0938,434.5 1108.7188,433.9219 L1108.7188,436.6406 Z "/><text fill="#000000" font-family="sans-serif" font-size="12" lengthAdjust="spacingAndGlyphs" textLength="118" x="1126.25" y="435.1543">FreelancersRecord</text><line style="stroke: #A80036; stroke-width: 1.5;" x1="1031" x2="1307" y1="447" y2="447"/><line style="stroke: #A80036; stroke-width: 1.5;" x1="1031" x2="1307" y1="455" y2="455"/><text fill="#000000" font-family="sans-serif" font-size="11" lengthAdjust="spacingAndGlyphs" textLength="266" x="1036" y="469.2104">+getFreelancerByStringValue(freelancerString)</text><!--MD5=[759d9d4bd7fe37fb1c4b72776400893c]
class OrganizationsRecord--><rect fill="#FEFECE" filter="url(#f1og0nv8an9qie)" height="60.8047" id="OrganizationsRecord" style="stroke: #A80036; stroke-width: 1.5;" width="221" x="637.5" y="415"/><ellipse cx="679.5" cy="431" fill="#ADD1B2" rx="11" ry="11" style="stroke: #A80036; stroke-width: 1.0;"/><path d="M682.4688,436.6406 Q681.8906,436.9375 681.25,437.0859 Q680.6094,437.2344 679.9063,437.2344 Q677.4063,437.2344 676.0859,435.5859 Q674.7656,433.9375 674.7656,430.8125 Q674.7656,427.6875 676.0859,426.0313 Q677.4063,424.375 679.9063,424.375 Q680.6094,424.375 681.2578,424.5313 Q681.9063,424.6875 682.4688,424.9844 L682.4688,427.7031 Q681.8438,427.125 681.25,426.8516 Q680.6563,426.5781 680.0313,426.5781 Q678.6875,426.5781 678,427.6484 Q677.3125,428.7188 677.3125,430.8125 Q677.3125,432.9063 678,433.9766 Q678.6875,435.0469 680.0313,435.0469 Q680.6563,435.0469 681.25,434.7734 Q681.8438,434.5 682.4688,433.9219 L682.4688,436.6406 Z "/><text fill="#000000" font-family="sans-serif" font-size="12" lengthAdjust="spacingAndGlyphs" textLength="129" x="699.5" y="435.1543">OrganizationsRecord</text><line style="stroke: #A80036; stroke-width: 1.5;" x1="638.5" x2="857.5" y1="447" y2="447"/><line style="stroke: #A80036; stroke-width: 1.5;" x1="638.5" x2="857.5" y1="455" y2="455"/><text fill="#000000" font-family="sans-serif" font-size="11" lengthAdjust="spacingAndGlyphs" textLength="209" x="643.5" y="469.2104">+getOrganizationByUserEmail(email)</text><!--MD5=[9ab0068e71df7f673644752c40fe3ac4]
class CreatePaymentTransactionController--><rect fill="#FEFECE" filter="url(#f1og0nv8an9qie)" height="73.6094" id="CreatePaymentTransactionController" style="stroke: #A80036; stroke-width: 1.5;" width="588" x="348" y="117"/><ellipse cx="522.25" cy="133" fill="#ADD1B2" rx="11" ry="11" style="stroke: #A80036; stroke-width: 1.0;"/><path d="M525.2188,138.6406 Q524.6406,138.9375 524,139.0859 Q523.3594,139.2344 522.6563,139.2344 Q520.1563,139.2344 518.8359,137.5859 Q517.5156,135.9375 517.5156,132.8125 Q517.5156,129.6875 518.8359,128.0313 Q520.1563,126.375 522.6563,126.375 Q523.3594,126.375 524.0078,126.5313 Q524.6563,126.6875 525.2188,126.9844 L525.2188,129.7031 Q524.5938,129.125 524,128.8516 Q523.4063,128.5781 522.7813,128.5781 Q521.4375,128.5781 520.75,129.6484 Q520.0625,130.7188 520.0625,132.8125 Q520.0625,134.9063 520.75,135.9766 Q521.4375,137.0469 522.7813,137.0469 Q523.4063,137.0469 524,136.7734 Q524.5938,136.5 525.2188,135.9219 L525.2188,138.6406 Z "/><text fill="#000000" font-family="sans-serif" font-size="12" lengthAdjust="spacingAndGlyphs" textLength="231" x="542.75" y="137.1543">CreatePaymentTransactionController</text><line style="stroke: #A80036; stroke-width: 1.5;" x1="349" x2="935" y1="149" y2="149"/><line style="stroke: #A80036; stroke-width: 1.5;" x1="349" x2="935" y1="157" y2="157"/><text fill="#000000" font-family="sans-serif" font-size="11" lengthAdjust="spacingAndGlyphs" textLength="576" x="354" y="171.2104">+newPaymentTransaction(payTId, taskString, eDate, delay, workQualityDescription, freelancerString)</text><text fill="#000000" font-family="sans-serif" font-size="11" lengthAdjust="spacingAndGlyphs" textLength="180" x="354" y="184.0151">+paymentTransactionRegister()</text><!--MD5=[e472615a113cc15971a8fcaedb5e2163]
class CreatePaymentTransactionUI--><rect fill="#FEFECE" filter="url(#f1og0nv8an9qie)" height="48" id="CreatePaymentTransactionUI" style="stroke: #A80036; stroke-width: 1.5;" width="214" x="535" y="8"/><ellipse cx="550" cy="24" fill="#ADD1B2" rx="11" ry="11" style="stroke: #A80036; stroke-width: 1.0;"/><path d="M552.9688,29.6406 Q552.3906,29.9375 551.75,30.0859 Q551.1094,30.2344 550.4063,30.2344 Q547.9063,30.2344 546.5859,28.5859 Q545.2656,26.9375 545.2656,23.8125 Q545.2656,20.6875 546.5859,19.0313 Q547.9063,17.375 550.4063,17.375 Q551.1094,17.375 551.7578,17.5313 Q552.4063,17.6875 552.9688,17.9844 L552.9688,20.7031 Q552.3438,20.125 551.75,19.8516 Q551.1563,19.5781 550.5313,19.5781 Q549.1875,19.5781 548.5,20.6484 Q547.8125,21.7188 547.8125,23.8125 Q547.8125,25.9063 548.5,26.9766 Q549.1875,28.0469 550.5313,28.0469 Q551.1563,28.0469 551.75,27.7734 Q552.3438,27.5 552.9688,26.9219 L552.9688,29.6406 Z "/><text fill="#000000" font-family="sans-serif" font-size="12" lengthAdjust="spacingAndGlyphs" textLength="182" x="564" y="28.1543">CreatePaymentTransactionUI</text><line style="stroke: #A80036; stroke-width: 1.5;" x1="536" x2="748" y1="40" y2="40"/><line style="stroke: #A80036; stroke-width: 1.5;" x1="536" x2="748" y1="48" y2="48"/><!--MD5=[b645a18afb25b7e5623af7186d8eb36f]
class PaymentTransaction--><rect fill="#FEFECE" filter="url(#f1og0nv8an9qie)" height="124.8281" id="PaymentTransaction" style="stroke: #A80036; stroke-width: 1.5;" width="476" x="426" y="905"/><ellipse cx="595.75" cy="921" fill="#ADD1B2" rx="11" ry="11" style="stroke: #A80036; stroke-width: 1.0;"/><path d="M598.7188,926.6406 Q598.1406,926.9375 597.5,927.0859 Q596.8594,927.2344 596.1563,927.2344 Q593.6563,927.2344 592.3359,925.5859 Q591.0156,923.9375 591.0156,920.8125 Q591.0156,917.6875 592.3359,916.0313 Q593.6563,914.375 596.1563,914.375 Q596.8594,914.375 597.5078,914.5313 Q598.1563,914.6875 598.7188,914.9844 L598.7188,917.7031 Q598.0938,917.125 597.5,916.8516 Q596.9063,916.5781 596.2813,916.5781 Q594.9375,916.5781 594.25,917.6484 Q593.5625,918.7188 593.5625,920.8125 Q593.5625,922.9063 594.25,923.9766 Q594.9375,925.0469 596.2813,925.0469 Q596.9063,925.0469 597.5,924.7734 Q598.0938,924.5 598.7188,923.9219 L598.7188,926.6406 Z "/><text fill="#000000" font-family="sans-serif" font-size="12" lengthAdjust="spacingAndGlyphs" textLength="128" x="616.25" y="925.1543">PaymentTransaction</text><line style="stroke: #A80036; stroke-width: 1.5;" x1="427" x2="901" y1="937" y2="937"/><text fill="#000000" font-family="sans-serif" font-size="11" lengthAdjust="spacingAndGlyphs" textLength="52" x="432" y="951.2104">-String id</text><text fill="#000000" font-family="sans-serif" font-size="11" lengthAdjust="spacingAndGlyphs" textLength="81" x="432" y="964.0151">-Date endDate</text><text fill="#000000" font-family="sans-serif" font-size="11" lengthAdjust="spacingAndGlyphs" textLength="78" x="432" y="976.8198">-Integer delay</text><text fill="#000000" font-family="sans-serif" font-size="11" lengthAdjust="spacingAndGlyphs" textLength="172" x="432" y="989.6245">-String workQualityDescription</text><line style="stroke: #A80036; stroke-width: 1.5;" x1="427" x2="901" y1="996.2188" y2="996.2188"/><text fill="#000000" font-family="sans-serif" font-size="11" lengthAdjust="spacingAndGlyphs" textLength="186" x="432" y="1010.4292">+generatePayAmount(task, free)</text><text fill="#000000" font-family="sans-serif" font-size="11" lengthAdjust="spacingAndGlyphs" textLength="464" x="432" y="1023.2339">+PaymentTransaction(payTId, task, free, endDate, delay, workQualityDescription)</text><!--MD5=[ba54b1997298830925be59f10364c919]
class PaymentTransactionList--><rect fill="#FEFECE" filter="url(#f1og0nv8an9qie)" height="99.2188" id="PaymentTransactionList" style="stroke: #A80036; stroke-width: 1.5;" width="499" x="393.5" y="729"/><ellipse cx="564.25" cy="745" fill="#ADD1B2" rx="11" ry="11" style="stroke: #A80036; stroke-width: 1.0;"/><path d="M567.2188,750.6406 Q566.6406,750.9375 566,751.0859 Q565.3594,751.2344 564.6563,751.2344 Q562.1563,751.2344 560.8359,749.5859 Q559.5156,747.9375 559.5156,744.8125 Q559.5156,741.6875 560.8359,740.0313 Q562.1563,738.375 564.6563,738.375 Q565.3594,738.375 566.0078,738.5313 Q566.6563,738.6875 567.2188,738.9844 L567.2188,741.7031 Q566.5938,741.125 566,740.8516 Q565.4063,740.5781 564.7813,740.5781 Q563.4375,740.5781 562.75,741.6484 Q562.0625,742.7188 562.0625,744.8125 Q562.0625,746.9063 562.75,747.9766 Q563.4375,749.0469 564.7813,749.0469 Q565.4063,749.0469 566,748.7734 Q566.5938,748.5 567.2188,747.9219 L567.2188,750.6406 Z "/><text fill="#000000" font-family="sans-serif" font-size="12" lengthAdjust="spacingAndGlyphs" textLength="149" x="584.75" y="749.1543">PaymentTransactionList</text><line style="stroke: #A80036; stroke-width: 1.5;" x1="394.5" x2="891.5" y1="761" y2="761"/><line style="stroke: #A80036; stroke-width: 1.5;" x1="394.5" x2="891.5" y1="769" y2="769"/><text fill="#000000" font-family="sans-serif" font-size="11" lengthAdjust="spacingAndGlyphs" textLength="487" x="399.5" y="783.2104">+newPaymentTransaction(payTId, task, free, endDate, delay, workQualityDescription)</text><text fill="#000000" font-family="sans-serif" font-size="11" lengthAdjust="spacingAndGlyphs" textLength="204" x="399.5" y="796.0151">+validatePaymentTransaction(payT)</text><text fill="#000000" font-family="sans-serif" font-size="11" lengthAdjust="spacingAndGlyphs" textLength="207" x="399.5" y="808.8198">+paymentTransactionRegister(payT)</text><text fill="#000000" font-family="sans-serif" font-size="11" lengthAdjust="spacingAndGlyphs" textLength="181" x="399.5" y="821.6245">+addPaymentTransaction(payT)</text><!--MD5=[7829b64950ce38e0487c4015ea331f97]
class Date--><rect fill="#FEFECE" filter="url(#f1og0nv8an9qie)" height="60.8047" id="Date" style="stroke: #A80036; stroke-width: 1.5;" width="178" x="1222" y="264.5"/><ellipse cx="1291.75" cy="280.5" fill="#ADD1B2" rx="11" ry="11" style="stroke: #A80036; stroke-width: 1.0;"/><path d="M1294.7188,286.1406 Q1294.1406,286.4375 1293.5,286.5859 Q1292.8594,286.7344 1292.1563,286.7344 Q1289.6563,286.7344 1288.3359,285.0859 Q1287.0156,283.4375 1287.0156,280.3125 Q1287.0156,277.1875 1288.3359,275.5313 Q1289.6563,273.875 1292.1563,273.875 Q1292.8594,273.875 1293.5078,274.0313 Q1294.1563,274.1875 1294.7188,274.4844 L1294.7188,277.2031 Q1294.0938,276.625 1293.5,276.3516 Q1292.9063,276.0781 1292.2813,276.0781 Q1290.9375,276.0781 1290.25,277.1484 Q1289.5625,278.2188 1289.5625,280.3125 Q1289.5625,282.4063 1290.25,283.4766 Q1290.9375,284.5469 1292.2813,284.5469 Q1292.9063,284.5469 1293.5,284.2734 Q1294.0938,284 1294.7188,283.4219 L1294.7188,286.1406 Z "/><text fill="#000000" font-family="sans-serif" font-size="12" lengthAdjust="spacingAndGlyphs" textLength="30" x="1312.25" y="284.6543">Date</text><line style="stroke: #A80036; stroke-width: 1.5;" x1="1223" x2="1399" y1="296.5" y2="296.5"/><line style="stroke: #A80036; stroke-width: 1.5;" x1="1223" x2="1399" y1="304.5" y2="304.5"/><text fill="#000000" font-family="sans-serif" font-size="11" lengthAdjust="spacingAndGlyphs" textLength="166" x="1228" y="318.7104">+convertStringToDate(eDate)</text><!--MD5=[d75f8faab7003fe4f7fadde3e00b3cf7]
link CreatePaymentTransactionUI to CreatePaymentTransactionController--><path d="M642,56.1033 C642,71.972 642,93.1768 642,111.7934 " fill="none" id="CreatePaymentTransactionUI-&gt;CreatePaymentTransactionController" style="stroke: #A80036; stroke-width: 1.0; stroke-dasharray: 7.0,7.0;"/><polygon fill="#A80036" points="642,116.9691,646,107.9691,642,111.9691,638,107.9691,642,116.9691" style="stroke: #A80036; stroke-width: 1.0;"/><!--MD5=[c21c0329c000ce3a64d50b793859385d]
link CreatePaymentTransactionController to Platform--><path d="M731.9473,191.1294 C755.1288,200.7813 780.0186,211.2171 803,221 C824.7055,230.2398 847.9157,240.2539 869.9902,249.8418 " fill="none" id="CreatePaymentTransactionController-&gt;Platform" style="stroke: #A80036; stroke-width: 1.0; stroke-dasharray: 7.0,7.0;"/><polygon fill="#A80036" points="874.6825,251.8809,868.0225,244.6252,870.0968,249.8881,864.834,251.9623,874.6825,251.8809" style="stroke: #A80036; stroke-width: 1.0;"/><!--MD5=[f04e3b22971df4e8085f55a70756c755]
link CreatePaymentTransactionController to Task--><path d="M507.7797,191.0943 C427.1229,217.4947 340,255.2188 340,295 C340,295 340,295 340,967.5 C340,1094.8841 464.4079,982.109 752,1107 C753.7641,1107.7661 755.5301,1108.5717 757.2947,1109.4121 " fill="none" id="CreatePaymentTransactionController-&gt;Task" style="stroke: #A80036; stroke-width: 1.0; stroke-dasharray: 7.0,7.0;"/><polygon fill="#A80036" points="761.9594,1111.7141,755.6588,1104.1443,757.4756,1109.5014,752.1185,1111.3183,761.9594,1111.7141" style="stroke: #A80036; stroke-width: 1.0;"/><!--MD5=[d808bb2ca26b86ab5f675405e49fd624]
link CreatePaymentTransactionController to Organization--><path d="M634.12,191.4135 C622.6187,251.6767 604.2312,373.8286 620,476 C623.7236,500.1264 631.2199,525.9578 638.7269,547.9472 " fill="none" id="CreatePaymentTransactionController-&gt;Organization" style="stroke: #A80036; stroke-width: 1.0; stroke-dasharray: 7.0,7.0;"/><polygon fill="#A80036" points="640.4288,552.8681,641.2674,543.055,638.7945,548.1427,633.7068,545.6698,640.4288,552.8681" style="stroke: #A80036; stroke-width: 1.0;"/><!--MD5=[c3f8496c633e2f7f52d8bf9bc86aad29]
link CreatePaymentTransactionController to POTApplication--><path d="M392.4238,191.0414 C316.301,205.9447 233.1606,225.9258 159,252 C155.0752,253.3799 151.101,254.9038 147.125,256.5302 " fill="none" id="CreatePaymentTransactionController-&gt;POTApplication" style="stroke: #A80036; stroke-width: 1.0; stroke-dasharray: 7.0,7.0;"/><polygon fill="#A80036" points="142.4595,258.4839,152.306,258.6972,147.0715,256.5526,149.216,251.318,142.4595,258.4839" style="stroke: #A80036; stroke-width: 1.0;"/><!--MD5=[044b46cd6ff48909710cb1d203e462f9]
link CreatePaymentTransactionController to UserSession--><path d="M417.3947,191.0384 C373.3232,200.3692 334.4259,210.6801 314,221 C294.5926,230.8053 276.2901,246.4424 261.9211,260.8215 " fill="none" id="CreatePaymentTransactionController-&gt;UserSession" style="stroke: #A80036; stroke-width: 1.0; stroke-dasharray: 7.0,7.0;"/><polygon fill="#A80036" points="258.3545,264.4457,267.5183,260.8367,261.8616,260.882,261.8164,255.2253,258.3545,264.4457" style="stroke: #A80036; stroke-width: 1.0;"/><!--MD5=[da3ba2fd2050f5fe3136cfce7fae0061]
link CreatePaymentTransactionController to TaskList--><path d="M671.7276,191.3547 C709.5767,238.1855 777.7865,320.1811 842,385 C856.183,399.3167 864.1637,398.6897 876,415 C953.9125,522.3626 1003.5737,674.4111 1023.3043,742.7722 " fill="none" id="CreatePaymentTransactionController-&gt;TaskList" style="stroke: #A80036; stroke-width: 1.0; stroke-dasharray: 7.0,7.0;"/><polygon fill="#A80036" points="1024.7854,747.9424,1026.1521,738.1888,1023.4084,743.1358,1018.4614,740.3921,1024.7854,747.9424" style="stroke: #A80036; stroke-width: 1.0;"/><!--MD5=[546fd7e0e055f1eba4c284893e3481a0]
link CreatePaymentTransactionController to FreelancersRecord--><path d="M936.0588,184.9276 C1022.9016,199.8919 1102.8506,221.4542 1133,252 C1174.1729,293.7142 1176.3335,366.3985 1173.2765,409.8242 " fill="none" id="CreatePaymentTransactionController-&gt;FreelancersRecord" style="stroke: #A80036; stroke-width: 1.0; stroke-dasharray: 7.0,7.0;"/><polygon fill="#A80036" points="1172.8801,414.9709,1177.5597,406.3048,1173.2642,409.9857,1169.5834,405.6902,1172.8801,414.9709" style="stroke: #A80036; stroke-width: 1.0;"/><!--MD5=[19aba29190c83d802a073857acc5c053]
link CreatePaymentTransactionController to OrganizationsRecord--><path d="M655.5326,191.2148 C676.0661,247.6817 714.8329,354.2905 735.0284,409.828 " fill="none" id="CreatePaymentTransactionController-&gt;OrganizationsRecord" style="stroke: #A80036; stroke-width: 1.0; stroke-dasharray: 7.0,7.0;"/><polygon fill="#A80036" points="736.8052,414.7142,737.4886,404.8891,735.0965,410.0152,729.9703,407.6231,736.8052,414.7142" style="stroke: #A80036; stroke-width: 1.0;"/><!--MD5=[59ac9a6802ae404b65a1b78c8af4ba66]
link CreatePaymentTransactionController to PaymentTransactionList--><path d="M579.3894,191.2176 C546.5221,215.9075 513,251.7023 513,295 C513,295 513,295 513,602.5 C513,650.1367 544.1943,693.3357 576.0216,725.0139 " fill="none" id="CreatePaymentTransactionController-&gt;PaymentTransactionList" style="stroke: #A80036; stroke-width: 1.0; stroke-dasharray: 7.0,7.0;"/><polygon fill="#A80036" points="579.9041,728.8195,576.2766,719.663,576.3333,725.3196,570.6767,725.3763,579.9041,728.8195" style="stroke: #A80036; stroke-width: 1.0;"/><!--MD5=[b56d67246e7766ab3ab92921b292528b]
link CreatePaymentTransactionController to Date--><path d="M936.0681,177.8878 C1041.4526,188.9373 1146.2386,203.5202 1195,221 C1221.2461,230.4086 1247.6727,246.6206 1268.6594,261.4763 " fill="none" id="CreatePaymentTransactionController-&gt;Date" style="stroke: #A80036; stroke-width: 1.0; stroke-dasharray: 7.0,7.0;"/><polygon fill="#A80036" points="1272.7825,264.427,1267.7915,255.9364,1268.7165,261.5171,1263.1357,262.442,1272.7825,264.427" style="stroke: #A80036; stroke-width: 1.0;"/><!--MD5=[d77b6fe82f72fca34ebf8190bf84198d]
link Platform to FreelancersRecord--><path d="M1029.1657,338.1273 C1059.5704,361.4737 1096.5888,389.8985 1124.8979,411.6359 " fill="none" id="Platform-&gt;FreelancersRecord" style="stroke: #A80036; stroke-width: 1.0;"/><polygon fill="#A80036" points="1129.0097,414.7931,1124.3074,406.1393,1125.0439,411.748,1119.4352,412.4846,1129.0097,414.7931" style="stroke: #A80036; stroke-width: 1.0;"/><text fill="#000000" font-family="sans-serif" font-size="13" lengthAdjust="spacingAndGlyphs" textLength="23" x="1089" y="381.0669">has</text><text fill="#000000" font-family="sans-serif" font-size="13" lengthAdjust="spacingAndGlyphs" textLength="8" x="1029.8056" y="358.5561">1</text><text fill="#000000" font-family="sans-serif" font-size="13" lengthAdjust="spacingAndGlyphs" textLength="8" x="1111.9367" y="404.0137">1</text><!--MD5=[d9ffa4e24b0f90d8cdc0d9eb36306584]
link Platform to OrganizationsRecord--><path d="M908.524,338.1273 C873.4777,361.5694 830.7766,390.1316 798.2283,411.9028 " fill="none" id="Platform-&gt;OrganizationsRecord" style="stroke: #A80036; stroke-width: 1.0;"/><polygon fill="#A80036" points="793.9073,414.7931,803.612,413.1142,798.0633,412.0132,799.1642,406.4645,793.9073,414.7931" style="stroke: #A80036; stroke-width: 1.0;"/><text fill="#000000" font-family="sans-serif" font-size="13" lengthAdjust="spacingAndGlyphs" textLength="23" x="862" y="381.0669">has</text><text fill="#000000" font-family="sans-serif" font-size="13" lengthAdjust="spacingAndGlyphs" textLength="8" x="889.1827" y="358.5561">1</text><text fill="#000000" font-family="sans-serif" font-size="13" lengthAdjust="spacingAndGlyphs" textLength="8" x="794.5507" y="404.0137">1</text><!--MD5=[0634d34efc8f03ad94b2231e46fef7de]
link FreelancersRecord to Freelancer--><path d="M1176.2142,476.2859 C1182.9594,507.7999 1192,558.2857 1192,602.5 C1192,602.5 1192,602.5 1192,1163 C1192,1293.42 1012.173,1343.4532 907.4196,1361.5347 " fill="none" id="FreelancersRecord-&gt;Freelancer" style="stroke: #A80036; stroke-width: 1.0;"/><polygon fill="#A80036" points="902.1797,1362.4234,911.7219,1364.862,907.1093,1361.5873,910.384,1356.9747,902.1797,1362.4234" style="stroke: #A80036; stroke-width: 1.0;"/><text fill="#000000" font-family="sans-serif" font-size="13" lengthAdjust="spacingAndGlyphs" textLength="23" x="1193" y="871.0669">has</text><text fill="#000000" font-family="sans-serif" font-size="13" lengthAdjust="spacingAndGlyphs" textLength="8" x="1168.847" y="495.9226">1</text><text fill="#000000" font-family="sans-serif" font-size="13" lengthAdjust="spacingAndGlyphs" textLength="7" x="910.0197" y="1357.7153">*</text><!--MD5=[15b500351a20fc4c9aef6172f83f2b2a]
link OrganizationsRecord to Organization--><path d="M730.8238,476.1439 C719.3343,496.6421 703.8989,524.1803 690.3707,548.3158 " fill="none" id="OrganizationsRecord-&gt;Organization" style="stroke: #A80036; stroke-width: 1.0;"/><polygon fill="#A80036" points="687.8683,552.7804,695.7581,546.8853,690.313,548.4188,688.7795,542.9738,687.8683,552.7804" style="stroke: #A80036; stroke-width: 1.0;"/><text fill="#000000" font-family="sans-serif" font-size="13" lengthAdjust="spacingAndGlyphs" textLength="23" x="713" y="519.0669">has</text><text fill="#000000" font-family="sans-serif" font-size="13" lengthAdjust="spacingAndGlyphs" textLength="8" x="718.6547" y="495.7527">1</text><text fill="#000000" font-family="sans-serif" font-size="13" lengthAdjust="spacingAndGlyphs" textLength="7" x="684.2951" y="541.7947">*</text><!--MD5=[522c679f4dd7ba84a6aa9ac03f58229d]
link Organization to TaskList--><path d="M751.6721,646.8595 C785.9257,663.3429 825.1946,682.1312 861,699 C893.909,714.5042 930.4814,731.4482 961.4114,745.6951 " fill="none" id="Organization-&gt;TaskList" style="stroke: #A80036; stroke-width: 1.0;"/><polygon fill="#A80036" points="966.3257,747.9578,959.8238,740.5601,961.7841,745.8665,956.4777,747.8267,966.3257,747.9578" style="stroke: #A80036; stroke-width: 1.0;"/><text fill="#000000" font-family="sans-serif" font-size="13" lengthAdjust="spacingAndGlyphs" textLength="23" x="862" y="695.0669">has</text><text fill="#000000" font-family="sans-serif" font-size="13" lengthAdjust="spacingAndGlyphs" textLength="8" x="759.5949" y="646.9753">1</text><text fill="#000000" font-family="sans-serif" font-size="13" lengthAdjust="spacingAndGlyphs" textLength="8" x="942.8657" y="736.7389">1</text><!--MD5=[322d55b5ad1658b7791494cedb432ac7]
link Organization to PaymentTransactionList--><path d="M655.174,652.4638 C653.0293,674.667 650.4983,700.8705 648.3011,723.6176 " fill="none" id="Organization-&gt;PaymentTransactionList" style="stroke: #A80036; stroke-width: 1.0;"/><polygon fill="#A80036" points="647.8087,728.7161,652.6557,720.1425,648.2896,723.7393,644.6928,719.3731,647.8087,728.7161" style="stroke: #A80036; stroke-width: 1.0;"/><text fill="#000000" font-family="sans-serif" font-size="13" lengthAdjust="spacingAndGlyphs" textLength="23" x="654" y="695.0669">has</text><text fill="#000000" font-family="sans-serif" font-size="13" lengthAdjust="spacingAndGlyphs" textLength="8" x="645.988" y="672.2466">1</text><text fill="#000000" font-family="sans-serif" font-size="13" lengthAdjust="spacingAndGlyphs" textLength="8" x="639.9174" y="718.0797">1</text><!--MD5=[ad9e6b825fedf9daad488846d3a92887]
link PaymentTransactionList to PaymentTransaction--><path d="M648.5175,828.1575 C650.9567,850.1106 653.863,876.2667 656.4952,899.9564 " fill="none" id="PaymentTransactionList-&gt;PaymentTransaction" style="stroke: #A80036; stroke-width: 1.0;"/><polygon fill="#A80036" points="657.0524,904.9717,660.0338,895.5849,656.5001,900.0023,652.0828,896.4686,657.0524,904.9717" style="stroke: #A80036; stroke-width: 1.0;"/><text fill="#000000" font-family="sans-serif" font-size="13" lengthAdjust="spacingAndGlyphs" textLength="23" x="655" y="871.0669">has</text><text fill="#000000" font-family="sans-serif" font-size="13" lengthAdjust="spacingAndGlyphs" textLength="8" x="640.7309" y="848.2561">1</text><text fill="#000000" font-family="sans-serif" font-size="13" lengthAdjust="spacingAndGlyphs" textLength="7" x="648.8444" y="893.9592">*</text><!--MD5=[14c738364c5fdafcb97ced6863906d7f]
link TaskList to Task--><path d="M1020.6833,809.3779 C1001.115,857.5063 960.8381,952.8899 919,1030 C905.8293,1054.2743 889.8552,1080.0487 875.3262,1102.38 " fill="none" id="TaskList-&gt;Task" style="stroke: #A80036; stroke-width: 1.0;"/><polygon fill="#A80036" points="872.4409,1106.7988,880.7105,1101.4497,875.1744,1102.6122,874.0119,1097.076,872.4409,1106.7988" style="stroke: #A80036; stroke-width: 1.0;"/><text fill="#000000" font-family="sans-serif" font-size="13" lengthAdjust="spacingAndGlyphs" textLength="23" x="981" y="972.0669">has</text><text fill="#000000" font-family="sans-serif" font-size="13" lengthAdjust="spacingAndGlyphs" textLength="8" x="1009.5729" y="828.7919">1</text><text fill="#000000" font-family="sans-serif" font-size="13" lengthAdjust="spacingAndGlyphs" textLength="7" x="869.6993" y="1096.1088">*</text><!--MD5=[8853e9d83a8841c20c4ef075af762602]
link Task to Freelancer--><path d="M834,1219.0138 C834,1241.0314 834,1266.7242 834,1290.6529 " fill="none" id="Task-&gt;Freelancer" style="stroke: #A80036; stroke-width: 1.0;"/><polygon fill="#A80036" points="834,1295.7303,838,1286.7303,834,1290.7303,830,1286.7303,834,1295.7303" style="stroke: #A80036; stroke-width: 1.0;"/><text fill="#000000" font-family="sans-serif" font-size="13" lengthAdjust="spacingAndGlyphs" textLength="88" x="835" y="1262.0669">is assigned to</text><text fill="#000000" font-family="sans-serif" font-size="13" lengthAdjust="spacingAndGlyphs" textLength="23" x="809.5266" y="1239.2254">1..*</text><text fill="#000000" font-family="sans-serif" font-size="13" lengthAdjust="spacingAndGlyphs" textLength="8" x="825.6188" y="1284.8937">1</text><!--MD5=[f6802b286771c18a16ea4be983074371]
link PaymentTransaction to Freelancer--><path d="M656.3325,1030.1688 C652.5927,1082.9445 653.7038,1159.1798 681,1219 C698.7763,1257.9571 731.205,1292.4424 761.6467,1318.6765 " fill="none" id="PaymentTransaction-&gt;Freelancer" style="stroke: #A80036; stroke-width: 1.0;"/><polygon fill="#A80036" points="765.7335,1322.1598,761.4786,1313.2775,761.9282,1318.9164,756.2892,1319.366,765.7335,1322.1598" style="stroke: #A80036; stroke-width: 1.0;"/><text fill="#000000" font-family="sans-serif" font-size="13" lengthAdjust="spacingAndGlyphs" textLength="61" x="682" y="1167.5669">relates to</text><text fill="#000000" font-family="sans-serif" font-size="13" lengthAdjust="spacingAndGlyphs" textLength="8" x="647.0564" y="1049.9271">1</text><text fill="#000000" font-family="sans-serif" font-size="13" lengthAdjust="spacingAndGlyphs" textLength="8" x="749.8294" y="1313.0478">1</text><!--MD5=[271ce7fefd7250ebaca83b70495774bd]
link PaymentTransaction to Task--><path d="M718.4905,1030.1641 C738.7798,1053.4968 761.7431,1079.9046 781.8202,1102.9932 " fill="none" id="PaymentTransaction-&gt;Task" style="stroke: #A80036; stroke-width: 1.0;"/><polygon fill="#A80036" points="785.2746,1106.9658,782.3872,1097.5497,781.9936,1103.1928,776.3505,1102.7992,785.2746,1106.9658" style="stroke: #A80036; stroke-width: 1.0;"/><text fill="#000000" font-family="sans-serif" font-size="13" lengthAdjust="spacingAndGlyphs" textLength="61" x="761" y="1073.0669">relates to</text><text fill="#000000" font-family="sans-serif" font-size="13" lengthAdjust="spacingAndGlyphs" textLength="8" x="716.0129" y="1049.9219">1</text><text fill="#000000" font-family="sans-serif" font-size="13" lengthAdjust="spacingAndGlyphs" textLength="8" x="770.5192" y="1095.8994">1</text><!--MD5=[21ab3d7a10d6d1f846350462428a3604]
@startuml
skinparam classAttributeIconSize 0

class POTApplication
{
  +static getInstance()
  +getCurrentSession()
}

class UserSession
{
  +getUserEmail()
}

class Task {
  -String id
  -String briefDescription
  -Integer timeDuration
  -Double costPerHour
  -String taskCategory
}

class Freelancer {
  -String id
  -String name
  -String expertiseLevel
  -String email
  -String NIF
  -String IBAN
  -String address
  -String country
}

class Organization {
  -String name
  -String NIF
  +getTaskList()
  +getPaymentTransactionList()
  
}

class TaskList {
  +getTaskByStringValue(taskString)
}

class Platform {
  -String designation
  +OrganizationsRecord getOrganizationsRecord()
  +FreelancersRecord getFreelancersRecord()
}

class FreelancersRecord {
  +getFreelancerByStringValue(freelancerString)
}

class OrganizationsRecord {
  +getOrganizationByUserEmail(email)
}

class CreatePaymentTransactionController {
  +newPaymentTransaction(payTId, taskString, eDate, delay, workQualityDescription, freelancerString)
  +paymentTransactionRegister()
}

class CreatePaymentTransactionUI {
}

class PaymentTransaction{
  -String id
  -Date endDate
  -Integer delay
  -String workQualityDescription
  +generatePayAmount(task, free)
  +PaymentTransaction(payTId, task, free, endDate, delay, workQualityDescription)
}

class PaymentTransactionList{
  +newPaymentTransaction(payTId, task, free, endDate, delay, workQualityDescription)
  +validatePaymentTransaction(payT)
  +paymentTransactionRegister(payT)
  +addPaymentTransaction(payT)
}

class Date {
 +convertStringToDate(eDate) 
}

CreatePaymentTransactionUI ..> CreatePaymentTransactionController
CreatePaymentTransactionController ..> Platform
CreatePaymentTransactionController ..> Task
CreatePaymentTransactionController ..> Organization
CreatePaymentTransactionController ..> POTApplication
CreatePaymentTransactionController ..> UserSession
CreatePaymentTransactionController ..> TaskList
CreatePaymentTransactionController ..> FreelancersRecord
CreatePaymentTransactionController ..> OrganizationsRecord
CreatePaymentTransactionController ..> PaymentTransactionList
CreatePaymentTransactionController ..> Date
Platform "1" - -> "1" FreelancersRecord : has
Platform "1" - -> "1" OrganizationsRecord : has

FreelancersRecord "1" - -> "*" Freelancer : has
OrganizationsRecord "1" - -> "*" Organization : has
Organization "1" - -> "1" TaskList : has
Organization "1" - -> "1" PaymentTransactionList : has
PaymentTransactionList "1" - -> "*" PaymentTransaction : has
TaskList "1" - -> "*" Task : has
Task "1..*" - -> "1" Freelancer : is assigned to

PaymentTransaction "1" - -> "1" Freelancer : relates to
PaymentTransaction "1" - -> "1" Task : relates to
@enduml

PlantUML version 1.2019.12(Sun Nov 03 10:24:54 UTC 2019)
(GPL source distribution)
Java Runtime: OpenJDK Runtime Environment
JVM: OpenJDK 64-Bit Server VM
Java Version: 1.8.0_232-heroku-b09
Operating System: Linux
Default Encoding: UTF-8
Language: en
Country: US
--></g></svg>