<?xml version="1.0" encoding="UTF-8" standalone="no"?><svg xmlns="http://www.w3.org/2000/svg" xmlns:xlink="http://www.w3.org/1999/xlink" contentScriptType="application/ecmascript" contentStyleType="text/css" height="1444px" preserveAspectRatio="none" style="width:1110px;height:1444px;" version="1.1" viewBox="0 0 1110 1444" width="1110px" zoomAndPan="magnify"><defs><filter height="300%" id="f1bmb84ctrfwr5" width="300%" x="-1" y="-1"><feGaussianBlur result="blurOut" stdDeviation="2.0"/><feColorMatrix in="blurOut" result="blurOut2" type="matrix" values="0 0 0 0 0 0 0 0 0 0 0 0 0 0 0 0 0 0 .4 0"/><feOffset dx="4.0" dy="4.0" in="blurOut2" result="blurOut3"/><feBlend in="SourceGraphic" in2="blurOut3" mode="normal"/></filter></defs><g><!--MD5=[52de6b799a0982f4494b9c19495c1271]
class POTApplication--><rect fill="#FEFECE" filter="url(#f1bmb84ctrfwr5)" height="73.6094" id="POTApplication" style="stroke: #A80036; stroke-width: 1.5;" width="136" x="6" y="283"/><ellipse cx="25.95" cy="299" fill="#ADD1B2" rx="11" ry="11" style="stroke: #A80036; stroke-width: 1.0;"/><path d="M28.9188,304.6406 Q28.3406,304.9375 27.7,305.0859 Q27.0594,305.2344 26.3563,305.2344 Q23.8563,305.2344 22.5359,303.5859 Q21.2156,301.9375 21.2156,298.8125 Q21.2156,295.6875 22.5359,294.0313 Q23.8563,292.375 26.3563,292.375 Q27.0594,292.375 27.7078,292.5313 Q28.3563,292.6875 28.9188,292.9844 L28.9188,295.7031 Q28.2938,295.125 27.7,294.8516 Q27.1063,294.5781 26.4813,294.5781 Q25.1375,294.5781 24.45,295.6484 Q23.7625,296.7188 23.7625,298.8125 Q23.7625,300.9063 24.45,301.9766 Q25.1375,303.0469 26.4813,303.0469 Q27.1063,303.0469 27.7,302.7734 Q28.2938,302.5 28.9188,301.9219 L28.9188,304.6406 Z "/><text fill="#000000" font-family="sans-serif" font-size="12" lengthAdjust="spacingAndGlyphs" textLength="93" x="41.05" y="303.1543">POTApplication</text><line style="stroke: #A80036; stroke-width: 1.5;" x1="7" x2="141" y1="315" y2="315"/><line style="stroke: #A80036; stroke-width: 1.5;" x1="7" x2="141" y1="323" y2="323"/><text fill="#000000" font-family="sans-serif" font-size="11" lengthAdjust="spacingAndGlyphs" textLength="118" x="12" y="337.2104">+static getInstance()</text><text fill="#000000" font-family="sans-serif" font-size="11" lengthAdjust="spacingAndGlyphs" textLength="124" x="12" y="350.0151">+getCurrentSession()</text><!--MD5=[c5b08e60048ef1bcd788d24cf324082e]
class UserSession--><rect fill="#FEFECE" filter="url(#f1bmb84ctrfwr5)" height="60.8047" id="UserSession" style="stroke: #A80036; stroke-width: 1.5;" width="110" x="177" y="289.5"/><ellipse cx="192" cy="305.5" fill="#ADD1B2" rx="11" ry="11" style="stroke: #A80036; stroke-width: 1.0;"/><path d="M194.9688,311.1406 Q194.3906,311.4375 193.75,311.5859 Q193.1094,311.7344 192.4063,311.7344 Q189.9063,311.7344 188.5859,310.0859 Q187.2656,308.4375 187.2656,305.3125 Q187.2656,302.1875 188.5859,300.5313 Q189.9063,298.875 192.4063,298.875 Q193.1094,298.875 193.7578,299.0313 Q194.4063,299.1875 194.9688,299.4844 L194.9688,302.2031 Q194.3438,301.625 193.75,301.3516 Q193.1563,301.0781 192.5313,301.0781 Q191.1875,301.0781 190.5,302.1484 Q189.8125,303.2188 189.8125,305.3125 Q189.8125,307.4063 190.5,308.4766 Q191.1875,309.5469 192.5313,309.5469 Q193.1563,309.5469 193.75,309.2734 Q194.3438,309 194.9688,308.4219 L194.9688,311.1406 Z "/><text fill="#000000" font-family="sans-serif" font-size="12" lengthAdjust="spacingAndGlyphs" textLength="78" x="206" y="309.6543">UserSession</text><line style="stroke: #A80036; stroke-width: 1.5;" x1="178" x2="286" y1="321.5" y2="321.5"/><line style="stroke: #A80036; stroke-width: 1.5;" x1="178" x2="286" y1="329.5" y2="329.5"/><text fill="#000000" font-family="sans-serif" font-size="11" lengthAdjust="spacingAndGlyphs" textLength="93" x="183" y="343.7104">+getUserEmail()</text><!--MD5=[b34797a66dc35cbf1d65f7e3ca75530e]
class Task--><rect fill="#FEFECE" filter="url(#f1bmb84ctrfwr5)" height="124.8281" id="Task" style="stroke: #A80036; stroke-width: 1.5;" width="150" x="519" y="1081"/><ellipse cx="575.25" cy="1097" fill="#ADD1B2" rx="11" ry="11" style="stroke: #A80036; stroke-width: 1.0;"/><path d="M578.2188,1102.6406 Q577.6406,1102.9375 577,1103.0859 Q576.3594,1103.2344 575.6563,1103.2344 Q573.1563,1103.2344 571.8359,1101.5859 Q570.5156,1099.9375 570.5156,1096.8125 Q570.5156,1093.6875 571.8359,1092.0313 Q573.1563,1090.375 575.6563,1090.375 Q576.3594,1090.375 577.0078,1090.5313 Q577.6563,1090.6875 578.2188,1090.9844 L578.2188,1093.7031 Q577.5938,1093.125 577,1092.8516 Q576.4063,1092.5781 575.7813,1092.5781 Q574.4375,1092.5781 573.75,1093.6484 Q573.0625,1094.7188 573.0625,1096.8125 Q573.0625,1098.9063 573.75,1099.9766 Q574.4375,1101.0469 575.7813,1101.0469 Q576.4063,1101.0469 577,1100.7734 Q577.5938,1100.5 578.2188,1099.9219 L578.2188,1102.6406 Z "/><text fill="#000000" font-family="sans-serif" font-size="12" lengthAdjust="spacingAndGlyphs" textLength="29" x="595.75" y="1101.1543">Task</text><line style="stroke: #A80036; stroke-width: 1.5;" x1="520" x2="668" y1="1113" y2="1113"/><text fill="#000000" font-family="sans-serif" font-size="11" lengthAdjust="spacingAndGlyphs" textLength="52" x="525" y="1127.2104">-String id</text><text fill="#000000" font-family="sans-serif" font-size="11" lengthAdjust="spacingAndGlyphs" textLength="132" x="525" y="1140.0151">-String briefDescription</text><text fill="#000000" font-family="sans-serif" font-size="11" lengthAdjust="spacingAndGlyphs" textLength="121" x="525" y="1152.8198">-Integer timeDuration</text><text fill="#000000" font-family="sans-serif" font-size="11" lengthAdjust="spacingAndGlyphs" textLength="117" x="525" y="1165.6245">-Double costPerHour</text><text fill="#000000" font-family="sans-serif" font-size="11" lengthAdjust="spacingAndGlyphs" textLength="117" x="525" y="1178.4292">-String taskCategory</text><line style="stroke: #A80036; stroke-width: 1.5;" x1="520" x2="668" y1="1185.0234" y2="1185.0234"/><text fill="#000000" font-family="sans-serif" font-size="11" lengthAdjust="spacingAndGlyphs" textLength="138" x="525" y="1199.2339">+getTaskExecData(task)</text><!--MD5=[1f687b5315377fe49fca59b457947463]
class Freelancer--><rect fill="#FEFECE" filter="url(#f1bmb84ctrfwr5)" height="150.4375" id="Freelancer" style="stroke: #A80036; stroke-width: 1.5;" width="136" x="493" y="1283"/><ellipse cx="524.65" cy="1299" fill="#ADD1B2" rx="11" ry="11" style="stroke: #A80036; stroke-width: 1.0;"/><path d="M527.6188,1304.6406 Q527.0406,1304.9375 526.4,1305.0859 Q525.7594,1305.2344 525.0563,1305.2344 Q522.5563,1305.2344 521.2359,1303.5859 Q519.9156,1301.9375 519.9156,1298.8125 Q519.9156,1295.6875 521.2359,1294.0313 Q522.5563,1292.375 525.0563,1292.375 Q525.7594,1292.375 526.4078,1292.5313 Q527.0563,1292.6875 527.6188,1292.9844 L527.6188,1295.7031 Q526.9938,1295.125 526.4,1294.8516 Q525.8063,1294.5781 525.1813,1294.5781 Q523.8375,1294.5781 523.15,1295.6484 Q522.4625,1296.7188 522.4625,1298.8125 Q522.4625,1300.9063 523.15,1301.9766 Q523.8375,1303.0469 525.1813,1303.0469 Q525.8063,1303.0469 526.4,1302.7734 Q526.9938,1302.5 527.6188,1301.9219 L527.6188,1304.6406 Z "/><text fill="#000000" font-family="sans-serif" font-size="12" lengthAdjust="spacingAndGlyphs" textLength="67" x="542.35" y="1303.1543">Freelancer</text><line style="stroke: #A80036; stroke-width: 1.5;" x1="494" x2="628" y1="1315" y2="1315"/><text fill="#000000" font-family="sans-serif" font-size="11" lengthAdjust="spacingAndGlyphs" textLength="52" x="499" y="1329.2104">-String id</text><text fill="#000000" font-family="sans-serif" font-size="11" lengthAdjust="spacingAndGlyphs" textLength="74" x="499" y="1342.0151">-String name</text><text fill="#000000" font-family="sans-serif" font-size="11" lengthAdjust="spacingAndGlyphs" textLength="124" x="499" y="1354.8198">-String expertiseLevel</text><text fill="#000000" font-family="sans-serif" font-size="11" lengthAdjust="spacingAndGlyphs" textLength="73" x="499" y="1367.6245">-String email</text><text fill="#000000" font-family="sans-serif" font-size="11" lengthAdjust="spacingAndGlyphs" textLength="59" x="499" y="1380.4292">-String NIF</text><text fill="#000000" font-family="sans-serif" font-size="11" lengthAdjust="spacingAndGlyphs" textLength="68" x="499" y="1393.2339">-String IBAN</text><text fill="#000000" font-family="sans-serif" font-size="11" lengthAdjust="spacingAndGlyphs" textLength="89" x="499" y="1406.0386">-String address</text><text fill="#000000" font-family="sans-serif" font-size="11" lengthAdjust="spacingAndGlyphs" textLength="84" x="499" y="1418.8433">-String country</text><line style="stroke: #A80036; stroke-width: 1.5;" x1="494" x2="628" y1="1425.4375" y2="1425.4375"/><!--MD5=[86c7c362de55a38b660185a1328fe18d]
class Organization--><rect fill="#FEFECE" filter="url(#f1bmb84ctrfwr5)" height="112.0234" id="Organization" style="stroke: #A80036; stroke-width: 1.5;" width="198" x="780" y="578"/><ellipse cx="835.75" cy="594" fill="#ADD1B2" rx="11" ry="11" style="stroke: #A80036; stroke-width: 1.0;"/><path d="M838.7188,599.6406 Q838.1406,599.9375 837.5,600.0859 Q836.8594,600.2344 836.1563,600.2344 Q833.6563,600.2344 832.3359,598.5859 Q831.0156,596.9375 831.0156,593.8125 Q831.0156,590.6875 832.3359,589.0313 Q833.6563,587.375 836.1563,587.375 Q836.8594,587.375 837.5078,587.5313 Q838.1563,587.6875 838.7188,587.9844 L838.7188,590.7031 Q838.0938,590.125 837.5,589.8516 Q836.9063,589.5781 836.2813,589.5781 Q834.9375,589.5781 834.25,590.6484 Q833.5625,591.7188 833.5625,593.8125 Q833.5625,595.9063 834.25,596.9766 Q834.9375,598.0469 836.2813,598.0469 Q836.9063,598.0469 837.5,597.7734 Q838.0938,597.5 838.7188,596.9219 L838.7188,599.6406 Z "/><text fill="#000000" font-family="sans-serif" font-size="12" lengthAdjust="spacingAndGlyphs" textLength="78" x="856.25" y="598.1543">Organization</text><line style="stroke: #A80036; stroke-width: 1.5;" x1="781" x2="977" y1="610" y2="610"/><text fill="#000000" font-family="sans-serif" font-size="11" lengthAdjust="spacingAndGlyphs" textLength="74" x="786" y="624.2104">-String name</text><text fill="#000000" font-family="sans-serif" font-size="11" lengthAdjust="spacingAndGlyphs" textLength="59" x="786" y="637.0151">-String NIF</text><line style="stroke: #A80036; stroke-width: 1.5;" x1="781" x2="977" y1="643.6094" y2="643.6094"/><text fill="#000000" font-family="sans-serif" font-size="11" lengthAdjust="spacingAndGlyphs" textLength="89" x="786" y="657.8198">+getTasksList()</text><text fill="#000000" font-family="sans-serif" font-size="11" lengthAdjust="spacingAndGlyphs" textLength="186" x="786" y="670.6245">+generatePayAmount(task, free)</text><text fill="#000000" font-family="sans-serif" font-size="11" lengthAdjust="spacingAndGlyphs" textLength="171" x="786" y="683.4292">+getPaymentTransactionList()</text><!--MD5=[bfe5ad1e6c67e1aa0bfa76859c3b49e3]
class TasksList--><rect fill="#FEFECE" filter="url(#f1bmb84ctrfwr5)" height="60.8047" id="TasksList" style="stroke: #A80036; stroke-width: 1.5;" width="121" x="590.5" y="786"/><ellipse cx="619.9" cy="802" fill="#ADD1B2" rx="11" ry="11" style="stroke: #A80036; stroke-width: 1.0;"/><path d="M622.8688,807.6406 Q622.2906,807.9375 621.65,808.0859 Q621.0094,808.2344 620.3063,808.2344 Q617.8063,808.2344 616.4859,806.5859 Q615.1656,804.9375 615.1656,801.8125 Q615.1656,798.6875 616.4859,797.0313 Q617.8063,795.375 620.3063,795.375 Q621.0094,795.375 621.6578,795.5313 Q622.3063,795.6875 622.8688,795.9844 L622.8688,798.7031 Q622.2438,798.125 621.65,797.8516 Q621.0563,797.5781 620.4313,797.5781 Q619.0875,797.5781 618.4,798.6484 Q617.7125,799.7188 617.7125,801.8125 Q617.7125,803.9063 618.4,804.9766 Q619.0875,806.0469 620.4313,806.0469 Q621.0563,806.0469 621.65,805.7734 Q622.2438,805.5 622.8688,804.9219 L622.8688,807.6406 Z "/><text fill="#000000" font-family="sans-serif" font-size="12" lengthAdjust="spacingAndGlyphs" textLength="57" x="637.1" y="806.1543">TasksList</text><line style="stroke: #A80036; stroke-width: 1.5;" x1="591.5" x2="710.5" y1="818" y2="818"/><line style="stroke: #A80036; stroke-width: 1.5;" x1="591.5" x2="710.5" y1="826" y2="826"/><text fill="#000000" font-family="sans-serif" font-size="11" lengthAdjust="spacingAndGlyphs" textLength="109" x="596.5" y="840.2104">+taskExists(taskId)</text><!--MD5=[99b8db98afdc2c8404e39242ef4c1e65]
class Platform--><rect fill="#FEFECE" filter="url(#f1bmb84ctrfwr5)" height="86.4141" id="Platform" style="stroke: #A80036; stroke-width: 1.5;" width="285" x="464.5" y="277"/><ellipse cx="576.75" cy="293" fill="#ADD1B2" rx="11" ry="11" style="stroke: #A80036; stroke-width: 1.0;"/><path d="M579.7188,298.6406 Q579.1406,298.9375 578.5,299.0859 Q577.8594,299.2344 577.1563,299.2344 Q574.6563,299.2344 573.3359,297.5859 Q572.0156,295.9375 572.0156,292.8125 Q572.0156,289.6875 573.3359,288.0313 Q574.6563,286.375 577.1563,286.375 Q577.8594,286.375 578.5078,286.5313 Q579.1563,286.6875 579.7188,286.9844 L579.7188,289.7031 Q579.0938,289.125 578.5,288.8516 Q577.9063,288.5781 577.2813,288.5781 Q575.9375,288.5781 575.25,289.6484 Q574.5625,290.7188 574.5625,292.8125 Q574.5625,294.9063 575.25,295.9766 Q575.9375,297.0469 577.2813,297.0469 Q577.9063,297.0469 578.5,296.7734 Q579.0938,296.5 579.7188,295.9219 L579.7188,298.6406 Z "/><text fill="#000000" font-family="sans-serif" font-size="12" lengthAdjust="spacingAndGlyphs" textLength="52" x="597.25" y="297.1543">Platform</text><line style="stroke: #A80036; stroke-width: 1.5;" x1="465.5" x2="748.5" y1="309" y2="309"/><text fill="#000000" font-family="sans-serif" font-size="11" lengthAdjust="spacingAndGlyphs" textLength="108" x="470.5" y="323.2104">-String designation</text><line style="stroke: #A80036; stroke-width: 1.5;" x1="465.5" x2="748.5" y1="329.8047" y2="329.8047"/><text fill="#000000" font-family="sans-serif" font-size="11" lengthAdjust="spacingAndGlyphs" textLength="273" x="470.5" y="344.0151">+OrganizationsRecord getOrganizationsRecord()</text><text fill="#000000" font-family="sans-serif" font-size="11" lengthAdjust="spacingAndGlyphs" textLength="251" x="470.5" y="356.8198">+FreelancersRecord getFreelancersRecord()</text><!--MD5=[c7635c972eb61a4e069c06c1240b28a8]
class FreelancersRecord--><rect fill="#FEFECE" filter="url(#f1bmb84ctrfwr5)" height="60.8047" id="FreelancersRecord" style="stroke: #A80036; stroke-width: 1.5;" width="150" x="237" y="440"/><ellipse cx="252" cy="456" fill="#ADD1B2" rx="11" ry="11" style="stroke: #A80036; stroke-width: 1.0;"/><path d="M254.9688,461.6406 Q254.3906,461.9375 253.75,462.0859 Q253.1094,462.2344 252.4063,462.2344 Q249.9063,462.2344 248.5859,460.5859 Q247.2656,458.9375 247.2656,455.8125 Q247.2656,452.6875 248.5859,451.0313 Q249.9063,449.375 252.4063,449.375 Q253.1094,449.375 253.7578,449.5313 Q254.4063,449.6875 254.9688,449.9844 L254.9688,452.7031 Q254.3438,452.125 253.75,451.8516 Q253.1563,451.5781 252.5313,451.5781 Q251.1875,451.5781 250.5,452.6484 Q249.8125,453.7188 249.8125,455.8125 Q249.8125,457.9063 250.5,458.9766 Q251.1875,460.0469 252.5313,460.0469 Q253.1563,460.0469 253.75,459.7734 Q254.3438,459.5 254.9688,458.9219 L254.9688,461.6406 Z "/><text fill="#000000" font-family="sans-serif" font-size="12" lengthAdjust="spacingAndGlyphs" textLength="118" x="266" y="460.1543">FreelancersRecord</text><line style="stroke: #A80036; stroke-width: 1.5;" x1="238" x2="386" y1="472" y2="472"/><line style="stroke: #A80036; stroke-width: 1.5;" x1="238" x2="386" y1="480" y2="480"/><text fill="#000000" font-family="sans-serif" font-size="11" lengthAdjust="spacingAndGlyphs" textLength="131" x="243" y="494.2104">+freelancerExists(frlId)</text><!--MD5=[759d9d4bd7fe37fb1c4b72776400893c]
class OrganizationsRecord--><rect fill="#FEFECE" filter="url(#f1bmb84ctrfwr5)" height="60.8047" id="OrganizationsRecord" style="stroke: #A80036; stroke-width: 1.5;" width="221" x="716.5" y="440"/><ellipse cx="758.5" cy="456" fill="#ADD1B2" rx="11" ry="11" style="stroke: #A80036; stroke-width: 1.0;"/><path d="M761.4688,461.6406 Q760.8906,461.9375 760.25,462.0859 Q759.6094,462.2344 758.9063,462.2344 Q756.4063,462.2344 755.0859,460.5859 Q753.7656,458.9375 753.7656,455.8125 Q753.7656,452.6875 755.0859,451.0313 Q756.4063,449.375 758.9063,449.375 Q759.6094,449.375 760.2578,449.5313 Q760.9063,449.6875 761.4688,449.9844 L761.4688,452.7031 Q760.8438,452.125 760.25,451.8516 Q759.6563,451.5781 759.0313,451.5781 Q757.6875,451.5781 757,452.6484 Q756.3125,453.7188 756.3125,455.8125 Q756.3125,457.9063 757,458.9766 Q757.6875,460.0469 759.0313,460.0469 Q759.6563,460.0469 760.25,459.7734 Q760.8438,459.5 761.4688,458.9219 L761.4688,461.6406 Z "/><text fill="#000000" font-family="sans-serif" font-size="12" lengthAdjust="spacingAndGlyphs" textLength="129" x="778.5" y="460.1543">OrganizationsRecord</text><line style="stroke: #A80036; stroke-width: 1.5;" x1="717.5" x2="936.5" y1="472" y2="472"/><line style="stroke: #A80036; stroke-width: 1.5;" x1="717.5" x2="936.5" y1="480" y2="480"/><text fill="#000000" font-family="sans-serif" font-size="11" lengthAdjust="spacingAndGlyphs" textLength="209" x="722.5" y="494.2104">+getOrganizationByUserEmail(email)</text><!--MD5=[9ab0068e71df7f673644752c40fe3ac4]
class CreatePaymentTransactionController--><rect fill="#FEFECE" filter="url(#f1bmb84ctrfwr5)" height="99.2188" id="CreatePaymentTransactionController" style="stroke: #A80036; stroke-width: 1.5;" width="546" x="334" y="117"/><ellipse cx="487.25" cy="133" fill="#ADD1B2" rx="11" ry="11" style="stroke: #A80036; stroke-width: 1.0;"/><path d="M490.2188,138.6406 Q489.6406,138.9375 489,139.0859 Q488.3594,139.2344 487.6563,139.2344 Q485.1563,139.2344 483.8359,137.5859 Q482.5156,135.9375 482.5156,132.8125 Q482.5156,129.6875 483.8359,128.0313 Q485.1563,126.375 487.6563,126.375 Q488.3594,126.375 489.0078,126.5313 Q489.6563,126.6875 490.2188,126.9844 L490.2188,129.7031 Q489.5938,129.125 489,128.8516 Q488.4063,128.5781 487.7813,128.5781 Q486.4375,128.5781 485.75,129.6484 Q485.0625,130.7188 485.0625,132.8125 Q485.0625,134.9063 485.75,135.9766 Q486.4375,137.0469 487.7813,137.0469 Q488.4063,137.0469 489,136.7734 Q489.5938,136.5 490.2188,135.9219 L490.2188,138.6406 Z "/><text fill="#000000" font-family="sans-serif" font-size="12" lengthAdjust="spacingAndGlyphs" textLength="231" x="507.75" y="137.1543">CreatePaymentTransactionController</text><line style="stroke: #A80036; stroke-width: 1.5;" x1="335" x2="879" y1="149" y2="149"/><line style="stroke: #A80036; stroke-width: 1.5;" x1="335" x2="879" y1="157" y2="157"/><text fill="#000000" font-family="sans-serif" font-size="11" lengthAdjust="spacingAndGlyphs" textLength="530" x="340" y="171.2104">+newPaymentTransaction(taskId, briefDescription, timeDuration, costPerHour, taskCategory,</text><text fill="#000000" font-family="sans-serif" font-size="11" lengthAdjust="spacingAndGlyphs" textLength="227" x="340" y="184.0151">endDate, delay, workQualityDescription,</text><text fill="#000000" font-family="sans-serif" font-size="11" lengthAdjust="spacingAndGlyphs" textLength="359" x="340" y="196.8198">frlId, name, expertiseLevel, email, NIF, IBAN, address, country)</text><text fill="#000000" font-family="sans-serif" font-size="11" lengthAdjust="spacingAndGlyphs" textLength="180" x="340" y="209.6245">+paymentTransactionRegister()</text><!--MD5=[e472615a113cc15971a8fcaedb5e2163]
class CreatePaymentTransactionUI--><rect fill="#FEFECE" filter="url(#f1bmb84ctrfwr5)" height="48" id="CreatePaymentTransactionUI" style="stroke: #A80036; stroke-width: 1.5;" width="214" x="500" y="8"/><ellipse cx="515" cy="24" fill="#ADD1B2" rx="11" ry="11" style="stroke: #A80036; stroke-width: 1.0;"/><path d="M517.9688,29.6406 Q517.3906,29.9375 516.75,30.0859 Q516.1094,30.2344 515.4063,30.2344 Q512.9063,30.2344 511.5859,28.5859 Q510.2656,26.9375 510.2656,23.8125 Q510.2656,20.6875 511.5859,19.0313 Q512.9063,17.375 515.4063,17.375 Q516.1094,17.375 516.7578,17.5313 Q517.4063,17.6875 517.9688,17.9844 L517.9688,20.7031 Q517.3438,20.125 516.75,19.8516 Q516.1563,19.5781 515.5313,19.5781 Q514.1875,19.5781 513.5,20.6484 Q512.8125,21.7188 512.8125,23.8125 Q512.8125,25.9063 513.5,26.9766 Q514.1875,28.0469 515.5313,28.0469 Q516.1563,28.0469 516.75,27.7734 Q517.3438,27.5 517.9688,26.9219 L517.9688,29.6406 Z "/><text fill="#000000" font-family="sans-serif" font-size="12" lengthAdjust="spacingAndGlyphs" textLength="182" x="529" y="28.1543">CreatePaymentTransactionUI</text><line style="stroke: #A80036; stroke-width: 1.5;" x1="501" x2="713" y1="40" y2="40"/><line style="stroke: #A80036; stroke-width: 1.5;" x1="501" x2="713" y1="48" y2="48"/><!--MD5=[b645a18afb25b7e5623af7186d8eb36f]
class PaymentTransaction--><rect fill="#FEFECE" filter="url(#f1bmb84ctrfwr5)" height="60.8047" id="PaymentTransaction" style="stroke: #A80036; stroke-width: 1.5;" width="329" x="680.5" y="943"/><ellipse cx="776.75" cy="959" fill="#ADD1B2" rx="11" ry="11" style="stroke: #A80036; stroke-width: 1.0;"/><path d="M779.7188,964.6406 Q779.1406,964.9375 778.5,965.0859 Q777.8594,965.2344 777.1563,965.2344 Q774.6563,965.2344 773.3359,963.5859 Q772.0156,961.9375 772.0156,958.8125 Q772.0156,955.6875 773.3359,954.0313 Q774.6563,952.375 777.1563,952.375 Q777.8594,952.375 778.5078,952.5313 Q779.1563,952.6875 779.7188,952.9844 L779.7188,955.7031 Q779.0938,955.125 778.5,954.8516 Q777.9063,954.5781 777.2813,954.5781 Q775.9375,954.5781 775.25,955.6484 Q774.5625,956.7188 774.5625,958.8125 Q774.5625,960.9063 775.25,961.9766 Q775.9375,963.0469 777.2813,963.0469 Q777.9063,963.0469 778.5,962.7734 Q779.0938,962.5 779.7188,961.9219 L779.7188,964.6406 Z "/><text fill="#000000" font-family="sans-serif" font-size="12" lengthAdjust="spacingAndGlyphs" textLength="128" x="797.25" y="963.1543">PaymentTransaction</text><line style="stroke: #A80036; stroke-width: 1.5;" x1="681.5" x2="1008.5" y1="975" y2="975"/><line style="stroke: #A80036; stroke-width: 1.5;" x1="681.5" x2="1008.5" y1="983" y2="983"/><text fill="#000000" font-family="sans-serif" font-size="11" lengthAdjust="spacingAndGlyphs" textLength="317" x="686.5" y="997.2104">+PaymentTransaction(task, taskExec, free, payAmount)</text><!--MD5=[5ce80547de3caced9d0089e35ded5090]
class TaskExecution--><rect fill="#FEFECE" filter="url(#f1bmb84ctrfwr5)" height="86.4141" id="TaskExecution" style="stroke: #A80036; stroke-width: 1.5;" width="184" x="722" y="1315"/><ellipse cx="764.9" cy="1331" fill="#ADD1B2" rx="11" ry="11" style="stroke: #A80036; stroke-width: 1.0;"/><path d="M767.8688,1336.6406 Q767.2906,1336.9375 766.65,1337.0859 Q766.0094,1337.2344 765.3063,1337.2344 Q762.8063,1337.2344 761.4859,1335.5859 Q760.1656,1333.9375 760.1656,1330.8125 Q760.1656,1327.6875 761.4859,1326.0313 Q762.8063,1324.375 765.3063,1324.375 Q766.0094,1324.375 766.6578,1324.5313 Q767.3063,1324.6875 767.8688,1324.9844 L767.8688,1327.7031 Q767.2438,1327.125 766.65,1326.8516 Q766.0563,1326.5781 765.4313,1326.5781 Q764.0875,1326.5781 763.4,1327.6484 Q762.7125,1328.7188 762.7125,1330.8125 Q762.7125,1332.9063 763.4,1333.9766 Q764.0875,1335.0469 765.4313,1335.0469 Q766.0563,1335.0469 766.65,1334.7734 Q767.2438,1334.5 767.8688,1333.9219 L767.8688,1336.6406 Z "/><text fill="#000000" font-family="sans-serif" font-size="12" lengthAdjust="spacingAndGlyphs" textLength="90" x="785.1" y="1335.1543">TaskExecution</text><line style="stroke: #A80036; stroke-width: 1.5;" x1="723" x2="905" y1="1347" y2="1347"/><text fill="#000000" font-family="sans-serif" font-size="11" lengthAdjust="spacingAndGlyphs" textLength="81" x="728" y="1361.2104">-Date endDate</text><text fill="#000000" font-family="sans-serif" font-size="11" lengthAdjust="spacingAndGlyphs" textLength="77" x="728" y="1374.0151">-Double delay</text><text fill="#000000" font-family="sans-serif" font-size="11" lengthAdjust="spacingAndGlyphs" textLength="172" x="728" y="1386.8198">-String workQualityDescription</text><line style="stroke: #A80036; stroke-width: 1.5;" x1="723" x2="905" y1="1393.4141" y2="1393.4141"/><!--MD5=[ba54b1997298830925be59f10364c919]
class PaymentTransactionList--><rect fill="#FEFECE" filter="url(#f1bmb84ctrfwr5)" height="99.2188" id="PaymentTransactionList" style="stroke: #A80036; stroke-width: 1.5;" width="352" x="747" y="767"/><ellipse cx="844.25" cy="783" fill="#ADD1B2" rx="11" ry="11" style="stroke: #A80036; stroke-width: 1.0;"/><path d="M847.2188,788.6406 Q846.6406,788.9375 846,789.0859 Q845.3594,789.2344 844.6563,789.2344 Q842.1563,789.2344 840.8359,787.5859 Q839.5156,785.9375 839.5156,782.8125 Q839.5156,779.6875 840.8359,778.0313 Q842.1563,776.375 844.6563,776.375 Q845.3594,776.375 846.0078,776.5313 Q846.6563,776.6875 847.2188,776.9844 L847.2188,779.7031 Q846.5938,779.125 846,778.8516 Q845.4063,778.5781 844.7813,778.5781 Q843.4375,778.5781 842.75,779.6484 Q842.0625,780.7188 842.0625,782.8125 Q842.0625,784.9063 842.75,785.9766 Q843.4375,787.0469 844.7813,787.0469 Q845.4063,787.0469 846,786.7734 Q846.5938,786.5 847.2188,785.9219 L847.2188,788.6406 Z "/><text fill="#000000" font-family="sans-serif" font-size="12" lengthAdjust="spacingAndGlyphs" textLength="149" x="864.75" y="787.1543">PaymentTransactionList</text><line style="stroke: #A80036; stroke-width: 1.5;" x1="748" x2="1098" y1="799" y2="799"/><line style="stroke: #A80036; stroke-width: 1.5;" x1="748" x2="1098" y1="807" y2="807"/><text fill="#000000" font-family="sans-serif" font-size="11" lengthAdjust="spacingAndGlyphs" textLength="340" x="753" y="821.2104">+newPaymentTransaction(task, taskExec, free, payAmount)</text><text fill="#000000" font-family="sans-serif" font-size="11" lengthAdjust="spacingAndGlyphs" textLength="204" x="753" y="834.0151">+validatePaymentTransaction(payT)</text><text fill="#000000" font-family="sans-serif" font-size="11" lengthAdjust="spacingAndGlyphs" textLength="207" x="753" y="846.8198">+paymentTransactionRegister(payT)</text><text fill="#000000" font-family="sans-serif" font-size="11" lengthAdjust="spacingAndGlyphs" textLength="181" x="753" y="859.6245">+addPaymentTransaction(payT)</text><!--MD5=[d75f8faab7003fe4f7fadde3e00b3cf7]
link CreatePaymentTransactionUI to CreatePaymentTransactionController--><path d="M607,56.0459 C607,71.4478 607,92.0929 607,111.3652 " fill="none" id="CreatePaymentTransactionUI-&gt;CreatePaymentTransactionController" style="stroke: #A80036; stroke-width: 1.0; stroke-dasharray: 7.0,7.0;"/><polygon fill="#A80036" points="607,116.759,611,107.759,607,111.759,603,107.759,607,116.759" style="stroke: #A80036; stroke-width: 1.0;"/><!--MD5=[c21c0329c000ce3a64d50b793859385d]
link CreatePaymentTransactionController to Platform--><path d="M607,216.3371 C607,234.0285 607,253.9045 607,271.4841 " fill="none" id="CreatePaymentTransactionController-&gt;Platform" style="stroke: #A80036; stroke-width: 1.0; stroke-dasharray: 7.0,7.0;"/><polygon fill="#A80036" points="607,276.8612,611,267.8612,607,271.8612,603,267.8612,607,276.8612" style="stroke: #A80036; stroke-width: 1.0;"/><!--MD5=[f04e3b22971df4e8085f55a70756c755]
link CreatePaymentTransactionController to Task--><path d="M504.4224,216.2255 C481.6003,232.3319 460.2673,252.5125 447,277 C391.4034,379.6148 440,422.7919 440,539.5 C440,539.5 440,539.5 440,973.5 C440,1023.4501 476.9693,1065.2635 514.681,1094.9223 " fill="none" id="CreatePaymentTransactionController-&gt;Task" style="stroke: #A80036; stroke-width: 1.0; stroke-dasharray: 7.0,7.0;"/><polygon fill="#A80036" points="518.8045,1098.1158,514.138,1089.4427,514.8513,1095.0544,509.2396,1095.7677,518.8045,1098.1158" style="stroke: #A80036; stroke-width: 1.0;"/><!--MD5=[d808bb2ca26b86ab5f675405e49fd624]
link CreatePaymentTransactionController to Organization--><path d="M805.5698,216.063 C823.1277,224.5449 839.9289,234.4469 855,246 C868.0128,255.9753 866.9298,262.7273 875,277 C927.0323,369.0225 982.1335,398.8272 955,501 C948.2808,526.3017 935.4918,551.8103 922.2945,573.6256 " fill="none" id="CreatePaymentTransactionController-&gt;Organization" style="stroke: #A80036; stroke-width: 1.0; stroke-dasharray: 7.0,7.0;"/><polygon fill="#A80036" points="919.6512,577.9382,927.7647,572.3551,922.264,573.6752,920.9439,568.1746,919.6512,577.9382" style="stroke: #A80036; stroke-width: 1.0;"/><!--MD5=[c3f8496c633e2f7f52d8bf9bc86aad29]
link CreatePaymentTransactionController to POTApplication--><path d="M363.0366,216.0655 C295.9757,232.541 223.8774,252.9434 159,277 C154.9878,278.4877 150.9183,280.114 146.8441,281.8356 " fill="none" id="CreatePaymentTransactionController-&gt;POTApplication" style="stroke: #A80036; stroke-width: 1.0; stroke-dasharray: 7.0,7.0;"/><polygon fill="#A80036" points="142.0623,283.8978,151.9106,284.0068,146.6536,281.9178,148.7426,276.6608,142.0623,283.8978" style="stroke: #A80036; stroke-width: 1.0;"/><!--MD5=[044b46cd6ff48909710cb1d203e462f9]
link CreatePaymentTransactionController to UserSession--><path d="M381.1763,216.0565 C357.8749,224.596 335.0511,234.5118 314,246 C295.2238,256.2467 277.2417,271.6135 262.9266,285.693 " fill="none" id="CreatePaymentTransactionController-&gt;UserSession" style="stroke: #A80036; stroke-width: 1.0; stroke-dasharray: 7.0,7.0;"/><polygon fill="#A80036" points="259.3679,289.2409,268.5657,285.7195,262.9089,285.7108,262.9175,280.054,259.3679,289.2409" style="stroke: #A80036; stroke-width: 1.0;"/><!--MD5=[a5b2a848340ab19653babd02d4515d20]
link CreatePaymentTransactionController to TasksList--><path d="M710.4436,216.2782 C733.1006,232.3407 754.1387,252.4872 767,277 C784.7585,310.8464 779.025,326.7186 767,363 C758.8062,387.7221 749.4948,390.7061 732,410 C718.6855,424.6837 708.1513,422.4175 699,440 C640.0713,553.2209 642.8387,710.6597 647.6751,780.5791 " fill="none" id="CreatePaymentTransactionController-&gt;TasksList" style="stroke: #A80036; stroke-width: 1.0; stroke-dasharray: 7.0,7.0;"/><polygon fill="#A80036" points="648.0563,785.8632,651.3982,776.5987,647.6964,780.8762,643.4189,777.1744,648.0563,785.8632" style="stroke: #A80036; stroke-width: 1.0;"/><!--MD5=[546fd7e0e055f1eba4c284893e3481a0]
link CreatePaymentTransactionController to FreelancersRecord--><path d="M423.3945,216.0127 C409.3382,224.484 396.2645,234.3982 385,246 C334.4529,298.0606 318.9059,385.491 314.124,434.4671 " fill="none" id="CreatePaymentTransactionController-&gt;FreelancersRecord" style="stroke: #A80036; stroke-width: 1.0; stroke-dasharray: 7.0,7.0;"/><polygon fill="#A80036" points="313.643,439.664,318.4555,431.071,314.1039,434.6853,310.4896,430.3336,313.643,439.664" style="stroke: #A80036; stroke-width: 1.0;"/><!--MD5=[19aba29190c83d802a073857acc5c053]
link CreatePaymentTransactionController to OrganizationsRecord--><path d="M782.8827,216.0576 C804.4977,225.3673 821.6055,235.4976 829,246 C868.5117,302.1183 852.7227,387.2498 839.0144,434.9322 " fill="none" id="CreatePaymentTransactionController-&gt;OrganizationsRecord" style="stroke: #A80036; stroke-width: 1.0; stroke-dasharray: 7.0,7.0;"/><polygon fill="#A80036" points="837.527,439.9921,843.9031,432.4857,838.9373,435.1951,836.2279,430.2293,837.527,439.9921" style="stroke: #A80036; stroke-width: 1.0;"/><!--MD5=[59ac9a6802ae404b65a1b78c8af4ba66]
link CreatePaymentTransactionController to PaymentTransactionList--><path d="M880.2104,214.0866 C976.8433,238.8853 1062,273.8354 1062,320 C1062,320 1062,320 1062,634 C1062,684.9162 1027.3358,730.4914 992.6288,763.3624 " fill="none" id="CreatePaymentTransactionController-&gt;PaymentTransactionList" style="stroke: #A80036; stroke-width: 1.0; stroke-dasharray: 7.0,7.0;"/><polygon fill="#A80036" points="988.8365,766.9046,998.144,763.6844,992.4905,763.4916,992.6833,757.8381,988.8365,766.9046" style="stroke: #A80036; stroke-width: 1.0;"/><!--MD5=[d77b6fe82f72fca34ebf8190bf84198d]
link Platform to FreelancersRecord--><path d="M522.4648,363.1273 C476.1401,386.7607 419.6147,415.5983 376.8125,437.4346 " fill="none" id="Platform-&gt;FreelancersRecord" style="stroke: #A80036; stroke-width: 1.0;"/><polygon fill="#A80036" points="372.1895,439.7931,382.0242,439.2661,376.6433,437.5208,378.3886,432.1399,372.1895,439.7931" style="stroke: #A80036; stroke-width: 1.0;"/><text fill="#000000" font-family="sans-serif" font-size="13" lengthAdjust="spacingAndGlyphs" textLength="23" x="461" y="406.0669">has</text><text fill="#000000" font-family="sans-serif" font-size="13" lengthAdjust="spacingAndGlyphs" textLength="8" x="499.8012" y="383.5561">1</text><text fill="#000000" font-family="sans-serif" font-size="13" lengthAdjust="spacingAndGlyphs" textLength="8" x="375.7786" y="429.0137">1</text><!--MD5=[d9ffa4e24b0f90d8cdc0d9eb36306584]
link Platform to OrganizationsRecord--><path d="M670.0432,363.1273 C704.3107,386.5694 746.0628,415.1316 777.8879,436.9028 " fill="none" id="Platform-&gt;OrganizationsRecord" style="stroke: #A80036; stroke-width: 1.0;"/><polygon fill="#A80036" points="782.1129,439.7931,776.9432,431.4101,777.9861,436.97,772.4263,438.013,782.1129,439.7931" style="stroke: #A80036; stroke-width: 1.0;"/><text fill="#000000" font-family="sans-serif" font-size="13" lengthAdjust="spacingAndGlyphs" textLength="23" x="737" y="406.0669">has</text><text fill="#000000" font-family="sans-serif" font-size="13" lengthAdjust="spacingAndGlyphs" textLength="8" x="671.8222" y="383.5561">1</text><text fill="#000000" font-family="sans-serif" font-size="13" lengthAdjust="spacingAndGlyphs" textLength="8" x="764.0299" y="429.0137">1</text><!--MD5=[0634d34efc8f03ad94b2231e46fef7de]
link FreelancersRecord to Freelancer--><path d="M320.7797,501.2518 C329.3151,533.9016 341,587.1537 341,634 C341,634 341,634 341,1143.5 C341,1227.5015 424.242,1289.3219 488.3183,1324.4654 " fill="none" id="FreelancersRecord-&gt;Freelancer" style="stroke: #A80036; stroke-width: 1.0;"/><polygon fill="#A80036" points="492.8973,1326.9496,486.894,1319.1419,488.5024,1324.5652,483.0791,1326.1737,492.8973,1326.9496" style="stroke: #A80036; stroke-width: 1.0;"/><text fill="#000000" font-family="sans-serif" font-size="13" lengthAdjust="spacingAndGlyphs" textLength="23" x="342" y="909.0669">has</text><text fill="#000000" font-family="sans-serif" font-size="13" lengthAdjust="spacingAndGlyphs" textLength="8" x="313.7207" y="520.8818">1</text><text fill="#000000" font-family="sans-serif" font-size="13" lengthAdjust="spacingAndGlyphs" textLength="7" x="478.0658" y="1319.7834">*</text><!--MD5=[15b500351a20fc4c9aef6172f83f2b2a]
link OrganizationsRecord to Organization--><path d="M836.7808,501.2531 C843.2073,521.4594 851.8349,548.5866 859.6157,573.0513 " fill="none" id="OrganizationsRecord-&gt;Organization" style="stroke: #A80036; stroke-width: 1.0;"/><polygon fill="#A80036" points="861.1597,577.9059,862.2438,568.1169,859.6443,573.1411,854.6201,570.5416,861.1597,577.9059" style="stroke: #A80036; stroke-width: 1.0;"/><text fill="#000000" font-family="sans-serif" font-size="13" lengthAdjust="spacingAndGlyphs" textLength="23" x="852" y="544.0669">has</text><text fill="#000000" font-family="sans-serif" font-size="13" lengthAdjust="spacingAndGlyphs" textLength="8" x="829.9189" y="520.8834">1</text><text fill="#000000" font-family="sans-serif" font-size="13" lengthAdjust="spacingAndGlyphs" textLength="7" x="851.4255" y="566.8318">*</text><!--MD5=[d15cad16830e0e3b1d195407ed1d0016]
link Organization to TasksList--><path d="M808.7321,690.2452 C771.0405,720.415 725.8313,756.6022 693.4951,782.4853 " fill="none" id="Organization-&gt;TasksList" style="stroke: #A80036; stroke-width: 1.0;"/><polygon fill="#A80036" points="689.2193,785.9078,698.7452,783.4065,693.1228,782.7833,693.746,777.1609,689.2193,785.9078" style="stroke: #A80036; stroke-width: 1.0;"/><text fill="#000000" font-family="sans-serif" font-size="13" lengthAdjust="spacingAndGlyphs" textLength="23" x="766" y="733.0669">has</text><text fill="#000000" font-family="sans-serif" font-size="13" lengthAdjust="spacingAndGlyphs" textLength="8" x="791.6807" y="710.0877">1</text><text fill="#000000" font-family="sans-serif" font-size="13" lengthAdjust="spacingAndGlyphs" textLength="8" x="688.277" y="775.152">1</text><!--MD5=[322d55b5ad1658b7791494cedb432ac7]
link Organization to PaymentTransactionList--><path d="M892.5605,690.2452 C898.0536,713.0293 904.3742,739.2453 909.8273,761.8634 " fill="none" id="Organization-&gt;PaymentTransactionList" style="stroke: #A80036; stroke-width: 1.0;"/><polygon fill="#A80036" points="911.049,766.9305,912.8282,757.2437,909.8771,762.0698,905.0511,759.1187,911.049,766.9305" style="stroke: #A80036; stroke-width: 1.0;"/><text fill="#000000" font-family="sans-serif" font-size="13" lengthAdjust="spacingAndGlyphs" textLength="23" x="904" y="733.0669">has</text><text fill="#000000" font-family="sans-serif" font-size="13" lengthAdjust="spacingAndGlyphs" textLength="8" x="885.7257" y="710.0877">1</text><text fill="#000000" font-family="sans-serif" font-size="13" lengthAdjust="spacingAndGlyphs" textLength="8" x="900.8059" y="755.966">1</text><!--MD5=[ad9e6b825fedf9daad488846d3a92887]
link PaymentTransactionList to PaymentTransaction--><path d="M898.3203,866.1758 C886.7021,889.5612 873.1148,916.9099 862.564,938.1469 " fill="none" id="PaymentTransactionList-&gt;PaymentTransaction" style="stroke: #A80036; stroke-width: 1.0;"/><polygon fill="#A80036" points="860.2244,942.8561,867.8111,936.5758,862.4491,938.3783,860.6466,933.0163,860.2244,942.8561" style="stroke: #A80036; stroke-width: 1.0;"/><text fill="#000000" font-family="sans-serif" font-size="13" lengthAdjust="spacingAndGlyphs" textLength="23" x="882" y="909.0669">has</text><text fill="#000000" font-family="sans-serif" font-size="13" lengthAdjust="spacingAndGlyphs" textLength="8" x="886.2872" y="886.277">1</text><text fill="#000000" font-family="sans-serif" font-size="13" lengthAdjust="spacingAndGlyphs" textLength="7" x="855.6426" y="932.0897">*</text><!--MD5=[bbdb20f51a48c3a19382c1ddd3c52d99]
link TasksList to Task--><path d="M645.6376,847.2634 C636.5711,899.2762 618.0087,1005.7658 605.787,1075.8796 " fill="none" id="TasksList-&gt;Task" style="stroke: #A80036; stroke-width: 1.0;"/><polygon fill="#A80036" points="604.9183,1080.8637,610.4045,1072.6844,605.777,1075.938,602.5234,1071.3105,604.9183,1080.8637" style="stroke: #A80036; stroke-width: 1.0;"/><text fill="#000000" font-family="sans-serif" font-size="13" lengthAdjust="spacingAndGlyphs" textLength="23" x="630" y="978.0669">has</text><text fill="#000000" font-family="sans-serif" font-size="13" lengthAdjust="spacingAndGlyphs" textLength="8" x="635.7944" y="866.8957">1</text><text fill="#000000" font-family="sans-serif" font-size="13" lengthAdjust="spacingAndGlyphs" textLength="7" x="598.776" y="1069.8387">*</text><!--MD5=[bdc7b78a1b1f03a53fec8289ba75cac4]
link Task to TaskExecution--><path d="M658.2245,1206.1189 C692.593,1239.6281 734.2176,1280.2121 765.7901,1310.9953 " fill="none" id="Task-&gt;TaskExecution" style="stroke: #A80036; stroke-width: 1.0;"/><polygon fill="#A80036" points="769.5894,1314.6996,765.9379,1305.5527,766.0094,1311.2091,760.353,1311.2806,769.5894,1314.6996" style="stroke: #A80036; stroke-width: 1.0;"/><text fill="#000000" font-family="sans-serif" font-size="13" lengthAdjust="spacingAndGlyphs" textLength="23" x="705" y="1249.0669">has</text><text fill="#000000" font-family="sans-serif" font-size="13" lengthAdjust="spacingAndGlyphs" textLength="8" x="656.8116" y="1225.8717">1</text><text fill="#000000" font-family="sans-serif" font-size="13" lengthAdjust="spacingAndGlyphs" textLength="8" x="754.1765" y="1303.9662">1</text><!--MD5=[8853e9d83a8841c20c4ef075af762602]
link Task to Freelancer--><path d="M566.1018,1206.0256 C562.7499,1215.8822 559.8601,1226.0921 558,1236 C555.4932,1249.3529 554.4305,1263.6711 554.2457,1277.6332 " fill="none" id="Task-&gt;Freelancer" style="stroke: #A80036; stroke-width: 1.0;"/><polygon fill="#A80036" points="554.2162,1282.7586,558.2678,1273.7817,554.2449,1277.7587,550.268,1273.7358,554.2162,1282.7586" style="stroke: #A80036; stroke-width: 1.0;"/><text fill="#000000" font-family="sans-serif" font-size="13" lengthAdjust="spacingAndGlyphs" textLength="88" x="559" y="1249.0669">is assigned to</text><text fill="#000000" font-family="sans-serif" font-size="13" lengthAdjust="spacingAndGlyphs" textLength="23" x="538.7926" y="1225.7682">1..*</text><text fill="#000000" font-family="sans-serif" font-size="13" lengthAdjust="spacingAndGlyphs" textLength="8" x="545.1884" y="1271.9247">1</text><!--MD5=[f6802b286771c18a16ea4be983074371]
link PaymentTransaction to Freelancer--><path d="M812.0922,1004.4398 C792.6689,1024.491 769.1839,1052.171 755,1081 C720.4387,1151.246 761.0691,1188.2937 717,1253 C696.3314,1283.3476 663.7137,1307.2961 633.6354,1324.6108 " fill="none" id="PaymentTransaction-&gt;Freelancer" style="stroke: #A80036; stroke-width: 1.0;"/><polygon fill="#A80036" points="629.2177,1327.1172,639.0194,1326.1549,633.5665,1324.6498,635.0716,1319.1969,629.2177,1327.1172" style="stroke: #A80036; stroke-width: 1.0;"/><text fill="#000000" font-family="sans-serif" font-size="13" lengthAdjust="spacingAndGlyphs" textLength="61" x="756" y="1148.0669">relates to</text><text fill="#000000" font-family="sans-serif" font-size="13" lengthAdjust="spacingAndGlyphs" textLength="8" x="797.0567" y="1023.8656">1</text><text fill="#000000" font-family="sans-serif" font-size="13" lengthAdjust="spacingAndGlyphs" textLength="8" x="637.1165" y="1319.9693">1</text><!--MD5=[271ce7fefd7250ebaca83b70495774bd]
link PaymentTransaction to Task--><path d="M699.7267,1004.0426 C681.7906,1011.8611 664.6466,1021.6772 650,1034 C636.5997,1045.2743 626.0379,1060.5636 617.8711,1076.1381 " fill="none" id="PaymentTransaction-&gt;Task" style="stroke: #A80036; stroke-width: 1.0;"/><polygon fill="#A80036" points="615.413,1080.9766,623.0556,1074.7645,617.6777,1076.5189,615.9233,1071.141,615.413,1080.9766" style="stroke: #A80036; stroke-width: 1.0;"/><text fill="#000000" font-family="sans-serif" font-size="13" lengthAdjust="spacingAndGlyphs" textLength="61" x="651" y="1047.0669">relates to</text><text fill="#000000" font-family="sans-serif" font-size="13" lengthAdjust="spacingAndGlyphs" textLength="8" x="664.2044" y="1023.1538">1</text><text fill="#000000" font-family="sans-serif" font-size="13" lengthAdjust="spacingAndGlyphs" textLength="8" x="609.4264" y="1069.9647">1</text><!--MD5=[ccf9e4a23b86a8fcbc3774eff83a0cb7]
link PaymentTransaction to TaskExecution--><path d="M842.5155,1004.3153 C837.131,1071.101 824.3509,1229.6158 817.8869,1309.7898 " fill="none" id="PaymentTransaction-&gt;TaskExecution" style="stroke: #A80036; stroke-width: 1.0;"/><polygon fill="#A80036" points="817.4704,1314.9556,822.181,1306.3063,817.8724,1309.9718,814.2069,1305.6631,817.4704,1314.9556" style="stroke: #A80036; stroke-width: 1.0;"/><text fill="#000000" font-family="sans-serif" font-size="13" lengthAdjust="spacingAndGlyphs" textLength="61" x="837" y="1148.0669">relates to</text><text fill="#000000" font-family="sans-serif" font-size="13" lengthAdjust="spacingAndGlyphs" textLength="8" x="833.2389" y="1023.9578">1</text><text fill="#000000" font-family="sans-serif" font-size="13" lengthAdjust="spacingAndGlyphs" textLength="8" x="809.386" y="1303.9446">1</text><!--MD5=[1c2a0c20acf9f3beff7507672b385040]
@startuml
skinparam classAttributeIconSize 0

class POTApplication
{
  +static getInstance()
  +getCurrentSession()
}

class UserSession
{
  +getUserEmail()
}

class Task {
  -String id
  -String briefDescription
  -Integer timeDuration
  -Double costPerHour
  -String taskCategory
  +getTaskExecData(task)
}

class Freelancer {
  -String id
  -String name
  -String expertiseLevel
  -String email
  -String NIF
  -String IBAN
  -String address
  -String country
}

class Organization {
  -String name
  -String NIF
  +getTasksList()
  +generatePayAmount(task, free)
  +getPaymentTransactionList()
  
}

class TasksList {
  +taskExists(taskId)
}

class Platform {
  -String designation
  +OrganizationsRecord getOrganizationsRecord()
  +FreelancersRecord getFreelancersRecord()
}

class FreelancersRecord {
  +freelancerExists(frlId)
}

class OrganizationsRecord  {
  +getOrganizationByUserEmail(email)
}

class CreatePaymentTransactionController {
  +newPaymentTransaction(taskId, briefDescription, timeDuration, costPerHour, taskCategory, \nendDate, delay, workQualityDescription, \nfrlId, name, expertiseLevel, email, NIF, IBAN, address, country)
  +paymentTransactionRegister()
}

class CreatePaymentTransactionUI {
}

class PaymentTransaction{
  +PaymentTransaction(task, taskExec, free, payAmount)
}

class TaskExecution {
 -Date endDate
 -Double delay
 -String workQualityDescription
}

class PaymentTransactionList{
  +newPaymentTransaction(task, taskExec, free, payAmount)
  +validatePaymentTransaction(payT)
  +paymentTransactionRegister(payT)
  +addPaymentTransaction(payT)
}

CreatePaymentTransactionUI ..> CreatePaymentTransactionController
CreatePaymentTransactionController ..> Platform
CreatePaymentTransactionController ..> Task
CreatePaymentTransactionController ..> Organization
CreatePaymentTransactionController ..> POTApplication
CreatePaymentTransactionController ..> UserSession
CreatePaymentTransactionController ..> TasksList
CreatePaymentTransactionController ..> FreelancersRecord
CreatePaymentTransactionController ..> OrganizationsRecord
CreatePaymentTransactionController ..> PaymentTransactionList
Platform "1" - -> "1" FreelancersRecord : has
Platform "1" - -> "1" OrganizationsRecord : has

FreelancersRecord "1" - -> "*" Freelancer : has
OrganizationsRecord "1" - -> "*" Organization : has
Organization "1" - -> "1" TasksList : has
Organization "1" - -> "1" PaymentTransactionList : has
PaymentTransactionList "1" - -> "*" PaymentTransaction : has
TasksList "1" - -> "*" Task : has
Task "1" - -> "1" TaskExecution : has
Task "1..*" - -> "1" Freelancer : is assigned to

PaymentTransaction "1" - -> "1" Freelancer : relates to
PaymentTransaction "1" - -> "1" Task : relates to
PaymentTransaction "1" - -> "1" TaskExecution : relates to
@enduml

PlantUML version 1.2019.12(Sun Nov 03 10:24:54 UTC 2019)
(GPL source distribution)
Java Runtime: OpenJDK Runtime Environment
JVM: OpenJDK 64-Bit Server VM
Java Version: 1.8.0_232-heroku-b09
Operating System: Linux
Default Encoding: UTF-8
Language: en
Country: US
--></g></svg>