<?xml version="1.0" encoding="UTF-8" standalone="no"?><svg xmlns="http://www.w3.org/2000/svg" xmlns:xlink="http://www.w3.org/1999/xlink" contentScriptType="application/ecmascript" contentStyleType="text/css" height="466px" preserveAspectRatio="none" style="width:1753px;height:466px;" version="1.1" viewBox="0 0 1753 466" width="1753px" zoomAndPan="magnify"><defs><filter height="300%" id="fx4rfh7g1pk5a" width="300%" x="-1" y="-1"><feGaussianBlur result="blurOut" stdDeviation="2.0"/><feColorMatrix in="blurOut" result="blurOut2" type="matrix" values="0 0 0 0 0 0 0 0 0 0 0 0 0 0 0 0 0 0 .4 0"/><feOffset dx="4.0" dy="4.0" in="blurOut2" result="blurOut3"/><feBlend in="SourceGraphic" in2="blurOut3" mode="normal"/></filter></defs><g><!--MD5=[99b8db98afdc2c8404e39242ef4c1e65]
class Platform--><rect fill="#FEFECE" filter="url(#fx4rfh7g1pk5a)" height="52.8047" id="Platform" style="stroke: #A80036; stroke-width: 1.5;" width="120" x="6" y="41.5"/><ellipse cx="37.2" cy="57.5" fill="#ADD1B2" rx="11" ry="11" style="stroke: #A80036; stroke-width: 1.0;"/><path d="M40.1688,63.1406 Q39.5906,63.4375 38.95,63.5859 Q38.3094,63.7344 37.6063,63.7344 Q35.1063,63.7344 33.7859,62.0859 Q32.4656,60.4375 32.4656,57.3125 Q32.4656,54.1875 33.7859,52.5313 Q35.1063,50.875 37.6063,50.875 Q38.3094,50.875 38.9578,51.0313 Q39.6063,51.1875 40.1688,51.4844 L40.1688,54.2031 Q39.5438,53.625 38.95,53.3516 Q38.3563,53.0781 37.7313,53.0781 Q36.3875,53.0781 35.7,54.1484 Q35.0125,55.2188 35.0125,57.3125 Q35.0125,59.4063 35.7,60.4766 Q36.3875,61.5469 37.7313,61.5469 Q38.3563,61.5469 38.95,61.2734 Q39.5438,61 40.1688,60.4219 L40.1688,63.1406 Z "/><text fill="#000000" font-family="sans-serif" font-size="12" lengthAdjust="spacingAndGlyphs" textLength="52" x="54.8" y="61.6543">Platform</text><line style="stroke: #A80036; stroke-width: 1.5;" x1="7" x2="125" y1="73.5" y2="73.5"/><text fill="#000000" font-family="sans-serif" font-size="11" lengthAdjust="spacingAndGlyphs" textLength="108" x="12" y="87.7104">-String designation</text><!--MD5=[86c7c362de55a38b660185a1328fe18d]
class Organization--><rect fill="#FEFECE" filter="url(#fx4rfh7g1pk5a)" height="65.6094" id="Organization" style="stroke: #A80036; stroke-width: 1.5;" width="110" x="293" y="105"/><ellipse cx="308" cy="121" fill="#ADD1B2" rx="11" ry="11" style="stroke: #A80036; stroke-width: 1.0;"/><path d="M310.9688,126.6406 Q310.3906,126.9375 309.75,127.0859 Q309.1094,127.2344 308.4063,127.2344 Q305.9063,127.2344 304.5859,125.5859 Q303.2656,123.9375 303.2656,120.8125 Q303.2656,117.6875 304.5859,116.0313 Q305.9063,114.375 308.4063,114.375 Q309.1094,114.375 309.7578,114.5313 Q310.4063,114.6875 310.9688,114.9844 L310.9688,117.7031 Q310.3438,117.125 309.75,116.8516 Q309.1563,116.5781 308.5313,116.5781 Q307.1875,116.5781 306.5,117.6484 Q305.8125,118.7188 305.8125,120.8125 Q305.8125,122.9063 306.5,123.9766 Q307.1875,125.0469 308.5313,125.0469 Q309.1563,125.0469 309.75,124.7734 Q310.3438,124.5 310.9688,123.9219 L310.9688,126.6406 Z "/><text fill="#000000" font-family="sans-serif" font-size="12" lengthAdjust="spacingAndGlyphs" textLength="78" x="322" y="125.1543">Organization</text><line style="stroke: #A80036; stroke-width: 1.5;" x1="294" x2="402" y1="137" y2="137"/><text fill="#000000" font-family="sans-serif" font-size="11" lengthAdjust="spacingAndGlyphs" textLength="74" x="299" y="151.2104">-String name</text><text fill="#000000" font-family="sans-serif" font-size="11" lengthAdjust="spacingAndGlyphs" textLength="59" x="299" y="164.0151">-String NIF</text><!--MD5=[f483d6e5de34a60207b28a5563be5e8b]
class Collaborator--><rect fill="#FEFECE" filter="url(#fx4rfh7g1pk5a)" height="65.6094" id="Collaborator" style="stroke: #A80036; stroke-width: 1.5;" width="109" x="501" y="249"/><ellipse cx="516" cy="265" fill="#ADD1B2" rx="11" ry="11" style="stroke: #A80036; stroke-width: 1.0;"/><path d="M518.9688,270.6406 Q518.3906,270.9375 517.75,271.0859 Q517.1094,271.2344 516.4063,271.2344 Q513.9063,271.2344 512.5859,269.5859 Q511.2656,267.9375 511.2656,264.8125 Q511.2656,261.6875 512.5859,260.0313 Q513.9063,258.375 516.4063,258.375 Q517.1094,258.375 517.7578,258.5313 Q518.4063,258.6875 518.9688,258.9844 L518.9688,261.7031 Q518.3438,261.125 517.75,260.8516 Q517.1563,260.5781 516.5313,260.5781 Q515.1875,260.5781 514.5,261.6484 Q513.8125,262.7188 513.8125,264.8125 Q513.8125,266.9063 514.5,267.9766 Q515.1875,269.0469 516.5313,269.0469 Q517.1563,269.0469 517.75,268.7734 Q518.3438,268.5 518.9688,267.9219 L518.9688,270.6406 Z "/><text fill="#000000" font-family="sans-serif" font-size="12" lengthAdjust="spacingAndGlyphs" textLength="77" x="530" y="269.1543">Collaborator</text><line style="stroke: #A80036; stroke-width: 1.5;" x1="502" x2="609" y1="281" y2="281"/><text fill="#000000" font-family="sans-serif" font-size="11" lengthAdjust="spacingAndGlyphs" textLength="74" x="507" y="295.2104">-String name</text><text fill="#000000" font-family="sans-serif" font-size="11" lengthAdjust="spacingAndGlyphs" textLength="73" x="507" y="308.0151">-String email</text><!--MD5=[3fd616f346a44cd59a91eb10b19e157c]
class User--><rect fill="#FEFECE" filter="url(#fx4rfh7g1pk5a)" height="65.6094" id="User" style="stroke: #A80036; stroke-width: 1.5;" width="110" x="1632" y="390"/><ellipse cx="1669.05" cy="406" fill="#ADD1B2" rx="11" ry="11" style="stroke: #A80036; stroke-width: 1.0;"/><path d="M1672.0188,411.6406 Q1671.4406,411.9375 1670.8,412.0859 Q1670.1594,412.2344 1669.4563,412.2344 Q1666.9563,412.2344 1665.6359,410.5859 Q1664.3156,408.9375 1664.3156,405.8125 Q1664.3156,402.6875 1665.6359,401.0313 Q1666.9563,399.375 1669.4563,399.375 Q1670.1594,399.375 1670.8078,399.5313 Q1671.4563,399.6875 1672.0188,399.9844 L1672.0188,402.7031 Q1671.3938,402.125 1670.8,401.8516 Q1670.2063,401.5781 1669.5813,401.5781 Q1668.2375,401.5781 1667.55,402.6484 Q1666.8625,403.7188 1666.8625,405.8125 Q1666.8625,407.9063 1667.55,408.9766 Q1668.2375,410.0469 1669.5813,410.0469 Q1670.2063,410.0469 1670.8,409.7734 Q1671.3938,409.5 1672.0188,408.9219 L1672.0188,411.6406 Z "/><text fill="#000000" font-family="sans-serif" font-size="12" lengthAdjust="spacingAndGlyphs" textLength="29" x="1687.95" y="410.1543">User</text><line style="stroke: #A80036; stroke-width: 1.5;" x1="1633" x2="1741" y1="422" y2="422"/><text fill="#000000" font-family="sans-serif" font-size="11" lengthAdjust="spacingAndGlyphs" textLength="73" x="1638" y="436.2104">-String email</text><text fill="#000000" font-family="sans-serif" font-size="11" lengthAdjust="spacingAndGlyphs" textLength="98" x="1638" y="449.0151">-String password</text><!--MD5=[1f687b5315377fe49fca59b457947463]
class Freelancer--><rect fill="#FEFECE" filter="url(#fx4rfh7g1pk5a)" height="142.4375" id="Freelancer" style="stroke: #A80036; stroke-width: 1.5;" width="136" x="1369" y="211"/><ellipse cx="1400.65" cy="227" fill="#ADD1B2" rx="11" ry="11" style="stroke: #A80036; stroke-width: 1.0;"/><path d="M1403.6188,232.6406 Q1403.0406,232.9375 1402.4,233.0859 Q1401.7594,233.2344 1401.0563,233.2344 Q1398.5563,233.2344 1397.2359,231.5859 Q1395.9156,229.9375 1395.9156,226.8125 Q1395.9156,223.6875 1397.2359,222.0313 Q1398.5563,220.375 1401.0563,220.375 Q1401.7594,220.375 1402.4078,220.5313 Q1403.0563,220.6875 1403.6188,220.9844 L1403.6188,223.7031 Q1402.9938,223.125 1402.4,222.8516 Q1401.8063,222.5781 1401.1813,222.5781 Q1399.8375,222.5781 1399.15,223.6484 Q1398.4625,224.7188 1398.4625,226.8125 Q1398.4625,228.9063 1399.15,229.9766 Q1399.8375,231.0469 1401.1813,231.0469 Q1401.8063,231.0469 1402.4,230.7734 Q1402.9938,230.5 1403.6188,229.9219 L1403.6188,232.6406 Z "/><text fill="#000000" font-family="sans-serif" font-size="12" lengthAdjust="spacingAndGlyphs" textLength="67" x="1418.35" y="231.1543">Freelancer</text><line style="stroke: #A80036; stroke-width: 1.5;" x1="1370" x2="1504" y1="243" y2="243"/><text fill="#000000" font-family="sans-serif" font-size="11" lengthAdjust="spacingAndGlyphs" textLength="52" x="1375" y="257.2104">-String id</text><text fill="#000000" font-family="sans-serif" font-size="11" lengthAdjust="spacingAndGlyphs" textLength="74" x="1375" y="270.0151">-String name</text><text fill="#000000" font-family="sans-serif" font-size="11" lengthAdjust="spacingAndGlyphs" textLength="124" x="1375" y="282.8198">-String expertiseLevel</text><text fill="#000000" font-family="sans-serif" font-size="11" lengthAdjust="spacingAndGlyphs" textLength="73" x="1375" y="295.6245">-String email</text><text fill="#000000" font-family="sans-serif" font-size="11" lengthAdjust="spacingAndGlyphs" textLength="59" x="1375" y="308.4292">-String NIF</text><text fill="#000000" font-family="sans-serif" font-size="11" lengthAdjust="spacingAndGlyphs" textLength="68" x="1375" y="321.2339">-String IBAN</text><text fill="#000000" font-family="sans-serif" font-size="11" lengthAdjust="spacingAndGlyphs" textLength="89" x="1375" y="334.0386">-String address</text><text fill="#000000" font-family="sans-serif" font-size="11" lengthAdjust="spacingAndGlyphs" textLength="84" x="1375" y="346.8433">-String country</text><!--MD5=[b34797a66dc35cbf1d65f7e3ca75530e]
class Task--><rect fill="#FEFECE" filter="url(#fx4rfh7g1pk5a)" height="104.0234" id="Task" style="stroke: #A80036; stroke-width: 1.5;" width="144" x="1062" y="120"/><ellipse cx="1115.25" cy="136" fill="#ADD1B2" rx="11" ry="11" style="stroke: #A80036; stroke-width: 1.0;"/><path d="M1118.2188,141.6406 Q1117.6406,141.9375 1117,142.0859 Q1116.3594,142.2344 1115.6563,142.2344 Q1113.1563,142.2344 1111.8359,140.5859 Q1110.5156,138.9375 1110.5156,135.8125 Q1110.5156,132.6875 1111.8359,131.0313 Q1113.1563,129.375 1115.6563,129.375 Q1116.3594,129.375 1117.0078,129.5313 Q1117.6563,129.6875 1118.2188,129.9844 L1118.2188,132.7031 Q1117.5938,132.125 1117,131.8516 Q1116.4063,131.5781 1115.7813,131.5781 Q1114.4375,131.5781 1113.75,132.6484 Q1113.0625,133.7188 1113.0625,135.8125 Q1113.0625,137.9063 1113.75,138.9766 Q1114.4375,140.0469 1115.7813,140.0469 Q1116.4063,140.0469 1117,139.7734 Q1117.5938,139.5 1118.2188,138.9219 L1118.2188,141.6406 Z "/><text fill="#000000" font-family="sans-serif" font-size="12" lengthAdjust="spacingAndGlyphs" textLength="29" x="1135.75" y="140.1543">Task</text><line style="stroke: #A80036; stroke-width: 1.5;" x1="1063" x2="1205" y1="152" y2="152"/><text fill="#000000" font-family="sans-serif" font-size="11" lengthAdjust="spacingAndGlyphs" textLength="52" x="1068" y="166.2104">-String id</text><text fill="#000000" font-family="sans-serif" font-size="11" lengthAdjust="spacingAndGlyphs" textLength="132" x="1068" y="179.0151">-String briefDescription</text><text fill="#000000" font-family="sans-serif" font-size="11" lengthAdjust="spacingAndGlyphs" textLength="121" x="1068" y="191.8198">-Integer timeDuration</text><text fill="#000000" font-family="sans-serif" font-size="11" lengthAdjust="spacingAndGlyphs" textLength="117" x="1068" y="204.6245">-Double costPerHour</text><text fill="#000000" font-family="sans-serif" font-size="11" lengthAdjust="spacingAndGlyphs" textLength="117" x="1068" y="217.4292">-String taskCategory</text><!--MD5=[b645a18afb25b7e5623af7186d8eb36f]
class PaymentTransaction--><rect fill="#FEFECE" filter="url(#fx4rfh7g1pk5a)" height="91.2188" id="PaymentTransaction" style="stroke: #A80036; stroke-width: 1.5;" width="184" x="742" y="236.5"/><ellipse cx="767.8" cy="252.5" fill="#ADD1B2" rx="11" ry="11" style="stroke: #A80036; stroke-width: 1.0;"/><path d="M770.7688,258.1406 Q770.1906,258.4375 769.55,258.5859 Q768.9094,258.7344 768.2063,258.7344 Q765.7063,258.7344 764.3859,257.0859 Q763.0656,255.4375 763.0656,252.3125 Q763.0656,249.1875 764.3859,247.5313 Q765.7063,245.875 768.2063,245.875 Q768.9094,245.875 769.5578,246.0313 Q770.2063,246.1875 770.7688,246.4844 L770.7688,249.2031 Q770.1438,248.625 769.55,248.3516 Q768.9563,248.0781 768.3313,248.0781 Q766.9875,248.0781 766.3,249.1484 Q765.6125,250.2188 765.6125,252.3125 Q765.6125,254.4063 766.3,255.4766 Q766.9875,256.5469 768.3313,256.5469 Q768.9563,256.5469 769.55,256.2734 Q770.1438,256 770.7688,255.4219 L770.7688,258.1406 Z "/><text fill="#000000" font-family="sans-serif" font-size="12" lengthAdjust="spacingAndGlyphs" textLength="128" x="784.2" y="256.6543">PaymentTransaction</text><line style="stroke: #A80036; stroke-width: 1.5;" x1="743" x2="925" y1="268.5" y2="268.5"/><text fill="#000000" font-family="sans-serif" font-size="11" lengthAdjust="spacingAndGlyphs" textLength="52" x="748" y="282.7104">-String id</text><text fill="#000000" font-family="sans-serif" font-size="11" lengthAdjust="spacingAndGlyphs" textLength="81" x="748" y="295.5151">-Date endDate</text><text fill="#000000" font-family="sans-serif" font-size="11" lengthAdjust="spacingAndGlyphs" textLength="77" x="748" y="308.3198">-Double delay</text><text fill="#000000" font-family="sans-serif" font-size="11" lengthAdjust="spacingAndGlyphs" textLength="172" x="748" y="321.1245">-String workQualityDescription</text><!--MD5=[7640e466c042ba2d6f9c19c816f7f0fc]
link Platform to Organization--><path d="M126.1502,82.9309 C175.4865,95.1775 244.7693,112.3754 292.7267,124.2797 " fill="none" id="Platform-Organization" style="stroke: #A80036; stroke-width: 1.0;"/><text fill="#000000" font-family="sans-serif" font-size="13" lengthAdjust="spacingAndGlyphs" textLength="92" x="157" y="87.0669">has registered</text><polygon fill="#000000" points="252,81.0664,258,84.0664,252,87.0664,252,81.0664" style="stroke: #000000; stroke-width: 1.0;"/><text fill="#000000" font-family="sans-serif" font-size="13" lengthAdjust="spacingAndGlyphs" textLength="8" x="133.9685" y="97.7516">1</text><text fill="#000000" font-family="sans-serif" font-size="13" lengthAdjust="spacingAndGlyphs" textLength="7" x="277.829" y="135.5459">*</text><!--MD5=[22697d4d863c2e08ab1d60ca0d61f844]
link Platform to Freelancer--><path d="M126.1065,53.4422 C182.9251,40.9675 270.7422,25 348,25 C348,25 348,25 1134,25 C1249.3658,25 1343.3186,134.6946 1394.5963,210.7525 " fill="none" id="Platform-Freelancer" style="stroke: #A80036; stroke-width: 1.0;"/><text fill="#000000" font-family="sans-serif" font-size="13" lengthAdjust="spacingAndGlyphs" textLength="57" x="641" y="21.0669">has/uses</text><polygon fill="#000000" points="701,15.0664,707,18.0664,701,21.0664,701,15.0664" style="stroke: #000000; stroke-width: 1.0;"/><text fill="#000000" font-family="sans-serif" font-size="13" lengthAdjust="spacingAndGlyphs" textLength="8" x="133.9195" y="64.6689">1</text><text fill="#000000" font-family="sans-serif" font-size="13" lengthAdjust="spacingAndGlyphs" textLength="7" x="1383.0777" y="200.0527">*</text><!--MD5=[45817597bcd7048073a670d966abfd17]
link Organization to Collaborator--><path d="M385.0593,171.1367 C399.599,183.5495 416.6862,197.4356 433,209 C454.5102,224.2479 479.3242,239.4432 500.9704,251.9906 " fill="none" id="Organization-Collaborator" style="stroke: #A80036; stroke-width: 1.0;"/><text fill="#000000" font-family="sans-serif" font-size="13" lengthAdjust="spacingAndGlyphs" textLength="23" x="434" y="205.0669">has</text><polygon fill="#000000" points="460,199.0664,466,202.0664,460,205.0664,460,199.0664" style="stroke: #000000; stroke-width: 1.0;"/><text fill="#000000" font-family="sans-serif" font-size="13" lengthAdjust="spacingAndGlyphs" textLength="8" x="383.1546" y="190.7442">1</text><text fill="#000000" font-family="sans-serif" font-size="13" lengthAdjust="spacingAndGlyphs" textLength="8" x="485.1055" y="261.068">1</text><!--MD5=[4078351e3988aa35b1504a42837f2ab1]
link Organization to Task--><path d="M403.0679,137.899 C519.4028,138.0795 798.6773,140.5925 1032,159 C1041.699,159.7652 1051.8912,160.7938 1061.9271,161.9389 " fill="none" id="Organization-Task" style="stroke: #A80036; stroke-width: 1.0;"/><text fill="#000000" font-family="sans-serif" font-size="13" lengthAdjust="spacingAndGlyphs" textLength="23" x="658" y="137.0669">has</text><polygon fill="#000000" points="684,131.0664,690,134.0664,684,137.0664,684,131.0664" style="stroke: #000000; stroke-width: 1.0;"/><text fill="#000000" font-family="sans-serif" font-size="13" lengthAdjust="spacingAndGlyphs" textLength="8" x="411.0051" y="150.9953">1</text><text fill="#000000" font-family="sans-serif" font-size="13" lengthAdjust="spacingAndGlyphs" textLength="7" x="1047.1336" y="173.7473">*</text><!--MD5=[da2d560b3f89d8c66478284968d27dfa]
link Organization to PaymentTransaction--><path d="M403.2772,154.3784 C485.7509,178.8151 641.989,225.1079 741.899,254.7108 " fill="none" id="Organization-PaymentTransaction" style="stroke: #A80036; stroke-width: 1.0;"/><text fill="#000000" font-family="sans-serif" font-size="13" lengthAdjust="spacingAndGlyphs" textLength="23" x="537.5" y="181.0669">has</text><polygon fill="#000000" points="563.5,175.0664,569.5,178.0664,563.5,181.0664,563.5,175.0664" style="stroke: #000000; stroke-width: 1.0;"/><text fill="#000000" font-family="sans-serif" font-size="13" lengthAdjust="spacingAndGlyphs" textLength="8" x="410.8721" y="169.5382">1</text><text fill="#000000" font-family="sans-serif" font-size="13" lengthAdjust="spacingAndGlyphs" textLength="7" x="726.982" y="265.1353">*</text><!--MD5=[04ce0ecdab38a3951889ff50c232570f]
link Collaborator to User--><path d="M584.8479,315.1813 C632.0312,364.6544 730.0531,452 834,452 C834,452 834,452 1437,452 C1504.2885,452 1581.0899,441.5056 1631.6088,433.1428 " fill="none" id="Collaborator-User" style="stroke: #A80036; stroke-width: 1.0;"/><text fill="#000000" font-family="sans-serif" font-size="13" lengthAdjust="spacingAndGlyphs" textLength="52" x="1101.5" y="448.0669">acts like</text><polygon fill="#000000" points="1156.5,442.0664,1162.5,445.0664,1156.5,448.0664,1156.5,442.0664" style="stroke: #000000; stroke-width: 1.0;"/><text fill="#000000" font-family="sans-serif" font-size="13" lengthAdjust="spacingAndGlyphs" textLength="24" x="564.0464" y="334.7971">0..1</text><text fill="#000000" font-family="sans-serif" font-size="13" lengthAdjust="spacingAndGlyphs" textLength="8" x="1615.9993" y="447.5037">1</text><!--MD5=[65ab54bb4516ebbc699d18e0b28e9aea]
link Freelancer to User--><path d="M1505.3136,320.5289 C1545.0706,342.9518 1594.534,370.8492 1631.8076,391.8715 " fill="none" id="Freelancer-User" style="stroke: #A80036; stroke-width: 1.0;"/><text fill="#000000" font-family="sans-serif" font-size="13" lengthAdjust="spacingAndGlyphs" textLength="52" x="1536" y="336.0669">acts like</text><polygon fill="#000000" points="1591,330.0664,1597,333.0664,1591,336.0664,1591,330.0664" style="stroke: #000000; stroke-width: 1.0;"/><text fill="#000000" font-family="sans-serif" font-size="13" lengthAdjust="spacingAndGlyphs" textLength="24" x="1512.9685" y="336.9684">0..1</text><text fill="#000000" font-family="sans-serif" font-size="13" lengthAdjust="spacingAndGlyphs" textLength="8" x="1615.8536" y="400.7985">1</text><!--MD5=[d2c3650dbd07e79cdad2ffd4a879dec6]
link Collaborator to Freelancer--><path d="M610.1905,305.7431 C646.7331,320.2807 696.3046,337.4904 742,345 C969.7443,382.4273 1243.394,329.2663 1368.5166,299.6127 " fill="none" id="Collaborator-Freelancer" style="stroke: #A80036; stroke-width: 1.0;"/><text fill="#000000" font-family="sans-serif" font-size="13" lengthAdjust="spacingAndGlyphs" textLength="41" x="967" y="349.0669">create</text><polygon fill="#000000" points="1011,343.0664,1017,346.0664,1011,349.0664,1011,343.0664" style="stroke: #000000; stroke-width: 1.0;"/><text fill="#000000" font-family="sans-serif" font-size="13" lengthAdjust="spacingAndGlyphs" textLength="8" x="618.077" y="322.0435">1</text><text fill="#000000" font-family="sans-serif" font-size="13" lengthAdjust="spacingAndGlyphs" textLength="7" x="1354.0933" y="314.2536">*</text><!--MD5=[f919d21ae7a75ef5ececc535e09d5009]
link Collaborator to Task--><path d="M610.2218,260.5776 C646.9862,246.9183 696.7962,229.8139 742,219 C835.4666,196.6404 860.5504,199.1949 956,188 C990.6682,183.9339 1029.2414,180.3516 1061.5925,177.6132 " fill="none" id="Collaborator-Task" style="stroke: #A80036; stroke-width: 1.0;"/><text fill="#000000" font-family="sans-serif" font-size="13" lengthAdjust="spacingAndGlyphs" textLength="41" x="807" y="188.0669">create</text><polygon fill="#000000" points="851,182.0664,857,185.0664,851,188.0664,851,182.0664" style="stroke: #000000; stroke-width: 1.0;"/><text fill="#000000" font-family="sans-serif" font-size="13" lengthAdjust="spacingAndGlyphs" textLength="8" x="618.1125" y="270.8088">1</text><text fill="#000000" font-family="sans-serif" font-size="13" lengthAdjust="spacingAndGlyphs" textLength="7" x="1046.7645" y="191.038">*</text><!--MD5=[c32d3c60a61e5638fef4971a1b3a8306]
link Collaborator to PaymentTransaction--><path d="M610.1903,282 C647.6546,282 698.2614,282 741.8757,282 " fill="none" id="Collaborator-PaymentTransaction" style="stroke: #A80036; stroke-width: 1.0;"/><text fill="#000000" font-family="sans-serif" font-size="13" lengthAdjust="spacingAndGlyphs" textLength="41" x="649" y="278.0669">create</text><polygon fill="#000000" points="693,272.0664,699,275.0664,693,278.0664,693,272.0664" style="stroke: #000000; stroke-width: 1.0;"/><text fill="#000000" font-family="sans-serif" font-size="13" lengthAdjust="spacingAndGlyphs" textLength="8" x="618.0768" y="295.1099">1</text><text fill="#000000" font-family="sans-serif" font-size="13" lengthAdjust="spacingAndGlyphs" textLength="7" x="726.9568" y="294.6844">*</text><!--MD5=[f6802b286771c18a16ea4be983074371]
link PaymentTransaction to Freelancer--><path d="M926.2391,282 C1048.144,282 1260.1116,282 1368.6584,282 " fill="none" id="PaymentTransaction-Freelancer" style="stroke: #A80036; stroke-width: 1.0;"/><text fill="#000000" font-family="sans-serif" font-size="13" lengthAdjust="spacingAndGlyphs" textLength="61" x="1097" y="278.0669">relates to</text><polygon fill="#000000" points="1161,272.0664,1167,275.0664,1161,278.0664,1161,272.0664" style="stroke: #000000; stroke-width: 1.0;"/><text fill="#000000" font-family="sans-serif" font-size="13" lengthAdjust="spacingAndGlyphs" textLength="8" x="933.9082" y="294.6611">1</text><text fill="#000000" font-family="sans-serif" font-size="13" lengthAdjust="spacingAndGlyphs" textLength="8" x="1353.1982" y="294.8246">1</text><!--MD5=[271ce7fefd7250ebaca83b70495774bd]
link PaymentTransaction to Task--><path d="M926.0487,248.2488 C969.6251,232.2708 1020.9123,213.4655 1061.6495,198.5285 " fill="none" id="PaymentTransaction-Task" style="stroke: #A80036; stroke-width: 1.0;"/><text fill="#000000" font-family="sans-serif" font-size="13" lengthAdjust="spacingAndGlyphs" textLength="61" x="957" y="207.0669">relates to</text><polygon fill="#000000" points="1021,201.0664,1027,204.0664,1021,207.0664,1021,201.0664" style="stroke: #000000; stroke-width: 1.0;"/><text fill="#000000" font-family="sans-serif" font-size="13" lengthAdjust="spacingAndGlyphs" textLength="8" x="934.0027" y="258.1382">1</text><text fill="#000000" font-family="sans-serif" font-size="13" lengthAdjust="spacingAndGlyphs" textLength="8" x="1045.7759" y="214.1102">1</text><!--MD5=[8853e9d83a8841c20c4ef075af762602]
link Task to Freelancer--><path d="M1206.1911,198.208 C1255.5527,216.1281 1320.5576,239.7272 1368.9994,257.3133 " fill="none" id="Task-Freelancer" style="stroke: #A80036; stroke-width: 1.0;"/><text fill="#000000" font-family="sans-serif" font-size="13" lengthAdjust="spacingAndGlyphs" textLength="88" x="1237" y="207.0669">is assigned to</text><polygon fill="#000000" points="1328,201.0664,1334,204.0664,1328,207.0664,1328,201.0664" style="stroke: #000000; stroke-width: 1.0;"/><text fill="#000000" font-family="sans-serif" font-size="13" lengthAdjust="spacingAndGlyphs" textLength="23" x="1213.9064" y="213.3874">1..*</text><text fill="#000000" font-family="sans-serif" font-size="13" lengthAdjust="spacingAndGlyphs" textLength="8" x="1353.1243" y="267.4837">1</text><!--MD5=[9037bcb084ff1da61cbe21ca24b7a3e9]
@startuml
skinparam classAttributeIconSize 0
hide methods
left to right direction

class Platform {
  -String designation
}

class Organization {
  -String name
  -String NIF
}

class Collaborator {
  -String name
  -String email
}


class User {
  -String email
  -String password
}

class Freelancer {
  -String id
  -String name
  -String expertiseLevel
  -String email
  -String NIF
  -String IBAN
  -String address
  -String country
  }

class Task {
 -String id
 -String briefDescription
 -Integer timeDuration
 -Double costPerHour
 -String taskCategory
}

class PaymentTransaction{
  -String id
  -Date endDate
  -Double delay
  -String workQualityDescription
}

Platform "1" - - "*" Organization : has registered >
Platform "1" - - "*" Freelancer : has/uses >
Organization "1" - - "1" Collaborator: has >
Organization "1" - - "*" Task: has >
Organization "1" - - "*" PaymentTransaction: has >
Collaborator "0..1" - - "1" User: acts like >
Freelancer "0..1" - - "1" User: acts like >
Collaborator "1" - - "*" Freelancer: create >
Collaborator "1" - - "*" Task: create >
Collaborator "1" - - "*" PaymentTransaction: create >
PaymentTransaction "1" - - "1" Freelancer: relates to >
PaymentTransaction "1" - - "1" Task: relates to >
Task "1..*" - - "1" Freelancer: is assigned to >
@enduml

PlantUML version 1.2019.12(Sun Nov 03 10:24:54 UTC 2019)
(GPL source distribution)
Java Runtime: OpenJDK Runtime Environment
JVM: OpenJDK 64-Bit Server VM
Java Version: 1.8.0_232-heroku-b09
Operating System: Linux
Default Encoding: UTF-8
Language: en
Country: US
--></g></svg>