<?xml version="1.0" encoding="UTF-8" standalone="no"?><svg xmlns="http://www.w3.org/2000/svg" xmlns:xlink="http://www.w3.org/1999/xlink" contentScriptType="application/ecmascript" contentStyleType="text/css" height="487px" preserveAspectRatio="none" style="width:1777px;height:487px;" version="1.1" viewBox="0 0 1777 487" width="1777px" zoomAndPan="magnify"><defs><filter height="300%" id="f1y5xd8udfpgs" width="300%" x="-1" y="-1"><feGaussianBlur result="blurOut" stdDeviation="2.0"/><feColorMatrix in="blurOut" result="blurOut2" type="matrix" values="0 0 0 0 0 0 0 0 0 0 0 0 0 0 0 0 0 0 .4 0"/><feOffset dx="4.0" dy="4.0" in="blurOut2" result="blurOut3"/><feBlend in="SourceGraphic" in2="blurOut3" mode="normal"/></filter></defs><g><!--MD5=[99b8db98afdc2c8404e39242ef4c1e65]
class Platform--><rect fill="#FEFECE" filter="url(#f1y5xd8udfpgs)" height="52.8047" id="Platform" style="stroke: #A80036; stroke-width: 1.5;" width="120" x="6" y="419.5"/><ellipse cx="37.2" cy="435.5" fill="#ADD1B2" rx="11" ry="11" style="stroke: #A80036; stroke-width: 1.0;"/><path d="M40.1688,441.1406 Q39.5906,441.4375 38.95,441.5859 Q38.3094,441.7344 37.6063,441.7344 Q35.1063,441.7344 33.7859,440.0859 Q32.4656,438.4375 32.4656,435.3125 Q32.4656,432.1875 33.7859,430.5313 Q35.1063,428.875 37.6063,428.875 Q38.3094,428.875 38.9578,429.0313 Q39.6063,429.1875 40.1688,429.4844 L40.1688,432.2031 Q39.5438,431.625 38.95,431.3516 Q38.3563,431.0781 37.7313,431.0781 Q36.3875,431.0781 35.7,432.1484 Q35.0125,433.2188 35.0125,435.3125 Q35.0125,437.4063 35.7,438.4766 Q36.3875,439.5469 37.7313,439.5469 Q38.3563,439.5469 38.95,439.2734 Q39.5438,439 40.1688,438.4219 L40.1688,441.1406 Z "/><text fill="#000000" font-family="sans-serif" font-size="12" lengthAdjust="spacingAndGlyphs" textLength="52" x="54.8" y="439.6543">Platform</text><line style="stroke: #A80036; stroke-width: 1.5;" x1="7" x2="125" y1="451.5" y2="451.5"/><text fill="#000000" font-family="sans-serif" font-size="11" lengthAdjust="spacingAndGlyphs" textLength="108" x="12" y="465.7104">-String designation</text><!--MD5=[86c7c362de55a38b660185a1328fe18d]
class Organization--><rect fill="#FEFECE" filter="url(#f1y5xd8udfpgs)" height="65.6094" id="Organization" style="stroke: #A80036; stroke-width: 1.5;" width="110" x="293" y="182"/><ellipse cx="308" cy="198" fill="#ADD1B2" rx="11" ry="11" style="stroke: #A80036; stroke-width: 1.0;"/><path d="M310.9688,203.6406 Q310.3906,203.9375 309.75,204.0859 Q309.1094,204.2344 308.4063,204.2344 Q305.9063,204.2344 304.5859,202.5859 Q303.2656,200.9375 303.2656,197.8125 Q303.2656,194.6875 304.5859,193.0313 Q305.9063,191.375 308.4063,191.375 Q309.1094,191.375 309.7578,191.5313 Q310.4063,191.6875 310.9688,191.9844 L310.9688,194.7031 Q310.3438,194.125 309.75,193.8516 Q309.1563,193.5781 308.5313,193.5781 Q307.1875,193.5781 306.5,194.6484 Q305.8125,195.7188 305.8125,197.8125 Q305.8125,199.9063 306.5,200.9766 Q307.1875,202.0469 308.5313,202.0469 Q309.1563,202.0469 309.75,201.7734 Q310.3438,201.5 310.9688,200.9219 L310.9688,203.6406 Z "/><text fill="#000000" font-family="sans-serif" font-size="12" lengthAdjust="spacingAndGlyphs" textLength="78" x="322" y="202.1543">Organization</text><line style="stroke: #A80036; stroke-width: 1.5;" x1="294" x2="402" y1="214" y2="214"/><text fill="#000000" font-family="sans-serif" font-size="11" lengthAdjust="spacingAndGlyphs" textLength="74" x="299" y="228.2104">-String name</text><text fill="#000000" font-family="sans-serif" font-size="11" lengthAdjust="spacingAndGlyphs" textLength="59" x="299" y="241.0151">-String NIF</text><!--MD5=[f483d6e5de34a60207b28a5563be5e8b]
class Collaborator--><rect fill="#FEFECE" filter="url(#f1y5xd8udfpgs)" height="65.6094" id="Collaborator" style="stroke: #A80036; stroke-width: 1.5;" width="109" x="501" y="240"/><ellipse cx="516" cy="256" fill="#ADD1B2" rx="11" ry="11" style="stroke: #A80036; stroke-width: 1.0;"/><path d="M518.9688,261.6406 Q518.3906,261.9375 517.75,262.0859 Q517.1094,262.2344 516.4063,262.2344 Q513.9063,262.2344 512.5859,260.5859 Q511.2656,258.9375 511.2656,255.8125 Q511.2656,252.6875 512.5859,251.0313 Q513.9063,249.375 516.4063,249.375 Q517.1094,249.375 517.7578,249.5313 Q518.4063,249.6875 518.9688,249.9844 L518.9688,252.7031 Q518.3438,252.125 517.75,251.8516 Q517.1563,251.5781 516.5313,251.5781 Q515.1875,251.5781 514.5,252.6484 Q513.8125,253.7188 513.8125,255.8125 Q513.8125,257.9063 514.5,258.9766 Q515.1875,260.0469 516.5313,260.0469 Q517.1563,260.0469 517.75,259.7734 Q518.3438,259.5 518.9688,258.9219 L518.9688,261.6406 Z "/><text fill="#000000" font-family="sans-serif" font-size="12" lengthAdjust="spacingAndGlyphs" textLength="77" x="530" y="260.1543">Collaborator</text><line style="stroke: #A80036; stroke-width: 1.5;" x1="502" x2="609" y1="272" y2="272"/><text fill="#000000" font-family="sans-serif" font-size="11" lengthAdjust="spacingAndGlyphs" textLength="74" x="507" y="286.2104">-String name</text><text fill="#000000" font-family="sans-serif" font-size="11" lengthAdjust="spacingAndGlyphs" textLength="73" x="507" y="299.0151">-String email</text><!--MD5=[3fd616f346a44cd59a91eb10b19e157c]
class User--><rect fill="#FEFECE" filter="url(#f1y5xd8udfpgs)" height="65.6094" id="User" style="stroke: #A80036; stroke-width: 1.5;" width="110" x="1656" y="325"/><ellipse cx="1693.05" cy="341" fill="#ADD1B2" rx="11" ry="11" style="stroke: #A80036; stroke-width: 1.0;"/><path d="M1696.0188,346.6406 Q1695.4406,346.9375 1694.8,347.0859 Q1694.1594,347.2344 1693.4563,347.2344 Q1690.9563,347.2344 1689.6359,345.5859 Q1688.3156,343.9375 1688.3156,340.8125 Q1688.3156,337.6875 1689.6359,336.0313 Q1690.9563,334.375 1693.4563,334.375 Q1694.1594,334.375 1694.8078,334.5313 Q1695.4563,334.6875 1696.0188,334.9844 L1696.0188,337.7031 Q1695.3938,337.125 1694.8,336.8516 Q1694.2063,336.5781 1693.5813,336.5781 Q1692.2375,336.5781 1691.55,337.6484 Q1690.8625,338.7188 1690.8625,340.8125 Q1690.8625,342.9063 1691.55,343.9766 Q1692.2375,345.0469 1693.5813,345.0469 Q1694.2063,345.0469 1694.8,344.7734 Q1695.3938,344.5 1696.0188,343.9219 L1696.0188,346.6406 Z "/><text fill="#000000" font-family="sans-serif" font-size="12" lengthAdjust="spacingAndGlyphs" textLength="29" x="1711.95" y="345.1543">User</text><line style="stroke: #A80036; stroke-width: 1.5;" x1="1657" x2="1765" y1="357" y2="357"/><text fill="#000000" font-family="sans-serif" font-size="11" lengthAdjust="spacingAndGlyphs" textLength="73" x="1662" y="371.2104">-String email</text><text fill="#000000" font-family="sans-serif" font-size="11" lengthAdjust="spacingAndGlyphs" textLength="98" x="1662" y="384.0151">-String password</text><!--MD5=[1f687b5315377fe49fca59b457947463]
class Freelancer--><rect fill="#FEFECE" filter="url(#f1y5xd8udfpgs)" height="142.4375" id="Freelancer" style="stroke: #A80036; stroke-width: 1.5;" width="136" x="1369" y="192"/><ellipse cx="1400.65" cy="208" fill="#ADD1B2" rx="11" ry="11" style="stroke: #A80036; stroke-width: 1.0;"/><path d="M1403.6188,213.6406 Q1403.0406,213.9375 1402.4,214.0859 Q1401.7594,214.2344 1401.0563,214.2344 Q1398.5563,214.2344 1397.2359,212.5859 Q1395.9156,210.9375 1395.9156,207.8125 Q1395.9156,204.6875 1397.2359,203.0313 Q1398.5563,201.375 1401.0563,201.375 Q1401.7594,201.375 1402.4078,201.5313 Q1403.0563,201.6875 1403.6188,201.9844 L1403.6188,204.7031 Q1402.9938,204.125 1402.4,203.8516 Q1401.8063,203.5781 1401.1813,203.5781 Q1399.8375,203.5781 1399.15,204.6484 Q1398.4625,205.7188 1398.4625,207.8125 Q1398.4625,209.9063 1399.15,210.9766 Q1399.8375,212.0469 1401.1813,212.0469 Q1401.8063,212.0469 1402.4,211.7734 Q1402.9938,211.5 1403.6188,210.9219 L1403.6188,213.6406 Z "/><text fill="#000000" font-family="sans-serif" font-size="12" lengthAdjust="spacingAndGlyphs" textLength="67" x="1418.35" y="212.1543">Freelancer</text><line style="stroke: #A80036; stroke-width: 1.5;" x1="1370" x2="1504" y1="224" y2="224"/><text fill="#000000" font-family="sans-serif" font-size="11" lengthAdjust="spacingAndGlyphs" textLength="52" x="1375" y="238.2104">-String id</text><text fill="#000000" font-family="sans-serif" font-size="11" lengthAdjust="spacingAndGlyphs" textLength="74" x="1375" y="251.0151">-String name</text><text fill="#000000" font-family="sans-serif" font-size="11" lengthAdjust="spacingAndGlyphs" textLength="124" x="1375" y="263.8198">-String expertiseLevel</text><text fill="#000000" font-family="sans-serif" font-size="11" lengthAdjust="spacingAndGlyphs" textLength="73" x="1375" y="276.6245">-String email</text><text fill="#000000" font-family="sans-serif" font-size="11" lengthAdjust="spacingAndGlyphs" textLength="59" x="1375" y="289.4292">-String NIF</text><text fill="#000000" font-family="sans-serif" font-size="11" lengthAdjust="spacingAndGlyphs" textLength="68" x="1375" y="302.2339">-String IBAN</text><text fill="#000000" font-family="sans-serif" font-size="11" lengthAdjust="spacingAndGlyphs" textLength="89" x="1375" y="315.0386">-String address</text><text fill="#000000" font-family="sans-serif" font-size="11" lengthAdjust="spacingAndGlyphs" textLength="84" x="1375" y="327.8433">-String country</text><!--MD5=[b34797a66dc35cbf1d65f7e3ca75530e]
class Task--><rect fill="#FEFECE" filter="url(#f1y5xd8udfpgs)" height="104.0234" id="Task" style="stroke: #A80036; stroke-width: 1.5;" width="144" x="1038" y="135"/><ellipse cx="1091.25" cy="151" fill="#ADD1B2" rx="11" ry="11" style="stroke: #A80036; stroke-width: 1.0;"/><path d="M1094.2188,156.6406 Q1093.6406,156.9375 1093,157.0859 Q1092.3594,157.2344 1091.6563,157.2344 Q1089.1563,157.2344 1087.8359,155.5859 Q1086.5156,153.9375 1086.5156,150.8125 Q1086.5156,147.6875 1087.8359,146.0313 Q1089.1563,144.375 1091.6563,144.375 Q1092.3594,144.375 1093.0078,144.5313 Q1093.6563,144.6875 1094.2188,144.9844 L1094.2188,147.7031 Q1093.5938,147.125 1093,146.8516 Q1092.4063,146.5781 1091.7813,146.5781 Q1090.4375,146.5781 1089.75,147.6484 Q1089.0625,148.7188 1089.0625,150.8125 Q1089.0625,152.9063 1089.75,153.9766 Q1090.4375,155.0469 1091.7813,155.0469 Q1092.4063,155.0469 1093,154.7734 Q1093.5938,154.5 1094.2188,153.9219 L1094.2188,156.6406 Z "/><text fill="#000000" font-family="sans-serif" font-size="12" lengthAdjust="spacingAndGlyphs" textLength="29" x="1111.75" y="155.1543">Task</text><line style="stroke: #A80036; stroke-width: 1.5;" x1="1039" x2="1181" y1="167" y2="167"/><text fill="#000000" font-family="sans-serif" font-size="11" lengthAdjust="spacingAndGlyphs" textLength="52" x="1044" y="181.2104">-String id</text><text fill="#000000" font-family="sans-serif" font-size="11" lengthAdjust="spacingAndGlyphs" textLength="132" x="1044" y="194.0151">-String briefDescription</text><text fill="#000000" font-family="sans-serif" font-size="11" lengthAdjust="spacingAndGlyphs" textLength="121" x="1044" y="206.8198">-Integer timeDuration</text><text fill="#000000" font-family="sans-serif" font-size="11" lengthAdjust="spacingAndGlyphs" textLength="117" x="1044" y="219.6245">-Double costPerHour</text><text fill="#000000" font-family="sans-serif" font-size="11" lengthAdjust="spacingAndGlyphs" textLength="117" x="1044" y="232.4292">-String taskCategory</text><!--MD5=[5ce80547de3caced9d0089e35ded5090]
class TaskExecution--><rect fill="#FEFECE" filter="url(#f1y5xd8udfpgs)" height="78.4141" id="TaskExecution" style="stroke: #A80036; stroke-width: 1.5;" width="184" x="1345" y="8"/><ellipse cx="1387.9" cy="24" fill="#ADD1B2" rx="11" ry="11" style="stroke: #A80036; stroke-width: 1.0;"/><path d="M1390.8688,29.6406 Q1390.2906,29.9375 1389.65,30.0859 Q1389.0094,30.2344 1388.3063,30.2344 Q1385.8063,30.2344 1384.4859,28.5859 Q1383.1656,26.9375 1383.1656,23.8125 Q1383.1656,20.6875 1384.4859,19.0313 Q1385.8063,17.375 1388.3063,17.375 Q1389.0094,17.375 1389.6578,17.5313 Q1390.3063,17.6875 1390.8688,17.9844 L1390.8688,20.7031 Q1390.2438,20.125 1389.65,19.8516 Q1389.0563,19.5781 1388.4313,19.5781 Q1387.0875,19.5781 1386.4,20.6484 Q1385.7125,21.7188 1385.7125,23.8125 Q1385.7125,25.9063 1386.4,26.9766 Q1387.0875,28.0469 1388.4313,28.0469 Q1389.0563,28.0469 1389.65,27.7734 Q1390.2438,27.5 1390.8688,26.9219 L1390.8688,29.6406 Z "/><text fill="#000000" font-family="sans-serif" font-size="12" lengthAdjust="spacingAndGlyphs" textLength="90" x="1408.1" y="28.1543">TaskExecution</text><line style="stroke: #A80036; stroke-width: 1.5;" x1="1346" x2="1528" y1="40" y2="40"/><text fill="#000000" font-family="sans-serif" font-size="11" lengthAdjust="spacingAndGlyphs" textLength="81" x="1351" y="54.2104">-Date endDate</text><text fill="#000000" font-family="sans-serif" font-size="11" lengthAdjust="spacingAndGlyphs" textLength="77" x="1351" y="67.0151">-Double delay</text><text fill="#000000" font-family="sans-serif" font-size="11" lengthAdjust="spacingAndGlyphs" textLength="172" x="1351" y="79.8198">-String workQualityDescription</text><!--MD5=[b645a18afb25b7e5623af7186d8eb36f]
class PaymentTransaction--><rect fill="#FEFECE" filter="url(#f1y5xd8udfpgs)" height="40" id="PaymentTransaction" style="stroke: #A80036; stroke-width: 1.5;" width="160" x="742" y="50"/><ellipse cx="757" cy="66" fill="#ADD1B2" rx="11" ry="11" style="stroke: #A80036; stroke-width: 1.0;"/><path d="M759.9688,71.6406 Q759.3906,71.9375 758.75,72.0859 Q758.1094,72.2344 757.4063,72.2344 Q754.9063,72.2344 753.5859,70.5859 Q752.2656,68.9375 752.2656,65.8125 Q752.2656,62.6875 753.5859,61.0313 Q754.9063,59.375 757.4063,59.375 Q758.1094,59.375 758.7578,59.5313 Q759.4063,59.6875 759.9688,59.9844 L759.9688,62.7031 Q759.3438,62.125 758.75,61.8516 Q758.1563,61.5781 757.5313,61.5781 Q756.1875,61.5781 755.5,62.6484 Q754.8125,63.7188 754.8125,65.8125 Q754.8125,67.9063 755.5,68.9766 Q756.1875,70.0469 757.5313,70.0469 Q758.1563,70.0469 758.75,69.7734 Q759.3438,69.5 759.9688,68.9219 L759.9688,71.6406 Z "/><text fill="#000000" font-family="sans-serif" font-size="12" lengthAdjust="spacingAndGlyphs" textLength="128" x="771" y="70.1543">PaymentTransaction</text><line style="stroke: #A80036; stroke-width: 1.5;" x1="743" x2="901" y1="82" y2="82"/><!--MD5=[7640e466c042ba2d6f9c19c816f7f0fc]
link Platform to Organization--><path d="M98.6245,419.2757 C150.3833,376.8775 251.204,294.2903 307.5043,248.172 " fill="none" id="Platform-Organization" style="stroke: #A80036; stroke-width: 1.0;"/><text fill="#000000" font-family="sans-serif" font-size="13" lengthAdjust="spacingAndGlyphs" textLength="92" x="157" y="286.0669">has registered</text><polygon fill="#000000" points="252,280.0664,258,283.0664,252,286.0664,252,280.0664" style="stroke: #000000; stroke-width: 1.0;"/><text fill="#000000" font-family="sans-serif" font-size="13" lengthAdjust="spacingAndGlyphs" textLength="8" x="97.2439" y="408.4662">1</text><text fill="#000000" font-family="sans-serif" font-size="13" lengthAdjust="spacingAndGlyphs" textLength="7" x="292.3926" y="267.786">*</text><!--MD5=[22697d4d863c2e08ab1d60ca0d61f844]
link Platform to Freelancer--><path d="M126.0526,455.7776 C183.0182,464.1967 271.0992,475 348,475 C348,475 348,475 1110,475 C1215.8844,475 1314.5157,395.7709 1375.1906,334.1827 " fill="none" id="Platform-Freelancer" style="stroke: #A80036; stroke-width: 1.0;"/><text fill="#000000" font-family="sans-serif" font-size="13" lengthAdjust="spacingAndGlyphs" textLength="57" x="641" y="471.0669">has/uses</text><polygon fill="#000000" points="701,465.0664,707,468.0664,701,471.0664,701,465.0664" style="stroke: #000000; stroke-width: 1.0;"/><text fill="#000000" font-family="sans-serif" font-size="13" lengthAdjust="spacingAndGlyphs" textLength="8" x="133.859" y="469.9702">1</text><text fill="#000000" font-family="sans-serif" font-size="13" lengthAdjust="spacingAndGlyphs" textLength="7" x="1361.4556" y="354.348">*</text><!--MD5=[45817597bcd7048073a670d966abfd17]
link Organization to Collaborator--><path d="M403.0614,230.3907 C433.3176,238.8478 470.7184,249.302 500.9013,257.7387 " fill="none" id="Organization-Collaborator" style="stroke: #A80036; stroke-width: 1.0;"/><text fill="#000000" font-family="sans-serif" font-size="13" lengthAdjust="spacingAndGlyphs" textLength="23" x="434" y="235.0669">has</text><polygon fill="#000000" points="460,229.0664,466,232.0664,460,235.0664,460,229.0664" style="stroke: #000000; stroke-width: 1.0;"/><text fill="#000000" font-family="sans-serif" font-size="13" lengthAdjust="spacingAndGlyphs" textLength="8" x="410.9978" y="245.5687">1</text><text fill="#000000" font-family="sans-serif" font-size="13" lengthAdjust="spacingAndGlyphs" textLength="8" x="485.0271" y="268.7978">1</text><!--MD5=[4078351e3988aa35b1504a42837f2ab1]
link Organization to Task--><path d="M403.1139,211.0349 C506.6605,203.8377 737.3715,188.9975 932,185 C966.7605,184.286 1005.345,184.5858 1037.6796,185.1462 " fill="none" id="Organization-Task" style="stroke: #A80036; stroke-width: 1.0;"/><text fill="#000000" font-family="sans-serif" font-size="13" lengthAdjust="spacingAndGlyphs" textLength="23" x="658" y="189.0669">has</text><polygon fill="#000000" points="684,183.0664,690,186.0664,684,189.0664,684,183.0664" style="stroke: #000000; stroke-width: 1.0;"/><text fill="#000000" font-family="sans-serif" font-size="13" lengthAdjust="spacingAndGlyphs" textLength="8" x="411.0573" y="223.612">1</text><text fill="#000000" font-family="sans-serif" font-size="13" lengthAdjust="spacingAndGlyphs" textLength="7" x="1022.8606" y="197.801">*</text><!--MD5=[da2d560b3f89d8c66478284968d27dfa]
link Organization to PaymentTransaction--><path d="M373.1698,181.9752 C388.494,164.2832 409.5961,143.7642 433,132 C531.3745,82.551 659.8708,70.7772 741.6919,68.8484 " fill="none" id="Organization-PaymentTransaction" style="stroke: #A80036; stroke-width: 1.0;"/><text fill="#000000" font-family="sans-serif" font-size="13" lengthAdjust="spacingAndGlyphs" textLength="23" x="537.5" y="77.0669">has</text><polygon fill="#000000" points="563.5,71.0664,569.5,74.0664,563.5,77.0664,563.5,71.0664" style="stroke: #000000; stroke-width: 1.0;"/><text fill="#000000" font-family="sans-serif" font-size="13" lengthAdjust="spacingAndGlyphs" textLength="8" x="369.5361" y="170.7378">1</text><text fill="#000000" font-family="sans-serif" font-size="13" lengthAdjust="spacingAndGlyphs" textLength="7" x="726.9658" y="81.5067">*</text><!--MD5=[04ce0ecdab38a3951889ff50c232570f]
link Collaborator to User--><path d="M601.5734,306.28 C652.785,339.9286 739.2191,387 822,387 C822,387 822,387 1437,387 C1513.1775,387 1600.6096,375.7778 1655.8156,367.2954 " fill="none" id="Collaborator-User" style="stroke: #A80036; stroke-width: 1.0;"/><text fill="#000000" font-family="sans-serif" font-size="13" lengthAdjust="spacingAndGlyphs" textLength="52" x="1077.5" y="383.0669">acts like</text><polygon fill="#000000" points="1132.5,377.0664,1138.5,380.0664,1132.5,383.0664,1132.5,377.0664" style="stroke: #000000; stroke-width: 1.0;"/><text fill="#000000" font-family="sans-serif" font-size="13" lengthAdjust="spacingAndGlyphs" textLength="24" x="583.6427" y="325.6575">0..1</text><text fill="#000000" font-family="sans-serif" font-size="13" lengthAdjust="spacingAndGlyphs" textLength="8" x="1639.8627" y="381.6543">1</text><!--MD5=[65ab54bb4516ebbc699d18e0b28e9aea]
link Freelancer to User--><path d="M1505.0824,286.6052 C1551.5209,302.7062 1612.2447,323.76 1655.6956,338.8251 " fill="none" id="Freelancer-User" style="stroke: #A80036; stroke-width: 1.0;"/><text fill="#000000" font-family="sans-serif" font-size="13" lengthAdjust="spacingAndGlyphs" textLength="52" x="1560" y="304.0669">acts like</text><polygon fill="#000000" points="1615,298.0664,1621,301.0664,1615,304.0664,1615,298.0664" style="stroke: #000000; stroke-width: 1.0;"/><text fill="#000000" font-family="sans-serif" font-size="13" lengthAdjust="spacingAndGlyphs" textLength="24" x="1512.9655" y="301.719">0..1</text><text fill="#000000" font-family="sans-serif" font-size="13" lengthAdjust="spacingAndGlyphs" textLength="8" x="1640.0972" y="349.4297">1</text><!--MD5=[d2c3650dbd07e79cdad2ffd4a879dec6]
link Collaborator to Freelancer--><path d="M610.3087,272.3782 C764.151,270.633 1199.7397,265.6916 1368.7701,263.774 " fill="none" id="Collaborator-Freelancer" style="stroke: #A80036; stroke-width: 1.0;"/><text fill="#000000" font-family="sans-serif" font-size="13" lengthAdjust="spacingAndGlyphs" textLength="41" x="943" y="264.0669">create</text><polygon fill="#000000" points="987,258.0664,993,261.0664,987,264.0664,987,258.0664" style="stroke: #000000; stroke-width: 1.0;"/><text fill="#000000" font-family="sans-serif" font-size="13" lengthAdjust="spacingAndGlyphs" textLength="8" x="617.8436" y="285.3599">1</text><text fill="#000000" font-family="sans-serif" font-size="13" lengthAdjust="spacingAndGlyphs" textLength="7" x="1353.9246" y="276.7292">*</text><!--MD5=[f919d21ae7a75ef5ececc535e09d5009]
link Collaborator to Task--><path d="M610.2207,265.5777 C640.2836,261.432 678.2219,256.0895 712,251 C826.0131,233.8211 958.1156,212.2469 1037.8045,199.0495 " fill="none" id="Collaborator-Task" style="stroke: #A80036; stroke-width: 1.0;"/><text fill="#000000" font-family="sans-serif" font-size="13" lengthAdjust="spacingAndGlyphs" textLength="41" x="795" y="218.0669">create</text><polygon fill="#000000" points="839,212.0664,845,215.0664,839,218.0664,839,212.0664" style="stroke: #000000; stroke-width: 1.0;"/><text fill="#000000" font-family="sans-serif" font-size="13" lengthAdjust="spacingAndGlyphs" textLength="8" x="618.1113" y="260.6746">1</text><text fill="#000000" font-family="sans-serif" font-size="13" lengthAdjust="spacingAndGlyphs" textLength="7" x="1022.9984" y="213.1381">*</text><!--MD5=[c32d3c60a61e5638fef4971a1b3a8306]
link Collaborator to PaymentTransaction--><path d="M610.008,262.2795 C641.9682,254.0379 681.8544,240.2017 712,218 C759.4308,183.068 795.506,121.8937 812.0465,90.2464 " fill="none" id="Collaborator-PaymentTransaction" style="stroke: #A80036; stroke-width: 1.0;"/><text fill="#000000" font-family="sans-serif" font-size="13" lengthAdjust="spacingAndGlyphs" textLength="41" x="649" y="214.0669">create</text><polygon fill="#000000" points="693,208.0664,699,211.0664,693,214.0664,693,208.0664" style="stroke: #000000; stroke-width: 1.0;"/><text fill="#000000" font-family="sans-serif" font-size="13" lengthAdjust="spacingAndGlyphs" textLength="8" x="617.87" y="273.9488">1</text><text fill="#000000" font-family="sans-serif" font-size="13" lengthAdjust="spacingAndGlyphs" textLength="7" x="801.2627" y="110.1356">*</text><!--MD5=[f6802b286771c18a16ea4be983074371]
link PaymentTransaction to Freelancer--><path d="M902.1251,64.2313 C1023.2393,56.9246 1246.1209,49.4101 1315,87 C1356.6098,109.7081 1387.0345,153.4537 1407.0942,191.6487 " fill="none" id="PaymentTransaction-Freelancer" style="stroke: #A80036; stroke-width: 1.0;"/><text fill="#000000" font-family="sans-serif" font-size="13" lengthAdjust="spacingAndGlyphs" textLength="61" x="1073" y="55.0669">relates to</text><polygon fill="#000000" points="1137,49.0664,1143,52.0664,1137,55.0664,1137,49.0664" style="stroke: #000000; stroke-width: 1.0;"/><text fill="#000000" font-family="sans-serif" font-size="13" lengthAdjust="spacingAndGlyphs" textLength="8" x="909.8804" y="76.4639">1</text><text fill="#000000" font-family="sans-serif" font-size="13" lengthAdjust="spacingAndGlyphs" textLength="8" x="1395.7566" y="180.9387">1</text><!--MD5=[271ce7fefd7250ebaca83b70495774bd]
link PaymentTransaction to Task--><path d="M873.4293,90.1369 C910.8354,104.862 962.655,125.424 1008,144 C1017.6919,147.9704 1027.88,152.1991 1037.9138,156.3962 " fill="none" id="PaymentTransaction-Task" style="stroke: #A80036; stroke-width: 1.0;"/><text fill="#000000" font-family="sans-serif" font-size="13" lengthAdjust="spacingAndGlyphs" textLength="61" x="933" y="112.0669">relates to</text><polygon fill="#000000" points="997,106.0664,1003,109.0664,997,112.0664,997,106.0664" style="stroke: #000000; stroke-width: 1.0;"/><text fill="#000000" font-family="sans-serif" font-size="13" lengthAdjust="spacingAndGlyphs" textLength="8" x="878.7688" y="109.9953">1</text><text fill="#000000" font-family="sans-serif" font-size="13" lengthAdjust="spacingAndGlyphs" textLength="8" x="1022.0674" y="166.0862">1</text><!--MD5=[ccf9e4a23b86a8fcbc3774eff83a0cb7]
link PaymentTransaction to TaskExecution--><path d="M881.5972,49.9934 C897.7634,45.4531 915.3922,41.2955 932,39 C1075.1,19.2211 1243.1668,28.2131 1344.7987,37.1364 " fill="none" id="PaymentTransaction-TaskExecution" style="stroke: #A80036; stroke-width: 1.0;"/><text fill="#000000" font-family="sans-serif" font-size="13" lengthAdjust="spacingAndGlyphs" textLength="61" x="1073" y="24.0669">relates to</text><polygon fill="#000000" points="1137,18.0664,1143,21.0664,1137,24.0664,1137,18.0664" style="stroke: #000000; stroke-width: 1.0;"/><text fill="#000000" font-family="sans-serif" font-size="13" lengthAdjust="spacingAndGlyphs" textLength="8" x="889.9289" y="38.9997">1</text><text fill="#000000" font-family="sans-serif" font-size="13" lengthAdjust="spacingAndGlyphs" textLength="8" x="1329.1327" y="49.0037">1</text><!--MD5=[bdc7b78a1b1f03a53fec8289ba75cac4]
link Task to TaskExecution--><path d="M1182.1664,156.1031 C1230.3154,135.4888 1294.0238,108.2131 1345.6949,86.0909 " fill="none" id="Task-TaskExecution" style="stroke: #A80036; stroke-width: 1.0;"/><text fill="#000000" font-family="sans-serif" font-size="13" lengthAdjust="spacingAndGlyphs" textLength="23" x="1245.5" y="97.0669">has</text><polygon fill="#000000" points="1271.5,91.0664,1277.5,94.0664,1271.5,97.0664,1271.5,91.0664" style="stroke: #000000; stroke-width: 1.0;"/><text fill="#000000" font-family="sans-serif" font-size="13" lengthAdjust="spacingAndGlyphs" textLength="8" x="1190.0211" y="165.7628">1</text><text fill="#000000" font-family="sans-serif" font-size="13" lengthAdjust="spacingAndGlyphs" textLength="8" x="1328.909" y="102.4399">1</text><!--MD5=[8853e9d83a8841c20c4ef075af762602]
link Task to Freelancer--><path d="M1182.1664,203.7726 C1237.8386,216.7117 1314.3125,234.4855 1368.9289,247.1792 " fill="none" id="Task-Freelancer" style="stroke: #A80036; stroke-width: 1.0;"/><text fill="#000000" font-family="sans-serif" font-size="13" lengthAdjust="spacingAndGlyphs" textLength="88" x="1213" y="208.0669">is assigned to</text><polygon fill="#000000" points="1304,202.0664,1310,205.0664,1304,208.0664,1304,202.0664" style="stroke: #000000; stroke-width: 1.0;"/><text fill="#000000" font-family="sans-serif" font-size="13" lengthAdjust="spacingAndGlyphs" textLength="23" x="1189.8794" y="218.0822">1..*</text><text fill="#000000" font-family="sans-serif" font-size="13" lengthAdjust="spacingAndGlyphs" textLength="8" x="1353.0461" y="258.3193">1</text><!--MD5=[dcce25f82d742e46b4d8d1a182073b3c]
@startuml
skinparam classAttributeIconSize 0
hide methods
left to right direction

class Platform {
  -String designation
}

class Organization {
  -String name
  -String NIF
}

class Collaborator {
  -String name
  -String email
}


class User {
  -String email
  -String password
}

class Freelancer {
  -String id
  -String name
  -String expertiseLevel
  -String email
  -String NIF
  -String IBAN
  -String address
  -String country
  }

class Task {
 -String id
 -String briefDescription
 -Integer timeDuration
 -Double costPerHour
 -String taskCategory
}

class TaskExecution {
 -Date endDate
 -Double delay
 -String workQualityDescription
}

class PaymentTransaction{
}

Platform "1" - - "*" Organization : has registered >
Platform "1" - - "*" Freelancer : has/uses >
Organization "1" - - "1" Collaborator: has >
Organization "1" - - "*" Task: has >
Organization "1" - - "*" PaymentTransaction: has >
Collaborator "0..1" - - "1" User: acts like >
Freelancer "0..1" - - "1" User: acts like >
Collaborator "1" - - "*" Freelancer: create >
Collaborator "1" - - "*" Task: create >
Collaborator "1" - - "*" PaymentTransaction: create >
PaymentTransaction "1" - - "1" Freelancer: relates to >
PaymentTransaction "1" - - "1" Task: relates to >
PaymentTransaction "1" - - "1" TaskExecution: relates to >
Task "1" - - "1" TaskExecution: has >
Task "1..*" - - "1" Freelancer: is assigned to >
@enduml

PlantUML version 1.2019.12(Sun Nov 03 10:24:54 UTC 2019)
(GPL source distribution)
Java Runtime: OpenJDK Runtime Environment
JVM: OpenJDK 64-Bit Server VM
Java Version: 1.8.0_232-heroku-b09
Operating System: Linux
Default Encoding: UTF-8
Language: en
Country: US
--></g></svg>