<?xml version="1.0" encoding="UTF-8" standalone="no"?><svg xmlns="http://www.w3.org/2000/svg" xmlns:xlink="http://www.w3.org/1999/xlink" contentScriptType="application/ecmascript" contentStyleType="text/css" height="1469px" preserveAspectRatio="none" style="width:1159px;height:1469px;" version="1.1" viewBox="0 0 1159 1469" width="1159px" zoomAndPan="magnify"><defs><filter height="300%" id="flwmkn7hlupzz" width="300%" x="-1" y="-1"><feGaussianBlur result="blurOut" stdDeviation="2.0"/><feColorMatrix in="blurOut" result="blurOut2" type="matrix" values="0 0 0 0 0 0 0 0 0 0 0 0 0 0 0 0 0 0 .4 0"/><feOffset dx="4.0" dy="4.0" in="blurOut2" result="blurOut3"/><feBlend in="SourceGraphic" in2="blurOut3" mode="normal"/></filter></defs><g><!--MD5=[52de6b799a0982f4494b9c19495c1271]
class POTApplication--><rect fill="#FEFECE" filter="url(#flwmkn7hlupzz)" height="73.6094" id="POTApplication" style="stroke: #A80036; stroke-width: 1.5;" width="136" x="6" y="283"/><ellipse cx="25.95" cy="299" fill="#ADD1B2" rx="11" ry="11" style="stroke: #A80036; stroke-width: 1.0;"/><path d="M28.9188,304.6406 Q28.3406,304.9375 27.7,305.0859 Q27.0594,305.2344 26.3563,305.2344 Q23.8563,305.2344 22.5359,303.5859 Q21.2156,301.9375 21.2156,298.8125 Q21.2156,295.6875 22.5359,294.0313 Q23.8563,292.375 26.3563,292.375 Q27.0594,292.375 27.7078,292.5313 Q28.3563,292.6875 28.9188,292.9844 L28.9188,295.7031 Q28.2938,295.125 27.7,294.8516 Q27.1063,294.5781 26.4813,294.5781 Q25.1375,294.5781 24.45,295.6484 Q23.7625,296.7188 23.7625,298.8125 Q23.7625,300.9063 24.45,301.9766 Q25.1375,303.0469 26.4813,303.0469 Q27.1063,303.0469 27.7,302.7734 Q28.2938,302.5 28.9188,301.9219 L28.9188,304.6406 Z "/><text fill="#000000" font-family="sans-serif" font-size="12" lengthAdjust="spacingAndGlyphs" textLength="93" x="41.05" y="303.1543">POTApplication</text><line style="stroke: #A80036; stroke-width: 1.5;" x1="7" x2="141" y1="315" y2="315"/><line style="stroke: #A80036; stroke-width: 1.5;" x1="7" x2="141" y1="323" y2="323"/><text fill="#000000" font-family="sans-serif" font-size="11" lengthAdjust="spacingAndGlyphs" textLength="118" x="12" y="337.2104">+static getInstance()</text><text fill="#000000" font-family="sans-serif" font-size="11" lengthAdjust="spacingAndGlyphs" textLength="124" x="12" y="350.0151">+getCurrentSession()</text><!--MD5=[c5b08e60048ef1bcd788d24cf324082e]
class UserSession--><rect fill="#FEFECE" filter="url(#flwmkn7hlupzz)" height="60.8047" id="UserSession" style="stroke: #A80036; stroke-width: 1.5;" width="110" x="177" y="289.5"/><ellipse cx="192" cy="305.5" fill="#ADD1B2" rx="11" ry="11" style="stroke: #A80036; stroke-width: 1.0;"/><path d="M194.9688,311.1406 Q194.3906,311.4375 193.75,311.5859 Q193.1094,311.7344 192.4063,311.7344 Q189.9063,311.7344 188.5859,310.0859 Q187.2656,308.4375 187.2656,305.3125 Q187.2656,302.1875 188.5859,300.5313 Q189.9063,298.875 192.4063,298.875 Q193.1094,298.875 193.7578,299.0313 Q194.4063,299.1875 194.9688,299.4844 L194.9688,302.2031 Q194.3438,301.625 193.75,301.3516 Q193.1563,301.0781 192.5313,301.0781 Q191.1875,301.0781 190.5,302.1484 Q189.8125,303.2188 189.8125,305.3125 Q189.8125,307.4063 190.5,308.4766 Q191.1875,309.5469 192.5313,309.5469 Q193.1563,309.5469 193.75,309.2734 Q194.3438,309 194.9688,308.4219 L194.9688,311.1406 Z "/><text fill="#000000" font-family="sans-serif" font-size="12" lengthAdjust="spacingAndGlyphs" textLength="78" x="206" y="309.6543">UserSession</text><line style="stroke: #A80036; stroke-width: 1.5;" x1="178" x2="286" y1="321.5" y2="321.5"/><line style="stroke: #A80036; stroke-width: 1.5;" x1="178" x2="286" y1="329.5" y2="329.5"/><text fill="#000000" font-family="sans-serif" font-size="11" lengthAdjust="spacingAndGlyphs" textLength="93" x="183" y="343.7104">+getUserEmail()</text><!--MD5=[b34797a66dc35cbf1d65f7e3ca75530e]
class Task--><rect fill="#FEFECE" filter="url(#flwmkn7hlupzz)" height="112.0234" id="Task" style="stroke: #A80036; stroke-width: 1.5;" width="144" x="729" y="1119"/><ellipse cx="782.25" cy="1135" fill="#ADD1B2" rx="11" ry="11" style="stroke: #A80036; stroke-width: 1.0;"/><path d="M785.2188,1140.6406 Q784.6406,1140.9375 784,1141.0859 Q783.3594,1141.2344 782.6563,1141.2344 Q780.1563,1141.2344 778.8359,1139.5859 Q777.5156,1137.9375 777.5156,1134.8125 Q777.5156,1131.6875 778.8359,1130.0313 Q780.1563,1128.375 782.6563,1128.375 Q783.3594,1128.375 784.0078,1128.5313 Q784.6563,1128.6875 785.2188,1128.9844 L785.2188,1131.7031 Q784.5938,1131.125 784,1130.8516 Q783.4063,1130.5781 782.7813,1130.5781 Q781.4375,1130.5781 780.75,1131.6484 Q780.0625,1132.7188 780.0625,1134.8125 Q780.0625,1136.9063 780.75,1137.9766 Q781.4375,1139.0469 782.7813,1139.0469 Q783.4063,1139.0469 784,1138.7734 Q784.5938,1138.5 785.2188,1137.9219 L785.2188,1140.6406 Z "/><text fill="#000000" font-family="sans-serif" font-size="12" lengthAdjust="spacingAndGlyphs" textLength="29" x="802.75" y="1139.1543">Task</text><line style="stroke: #A80036; stroke-width: 1.5;" x1="730" x2="872" y1="1151" y2="1151"/><text fill="#000000" font-family="sans-serif" font-size="11" lengthAdjust="spacingAndGlyphs" textLength="52" x="735" y="1165.2104">-String id</text><text fill="#000000" font-family="sans-serif" font-size="11" lengthAdjust="spacingAndGlyphs" textLength="132" x="735" y="1178.0151">-String briefDescription</text><text fill="#000000" font-family="sans-serif" font-size="11" lengthAdjust="spacingAndGlyphs" textLength="121" x="735" y="1190.8198">-Integer timeDuration</text><text fill="#000000" font-family="sans-serif" font-size="11" lengthAdjust="spacingAndGlyphs" textLength="117" x="735" y="1203.6245">-Double costPerHour</text><text fill="#000000" font-family="sans-serif" font-size="11" lengthAdjust="spacingAndGlyphs" textLength="117" x="735" y="1216.4292">-String taskCategory</text><line style="stroke: #A80036; stroke-width: 1.5;" x1="730" x2="872" y1="1223.0234" y2="1223.0234"/><!--MD5=[1f687b5315377fe49fca59b457947463]
class Freelancer--><rect fill="#FEFECE" filter="url(#flwmkn7hlupzz)" height="150.4375" id="Freelancer" style="stroke: #A80036; stroke-width: 1.5;" width="136" x="733" y="1308"/><ellipse cx="764.65" cy="1324" fill="#ADD1B2" rx="11" ry="11" style="stroke: #A80036; stroke-width: 1.0;"/><path d="M767.6188,1329.6406 Q767.0406,1329.9375 766.4,1330.0859 Q765.7594,1330.2344 765.0563,1330.2344 Q762.5563,1330.2344 761.2359,1328.5859 Q759.9156,1326.9375 759.9156,1323.8125 Q759.9156,1320.6875 761.2359,1319.0313 Q762.5563,1317.375 765.0563,1317.375 Q765.7594,1317.375 766.4078,1317.5313 Q767.0563,1317.6875 767.6188,1317.9844 L767.6188,1320.7031 Q766.9938,1320.125 766.4,1319.8516 Q765.8063,1319.5781 765.1813,1319.5781 Q763.8375,1319.5781 763.15,1320.6484 Q762.4625,1321.7188 762.4625,1323.8125 Q762.4625,1325.9063 763.15,1326.9766 Q763.8375,1328.0469 765.1813,1328.0469 Q765.8063,1328.0469 766.4,1327.7734 Q766.9938,1327.5 767.6188,1326.9219 L767.6188,1329.6406 Z "/><text fill="#000000" font-family="sans-serif" font-size="12" lengthAdjust="spacingAndGlyphs" textLength="67" x="782.35" y="1328.1543">Freelancer</text><line style="stroke: #A80036; stroke-width: 1.5;" x1="734" x2="868" y1="1340" y2="1340"/><text fill="#000000" font-family="sans-serif" font-size="11" lengthAdjust="spacingAndGlyphs" textLength="52" x="739" y="1354.2104">-String id</text><text fill="#000000" font-family="sans-serif" font-size="11" lengthAdjust="spacingAndGlyphs" textLength="74" x="739" y="1367.0151">-String name</text><text fill="#000000" font-family="sans-serif" font-size="11" lengthAdjust="spacingAndGlyphs" textLength="124" x="739" y="1379.8198">-String expertiseLevel</text><text fill="#000000" font-family="sans-serif" font-size="11" lengthAdjust="spacingAndGlyphs" textLength="73" x="739" y="1392.6245">-String email</text><text fill="#000000" font-family="sans-serif" font-size="11" lengthAdjust="spacingAndGlyphs" textLength="59" x="739" y="1405.4292">-String NIF</text><text fill="#000000" font-family="sans-serif" font-size="11" lengthAdjust="spacingAndGlyphs" textLength="68" x="739" y="1418.2339">-String IBAN</text><text fill="#000000" font-family="sans-serif" font-size="11" lengthAdjust="spacingAndGlyphs" textLength="89" x="739" y="1431.0386">-String address</text><text fill="#000000" font-family="sans-serif" font-size="11" lengthAdjust="spacingAndGlyphs" textLength="84" x="739" y="1443.8433">-String country</text><line style="stroke: #A80036; stroke-width: 1.5;" x1="734" x2="868" y1="1450.4375" y2="1450.4375"/><!--MD5=[86c7c362de55a38b660185a1328fe18d]
class Organization--><rect fill="#FEFECE" filter="url(#flwmkn7hlupzz)" height="99.2188" id="Organization" style="stroke: #A80036; stroke-width: 1.5;" width="183" x="538.5" y="578"/><ellipse cx="586.75" cy="594" fill="#ADD1B2" rx="11" ry="11" style="stroke: #A80036; stroke-width: 1.0;"/><path d="M589.7188,599.6406 Q589.1406,599.9375 588.5,600.0859 Q587.8594,600.2344 587.1563,600.2344 Q584.6563,600.2344 583.3359,598.5859 Q582.0156,596.9375 582.0156,593.8125 Q582.0156,590.6875 583.3359,589.0313 Q584.6563,587.375 587.1563,587.375 Q587.8594,587.375 588.5078,587.5313 Q589.1563,587.6875 589.7188,587.9844 L589.7188,590.7031 Q589.0938,590.125 588.5,589.8516 Q587.9063,589.5781 587.2813,589.5781 Q585.9375,589.5781 585.25,590.6484 Q584.5625,591.7188 584.5625,593.8125 Q584.5625,595.9063 585.25,596.9766 Q585.9375,598.0469 587.2813,598.0469 Q587.9063,598.0469 588.5,597.7734 Q589.0938,597.5 589.7188,596.9219 L589.7188,599.6406 Z "/><text fill="#000000" font-family="sans-serif" font-size="12" lengthAdjust="spacingAndGlyphs" textLength="78" x="607.25" y="598.1543">Organization</text><line style="stroke: #A80036; stroke-width: 1.5;" x1="539.5" x2="720.5" y1="610" y2="610"/><text fill="#000000" font-family="sans-serif" font-size="11" lengthAdjust="spacingAndGlyphs" textLength="74" x="544.5" y="624.2104">-String name</text><text fill="#000000" font-family="sans-serif" font-size="11" lengthAdjust="spacingAndGlyphs" textLength="59" x="544.5" y="637.0151">-String NIF</text><line style="stroke: #A80036; stroke-width: 1.5;" x1="539.5" x2="720.5" y1="643.6094" y2="643.6094"/><text fill="#000000" font-family="sans-serif" font-size="11" lengthAdjust="spacingAndGlyphs" textLength="89" x="544.5" y="657.8198">+getTasksList()</text><text fill="#000000" font-family="sans-serif" font-size="11" lengthAdjust="spacingAndGlyphs" textLength="171" x="544.5" y="670.6245">+getPaymentTransactionList()</text><!--MD5=[bfe5ad1e6c67e1aa0bfa76859c3b49e3]
class TasksList--><rect fill="#FEFECE" filter="url(#flwmkn7hlupzz)" height="60.8047" id="TasksList" style="stroke: #A80036; stroke-width: 1.5;" width="121" x="883.5" y="773"/><ellipse cx="912.9" cy="789" fill="#ADD1B2" rx="11" ry="11" style="stroke: #A80036; stroke-width: 1.0;"/><path d="M915.8688,794.6406 Q915.2906,794.9375 914.65,795.0859 Q914.0094,795.2344 913.3063,795.2344 Q910.8063,795.2344 909.4859,793.5859 Q908.1656,791.9375 908.1656,788.8125 Q908.1656,785.6875 909.4859,784.0313 Q910.8063,782.375 913.3063,782.375 Q914.0094,782.375 914.6578,782.5313 Q915.3063,782.6875 915.8688,782.9844 L915.8688,785.7031 Q915.2438,785.125 914.65,784.8516 Q914.0563,784.5781 913.4313,784.5781 Q912.0875,784.5781 911.4,785.6484 Q910.7125,786.7188 910.7125,788.8125 Q910.7125,790.9063 911.4,791.9766 Q912.0875,793.0469 913.4313,793.0469 Q914.0563,793.0469 914.65,792.7734 Q915.2438,792.5 915.8688,791.9219 L915.8688,794.6406 Z "/><text fill="#000000" font-family="sans-serif" font-size="12" lengthAdjust="spacingAndGlyphs" textLength="57" x="930.1" y="793.1543">TasksList</text><line style="stroke: #A80036; stroke-width: 1.5;" x1="884.5" x2="1003.5" y1="805" y2="805"/><line style="stroke: #A80036; stroke-width: 1.5;" x1="884.5" x2="1003.5" y1="813" y2="813"/><text fill="#000000" font-family="sans-serif" font-size="11" lengthAdjust="spacingAndGlyphs" textLength="109" x="889.5" y="827.2104">+taskExists(taskId)</text><!--MD5=[99b8db98afdc2c8404e39242ef4c1e65]
class Platform--><rect fill="#FEFECE" filter="url(#flwmkn7hlupzz)" height="86.4141" id="Platform" style="stroke: #A80036; stroke-width: 1.5;" width="285" x="606.5" y="277"/><ellipse cx="718.75" cy="293" fill="#ADD1B2" rx="11" ry="11" style="stroke: #A80036; stroke-width: 1.0;"/><path d="M721.7188,298.6406 Q721.1406,298.9375 720.5,299.0859 Q719.8594,299.2344 719.1563,299.2344 Q716.6563,299.2344 715.3359,297.5859 Q714.0156,295.9375 714.0156,292.8125 Q714.0156,289.6875 715.3359,288.0313 Q716.6563,286.375 719.1563,286.375 Q719.8594,286.375 720.5078,286.5313 Q721.1563,286.6875 721.7188,286.9844 L721.7188,289.7031 Q721.0938,289.125 720.5,288.8516 Q719.9063,288.5781 719.2813,288.5781 Q717.9375,288.5781 717.25,289.6484 Q716.5625,290.7188 716.5625,292.8125 Q716.5625,294.9063 717.25,295.9766 Q717.9375,297.0469 719.2813,297.0469 Q719.9063,297.0469 720.5,296.7734 Q721.0938,296.5 721.7188,295.9219 L721.7188,298.6406 Z "/><text fill="#000000" font-family="sans-serif" font-size="12" lengthAdjust="spacingAndGlyphs" textLength="52" x="739.25" y="297.1543">Platform</text><line style="stroke: #A80036; stroke-width: 1.5;" x1="607.5" x2="890.5" y1="309" y2="309"/><text fill="#000000" font-family="sans-serif" font-size="11" lengthAdjust="spacingAndGlyphs" textLength="108" x="612.5" y="323.2104">-String designation</text><line style="stroke: #A80036; stroke-width: 1.5;" x1="607.5" x2="890.5" y1="329.8047" y2="329.8047"/><text fill="#000000" font-family="sans-serif" font-size="11" lengthAdjust="spacingAndGlyphs" textLength="273" x="612.5" y="344.0151">+OrganizationsRecord getOrganizationsRecord()</text><text fill="#000000" font-family="sans-serif" font-size="11" lengthAdjust="spacingAndGlyphs" textLength="251" x="612.5" y="356.8198">+FreelancersRecord getFreelancersRecord()</text><!--MD5=[c7635c972eb61a4e069c06c1240b28a8]
class FreelancersRecord--><rect fill="#FEFECE" filter="url(#flwmkn7hlupzz)" height="60.8047" id="FreelancersRecord" style="stroke: #A80036; stroke-width: 1.5;" width="150" x="998" y="440"/><ellipse cx="1013" cy="456" fill="#ADD1B2" rx="11" ry="11" style="stroke: #A80036; stroke-width: 1.0;"/><path d="M1015.9688,461.6406 Q1015.3906,461.9375 1014.75,462.0859 Q1014.1094,462.2344 1013.4063,462.2344 Q1010.9063,462.2344 1009.5859,460.5859 Q1008.2656,458.9375 1008.2656,455.8125 Q1008.2656,452.6875 1009.5859,451.0313 Q1010.9063,449.375 1013.4063,449.375 Q1014.1094,449.375 1014.7578,449.5313 Q1015.4063,449.6875 1015.9688,449.9844 L1015.9688,452.7031 Q1015.3438,452.125 1014.75,451.8516 Q1014.1563,451.5781 1013.5313,451.5781 Q1012.1875,451.5781 1011.5,452.6484 Q1010.8125,453.7188 1010.8125,455.8125 Q1010.8125,457.9063 1011.5,458.9766 Q1012.1875,460.0469 1013.5313,460.0469 Q1014.1563,460.0469 1014.75,459.7734 Q1015.3438,459.5 1015.9688,458.9219 L1015.9688,461.6406 Z "/><text fill="#000000" font-family="sans-serif" font-size="12" lengthAdjust="spacingAndGlyphs" textLength="118" x="1027" y="460.1543">FreelancersRecord</text><line style="stroke: #A80036; stroke-width: 1.5;" x1="999" x2="1147" y1="472" y2="472"/><line style="stroke: #A80036; stroke-width: 1.5;" x1="999" x2="1147" y1="480" y2="480"/><text fill="#000000" font-family="sans-serif" font-size="11" lengthAdjust="spacingAndGlyphs" textLength="131" x="1004" y="494.2104">+freelancerExists(frlId)</text><!--MD5=[759d9d4bd7fe37fb1c4b72776400893c]
class OrganizationsRecord--><rect fill="#FEFECE" filter="url(#flwmkn7hlupzz)" height="60.8047" id="OrganizationsRecord" style="stroke: #A80036; stroke-width: 1.5;" width="221" x="535.5" y="440"/><ellipse cx="577.5" cy="456" fill="#ADD1B2" rx="11" ry="11" style="stroke: #A80036; stroke-width: 1.0;"/><path d="M580.4688,461.6406 Q579.8906,461.9375 579.25,462.0859 Q578.6094,462.2344 577.9063,462.2344 Q575.4063,462.2344 574.0859,460.5859 Q572.7656,458.9375 572.7656,455.8125 Q572.7656,452.6875 574.0859,451.0313 Q575.4063,449.375 577.9063,449.375 Q578.6094,449.375 579.2578,449.5313 Q579.9063,449.6875 580.4688,449.9844 L580.4688,452.7031 Q579.8438,452.125 579.25,451.8516 Q578.6563,451.5781 578.0313,451.5781 Q576.6875,451.5781 576,452.6484 Q575.3125,453.7188 575.3125,455.8125 Q575.3125,457.9063 576,458.9766 Q576.6875,460.0469 578.0313,460.0469 Q578.6563,460.0469 579.25,459.7734 Q579.8438,459.5 580.4688,458.9219 L580.4688,461.6406 Z "/><text fill="#000000" font-family="sans-serif" font-size="12" lengthAdjust="spacingAndGlyphs" textLength="129" x="597.5" y="460.1543">OrganizationsRecord</text><line style="stroke: #A80036; stroke-width: 1.5;" x1="536.5" x2="755.5" y1="472" y2="472"/><line style="stroke: #A80036; stroke-width: 1.5;" x1="536.5" x2="755.5" y1="480" y2="480"/><text fill="#000000" font-family="sans-serif" font-size="11" lengthAdjust="spacingAndGlyphs" textLength="209" x="541.5" y="494.2104">+getOrganizationByUserEmail(email)</text><!--MD5=[9ab0068e71df7f673644752c40fe3ac4]
class CreatePaymentTransactionController--><rect fill="#FEFECE" filter="url(#flwmkn7hlupzz)" height="99.2188" id="CreatePaymentTransactionController" style="stroke: #A80036; stroke-width: 1.5;" width="546" x="209" y="117"/><ellipse cx="362.25" cy="133" fill="#ADD1B2" rx="11" ry="11" style="stroke: #A80036; stroke-width: 1.0;"/><path d="M365.2188,138.6406 Q364.6406,138.9375 364,139.0859 Q363.3594,139.2344 362.6563,139.2344 Q360.1563,139.2344 358.8359,137.5859 Q357.5156,135.9375 357.5156,132.8125 Q357.5156,129.6875 358.8359,128.0313 Q360.1563,126.375 362.6563,126.375 Q363.3594,126.375 364.0078,126.5313 Q364.6563,126.6875 365.2188,126.9844 L365.2188,129.7031 Q364.5938,129.125 364,128.8516 Q363.4063,128.5781 362.7813,128.5781 Q361.4375,128.5781 360.75,129.6484 Q360.0625,130.7188 360.0625,132.8125 Q360.0625,134.9063 360.75,135.9766 Q361.4375,137.0469 362.7813,137.0469 Q363.4063,137.0469 364,136.7734 Q364.5938,136.5 365.2188,135.9219 L365.2188,138.6406 Z "/><text fill="#000000" font-family="sans-serif" font-size="12" lengthAdjust="spacingAndGlyphs" textLength="231" x="382.75" y="137.1543">CreatePaymentTransactionController</text><line style="stroke: #A80036; stroke-width: 1.5;" x1="210" x2="754" y1="149" y2="149"/><line style="stroke: #A80036; stroke-width: 1.5;" x1="210" x2="754" y1="157" y2="157"/><text fill="#000000" font-family="sans-serif" font-size="11" lengthAdjust="spacingAndGlyphs" textLength="530" x="215" y="171.2104">+newPaymentTransaction(taskId, briefDescription, timeDuration, costPerHour, taskCategory,</text><text fill="#000000" font-family="sans-serif" font-size="11" lengthAdjust="spacingAndGlyphs" textLength="227" x="215" y="184.0151">endDate, delay, workQualityDescription,</text><text fill="#000000" font-family="sans-serif" font-size="11" lengthAdjust="spacingAndGlyphs" textLength="359" x="215" y="196.8198">frlId, name, expertiseLevel, email, NIF, IBAN, address, country)</text><text fill="#000000" font-family="sans-serif" font-size="11" lengthAdjust="spacingAndGlyphs" textLength="180" x="215" y="209.6245">+paymentTransactionRegister()</text><!--MD5=[e472615a113cc15971a8fcaedb5e2163]
class CreatePaymentTransactionUI--><rect fill="#FEFECE" filter="url(#flwmkn7hlupzz)" height="48" id="CreatePaymentTransactionUI" style="stroke: #A80036; stroke-width: 1.5;" width="214" x="375" y="8"/><ellipse cx="390" cy="24" fill="#ADD1B2" rx="11" ry="11" style="stroke: #A80036; stroke-width: 1.0;"/><path d="M392.9688,29.6406 Q392.3906,29.9375 391.75,30.0859 Q391.1094,30.2344 390.4063,30.2344 Q387.9063,30.2344 386.5859,28.5859 Q385.2656,26.9375 385.2656,23.8125 Q385.2656,20.6875 386.5859,19.0313 Q387.9063,17.375 390.4063,17.375 Q391.1094,17.375 391.7578,17.5313 Q392.4063,17.6875 392.9688,17.9844 L392.9688,20.7031 Q392.3438,20.125 391.75,19.8516 Q391.1563,19.5781 390.5313,19.5781 Q389.1875,19.5781 388.5,20.6484 Q387.8125,21.7188 387.8125,23.8125 Q387.8125,25.9063 388.5,26.9766 Q389.1875,28.0469 390.5313,28.0469 Q391.1563,28.0469 391.75,27.7734 Q392.3438,27.5 392.9688,26.9219 L392.9688,29.6406 Z "/><text fill="#000000" font-family="sans-serif" font-size="12" lengthAdjust="spacingAndGlyphs" textLength="182" x="404" y="28.1543">CreatePaymentTransactionUI</text><line style="stroke: #A80036; stroke-width: 1.5;" x1="376" x2="588" y1="40" y2="40"/><line style="stroke: #A80036; stroke-width: 1.5;" x1="376" x2="588" y1="48" y2="48"/><!--MD5=[b645a18afb25b7e5623af7186d8eb36f]
class PaymentTransaction--><rect fill="#FEFECE" filter="url(#flwmkn7hlupzz)" height="112.0234" id="PaymentTransaction" style="stroke: #A80036; stroke-width: 1.5;" width="431" x="415.5" y="930"/><ellipse cx="562.75" cy="946" fill="#ADD1B2" rx="11" ry="11" style="stroke: #A80036; stroke-width: 1.0;"/><path d="M565.7188,951.6406 Q565.1406,951.9375 564.5,952.0859 Q563.8594,952.2344 563.1563,952.2344 Q560.6563,952.2344 559.3359,950.5859 Q558.0156,948.9375 558.0156,945.8125 Q558.0156,942.6875 559.3359,941.0313 Q560.6563,939.375 563.1563,939.375 Q563.8594,939.375 564.5078,939.5313 Q565.1563,939.6875 565.7188,939.9844 L565.7188,942.7031 Q565.0938,942.125 564.5,941.8516 Q563.9063,941.5781 563.2813,941.5781 Q561.9375,941.5781 561.25,942.6484 Q560.5625,943.7188 560.5625,945.8125 Q560.5625,947.9063 561.25,948.9766 Q561.9375,950.0469 563.2813,950.0469 Q563.9063,950.0469 564.5,949.7734 Q565.0938,949.5 565.7188,948.9219 L565.7188,951.6406 Z "/><text fill="#000000" font-family="sans-serif" font-size="12" lengthAdjust="spacingAndGlyphs" textLength="128" x="583.25" y="950.1543">PaymentTransaction</text><line style="stroke: #A80036; stroke-width: 1.5;" x1="416.5" x2="845.5" y1="962" y2="962"/><text fill="#000000" font-family="sans-serif" font-size="11" lengthAdjust="spacingAndGlyphs" textLength="81" x="421.5" y="976.2104">-Date endDate</text><text fill="#000000" font-family="sans-serif" font-size="11" lengthAdjust="spacingAndGlyphs" textLength="77" x="421.5" y="989.0151">-Double delay</text><text fill="#000000" font-family="sans-serif" font-size="11" lengthAdjust="spacingAndGlyphs" textLength="172" x="421.5" y="1001.8198">-String workQualityDescription</text><line style="stroke: #A80036; stroke-width: 1.5;" x1="416.5" x2="845.5" y1="1008.4141" y2="1008.4141"/><text fill="#000000" font-family="sans-serif" font-size="11" lengthAdjust="spacingAndGlyphs" textLength="186" x="421.5" y="1022.6245">+generatePayAmount(task, free)</text><text fill="#000000" font-family="sans-serif" font-size="11" lengthAdjust="spacingAndGlyphs" textLength="419" x="421.5" y="1035.4292">+PaymentTransaction(task, free, endDate, delay, workQualityDescription)</text><!--MD5=[ba54b1997298830925be59f10364c919]
class PaymentTransactionList--><rect fill="#FEFECE" filter="url(#flwmkn7hlupzz)" height="99.2188" id="PaymentTransactionList" style="stroke: #A80036; stroke-width: 1.5;" width="454" x="394" y="754"/><ellipse cx="542.25" cy="770" fill="#ADD1B2" rx="11" ry="11" style="stroke: #A80036; stroke-width: 1.0;"/><path d="M545.2188,775.6406 Q544.6406,775.9375 544,776.0859 Q543.3594,776.2344 542.6563,776.2344 Q540.1563,776.2344 538.8359,774.5859 Q537.5156,772.9375 537.5156,769.8125 Q537.5156,766.6875 538.8359,765.0313 Q540.1563,763.375 542.6563,763.375 Q543.3594,763.375 544.0078,763.5313 Q544.6563,763.6875 545.2188,763.9844 L545.2188,766.7031 Q544.5938,766.125 544,765.8516 Q543.4063,765.5781 542.7813,765.5781 Q541.4375,765.5781 540.75,766.6484 Q540.0625,767.7188 540.0625,769.8125 Q540.0625,771.9063 540.75,772.9766 Q541.4375,774.0469 542.7813,774.0469 Q543.4063,774.0469 544,773.7734 Q544.5938,773.5 545.2188,772.9219 L545.2188,775.6406 Z "/><text fill="#000000" font-family="sans-serif" font-size="12" lengthAdjust="spacingAndGlyphs" textLength="149" x="562.75" y="774.1543">PaymentTransactionList</text><line style="stroke: #A80036; stroke-width: 1.5;" x1="395" x2="847" y1="786" y2="786"/><line style="stroke: #A80036; stroke-width: 1.5;" x1="395" x2="847" y1="794" y2="794"/><text fill="#000000" font-family="sans-serif" font-size="11" lengthAdjust="spacingAndGlyphs" textLength="442" x="400" y="808.2104">+newPaymentTransaction(task, free, endDate, delay, workQualityDescription)</text><text fill="#000000" font-family="sans-serif" font-size="11" lengthAdjust="spacingAndGlyphs" textLength="204" x="400" y="821.0151">+validatePaymentTransaction(payT)</text><text fill="#000000" font-family="sans-serif" font-size="11" lengthAdjust="spacingAndGlyphs" textLength="207" x="400" y="833.8198">+paymentTransactionRegister(payT)</text><text fill="#000000" font-family="sans-serif" font-size="11" lengthAdjust="spacingAndGlyphs" textLength="181" x="400" y="846.6245">+addPaymentTransaction(payT)</text><!--MD5=[d75f8faab7003fe4f7fadde3e00b3cf7]
link CreatePaymentTransactionUI to CreatePaymentTransactionController--><path d="M482,56.0459 C482,71.4478 482,92.0929 482,111.3652 " fill="none" id="CreatePaymentTransactionUI-&gt;CreatePaymentTransactionController" style="stroke: #A80036; stroke-width: 1.0; stroke-dasharray: 7.0,7.0;"/><polygon fill="#A80036" points="482,116.759,486,107.759,482,111.759,478,107.759,482,116.759" style="stroke: #A80036; stroke-width: 1.0;"/><!--MD5=[c21c0329c000ce3a64d50b793859385d]
link CreatePaymentTransactionController to Platform--><path d="M568.3185,216.1251 C600.8472,234.826 637.6648,255.9927 669.5383,274.317 " fill="none" id="CreatePaymentTransactionController-&gt;Platform" style="stroke: #A80036; stroke-width: 1.0; stroke-dasharray: 7.0,7.0;"/><polygon fill="#A80036" points="674.204,276.9993,668.3953,269.0458,669.8693,274.5072,664.4079,275.9812,674.204,276.9993" style="stroke: #A80036; stroke-width: 1.0;"/><!--MD5=[f04e3b22971df4e8085f55a70756c755]
link CreatePaymentTransactionController to Task--><path d="M401.0449,216.2277 C369.1558,242.423 340,277.8879 340,320 C340,320 340,320 340,986 C340,1104.4955 433.0509,992.2275 719,1119 C720.7582,1119.7795 722.5189,1120.5974 724.2785,1121.4489 " fill="none" id="CreatePaymentTransactionController-&gt;Task" style="stroke: #A80036; stroke-width: 1.0; stroke-dasharray: 7.0,7.0;"/><polygon fill="#A80036" points="728.9314,1123.7779,722.6739,1116.1724,724.4603,1121.5398,719.0929,1123.3262,728.9314,1123.7779" style="stroke: #A80036; stroke-width: 1.0;"/><!--MD5=[d808bb2ca26b86ab5f675405e49fd624]
link CreatePaymentTransactionController to Organization--><path d="M478.1943,216.2452 C475.0203,283.7765 476.4049,406.8329 518,501 C529.8828,527.9014 549.6367,553.1342 569.274,573.8793 " fill="none" id="CreatePaymentTransactionController-&gt;Organization" style="stroke: #A80036; stroke-width: 1.0; stroke-dasharray: 7.0,7.0;"/><polygon fill="#A80036" points="572.9374,577.7,569.596,568.4353,569.477,574.0909,563.8214,573.9719,572.9374,577.7" style="stroke: #A80036; stroke-width: 1.0;"/><!--MD5=[c3f8496c633e2f7f52d8bf9bc86aad29]
link CreatePaymentTransactionController to POTApplication--><path d="M322.6378,216.1349 C269.9563,233.8319 211.4276,254.8968 159,277 C155.057,278.6624 151.0426,280.428 147.0117,282.259 " fill="none" id="CreatePaymentTransactionController-&gt;POTApplication" style="stroke: #A80036; stroke-width: 1.0; stroke-dasharray: 7.0,7.0;"/><polygon fill="#A80036" points="142.2754,284.4362,152.1235,284.3114,146.8184,282.3478,148.782,277.0427,142.2754,284.4362" style="stroke: #A80036; stroke-width: 1.0;"/><!--MD5=[044b46cd6ff48909710cb1d203e462f9]
link CreatePaymentTransactionController to UserSession--><path d="M365.6865,216.0583 C347.8941,225.1866 330.1081,235.2595 314,246 C296.9373,257.3769 279.8201,272.1628 265.6717,285.5238 " fill="none" id="CreatePaymentTransactionController-&gt;UserSession" style="stroke: #A80036; stroke-width: 1.0; stroke-dasharray: 7.0,7.0;"/><polygon fill="#A80036" points="261.7623,289.2505,271.0366,285.9359,265.3814,285.8005,265.5167,280.1453,261.7623,289.2505" style="stroke: #A80036; stroke-width: 1.0;"/><!--MD5=[a5b2a848340ab19653babd02d4515d20]
link CreatePaymentTransactionController to TasksList--><path d="M755.0101,212.1378 C855.3871,236.8743 945,272.3121 945,320 C945,320 945,320 945,627.5 C945,676.1366 944.6134,732.3323 944.321,767.8846 " fill="none" id="CreatePaymentTransactionController-&gt;TasksList" style="stroke: #A80036; stroke-width: 1.0; stroke-dasharray: 7.0,7.0;"/><polygon fill="#A80036" points="944.2786,772.9769,948.3538,764.0107,944.3205,767.9771,940.3541,763.9437,944.2786,772.9769" style="stroke: #A80036; stroke-width: 1.0;"/><!--MD5=[546fd7e0e055f1eba4c284893e3481a0]
link CreatePaymentTransactionController to FreelancersRecord--><path d="M755.237,188.3518 C847.0514,200.4022 935.2559,218.6716 971,246 C1031.9918,292.6316 1057.5866,384.1056 1067.4461,434.7079 " fill="none" id="CreatePaymentTransactionController-&gt;FreelancersRecord" style="stroke: #A80036; stroke-width: 1.0; stroke-dasharray: 7.0,7.0;"/><polygon fill="#A80036" points="1068.4071,439.7734,1070.6594,430.1855,1067.4751,434.861,1062.7996,431.6767,1068.4071,439.7734" style="stroke: #A80036; stroke-width: 1.0;"/><!--MD5=[19aba29190c83d802a073857acc5c053]
link CreatePaymentTransactionController to OrganizationsRecord--><path d="M508.7144,216.0194 C541.9969,277.7138 598.0244,381.5696 627.1455,435.5502 " fill="none" id="CreatePaymentTransactionController-&gt;OrganizationsRecord" style="stroke: #A80036; stroke-width: 1.0; stroke-dasharray: 7.0,7.0;"/><polygon fill="#A80036" points="629.5366,439.9825,628.7839,430.1624,627.1626,435.582,621.7431,433.9608,629.5366,439.9825" style="stroke: #A80036; stroke-width: 1.0;"/><!--MD5=[59ac9a6802ae404b65a1b78c8af4ba66]
link CreatePaymentTransactionController to PaymentTransactionList--><path d="M445.876,216.0852 C428.3364,244.941 411,282.8571 411,320 C411,320 411,320 411,627.5 C411,681.7626 452.6951,722.6122 498.9276,751.2284 " fill="none" id="CreatePaymentTransactionController-&gt;PaymentTransactionList" style="stroke: #A80036; stroke-width: 1.0; stroke-dasharray: 7.0,7.0;"/><polygon fill="#A80036" points="503.4147,753.9596,497.8067,745.8633,499.1437,751.3599,493.6471,752.6969,503.4147,753.9596" style="stroke: #A80036; stroke-width: 1.0;"/><!--MD5=[d77b6fe82f72fca34ebf8190bf84198d]
link Platform to FreelancersRecord--><path d="M841.8454,363.1273 C892.9175,386.8505 955.2784,415.8176 1002.3515,437.6833 " fill="none" id="Platform-&gt;FreelancersRecord" style="stroke: #A80036; stroke-width: 1.0;"/><polygon fill="#A80036" points="1007.1463,439.9105,1000.6691,432.4912,1002.6117,437.804,997.2988,439.7466,1007.1463,439.9105" style="stroke: #A80036; stroke-width: 1.0;"/><text fill="#000000" font-family="sans-serif" font-size="13" lengthAdjust="spacingAndGlyphs" textLength="23" x="941" y="406.0669">has</text><text fill="#000000" font-family="sans-serif" font-size="13" lengthAdjust="spacingAndGlyphs" textLength="8" x="848.5604" y="383.5561">1</text><text fill="#000000" font-family="sans-serif" font-size="13" lengthAdjust="spacingAndGlyphs" textLength="8" x="984.739" y="429.1553">1</text><!--MD5=[d9ffa4e24b0f90d8cdc0d9eb36306584]
link Platform to OrganizationsRecord--><path d="M719.4843,363.1273 C703.7683,386.0909 684.6897,413.9679 669.9114,435.5615 " fill="none" id="Platform-&gt;OrganizationsRecord" style="stroke: #A80036; stroke-width: 1.0;"/><polygon fill="#A80036" points="667.0153,439.7931,675.3993,434.6251,669.8392,435.6669,668.7974,430.1068,667.0153,439.7931" style="stroke: #A80036; stroke-width: 1.0;"/><text fill="#000000" font-family="sans-serif" font-size="13" lengthAdjust="spacingAndGlyphs" textLength="23" x="699" y="406.0669">has</text><text fill="#000000" font-family="sans-serif" font-size="13" lengthAdjust="spacingAndGlyphs" textLength="8" x="705.9333" y="383.5561">1</text><text fill="#000000" font-family="sans-serif" font-size="13" lengthAdjust="spacingAndGlyphs" textLength="8" x="662.5247" y="429.0137">1</text><!--MD5=[0634d34efc8f03ad94b2231e46fef7de]
link FreelancersRecord to Freelancer--><path d="M1070.5126,501.1619 C1068.1642,532.7907 1065,583.5594 1065,627.5 C1065,627.5 1065,627.5 1065,1175 C1065,1272.4919 952.5444,1331.3266 874.4243,1360.4358 " fill="none" id="FreelancersRecord-&gt;Freelancer" style="stroke: #A80036; stroke-width: 1.0;"/><polygon fill="#A80036" points="869.3299,1362.3103,879.1576,1362.9562,874.0223,1360.5836,876.3948,1355.4483,869.3299,1362.3103" style="stroke: #A80036; stroke-width: 1.0;"/><text fill="#000000" font-family="sans-serif" font-size="13" lengthAdjust="spacingAndGlyphs" textLength="23" x="1066" y="896.0669">has</text><text fill="#000000" font-family="sans-serif" font-size="13" lengthAdjust="spacingAndGlyphs" textLength="8" x="1061.2354" y="520.7742">1</text><text fill="#000000" font-family="sans-serif" font-size="13" lengthAdjust="spacingAndGlyphs" textLength="7" x="877.1863" y="1356.2773">*</text><!--MD5=[15b500351a20fc4c9aef6172f83f2b2a]
link OrganizationsRecord to Organization--><path d="M642.8771,501.1439 C640.8054,521.472 638.0282,548.7237 635.5833,572.7143 " fill="none" id="OrganizationsRecord-&gt;Organization" style="stroke: #A80036; stroke-width: 1.0;"/><polygon fill="#A80036" points="635.067,577.7804,639.959,569.2324,635.574,572.8062,632.0002,568.4212,635.067,577.7804" style="stroke: #A80036; stroke-width: 1.0;"/><text fill="#000000" font-family="sans-serif" font-size="13" lengthAdjust="spacingAndGlyphs" textLength="23" x="641" y="544.0669">has</text><text fill="#000000" font-family="sans-serif" font-size="13" lengthAdjust="spacingAndGlyphs" textLength="8" x="633.4748" y="520.7527">1</text><text fill="#000000" font-family="sans-serif" font-size="13" lengthAdjust="spacingAndGlyphs" textLength="7" x="628.2874" y="566.7947">*</text><!--MD5=[d15cad16830e0e3b1d195407ed1d0016]
link Organization to TasksList--><path d="M721.6383,674.616 C765.7072,697.7812 819.0381,726.5621 866,754 C874.6875,759.0757 883.8012,764.6364 892.6106,770.1395 " fill="none" id="Organization-&gt;TasksList" style="stroke: #A80036; stroke-width: 1.0;"/><polygon fill="#A80036" points="896.9075,772.834,891.4077,764.6638,892.6715,770.1777,887.1576,771.4415,896.9075,772.834" style="stroke: #A80036; stroke-width: 1.0;"/><text fill="#000000" font-family="sans-serif" font-size="13" lengthAdjust="spacingAndGlyphs" textLength="23" x="810" y="720.0669">has</text><text fill="#000000" font-family="sans-serif" font-size="13" lengthAdjust="spacingAndGlyphs" textLength="8" x="729.5583" y="674.96">1</text><text fill="#000000" font-family="sans-serif" font-size="13" lengthAdjust="spacingAndGlyphs" textLength="8" x="878.3697" y="762.063">1</text><!--MD5=[322d55b5ad1658b7791494cedb432ac7]
link Organization to PaymentTransactionList--><path d="M627.445,677.4638 C626.3096,699.667 624.9697,725.8705 623.8065,748.6176 " fill="none" id="Organization-&gt;PaymentTransactionList" style="stroke: #A80036; stroke-width: 1.0;"/><polygon fill="#A80036" points="623.5458,753.7161,628.0004,744.9322,623.8012,748.7226,620.0108,744.5235,623.5458,753.7161" style="stroke: #A80036; stroke-width: 1.0;"/><text fill="#000000" font-family="sans-serif" font-size="13" lengthAdjust="spacingAndGlyphs" textLength="23" x="627" y="720.0669">has</text><text fill="#000000" font-family="sans-serif" font-size="13" lengthAdjust="spacingAndGlyphs" textLength="8" x="618.5642" y="697.2466">1</text><text fill="#000000" font-family="sans-serif" font-size="13" lengthAdjust="spacingAndGlyphs" textLength="8" x="615.3504" y="743.0797">1</text><!--MD5=[ad9e6b825fedf9daad488846d3a92887]
link PaymentTransactionList to PaymentTransaction--><path d="M623.7325,853.3689 C624.9368,875.347 626.3637,901.3884 627.633,924.5517 " fill="none" id="PaymentTransactionList-&gt;PaymentTransaction" style="stroke: #A80036; stroke-width: 1.0;"/><polygon fill="#A80036" points="627.9181,929.7548,631.4197,920.5494,627.6445,924.7623,623.4317,920.9871,627.9181,929.7548" style="stroke: #A80036; stroke-width: 1.0;"/><text fill="#000000" font-family="sans-serif" font-size="13" lengthAdjust="spacingAndGlyphs" textLength="23" x="627" y="896.0669">has</text><text fill="#000000" font-family="sans-serif" font-size="13" lengthAdjust="spacingAndGlyphs" textLength="8" x="615.5622" y="873.139">1</text><text fill="#000000" font-family="sans-serif" font-size="13" lengthAdjust="spacingAndGlyphs" textLength="7" x="620.1159" y="919.0594">*</text><!--MD5=[bbdb20f51a48c3a19382c1ddd3c52d99]
link TasksList to Task--><path d="M935.0306,834.0376 C921.3009,879.8136 893.5414,968.6783 864,1042 C854.3727,1065.8948 842.5562,1091.5989 831.7682,1113.9804 " fill="none" id="TasksList-&gt;Task" style="stroke: #A80036; stroke-width: 1.0;"/><polygon fill="#A80036" points="829.483,1118.7041,837.0033,1112.3445,831.6605,1114.2032,829.8018,1108.8604,829.483,1118.7041" style="stroke: #A80036; stroke-width: 1.0;"/><text fill="#000000" font-family="sans-serif" font-size="13" lengthAdjust="spacingAndGlyphs" textLength="23" x="905" y="990.5669">has</text><text fill="#000000" font-family="sans-serif" font-size="13" lengthAdjust="spacingAndGlyphs" textLength="8" x="924.3557" y="853.9836">1</text><text fill="#000000" font-family="sans-serif" font-size="13" lengthAdjust="spacingAndGlyphs" textLength="7" x="825.5278" y="1108.0025">*</text><!--MD5=[8853e9d83a8841c20c4ef075af762602]
link Task to Freelancer--><path d="M801,1231.0138 C801,1253.0314 801,1278.7242 801,1302.6529 " fill="none" id="Task-&gt;Freelancer" style="stroke: #A80036; stroke-width: 1.0;"/><polygon fill="#A80036" points="801,1307.7303,805,1298.7303,801,1302.7303,797,1298.7303,801,1307.7303" style="stroke: #A80036; stroke-width: 1.0;"/><text fill="#000000" font-family="sans-serif" font-size="13" lengthAdjust="spacingAndGlyphs" textLength="88" x="802" y="1274.0669">is assigned to</text><text fill="#000000" font-family="sans-serif" font-size="13" lengthAdjust="spacingAndGlyphs" textLength="23" x="776.5266" y="1251.2254">1..*</text><text fill="#000000" font-family="sans-serif" font-size="13" lengthAdjust="spacingAndGlyphs" textLength="8" x="792.6188" y="1296.8937">1</text><!--MD5=[f6802b286771c18a16ea4be983074371]
link PaymentTransaction to Freelancer--><path d="M624.0143,1042.2509 C620.0779,1093.7628 620.5116,1170.9007 648,1231 C665.8111,1269.9412 698.2434,1304.4249 728.6786,1330.6619 " fill="none" id="PaymentTransaction-&gt;Freelancer" style="stroke: #A80036; stroke-width: 1.0;"/><polygon fill="#A80036" points="732.7645,1334.1457,728.5114,1325.2625,728.9598,1330.9016,723.3208,1331.35,732.7645,1334.1457" style="stroke: #A80036; stroke-width: 1.0;"/><text fill="#000000" font-family="sans-serif" font-size="13" lengthAdjust="spacingAndGlyphs" textLength="61" x="649" y="1179.5669">relates to</text><text fill="#000000" font-family="sans-serif" font-size="13" lengthAdjust="spacingAndGlyphs" textLength="8" x="614.6754" y="1062.0941">1</text><text fill="#000000" font-family="sans-serif" font-size="13" lengthAdjust="spacingAndGlyphs" textLength="8" x="716.8637" y="1325.0322">1</text><!--MD5=[271ce7fefd7250ebaca83b70495774bd]
link PaymentTransaction to Task--><path d="M681.5453,1042.1945 C702.0851,1065.0299 725.8558,1091.4573 746.7582,1114.6958 " fill="none" id="PaymentTransaction-&gt;Task" style="stroke: #A80036; stroke-width: 1.0;"/><polygon fill="#A80036" points="750.3559,1118.6956,747.3111,1109.3292,747.0122,1114.9781,741.3632,1114.6792,750.3559,1118.6956" style="stroke: #A80036; stroke-width: 1.0;"/><text fill="#000000" font-family="sans-serif" font-size="13" lengthAdjust="spacingAndGlyphs" textLength="61" x="723" y="1085.0669">relates to</text><text fill="#000000" font-family="sans-serif" font-size="13" lengthAdjust="spacingAndGlyphs" textLength="8" x="679.218" y="1062.0308">1</text><text fill="#000000" font-family="sans-serif" font-size="13" lengthAdjust="spacingAndGlyphs" textLength="8" x="735.6962" y="1107.993">1</text><!--MD5=[d80b563091a7e86ecc47ba4b50ae216e]
@startuml
skinparam classAttributeIconSize 0

class POTApplication
{
  +static getInstance()
  +getCurrentSession()
}

class UserSession
{
  +getUserEmail()
}

class Task {
  -String id
  -String briefDescription
  -Integer timeDuration
  -Double costPerHour
  -String taskCategory
}

class Freelancer {
  -String id
  -String name
  -String expertiseLevel
  -String email
  -String NIF
  -String IBAN
  -String address
  -String country
}

class Organization {
  -String name
  -String NIF
  +getTasksList()
  +getPaymentTransactionList()
  
}

class TasksList {
  +taskExists(taskId)
}

class Platform {
  -String designation
  +OrganizationsRecord getOrganizationsRecord()
  +FreelancersRecord getFreelancersRecord()
}

class FreelancersRecord {
  +freelancerExists(frlId)
}

class OrganizationsRecord  {
  +getOrganizationByUserEmail(email)
}

class CreatePaymentTransactionController {
  +newPaymentTransaction(taskId, briefDescription, timeDuration, costPerHour, taskCategory, \nendDate, delay, workQualityDescription, \nfrlId, name, expertiseLevel, email, NIF, IBAN, address, country)
  +paymentTransactionRegister()
}

class CreatePaymentTransactionUI {
}

class PaymentTransaction{
  -Date endDate
  -Double delay
  -String workQualityDescription
  +generatePayAmount(task, free)
  +PaymentTransaction(task, free, endDate, delay, workQualityDescription)
}

class PaymentTransactionList{
  +newPaymentTransaction(task, free, endDate, delay, workQualityDescription)
  +validatePaymentTransaction(payT)
  +paymentTransactionRegister(payT)
  +addPaymentTransaction(payT)
}

CreatePaymentTransactionUI ..> CreatePaymentTransactionController
CreatePaymentTransactionController ..> Platform
CreatePaymentTransactionController ..> Task
CreatePaymentTransactionController ..> Organization
CreatePaymentTransactionController ..> POTApplication
CreatePaymentTransactionController ..> UserSession
CreatePaymentTransactionController ..> TasksList
CreatePaymentTransactionController ..> FreelancersRecord
CreatePaymentTransactionController ..> OrganizationsRecord
CreatePaymentTransactionController ..> PaymentTransactionList
Platform "1" - -> "1" FreelancersRecord : has
Platform "1" - -> "1" OrganizationsRecord : has

FreelancersRecord "1" - -> "*" Freelancer : has
OrganizationsRecord "1" - -> "*" Organization : has
Organization "1" - -> "1" TasksList : has
Organization "1" - -> "1" PaymentTransactionList : has
PaymentTransactionList "1" - -> "*" PaymentTransaction : has
TasksList "1" - -> "*" Task : has
Task "1..*" - -> "1" Freelancer : is assigned to

PaymentTransaction "1" - -> "1" Freelancer : relates to
PaymentTransaction "1" - -> "1" Task : relates to
@enduml

PlantUML version 1.2019.12(Sun Nov 03 10:24:54 UTC 2019)
(GPL source distribution)
Java Runtime: OpenJDK Runtime Environment
JVM: OpenJDK 64-Bit Server VM
Java Version: 1.8.0_232-heroku-b09
Operating System: Linux
Default Encoding: UTF-8
Language: en
Country: US
--></g></svg>