<?xml version="1.0" encoding="UTF-8" standalone="no"?><svg xmlns="http://www.w3.org/2000/svg" xmlns:xlink="http://www.w3.org/1999/xlink" contentScriptType="application/ecmascript" contentStyleType="text/css" height="1255px" preserveAspectRatio="none" style="width:967px;height:1255px;" version="1.1" viewBox="0 0 967 1255" width="967px" zoomAndPan="magnify"><defs><filter height="300%" id="f9mxlyq3u1md4" width="300%" x="-1" y="-1"><feGaussianBlur result="blurOut" stdDeviation="2.0"/><feColorMatrix in="blurOut" result="blurOut2" type="matrix" values="0 0 0 0 0 0 0 0 0 0 0 0 0 0 0 0 0 0 .4 0"/><feOffset dx="4.0" dy="4.0" in="blurOut2" result="blurOut3"/><feBlend in="SourceGraphic" in2="blurOut3" mode="normal"/></filter></defs><g><!--MD5=[52de6b799a0982f4494b9c19495c1271]
class POTApplication--><rect fill="#FEFECE" filter="url(#f9mxlyq3u1md4)" height="73.6094" id="POTApplication" style="stroke: #A80036; stroke-width: 1.5;" width="136" x="6" y="283"/><ellipse cx="25.95" cy="299" fill="#ADD1B2" rx="11" ry="11" style="stroke: #A80036; stroke-width: 1.0;"/><path d="M28.9188,304.6406 Q28.3406,304.9375 27.7,305.0859 Q27.0594,305.2344 26.3563,305.2344 Q23.8563,305.2344 22.5359,303.5859 Q21.2156,301.9375 21.2156,298.8125 Q21.2156,295.6875 22.5359,294.0313 Q23.8563,292.375 26.3563,292.375 Q27.0594,292.375 27.7078,292.5313 Q28.3563,292.6875 28.9188,292.9844 L28.9188,295.7031 Q28.2938,295.125 27.7,294.8516 Q27.1063,294.5781 26.4813,294.5781 Q25.1375,294.5781 24.45,295.6484 Q23.7625,296.7188 23.7625,298.8125 Q23.7625,300.9063 24.45,301.9766 Q25.1375,303.0469 26.4813,303.0469 Q27.1063,303.0469 27.7,302.7734 Q28.2938,302.5 28.9188,301.9219 L28.9188,304.6406 Z "/><text fill="#000000" font-family="sans-serif" font-size="12" lengthAdjust="spacingAndGlyphs" textLength="93" x="41.05" y="303.1543">POTApplication</text><line style="stroke: #A80036; stroke-width: 1.5;" x1="7" x2="141" y1="315" y2="315"/><line style="stroke: #A80036; stroke-width: 1.5;" x1="7" x2="141" y1="323" y2="323"/><text fill="#000000" font-family="sans-serif" font-size="11" lengthAdjust="spacingAndGlyphs" textLength="118" x="12" y="337.2104">+static getInstance()</text><text fill="#000000" font-family="sans-serif" font-size="11" lengthAdjust="spacingAndGlyphs" textLength="124" x="12" y="350.0151">+getCurrentSession()</text><!--MD5=[c5b08e60048ef1bcd788d24cf324082e]
class UserSession--><rect fill="#FEFECE" filter="url(#f9mxlyq3u1md4)" height="60.8047" id="UserSession" style="stroke: #A80036; stroke-width: 1.5;" width="110" x="177" y="289.5"/><ellipse cx="192" cy="305.5" fill="#ADD1B2" rx="11" ry="11" style="stroke: #A80036; stroke-width: 1.0;"/><path d="M194.9688,311.1406 Q194.3906,311.4375 193.75,311.5859 Q193.1094,311.7344 192.4063,311.7344 Q189.9063,311.7344 188.5859,310.0859 Q187.2656,308.4375 187.2656,305.3125 Q187.2656,302.1875 188.5859,300.5313 Q189.9063,298.875 192.4063,298.875 Q193.1094,298.875 193.7578,299.0313 Q194.4063,299.1875 194.9688,299.4844 L194.9688,302.2031 Q194.3438,301.625 193.75,301.3516 Q193.1563,301.0781 192.5313,301.0781 Q191.1875,301.0781 190.5,302.1484 Q189.8125,303.2188 189.8125,305.3125 Q189.8125,307.4063 190.5,308.4766 Q191.1875,309.5469 192.5313,309.5469 Q193.1563,309.5469 193.75,309.2734 Q194.3438,309 194.9688,308.4219 L194.9688,311.1406 Z "/><text fill="#000000" font-family="sans-serif" font-size="12" lengthAdjust="spacingAndGlyphs" textLength="78" x="206" y="309.6543">UserSession</text><line style="stroke: #A80036; stroke-width: 1.5;" x1="178" x2="286" y1="321.5" y2="321.5"/><line style="stroke: #A80036; stroke-width: 1.5;" x1="178" x2="286" y1="329.5" y2="329.5"/><text fill="#000000" font-family="sans-serif" font-size="11" lengthAdjust="spacingAndGlyphs" textLength="93" x="183" y="343.7104">+getUserEmail()</text><!--MD5=[27c2d4bbe9f7b9d3b0ea2797cc54308a]
class Tarefa--><rect fill="#FEFECE" filter="url(#f9mxlyq3u1md4)" height="124.8281" id="Tarefa" style="stroke: #A80036; stroke-width: 1.5;" width="150" x="657" y="943.5"/><ellipse cx="707.75" cy="959.5" fill="#ADD1B2" rx="11" ry="11" style="stroke: #A80036; stroke-width: 1.0;"/><path d="M710.7188,965.1406 Q710.1406,965.4375 709.5,965.5859 Q708.8594,965.7344 708.1563,965.7344 Q705.6563,965.7344 704.3359,964.0859 Q703.0156,962.4375 703.0156,959.3125 Q703.0156,956.1875 704.3359,954.5313 Q705.6563,952.875 708.1563,952.875 Q708.8594,952.875 709.5078,953.0313 Q710.1563,953.1875 710.7188,953.4844 L710.7188,956.2031 Q710.0938,955.625 709.5,955.3516 Q708.9063,955.0781 708.2813,955.0781 Q706.9375,955.0781 706.25,956.1484 Q705.5625,957.2188 705.5625,959.3125 Q705.5625,961.4063 706.25,962.4766 Q706.9375,963.5469 708.2813,963.5469 Q708.9063,963.5469 709.5,963.2734 Q710.0938,963 710.7188,962.4219 L710.7188,965.1406 Z "/><text fill="#000000" font-family="sans-serif" font-size="12" lengthAdjust="spacingAndGlyphs" textLength="40" x="728.25" y="963.6543">Tarefa</text><line style="stroke: #A80036; stroke-width: 1.5;" x1="658" x2="806" y1="975.5" y2="975.5"/><text fill="#000000" font-family="sans-serif" font-size="11" lengthAdjust="spacingAndGlyphs" textLength="52" x="663" y="989.7104">-String id</text><text fill="#000000" font-family="sans-serif" font-size="11" lengthAdjust="spacingAndGlyphs" textLength="132" x="663" y="1002.5151">-String briefDescription</text><text fill="#000000" font-family="sans-serif" font-size="11" lengthAdjust="spacingAndGlyphs" textLength="121" x="663" y="1015.3198">-Integer timeDuration</text><text fill="#000000" font-family="sans-serif" font-size="11" lengthAdjust="spacingAndGlyphs" textLength="117" x="663" y="1028.1245">-Double costPerHour</text><text fill="#000000" font-family="sans-serif" font-size="11" lengthAdjust="spacingAndGlyphs" textLength="117" x="663" y="1040.9292">-String taskCategory</text><line style="stroke: #A80036; stroke-width: 1.5;" x1="658" x2="806" y1="1047.5234" y2="1047.5234"/><text fill="#000000" font-family="sans-serif" font-size="11" lengthAdjust="spacingAndGlyphs" textLength="138" x="663" y="1061.7339">+getTaskExecData(task)</text><!--MD5=[1f687b5315377fe49fca59b457947463]
class Freelancer--><rect fill="#FEFECE" filter="url(#f9mxlyq3u1md4)" height="150.4375" id="Freelancer" style="stroke: #A80036; stroke-width: 1.5;" width="136" x="435" y="931"/><ellipse cx="466.65" cy="947" fill="#ADD1B2" rx="11" ry="11" style="stroke: #A80036; stroke-width: 1.0;"/><path d="M469.6188,952.6406 Q469.0406,952.9375 468.4,953.0859 Q467.7594,953.2344 467.0563,953.2344 Q464.5563,953.2344 463.2359,951.5859 Q461.9156,949.9375 461.9156,946.8125 Q461.9156,943.6875 463.2359,942.0313 Q464.5563,940.375 467.0563,940.375 Q467.7594,940.375 468.4078,940.5313 Q469.0563,940.6875 469.6188,940.9844 L469.6188,943.7031 Q468.9938,943.125 468.4,942.8516 Q467.8063,942.5781 467.1813,942.5781 Q465.8375,942.5781 465.15,943.6484 Q464.4625,944.7188 464.4625,946.8125 Q464.4625,948.9063 465.15,949.9766 Q465.8375,951.0469 467.1813,951.0469 Q467.8063,951.0469 468.4,950.7734 Q468.9938,950.5 469.6188,949.9219 L469.6188,952.6406 Z "/><text fill="#000000" font-family="sans-serif" font-size="12" lengthAdjust="spacingAndGlyphs" textLength="67" x="484.35" y="951.1543">Freelancer</text><line style="stroke: #A80036; stroke-width: 1.5;" x1="436" x2="570" y1="963" y2="963"/><text fill="#000000" font-family="sans-serif" font-size="11" lengthAdjust="spacingAndGlyphs" textLength="52" x="441" y="977.2104">-String id</text><text fill="#000000" font-family="sans-serif" font-size="11" lengthAdjust="spacingAndGlyphs" textLength="74" x="441" y="990.0151">-String name</text><text fill="#000000" font-family="sans-serif" font-size="11" lengthAdjust="spacingAndGlyphs" textLength="124" x="441" y="1002.8198">-String expertiseLevel</text><text fill="#000000" font-family="sans-serif" font-size="11" lengthAdjust="spacingAndGlyphs" textLength="73" x="441" y="1015.6245">-String email</text><text fill="#000000" font-family="sans-serif" font-size="11" lengthAdjust="spacingAndGlyphs" textLength="59" x="441" y="1028.4292">-String NIF</text><text fill="#000000" font-family="sans-serif" font-size="11" lengthAdjust="spacingAndGlyphs" textLength="68" x="441" y="1041.2339">-String IBAN</text><text fill="#000000" font-family="sans-serif" font-size="11" lengthAdjust="spacingAndGlyphs" textLength="89" x="441" y="1054.0386">-String address</text><text fill="#000000" font-family="sans-serif" font-size="11" lengthAdjust="spacingAndGlyphs" textLength="84" x="441" y="1066.8433">-String country</text><line style="stroke: #A80036; stroke-width: 1.5;" x1="436" x2="570" y1="1073.4375" y2="1073.4375"/><!--MD5=[86c7c362de55a38b660185a1328fe18d]
class Organization--><rect fill="#FEFECE" filter="url(#f9mxlyq3u1md4)" height="137.6328" id="Organization" style="stroke: #A80036; stroke-width: 1.5;" width="352" x="467" y="578"/><ellipse cx="599.75" cy="594" fill="#ADD1B2" rx="11" ry="11" style="stroke: #A80036; stroke-width: 1.0;"/><path d="M602.7188,599.6406 Q602.1406,599.9375 601.5,600.0859 Q600.8594,600.2344 600.1563,600.2344 Q597.6563,600.2344 596.3359,598.5859 Q595.0156,596.9375 595.0156,593.8125 Q595.0156,590.6875 596.3359,589.0313 Q597.6563,587.375 600.1563,587.375 Q600.8594,587.375 601.5078,587.5313 Q602.1563,587.6875 602.7188,587.9844 L602.7188,590.7031 Q602.0938,590.125 601.5,589.8516 Q600.9063,589.5781 600.2813,589.5781 Q598.9375,589.5781 598.25,590.6484 Q597.5625,591.7188 597.5625,593.8125 Q597.5625,595.9063 598.25,596.9766 Q598.9375,598.0469 600.2813,598.0469 Q600.9063,598.0469 601.5,597.7734 Q602.0938,597.5 602.7188,596.9219 L602.7188,599.6406 Z "/><text fill="#000000" font-family="sans-serif" font-size="12" lengthAdjust="spacingAndGlyphs" textLength="78" x="620.25" y="598.1543">Organization</text><line style="stroke: #A80036; stroke-width: 1.5;" x1="468" x2="818" y1="610" y2="610"/><text fill="#000000" font-family="sans-serif" font-size="11" lengthAdjust="spacingAndGlyphs" textLength="74" x="473" y="624.2104">-String name</text><line style="stroke: #A80036; stroke-width: 1.5;" x1="468" x2="818" y1="630.8047" y2="630.8047"/><text fill="#000000" font-family="sans-serif" font-size="11" lengthAdjust="spacingAndGlyphs" textLength="89" x="473" y="645.0151">+getTasksList()</text><text fill="#000000" font-family="sans-serif" font-size="11" lengthAdjust="spacingAndGlyphs" textLength="186" x="473" y="657.8198">+generatePayAmount(task, free)</text><text fill="#000000" font-family="sans-serif" font-size="11" lengthAdjust="spacingAndGlyphs" textLength="340" x="473" y="670.6245">+newPaymentTransaction(task, taskExec, free, payAmount)</text><text fill="#000000" font-family="sans-serif" font-size="11" lengthAdjust="spacingAndGlyphs" textLength="204" x="473" y="683.4292">+validatePaymentTransaction(payT)</text><text fill="#000000" font-family="sans-serif" font-size="11" lengthAdjust="spacingAndGlyphs" textLength="207" x="473" y="696.2339">+paymentTransactionRegister(payT)</text><text fill="#000000" font-family="sans-serif" font-size="11" lengthAdjust="spacingAndGlyphs" textLength="181" x="473" y="709.0386">+addPaymentTransaction(payT)</text><!--MD5=[bfe5ad1e6c67e1aa0bfa76859c3b49e3]
class TasksList--><rect fill="#FEFECE" filter="url(#f9mxlyq3u1md4)" height="60.8047" id="TasksList" style="stroke: #A80036; stroke-width: 1.5;" width="121" x="771.5" y="793"/><ellipse cx="800.9" cy="809" fill="#ADD1B2" rx="11" ry="11" style="stroke: #A80036; stroke-width: 1.0;"/><path d="M803.8688,814.6406 Q803.2906,814.9375 802.65,815.0859 Q802.0094,815.2344 801.3063,815.2344 Q798.8063,815.2344 797.4859,813.5859 Q796.1656,811.9375 796.1656,808.8125 Q796.1656,805.6875 797.4859,804.0313 Q798.8063,802.375 801.3063,802.375 Q802.0094,802.375 802.6578,802.5313 Q803.3063,802.6875 803.8688,802.9844 L803.8688,805.7031 Q803.2438,805.125 802.65,804.8516 Q802.0563,804.5781 801.4313,804.5781 Q800.0875,804.5781 799.4,805.6484 Q798.7125,806.7188 798.7125,808.8125 Q798.7125,810.9063 799.4,811.9766 Q800.0875,813.0469 801.4313,813.0469 Q802.0563,813.0469 802.65,812.7734 Q803.2438,812.5 803.8688,811.9219 L803.8688,814.6406 Z "/><text fill="#000000" font-family="sans-serif" font-size="12" lengthAdjust="spacingAndGlyphs" textLength="57" x="818.1" y="813.1543">TasksList</text><line style="stroke: #A80036; stroke-width: 1.5;" x1="772.5" x2="891.5" y1="825" y2="825"/><line style="stroke: #A80036; stroke-width: 1.5;" x1="772.5" x2="891.5" y1="833" y2="833"/><text fill="#000000" font-family="sans-serif" font-size="11" lengthAdjust="spacingAndGlyphs" textLength="109" x="777.5" y="847.2104">+taskExists(taskId)</text><!--MD5=[99b8db98afdc2c8404e39242ef4c1e65]
class Platform--><rect fill="#FEFECE" filter="url(#f9mxlyq3u1md4)" height="86.4141" id="Platform" style="stroke: #A80036; stroke-width: 1.5;" width="285" x="393.5" y="277"/><ellipse cx="505.75" cy="293" fill="#ADD1B2" rx="11" ry="11" style="stroke: #A80036; stroke-width: 1.0;"/><path d="M508.7188,298.6406 Q508.1406,298.9375 507.5,299.0859 Q506.8594,299.2344 506.1563,299.2344 Q503.6563,299.2344 502.3359,297.5859 Q501.0156,295.9375 501.0156,292.8125 Q501.0156,289.6875 502.3359,288.0313 Q503.6563,286.375 506.1563,286.375 Q506.8594,286.375 507.5078,286.5313 Q508.1563,286.6875 508.7188,286.9844 L508.7188,289.7031 Q508.0938,289.125 507.5,288.8516 Q506.9063,288.5781 506.2813,288.5781 Q504.9375,288.5781 504.25,289.6484 Q503.5625,290.7188 503.5625,292.8125 Q503.5625,294.9063 504.25,295.9766 Q504.9375,297.0469 506.2813,297.0469 Q506.9063,297.0469 507.5,296.7734 Q508.0938,296.5 508.7188,295.9219 L508.7188,298.6406 Z "/><text fill="#000000" font-family="sans-serif" font-size="12" lengthAdjust="spacingAndGlyphs" textLength="52" x="526.25" y="297.1543">Platform</text><line style="stroke: #A80036; stroke-width: 1.5;" x1="394.5" x2="677.5" y1="309" y2="309"/><text fill="#000000" font-family="sans-serif" font-size="11" lengthAdjust="spacingAndGlyphs" textLength="108" x="399.5" y="323.2104">-String designation</text><line style="stroke: #A80036; stroke-width: 1.5;" x1="394.5" x2="677.5" y1="329.8047" y2="329.8047"/><text fill="#000000" font-family="sans-serif" font-size="11" lengthAdjust="spacingAndGlyphs" textLength="273" x="399.5" y="344.0151">+OrganizationsRecord getOrganizationsRecord()</text><text fill="#000000" font-family="sans-serif" font-size="11" lengthAdjust="spacingAndGlyphs" textLength="251" x="399.5" y="356.8198">+FreelancersRecord getFreelancersRecord()</text><!--MD5=[c7635c972eb61a4e069c06c1240b28a8]
class FreelancersRecord--><rect fill="#FEFECE" filter="url(#f9mxlyq3u1md4)" height="60.8047" id="FreelancersRecord" style="stroke: #A80036; stroke-width: 1.5;" width="150" x="280" y="440"/><ellipse cx="295" cy="456" fill="#ADD1B2" rx="11" ry="11" style="stroke: #A80036; stroke-width: 1.0;"/><path d="M297.9688,461.6406 Q297.3906,461.9375 296.75,462.0859 Q296.1094,462.2344 295.4063,462.2344 Q292.9063,462.2344 291.5859,460.5859 Q290.2656,458.9375 290.2656,455.8125 Q290.2656,452.6875 291.5859,451.0313 Q292.9063,449.375 295.4063,449.375 Q296.1094,449.375 296.7578,449.5313 Q297.4063,449.6875 297.9688,449.9844 L297.9688,452.7031 Q297.3438,452.125 296.75,451.8516 Q296.1563,451.5781 295.5313,451.5781 Q294.1875,451.5781 293.5,452.6484 Q292.8125,453.7188 292.8125,455.8125 Q292.8125,457.9063 293.5,458.9766 Q294.1875,460.0469 295.5313,460.0469 Q296.1563,460.0469 296.75,459.7734 Q297.3438,459.5 297.9688,458.9219 L297.9688,461.6406 Z "/><text fill="#000000" font-family="sans-serif" font-size="12" lengthAdjust="spacingAndGlyphs" textLength="118" x="309" y="460.1543">FreelancersRecord</text><line style="stroke: #A80036; stroke-width: 1.5;" x1="281" x2="429" y1="472" y2="472"/><line style="stroke: #A80036; stroke-width: 1.5;" x1="281" x2="429" y1="480" y2="480"/><text fill="#000000" font-family="sans-serif" font-size="11" lengthAdjust="spacingAndGlyphs" textLength="131" x="286" y="494.2104">+freelancerExists(frlId)</text><!--MD5=[759d9d4bd7fe37fb1c4b72776400893c]
class OrganizationsRecord--><rect fill="#FEFECE" filter="url(#f9mxlyq3u1md4)" height="60.8047" id="OrganizationsRecord" style="stroke: #A80036; stroke-width: 1.5;" width="221" x="528.5" y="440"/><ellipse cx="570.5" cy="456" fill="#ADD1B2" rx="11" ry="11" style="stroke: #A80036; stroke-width: 1.0;"/><path d="M573.4688,461.6406 Q572.8906,461.9375 572.25,462.0859 Q571.6094,462.2344 570.9063,462.2344 Q568.4063,462.2344 567.0859,460.5859 Q565.7656,458.9375 565.7656,455.8125 Q565.7656,452.6875 567.0859,451.0313 Q568.4063,449.375 570.9063,449.375 Q571.6094,449.375 572.2578,449.5313 Q572.9063,449.6875 573.4688,449.9844 L573.4688,452.7031 Q572.8438,452.125 572.25,451.8516 Q571.6563,451.5781 571.0313,451.5781 Q569.6875,451.5781 569,452.6484 Q568.3125,453.7188 568.3125,455.8125 Q568.3125,457.9063 569,458.9766 Q569.6875,460.0469 571.0313,460.0469 Q571.6563,460.0469 572.25,459.7734 Q572.8438,459.5 573.4688,458.9219 L573.4688,461.6406 Z "/><text fill="#000000" font-family="sans-serif" font-size="12" lengthAdjust="spacingAndGlyphs" textLength="129" x="590.5" y="460.1543">OrganizationsRecord</text><line style="stroke: #A80036; stroke-width: 1.5;" x1="529.5" x2="748.5" y1="472" y2="472"/><line style="stroke: #A80036; stroke-width: 1.5;" x1="529.5" x2="748.5" y1="480" y2="480"/><text fill="#000000" font-family="sans-serif" font-size="11" lengthAdjust="spacingAndGlyphs" textLength="209" x="534.5" y="494.2104">+getOrganizationByUserEmail(email)</text><!--MD5=[9ab0068e71df7f673644752c40fe3ac4]
class CreatePaymentTransactionController--><rect fill="#FEFECE" filter="url(#f9mxlyq3u1md4)" height="99.2188" id="CreatePaymentTransactionController" style="stroke: #A80036; stroke-width: 1.5;" width="546" x="410" y="117"/><ellipse cx="563.25" cy="133" fill="#ADD1B2" rx="11" ry="11" style="stroke: #A80036; stroke-width: 1.0;"/><path d="M566.2188,138.6406 Q565.6406,138.9375 565,139.0859 Q564.3594,139.2344 563.6563,139.2344 Q561.1563,139.2344 559.8359,137.5859 Q558.5156,135.9375 558.5156,132.8125 Q558.5156,129.6875 559.8359,128.0313 Q561.1563,126.375 563.6563,126.375 Q564.3594,126.375 565.0078,126.5313 Q565.6563,126.6875 566.2188,126.9844 L566.2188,129.7031 Q565.5938,129.125 565,128.8516 Q564.4063,128.5781 563.7813,128.5781 Q562.4375,128.5781 561.75,129.6484 Q561.0625,130.7188 561.0625,132.8125 Q561.0625,134.9063 561.75,135.9766 Q562.4375,137.0469 563.7813,137.0469 Q564.4063,137.0469 565,136.7734 Q565.5938,136.5 566.2188,135.9219 L566.2188,138.6406 Z "/><text fill="#000000" font-family="sans-serif" font-size="12" lengthAdjust="spacingAndGlyphs" textLength="231" x="583.75" y="137.1543">CreatePaymentTransactionController</text><line style="stroke: #A80036; stroke-width: 1.5;" x1="411" x2="955" y1="149" y2="149"/><line style="stroke: #A80036; stroke-width: 1.5;" x1="411" x2="955" y1="157" y2="157"/><text fill="#000000" font-family="sans-serif" font-size="11" lengthAdjust="spacingAndGlyphs" textLength="530" x="416" y="171.2104">+newPaymentTransaction(taskId, briefDescription, timeDuration, costPerHour, taskCategory,</text><text fill="#000000" font-family="sans-serif" font-size="11" lengthAdjust="spacingAndGlyphs" textLength="227" x="416" y="184.0151">endDate, delay, workQualityDescription,</text><text fill="#000000" font-family="sans-serif" font-size="11" lengthAdjust="spacingAndGlyphs" textLength="359" x="416" y="196.8198">frlId, name, expertiseLevel, email, NIF, IBAN, address, country)</text><text fill="#000000" font-family="sans-serif" font-size="11" lengthAdjust="spacingAndGlyphs" textLength="180" x="416" y="209.6245">+paymentTransactionRegister()</text><!--MD5=[e472615a113cc15971a8fcaedb5e2163]
class CreatePaymentTransactionUI--><rect fill="#FEFECE" filter="url(#f9mxlyq3u1md4)" height="48" id="CreatePaymentTransactionUI" style="stroke: #A80036; stroke-width: 1.5;" width="214" x="576" y="8"/><ellipse cx="591" cy="24" fill="#ADD1B2" rx="11" ry="11" style="stroke: #A80036; stroke-width: 1.0;"/><path d="M593.9688,29.6406 Q593.3906,29.9375 592.75,30.0859 Q592.1094,30.2344 591.4063,30.2344 Q588.9063,30.2344 587.5859,28.5859 Q586.2656,26.9375 586.2656,23.8125 Q586.2656,20.6875 587.5859,19.0313 Q588.9063,17.375 591.4063,17.375 Q592.1094,17.375 592.7578,17.5313 Q593.4063,17.6875 593.9688,17.9844 L593.9688,20.7031 Q593.3438,20.125 592.75,19.8516 Q592.1563,19.5781 591.5313,19.5781 Q590.1875,19.5781 589.5,20.6484 Q588.8125,21.7188 588.8125,23.8125 Q588.8125,25.9063 589.5,26.9766 Q590.1875,28.0469 591.5313,28.0469 Q592.1563,28.0469 592.75,27.7734 Q593.3438,27.5 593.9688,26.9219 L593.9688,29.6406 Z "/><text fill="#000000" font-family="sans-serif" font-size="12" lengthAdjust="spacingAndGlyphs" textLength="182" x="605" y="28.1543">CreatePaymentTransactionUI</text><line style="stroke: #A80036; stroke-width: 1.5;" x1="577" x2="789" y1="40" y2="40"/><line style="stroke: #A80036; stroke-width: 1.5;" x1="577" x2="789" y1="48" y2="48"/><!--MD5=[b645a18afb25b7e5623af7186d8eb36f]
class PaymentTransaction--><rect fill="#FEFECE" filter="url(#f9mxlyq3u1md4)" height="60.8047" id="PaymentTransaction" style="stroke: #A80036; stroke-width: 1.5;" width="329" x="407.5" y="793"/><ellipse cx="503.75" cy="809" fill="#ADD1B2" rx="11" ry="11" style="stroke: #A80036; stroke-width: 1.0;"/><path d="M506.7188,814.6406 Q506.1406,814.9375 505.5,815.0859 Q504.8594,815.2344 504.1563,815.2344 Q501.6563,815.2344 500.3359,813.5859 Q499.0156,811.9375 499.0156,808.8125 Q499.0156,805.6875 500.3359,804.0313 Q501.6563,802.375 504.1563,802.375 Q504.8594,802.375 505.5078,802.5313 Q506.1563,802.6875 506.7188,802.9844 L506.7188,805.7031 Q506.0938,805.125 505.5,804.8516 Q504.9063,804.5781 504.2813,804.5781 Q502.9375,804.5781 502.25,805.6484 Q501.5625,806.7188 501.5625,808.8125 Q501.5625,810.9063 502.25,811.9766 Q502.9375,813.0469 504.2813,813.0469 Q504.9063,813.0469 505.5,812.7734 Q506.0938,812.5 506.7188,811.9219 L506.7188,814.6406 Z "/><text fill="#000000" font-family="sans-serif" font-size="12" lengthAdjust="spacingAndGlyphs" textLength="128" x="524.25" y="813.1543">PaymentTransaction</text><line style="stroke: #A80036; stroke-width: 1.5;" x1="408.5" x2="735.5" y1="825" y2="825"/><line style="stroke: #A80036; stroke-width: 1.5;" x1="408.5" x2="735.5" y1="833" y2="833"/><text fill="#000000" font-family="sans-serif" font-size="11" lengthAdjust="spacingAndGlyphs" textLength="317" x="413.5" y="847.2104">+PaymentTransaction(task, taskExec, free, payAmount)</text><!--MD5=[5ce80547de3caced9d0089e35ded5090]
class TaskExecution--><rect fill="#FEFECE" filter="url(#f9mxlyq3u1md4)" height="86.4141" id="TaskExecution" style="stroke: #A80036; stroke-width: 1.5;" width="184" x="251" y="1158"/><ellipse cx="293.9" cy="1174" fill="#ADD1B2" rx="11" ry="11" style="stroke: #A80036; stroke-width: 1.0;"/><path d="M296.8688,1179.6406 Q296.2906,1179.9375 295.65,1180.0859 Q295.0094,1180.2344 294.3063,1180.2344 Q291.8063,1180.2344 290.4859,1178.5859 Q289.1656,1176.9375 289.1656,1173.8125 Q289.1656,1170.6875 290.4859,1169.0313 Q291.8063,1167.375 294.3063,1167.375 Q295.0094,1167.375 295.6578,1167.5313 Q296.3063,1167.6875 296.8688,1167.9844 L296.8688,1170.7031 Q296.2438,1170.125 295.65,1169.8516 Q295.0563,1169.5781 294.4313,1169.5781 Q293.0875,1169.5781 292.4,1170.6484 Q291.7125,1171.7188 291.7125,1173.8125 Q291.7125,1175.9063 292.4,1176.9766 Q293.0875,1178.0469 294.4313,1178.0469 Q295.0563,1178.0469 295.65,1177.7734 Q296.2438,1177.5 296.8688,1176.9219 L296.8688,1179.6406 Z "/><text fill="#000000" font-family="sans-serif" font-size="12" lengthAdjust="spacingAndGlyphs" textLength="90" x="314.1" y="1178.1543">TaskExecution</text><line style="stroke: #A80036; stroke-width: 1.5;" x1="252" x2="434" y1="1190" y2="1190"/><text fill="#000000" font-family="sans-serif" font-size="11" lengthAdjust="spacingAndGlyphs" textLength="81" x="257" y="1204.2104">-Date endDate</text><text fill="#000000" font-family="sans-serif" font-size="11" lengthAdjust="spacingAndGlyphs" textLength="77" x="257" y="1217.0151">-Double delay</text><text fill="#000000" font-family="sans-serif" font-size="11" lengthAdjust="spacingAndGlyphs" textLength="172" x="257" y="1229.8198">-String workQualityDescription</text><line style="stroke: #A80036; stroke-width: 1.5;" x1="252" x2="434" y1="1236.4141" y2="1236.4141"/><!--MD5=[d75f8faab7003fe4f7fadde3e00b3cf7]
link CreatePaymentTransactionUI to CreatePaymentTransactionController--><path d="M683,56.0459 C683,71.4478 683,92.0929 683,111.3652 " fill="none" id="CreatePaymentTransactionUI-&gt;CreatePaymentTransactionController" style="stroke: #A80036; stroke-width: 1.0; stroke-dasharray: 7.0,7.0;"/><polygon fill="#A80036" points="683,116.759,687,107.759,683,111.759,679,107.759,683,116.759" style="stroke: #A80036; stroke-width: 1.0;"/><!--MD5=[c21c0329c000ce3a64d50b793859385d]
link CreatePaymentTransactionController to Platform--><path d="M635.2733,216.3371 C617.8928,234.4861 598.3107,254.934 581.1598,272.8434 " fill="none" id="CreatePaymentTransactionController-&gt;Platform" style="stroke: #A80036; stroke-width: 1.0; stroke-dasharray: 7.0,7.0;"/><polygon fill="#A80036" points="577.3121,276.8612,586.4259,273.1278,580.7704,273.2501,580.6481,267.5945,577.3121,276.8612" style="stroke: #A80036; stroke-width: 1.0;"/><!--MD5=[210f769589d3231071ce642d48ce0383]
link CreatePaymentTransactionController to Tarefa--><path d="M870.6348,216.0234 C913.132,238.9541 946,272.1547 946,320 C946,320 946,320 946,823.5 C946,896.6674 872.6795,946.7077 811.8729,975.6265 " fill="none" id="CreatePaymentTransactionController-&gt;Tarefa" style="stroke: #A80036; stroke-width: 1.0; stroke-dasharray: 7.0,7.0;"/><polygon fill="#A80036" points="807.1475,977.8438,816.9943,977.6417,811.6739,975.7198,813.5959,970.3994,807.1475,977.8438" style="stroke: #A80036; stroke-width: 1.0;"/><!--MD5=[d808bb2ca26b86ab5f675405e49fd624]
link CreatePaymentTransactionController to Organization--><path d="M713.7585,216.2316 C750.6112,282.4468 803.1314,402.6435 767,501 C757.2842,527.4481 740.4171,552.3819 722.1964,573.9066 " fill="none" id="CreatePaymentTransactionController-&gt;Organization" style="stroke: #A80036; stroke-width: 1.0; stroke-dasharray: 7.0,7.0;"/><polygon fill="#A80036" points="718.7799,577.8857,727.6777,573.6632,722.0371,574.0922,721.6081,568.4516,718.7799,577.8857" style="stroke: #A80036; stroke-width: 1.0;"/><!--MD5=[c3f8496c633e2f7f52d8bf9bc86aad29]
link CreatePaymentTransactionController to POTApplication--><path d="M409.6963,210.1349 C327.854,226.9238 238.7062,248.9761 159,277 C155.0752,278.3799 151.101,279.9038 147.125,281.5302 " fill="none" id="CreatePaymentTransactionController-&gt;POTApplication" style="stroke: #A80036; stroke-width: 1.0; stroke-dasharray: 7.0,7.0;"/><polygon fill="#A80036" points="142.4595,283.4839,152.306,283.6972,147.0715,281.5526,149.216,276.318,142.4595,283.4839" style="stroke: #A80036; stroke-width: 1.0;"/><!--MD5=[044b46cd6ff48909710cb1d203e462f9]
link CreatePaymentTransactionController to UserSession--><path d="M409.8158,208.3447 C376.6093,218.3309 343.8951,230.6944 314,246 C294.8027,255.8285 276.6464,271.304 262.3217,285.5676 " fill="none" id="CreatePaymentTransactionController-&gt;UserSession" style="stroke: #A80036; stroke-width: 1.0; stroke-dasharray: 7.0,7.0;"/><polygon fill="#A80036" points="258.7641,289.1636,267.9373,285.5785,262.2805,285.609,262.25,279.9523,258.7641,289.1636" style="stroke: #A80036; stroke-width: 1.0;"/><!--MD5=[a5b2a848340ab19653babd02d4515d20]
link CreatePaymentTransactionController to TasksList--><path d="M802.3352,216.052 C840.9438,240.5175 874,274.6936 874,320 C874,320 874,320 874,647 C874,696.8357 857.957,752.489 845.7015,787.7329 " fill="none" id="CreatePaymentTransactionController-&gt;TasksList" style="stroke: #A80036; stroke-width: 1.0; stroke-dasharray: 7.0,7.0;"/><polygon fill="#A80036" points="843.9232,792.7816,850.6861,785.6217,845.5843,788.0656,843.1405,782.9639,843.9232,792.7816" style="stroke: #A80036; stroke-width: 1.0;"/><!--MD5=[546fd7e0e055f1eba4c284893e3481a0]
link CreatePaymentTransactionController to FreelancersRecord--><path d="M495.7254,216.029 C441.9271,233.9901 393.1208,255.2427 376,277 C340.5588,322.0391 342.8611,392.3333 348.4515,434.6493 " fill="none" id="CreatePaymentTransactionController-&gt;FreelancersRecord" style="stroke: #A80036; stroke-width: 1.0; stroke-dasharray: 7.0,7.0;"/><polygon fill="#A80036" points="349.1472,439.6675,351.8732,430.2034,348.4605,434.7149,343.949,431.3022,349.1472,439.6675" style="stroke: #A80036; stroke-width: 1.0;"/><!--MD5=[19aba29190c83d802a073857acc5c053]
link CreatePaymentTransactionController to OrganizationsRecord--><path d="M694.5854,216.0998 C702.0017,256.2844 708.1717,314.0619 696,363 C689.6008,388.729 675.7757,415.0686 663.3441,435.2359 " fill="none" id="CreatePaymentTransactionController-&gt;OrganizationsRecord" style="stroke: #A80036; stroke-width: 1.0; stroke-dasharray: 7.0,7.0;"/><polygon fill="#A80036" points="660.5512,439.7028,668.7142,434.1923,663.202,435.4633,661.931,429.9511,660.5512,439.7028" style="stroke: #A80036; stroke-width: 1.0;"/><!--MD5=[d77b6fe82f72fca34ebf8190bf84198d]
link Platform to FreelancersRecord--><path d="M484.1327,363.1273 C456.17,386.378 422.1496,414.6656 396.0487,436.3683 " fill="none" id="Platform-&gt;FreelancersRecord" style="stroke: #A80036; stroke-width: 1.0;"/><polygon fill="#A80036" points="391.9298,439.7931,401.4075,437.1148,395.7745,436.5964,396.2928,430.9634,391.9298,439.7931" style="stroke: #A80036; stroke-width: 1.0;"/><text fill="#000000" font-family="sans-serif" font-size="13" lengthAdjust="spacingAndGlyphs" textLength="23" x="447" y="406.0669">has</text><text fill="#000000" font-family="sans-serif" font-size="13" lengthAdjust="spacingAndGlyphs" textLength="8" x="466.8797" y="383.5561">1</text><text fill="#000000" font-family="sans-serif" font-size="13" lengthAdjust="spacingAndGlyphs" textLength="8" x="390.7216" y="429.0137">1</text><!--MD5=[d9ffa4e24b0f90d8cdc0d9eb36306584]
link Platform to OrganizationsRecord--><path d="M565.5157,363.1273 C581.2317,386.0909 600.3103,413.9679 615.0886,435.5615 " fill="none" id="Platform-&gt;OrganizationsRecord" style="stroke: #A80036; stroke-width: 1.0;"/><polygon fill="#A80036" points="617.9847,439.7931,616.2026,430.1068,615.1608,435.6669,609.6007,434.6251,617.9847,439.7931" style="stroke: #A80036; stroke-width: 1.0;"/><text fill="#000000" font-family="sans-serif" font-size="13" lengthAdjust="spacingAndGlyphs" textLength="23" x="598" y="406.0669">has</text><text fill="#000000" font-family="sans-serif" font-size="13" lengthAdjust="spacingAndGlyphs" textLength="8" x="561.7417" y="383.5561">1</text><text fill="#000000" font-family="sans-serif" font-size="13" lengthAdjust="spacingAndGlyphs" textLength="8" x="604.8253" y="429.0137">1</text><!--MD5=[0634d34efc8f03ad94b2231e46fef7de]
link FreelancersRecord to Freelancer--><path d="M352.3318,501.0896 C347.669,567.7425 342.6112,730.039 390,854 C399.8378,879.7341 415.3402,904.905 431.7455,927.1249 " fill="none" id="FreelancersRecord-&gt;Freelancer" style="stroke: #A80036; stroke-width: 1.0;"/><polygon fill="#A80036" points="434.8181,931.2389,432.6375,921.6345,431.8262,927.2328,426.2278,926.4215,434.8181,931.2389" style="stroke: #A80036; stroke-width: 1.0;"/><text fill="#000000" font-family="sans-serif" font-size="13" lengthAdjust="spacingAndGlyphs" textLength="23" x="366" y="759.0669">has</text><text fill="#000000" font-family="sans-serif" font-size="13" lengthAdjust="spacingAndGlyphs" textLength="8" x="342.9565" y="521.0463">1</text><text fill="#000000" font-family="sans-serif" font-size="13" lengthAdjust="spacingAndGlyphs" textLength="7" x="420.4259" y="919.8069">*</text><!--MD5=[15b500351a20fc4c9aef6172f83f2b2a]
link OrganizationsRecord to Organization--><path d="M639.6967,501.244 C640.1439,520.9764 640.7451,547.5029 641.312,572.5165 " fill="none" id="OrganizationsRecord-&gt;Organization" style="stroke: #A80036; stroke-width: 1.0;"/><polygon fill="#A80036" points="641.4324,577.8282,645.2272,568.7398,641.319,572.8295,637.2293,568.9213,641.4324,577.8282" style="stroke: #A80036; stroke-width: 1.0;"/><text fill="#000000" font-family="sans-serif" font-size="13" lengthAdjust="spacingAndGlyphs" textLength="23" x="642" y="544.0669">has</text><text fill="#000000" font-family="sans-serif" font-size="13" lengthAdjust="spacingAndGlyphs" textLength="8" x="631.0464" y="520.8725">1</text><text fill="#000000" font-family="sans-serif" font-size="13" lengthAdjust="spacingAndGlyphs" textLength="7" x="633.9098" y="567.0141">*</text><!--MD5=[d15cad16830e0e3b1d195407ed1d0016]
link Organization to TasksList--><path d="M717.1554,716.2509 C743.9419,741.2659 773.018,768.4189 795.2117,789.1448 " fill="none" id="Organization-&gt;TasksList" style="stroke: #A80036; stroke-width: 1.0;"/><polygon fill="#A80036" points="798.9926,792.6756,795.1451,783.6094,795.3383,789.2629,789.6848,789.4562,798.9926,792.6756" style="stroke: #A80036; stroke-width: 1.0;"/><text fill="#000000" font-family="sans-serif" font-size="13" lengthAdjust="spacingAndGlyphs" textLength="23" x="766" y="759.0669">has</text><text fill="#000000" font-family="sans-serif" font-size="13" lengthAdjust="spacingAndGlyphs" textLength="8" x="715.8421" y="735.6569">1</text><text fill="#000000" font-family="sans-serif" font-size="13" lengthAdjust="spacingAndGlyphs" textLength="8" x="783.3598" y="781.8719">1</text><!--MD5=[da2d560b3f89d8c66478284968d27dfa]
link Organization to PaymentTransaction--><path d="M615.1427,716.2509 C605.2879,740.749 594.6083,767.2978 586.34,787.8519 " fill="none" id="Organization-&gt;PaymentTransaction" style="stroke: #A80036; stroke-width: 1.0;"/><polygon fill="#A80036" points="584.3996,792.6756,591.4696,785.8189,586.2657,788.0369,584.0477,782.833,584.3996,792.6756" style="stroke: #A80036; stroke-width: 1.0;"/><text fill="#000000" font-family="sans-serif" font-size="13" lengthAdjust="spacingAndGlyphs" textLength="23" x="603" y="759.0669">has</text><text fill="#000000" font-family="sans-serif" font-size="13" lengthAdjust="spacingAndGlyphs" textLength="8" x="604.1063" y="735.6569">1</text><text fill="#000000" font-family="sans-serif" font-size="13" lengthAdjust="spacingAndGlyphs" textLength="7" x="579.2351" y="781.8719">*</text><!--MD5=[ab6bf6f405bf932e10b3bc79d0f330c9]
link TasksList to Tarefa--><path d="M815.2622,854.0464 C802.6485,877.0665 784.8659,909.5197 768.9715,938.527 " fill="none" id="TasksList-&gt;Tarefa" style="stroke: #A80036; stroke-width: 1.0;"/><polygon fill="#A80036" points="766.4378,943.1509,774.2705,937.1802,768.8405,938.766,767.2547,933.336,766.4378,943.1509" style="stroke: #A80036; stroke-width: 1.0;"/><text fill="#000000" font-family="sans-serif" font-size="13" lengthAdjust="spacingAndGlyphs" textLength="23" x="797" y="897.0669">has</text><text fill="#000000" font-family="sans-serif" font-size="13" lengthAdjust="spacingAndGlyphs" textLength="8" x="802.985" y="873.9942">1</text><text fill="#000000" font-family="sans-serif" font-size="13" lengthAdjust="spacingAndGlyphs" textLength="7" x="762.8216" y="932.54">*</text><!--MD5=[8a6254df929d9688c19c0dc09f496a68]
link Tarefa to TaskExecution--><path d="M656.6984,1045.666 C634.6185,1057.1757 610.3916,1069.6874 588,1081 C538.3426,1106.0878 482.6725,1133.4178 436.9628,1155.6502 " fill="none" id="Tarefa-&gt;TaskExecution" style="stroke: #A80036; stroke-width: 1.0;"/><polygon fill="#A80036" points="432.2892,1157.9225,442.1323,1157.5846,436.7859,1155.7362,438.6342,1150.3899,432.2892,1157.9225" style="stroke: #A80036; stroke-width: 1.0;"/><text fill="#000000" font-family="sans-serif" font-size="13" lengthAdjust="spacingAndGlyphs" textLength="23" x="529" y="1124.0669">has</text><text fill="#000000" font-family="sans-serif" font-size="13" lengthAdjust="spacingAndGlyphs" textLength="8" x="640.8921" y="1045.9142">1</text><text fill="#000000" font-family="sans-serif" font-size="13" lengthAdjust="spacingAndGlyphs" textLength="8" x="437.8822" y="1146.9062">1</text><!--MD5=[f6802b286771c18a16ea4be983074371]
link PaymentTransaction to Freelancer--><path d="M559.6458,854.2215 C555.8604,863.7467 551.7157,874.291 548,884 C542.8166,897.5441 537.401,911.9728 532.1962,925.9894 " fill="none" id="PaymentTransaction-&gt;Freelancer" style="stroke: #A80036; stroke-width: 1.0;"/><polygon fill="#A80036" points="530.4398,930.7251,537.3199,923.6778,532.1785,926.0372,529.8192,920.8958,530.4398,930.7251" style="stroke: #A80036; stroke-width: 1.0;"/><text fill="#000000" font-family="sans-serif" font-size="13" lengthAdjust="spacingAndGlyphs" textLength="61" x="549" y="897.0669">relates to</text><text fill="#000000" font-family="sans-serif" font-size="13" lengthAdjust="spacingAndGlyphs" textLength="8" x="548.4261" y="873.8456">1</text><text fill="#000000" font-family="sans-serif" font-size="13" lengthAdjust="spacingAndGlyphs" textLength="8" x="524.6739" y="919.888">1</text><!--MD5=[b41e08b5933bb8d57a68400b45ec2baf]
link PaymentTransaction to Tarefa--><path d="M598.7804,854.0464 C619.1285,877.256 647.8835,910.0546 673.4729,939.2425 " fill="none" id="PaymentTransaction-&gt;Tarefa" style="stroke: #A80036; stroke-width: 1.0;"/><polygon fill="#A80036" points="676.8995,943.1509,673.9742,933.7465,673.6034,939.3912,667.9587,939.0203,676.8995,943.1509" style="stroke: #A80036; stroke-width: 1.0;"/><text fill="#000000" font-family="sans-serif" font-size="13" lengthAdjust="spacingAndGlyphs" textLength="61" x="639" y="897.0669">relates to</text><text fill="#000000" font-family="sans-serif" font-size="13" lengthAdjust="spacingAndGlyphs" textLength="8" x="595.4789" y="873.9942">1</text><text fill="#000000" font-family="sans-serif" font-size="13" lengthAdjust="spacingAndGlyphs" textLength="8" x="662.4354" y="932.54">1</text><!--MD5=[ccf9e4a23b86a8fcbc3774eff83a0cb7]
link PaymentTransaction to TaskExecution--><path d="M456.0106,854.111 C417.0375,870.4042 377.5267,894.8302 354,931 C310.5464,997.8051 319.918,1094.8375 331.1422,1152.5659 " fill="none" id="PaymentTransaction-&gt;TaskExecution" style="stroke: #A80036; stroke-width: 1.0;"/><polygon fill="#A80036" points="332.1622,1157.6835,334.3259,1148.0753,331.1849,1152.7799,326.4802,1149.6389,332.1622,1157.6835" style="stroke: #A80036; stroke-width: 1.0;"/><text fill="#000000" font-family="sans-serif" font-size="13" lengthAdjust="spacingAndGlyphs" textLength="61" x="355" y="1010.5669">relates to</text><text fill="#000000" font-family="sans-serif" font-size="13" lengthAdjust="spacingAndGlyphs" textLength="8" x="423.2628" y="874.0721">1</text><text fill="#000000" font-family="sans-serif" font-size="13" lengthAdjust="spacingAndGlyphs" textLength="8" x="321.8902" y="1146.9476">1</text><!--MD5=[abddb29fc3bc20abd09dbe4aec08e04c]
@startuml
skinparam classAttributeIconSize 0

class POTApplication
{
  +static getInstance()
  +getCurrentSession()
}

class UserSession
{
  +getUserEmail()
}

class Tarefa {
  -String id
  -String briefDescription
  -Integer timeDuration
  -Double costPerHour
  -String taskCategory
  +getTaskExecData(task)
}

class Freelancer {
  -String id
  -String name
  -String expertiseLevel
  -String email
  -String NIF
  -String IBAN
  -String address
  -String country
}

class Organization {
  -String name
  +getTasksList()
  +generatePayAmount(task, free)
  +newPaymentTransaction(task, taskExec, free, payAmount)
  +validatePaymentTransaction(payT)
  +paymentTransactionRegister(payT)
  +addPaymentTransaction(payT)
}

class TasksList {
  +taskExists(taskId)
}

class Platform {
  -String designation
  +OrganizationsRecord getOrganizationsRecord()
  +FreelancersRecord getFreelancersRecord()
}

class FreelancersRecord {
  +freelancerExists(frlId)
}

class OrganizationsRecord  {
  +getOrganizationByUserEmail(email)
}

class CreatePaymentTransactionController {
  +newPaymentTransaction(taskId, briefDescription, timeDuration, costPerHour, taskCategory, \nendDate, delay, workQualityDescription, \nfrlId, name, expertiseLevel, email, NIF, IBAN, address, country)
  +paymentTransactionRegister()
}

class CreatePaymentTransactionUI {
}

class PaymentTransaction{
  +PaymentTransaction(task, taskExec, free, payAmount)
}

class TaskExecution {
 -Date endDate
 -Double delay
 -String workQualityDescription
}

CreatePaymentTransactionUI ..> CreatePaymentTransactionController
CreatePaymentTransactionController ..> Platform
CreatePaymentTransactionController ..> Tarefa
CreatePaymentTransactionController ..> Organization
CreatePaymentTransactionController ..> POTApplication
CreatePaymentTransactionController ..> UserSession
CreatePaymentTransactionController ..> TasksList
CreatePaymentTransactionController ..> FreelancersRecord
CreatePaymentTransactionController ..> OrganizationsRecord
Platform "1" - -> "1" FreelancersRecord : has
Platform "1" - -> "1" OrganizationsRecord : has

FreelancersRecord "1" - -> "*" Freelancer : has
OrganizationsRecord "1" - -> "*" Organization : has
Organization "1" - -> "1" TasksList : has
Organization "1" - -> "*" PaymentTransaction : has
TasksList "1" - -> "*" Tarefa : has
Tarefa "1" - -> "1" TaskExecution : has

PaymentTransaction "1" - -> "1" Freelancer : relates to
PaymentTransaction "1" - -> "1" Tarefa : relates to
PaymentTransaction "1" - -> "1" TaskExecution : relates to
@enduml

PlantUML version 1.2019.12(Sun Nov 03 10:24:54 UTC 2019)
(GPL source distribution)
Java Runtime: OpenJDK Runtime Environment
JVM: OpenJDK 64-Bit Server VM
Java Version: 1.8.0_232-heroku-b09
Operating System: Linux
Default Encoding: UTF-8
Language: en
Country: US
--></g></svg>