<?xml version="1.0" encoding="UTF-8" standalone="no"?><svg xmlns="http://www.w3.org/2000/svg" xmlns:xlink="http://www.w3.org/1999/xlink" contentScriptType="application/ecmascript" contentStyleType="text/css" height="452px" preserveAspectRatio="none" style="width:1753px;height:452px;" version="1.1" viewBox="0 0 1753 452" width="1753px" zoomAndPan="magnify"><defs><filter height="300%" id="f1b59th17y9q7w" width="300%" x="-1" y="-1"><feGaussianBlur result="blurOut" stdDeviation="2.0"/><feColorMatrix in="blurOut" result="blurOut2" type="matrix" values="0 0 0 0 0 0 0 0 0 0 0 0 0 0 0 0 0 0 .4 0"/><feOffset dx="4.0" dy="4.0" in="blurOut2" result="blurOut3"/><feBlend in="SourceGraphic" in2="blurOut3" mode="normal"/></filter></defs><g><!--MD5=[99b8db98afdc2c8404e39242ef4c1e65]
class Platform--><rect fill="#FEFECE" filter="url(#f1b59th17y9q7w)" height="52.8047" id="Platform" style="stroke: #A80036; stroke-width: 1.5;" width="120" x="6" y="41.5"/><ellipse cx="37.2" cy="57.5" fill="#ADD1B2" rx="11" ry="11" style="stroke: #A80036; stroke-width: 1.0;"/><path d="M40.1688,63.1406 Q39.5906,63.4375 38.95,63.5859 Q38.3094,63.7344 37.6063,63.7344 Q35.1063,63.7344 33.7859,62.0859 Q32.4656,60.4375 32.4656,57.3125 Q32.4656,54.1875 33.7859,52.5313 Q35.1063,50.875 37.6063,50.875 Q38.3094,50.875 38.9578,51.0313 Q39.6063,51.1875 40.1688,51.4844 L40.1688,54.2031 Q39.5438,53.625 38.95,53.3516 Q38.3563,53.0781 37.7313,53.0781 Q36.3875,53.0781 35.7,54.1484 Q35.0125,55.2188 35.0125,57.3125 Q35.0125,59.4063 35.7,60.4766 Q36.3875,61.5469 37.7313,61.5469 Q38.3563,61.5469 38.95,61.2734 Q39.5438,61 40.1688,60.4219 L40.1688,63.1406 Z "/><text fill="#000000" font-family="sans-serif" font-size="12" lengthAdjust="spacingAndGlyphs" textLength="52" x="54.8" y="61.6543">Platform</text><line style="stroke: #A80036; stroke-width: 1.5;" x1="7" x2="125" y1="73.5" y2="73.5"/><text fill="#000000" font-family="sans-serif" font-size="11" lengthAdjust="spacingAndGlyphs" textLength="108" x="12" y="87.7104">-String designation</text><!--MD5=[86c7c362de55a38b660185a1328fe18d]
class Organization--><rect fill="#FEFECE" filter="url(#f1b59th17y9q7w)" height="65.6094" id="Organization" style="stroke: #A80036; stroke-width: 1.5;" width="110" x="293" y="105"/><ellipse cx="308" cy="121" fill="#ADD1B2" rx="11" ry="11" style="stroke: #A80036; stroke-width: 1.0;"/><path d="M310.9688,126.6406 Q310.3906,126.9375 309.75,127.0859 Q309.1094,127.2344 308.4063,127.2344 Q305.9063,127.2344 304.5859,125.5859 Q303.2656,123.9375 303.2656,120.8125 Q303.2656,117.6875 304.5859,116.0313 Q305.9063,114.375 308.4063,114.375 Q309.1094,114.375 309.7578,114.5313 Q310.4063,114.6875 310.9688,114.9844 L310.9688,117.7031 Q310.3438,117.125 309.75,116.8516 Q309.1563,116.5781 308.5313,116.5781 Q307.1875,116.5781 306.5,117.6484 Q305.8125,118.7188 305.8125,120.8125 Q305.8125,122.9063 306.5,123.9766 Q307.1875,125.0469 308.5313,125.0469 Q309.1563,125.0469 309.75,124.7734 Q310.3438,124.5 310.9688,123.9219 L310.9688,126.6406 Z "/><text fill="#000000" font-family="sans-serif" font-size="12" lengthAdjust="spacingAndGlyphs" textLength="78" x="322" y="125.1543">Organization</text><line style="stroke: #A80036; stroke-width: 1.5;" x1="294" x2="402" y1="137" y2="137"/><text fill="#000000" font-family="sans-serif" font-size="11" lengthAdjust="spacingAndGlyphs" textLength="74" x="299" y="151.2104">-String name</text><text fill="#000000" font-family="sans-serif" font-size="11" lengthAdjust="spacingAndGlyphs" textLength="59" x="299" y="164.0151">-String NIF</text><!--MD5=[f483d6e5de34a60207b28a5563be5e8b]
class Collaborator--><rect fill="#FEFECE" filter="url(#f1b59th17y9q7w)" height="65.6094" id="Collaborator" style="stroke: #A80036; stroke-width: 1.5;" width="109" x="501" y="242"/><ellipse cx="516" cy="258" fill="#ADD1B2" rx="11" ry="11" style="stroke: #A80036; stroke-width: 1.0;"/><path d="M518.9688,263.6406 Q518.3906,263.9375 517.75,264.0859 Q517.1094,264.2344 516.4063,264.2344 Q513.9063,264.2344 512.5859,262.5859 Q511.2656,260.9375 511.2656,257.8125 Q511.2656,254.6875 512.5859,253.0313 Q513.9063,251.375 516.4063,251.375 Q517.1094,251.375 517.7578,251.5313 Q518.4063,251.6875 518.9688,251.9844 L518.9688,254.7031 Q518.3438,254.125 517.75,253.8516 Q517.1563,253.5781 516.5313,253.5781 Q515.1875,253.5781 514.5,254.6484 Q513.8125,255.7188 513.8125,257.8125 Q513.8125,259.9063 514.5,260.9766 Q515.1875,262.0469 516.5313,262.0469 Q517.1563,262.0469 517.75,261.7734 Q518.3438,261.5 518.9688,260.9219 L518.9688,263.6406 Z "/><text fill="#000000" font-family="sans-serif" font-size="12" lengthAdjust="spacingAndGlyphs" textLength="77" x="530" y="262.1543">Collaborator</text><line style="stroke: #A80036; stroke-width: 1.5;" x1="502" x2="609" y1="274" y2="274"/><text fill="#000000" font-family="sans-serif" font-size="11" lengthAdjust="spacingAndGlyphs" textLength="74" x="507" y="288.2104">-String name</text><text fill="#000000" font-family="sans-serif" font-size="11" lengthAdjust="spacingAndGlyphs" textLength="73" x="507" y="301.0151">-String email</text><!--MD5=[3fd616f346a44cd59a91eb10b19e157c]
class User--><rect fill="#FEFECE" filter="url(#f1b59th17y9q7w)" height="65.6094" id="User" style="stroke: #A80036; stroke-width: 1.5;" width="110" x="1632" y="376"/><ellipse cx="1669.05" cy="392" fill="#ADD1B2" rx="11" ry="11" style="stroke: #A80036; stroke-width: 1.0;"/><path d="M1672.0188,397.6406 Q1671.4406,397.9375 1670.8,398.0859 Q1670.1594,398.2344 1669.4563,398.2344 Q1666.9563,398.2344 1665.6359,396.5859 Q1664.3156,394.9375 1664.3156,391.8125 Q1664.3156,388.6875 1665.6359,387.0313 Q1666.9563,385.375 1669.4563,385.375 Q1670.1594,385.375 1670.8078,385.5313 Q1671.4563,385.6875 1672.0188,385.9844 L1672.0188,388.7031 Q1671.3938,388.125 1670.8,387.8516 Q1670.2063,387.5781 1669.5813,387.5781 Q1668.2375,387.5781 1667.55,388.6484 Q1666.8625,389.7188 1666.8625,391.8125 Q1666.8625,393.9063 1667.55,394.9766 Q1668.2375,396.0469 1669.5813,396.0469 Q1670.2063,396.0469 1670.8,395.7734 Q1671.3938,395.5 1672.0188,394.9219 L1672.0188,397.6406 Z "/><text fill="#000000" font-family="sans-serif" font-size="12" lengthAdjust="spacingAndGlyphs" textLength="29" x="1687.95" y="396.1543">User</text><line style="stroke: #A80036; stroke-width: 1.5;" x1="1633" x2="1741" y1="408" y2="408"/><text fill="#000000" font-family="sans-serif" font-size="11" lengthAdjust="spacingAndGlyphs" textLength="73" x="1638" y="422.2104">-String email</text><text fill="#000000" font-family="sans-serif" font-size="11" lengthAdjust="spacingAndGlyphs" textLength="98" x="1638" y="435.0151">-String password</text><!--MD5=[1f687b5315377fe49fca59b457947463]
class Freelancer--><rect fill="#FEFECE" filter="url(#f1b59th17y9q7w)" height="142.4375" id="Freelancer" style="stroke: #A80036; stroke-width: 1.5;" width="136" x="1369" y="204"/><ellipse cx="1400.65" cy="220" fill="#ADD1B2" rx="11" ry="11" style="stroke: #A80036; stroke-width: 1.0;"/><path d="M1403.6188,225.6406 Q1403.0406,225.9375 1402.4,226.0859 Q1401.7594,226.2344 1401.0563,226.2344 Q1398.5563,226.2344 1397.2359,224.5859 Q1395.9156,222.9375 1395.9156,219.8125 Q1395.9156,216.6875 1397.2359,215.0313 Q1398.5563,213.375 1401.0563,213.375 Q1401.7594,213.375 1402.4078,213.5313 Q1403.0563,213.6875 1403.6188,213.9844 L1403.6188,216.7031 Q1402.9938,216.125 1402.4,215.8516 Q1401.8063,215.5781 1401.1813,215.5781 Q1399.8375,215.5781 1399.15,216.6484 Q1398.4625,217.7188 1398.4625,219.8125 Q1398.4625,221.9063 1399.15,222.9766 Q1399.8375,224.0469 1401.1813,224.0469 Q1401.8063,224.0469 1402.4,223.7734 Q1402.9938,223.5 1403.6188,222.9219 L1403.6188,225.6406 Z "/><text fill="#000000" font-family="sans-serif" font-size="12" lengthAdjust="spacingAndGlyphs" textLength="67" x="1418.35" y="224.1543">Freelancer</text><line style="stroke: #A80036; stroke-width: 1.5;" x1="1370" x2="1504" y1="236" y2="236"/><text fill="#000000" font-family="sans-serif" font-size="11" lengthAdjust="spacingAndGlyphs" textLength="52" x="1375" y="250.2104">-String id</text><text fill="#000000" font-family="sans-serif" font-size="11" lengthAdjust="spacingAndGlyphs" textLength="74" x="1375" y="263.0151">-String name</text><text fill="#000000" font-family="sans-serif" font-size="11" lengthAdjust="spacingAndGlyphs" textLength="124" x="1375" y="275.8198">-String expertiseLevel</text><text fill="#000000" font-family="sans-serif" font-size="11" lengthAdjust="spacingAndGlyphs" textLength="73" x="1375" y="288.6245">-String email</text><text fill="#000000" font-family="sans-serif" font-size="11" lengthAdjust="spacingAndGlyphs" textLength="59" x="1375" y="301.4292">-String NIF</text><text fill="#000000" font-family="sans-serif" font-size="11" lengthAdjust="spacingAndGlyphs" textLength="68" x="1375" y="314.2339">-String IBAN</text><text fill="#000000" font-family="sans-serif" font-size="11" lengthAdjust="spacingAndGlyphs" textLength="89" x="1375" y="327.0386">-String address</text><text fill="#000000" font-family="sans-serif" font-size="11" lengthAdjust="spacingAndGlyphs" textLength="84" x="1375" y="339.8433">-String country</text><!--MD5=[b34797a66dc35cbf1d65f7e3ca75530e]
class Task--><rect fill="#FEFECE" filter="url(#f1b59th17y9q7w)" height="104.0234" id="Task" style="stroke: #A80036; stroke-width: 1.5;" width="144" x="1062" y="116"/><ellipse cx="1115.25" cy="132" fill="#ADD1B2" rx="11" ry="11" style="stroke: #A80036; stroke-width: 1.0;"/><path d="M1118.2188,137.6406 Q1117.6406,137.9375 1117,138.0859 Q1116.3594,138.2344 1115.6563,138.2344 Q1113.1563,138.2344 1111.8359,136.5859 Q1110.5156,134.9375 1110.5156,131.8125 Q1110.5156,128.6875 1111.8359,127.0313 Q1113.1563,125.375 1115.6563,125.375 Q1116.3594,125.375 1117.0078,125.5313 Q1117.6563,125.6875 1118.2188,125.9844 L1118.2188,128.7031 Q1117.5938,128.125 1117,127.8516 Q1116.4063,127.5781 1115.7813,127.5781 Q1114.4375,127.5781 1113.75,128.6484 Q1113.0625,129.7188 1113.0625,131.8125 Q1113.0625,133.9063 1113.75,134.9766 Q1114.4375,136.0469 1115.7813,136.0469 Q1116.4063,136.0469 1117,135.7734 Q1117.5938,135.5 1118.2188,134.9219 L1118.2188,137.6406 Z "/><text fill="#000000" font-family="sans-serif" font-size="12" lengthAdjust="spacingAndGlyphs" textLength="29" x="1135.75" y="136.1543">Task</text><line style="stroke: #A80036; stroke-width: 1.5;" x1="1063" x2="1205" y1="148" y2="148"/><text fill="#000000" font-family="sans-serif" font-size="11" lengthAdjust="spacingAndGlyphs" textLength="52" x="1068" y="162.2104">-String id</text><text fill="#000000" font-family="sans-serif" font-size="11" lengthAdjust="spacingAndGlyphs" textLength="132" x="1068" y="175.0151">-String briefDescription</text><text fill="#000000" font-family="sans-serif" font-size="11" lengthAdjust="spacingAndGlyphs" textLength="121" x="1068" y="187.8198">-Integer timeDuration</text><text fill="#000000" font-family="sans-serif" font-size="11" lengthAdjust="spacingAndGlyphs" textLength="117" x="1068" y="200.6245">-Double costPerHour</text><text fill="#000000" font-family="sans-serif" font-size="11" lengthAdjust="spacingAndGlyphs" textLength="117" x="1068" y="213.4292">-String taskCategory</text><!--MD5=[b645a18afb25b7e5623af7186d8eb36f]
class PaymentTransaction--><rect fill="#FEFECE" filter="url(#f1b59th17y9q7w)" height="78.4141" id="PaymentTransaction" style="stroke: #A80036; stroke-width: 1.5;" width="184" x="742" y="236"/><ellipse cx="767.8" cy="252" fill="#ADD1B2" rx="11" ry="11" style="stroke: #A80036; stroke-width: 1.0;"/><path d="M770.7688,257.6406 Q770.1906,257.9375 769.55,258.0859 Q768.9094,258.2344 768.2063,258.2344 Q765.7063,258.2344 764.3859,256.5859 Q763.0656,254.9375 763.0656,251.8125 Q763.0656,248.6875 764.3859,247.0313 Q765.7063,245.375 768.2063,245.375 Q768.9094,245.375 769.5578,245.5313 Q770.2063,245.6875 770.7688,245.9844 L770.7688,248.7031 Q770.1438,248.125 769.55,247.8516 Q768.9563,247.5781 768.3313,247.5781 Q766.9875,247.5781 766.3,248.6484 Q765.6125,249.7188 765.6125,251.8125 Q765.6125,253.9063 766.3,254.9766 Q766.9875,256.0469 768.3313,256.0469 Q768.9563,256.0469 769.55,255.7734 Q770.1438,255.5 770.7688,254.9219 L770.7688,257.6406 Z "/><text fill="#000000" font-family="sans-serif" font-size="12" lengthAdjust="spacingAndGlyphs" textLength="128" x="784.2" y="256.1543">PaymentTransaction</text><line style="stroke: #A80036; stroke-width: 1.5;" x1="743" x2="925" y1="268" y2="268"/><text fill="#000000" font-family="sans-serif" font-size="11" lengthAdjust="spacingAndGlyphs" textLength="81" x="748" y="282.2104">-Date endDate</text><text fill="#000000" font-family="sans-serif" font-size="11" lengthAdjust="spacingAndGlyphs" textLength="77" x="748" y="295.0151">-Double delay</text><text fill="#000000" font-family="sans-serif" font-size="11" lengthAdjust="spacingAndGlyphs" textLength="172" x="748" y="307.8198">-String workQualityDescription</text><!--MD5=[7640e466c042ba2d6f9c19c816f7f0fc]
link Platform to Organization--><path d="M126.1502,82.9309 C175.4865,95.1775 244.7693,112.3754 292.7267,124.2797 " fill="none" id="Platform-Organization" style="stroke: #A80036; stroke-width: 1.0;"/><text fill="#000000" font-family="sans-serif" font-size="13" lengthAdjust="spacingAndGlyphs" textLength="92" x="157" y="87.0669">has registered</text><polygon fill="#000000" points="252,81.0664,258,84.0664,252,87.0664,252,81.0664" style="stroke: #000000; stroke-width: 1.0;"/><text fill="#000000" font-family="sans-serif" font-size="13" lengthAdjust="spacingAndGlyphs" textLength="8" x="133.9685" y="97.7516">1</text><text fill="#000000" font-family="sans-serif" font-size="13" lengthAdjust="spacingAndGlyphs" textLength="7" x="277.829" y="135.5459">*</text><!--MD5=[22697d4d863c2e08ab1d60ca0d61f844]
link Platform to Freelancer--><path d="M126.1065,53.4422 C182.9251,40.9675 270.7422,25 348,25 C348,25 348,25 1134,25 C1247.0386,25 1340.7203,129.8014 1392.7244,203.6946 " fill="none" id="Platform-Freelancer" style="stroke: #A80036; stroke-width: 1.0;"/><text fill="#000000" font-family="sans-serif" font-size="13" lengthAdjust="spacingAndGlyphs" textLength="57" x="641" y="21.0669">has/uses</text><polygon fill="#000000" points="701,15.0664,707,18.0664,701,21.0664,701,15.0664" style="stroke: #000000; stroke-width: 1.0;"/><text fill="#000000" font-family="sans-serif" font-size="13" lengthAdjust="spacingAndGlyphs" textLength="8" x="133.9195" y="64.6689">1</text><text fill="#000000" font-family="sans-serif" font-size="13" lengthAdjust="spacingAndGlyphs" textLength="7" x="1381.0215" y="192.9891">*</text><!--MD5=[45817597bcd7048073a670d966abfd17]
link Organization to Collaborator--><path d="M384.3812,171.1534 C398.9772,183.7054 416.2808,197.6831 433,209 C454.306,223.4216 479.0857,237.2665 500.7614,248.5186 " fill="none" id="Organization-Collaborator" style="stroke: #A80036; stroke-width: 1.0;"/><text fill="#000000" font-family="sans-serif" font-size="13" lengthAdjust="spacingAndGlyphs" textLength="23" x="434" y="205.0669">has</text><polygon fill="#000000" points="460,199.0664,466,202.0664,460,205.0664,460,199.0664" style="stroke: #000000; stroke-width: 1.0;"/><text fill="#000000" font-family="sans-serif" font-size="13" lengthAdjust="spacingAndGlyphs" textLength="8" x="382.3515" y="190.764">1</text><text fill="#000000" font-family="sans-serif" font-size="13" lengthAdjust="spacingAndGlyphs" textLength="8" x="484.8684" y="258.07">1</text><!--MD5=[4078351e3988aa35b1504a42837f2ab1]
link Organization to Task--><path d="M403.1081,139.2747 C424.3298,139.7837 448.7934,140.3927 471,141 C720.3546,147.8189 783.0631,142.0437 1032,158 C1041.6775,158.6203 1051.8573,159.4297 1061.8871,160.3196 " fill="none" id="Organization-Task" style="stroke: #A80036; stroke-width: 1.0;"/><text fill="#000000" font-family="sans-serif" font-size="13" lengthAdjust="spacingAndGlyphs" textLength="23" x="658" y="141.0669">has</text><polygon fill="#000000" points="684,135.0664,690,138.0664,684,141.0664,684,135.0664" style="stroke: #000000; stroke-width: 1.0;"/><text fill="#000000" font-family="sans-serif" font-size="13" lengthAdjust="spacingAndGlyphs" textLength="8" x="411.0508" y="135.5402">1</text><text fill="#000000" font-family="sans-serif" font-size="13" lengthAdjust="spacingAndGlyphs" textLength="7" x="1047.0895" y="172.3735">*</text><!--MD5=[da2d560b3f89d8c66478284968d27dfa]
link Organization to PaymentTransaction--><path d="M403.2772,153.5823 C485.7509,176.831 641.989,220.8735 741.899,249.0374 " fill="none" id="Organization-PaymentTransaction" style="stroke: #A80036; stroke-width: 1.0;"/><text fill="#000000" font-family="sans-serif" font-size="13" lengthAdjust="spacingAndGlyphs" textLength="23" x="537.5" y="178.0669">has</text><polygon fill="#000000" points="563.5,172.0664,569.5,175.0664,563.5,178.0664,563.5,172.0664" style="stroke: #000000; stroke-width: 1.0;"/><text fill="#000000" font-family="sans-serif" font-size="13" lengthAdjust="spacingAndGlyphs" textLength="8" x="410.8721" y="168.6401">1</text><text fill="#000000" font-family="sans-serif" font-size="13" lengthAdjust="spacingAndGlyphs" textLength="7" x="726.982" y="259.5637">*</text><!--MD5=[04ce0ecdab38a3951889ff50c232570f]
link Collaborator to User--><path d="M586.6963,308.3788 C634.8273,356.0666 732.3179,438 834,438 C834,438 834,438 1437,438 C1504.2885,438 1581.0899,427.5056 1631.6088,419.1428 " fill="none" id="Collaborator-User" style="stroke: #A80036; stroke-width: 1.0;"/><text fill="#000000" font-family="sans-serif" font-size="13" lengthAdjust="spacingAndGlyphs" textLength="52" x="1101.5" y="434.0669">acts like</text><polygon fill="#000000" points="1156.5,428.0664,1162.5,431.0664,1156.5,434.0664,1156.5,428.0664" style="stroke: #000000; stroke-width: 1.0;"/><text fill="#000000" font-family="sans-serif" font-size="13" lengthAdjust="spacingAndGlyphs" textLength="24" x="566.1156" y="327.7738">0..1</text><text fill="#000000" font-family="sans-serif" font-size="13" lengthAdjust="spacingAndGlyphs" textLength="8" x="1615.9993" y="433.5037">1</text><!--MD5=[65ab54bb4516ebbc699d18e0b28e9aea]
link Freelancer to User--><path d="M1505.3136,311.6161 C1545.0706,332.9259 1594.534,359.4382 1631.8076,379.4169 " fill="none" id="Freelancer-User" style="stroke: #A80036; stroke-width: 1.0;"/><text fill="#000000" font-family="sans-serif" font-size="13" lengthAdjust="spacingAndGlyphs" textLength="52" x="1536" y="326.0669">acts like</text><polygon fill="#000000" points="1591,320.0664,1597,323.0664,1591,326.0664,1591,320.0664" style="stroke: #000000; stroke-width: 1.0;"/><text fill="#000000" font-family="sans-serif" font-size="13" lengthAdjust="spacingAndGlyphs" textLength="24" x="1512.9685" y="327.8733">0..1</text><text fill="#000000" font-family="sans-serif" font-size="13" lengthAdjust="spacingAndGlyphs" textLength="8" x="1615.8536" y="388.5515">1</text><!--MD5=[d2c3650dbd07e79cdad2ffd4a879dec6]
link Collaborator to Freelancer--><path d="M610.0339,295.9737 C646.719,308.9309 696.5112,324.3179 742,331 C970.1533,364.5145 1243.6033,317.1402 1368.5969,290.704 " fill="none" id="Collaborator-Freelancer" style="stroke: #A80036; stroke-width: 1.0;"/><text fill="#000000" font-family="sans-serif" font-size="13" lengthAdjust="spacingAndGlyphs" textLength="41" x="967" y="335.0669">create</text><polygon fill="#000000" points="1011,329.0664,1017,332.0664,1011,335.0664,1011,329.0664" style="stroke: #000000; stroke-width: 1.0;"/><text fill="#000000" font-family="sans-serif" font-size="13" lengthAdjust="spacingAndGlyphs" textLength="8" x="617.8994" y="311.9019">1</text><text fill="#000000" font-family="sans-serif" font-size="13" lengthAdjust="spacingAndGlyphs" textLength="7" x="1354.1819" y="305.1481">*</text><!--MD5=[f919d21ae7a75ef5ececc535e09d5009]
link Collaborator to Task--><path d="M610.385,255.7313 C647.2183,243.4208 697.0438,227.9562 742,218 C835.7691,197.2335 860.7152,200.0296 956,188 C990.7089,183.618 1029.2871,179.225 1061.6309,175.6769 " fill="none" id="Collaborator-Task" style="stroke: #A80036; stroke-width: 1.0;"/><text fill="#000000" font-family="sans-serif" font-size="13" lengthAdjust="spacingAndGlyphs" textLength="41" x="807" y="188.0669">create</text><polygon fill="#000000" points="851,182.0664,857,185.0664,851,188.0664,851,182.0664" style="stroke: #000000; stroke-width: 1.0;"/><text fill="#000000" font-family="sans-serif" font-size="13" lengthAdjust="spacingAndGlyphs" textLength="8" x="617.9296" y="266.3239">1</text><text fill="#000000" font-family="sans-serif" font-size="13" lengthAdjust="spacingAndGlyphs" textLength="7" x="1046.8069" y="189.3146">*</text><!--MD5=[c32d3c60a61e5638fef4971a1b3a8306]
link Collaborator to PaymentTransaction--><path d="M610.1903,275 C647.6546,275 698.2614,275 741.8757,275 " fill="none" id="Collaborator-PaymentTransaction" style="stroke: #A80036; stroke-width: 1.0;"/><text fill="#000000" font-family="sans-serif" font-size="13" lengthAdjust="spacingAndGlyphs" textLength="41" x="649" y="271.0669">create</text><polygon fill="#000000" points="693,265.0664,699,268.0664,693,271.0664,693,265.0664" style="stroke: #000000; stroke-width: 1.0;"/><text fill="#000000" font-family="sans-serif" font-size="13" lengthAdjust="spacingAndGlyphs" textLength="8" x="618.0768" y="288.1099">1</text><text fill="#000000" font-family="sans-serif" font-size="13" lengthAdjust="spacingAndGlyphs" textLength="7" x="726.9568" y="287.6763">*</text><!--MD5=[f6802b286771c18a16ea4be983074371]
link PaymentTransaction to Freelancer--><path d="M926.2391,275 C1048.144,275 1260.1116,275 1368.6584,275 " fill="none" id="PaymentTransaction-Freelancer" style="stroke: #A80036; stroke-width: 1.0;"/><text fill="#000000" font-family="sans-serif" font-size="13" lengthAdjust="spacingAndGlyphs" textLength="61" x="1097" y="271.0669">relates to</text><polygon fill="#000000" points="1161,265.0664,1167,268.0664,1161,271.0664,1161,265.0664" style="stroke: #000000; stroke-width: 1.0;"/><text fill="#000000" font-family="sans-serif" font-size="13" lengthAdjust="spacingAndGlyphs" textLength="8" x="933.9082" y="287.6533">1</text><text fill="#000000" font-family="sans-serif" font-size="13" lengthAdjust="spacingAndGlyphs" textLength="8" x="1353.1982" y="287.8246">1</text><!--MD5=[271ce7fefd7250ebaca83b70495774bd]
link PaymentTransaction to Task--><path d="M926.0788,245.5891 C959.5808,234.5513 997.6468,221.6168 1032,209 C1041.6743,205.447 1051.8057,201.5686 1061.7709,197.6602 " fill="none" id="PaymentTransaction-Task" style="stroke: #A80036; stroke-width: 1.0;"/><text fill="#000000" font-family="sans-serif" font-size="13" lengthAdjust="spacingAndGlyphs" textLength="61" x="957" y="205.0669">relates to</text><polygon fill="#000000" points="1021,199.0664,1027,202.0664,1021,205.0664,1021,199.0664" style="stroke: #000000; stroke-width: 1.0;"/><text fill="#000000" font-family="sans-serif" font-size="13" lengthAdjust="spacingAndGlyphs" textLength="8" x="934.0353" y="255.8299">1</text><text fill="#000000" font-family="sans-serif" font-size="13" lengthAdjust="spacingAndGlyphs" textLength="8" x="1045.9098" y="213.5649">1</text><!--MD5=[8853e9d83a8841c20c4ef075af762602]
link Task to Freelancer--><path d="M1206.1911,193.4932 C1255.5527,210.9246 1320.5576,233.8801 1368.9994,250.9866 " fill="none" id="Task-Freelancer" style="stroke: #A80036; stroke-width: 1.0;"/><text fill="#000000" font-family="sans-serif" font-size="13" lengthAdjust="spacingAndGlyphs" textLength="88" x="1237" y="202.0669">is assigned to</text><polygon fill="#000000" points="1328,196.0664,1334,199.0664,1328,202.0664,1328,196.0664" style="stroke: #000000; stroke-width: 1.0;"/><text fill="#000000" font-family="sans-serif" font-size="13" lengthAdjust="spacingAndGlyphs" textLength="23" x="1213.9064" y="208.6067">1..*</text><text fill="#000000" font-family="sans-serif" font-size="13" lengthAdjust="spacingAndGlyphs" textLength="8" x="1353.1243" y="261.2307">1</text><!--MD5=[b49e5a3b2370a365b084e3a2357cf755]
@startuml
skinparam classAttributeIconSize 0
hide methods
left to right direction

class Platform {
  -String designation
}

class Organization {
  -String name
  -String NIF
}

class Collaborator {
  -String name
  -String email
}


class User {
  -String email
  -String password
}

class Freelancer {
  -String id
  -String name
  -String expertiseLevel
  -String email
  -String NIF
  -String IBAN
  -String address
  -String country
  }

class Task {
 -String id
 -String briefDescription
 -Integer timeDuration
 -Double costPerHour
 -String taskCategory
}

class PaymentTransaction{
  -Date endDate
  -Double delay
  -String workQualityDescription
}

Platform "1" - - "*" Organization : has registered >
Platform "1" - - "*" Freelancer : has/uses >
Organization "1" - - "1" Collaborator: has >
Organization "1" - - "*" Task: has >
Organization "1" - - "*" PaymentTransaction: has >
Collaborator "0..1" - - "1" User: acts like >
Freelancer "0..1" - - "1" User: acts like >
Collaborator "1" - - "*" Freelancer: create >
Collaborator "1" - - "*" Task: create >
Collaborator "1" - - "*" PaymentTransaction: create >
PaymentTransaction "1" - - "1" Freelancer: relates to >
PaymentTransaction "1" - - "1" Task: relates to >
Task "1..*" - - "1" Freelancer: is assigned to >
@enduml

PlantUML version 1.2019.12(Sun Nov 03 10:24:54 UTC 2019)
(GPL source distribution)
Java Runtime: OpenJDK Runtime Environment
JVM: OpenJDK 64-Bit Server VM
Java Version: 1.8.0_232-heroku-b09
Operating System: Linux
Default Encoding: UTF-8
Language: en
Country: US
--></g></svg>