<?xml version="1.0" encoding="UTF-8" standalone="no"?><svg xmlns="http://www.w3.org/2000/svg" xmlns:xlink="http://www.w3.org/1999/xlink" contentScriptType="application/ecmascript" contentStyleType="text/css" height="443px" preserveAspectRatio="none" style="width:1551px;height:443px;" version="1.1" viewBox="0 0 1551 443" width="1551px" zoomAndPan="magnify"><defs><filter height="300%" id="fczcrkif8qkgj" width="300%" x="-1" y="-1"><feGaussianBlur result="blurOut" stdDeviation="2.0"/><feColorMatrix in="blurOut" result="blurOut2" type="matrix" values="0 0 0 0 0 0 0 0 0 0 0 0 0 0 0 0 0 0 .4 0"/><feOffset dx="4.0" dy="4.0" in="blurOut2" result="blurOut3"/><feBlend in="SourceGraphic" in2="blurOut3" mode="normal"/></filter></defs><g><!--MD5=[99b8db98afdc2c8404e39242ef4c1e65]
class Platform--><rect fill="#FEFECE" filter="url(#fczcrkif8qkgj)" height="52.8047" id="Platform" style="stroke: #A80036; stroke-width: 1.5;" width="120" x="6" y="339.5"/><ellipse cx="37.2" cy="355.5" fill="#ADD1B2" rx="11" ry="11" style="stroke: #A80036; stroke-width: 1.0;"/><path d="M40.1688,361.1406 Q39.5906,361.4375 38.95,361.5859 Q38.3094,361.7344 37.6063,361.7344 Q35.1063,361.7344 33.7859,360.0859 Q32.4656,358.4375 32.4656,355.3125 Q32.4656,352.1875 33.7859,350.5313 Q35.1063,348.875 37.6063,348.875 Q38.3094,348.875 38.9578,349.0313 Q39.6063,349.1875 40.1688,349.4844 L40.1688,352.2031 Q39.5438,351.625 38.95,351.3516 Q38.3563,351.0781 37.7313,351.0781 Q36.3875,351.0781 35.7,352.1484 Q35.0125,353.2188 35.0125,355.3125 Q35.0125,357.4063 35.7,358.4766 Q36.3875,359.5469 37.7313,359.5469 Q38.3563,359.5469 38.95,359.2734 Q39.5438,359 40.1688,358.4219 L40.1688,361.1406 Z "/><text fill="#000000" font-family="sans-serif" font-size="12" lengthAdjust="spacingAndGlyphs" textLength="52" x="54.8" y="359.6543">Platform</text><line style="stroke: #A80036; stroke-width: 1.5;" x1="7" x2="125" y1="371.5" y2="371.5"/><text fill="#000000" font-family="sans-serif" font-size="11" lengthAdjust="spacingAndGlyphs" textLength="108" x="12" y="385.7104">-String designation</text><!--MD5=[86c7c362de55a38b660185a1328fe18d]
class Organization--><rect fill="#FEFECE" filter="url(#fczcrkif8qkgj)" height="52.8047" id="Organization" style="stroke: #A80036; stroke-width: 1.5;" width="110" x="293" y="78.5"/><ellipse cx="308" cy="94.5" fill="#ADD1B2" rx="11" ry="11" style="stroke: #A80036; stroke-width: 1.0;"/><path d="M310.9688,100.1406 Q310.3906,100.4375 309.75,100.5859 Q309.1094,100.7344 308.4063,100.7344 Q305.9063,100.7344 304.5859,99.0859 Q303.2656,97.4375 303.2656,94.3125 Q303.2656,91.1875 304.5859,89.5313 Q305.9063,87.875 308.4063,87.875 Q309.1094,87.875 309.7578,88.0313 Q310.4063,88.1875 310.9688,88.4844 L310.9688,91.2031 Q310.3438,90.625 309.75,90.3516 Q309.1563,90.0781 308.5313,90.0781 Q307.1875,90.0781 306.5,91.1484 Q305.8125,92.2188 305.8125,94.3125 Q305.8125,96.4063 306.5,97.4766 Q307.1875,98.5469 308.5313,98.5469 Q309.1563,98.5469 309.75,98.2734 Q310.3438,98 310.9688,97.4219 L310.9688,100.1406 Z "/><text fill="#000000" font-family="sans-serif" font-size="12" lengthAdjust="spacingAndGlyphs" textLength="78" x="322" y="98.6543">Organization</text><line style="stroke: #A80036; stroke-width: 1.5;" x1="294" x2="402" y1="110.5" y2="110.5"/><text fill="#000000" font-family="sans-serif" font-size="11" lengthAdjust="spacingAndGlyphs" textLength="74" x="299" y="124.7104">-String name</text><!--MD5=[f483d6e5de34a60207b28a5563be5e8b]
class Collaborator--><rect fill="#FEFECE" filter="url(#fczcrkif8qkgj)" height="65.6094" id="Collaborator" style="stroke: #A80036; stroke-width: 1.5;" width="109" x="563" y="129"/><ellipse cx="578" cy="145" fill="#ADD1B2" rx="11" ry="11" style="stroke: #A80036; stroke-width: 1.0;"/><path d="M580.9688,150.6406 Q580.3906,150.9375 579.75,151.0859 Q579.1094,151.2344 578.4063,151.2344 Q575.9063,151.2344 574.5859,149.5859 Q573.2656,147.9375 573.2656,144.8125 Q573.2656,141.6875 574.5859,140.0313 Q575.9063,138.375 578.4063,138.375 Q579.1094,138.375 579.7578,138.5313 Q580.4063,138.6875 580.9688,138.9844 L580.9688,141.7031 Q580.3438,141.125 579.75,140.8516 Q579.1563,140.5781 578.5313,140.5781 Q577.1875,140.5781 576.5,141.6484 Q575.8125,142.7188 575.8125,144.8125 Q575.8125,146.9063 576.5,147.9766 Q577.1875,149.0469 578.5313,149.0469 Q579.1563,149.0469 579.75,148.7734 Q580.3438,148.5 580.9688,147.9219 L580.9688,150.6406 Z "/><text fill="#000000" font-family="sans-serif" font-size="12" lengthAdjust="spacingAndGlyphs" textLength="77" x="592" y="149.1543">Collaborator</text><line style="stroke: #A80036; stroke-width: 1.5;" x1="564" x2="671" y1="161" y2="161"/><text fill="#000000" font-family="sans-serif" font-size="11" lengthAdjust="spacingAndGlyphs" textLength="74" x="569" y="175.2104">-String name</text><text fill="#000000" font-family="sans-serif" font-size="11" lengthAdjust="spacingAndGlyphs" textLength="73" x="569" y="188.0151">-String email</text><!--MD5=[3fd616f346a44cd59a91eb10b19e157c]
class User--><rect fill="#FEFECE" filter="url(#fczcrkif8qkgj)" height="65.6094" id="User" style="stroke: #A80036; stroke-width: 1.5;" width="110" x="1393" y="224"/><ellipse cx="1430.05" cy="240" fill="#ADD1B2" rx="11" ry="11" style="stroke: #A80036; stroke-width: 1.0;"/><path d="M1433.0188,245.6406 Q1432.4406,245.9375 1431.8,246.0859 Q1431.1594,246.2344 1430.4563,246.2344 Q1427.9563,246.2344 1426.6359,244.5859 Q1425.3156,242.9375 1425.3156,239.8125 Q1425.3156,236.6875 1426.6359,235.0313 Q1427.9563,233.375 1430.4563,233.375 Q1431.1594,233.375 1431.8078,233.5313 Q1432.4563,233.6875 1433.0188,233.9844 L1433.0188,236.7031 Q1432.3938,236.125 1431.8,235.8516 Q1431.2063,235.5781 1430.5813,235.5781 Q1429.2375,235.5781 1428.55,236.6484 Q1427.8625,237.7188 1427.8625,239.8125 Q1427.8625,241.9063 1428.55,242.9766 Q1429.2375,244.0469 1430.5813,244.0469 Q1431.2063,244.0469 1431.8,243.7734 Q1432.3938,243.5 1433.0188,242.9219 L1433.0188,245.6406 Z "/><text fill="#000000" font-family="sans-serif" font-size="12" lengthAdjust="spacingAndGlyphs" textLength="29" x="1448.95" y="244.1543">User</text><line style="stroke: #A80036; stroke-width: 1.5;" x1="1394" x2="1502" y1="256" y2="256"/><text fill="#000000" font-family="sans-serif" font-size="11" lengthAdjust="spacingAndGlyphs" textLength="73" x="1399" y="270.2104">-String email</text><text fill="#000000" font-family="sans-serif" font-size="11" lengthAdjust="spacingAndGlyphs" textLength="98" x="1399" y="283.0151">-String password</text><!--MD5=[1f687b5315377fe49fca59b457947463]
class Freelancer--><rect fill="#FEFECE" filter="url(#fczcrkif8qkgj)" height="142.4375" id="Freelancer" style="stroke: #A80036; stroke-width: 1.5;" width="136" x="1089" y="290"/><ellipse cx="1120.65" cy="306" fill="#ADD1B2" rx="11" ry="11" style="stroke: #A80036; stroke-width: 1.0;"/><path d="M1123.6188,311.6406 Q1123.0406,311.9375 1122.4,312.0859 Q1121.7594,312.2344 1121.0563,312.2344 Q1118.5563,312.2344 1117.2359,310.5859 Q1115.9156,308.9375 1115.9156,305.8125 Q1115.9156,302.6875 1117.2359,301.0313 Q1118.5563,299.375 1121.0563,299.375 Q1121.7594,299.375 1122.4078,299.5313 Q1123.0563,299.6875 1123.6188,299.9844 L1123.6188,302.7031 Q1122.9938,302.125 1122.4,301.8516 Q1121.8063,301.5781 1121.1813,301.5781 Q1119.8375,301.5781 1119.15,302.6484 Q1118.4625,303.7188 1118.4625,305.8125 Q1118.4625,307.9063 1119.15,308.9766 Q1119.8375,310.0469 1121.1813,310.0469 Q1121.8063,310.0469 1122.4,309.7734 Q1122.9938,309.5 1123.6188,308.9219 L1123.6188,311.6406 Z "/><text fill="#000000" font-family="sans-serif" font-size="12" lengthAdjust="spacingAndGlyphs" textLength="67" x="1138.35" y="310.1543">Freelancer</text><line style="stroke: #A80036; stroke-width: 1.5;" x1="1090" x2="1224" y1="322" y2="322"/><text fill="#000000" font-family="sans-serif" font-size="11" lengthAdjust="spacingAndGlyphs" textLength="52" x="1095" y="336.2104">-String id</text><text fill="#000000" font-family="sans-serif" font-size="11" lengthAdjust="spacingAndGlyphs" textLength="74" x="1095" y="349.0151">-String name</text><text fill="#000000" font-family="sans-serif" font-size="11" lengthAdjust="spacingAndGlyphs" textLength="124" x="1095" y="361.8198">-String expertiseLevel</text><text fill="#000000" font-family="sans-serif" font-size="11" lengthAdjust="spacingAndGlyphs" textLength="73" x="1095" y="374.6245">-String email</text><text fill="#000000" font-family="sans-serif" font-size="11" lengthAdjust="spacingAndGlyphs" textLength="59" x="1095" y="387.4292">-String NIF</text><text fill="#000000" font-family="sans-serif" font-size="11" lengthAdjust="spacingAndGlyphs" textLength="68" x="1095" y="400.2339">-String IBAN</text><text fill="#000000" font-family="sans-serif" font-size="11" lengthAdjust="spacingAndGlyphs" textLength="89" x="1095" y="413.0386">-String address</text><text fill="#000000" font-family="sans-serif" font-size="11" lengthAdjust="spacingAndGlyphs" textLength="84" x="1095" y="425.8433">-String country</text><!--MD5=[b34797a66dc35cbf1d65f7e3ca75530e]
class Task--><rect fill="#FEFECE" filter="url(#fczcrkif8qkgj)" height="104.0234" id="Task" style="stroke: #A80036; stroke-width: 1.5;" width="144" x="1085" y="8"/><ellipse cx="1138.25" cy="24" fill="#ADD1B2" rx="11" ry="11" style="stroke: #A80036; stroke-width: 1.0;"/><path d="M1141.2188,29.6406 Q1140.6406,29.9375 1140,30.0859 Q1139.3594,30.2344 1138.6563,30.2344 Q1136.1563,30.2344 1134.8359,28.5859 Q1133.5156,26.9375 1133.5156,23.8125 Q1133.5156,20.6875 1134.8359,19.0313 Q1136.1563,17.375 1138.6563,17.375 Q1139.3594,17.375 1140.0078,17.5313 Q1140.6563,17.6875 1141.2188,17.9844 L1141.2188,20.7031 Q1140.5938,20.125 1140,19.8516 Q1139.4063,19.5781 1138.7813,19.5781 Q1137.4375,19.5781 1136.75,20.6484 Q1136.0625,21.7188 1136.0625,23.8125 Q1136.0625,25.9063 1136.75,26.9766 Q1137.4375,28.0469 1138.7813,28.0469 Q1139.4063,28.0469 1140,27.7734 Q1140.5938,27.5 1141.2188,26.9219 L1141.2188,29.6406 Z "/><text fill="#000000" font-family="sans-serif" font-size="12" lengthAdjust="spacingAndGlyphs" textLength="29" x="1158.75" y="28.1543">Task</text><line style="stroke: #A80036; stroke-width: 1.5;" x1="1086" x2="1228" y1="40" y2="40"/><text fill="#000000" font-family="sans-serif" font-size="11" lengthAdjust="spacingAndGlyphs" textLength="52" x="1091" y="54.2104">-String id</text><text fill="#000000" font-family="sans-serif" font-size="11" lengthAdjust="spacingAndGlyphs" textLength="132" x="1091" y="67.0151">-String briefDescription</text><text fill="#000000" font-family="sans-serif" font-size="11" lengthAdjust="spacingAndGlyphs" textLength="121" x="1091" y="79.8198">-Integer timeDuration</text><text fill="#000000" font-family="sans-serif" font-size="11" lengthAdjust="spacingAndGlyphs" textLength="117" x="1091" y="92.6245">-Double costPerHour</text><text fill="#000000" font-family="sans-serif" font-size="11" lengthAdjust="spacingAndGlyphs" textLength="117" x="1091" y="105.4292">-String taskCategory</text><!--MD5=[2d4bd993d7f34e98247133ea7481e7ba]
class taskExecution--><rect fill="#FEFECE" filter="url(#fczcrkif8qkgj)" height="78.4141" id="taskExecution" style="stroke: #A80036; stroke-width: 1.5;" width="184" x="1356" y="21"/><ellipse cx="1399.8" cy="37" fill="#ADD1B2" rx="11" ry="11" style="stroke: #A80036; stroke-width: 1.0;"/><path d="M1402.7688,42.6406 Q1402.1906,42.9375 1401.55,43.0859 Q1400.9094,43.2344 1400.2063,43.2344 Q1397.7063,43.2344 1396.3859,41.5859 Q1395.0656,39.9375 1395.0656,36.8125 Q1395.0656,33.6875 1396.3859,32.0313 Q1397.7063,30.375 1400.2063,30.375 Q1400.9094,30.375 1401.5578,30.5313 Q1402.2063,30.6875 1402.7688,30.9844 L1402.7688,33.7031 Q1402.1438,33.125 1401.55,32.8516 Q1400.9563,32.5781 1400.3313,32.5781 Q1398.9875,32.5781 1398.3,33.6484 Q1397.6125,34.7188 1397.6125,36.8125 Q1397.6125,38.9063 1398.3,39.9766 Q1398.9875,41.0469 1400.3313,41.0469 Q1400.9563,41.0469 1401.55,40.7734 Q1402.1438,40.5 1402.7688,39.9219 L1402.7688,42.6406 Z "/><text fill="#000000" font-family="sans-serif" font-size="12" lengthAdjust="spacingAndGlyphs" textLength="88" x="1420.2" y="41.1543">taskExecution</text><line style="stroke: #A80036; stroke-width: 1.5;" x1="1357" x2="1539" y1="53" y2="53"/><text fill="#000000" font-family="sans-serif" font-size="11" lengthAdjust="spacingAndGlyphs" textLength="81" x="1362" y="67.2104">-Date endDate</text><text fill="#000000" font-family="sans-serif" font-size="11" lengthAdjust="spacingAndGlyphs" textLength="77" x="1362" y="80.0151">-Double delay</text><text fill="#000000" font-family="sans-serif" font-size="11" lengthAdjust="spacingAndGlyphs" textLength="172" x="1362" y="92.8198">-String workQualityDescription</text><!--MD5=[b645a18afb25b7e5623af7186d8eb36f]
class PaymentTransaction--><rect fill="#FEFECE" filter="url(#fczcrkif8qkgj)" height="52.8047" id="PaymentTransaction" style="stroke: #A80036; stroke-width: 1.5;" width="160" x="788" y="130.5"/><ellipse cx="803" cy="146.5" fill="#ADD1B2" rx="11" ry="11" style="stroke: #A80036; stroke-width: 1.0;"/><path d="M805.9688,152.1406 Q805.3906,152.4375 804.75,152.5859 Q804.1094,152.7344 803.4063,152.7344 Q800.9063,152.7344 799.5859,151.0859 Q798.2656,149.4375 798.2656,146.3125 Q798.2656,143.1875 799.5859,141.5313 Q800.9063,139.875 803.4063,139.875 Q804.1094,139.875 804.7578,140.0313 Q805.4063,140.1875 805.9688,140.4844 L805.9688,143.2031 Q805.3438,142.625 804.75,142.3516 Q804.1563,142.0781 803.5313,142.0781 Q802.1875,142.0781 801.5,143.1484 Q800.8125,144.2188 800.8125,146.3125 Q800.8125,148.4063 801.5,149.4766 Q802.1875,150.5469 803.5313,150.5469 Q804.1563,150.5469 804.75,150.2734 Q805.3438,150 805.9688,149.4219 L805.9688,152.1406 Z "/><text fill="#000000" font-family="sans-serif" font-size="12" lengthAdjust="spacingAndGlyphs" textLength="128" x="817" y="150.6543">PaymentTransaction</text><line style="stroke: #A80036; stroke-width: 1.5;" x1="789" x2="947" y1="162.5" y2="162.5"/><text fill="#000000" font-family="sans-serif" font-size="11" lengthAdjust="spacingAndGlyphs" textLength="110" x="794" y="176.7104">-Double payAmount</text><!--MD5=[7640e466c042ba2d6f9c19c816f7f0fc]
link Platform to Organization--><path d="M94.8537,339.295 C148.8983,289.275 264.8023,182.0021 318.9763,131.8623 " fill="none" id="Platform-Organization" style="stroke: #A80036; stroke-width: 1.0;"/><text fill="#000000" font-family="sans-serif" font-size="13" lengthAdjust="spacingAndGlyphs" textLength="92" x="157" y="185.0669">has registered</text><polygon fill="#000000" points="252,179.0664,258,182.0664,252,185.0664,252,179.0664" style="stroke: #000000; stroke-width: 1.0;"/><text fill="#000000" font-family="sans-serif" font-size="13" lengthAdjust="spacingAndGlyphs" textLength="8" x="92.6011" y="328.4899">1</text><text fill="#000000" font-family="sans-serif" font-size="13" lengthAdjust="spacingAndGlyphs" textLength="7" x="304.8617" y="151.4818">*</text><!--MD5=[22697d4d863c2e08ab1d60ca0d61f844]
link Platform to Freelancer--><path d="M126.0526,375.7776 C183.0182,384.1967 271.0992,395 348,395 C348,395 348,395 868,395 C944.0321,395 1030.5499,383.2491 1088.9467,373.5637 " fill="none" id="Platform-Freelancer" style="stroke: #A80036; stroke-width: 1.0;"/><text fill="#000000" font-family="sans-serif" font-size="13" lengthAdjust="spacingAndGlyphs" textLength="57" x="582.5" y="391.0669">has/uses</text><polygon fill="#000000" points="642.5,385.0664,648.5,388.0664,642.5,391.0664,642.5,385.0664" style="stroke: #000000; stroke-width: 1.0;"/><text fill="#000000" font-family="sans-serif" font-size="13" lengthAdjust="spacingAndGlyphs" textLength="8" x="133.859" y="389.9702">1</text><text fill="#000000" font-family="sans-serif" font-size="13" lengthAdjust="spacingAndGlyphs" textLength="7" x="1074.1206" y="387.8084">*</text><!--MD5=[45817597bcd7048073a670d966abfd17]
link Organization to Collaborator--><path d="M403.0525,116.5739 C439.8467,124.3171 489.3292,134.7455 533,144 C542.6845,146.0523 552.9919,148.2428 562.9573,150.3638 " fill="none" id="Organization-Collaborator" style="stroke: #A80036; stroke-width: 1.0;"/><text fill="#000000" font-family="sans-serif" font-size="13" lengthAdjust="spacingAndGlyphs" textLength="23" x="465" y="119.0669">has</text><polygon fill="#000000" points="491,113.0664,497,116.0664,491,119.0664,491,113.0664" style="stroke: #000000; stroke-width: 1.0;"/><text fill="#000000" font-family="sans-serif" font-size="13" lengthAdjust="spacingAndGlyphs" textLength="8" x="410.9877" y="131.2259">1</text><text fill="#000000" font-family="sans-serif" font-size="13" lengthAdjust="spacingAndGlyphs" textLength="8" x="547.0906" y="161.9101">1</text><!--MD5=[45817597bcd7048073a670d966abfd17]
link Organization to Collaborator--><path d="M374.0496,131.7078 C389.658,145.7514 410.7511,161.5605 433,169 C474.9518,183.0277 525.2878,179.8977 562.7782,174.0318 " fill="none" id="Organization-Collaborator-1" style="stroke: #A80036; stroke-width: 1.0;"/><text fill="#000000" font-family="sans-serif" font-size="13" lengthAdjust="spacingAndGlyphs" textLength="85" x="434" y="165.0669">has manager</text><polygon fill="#000000" points="522,159.0664,528,162.0664,522,165.0664,522,159.0664" style="stroke: #000000; stroke-width: 1.0;"/><text fill="#000000" font-family="sans-serif" font-size="13" lengthAdjust="spacingAndGlyphs" textLength="8" x="370.873" y="151.2935">1</text><text fill="#000000" font-family="sans-serif" font-size="13" lengthAdjust="spacingAndGlyphs" textLength="8" x="546.8875" y="188.7584">1</text><!--MD5=[4078351e3988aa35b1504a42837f2ab1]
link Organization to Task--><path d="M403.3398,78.9659 C413.04,75.3475 423.1764,72.1407 433,70 C669.8437,18.3884 735.643,53.6675 978,49 C1012.2159,48.341 1020.8271,47.1627 1055,49 C1064.693,49.5212 1074.8818,50.319 1084.916,51.252 " fill="none" id="Organization-Task" style="stroke: #A80036; stroke-width: 1.0;"/><text fill="#000000" font-family="sans-serif" font-size="13" lengthAdjust="spacingAndGlyphs" textLength="23" x="712" y="38.0669">has</text><polygon fill="#000000" points="738,32.0664,744,35.0664,738,38.0664,738,32.0664" style="stroke: #000000; stroke-width: 1.0;"/><text fill="#000000" font-family="sans-serif" font-size="13" lengthAdjust="spacingAndGlyphs" textLength="8" x="410.9427" y="88.6791">1</text><text fill="#000000" font-family="sans-serif" font-size="13" lengthAdjust="spacingAndGlyphs" textLength="7" x="1070.1214" y="63.1958">*</text><!--MD5=[da2d560b3f89d8c66478284968d27dfa]
link Organization to PaymentTransaction--><path d="M403.2843,99.7848 C413.1708,99.0411 423.3836,98.3953 433,98 C539.3145,93.6297 567.0066,94.7296 672,112 C710.4119,118.3184 752.5449,127.6694 787.8707,136.2128 " fill="none" id="Organization-PaymentTransaction" style="stroke: #A80036; stroke-width: 1.0;"/><text fill="#000000" font-family="sans-serif" font-size="13" lengthAdjust="spacingAndGlyphs" textLength="23" x="599.5" y="93.0669">has</text><polygon fill="#000000" points="625.5,87.0664,631.5,90.0664,625.5,93.0664,625.5,87.0664" style="stroke: #000000; stroke-width: 1.0;"/><text fill="#000000" font-family="sans-serif" font-size="13" lengthAdjust="spacingAndGlyphs" textLength="8" x="410.8801" y="112.1655">1</text><text fill="#000000" font-family="sans-serif" font-size="13" lengthAdjust="spacingAndGlyphs" textLength="7" x="772.8998" y="147.0289">*</text><!--MD5=[04ce0ecdab38a3951889ff50c232570f]
link Collaborator to User--><path d="M672.3018,175.0121 C705.6833,182.8194 749.2324,192.7937 788,201 C872.1657,218.8161 892.5511,228.0115 978,238 C1127.2453,255.446 1304.7532,257.6288 1392.7959,257.4766 " fill="none" id="Collaborator-User" style="stroke: #A80036; stroke-width: 1.0;"/><text fill="#000000" font-family="sans-serif" font-size="13" lengthAdjust="spacingAndGlyphs" textLength="52" x="984" y="234.0669">acts like</text><polygon fill="#000000" points="1039,228.0664,1045,231.0664,1039,234.0664,1039,228.0664" style="stroke: #000000; stroke-width: 1.0;"/><text fill="#000000" font-family="sans-serif" font-size="13" lengthAdjust="spacingAndGlyphs" textLength="24" x="680.0258" y="189.481">0..1</text><text fill="#000000" font-family="sans-serif" font-size="13" lengthAdjust="spacingAndGlyphs" textLength="8" x="1376.8403" y="270.6505">1</text><!--MD5=[65ab54bb4516ebbc699d18e0b28e9aea]
link Freelancer to User--><path d="M1225.2266,336.6166 C1276.2955,318.3652 1345.2564,293.7194 1392.8588,276.7068 " fill="none" id="Freelancer-User" style="stroke: #A80036; stroke-width: 1.0;"/><text fill="#000000" font-family="sans-serif" font-size="13" lengthAdjust="spacingAndGlyphs" textLength="52" x="1260" y="298.0669">acts like</text><polygon fill="#000000" points="1315,292.0664,1321,295.0664,1315,298.0664,1315,292.0664" style="stroke: #000000; stroke-width: 1.0;"/><text fill="#000000" font-family="sans-serif" font-size="13" lengthAdjust="spacingAndGlyphs" textLength="24" x="1233.1239" y="347.0065">0..1</text><text fill="#000000" font-family="sans-serif" font-size="13" lengthAdjust="spacingAndGlyphs" textLength="8" x="1376.9117" y="292.4648">1</text><!--MD5=[d2c3650dbd07e79cdad2ffd4a879dec6]
link Collaborator to Freelancer--><path d="M636.9478,195.2301 C651.8961,217.8027 674.5989,246.4582 702,263 C824.4423,336.9172 995.0792,355.469 1088.734,359.8797 " fill="none" id="Collaborator-Freelancer" style="stroke: #A80036; stroke-width: 1.0;"/><text fill="#000000" font-family="sans-serif" font-size="13" lengthAdjust="spacingAndGlyphs" textLength="41" x="841" y="300.0669">create</text><polygon fill="#000000" points="885,294.0664,891,297.0664,885,300.0664,885,294.0664" style="stroke: #000000; stroke-width: 1.0;"/><text fill="#000000" font-family="sans-serif" font-size="13" lengthAdjust="spacingAndGlyphs" textLength="8" x="631.6994" y="214.5987">1</text><text fill="#000000" font-family="sans-serif" font-size="13" lengthAdjust="spacingAndGlyphs" textLength="7" x="1073.8846" y="355.9871">*</text><!--MD5=[f919d21ae7a75ef5ececc535e09d5009]
link Collaborator to Task--><path d="M672.3001,143.1305 C682.1454,139.9438 692.345,136.7736 702,134 C834.3024,95.9936 994.2177,75.6535 1084.9177,66.3973 " fill="none" id="Collaborator-Task" style="stroke: #A80036; stroke-width: 1.0;"/><text fill="#000000" font-family="sans-serif" font-size="13" lengthAdjust="spacingAndGlyphs" textLength="41" x="841" y="79.0669">create</text><polygon fill="#000000" points="885,73.0664,891,76.0664,885,79.0664,885,73.0664" style="stroke: #000000; stroke-width: 1.0;"/><text fill="#000000" font-family="sans-serif" font-size="13" lengthAdjust="spacingAndGlyphs" textLength="8" x="679.8339" y="153.7742">1</text><text fill="#000000" font-family="sans-serif" font-size="13" lengthAdjust="spacingAndGlyphs" textLength="7" x="1070.1233" y="79.903">*</text><!--MD5=[c32d3c60a61e5638fef4971a1b3a8306]
link Collaborator to PaymentTransaction--><path d="M672.1637,160.9089 C705.9941,160.2337 750.0254,159.3548 787.7666,158.6015 " fill="none" id="Collaborator-PaymentTransaction" style="stroke: #A80036; stroke-width: 1.0;"/><text fill="#000000" font-family="sans-serif" font-size="13" lengthAdjust="spacingAndGlyphs" textLength="41" x="703" y="155.0669">create</text><polygon fill="#000000" points="747,149.0664,753,152.0664,747,155.0664,747,149.0664" style="stroke: #000000; stroke-width: 1.0;"/><text fill="#000000" font-family="sans-serif" font-size="13" lengthAdjust="spacingAndGlyphs" textLength="8" x="680.0466" y="173.8722">1</text><text fill="#000000" font-family="sans-serif" font-size="13" lengthAdjust="spacingAndGlyphs" textLength="7" x="773.0474" y="171.5226">*</text><!--MD5=[f6802b286771c18a16ea4be983074371]
link PaymentTransaction to Freelancer--><path d="M948.4112,168.6968 C983.6193,176.7926 1023.9004,190.3646 1055,213 C1082.2488,232.8326 1104.6602,262.2723 1121.4661,289.6833 " fill="none" id="PaymentTransaction-Freelancer" style="stroke: #A80036; stroke-width: 1.0;"/><text fill="#000000" font-family="sans-serif" font-size="13" lengthAdjust="spacingAndGlyphs" textLength="62" x="979" y="172.0669">related to</text><polygon fill="#000000" points="1044,166.0664,1050,169.0664,1044,172.0664,1044,166.0664" style="stroke: #000000; stroke-width: 1.0;"/><text fill="#000000" font-family="sans-serif" font-size="13" lengthAdjust="spacingAndGlyphs" textLength="8" x="955.9291" y="182.488">1</text><text fill="#000000" font-family="sans-serif" font-size="13" lengthAdjust="spacingAndGlyphs" textLength="8" x="1109.5745" y="278.9767">1</text><!--MD5=[271ce7fefd7250ebaca83b70495774bd]
link PaymentTransaction to Task--><path d="M948.2771,136.0564 C981.5787,126.7914 1020.4353,115.2284 1055,103 C1064.7833,99.5388 1074.9777,95.6246 1084.9745,91.6024 " fill="none" id="PaymentTransaction-Task" style="stroke: #A80036; stroke-width: 1.0;"/><text fill="#000000" font-family="sans-serif" font-size="13" lengthAdjust="spacingAndGlyphs" textLength="62" x="979" y="99.0669">related to</text><polygon fill="#000000" points="1044,93.0664,1050,96.0664,1044,99.0664,1044,93.0664" style="stroke: #000000; stroke-width: 1.0;"/><text fill="#000000" font-family="sans-serif" font-size="13" lengthAdjust="spacingAndGlyphs" textLength="8" x="956.0464" y="146.8991">1</text><text fill="#000000" font-family="sans-serif" font-size="13" lengthAdjust="spacingAndGlyphs" textLength="8" x="1069.1344" y="107.7074">1</text><!--MD5=[a96de03bcbd2ec0bfcd48a553223a031]
link Task to taskExecution--><path d="M1229.3065,60 C1267.6008,60 1315.0417,60 1355.9402,60 " fill="none" id="Task-taskExecution" style="stroke: #A80036; stroke-width: 1.0;"/><text fill="#000000" font-family="sans-serif" font-size="13" lengthAdjust="spacingAndGlyphs" textLength="23" x="1274.5" y="56.0669">has</text><polygon fill="#000000" points="1300.5,50.0664,1306.5,53.0664,1300.5,56.0664,1300.5,50.0664" style="stroke: #000000; stroke-width: 1.0;"/><text fill="#000000" font-family="sans-serif" font-size="13" lengthAdjust="spacingAndGlyphs" textLength="8" x="1237.1756" y="72.846">1</text><text fill="#000000" font-family="sans-serif" font-size="13" lengthAdjust="spacingAndGlyphs" textLength="8" x="1339.9852" y="72.6763">1</text><!--MD5=[2562763c7dcbc85e853fdc204059ace7]
@startuml
skinparam classAttributeIconSize 0
hide methods
left to right direction

class Platform {
  -String designation
}

class Organization {
  -String name
}

class Collaborator {
  -String name
  -String email
}


class User {
  -String email
  -String password
}

class Freelancer {
  -String id
  -String name
  -String expertiseLevel
  -String email
  -String NIF
  -String IBAN
  -String address
  -String country
  }

class Task {
 -String id
 -String briefDescription
 -Integer timeDuration
 -Double costPerHour
 -String taskCategory
}

class taskExecution {
 -Date endDate
 -Double delay
 -String workQualityDescription
}

class PaymentTransaction{
  -Double payAmount
}

Platform "1" - - "*" Organization : has registered >
Platform "1" - - "*" Freelancer : has/uses >
Organization "1" - - "1" Collaborator: has >
Organization "1" - - "1" Collaborator: has manager >
Organization "1" - - "*" Task: has >
Organization "1" - - "*" PaymentTransaction: has >
Collaborator "0..1" - - "1" User: acts like >
Freelancer "0..1" - - "1" User: acts like >
Collaborator "1" - - "*" Freelancer: create >
Collaborator "1" - - "*" Task: create >
Collaborator "1" - - "*" PaymentTransaction: create >
PaymentTransaction "1" - - "1" Freelancer: related to >
PaymentTransaction "1" - - "1" Task: related to >
Task "1" - - "1" taskExecution: has >
@enduml

PlantUML version 1.2019.12(Sun Nov 03 10:24:54 UTC 2019)
(GPL source distribution)
Java Runtime: OpenJDK Runtime Environment
JVM: OpenJDK 64-Bit Server VM
Java Version: 1.8.0_232-heroku-b09
Operating System: Linux
Default Encoding: UTF-8
Language: en
Country: US
--></g></svg>