<?xml version="1.0" encoding="UTF-8" standalone="no"?><svg xmlns="http://www.w3.org/2000/svg" xmlns:xlink="http://www.w3.org/1999/xlink" contentScriptType="application/ecmascript" contentStyleType="text/css" height="1255px" preserveAspectRatio="none" style="width:967px;height:1255px;" version="1.1" viewBox="0 0 967 1255" width="967px" zoomAndPan="magnify"><defs><filter height="300%" id="f145wraf1ztn0n" width="300%" x="-1" y="-1"><feGaussianBlur result="blurOut" stdDeviation="2.0"/><feColorMatrix in="blurOut" result="blurOut2" type="matrix" values="0 0 0 0 0 0 0 0 0 0 0 0 0 0 0 0 0 0 .4 0"/><feOffset dx="4.0" dy="4.0" in="blurOut2" result="blurOut3"/><feBlend in="SourceGraphic" in2="blurOut3" mode="normal"/></filter></defs><g><!--MD5=[52de6b799a0982f4494b9c19495c1271]
class POTApplication--><rect fill="#FEFECE" filter="url(#f145wraf1ztn0n)" height="73.6094" id="POTApplication" style="stroke: #A80036; stroke-width: 1.5;" width="136" x="6" y="283"/><ellipse cx="25.95" cy="299" fill="#ADD1B2" rx="11" ry="11" style="stroke: #A80036; stroke-width: 1.0;"/><path d="M28.9188,304.6406 Q28.3406,304.9375 27.7,305.0859 Q27.0594,305.2344 26.3563,305.2344 Q23.8563,305.2344 22.5359,303.5859 Q21.2156,301.9375 21.2156,298.8125 Q21.2156,295.6875 22.5359,294.0313 Q23.8563,292.375 26.3563,292.375 Q27.0594,292.375 27.7078,292.5313 Q28.3563,292.6875 28.9188,292.9844 L28.9188,295.7031 Q28.2938,295.125 27.7,294.8516 Q27.1063,294.5781 26.4813,294.5781 Q25.1375,294.5781 24.45,295.6484 Q23.7625,296.7188 23.7625,298.8125 Q23.7625,300.9063 24.45,301.9766 Q25.1375,303.0469 26.4813,303.0469 Q27.1063,303.0469 27.7,302.7734 Q28.2938,302.5 28.9188,301.9219 L28.9188,304.6406 Z "/><text fill="#000000" font-family="sans-serif" font-size="12" lengthAdjust="spacingAndGlyphs" textLength="93" x="41.05" y="303.1543">POTApplication</text><line style="stroke: #A80036; stroke-width: 1.5;" x1="7" x2="141" y1="315" y2="315"/><line style="stroke: #A80036; stroke-width: 1.5;" x1="7" x2="141" y1="323" y2="323"/><text fill="#000000" font-family="sans-serif" font-size="11" lengthAdjust="spacingAndGlyphs" textLength="118" x="12" y="337.2104">+static getInstance()</text><text fill="#000000" font-family="sans-serif" font-size="11" lengthAdjust="spacingAndGlyphs" textLength="124" x="12" y="350.0151">+getCurrentSession()</text><!--MD5=[c5b08e60048ef1bcd788d24cf324082e]
class UserSession--><rect fill="#FEFECE" filter="url(#f145wraf1ztn0n)" height="60.8047" id="UserSession" style="stroke: #A80036; stroke-width: 1.5;" width="110" x="177" y="289.5"/><ellipse cx="192" cy="305.5" fill="#ADD1B2" rx="11" ry="11" style="stroke: #A80036; stroke-width: 1.0;"/><path d="M194.9688,311.1406 Q194.3906,311.4375 193.75,311.5859 Q193.1094,311.7344 192.4063,311.7344 Q189.9063,311.7344 188.5859,310.0859 Q187.2656,308.4375 187.2656,305.3125 Q187.2656,302.1875 188.5859,300.5313 Q189.9063,298.875 192.4063,298.875 Q193.1094,298.875 193.7578,299.0313 Q194.4063,299.1875 194.9688,299.4844 L194.9688,302.2031 Q194.3438,301.625 193.75,301.3516 Q193.1563,301.0781 192.5313,301.0781 Q191.1875,301.0781 190.5,302.1484 Q189.8125,303.2188 189.8125,305.3125 Q189.8125,307.4063 190.5,308.4766 Q191.1875,309.5469 192.5313,309.5469 Q193.1563,309.5469 193.75,309.2734 Q194.3438,309 194.9688,308.4219 L194.9688,311.1406 Z "/><text fill="#000000" font-family="sans-serif" font-size="12" lengthAdjust="spacingAndGlyphs" textLength="78" x="206" y="309.6543">UserSession</text><line style="stroke: #A80036; stroke-width: 1.5;" x1="178" x2="286" y1="321.5" y2="321.5"/><line style="stroke: #A80036; stroke-width: 1.5;" x1="178" x2="286" y1="329.5" y2="329.5"/><text fill="#000000" font-family="sans-serif" font-size="11" lengthAdjust="spacingAndGlyphs" textLength="93" x="183" y="343.7104">+getUserEmail()</text><!--MD5=[27c2d4bbe9f7b9d3b0ea2797cc54308a]
class Tarefa--><rect fill="#FEFECE" filter="url(#f145wraf1ztn0n)" height="124.8281" id="Tarefa" style="stroke: #A80036; stroke-width: 1.5;" width="150" x="701" y="943.5"/><ellipse cx="751.75" cy="959.5" fill="#ADD1B2" rx="11" ry="11" style="stroke: #A80036; stroke-width: 1.0;"/><path d="M754.7188,965.1406 Q754.1406,965.4375 753.5,965.5859 Q752.8594,965.7344 752.1563,965.7344 Q749.6563,965.7344 748.3359,964.0859 Q747.0156,962.4375 747.0156,959.3125 Q747.0156,956.1875 748.3359,954.5313 Q749.6563,952.875 752.1563,952.875 Q752.8594,952.875 753.5078,953.0313 Q754.1563,953.1875 754.7188,953.4844 L754.7188,956.2031 Q754.0938,955.625 753.5,955.3516 Q752.9063,955.0781 752.2813,955.0781 Q750.9375,955.0781 750.25,956.1484 Q749.5625,957.2188 749.5625,959.3125 Q749.5625,961.4063 750.25,962.4766 Q750.9375,963.5469 752.2813,963.5469 Q752.9063,963.5469 753.5,963.2734 Q754.0938,963 754.7188,962.4219 L754.7188,965.1406 Z "/><text fill="#000000" font-family="sans-serif" font-size="12" lengthAdjust="spacingAndGlyphs" textLength="40" x="772.25" y="963.6543">Tarefa</text><line style="stroke: #A80036; stroke-width: 1.5;" x1="702" x2="850" y1="975.5" y2="975.5"/><text fill="#000000" font-family="sans-serif" font-size="11" lengthAdjust="spacingAndGlyphs" textLength="52" x="707" y="989.7104">-String id</text><text fill="#000000" font-family="sans-serif" font-size="11" lengthAdjust="spacingAndGlyphs" textLength="132" x="707" y="1002.5151">-String briefDescription</text><text fill="#000000" font-family="sans-serif" font-size="11" lengthAdjust="spacingAndGlyphs" textLength="121" x="707" y="1015.3198">-Integer timeDuration</text><text fill="#000000" font-family="sans-serif" font-size="11" lengthAdjust="spacingAndGlyphs" textLength="117" x="707" y="1028.1245">-Double costPerHour</text><text fill="#000000" font-family="sans-serif" font-size="11" lengthAdjust="spacingAndGlyphs" textLength="117" x="707" y="1040.9292">-String taskCategory</text><line style="stroke: #A80036; stroke-width: 1.5;" x1="702" x2="850" y1="1047.5234" y2="1047.5234"/><text fill="#000000" font-family="sans-serif" font-size="11" lengthAdjust="spacingAndGlyphs" textLength="138" x="707" y="1061.7339">+getTaskExecData(task)</text><!--MD5=[1f687b5315377fe49fca59b457947463]
class Freelancer--><rect fill="#FEFECE" filter="url(#f145wraf1ztn0n)" height="150.4375" id="Freelancer" style="stroke: #A80036; stroke-width: 1.5;" width="136" x="496" y="931"/><ellipse cx="527.65" cy="947" fill="#ADD1B2" rx="11" ry="11" style="stroke: #A80036; stroke-width: 1.0;"/><path d="M530.6188,952.6406 Q530.0406,952.9375 529.4,953.0859 Q528.7594,953.2344 528.0563,953.2344 Q525.5563,953.2344 524.2359,951.5859 Q522.9156,949.9375 522.9156,946.8125 Q522.9156,943.6875 524.2359,942.0313 Q525.5563,940.375 528.0563,940.375 Q528.7594,940.375 529.4078,940.5313 Q530.0563,940.6875 530.6188,940.9844 L530.6188,943.7031 Q529.9938,943.125 529.4,942.8516 Q528.8063,942.5781 528.1813,942.5781 Q526.8375,942.5781 526.15,943.6484 Q525.4625,944.7188 525.4625,946.8125 Q525.4625,948.9063 526.15,949.9766 Q526.8375,951.0469 528.1813,951.0469 Q528.8063,951.0469 529.4,950.7734 Q529.9938,950.5 530.6188,949.9219 L530.6188,952.6406 Z "/><text fill="#000000" font-family="sans-serif" font-size="12" lengthAdjust="spacingAndGlyphs" textLength="67" x="545.35" y="951.1543">Freelancer</text><line style="stroke: #A80036; stroke-width: 1.5;" x1="497" x2="631" y1="963" y2="963"/><text fill="#000000" font-family="sans-serif" font-size="11" lengthAdjust="spacingAndGlyphs" textLength="52" x="502" y="977.2104">-String id</text><text fill="#000000" font-family="sans-serif" font-size="11" lengthAdjust="spacingAndGlyphs" textLength="74" x="502" y="990.0151">-String name</text><text fill="#000000" font-family="sans-serif" font-size="11" lengthAdjust="spacingAndGlyphs" textLength="124" x="502" y="1002.8198">-String expertiseLevel</text><text fill="#000000" font-family="sans-serif" font-size="11" lengthAdjust="spacingAndGlyphs" textLength="73" x="502" y="1015.6245">-String email</text><text fill="#000000" font-family="sans-serif" font-size="11" lengthAdjust="spacingAndGlyphs" textLength="59" x="502" y="1028.4292">-String NIF</text><text fill="#000000" font-family="sans-serif" font-size="11" lengthAdjust="spacingAndGlyphs" textLength="68" x="502" y="1041.2339">-String IBAN</text><text fill="#000000" font-family="sans-serif" font-size="11" lengthAdjust="spacingAndGlyphs" textLength="89" x="502" y="1054.0386">-String address</text><text fill="#000000" font-family="sans-serif" font-size="11" lengthAdjust="spacingAndGlyphs" textLength="84" x="502" y="1066.8433">-String country</text><line style="stroke: #A80036; stroke-width: 1.5;" x1="497" x2="631" y1="1073.4375" y2="1073.4375"/><!--MD5=[86c7c362de55a38b660185a1328fe18d]
class Organization--><rect fill="#FEFECE" filter="url(#f145wraf1ztn0n)" height="137.6328" id="Organization" style="stroke: #A80036; stroke-width: 1.5;" width="281" x="535.5" y="578"/><ellipse cx="632.75" cy="594" fill="#ADD1B2" rx="11" ry="11" style="stroke: #A80036; stroke-width: 1.0;"/><path d="M635.7188,599.6406 Q635.1406,599.9375 634.5,600.0859 Q633.8594,600.2344 633.1563,600.2344 Q630.6563,600.2344 629.3359,598.5859 Q628.0156,596.9375 628.0156,593.8125 Q628.0156,590.6875 629.3359,589.0313 Q630.6563,587.375 633.1563,587.375 Q633.8594,587.375 634.5078,587.5313 Q635.1563,587.6875 635.7188,587.9844 L635.7188,590.7031 Q635.0938,590.125 634.5,589.8516 Q633.9063,589.5781 633.2813,589.5781 Q631.9375,589.5781 631.25,590.6484 Q630.5625,591.7188 630.5625,593.8125 Q630.5625,595.9063 631.25,596.9766 Q631.9375,598.0469 633.2813,598.0469 Q633.9063,598.0469 634.5,597.7734 Q635.0938,597.5 635.7188,596.9219 L635.7188,599.6406 Z "/><text fill="#000000" font-family="sans-serif" font-size="12" lengthAdjust="spacingAndGlyphs" textLength="78" x="653.25" y="598.1543">Organization</text><line style="stroke: #A80036; stroke-width: 1.5;" x1="536.5" x2="815.5" y1="610" y2="610"/><text fill="#000000" font-family="sans-serif" font-size="11" lengthAdjust="spacingAndGlyphs" textLength="74" x="541.5" y="624.2104">-String name</text><line style="stroke: #A80036; stroke-width: 1.5;" x1="536.5" x2="815.5" y1="630.8047" y2="630.8047"/><text fill="#000000" font-family="sans-serif" font-size="11" lengthAdjust="spacingAndGlyphs" textLength="89" x="541.5" y="645.0151">+getTasksList()</text><text fill="#000000" font-family="sans-serif" font-size="11" lengthAdjust="spacingAndGlyphs" textLength="186" x="541.5" y="657.8198">+generatePayAmount(task, free)</text><text fill="#000000" font-family="sans-serif" font-size="11" lengthAdjust="spacingAndGlyphs" textLength="269" x="541.5" y="670.6245">+newPaymentTransaction(task, taskExec, free)</text><text fill="#000000" font-family="sans-serif" font-size="11" lengthAdjust="spacingAndGlyphs" textLength="204" x="541.5" y="683.4292">+validatePaymentTransaction(payT)</text><text fill="#000000" font-family="sans-serif" font-size="11" lengthAdjust="spacingAndGlyphs" textLength="207" x="541.5" y="696.2339">+paymentTransactionRegister(payT)</text><text fill="#000000" font-family="sans-serif" font-size="11" lengthAdjust="spacingAndGlyphs" textLength="181" x="541.5" y="709.0386">+addPaymentTransaction(payT)</text><!--MD5=[bfe5ad1e6c67e1aa0bfa76859c3b49e3]
class TasksList--><rect fill="#FEFECE" filter="url(#f145wraf1ztn0n)" height="60.8047" id="TasksList" style="stroke: #A80036; stroke-width: 1.5;" width="121" x="770.5" y="793"/><ellipse cx="799.9" cy="809" fill="#ADD1B2" rx="11" ry="11" style="stroke: #A80036; stroke-width: 1.0;"/><path d="M802.8688,814.6406 Q802.2906,814.9375 801.65,815.0859 Q801.0094,815.2344 800.3063,815.2344 Q797.8063,815.2344 796.4859,813.5859 Q795.1656,811.9375 795.1656,808.8125 Q795.1656,805.6875 796.4859,804.0313 Q797.8063,802.375 800.3063,802.375 Q801.0094,802.375 801.6578,802.5313 Q802.3063,802.6875 802.8688,802.9844 L802.8688,805.7031 Q802.2438,805.125 801.65,804.8516 Q801.0563,804.5781 800.4313,804.5781 Q799.0875,804.5781 798.4,805.6484 Q797.7125,806.7188 797.7125,808.8125 Q797.7125,810.9063 798.4,811.9766 Q799.0875,813.0469 800.4313,813.0469 Q801.0563,813.0469 801.65,812.7734 Q802.2438,812.5 802.8688,811.9219 L802.8688,814.6406 Z "/><text fill="#000000" font-family="sans-serif" font-size="12" lengthAdjust="spacingAndGlyphs" textLength="57" x="817.1" y="813.1543">TasksList</text><line style="stroke: #A80036; stroke-width: 1.5;" x1="771.5" x2="890.5" y1="825" y2="825"/><line style="stroke: #A80036; stroke-width: 1.5;" x1="771.5" x2="890.5" y1="833" y2="833"/><text fill="#000000" font-family="sans-serif" font-size="11" lengthAdjust="spacingAndGlyphs" textLength="109" x="776.5" y="847.2104">+taskExists(taskId)</text><!--MD5=[99b8db98afdc2c8404e39242ef4c1e65]
class Platform--><rect fill="#FEFECE" filter="url(#f145wraf1ztn0n)" height="86.4141" id="Platform" style="stroke: #A80036; stroke-width: 1.5;" width="285" x="393.5" y="277"/><ellipse cx="505.75" cy="293" fill="#ADD1B2" rx="11" ry="11" style="stroke: #A80036; stroke-width: 1.0;"/><path d="M508.7188,298.6406 Q508.1406,298.9375 507.5,299.0859 Q506.8594,299.2344 506.1563,299.2344 Q503.6563,299.2344 502.3359,297.5859 Q501.0156,295.9375 501.0156,292.8125 Q501.0156,289.6875 502.3359,288.0313 Q503.6563,286.375 506.1563,286.375 Q506.8594,286.375 507.5078,286.5313 Q508.1563,286.6875 508.7188,286.9844 L508.7188,289.7031 Q508.0938,289.125 507.5,288.8516 Q506.9063,288.5781 506.2813,288.5781 Q504.9375,288.5781 504.25,289.6484 Q503.5625,290.7188 503.5625,292.8125 Q503.5625,294.9063 504.25,295.9766 Q504.9375,297.0469 506.2813,297.0469 Q506.9063,297.0469 507.5,296.7734 Q508.0938,296.5 508.7188,295.9219 L508.7188,298.6406 Z "/><text fill="#000000" font-family="sans-serif" font-size="12" lengthAdjust="spacingAndGlyphs" textLength="52" x="526.25" y="297.1543">Platform</text><line style="stroke: #A80036; stroke-width: 1.5;" x1="394.5" x2="677.5" y1="309" y2="309"/><text fill="#000000" font-family="sans-serif" font-size="11" lengthAdjust="spacingAndGlyphs" textLength="108" x="399.5" y="323.2104">-String designation</text><line style="stroke: #A80036; stroke-width: 1.5;" x1="394.5" x2="677.5" y1="329.8047" y2="329.8047"/><text fill="#000000" font-family="sans-serif" font-size="11" lengthAdjust="spacingAndGlyphs" textLength="273" x="399.5" y="344.0151">+OrganizationsRecord getOrganizationsRecord()</text><text fill="#000000" font-family="sans-serif" font-size="11" lengthAdjust="spacingAndGlyphs" textLength="251" x="399.5" y="356.8198">+FreelancersRecord getFreelancersRecord()</text><!--MD5=[c7635c972eb61a4e069c06c1240b28a8]
class FreelancersRecord--><rect fill="#FEFECE" filter="url(#f145wraf1ztn0n)" height="60.8047" id="FreelancersRecord" style="stroke: #A80036; stroke-width: 1.5;" width="150" x="344" y="440"/><ellipse cx="359" cy="456" fill="#ADD1B2" rx="11" ry="11" style="stroke: #A80036; stroke-width: 1.0;"/><path d="M361.9688,461.6406 Q361.3906,461.9375 360.75,462.0859 Q360.1094,462.2344 359.4063,462.2344 Q356.9063,462.2344 355.5859,460.5859 Q354.2656,458.9375 354.2656,455.8125 Q354.2656,452.6875 355.5859,451.0313 Q356.9063,449.375 359.4063,449.375 Q360.1094,449.375 360.7578,449.5313 Q361.4063,449.6875 361.9688,449.9844 L361.9688,452.7031 Q361.3438,452.125 360.75,451.8516 Q360.1563,451.5781 359.5313,451.5781 Q358.1875,451.5781 357.5,452.6484 Q356.8125,453.7188 356.8125,455.8125 Q356.8125,457.9063 357.5,458.9766 Q358.1875,460.0469 359.5313,460.0469 Q360.1563,460.0469 360.75,459.7734 Q361.3438,459.5 361.9688,458.9219 L361.9688,461.6406 Z "/><text fill="#000000" font-family="sans-serif" font-size="12" lengthAdjust="spacingAndGlyphs" textLength="118" x="373" y="460.1543">FreelancersRecord</text><line style="stroke: #A80036; stroke-width: 1.5;" x1="345" x2="493" y1="472" y2="472"/><line style="stroke: #A80036; stroke-width: 1.5;" x1="345" x2="493" y1="480" y2="480"/><text fill="#000000" font-family="sans-serif" font-size="11" lengthAdjust="spacingAndGlyphs" textLength="131" x="350" y="494.2104">+freelancerExists(frlId)</text><!--MD5=[759d9d4bd7fe37fb1c4b72776400893c]
class OrganizationsRecord--><rect fill="#FEFECE" filter="url(#f145wraf1ztn0n)" height="60.8047" id="OrganizationsRecord" style="stroke: #A80036; stroke-width: 1.5;" width="221" x="528.5" y="440"/><ellipse cx="570.5" cy="456" fill="#ADD1B2" rx="11" ry="11" style="stroke: #A80036; stroke-width: 1.0;"/><path d="M573.4688,461.6406 Q572.8906,461.9375 572.25,462.0859 Q571.6094,462.2344 570.9063,462.2344 Q568.4063,462.2344 567.0859,460.5859 Q565.7656,458.9375 565.7656,455.8125 Q565.7656,452.6875 567.0859,451.0313 Q568.4063,449.375 570.9063,449.375 Q571.6094,449.375 572.2578,449.5313 Q572.9063,449.6875 573.4688,449.9844 L573.4688,452.7031 Q572.8438,452.125 572.25,451.8516 Q571.6563,451.5781 571.0313,451.5781 Q569.6875,451.5781 569,452.6484 Q568.3125,453.7188 568.3125,455.8125 Q568.3125,457.9063 569,458.9766 Q569.6875,460.0469 571.0313,460.0469 Q571.6563,460.0469 572.25,459.7734 Q572.8438,459.5 573.4688,458.9219 L573.4688,461.6406 Z "/><text fill="#000000" font-family="sans-serif" font-size="12" lengthAdjust="spacingAndGlyphs" textLength="129" x="590.5" y="460.1543">OrganizationsRecord</text><line style="stroke: #A80036; stroke-width: 1.5;" x1="529.5" x2="748.5" y1="472" y2="472"/><line style="stroke: #A80036; stroke-width: 1.5;" x1="529.5" x2="748.5" y1="480" y2="480"/><text fill="#000000" font-family="sans-serif" font-size="11" lengthAdjust="spacingAndGlyphs" textLength="209" x="534.5" y="494.2104">+getOrganizationByUserEmail(email)</text><!--MD5=[9ab0068e71df7f673644752c40fe3ac4]
class CreatePaymentTransactionController--><rect fill="#FEFECE" filter="url(#f145wraf1ztn0n)" height="99.2188" id="CreatePaymentTransactionController" style="stroke: #A80036; stroke-width: 1.5;" width="546" x="410" y="117"/><ellipse cx="563.25" cy="133" fill="#ADD1B2" rx="11" ry="11" style="stroke: #A80036; stroke-width: 1.0;"/><path d="M566.2188,138.6406 Q565.6406,138.9375 565,139.0859 Q564.3594,139.2344 563.6563,139.2344 Q561.1563,139.2344 559.8359,137.5859 Q558.5156,135.9375 558.5156,132.8125 Q558.5156,129.6875 559.8359,128.0313 Q561.1563,126.375 563.6563,126.375 Q564.3594,126.375 565.0078,126.5313 Q565.6563,126.6875 566.2188,126.9844 L566.2188,129.7031 Q565.5938,129.125 565,128.8516 Q564.4063,128.5781 563.7813,128.5781 Q562.4375,128.5781 561.75,129.6484 Q561.0625,130.7188 561.0625,132.8125 Q561.0625,134.9063 561.75,135.9766 Q562.4375,137.0469 563.7813,137.0469 Q564.4063,137.0469 565,136.7734 Q565.5938,136.5 566.2188,135.9219 L566.2188,138.6406 Z "/><text fill="#000000" font-family="sans-serif" font-size="12" lengthAdjust="spacingAndGlyphs" textLength="231" x="583.75" y="137.1543">CreatePaymentTransactionController</text><line style="stroke: #A80036; stroke-width: 1.5;" x1="411" x2="955" y1="149" y2="149"/><line style="stroke: #A80036; stroke-width: 1.5;" x1="411" x2="955" y1="157" y2="157"/><text fill="#000000" font-family="sans-serif" font-size="11" lengthAdjust="spacingAndGlyphs" textLength="530" x="416" y="171.2104">+newPaymentTransaction(taskId, briefDescription, timeDuration, costPerHour, taskCategory,</text><text fill="#000000" font-family="sans-serif" font-size="11" lengthAdjust="spacingAndGlyphs" textLength="227" x="416" y="184.0151">endDate, delay, workQualityDescription,</text><text fill="#000000" font-family="sans-serif" font-size="11" lengthAdjust="spacingAndGlyphs" textLength="359" x="416" y="196.8198">frlId, name, expertiseLevel, email, NIF, IBAN, address, country)</text><text fill="#000000" font-family="sans-serif" font-size="11" lengthAdjust="spacingAndGlyphs" textLength="180" x="416" y="209.6245">+paymentTransactionRegister()</text><!--MD5=[e472615a113cc15971a8fcaedb5e2163]
class CreatePaymentTransactionUI--><rect fill="#FEFECE" filter="url(#f145wraf1ztn0n)" height="48" id="CreatePaymentTransactionUI" style="stroke: #A80036; stroke-width: 1.5;" width="214" x="576" y="8"/><ellipse cx="591" cy="24" fill="#ADD1B2" rx="11" ry="11" style="stroke: #A80036; stroke-width: 1.0;"/><path d="M593.9688,29.6406 Q593.3906,29.9375 592.75,30.0859 Q592.1094,30.2344 591.4063,30.2344 Q588.9063,30.2344 587.5859,28.5859 Q586.2656,26.9375 586.2656,23.8125 Q586.2656,20.6875 587.5859,19.0313 Q588.9063,17.375 591.4063,17.375 Q592.1094,17.375 592.7578,17.5313 Q593.4063,17.6875 593.9688,17.9844 L593.9688,20.7031 Q593.3438,20.125 592.75,19.8516 Q592.1563,19.5781 591.5313,19.5781 Q590.1875,19.5781 589.5,20.6484 Q588.8125,21.7188 588.8125,23.8125 Q588.8125,25.9063 589.5,26.9766 Q590.1875,28.0469 591.5313,28.0469 Q592.1563,28.0469 592.75,27.7734 Q593.3438,27.5 593.9688,26.9219 L593.9688,29.6406 Z "/><text fill="#000000" font-family="sans-serif" font-size="12" lengthAdjust="spacingAndGlyphs" textLength="182" x="605" y="28.1543">CreatePaymentTransactionUI</text><line style="stroke: #A80036; stroke-width: 1.5;" x1="577" x2="789" y1="40" y2="40"/><line style="stroke: #A80036; stroke-width: 1.5;" x1="577" x2="789" y1="48" y2="48"/><!--MD5=[b645a18afb25b7e5623af7186d8eb36f]
class PaymentTransaction--><rect fill="#FEFECE" filter="url(#f145wraf1ztn0n)" height="60.8047" id="PaymentTransaction" style="stroke: #A80036; stroke-width: 1.5;" width="258" x="477" y="793"/><ellipse cx="537.75" cy="809" fill="#ADD1B2" rx="11" ry="11" style="stroke: #A80036; stroke-width: 1.0;"/><path d="M540.7188,814.6406 Q540.1406,814.9375 539.5,815.0859 Q538.8594,815.2344 538.1563,815.2344 Q535.6563,815.2344 534.3359,813.5859 Q533.0156,811.9375 533.0156,808.8125 Q533.0156,805.6875 534.3359,804.0313 Q535.6563,802.375 538.1563,802.375 Q538.8594,802.375 539.5078,802.5313 Q540.1563,802.6875 540.7188,802.9844 L540.7188,805.7031 Q540.0938,805.125 539.5,804.8516 Q538.9063,804.5781 538.2813,804.5781 Q536.9375,804.5781 536.25,805.6484 Q535.5625,806.7188 535.5625,808.8125 Q535.5625,810.9063 536.25,811.9766 Q536.9375,813.0469 538.2813,813.0469 Q538.9063,813.0469 539.5,812.7734 Q540.0938,812.5 540.7188,811.9219 L540.7188,814.6406 Z "/><text fill="#000000" font-family="sans-serif" font-size="12" lengthAdjust="spacingAndGlyphs" textLength="128" x="558.25" y="813.1543">PaymentTransaction</text><line style="stroke: #A80036; stroke-width: 1.5;" x1="478" x2="734" y1="825" y2="825"/><line style="stroke: #A80036; stroke-width: 1.5;" x1="478" x2="734" y1="833" y2="833"/><text fill="#000000" font-family="sans-serif" font-size="11" lengthAdjust="spacingAndGlyphs" textLength="246" x="483" y="847.2104">+PaymentTransaction(task, taskExec, free)</text><!--MD5=[5ce80547de3caced9d0089e35ded5090]
class TaskExecution--><rect fill="#FEFECE" filter="url(#f145wraf1ztn0n)" height="86.4141" id="TaskExecution" style="stroke: #A80036; stroke-width: 1.5;" width="184" x="320" y="1158"/><ellipse cx="362.9" cy="1174" fill="#ADD1B2" rx="11" ry="11" style="stroke: #A80036; stroke-width: 1.0;"/><path d="M365.8688,1179.6406 Q365.2906,1179.9375 364.65,1180.0859 Q364.0094,1180.2344 363.3063,1180.2344 Q360.8063,1180.2344 359.4859,1178.5859 Q358.1656,1176.9375 358.1656,1173.8125 Q358.1656,1170.6875 359.4859,1169.0313 Q360.8063,1167.375 363.3063,1167.375 Q364.0094,1167.375 364.6578,1167.5313 Q365.3063,1167.6875 365.8688,1167.9844 L365.8688,1170.7031 Q365.2438,1170.125 364.65,1169.8516 Q364.0563,1169.5781 363.4313,1169.5781 Q362.0875,1169.5781 361.4,1170.6484 Q360.7125,1171.7188 360.7125,1173.8125 Q360.7125,1175.9063 361.4,1176.9766 Q362.0875,1178.0469 363.4313,1178.0469 Q364.0563,1178.0469 364.65,1177.7734 Q365.2438,1177.5 365.8688,1176.9219 L365.8688,1179.6406 Z "/><text fill="#000000" font-family="sans-serif" font-size="12" lengthAdjust="spacingAndGlyphs" textLength="90" x="383.1" y="1178.1543">TaskExecution</text><line style="stroke: #A80036; stroke-width: 1.5;" x1="321" x2="503" y1="1190" y2="1190"/><text fill="#000000" font-family="sans-serif" font-size="11" lengthAdjust="spacingAndGlyphs" textLength="81" x="326" y="1204.2104">-Date endDate</text><text fill="#000000" font-family="sans-serif" font-size="11" lengthAdjust="spacingAndGlyphs" textLength="77" x="326" y="1217.0151">-Double delay</text><text fill="#000000" font-family="sans-serif" font-size="11" lengthAdjust="spacingAndGlyphs" textLength="172" x="326" y="1229.8198">-String workQualityDescription</text><line style="stroke: #A80036; stroke-width: 1.5;" x1="321" x2="503" y1="1236.4141" y2="1236.4141"/><!--MD5=[d75f8faab7003fe4f7fadde3e00b3cf7]
link CreatePaymentTransactionUI to CreatePaymentTransactionController--><path d="M683,56.0459 C683,71.4478 683,92.0929 683,111.3652 " fill="none" id="CreatePaymentTransactionUI-&gt;CreatePaymentTransactionController" style="stroke: #A80036; stroke-width: 1.0; stroke-dasharray: 7.0,7.0;"/><polygon fill="#A80036" points="683,116.759,687,107.759,683,111.759,679,107.759,683,116.759" style="stroke: #A80036; stroke-width: 1.0;"/><!--MD5=[c21c0329c000ce3a64d50b793859385d]
link CreatePaymentTransactionController to Platform--><path d="M635.2733,216.3371 C617.8928,234.4861 598.3107,254.934 581.1598,272.8434 " fill="none" id="CreatePaymentTransactionController-&gt;Platform" style="stroke: #A80036; stroke-width: 1.0; stroke-dasharray: 7.0,7.0;"/><polygon fill="#A80036" points="577.3121,276.8612,586.4259,273.1278,580.7704,273.2501,580.6481,267.5945,577.3121,276.8612" style="stroke: #A80036; stroke-width: 1.0;"/><!--MD5=[210f769589d3231071ce642d48ce0383]
link CreatePaymentTransactionController to Tarefa--><path d="M869.5702,216.0036 C912.0758,238.9464 945,272.1586 945,320 C945,320 945,320 945,823.5 C945,881.0205 899.2453,928.0919 855.3505,960.0152 " fill="none" id="CreatePaymentTransactionController-&gt;Tarefa" style="stroke: #A80036; stroke-width: 1.0; stroke-dasharray: 7.0,7.0;"/><polygon fill="#A80036" points="851.11,963.0571,860.7545,961.0613,855.1728,960.1426,856.0914,954.5609,851.11,963.0571" style="stroke: #A80036; stroke-width: 1.0;"/><!--MD5=[d808bb2ca26b86ab5f675405e49fd624]
link CreatePaymentTransactionController to Organization--><path d="M711.8595,216.0777 C746.2716,281.62 795.7424,400.5475 767,501 C759.7979,526.1708 746.8588,551.2217 732.9559,573.2837 " fill="none" id="CreatePaymentTransactionController-&gt;Organization" style="stroke: #A80036; stroke-width: 1.0; stroke-dasharray: 7.0,7.0;"/><polygon fill="#A80036" points="730.1639,577.6554,738.3793,572.2233,732.8551,573.4415,731.637,567.9173,730.1639,577.6554" style="stroke: #A80036; stroke-width: 1.0;"/><!--MD5=[c3f8496c633e2f7f52d8bf9bc86aad29]
link CreatePaymentTransactionController to POTApplication--><path d="M409.6963,210.1349 C327.854,226.9238 238.7062,248.9761 159,277 C155.0752,278.3799 151.101,279.9038 147.125,281.5302 " fill="none" id="CreatePaymentTransactionController-&gt;POTApplication" style="stroke: #A80036; stroke-width: 1.0; stroke-dasharray: 7.0,7.0;"/><polygon fill="#A80036" points="142.4595,283.4839,152.306,283.6972,147.0715,281.5526,149.216,276.318,142.4595,283.4839" style="stroke: #A80036; stroke-width: 1.0;"/><!--MD5=[044b46cd6ff48909710cb1d203e462f9]
link CreatePaymentTransactionController to UserSession--><path d="M409.8158,208.3447 C376.6093,218.3309 343.8951,230.6944 314,246 C294.8027,255.8285 276.6464,271.304 262.3217,285.5676 " fill="none" id="CreatePaymentTransactionController-&gt;UserSession" style="stroke: #A80036; stroke-width: 1.0; stroke-dasharray: 7.0,7.0;"/><polygon fill="#A80036" points="258.7641,289.1636,267.9373,285.5785,262.2805,285.609,262.25,279.9523,258.7641,289.1636" style="stroke: #A80036; stroke-width: 1.0;"/><!--MD5=[a5b2a848340ab19653babd02d4515d20]
link CreatePaymentTransactionController to TasksList--><path d="M802.3352,216.052 C840.9438,240.5175 874,274.6936 874,320 C874,320 874,320 874,647 C874,696.9 857.575,752.5382 845.0277,787.761 " fill="none" id="CreatePaymentTransactionController-&gt;TasksList" style="stroke: #A80036; stroke-width: 1.0; stroke-dasharray: 7.0,7.0;"/><polygon fill="#A80036" points="843.2071,792.8066,850.0246,785.6988,844.9043,788.1035,842.4996,782.9832,843.2071,792.8066" style="stroke: #A80036; stroke-width: 1.0;"/><!--MD5=[546fd7e0e055f1eba4c284893e3481a0]
link CreatePaymentTransactionController to FreelancersRecord--><path d="M491.0474,216.107 C438.471,233.7647 391.5946,254.813 376,277 C342.4915,324.6739 372.124,393.9386 396.0292,435.3741 " fill="none" id="CreatePaymentTransactionController-&gt;FreelancersRecord" style="stroke: #A80036; stroke-width: 1.0; stroke-dasharray: 7.0,7.0;"/><polygon fill="#A80036" points="398.6162,439.7902,397.5185,430.0027,396.0889,435.4759,390.6157,434.0463,398.6162,439.7902" style="stroke: #A80036; stroke-width: 1.0;"/><!--MD5=[19aba29190c83d802a073857acc5c053]
link CreatePaymentTransactionController to OrganizationsRecord--><path d="M694.5854,216.0998 C702.0017,256.2844 708.1717,314.0619 696,363 C689.6008,388.729 675.7757,415.0686 663.3441,435.2359 " fill="none" id="CreatePaymentTransactionController-&gt;OrganizationsRecord" style="stroke: #A80036; stroke-width: 1.0; stroke-dasharray: 7.0,7.0;"/><polygon fill="#A80036" points="660.5512,439.7028,668.7142,434.1923,663.202,435.4633,661.931,429.9511,660.5512,439.7028" style="stroke: #A80036; stroke-width: 1.0;"/><!--MD5=[d77b6fe82f72fca34ebf8190bf84198d]
link Platform to FreelancersRecord--><path d="M502.4725,363.1273 C484.5459,386.1866 462.7678,414.2003 445.9519,435.8311 " fill="none" id="Platform-&gt;FreelancersRecord" style="stroke: #A80036; stroke-width: 1.0;"/><polygon fill="#A80036" points="442.8718,439.7931,451.5536,435.1426,445.9406,435.8456,445.2376,430.2326,442.8718,439.7931" style="stroke: #A80036; stroke-width: 1.0;"/><text fill="#000000" font-family="sans-serif" font-size="13" lengthAdjust="spacingAndGlyphs" textLength="23" x="479" y="406.0669">has</text><text fill="#000000" font-family="sans-serif" font-size="13" lengthAdjust="spacingAndGlyphs" textLength="8" x="488.257" y="383.5561">1</text><text fill="#000000" font-family="sans-serif" font-size="13" lengthAdjust="spacingAndGlyphs" textLength="8" x="438.9704" y="429.0137">1</text><!--MD5=[d9ffa4e24b0f90d8cdc0d9eb36306584]
link Platform to OrganizationsRecord--><path d="M565.5157,363.1273 C581.2317,386.0909 600.3103,413.9679 615.0886,435.5615 " fill="none" id="Platform-&gt;OrganizationsRecord" style="stroke: #A80036; stroke-width: 1.0;"/><polygon fill="#A80036" points="617.9847,439.7931,616.2026,430.1068,615.1608,435.6669,609.6007,434.6251,617.9847,439.7931" style="stroke: #A80036; stroke-width: 1.0;"/><text fill="#000000" font-family="sans-serif" font-size="13" lengthAdjust="spacingAndGlyphs" textLength="23" x="598" y="406.0669">has</text><text fill="#000000" font-family="sans-serif" font-size="13" lengthAdjust="spacingAndGlyphs" textLength="8" x="561.7417" y="383.5561">1</text><text fill="#000000" font-family="sans-serif" font-size="13" lengthAdjust="spacingAndGlyphs" textLength="8" x="604.8253" y="429.0137">1</text><!--MD5=[0634d34efc8f03ad94b2231e46fef7de]
link FreelancersRecord to Freelancer--><path d="M417.1607,501.2401 C414.2429,567.8504 412.9679,729.5285 459,854 C468.3733,879.3457 482.9506,904.4726 498.291,926.7794 " fill="none" id="FreelancersRecord-&gt;Freelancer" style="stroke: #A80036; stroke-width: 1.0;"/><polygon fill="#A80036" points="501.1631,930.9111,499.3104,921.2381,498.3092,926.8056,492.7416,925.8044,501.1631,930.9111" style="stroke: #A80036; stroke-width: 1.0;"/><text fill="#000000" font-family="sans-serif" font-size="13" lengthAdjust="spacingAndGlyphs" textLength="23" x="435" y="759.0669">has</text><text fill="#000000" font-family="sans-serif" font-size="13" lengthAdjust="spacingAndGlyphs" textLength="8" x="408.0111" y="520.8678">1</text><text fill="#000000" font-family="sans-serif" font-size="13" lengthAdjust="spacingAndGlyphs" textLength="7" x="487.6331" y="919.8332">*</text><!--MD5=[15b500351a20fc4c9aef6172f83f2b2a]
link OrganizationsRecord to Organization--><path d="M645.4449,501.244 C649.5988,521.059 655.1888,547.725 660.4517,572.8304 " fill="none" id="OrganizationsRecord-&gt;Organization" style="stroke: #A80036; stroke-width: 1.0;"/><polygon fill="#A80036" points="661.4994,577.8282,663.5675,568.1989,660.4734,572.9346,655.7377,569.8405,661.4994,577.8282" style="stroke: #A80036; stroke-width: 1.0;"/><text fill="#000000" font-family="sans-serif" font-size="13" lengthAdjust="spacingAndGlyphs" textLength="23" x="656" y="544.0669">has</text><text fill="#000000" font-family="sans-serif" font-size="13" lengthAdjust="spacingAndGlyphs" textLength="8" x="637.9262" y="520.8725">1</text><text fill="#000000" font-family="sans-serif" font-size="13" lengthAdjust="spacingAndGlyphs" textLength="7" x="652.6431" y="567.0141">*</text><!--MD5=[d15cad16830e0e3b1d195407ed1d0016]
link Organization to TasksList--><path d="M736.8152,716.2509 C758.6923,741.1625 782.4314,768.1945 800.6038,788.8875 " fill="none" id="Organization-&gt;TasksList" style="stroke: #A80036; stroke-width: 1.0;"/><polygon fill="#A80036" points="803.9304,792.6756,800.9971,783.2737,800.6311,788.9187,794.9861,788.5526,803.9304,792.6756" style="stroke: #A80036; stroke-width: 1.0;"/><text fill="#000000" font-family="sans-serif" font-size="13" lengthAdjust="spacingAndGlyphs" textLength="23" x="777" y="759.0669">has</text><text fill="#000000" font-family="sans-serif" font-size="13" lengthAdjust="spacingAndGlyphs" textLength="8" x="734.2304" y="735.6569">1</text><text fill="#000000" font-family="sans-serif" font-size="13" lengthAdjust="spacingAndGlyphs" textLength="8" x="789.5223" y="781.8719">1</text><!--MD5=[da2d560b3f89d8c66478284968d27dfa]
link Organization to PaymentTransaction--><path d="M648.5351,716.2509 C638.8191,740.749 628.2898,767.2978 620.138,787.8519 " fill="none" id="Organization-&gt;PaymentTransaction" style="stroke: #A80036; stroke-width: 1.0;"/><polygon fill="#A80036" points="618.225,792.6756,625.2613,785.7843,620.0684,788.0278,617.8249,782.8349,618.225,792.6756" style="stroke: #A80036; stroke-width: 1.0;"/><text fill="#000000" font-family="sans-serif" font-size="13" lengthAdjust="spacingAndGlyphs" textLength="23" x="636" y="759.0669">has</text><text fill="#000000" font-family="sans-serif" font-size="13" lengthAdjust="spacingAndGlyphs" textLength="8" x="637.5361" y="735.6569">1</text><text fill="#000000" font-family="sans-serif" font-size="13" lengthAdjust="spacingAndGlyphs" textLength="7" x="613.0245" y="781.8719">*</text><!--MD5=[ab6bf6f405bf932e10b3bc79d0f330c9]
link TasksList to Tarefa--><path d="M821.7942,854.0464 C814.8852,876.9718 805.1567,909.2528 796.4423,938.1687 " fill="none" id="TasksList-&gt;Tarefa" style="stroke: #A80036; stroke-width: 1.0;"/><polygon fill="#A80036" points="794.9408,943.1509,801.3678,935.6881,796.3837,938.3636,793.7081,933.3795,794.9408,943.1509" style="stroke: #A80036; stroke-width: 1.0;"/><text fill="#000000" font-family="sans-serif" font-size="13" lengthAdjust="spacingAndGlyphs" textLength="23" x="812" y="897.0669">has</text><text fill="#000000" font-family="sans-serif" font-size="13" lengthAdjust="spacingAndGlyphs" textLength="8" x="811.0705" y="873.9942">1</text><text fill="#000000" font-family="sans-serif" font-size="13" lengthAdjust="spacingAndGlyphs" textLength="7" x="789.6296" y="932.54">*</text><!--MD5=[8a6254df929d9688c19c0dc09f496a68]
link Tarefa to TaskExecution--><path d="M700.9119,1051.4272 C683.9572,1061.3808 665.9562,1071.7132 649,1081 C602.0717,1106.7023 549.0034,1133.7541 504.9983,1155.6535 " fill="none" id="Tarefa-&gt;TaskExecution" style="stroke: #A80036; stroke-width: 1.0;"/><polygon fill="#A80036" points="500.4971,1157.8913,510.3368,1157.4663,504.9743,1155.6654,506.7753,1150.3028,500.4971,1157.8913" style="stroke: #A80036; stroke-width: 1.0;"/><text fill="#000000" font-family="sans-serif" font-size="13" lengthAdjust="spacingAndGlyphs" textLength="23" x="593" y="1124.0669">has</text><text fill="#000000" font-family="sans-serif" font-size="13" lengthAdjust="spacingAndGlyphs" textLength="8" x="684.7559" y="1052.421">1</text><text fill="#000000" font-family="sans-serif" font-size="13" lengthAdjust="spacingAndGlyphs" textLength="8" x="505.9638" y="1146.87">1</text><!--MD5=[f6802b286771c18a16ea4be983074371]
link PaymentTransaction to Freelancer--><path d="M595.6264,854.0783 C592.6055,863.5978 589.4598,874.1747 587,884 C583.6433,897.4075 580.5251,911.7529 577.7366,925.7252 " fill="none" id="PaymentTransaction-&gt;Freelancer" style="stroke: #A80036; stroke-width: 1.0;"/><polygon fill="#A80036" points="576.7243,930.8536,582.3917,922.7988,577.6927,925.9483,574.5432,921.2493,576.7243,930.8536" style="stroke: #A80036; stroke-width: 1.0;"/><text fill="#000000" font-family="sans-serif" font-size="13" lengthAdjust="spacingAndGlyphs" textLength="62" x="588" y="897.0669">related to</text><text fill="#000000" font-family="sans-serif" font-size="13" lengthAdjust="spacingAndGlyphs" textLength="8" x="584.6618" y="874.0327">1</text><text fill="#000000" font-family="sans-serif" font-size="13" lengthAdjust="spacingAndGlyphs" textLength="8" x="569.5558" y="920.0287">1</text><!--MD5=[b41e08b5933bb8d57a68400b45ec2baf]
link PaymentTransaction to Tarefa--><path d="M634.4542,854.0464 C656.0741,877.256 686.6262,910.0546 713.815,939.2425 " fill="none" id="PaymentTransaction-&gt;Tarefa" style="stroke: #A80036; stroke-width: 1.0;"/><polygon fill="#A80036" points="717.4557,943.1509,714.2481,933.839,714.0477,939.4923,708.3944,939.2918,717.4557,943.1509" style="stroke: #A80036; stroke-width: 1.0;"/><text fill="#000000" font-family="sans-serif" font-size="13" lengthAdjust="spacingAndGlyphs" textLength="62" x="677" y="897.0669">related to</text><text fill="#000000" font-family="sans-serif" font-size="13" lengthAdjust="spacingAndGlyphs" textLength="8" x="631.4979" y="873.9942">1</text><text fill="#000000" font-family="sans-serif" font-size="13" lengthAdjust="spacingAndGlyphs" textLength="8" x="702.6149" y="932.54">1</text><!--MD5=[ccf9e4a23b86a8fcbc3774eff83a0cb7]
link PaymentTransaction to TaskExecution--><path d="M508.9877,854.0175 C472.6222,870.6869 435.0448,895.4011 414,931 C373.5926,999.3522 385.7824,1095.4593 398.656,1152.6669 " fill="none" id="PaymentTransaction-&gt;TaskExecution" style="stroke: #A80036; stroke-width: 1.0;"/><polygon fill="#A80036" points="399.822,1157.7386,401.7035,1148.0711,398.7016,1152.8658,393.907,1149.8638,399.822,1157.7386" style="stroke: #A80036; stroke-width: 1.0;"/><text fill="#000000" font-family="sans-serif" font-size="13" lengthAdjust="spacingAndGlyphs" textLength="62" x="415" y="1010.5669">related to</text><text fill="#000000" font-family="sans-serif" font-size="13" lengthAdjust="spacingAndGlyphs" textLength="8" x="480.1539" y="873.9593">1</text><text fill="#000000" font-family="sans-serif" font-size="13" lengthAdjust="spacingAndGlyphs" textLength="8" x="389.3447" y="1147.0111">1</text><!--MD5=[e8d0f15e849cd1351e7b252c8e6d63e6]
@startuml
skinparam classAttributeIconSize 0

class POTApplication
{
  +static getInstance()
  +getCurrentSession()
}

class UserSession
{
  +getUserEmail()
}

class Tarefa {
  -String id
  -String briefDescription
  -Integer timeDuration
  -Double costPerHour
  -String taskCategory
  +getTaskExecData(task)
}

class Freelancer {
  -String id
  -String name
  -String expertiseLevel
  -String email
  -String NIF
  -String IBAN
  -String address
  -String country
}

class Organization {
  -String name
  +getTasksList()
  +generatePayAmount(task, free)
  +newPaymentTransaction(task, taskExec, free)
  +validatePaymentTransaction(payT)
  +paymentTransactionRegister(payT)
  +addPaymentTransaction(payT)
}

class TasksList {
  +taskExists(taskId)
}

class Platform {
  -String designation
  +OrganizationsRecord getOrganizationsRecord()
  +FreelancersRecord getFreelancersRecord()
}

class FreelancersRecord {
  +freelancerExists(frlId)
}

class OrganizationsRecord  {
  +getOrganizationByUserEmail(email)
}

class CreatePaymentTransactionController {
  +newPaymentTransaction(taskId, briefDescription, timeDuration, costPerHour, taskCategory, \nendDate, delay, workQualityDescription, \nfrlId, name, expertiseLevel, email, NIF, IBAN, address, country)
  +paymentTransactionRegister()
}

class CreatePaymentTransactionUI {
}

class PaymentTransaction{
  +PaymentTransaction(task, taskExec, free)
}

class TaskExecution {
 -Date endDate
 -Double delay
 -String workQualityDescription
}

CreatePaymentTransactionUI ..> CreatePaymentTransactionController
CreatePaymentTransactionController ..> Platform
CreatePaymentTransactionController ..> Tarefa
CreatePaymentTransactionController ..> Organization
CreatePaymentTransactionController ..> POTApplication
CreatePaymentTransactionController ..> UserSession
CreatePaymentTransactionController ..> TasksList
CreatePaymentTransactionController ..> FreelancersRecord
CreatePaymentTransactionController ..> OrganizationsRecord
Platform "1" - -> "1" FreelancersRecord : has
Platform "1" - -> "1" OrganizationsRecord : has

FreelancersRecord "1" - -> "*" Freelancer : has
OrganizationsRecord "1" - -> "*" Organization : has
Organization "1" - -> "1" TasksList : has
Organization "1" - -> "*" PaymentTransaction : has
TasksList "1" - -> "*" Tarefa : has
Tarefa "1" - -> "1" TaskExecution : has

PaymentTransaction "1" - -> "1" Freelancer : related to
PaymentTransaction "1" - -> "1" Tarefa : related to
PaymentTransaction "1" - -> "1" TaskExecution : related to
@enduml

PlantUML version 1.2019.12(Sun Nov 03 10:24:54 UTC 2019)
(GPL source distribution)
Java Runtime: OpenJDK Runtime Environment
JVM: OpenJDK 64-Bit Server VM
Java Version: 1.8.0_232-heroku-b09
Operating System: Linux
Default Encoding: UTF-8
Language: en
Country: US
--></g></svg>