<?xml version="1.0" encoding="UTF-8" standalone="no"?><svg xmlns="http://www.w3.org/2000/svg" xmlns:xlink="http://www.w3.org/1999/xlink" contentScriptType="application/ecmascript" contentStyleType="text/css" height="467px" preserveAspectRatio="none" style="width:1551px;height:467px;" version="1.1" viewBox="0 0 1551 467" width="1551px" zoomAndPan="magnify"><defs><filter height="300%" id="f1ome5gjamndeq" width="300%" x="-1" y="-1"><feGaussianBlur result="blurOut" stdDeviation="2.0"/><feColorMatrix in="blurOut" result="blurOut2" type="matrix" values="0 0 0 0 0 0 0 0 0 0 0 0 0 0 0 0 0 0 .4 0"/><feOffset dx="4.0" dy="4.0" in="blurOut2" result="blurOut3"/><feBlend in="SourceGraphic" in2="blurOut3" mode="normal"/></filter></defs><g><!--MD5=[99b8db98afdc2c8404e39242ef4c1e65]
class Platform--><rect fill="#FEFECE" filter="url(#f1ome5gjamndeq)" height="52.8047" id="Platform" style="stroke: #A80036; stroke-width: 1.5;" width="120" x="6" y="363.5"/><ellipse cx="37.2" cy="379.5" fill="#ADD1B2" rx="11" ry="11" style="stroke: #A80036; stroke-width: 1.0;"/><path d="M40.1688,385.1406 Q39.5906,385.4375 38.95,385.5859 Q38.3094,385.7344 37.6063,385.7344 Q35.1063,385.7344 33.7859,384.0859 Q32.4656,382.4375 32.4656,379.3125 Q32.4656,376.1875 33.7859,374.5313 Q35.1063,372.875 37.6063,372.875 Q38.3094,372.875 38.9578,373.0313 Q39.6063,373.1875 40.1688,373.4844 L40.1688,376.2031 Q39.5438,375.625 38.95,375.3516 Q38.3563,375.0781 37.7313,375.0781 Q36.3875,375.0781 35.7,376.1484 Q35.0125,377.2188 35.0125,379.3125 Q35.0125,381.4063 35.7,382.4766 Q36.3875,383.5469 37.7313,383.5469 Q38.3563,383.5469 38.95,383.2734 Q39.5438,383 40.1688,382.4219 L40.1688,385.1406 Z "/><text fill="#000000" font-family="sans-serif" font-size="12" lengthAdjust="spacingAndGlyphs" textLength="52" x="54.8" y="383.6543">Platform</text><line style="stroke: #A80036; stroke-width: 1.5;" x1="7" x2="125" y1="395.5" y2="395.5"/><text fill="#000000" font-family="sans-serif" font-size="11" lengthAdjust="spacingAndGlyphs" textLength="108" x="12" y="409.7104">-String designation</text><!--MD5=[86c7c362de55a38b660185a1328fe18d]
class Organization--><rect fill="#FEFECE" filter="url(#f1ome5gjamndeq)" height="52.8047" id="Organization" style="stroke: #A80036; stroke-width: 1.5;" width="110" x="293" y="88.5"/><ellipse cx="308" cy="104.5" fill="#ADD1B2" rx="11" ry="11" style="stroke: #A80036; stroke-width: 1.0;"/><path d="M310.9688,110.1406 Q310.3906,110.4375 309.75,110.5859 Q309.1094,110.7344 308.4063,110.7344 Q305.9063,110.7344 304.5859,109.0859 Q303.2656,107.4375 303.2656,104.3125 Q303.2656,101.1875 304.5859,99.5313 Q305.9063,97.875 308.4063,97.875 Q309.1094,97.875 309.7578,98.0313 Q310.4063,98.1875 310.9688,98.4844 L310.9688,101.2031 Q310.3438,100.625 309.75,100.3516 Q309.1563,100.0781 308.5313,100.0781 Q307.1875,100.0781 306.5,101.1484 Q305.8125,102.2188 305.8125,104.3125 Q305.8125,106.4063 306.5,107.4766 Q307.1875,108.5469 308.5313,108.5469 Q309.1563,108.5469 309.75,108.2734 Q310.3438,108 310.9688,107.4219 L310.9688,110.1406 Z "/><text fill="#000000" font-family="sans-serif" font-size="12" lengthAdjust="spacingAndGlyphs" textLength="78" x="322" y="108.6543">Organization</text><line style="stroke: #A80036; stroke-width: 1.5;" x1="294" x2="402" y1="120.5" y2="120.5"/><text fill="#000000" font-family="sans-serif" font-size="11" lengthAdjust="spacingAndGlyphs" textLength="74" x="299" y="134.7104">-String name</text><!--MD5=[f483d6e5de34a60207b28a5563be5e8b]
class Collaborator--><rect fill="#FEFECE" filter="url(#f1ome5gjamndeq)" height="65.6094" id="Collaborator" style="stroke: #A80036; stroke-width: 1.5;" width="109" x="563" y="139"/><ellipse cx="578" cy="155" fill="#ADD1B2" rx="11" ry="11" style="stroke: #A80036; stroke-width: 1.0;"/><path d="M580.9688,160.6406 Q580.3906,160.9375 579.75,161.0859 Q579.1094,161.2344 578.4063,161.2344 Q575.9063,161.2344 574.5859,159.5859 Q573.2656,157.9375 573.2656,154.8125 Q573.2656,151.6875 574.5859,150.0313 Q575.9063,148.375 578.4063,148.375 Q579.1094,148.375 579.7578,148.5313 Q580.4063,148.6875 580.9688,148.9844 L580.9688,151.7031 Q580.3438,151.125 579.75,150.8516 Q579.1563,150.5781 578.5313,150.5781 Q577.1875,150.5781 576.5,151.6484 Q575.8125,152.7188 575.8125,154.8125 Q575.8125,156.9063 576.5,157.9766 Q577.1875,159.0469 578.5313,159.0469 Q579.1563,159.0469 579.75,158.7734 Q580.3438,158.5 580.9688,157.9219 L580.9688,160.6406 Z "/><text fill="#000000" font-family="sans-serif" font-size="12" lengthAdjust="spacingAndGlyphs" textLength="77" x="592" y="159.1543">Collaborator</text><line style="stroke: #A80036; stroke-width: 1.5;" x1="564" x2="671" y1="171" y2="171"/><text fill="#000000" font-family="sans-serif" font-size="11" lengthAdjust="spacingAndGlyphs" textLength="74" x="569" y="185.2104">-String name</text><text fill="#000000" font-family="sans-serif" font-size="11" lengthAdjust="spacingAndGlyphs" textLength="73" x="569" y="198.0151">-String email</text><!--MD5=[3fd616f346a44cd59a91eb10b19e157c]
class User--><rect fill="#FEFECE" filter="url(#f1ome5gjamndeq)" height="65.6094" id="User" style="stroke: #A80036; stroke-width: 1.5;" width="110" x="1393" y="241"/><ellipse cx="1430.05" cy="257" fill="#ADD1B2" rx="11" ry="11" style="stroke: #A80036; stroke-width: 1.0;"/><path d="M1433.0188,262.6406 Q1432.4406,262.9375 1431.8,263.0859 Q1431.1594,263.2344 1430.4563,263.2344 Q1427.9563,263.2344 1426.6359,261.5859 Q1425.3156,259.9375 1425.3156,256.8125 Q1425.3156,253.6875 1426.6359,252.0313 Q1427.9563,250.375 1430.4563,250.375 Q1431.1594,250.375 1431.8078,250.5313 Q1432.4563,250.6875 1433.0188,250.9844 L1433.0188,253.7031 Q1432.3938,253.125 1431.8,252.8516 Q1431.2063,252.5781 1430.5813,252.5781 Q1429.2375,252.5781 1428.55,253.6484 Q1427.8625,254.7188 1427.8625,256.8125 Q1427.8625,258.9063 1428.55,259.9766 Q1429.2375,261.0469 1430.5813,261.0469 Q1431.2063,261.0469 1431.8,260.7734 Q1432.3938,260.5 1433.0188,259.9219 L1433.0188,262.6406 Z "/><text fill="#000000" font-family="sans-serif" font-size="12" lengthAdjust="spacingAndGlyphs" textLength="29" x="1448.95" y="261.1543">User</text><line style="stroke: #A80036; stroke-width: 1.5;" x1="1394" x2="1502" y1="273" y2="273"/><text fill="#000000" font-family="sans-serif" font-size="11" lengthAdjust="spacingAndGlyphs" textLength="73" x="1399" y="287.2104">-String email</text><text fill="#000000" font-family="sans-serif" font-size="11" lengthAdjust="spacingAndGlyphs" textLength="98" x="1399" y="300.0151">-String password</text><!--MD5=[1f687b5315377fe49fca59b457947463]
class Freelancer--><rect fill="#FEFECE" filter="url(#f1ome5gjamndeq)" height="142.4375" id="Freelancer" style="stroke: #A80036; stroke-width: 1.5;" width="136" x="1089" y="314"/><ellipse cx="1120.65" cy="330" fill="#ADD1B2" rx="11" ry="11" style="stroke: #A80036; stroke-width: 1.0;"/><path d="M1123.6188,335.6406 Q1123.0406,335.9375 1122.4,336.0859 Q1121.7594,336.2344 1121.0563,336.2344 Q1118.5563,336.2344 1117.2359,334.5859 Q1115.9156,332.9375 1115.9156,329.8125 Q1115.9156,326.6875 1117.2359,325.0313 Q1118.5563,323.375 1121.0563,323.375 Q1121.7594,323.375 1122.4078,323.5313 Q1123.0563,323.6875 1123.6188,323.9844 L1123.6188,326.7031 Q1122.9938,326.125 1122.4,325.8516 Q1121.8063,325.5781 1121.1813,325.5781 Q1119.8375,325.5781 1119.15,326.6484 Q1118.4625,327.7188 1118.4625,329.8125 Q1118.4625,331.9063 1119.15,332.9766 Q1119.8375,334.0469 1121.1813,334.0469 Q1121.8063,334.0469 1122.4,333.7734 Q1122.9938,333.5 1123.6188,332.9219 L1123.6188,335.6406 Z "/><text fill="#000000" font-family="sans-serif" font-size="12" lengthAdjust="spacingAndGlyphs" textLength="67" x="1138.35" y="334.1543">Freelancer</text><line style="stroke: #A80036; stroke-width: 1.5;" x1="1090" x2="1224" y1="346" y2="346"/><text fill="#000000" font-family="sans-serif" font-size="11" lengthAdjust="spacingAndGlyphs" textLength="52" x="1095" y="360.2104">-String id</text><text fill="#000000" font-family="sans-serif" font-size="11" lengthAdjust="spacingAndGlyphs" textLength="74" x="1095" y="373.0151">-String name</text><text fill="#000000" font-family="sans-serif" font-size="11" lengthAdjust="spacingAndGlyphs" textLength="124" x="1095" y="385.8198">-String expertiseLevel</text><text fill="#000000" font-family="sans-serif" font-size="11" lengthAdjust="spacingAndGlyphs" textLength="73" x="1095" y="398.6245">-String email</text><text fill="#000000" font-family="sans-serif" font-size="11" lengthAdjust="spacingAndGlyphs" textLength="59" x="1095" y="411.4292">-String NIF</text><text fill="#000000" font-family="sans-serif" font-size="11" lengthAdjust="spacingAndGlyphs" textLength="68" x="1095" y="424.2339">-String IBAN</text><text fill="#000000" font-family="sans-serif" font-size="11" lengthAdjust="spacingAndGlyphs" textLength="89" x="1095" y="437.0386">-String address</text><text fill="#000000" font-family="sans-serif" font-size="11" lengthAdjust="spacingAndGlyphs" textLength="84" x="1095" y="449.8433">-String country</text><!--MD5=[b34797a66dc35cbf1d65f7e3ca75530e]
class Task--><rect fill="#FEFECE" filter="url(#f1ome5gjamndeq)" height="104.0234" id="Task" style="stroke: #A80036; stroke-width: 1.5;" width="144" x="1085" y="8"/><ellipse cx="1138.25" cy="24" fill="#ADD1B2" rx="11" ry="11" style="stroke: #A80036; stroke-width: 1.0;"/><path d="M1141.2188,29.6406 Q1140.6406,29.9375 1140,30.0859 Q1139.3594,30.2344 1138.6563,30.2344 Q1136.1563,30.2344 1134.8359,28.5859 Q1133.5156,26.9375 1133.5156,23.8125 Q1133.5156,20.6875 1134.8359,19.0313 Q1136.1563,17.375 1138.6563,17.375 Q1139.3594,17.375 1140.0078,17.5313 Q1140.6563,17.6875 1141.2188,17.9844 L1141.2188,20.7031 Q1140.5938,20.125 1140,19.8516 Q1139.4063,19.5781 1138.7813,19.5781 Q1137.4375,19.5781 1136.75,20.6484 Q1136.0625,21.7188 1136.0625,23.8125 Q1136.0625,25.9063 1136.75,26.9766 Q1137.4375,28.0469 1138.7813,28.0469 Q1139.4063,28.0469 1140,27.7734 Q1140.5938,27.5 1141.2188,26.9219 L1141.2188,29.6406 Z "/><text fill="#000000" font-family="sans-serif" font-size="12" lengthAdjust="spacingAndGlyphs" textLength="29" x="1158.75" y="28.1543">Task</text><line style="stroke: #A80036; stroke-width: 1.5;" x1="1086" x2="1228" y1="40" y2="40"/><text fill="#000000" font-family="sans-serif" font-size="11" lengthAdjust="spacingAndGlyphs" textLength="52" x="1091" y="54.2104">-String id</text><text fill="#000000" font-family="sans-serif" font-size="11" lengthAdjust="spacingAndGlyphs" textLength="132" x="1091" y="67.0151">-String briefDescription</text><text fill="#000000" font-family="sans-serif" font-size="11" lengthAdjust="spacingAndGlyphs" textLength="121" x="1091" y="79.8198">-Integer timeDuration</text><text fill="#000000" font-family="sans-serif" font-size="11" lengthAdjust="spacingAndGlyphs" textLength="117" x="1091" y="92.6245">-Double costPerHour</text><text fill="#000000" font-family="sans-serif" font-size="11" lengthAdjust="spacingAndGlyphs" textLength="117" x="1091" y="105.4292">-String taskCategory</text><!--MD5=[5ce80547de3caced9d0089e35ded5090]
class TaskExecution--><rect fill="#FEFECE" filter="url(#f1ome5gjamndeq)" height="78.4141" id="TaskExecution" style="stroke: #A80036; stroke-width: 1.5;" width="184" x="1356" y="113"/><ellipse cx="1398.9" cy="129" fill="#ADD1B2" rx="11" ry="11" style="stroke: #A80036; stroke-width: 1.0;"/><path d="M1401.8688,134.6406 Q1401.2906,134.9375 1400.65,135.0859 Q1400.0094,135.2344 1399.3063,135.2344 Q1396.8063,135.2344 1395.4859,133.5859 Q1394.1656,131.9375 1394.1656,128.8125 Q1394.1656,125.6875 1395.4859,124.0313 Q1396.8063,122.375 1399.3063,122.375 Q1400.0094,122.375 1400.6578,122.5313 Q1401.3063,122.6875 1401.8688,122.9844 L1401.8688,125.7031 Q1401.2438,125.125 1400.65,124.8516 Q1400.0563,124.5781 1399.4313,124.5781 Q1398.0875,124.5781 1397.4,125.6484 Q1396.7125,126.7188 1396.7125,128.8125 Q1396.7125,130.9063 1397.4,131.9766 Q1398.0875,133.0469 1399.4313,133.0469 Q1400.0563,133.0469 1400.65,132.7734 Q1401.2438,132.5 1401.8688,131.9219 L1401.8688,134.6406 Z "/><text fill="#000000" font-family="sans-serif" font-size="12" lengthAdjust="spacingAndGlyphs" textLength="90" x="1419.1" y="133.1543">TaskExecution</text><line style="stroke: #A80036; stroke-width: 1.5;" x1="1357" x2="1539" y1="145" y2="145"/><text fill="#000000" font-family="sans-serif" font-size="11" lengthAdjust="spacingAndGlyphs" textLength="81" x="1362" y="159.2104">-Date endDate</text><text fill="#000000" font-family="sans-serif" font-size="11" lengthAdjust="spacingAndGlyphs" textLength="77" x="1362" y="172.0151">-Double delay</text><text fill="#000000" font-family="sans-serif" font-size="11" lengthAdjust="spacingAndGlyphs" textLength="172" x="1362" y="184.8198">-String workQualityDescription</text><!--MD5=[b645a18afb25b7e5623af7186d8eb36f]
class PaymentTransaction--><rect fill="#FEFECE" filter="url(#f1ome5gjamndeq)" height="40" id="PaymentTransaction" style="stroke: #A80036; stroke-width: 1.5;" width="160" x="788" y="144"/><ellipse cx="803" cy="160" fill="#ADD1B2" rx="11" ry="11" style="stroke: #A80036; stroke-width: 1.0;"/><path d="M805.9688,165.6406 Q805.3906,165.9375 804.75,166.0859 Q804.1094,166.2344 803.4063,166.2344 Q800.9063,166.2344 799.5859,164.5859 Q798.2656,162.9375 798.2656,159.8125 Q798.2656,156.6875 799.5859,155.0313 Q800.9063,153.375 803.4063,153.375 Q804.1094,153.375 804.7578,153.5313 Q805.4063,153.6875 805.9688,153.9844 L805.9688,156.7031 Q805.3438,156.125 804.75,155.8516 Q804.1563,155.5781 803.5313,155.5781 Q802.1875,155.5781 801.5,156.6484 Q800.8125,157.7188 800.8125,159.8125 Q800.8125,161.9063 801.5,162.9766 Q802.1875,164.0469 803.5313,164.0469 Q804.1563,164.0469 804.75,163.7734 Q805.3438,163.5 805.9688,162.9219 L805.9688,165.6406 Z "/><text fill="#000000" font-family="sans-serif" font-size="12" lengthAdjust="spacingAndGlyphs" textLength="128" x="817" y="164.1543">PaymentTransaction</text><line style="stroke: #A80036; stroke-width: 1.5;" x1="789" x2="947" y1="176" y2="176"/><!--MD5=[7640e466c042ba2d6f9c19c816f7f0fc]
link Platform to Organization--><path d="M93.2956,363.382 C147.2033,310.8124 266.7694,194.2142 320.6894,141.6327 " fill="none" id="Platform-Organization" style="stroke: #A80036; stroke-width: 1.0;"/><text fill="#000000" font-family="sans-serif" font-size="13" lengthAdjust="spacingAndGlyphs" textLength="92" x="157" y="199.0669">has registered</text><polygon fill="#000000" points="252,193.0664,258,196.0664,252,199.0664,252,193.0664" style="stroke: #000000; stroke-width: 1.0;"/><text fill="#000000" font-family="sans-serif" font-size="13" lengthAdjust="spacingAndGlyphs" textLength="8" x="90.6827" y="352.597">1</text><text fill="#000000" font-family="sans-serif" font-size="13" lengthAdjust="spacingAndGlyphs" textLength="7" x="306.9496" y="161.202">*</text><!--MD5=[22697d4d863c2e08ab1d60ca0d61f844]
link Platform to Freelancer--><path d="M126.0526,399.7776 C183.0182,408.1967 271.0992,419 348,419 C348,419 348,419 868,419 C944.0321,419 1030.5499,407.2491 1088.9467,397.5637 " fill="none" id="Platform-Freelancer" style="stroke: #A80036; stroke-width: 1.0;"/><text fill="#000000" font-family="sans-serif" font-size="13" lengthAdjust="spacingAndGlyphs" textLength="57" x="582.5" y="415.0669">has/uses</text><polygon fill="#000000" points="642.5,409.0664,648.5,412.0664,642.5,415.0664,642.5,409.0664" style="stroke: #000000; stroke-width: 1.0;"/><text fill="#000000" font-family="sans-serif" font-size="13" lengthAdjust="spacingAndGlyphs" textLength="8" x="133.859" y="413.9702">1</text><text fill="#000000" font-family="sans-serif" font-size="13" lengthAdjust="spacingAndGlyphs" textLength="7" x="1074.1206" y="411.8084">*</text><!--MD5=[45817597bcd7048073a670d966abfd17]
link Organization to Collaborator--><path d="M376.2213,141.6282 C391.7065,154.3943 411.9956,168.3335 433,175 C475.1375,188.3739 525.4591,186.4573 562.8966,181.849 " fill="none" id="Organization-Collaborator" style="stroke: #A80036; stroke-width: 1.0;"/><text fill="#000000" font-family="sans-serif" font-size="13" lengthAdjust="spacingAndGlyphs" textLength="23" x="465" y="171.0669">has</text><polygon fill="#000000" points="491,165.0664,497,168.0664,491,171.0664,491,165.0664" style="stroke: #000000; stroke-width: 1.0;"/><text fill="#000000" font-family="sans-serif" font-size="13" lengthAdjust="spacingAndGlyphs" textLength="8" x="373.5197" y="161.1965">1</text><text fill="#000000" font-family="sans-serif" font-size="13" lengthAdjust="spacingAndGlyphs" textLength="8" x="547.0218" y="196.2823">1</text><!--MD5=[45817597bcd7048073a670d966abfd17]
link Organization to Collaborator--><path d="M403.0525,126.5739 C439.8467,134.3171 489.3292,144.7455 533,154 C542.6845,156.0523 552.9919,158.2428 562.9573,160.3638 " fill="none" id="Organization-Collaborator-1" style="stroke: #A80036; stroke-width: 1.0;"/><text fill="#000000" font-family="sans-serif" font-size="13" lengthAdjust="spacingAndGlyphs" textLength="85" x="434" y="129.0669">has manager</text><polygon fill="#000000" points="522,123.0664,528,126.0664,522,129.0664,522,123.0664" style="stroke: #000000; stroke-width: 1.0;"/><text fill="#000000" font-family="sans-serif" font-size="13" lengthAdjust="spacingAndGlyphs" textLength="8" x="410.9877" y="141.2259">1</text><text fill="#000000" font-family="sans-serif" font-size="13" lengthAdjust="spacingAndGlyphs" textLength="8" x="547.0906" y="171.9101">1</text><!--MD5=[4078351e3988aa35b1504a42837f2ab1]
link Organization to Task--><path d="M403.4133,89.8218 C413.105,86.2937 423.2195,83.1452 433,81 C669.9099,29.0367 735.5382,59.2243 978,53 C1012.211,52.1218 1020.7979,51.8278 1055,53 C1064.6681,53.3314 1074.8425,53.8389 1084.8696,54.4326 " fill="none" id="Organization-Task" style="stroke: #A80036; stroke-width: 1.0;"/><text fill="#000000" font-family="sans-serif" font-size="13" lengthAdjust="spacingAndGlyphs" textLength="23" x="712" y="46.0669">has</text><polygon fill="#000000" points="738,40.0664,744,43.0664,738,46.0664,738,40.0664" style="stroke: #000000; stroke-width: 1.0;"/><text fill="#000000" font-family="sans-serif" font-size="13" lengthAdjust="spacingAndGlyphs" textLength="8" x="411.0256" y="99.6447">1</text><text fill="#000000" font-family="sans-serif" font-size="13" lengthAdjust="spacingAndGlyphs" textLength="7" x="1070.0702" y="50.1576">*</text><!--MD5=[da2d560b3f89d8c66478284968d27dfa]
link Organization to PaymentTransaction--><path d="M403.2843,109.7848 C413.1708,109.0411 423.3836,108.3953 433,108 C539.3145,103.6297 566.8835,105.4958 672,122 C710.3327,128.0186 752.4554,136.7618 787.795,144.7146 " fill="none" id="Organization-PaymentTransaction" style="stroke: #A80036; stroke-width: 1.0;"/><text fill="#000000" font-family="sans-serif" font-size="13" lengthAdjust="spacingAndGlyphs" textLength="23" x="599.5" y="104.0669">has</text><polygon fill="#000000" points="625.5,98.0664,631.5,101.0664,625.5,104.0664,625.5,98.0664" style="stroke: #000000; stroke-width: 1.0;"/><text fill="#000000" font-family="sans-serif" font-size="13" lengthAdjust="spacingAndGlyphs" textLength="8" x="410.8801" y="122.1655">1</text><text fill="#000000" font-family="sans-serif" font-size="13" lengthAdjust="spacingAndGlyphs" textLength="7" x="773.0784" y="155.7011">*</text><!--MD5=[04ce0ecdab38a3951889ff50c232570f]
link Collaborator to User--><path d="M672.2126,191.1245 C742.1122,214.4933 867.3147,252.7957 978,268 C1126.7542,288.4337 1304.477,282.5936 1392.6794,277.6922 " fill="none" id="Collaborator-User" style="stroke: #A80036; stroke-width: 1.0;"/><text fill="#000000" font-family="sans-serif" font-size="13" lengthAdjust="spacingAndGlyphs" textLength="52" x="984" y="264.0669">acts like</text><polygon fill="#000000" points="1039,258.0664,1045,261.0664,1039,264.0664,1039,258.0664" style="stroke: #000000; stroke-width: 1.0;"/><text fill="#000000" font-family="sans-serif" font-size="13" lengthAdjust="spacingAndGlyphs" textLength="24" x="679.9262" y="206.3001">0..1</text><text fill="#000000" font-family="sans-serif" font-size="13" lengthAdjust="spacingAndGlyphs" textLength="8" x="1377.0789" y="291.2266">1</text><!--MD5=[65ab54bb4516ebbc699d18e0b28e9aea]
link Freelancer to User--><path d="M1225.2266,358.9754 C1276.2955,339.4955 1345.2564,313.1909 1392.8588,295.0332 " fill="none" id="Freelancer-User" style="stroke: #A80036; stroke-width: 1.0;"/><text fill="#000000" font-family="sans-serif" font-size="13" lengthAdjust="spacingAndGlyphs" textLength="52" x="1260" y="318.0669">acts like</text><polygon fill="#000000" points="1315,312.0664,1321,315.0664,1315,318.0664,1315,312.0664" style="stroke: #000000; stroke-width: 1.0;"/><text fill="#000000" font-family="sans-serif" font-size="13" lengthAdjust="spacingAndGlyphs" textLength="24" x="1233.1239" y="369.2038">0..1</text><text fill="#000000" font-family="sans-serif" font-size="13" lengthAdjust="spacingAndGlyphs" textLength="8" x="1376.9117" y="310.9694">1</text><!--MD5=[d2c3650dbd07e79cdad2ffd4a879dec6]
link Collaborator to Freelancer--><path d="M633.3498,205.2262 C647.6299,231.5092 671.1173,267.003 702,287 C822.393,364.956 994.5748,381.9222 1088.8502,384.9971 " fill="none" id="Collaborator-Freelancer" style="stroke: #A80036; stroke-width: 1.0;"/><text fill="#000000" font-family="sans-serif" font-size="13" lengthAdjust="spacingAndGlyphs" textLength="41" x="841" y="326.0669">create</text><polygon fill="#000000" points="885,320.0664,891,323.0664,885,326.0664,885,320.0664" style="stroke: #000000; stroke-width: 1.0;"/><text fill="#000000" font-family="sans-serif" font-size="13" lengthAdjust="spacingAndGlyphs" textLength="8" x="627.4605" y="224.5941">1</text><text fill="#000000" font-family="sans-serif" font-size="13" lengthAdjust="spacingAndGlyphs" textLength="7" x="1074.0135" y="381.2267">*</text><!--MD5=[f919d21ae7a75ef5ececc535e09d5009]
link Collaborator to Task--><path d="M672.1252,151.2813 C681.9891,147.9204 692.2403,144.6715 702,142 C834.965,105.6042 994.3156,81.1356 1084.7995,68.9722 " fill="none" id="Collaborator-Task" style="stroke: #A80036; stroke-width: 1.0;"/><text fill="#000000" font-family="sans-serif" font-size="13" lengthAdjust="spacingAndGlyphs" textLength="41" x="841" y="86.0669">create</text><polygon fill="#000000" points="885,80.0664,891,83.0664,885,86.0664,885,80.0664" style="stroke: #000000; stroke-width: 1.0;"/><text fill="#000000" font-family="sans-serif" font-size="13" lengthAdjust="spacingAndGlyphs" textLength="8" x="680.003" y="161.6071">1</text><text fill="#000000" font-family="sans-serif" font-size="13" lengthAdjust="spacingAndGlyphs" textLength="7" x="1069.9929" y="82.7434">*</text><!--MD5=[c32d3c60a61e5638fef4971a1b3a8306]
link Collaborator to PaymentTransaction--><path d="M672.1637,170.2543 C705.9941,169.1738 750.0254,167.7677 787.7666,166.5623 " fill="none" id="Collaborator-PaymentTransaction" style="stroke: #A80036; stroke-width: 1.0;"/><text fill="#000000" font-family="sans-serif" font-size="13" lengthAdjust="spacingAndGlyphs" textLength="41" x="703" y="163.0669">create</text><polygon fill="#000000" points="747,157.0664,753,160.0664,747,163.0664,747,157.0664" style="stroke: #000000; stroke-width: 1.0;"/><text fill="#000000" font-family="sans-serif" font-size="13" lengthAdjust="spacingAndGlyphs" textLength="8" x="680.0466" y="183.1296">1</text><text fill="#000000" font-family="sans-serif" font-size="13" lengthAdjust="spacingAndGlyphs" textLength="7" x="773.0474" y="179.5629">*</text><!--MD5=[f6802b286771c18a16ea4be983074371]
link PaymentTransaction to Freelancer--><path d="M919.6627,184.1547 C971.0339,204.4617 1043.777,234.0388 1055,243 C1079.1944,262.3183 1100.3017,288.7852 1116.9409,313.6373 " fill="none" id="PaymentTransaction-Freelancer" style="stroke: #A80036; stroke-width: 1.0;"/><text fill="#000000" font-family="sans-serif" font-size="13" lengthAdjust="spacingAndGlyphs" textLength="62" x="979" y="205.0669">related to</text><polygon fill="#000000" points="1044,199.0664,1050,202.0664,1044,205.0664,1044,199.0664" style="stroke: #000000; stroke-width: 1.0;"/><text fill="#000000" font-family="sans-serif" font-size="13" lengthAdjust="spacingAndGlyphs" textLength="8" x="925.0678" y="204.0182">1</text><text fill="#000000" font-family="sans-serif" font-size="13" lengthAdjust="spacingAndGlyphs" textLength="8" x="1104.6038" y="302.9262">1</text><!--MD5=[271ce7fefd7250ebaca83b70495774bd]
link PaymentTransaction to Task--><path d="M946.7297,143.8964 C980.4831,134.4969 1020.0958,122.4155 1055,109 C1064.8107,105.2292 1074.9757,100.8945 1084.9183,96.3961 " fill="none" id="PaymentTransaction-Task" style="stroke: #A80036; stroke-width: 1.0;"/><text fill="#000000" font-family="sans-serif" font-size="13" lengthAdjust="spacingAndGlyphs" textLength="62" x="979" y="105.0669">related to</text><polygon fill="#000000" points="1044,99.0664,1050,102.0664,1044,105.0664,1044,99.0664" style="stroke: #000000; stroke-width: 1.0;"/><text fill="#000000" font-family="sans-serif" font-size="13" lengthAdjust="spacingAndGlyphs" textLength="8" x="956.0109" y="134.5953">1</text><text fill="#000000" font-family="sans-serif" font-size="13" lengthAdjust="spacingAndGlyphs" textLength="8" x="1069.0724" y="112.9954">1</text><!--MD5=[ccf9e4a23b86a8fcbc3774eff83a0cb7]
link PaymentTransaction to TaskExecution--><path d="M948.0376,162.3441 C1054.7837,160.1355 1243.3336,156.2345 1355.8764,153.906 " fill="none" id="PaymentTransaction-TaskExecution" style="stroke: #A80036; stroke-width: 1.0;"/><text fill="#000000" font-family="sans-serif" font-size="13" lengthAdjust="spacingAndGlyphs" textLength="62" x="1119.5" y="152.0669">related to</text><polygon fill="#000000" points="1184.5,146.0664,1190.5,149.0664,1184.5,152.0664,1184.5,146.0664" style="stroke: #000000; stroke-width: 1.0;"/><text fill="#000000" font-family="sans-serif" font-size="13" lengthAdjust="spacingAndGlyphs" textLength="8" x="956.0474" y="174.9743">1</text><text fill="#000000" font-family="sans-serif" font-size="13" lengthAdjust="spacingAndGlyphs" textLength="8" x="1339.9162" y="166.7402">1</text><!--MD5=[bdc7b78a1b1f03a53fec8289ba75cac4]
link Task to TaskExecution--><path d="M1229.3065,82.8598 C1267.6008,94.9666 1315.0417,109.9651 1355.9402,122.8952 " fill="none" id="Task-TaskExecution" style="stroke: #A80036; stroke-width: 1.0;"/><text fill="#000000" font-family="sans-serif" font-size="13" lengthAdjust="spacingAndGlyphs" textLength="23" x="1274.5" y="89.0669">has</text><polygon fill="#000000" points="1300.5,83.0664,1306.5,86.0664,1300.5,89.0664,1300.5,83.0664" style="stroke: #000000; stroke-width: 1.0;"/><text fill="#000000" font-family="sans-serif" font-size="13" lengthAdjust="spacingAndGlyphs" textLength="8" x="1237.1756" y="98.0632">1</text><text fill="#000000" font-family="sans-serif" font-size="13" lengthAdjust="spacingAndGlyphs" textLength="8" x="1339.9852" y="133.1613">1</text><!--MD5=[88e5dbb957571c1b456de04bfb7a3fc9]
@startuml
skinparam classAttributeIconSize 0
hide methods
left to right direction

class Platform {
  -String designation
}

class Organization {
  -String name
}

class Collaborator {
  -String name
  -String email
}


class User {
  -String email
  -String password
}

class Freelancer {
  -String id
  -String name
  -String expertiseLevel
  -String email
  -String NIF
  -String IBAN
  -String address
  -String country
  }

class Task {
 -String id
 -String briefDescription
 -Integer timeDuration
 -Double costPerHour
 -String taskCategory
}

class TaskExecution {
 -Date endDate
 -Double delay
 -String workQualityDescription
}

class PaymentTransaction{
}

Platform "1" - - "*" Organization : has registered >
Platform "1" - - "*" Freelancer : has/uses >
Organization "1" - - "1" Collaborator: has >
Organization "1" - - "1" Collaborator: has manager >
Organization "1" - - "*" Task: has >
Organization "1" - - "*" PaymentTransaction: has >
Collaborator "0..1" - - "1" User: acts like >
Freelancer "0..1" - - "1" User: acts like >
Collaborator "1" - - "*" Freelancer: create >
Collaborator "1" - - "*" Task: create >
Collaborator "1" - - "*" PaymentTransaction: create >
PaymentTransaction "1" - - "1" Freelancer: related to >
PaymentTransaction "1" - - "1" Task: related to >
PaymentTransaction "1" - - "1" TaskExecution: related to >
Task "1" - - "1" TaskExecution: has >
@enduml

PlantUML version 1.2019.12(Sun Nov 03 10:24:54 UTC 2019)
(GPL source distribution)
Java Runtime: OpenJDK Runtime Environment
JVM: OpenJDK 64-Bit Server VM
Java Version: 1.8.0_232-heroku-b09
Operating System: Linux
Default Encoding: UTF-8
Language: en
Country: US
--></g></svg>