<?xml version="1.0" encoding="UTF-8" standalone="no"?><svg xmlns="http://www.w3.org/2000/svg" xmlns:xlink="http://www.w3.org/1999/xlink" contentScriptType="application/ecmascript" contentStyleType="text/css" height="1306px" preserveAspectRatio="none" style="width:1076px;height:1306px;" version="1.1" viewBox="0 0 1076 1306" width="1076px" zoomAndPan="magnify"><defs><filter height="300%" id="fbf545kg9v4gy" width="300%" x="-1" y="-1"><feGaussianBlur result="blurOut" stdDeviation="2.0"/><feColorMatrix in="blurOut" result="blurOut2" type="matrix" values="0 0 0 0 0 0 0 0 0 0 0 0 0 0 0 0 0 0 .4 0"/><feOffset dx="4.0" dy="4.0" in="blurOut2" result="blurOut3"/><feBlend in="SourceGraphic" in2="blurOut3" mode="normal"/></filter></defs><g><!--MD5=[52de6b799a0982f4494b9c19495c1271]
class POTApplication--><rect fill="#FEFECE" filter="url(#fbf545kg9v4gy)" height="73.6094" id="POTApplication" style="stroke: #A80036; stroke-width: 1.5;" width="136" x="6" y="283"/><ellipse cx="25.95" cy="299" fill="#ADD1B2" rx="11" ry="11" style="stroke: #A80036; stroke-width: 1.0;"/><path d="M28.9188,304.6406 Q28.3406,304.9375 27.7,305.0859 Q27.0594,305.2344 26.3563,305.2344 Q23.8563,305.2344 22.5359,303.5859 Q21.2156,301.9375 21.2156,298.8125 Q21.2156,295.6875 22.5359,294.0313 Q23.8563,292.375 26.3563,292.375 Q27.0594,292.375 27.7078,292.5313 Q28.3563,292.6875 28.9188,292.9844 L28.9188,295.7031 Q28.2938,295.125 27.7,294.8516 Q27.1063,294.5781 26.4813,294.5781 Q25.1375,294.5781 24.45,295.6484 Q23.7625,296.7188 23.7625,298.8125 Q23.7625,300.9063 24.45,301.9766 Q25.1375,303.0469 26.4813,303.0469 Q27.1063,303.0469 27.7,302.7734 Q28.2938,302.5 28.9188,301.9219 L28.9188,304.6406 Z "/><text fill="#000000" font-family="sans-serif" font-size="12" lengthAdjust="spacingAndGlyphs" textLength="93" x="41.05" y="303.1543">POTApplication</text><line style="stroke: #A80036; stroke-width: 1.5;" x1="7" x2="141" y1="315" y2="315"/><line style="stroke: #A80036; stroke-width: 1.5;" x1="7" x2="141" y1="323" y2="323"/><text fill="#000000" font-family="sans-serif" font-size="11" lengthAdjust="spacingAndGlyphs" textLength="118" x="12" y="337.2104">+static getInstance()</text><text fill="#000000" font-family="sans-serif" font-size="11" lengthAdjust="spacingAndGlyphs" textLength="124" x="12" y="350.0151">+getCurrentSession()</text><!--MD5=[c5b08e60048ef1bcd788d24cf324082e]
class UserSession--><rect fill="#FEFECE" filter="url(#fbf545kg9v4gy)" height="60.8047" id="UserSession" style="stroke: #A80036; stroke-width: 1.5;" width="110" x="177" y="289.5"/><ellipse cx="192" cy="305.5" fill="#ADD1B2" rx="11" ry="11" style="stroke: #A80036; stroke-width: 1.0;"/><path d="M194.9688,311.1406 Q194.3906,311.4375 193.75,311.5859 Q193.1094,311.7344 192.4063,311.7344 Q189.9063,311.7344 188.5859,310.0859 Q187.2656,308.4375 187.2656,305.3125 Q187.2656,302.1875 188.5859,300.5313 Q189.9063,298.875 192.4063,298.875 Q193.1094,298.875 193.7578,299.0313 Q194.4063,299.1875 194.9688,299.4844 L194.9688,302.2031 Q194.3438,301.625 193.75,301.3516 Q193.1563,301.0781 192.5313,301.0781 Q191.1875,301.0781 190.5,302.1484 Q189.8125,303.2188 189.8125,305.3125 Q189.8125,307.4063 190.5,308.4766 Q191.1875,309.5469 192.5313,309.5469 Q193.1563,309.5469 193.75,309.2734 Q194.3438,309 194.9688,308.4219 L194.9688,311.1406 Z "/><text fill="#000000" font-family="sans-serif" font-size="12" lengthAdjust="spacingAndGlyphs" textLength="78" x="206" y="309.6543">UserSession</text><line style="stroke: #A80036; stroke-width: 1.5;" x1="178" x2="286" y1="321.5" y2="321.5"/><line style="stroke: #A80036; stroke-width: 1.5;" x1="178" x2="286" y1="329.5" y2="329.5"/><text fill="#000000" font-family="sans-serif" font-size="11" lengthAdjust="spacingAndGlyphs" textLength="93" x="183" y="343.7104">+getUserEmail()</text><!--MD5=[b34797a66dc35cbf1d65f7e3ca75530e]
class Task--><rect fill="#FEFECE" filter="url(#fbf545kg9v4gy)" height="124.8281" id="Task" style="stroke: #A80036; stroke-width: 1.5;" width="150" x="529" y="943"/><ellipse cx="585.25" cy="959" fill="#ADD1B2" rx="11" ry="11" style="stroke: #A80036; stroke-width: 1.0;"/><path d="M588.2188,964.6406 Q587.6406,964.9375 587,965.0859 Q586.3594,965.2344 585.6563,965.2344 Q583.1563,965.2344 581.8359,963.5859 Q580.5156,961.9375 580.5156,958.8125 Q580.5156,955.6875 581.8359,954.0313 Q583.1563,952.375 585.6563,952.375 Q586.3594,952.375 587.0078,952.5313 Q587.6563,952.6875 588.2188,952.9844 L588.2188,955.7031 Q587.5938,955.125 587,954.8516 Q586.4063,954.5781 585.7813,954.5781 Q584.4375,954.5781 583.75,955.6484 Q583.0625,956.7188 583.0625,958.8125 Q583.0625,960.9063 583.75,961.9766 Q584.4375,963.0469 585.7813,963.0469 Q586.4063,963.0469 587,962.7734 Q587.5938,962.5 588.2188,961.9219 L588.2188,964.6406 Z "/><text fill="#000000" font-family="sans-serif" font-size="12" lengthAdjust="spacingAndGlyphs" textLength="29" x="605.75" y="963.1543">Task</text><line style="stroke: #A80036; stroke-width: 1.5;" x1="530" x2="678" y1="975" y2="975"/><text fill="#000000" font-family="sans-serif" font-size="11" lengthAdjust="spacingAndGlyphs" textLength="52" x="535" y="989.2104">-String id</text><text fill="#000000" font-family="sans-serif" font-size="11" lengthAdjust="spacingAndGlyphs" textLength="132" x="535" y="1002.0151">-String briefDescription</text><text fill="#000000" font-family="sans-serif" font-size="11" lengthAdjust="spacingAndGlyphs" textLength="121" x="535" y="1014.8198">-Integer timeDuration</text><text fill="#000000" font-family="sans-serif" font-size="11" lengthAdjust="spacingAndGlyphs" textLength="117" x="535" y="1027.6245">-Double costPerHour</text><text fill="#000000" font-family="sans-serif" font-size="11" lengthAdjust="spacingAndGlyphs" textLength="117" x="535" y="1040.4292">-String taskCategory</text><line style="stroke: #A80036; stroke-width: 1.5;" x1="530" x2="678" y1="1047.0234" y2="1047.0234"/><text fill="#000000" font-family="sans-serif" font-size="11" lengthAdjust="spacingAndGlyphs" textLength="138" x="535" y="1061.2339">+getTaskExecData(task)</text><!--MD5=[1f687b5315377fe49fca59b457947463]
class Freelancer--><rect fill="#FEFECE" filter="url(#fbf545kg9v4gy)" height="150.4375" id="Freelancer" style="stroke: #A80036; stroke-width: 1.5;" width="136" x="681" y="1145"/><ellipse cx="712.65" cy="1161" fill="#ADD1B2" rx="11" ry="11" style="stroke: #A80036; stroke-width: 1.0;"/><path d="M715.6188,1166.6406 Q715.0406,1166.9375 714.4,1167.0859 Q713.7594,1167.2344 713.0563,1167.2344 Q710.5563,1167.2344 709.2359,1165.5859 Q707.9156,1163.9375 707.9156,1160.8125 Q707.9156,1157.6875 709.2359,1156.0313 Q710.5563,1154.375 713.0563,1154.375 Q713.7594,1154.375 714.4078,1154.5313 Q715.0563,1154.6875 715.6188,1154.9844 L715.6188,1157.7031 Q714.9938,1157.125 714.4,1156.8516 Q713.8063,1156.5781 713.1813,1156.5781 Q711.8375,1156.5781 711.15,1157.6484 Q710.4625,1158.7188 710.4625,1160.8125 Q710.4625,1162.9063 711.15,1163.9766 Q711.8375,1165.0469 713.1813,1165.0469 Q713.8063,1165.0469 714.4,1164.7734 Q714.9938,1164.5 715.6188,1163.9219 L715.6188,1166.6406 Z "/><text fill="#000000" font-family="sans-serif" font-size="12" lengthAdjust="spacingAndGlyphs" textLength="67" x="730.35" y="1165.1543">Freelancer</text><line style="stroke: #A80036; stroke-width: 1.5;" x1="682" x2="816" y1="1177" y2="1177"/><text fill="#000000" font-family="sans-serif" font-size="11" lengthAdjust="spacingAndGlyphs" textLength="52" x="687" y="1191.2104">-String id</text><text fill="#000000" font-family="sans-serif" font-size="11" lengthAdjust="spacingAndGlyphs" textLength="74" x="687" y="1204.0151">-String name</text><text fill="#000000" font-family="sans-serif" font-size="11" lengthAdjust="spacingAndGlyphs" textLength="124" x="687" y="1216.8198">-String expertiseLevel</text><text fill="#000000" font-family="sans-serif" font-size="11" lengthAdjust="spacingAndGlyphs" textLength="73" x="687" y="1229.6245">-String email</text><text fill="#000000" font-family="sans-serif" font-size="11" lengthAdjust="spacingAndGlyphs" textLength="59" x="687" y="1242.4292">-String NIF</text><text fill="#000000" font-family="sans-serif" font-size="11" lengthAdjust="spacingAndGlyphs" textLength="68" x="687" y="1255.2339">-String IBAN</text><text fill="#000000" font-family="sans-serif" font-size="11" lengthAdjust="spacingAndGlyphs" textLength="89" x="687" y="1268.0386">-String address</text><text fill="#000000" font-family="sans-serif" font-size="11" lengthAdjust="spacingAndGlyphs" textLength="84" x="687" y="1280.8433">-String country</text><line style="stroke: #A80036; stroke-width: 1.5;" x1="682" x2="816" y1="1287.4375" y2="1287.4375"/><!--MD5=[86c7c362de55a38b660185a1328fe18d]
class Organization--><rect fill="#FEFECE" filter="url(#fbf545kg9v4gy)" height="150.4375" id="Organization" style="stroke: #A80036; stroke-width: 1.5;" width="352" x="393" y="578"/><ellipse cx="525.75" cy="594" fill="#ADD1B2" rx="11" ry="11" style="stroke: #A80036; stroke-width: 1.0;"/><path d="M528.7188,599.6406 Q528.1406,599.9375 527.5,600.0859 Q526.8594,600.2344 526.1563,600.2344 Q523.6563,600.2344 522.3359,598.5859 Q521.0156,596.9375 521.0156,593.8125 Q521.0156,590.6875 522.3359,589.0313 Q523.6563,587.375 526.1563,587.375 Q526.8594,587.375 527.5078,587.5313 Q528.1563,587.6875 528.7188,587.9844 L528.7188,590.7031 Q528.0938,590.125 527.5,589.8516 Q526.9063,589.5781 526.2813,589.5781 Q524.9375,589.5781 524.25,590.6484 Q523.5625,591.7188 523.5625,593.8125 Q523.5625,595.9063 524.25,596.9766 Q524.9375,598.0469 526.2813,598.0469 Q526.9063,598.0469 527.5,597.7734 Q528.0938,597.5 528.7188,596.9219 L528.7188,599.6406 Z "/><text fill="#000000" font-family="sans-serif" font-size="12" lengthAdjust="spacingAndGlyphs" textLength="78" x="546.25" y="598.1543">Organization</text><line style="stroke: #A80036; stroke-width: 1.5;" x1="394" x2="744" y1="610" y2="610"/><text fill="#000000" font-family="sans-serif" font-size="11" lengthAdjust="spacingAndGlyphs" textLength="74" x="399" y="624.2104">-String name</text><text fill="#000000" font-family="sans-serif" font-size="11" lengthAdjust="spacingAndGlyphs" textLength="59" x="399" y="637.0151">-String NIF</text><line style="stroke: #A80036; stroke-width: 1.5;" x1="394" x2="744" y1="643.6094" y2="643.6094"/><text fill="#000000" font-family="sans-serif" font-size="11" lengthAdjust="spacingAndGlyphs" textLength="89" x="399" y="657.8198">+getTasksList()</text><text fill="#000000" font-family="sans-serif" font-size="11" lengthAdjust="spacingAndGlyphs" textLength="186" x="399" y="670.6245">+generatePayAmount(task, free)</text><text fill="#000000" font-family="sans-serif" font-size="11" lengthAdjust="spacingAndGlyphs" textLength="340" x="399" y="683.4292">+newPaymentTransaction(task, taskExec, free, payAmount)</text><text fill="#000000" font-family="sans-serif" font-size="11" lengthAdjust="spacingAndGlyphs" textLength="204" x="399" y="696.2339">+validatePaymentTransaction(payT)</text><text fill="#000000" font-family="sans-serif" font-size="11" lengthAdjust="spacingAndGlyphs" textLength="207" x="399" y="709.0386">+paymentTransactionRegister(payT)</text><text fill="#000000" font-family="sans-serif" font-size="11" lengthAdjust="spacingAndGlyphs" textLength="181" x="399" y="721.8433">+addPaymentTransaction(payT)</text><!--MD5=[bfe5ad1e6c67e1aa0bfa76859c3b49e3]
class TasksList--><rect fill="#FEFECE" filter="url(#fbf545kg9v4gy)" height="60.8047" id="TasksList" style="stroke: #A80036; stroke-width: 1.5;" width="121" x="260.5" y="805"/><ellipse cx="289.9" cy="821" fill="#ADD1B2" rx="11" ry="11" style="stroke: #A80036; stroke-width: 1.0;"/><path d="M292.8688,826.6406 Q292.2906,826.9375 291.65,827.0859 Q291.0094,827.2344 290.3063,827.2344 Q287.8063,827.2344 286.4859,825.5859 Q285.1656,823.9375 285.1656,820.8125 Q285.1656,817.6875 286.4859,816.0313 Q287.8063,814.375 290.3063,814.375 Q291.0094,814.375 291.6578,814.5313 Q292.3063,814.6875 292.8688,814.9844 L292.8688,817.7031 Q292.2438,817.125 291.65,816.8516 Q291.0563,816.5781 290.4313,816.5781 Q289.0875,816.5781 288.4,817.6484 Q287.7125,818.7188 287.7125,820.8125 Q287.7125,822.9063 288.4,823.9766 Q289.0875,825.0469 290.4313,825.0469 Q291.0563,825.0469 291.65,824.7734 Q292.2438,824.5 292.8688,823.9219 L292.8688,826.6406 Z "/><text fill="#000000" font-family="sans-serif" font-size="12" lengthAdjust="spacingAndGlyphs" textLength="57" x="307.1" y="825.1543">TasksList</text><line style="stroke: #A80036; stroke-width: 1.5;" x1="261.5" x2="380.5" y1="837" y2="837"/><line style="stroke: #A80036; stroke-width: 1.5;" x1="261.5" x2="380.5" y1="845" y2="845"/><text fill="#000000" font-family="sans-serif" font-size="11" lengthAdjust="spacingAndGlyphs" textLength="109" x="266.5" y="859.2104">+taskExists(taskId)</text><!--MD5=[99b8db98afdc2c8404e39242ef4c1e65]
class Platform--><rect fill="#FEFECE" filter="url(#fbf545kg9v4gy)" height="86.4141" id="Platform" style="stroke: #A80036; stroke-width: 1.5;" width="285" x="737.5" y="277"/><ellipse cx="849.75" cy="293" fill="#ADD1B2" rx="11" ry="11" style="stroke: #A80036; stroke-width: 1.0;"/><path d="M852.7188,298.6406 Q852.1406,298.9375 851.5,299.0859 Q850.8594,299.2344 850.1563,299.2344 Q847.6563,299.2344 846.3359,297.5859 Q845.0156,295.9375 845.0156,292.8125 Q845.0156,289.6875 846.3359,288.0313 Q847.6563,286.375 850.1563,286.375 Q850.8594,286.375 851.5078,286.5313 Q852.1563,286.6875 852.7188,286.9844 L852.7188,289.7031 Q852.0938,289.125 851.5,288.8516 Q850.9063,288.5781 850.2813,288.5781 Q848.9375,288.5781 848.25,289.6484 Q847.5625,290.7188 847.5625,292.8125 Q847.5625,294.9063 848.25,295.9766 Q848.9375,297.0469 850.2813,297.0469 Q850.9063,297.0469 851.5,296.7734 Q852.0938,296.5 852.7188,295.9219 L852.7188,298.6406 Z "/><text fill="#000000" font-family="sans-serif" font-size="12" lengthAdjust="spacingAndGlyphs" textLength="52" x="870.25" y="297.1543">Platform</text><line style="stroke: #A80036; stroke-width: 1.5;" x1="738.5" x2="1021.5" y1="309" y2="309"/><text fill="#000000" font-family="sans-serif" font-size="11" lengthAdjust="spacingAndGlyphs" textLength="108" x="743.5" y="323.2104">-String designation</text><line style="stroke: #A80036; stroke-width: 1.5;" x1="738.5" x2="1021.5" y1="329.8047" y2="329.8047"/><text fill="#000000" font-family="sans-serif" font-size="11" lengthAdjust="spacingAndGlyphs" textLength="273" x="743.5" y="344.0151">+OrganizationsRecord getOrganizationsRecord()</text><text fill="#000000" font-family="sans-serif" font-size="11" lengthAdjust="spacingAndGlyphs" textLength="251" x="743.5" y="356.8198">+FreelancersRecord getFreelancersRecord()</text><!--MD5=[c7635c972eb61a4e069c06c1240b28a8]
class FreelancersRecord--><rect fill="#FEFECE" filter="url(#fbf545kg9v4gy)" height="60.8047" id="FreelancersRecord" style="stroke: #A80036; stroke-width: 1.5;" width="150" x="841" y="440"/><ellipse cx="856" cy="456" fill="#ADD1B2" rx="11" ry="11" style="stroke: #A80036; stroke-width: 1.0;"/><path d="M858.9688,461.6406 Q858.3906,461.9375 857.75,462.0859 Q857.1094,462.2344 856.4063,462.2344 Q853.9063,462.2344 852.5859,460.5859 Q851.2656,458.9375 851.2656,455.8125 Q851.2656,452.6875 852.5859,451.0313 Q853.9063,449.375 856.4063,449.375 Q857.1094,449.375 857.7578,449.5313 Q858.4063,449.6875 858.9688,449.9844 L858.9688,452.7031 Q858.3438,452.125 857.75,451.8516 Q857.1563,451.5781 856.5313,451.5781 Q855.1875,451.5781 854.5,452.6484 Q853.8125,453.7188 853.8125,455.8125 Q853.8125,457.9063 854.5,458.9766 Q855.1875,460.0469 856.5313,460.0469 Q857.1563,460.0469 857.75,459.7734 Q858.3438,459.5 858.9688,458.9219 L858.9688,461.6406 Z "/><text fill="#000000" font-family="sans-serif" font-size="12" lengthAdjust="spacingAndGlyphs" textLength="118" x="870" y="460.1543">FreelancersRecord</text><line style="stroke: #A80036; stroke-width: 1.5;" x1="842" x2="990" y1="472" y2="472"/><line style="stroke: #A80036; stroke-width: 1.5;" x1="842" x2="990" y1="480" y2="480"/><text fill="#000000" font-family="sans-serif" font-size="11" lengthAdjust="spacingAndGlyphs" textLength="131" x="847" y="494.2104">+freelancerExists(frlId)</text><!--MD5=[759d9d4bd7fe37fb1c4b72776400893c]
class OrganizationsRecord--><rect fill="#FEFECE" filter="url(#fbf545kg9v4gy)" height="60.8047" id="OrganizationsRecord" style="stroke: #A80036; stroke-width: 1.5;" width="221" x="513.5" y="440"/><ellipse cx="555.5" cy="456" fill="#ADD1B2" rx="11" ry="11" style="stroke: #A80036; stroke-width: 1.0;"/><path d="M558.4688,461.6406 Q557.8906,461.9375 557.25,462.0859 Q556.6094,462.2344 555.9063,462.2344 Q553.4063,462.2344 552.0859,460.5859 Q550.7656,458.9375 550.7656,455.8125 Q550.7656,452.6875 552.0859,451.0313 Q553.4063,449.375 555.9063,449.375 Q556.6094,449.375 557.2578,449.5313 Q557.9063,449.6875 558.4688,449.9844 L558.4688,452.7031 Q557.8438,452.125 557.25,451.8516 Q556.6563,451.5781 556.0313,451.5781 Q554.6875,451.5781 554,452.6484 Q553.3125,453.7188 553.3125,455.8125 Q553.3125,457.9063 554,458.9766 Q554.6875,460.0469 556.0313,460.0469 Q556.6563,460.0469 557.25,459.7734 Q557.8438,459.5 558.4688,458.9219 L558.4688,461.6406 Z "/><text fill="#000000" font-family="sans-serif" font-size="12" lengthAdjust="spacingAndGlyphs" textLength="129" x="575.5" y="460.1543">OrganizationsRecord</text><line style="stroke: #A80036; stroke-width: 1.5;" x1="514.5" x2="733.5" y1="472" y2="472"/><line style="stroke: #A80036; stroke-width: 1.5;" x1="514.5" x2="733.5" y1="480" y2="480"/><text fill="#000000" font-family="sans-serif" font-size="11" lengthAdjust="spacingAndGlyphs" textLength="209" x="519.5" y="494.2104">+getOrganizationByUserEmail(email)</text><!--MD5=[9ab0068e71df7f673644752c40fe3ac4]
class CreatePaymentTransactionController--><rect fill="#FEFECE" filter="url(#fbf545kg9v4gy)" height="99.2188" id="CreatePaymentTransactionController" style="stroke: #A80036; stroke-width: 1.5;" width="546" x="245" y="117"/><ellipse cx="398.25" cy="133" fill="#ADD1B2" rx="11" ry="11" style="stroke: #A80036; stroke-width: 1.0;"/><path d="M401.2188,138.6406 Q400.6406,138.9375 400,139.0859 Q399.3594,139.2344 398.6563,139.2344 Q396.1563,139.2344 394.8359,137.5859 Q393.5156,135.9375 393.5156,132.8125 Q393.5156,129.6875 394.8359,128.0313 Q396.1563,126.375 398.6563,126.375 Q399.3594,126.375 400.0078,126.5313 Q400.6563,126.6875 401.2188,126.9844 L401.2188,129.7031 Q400.5938,129.125 400,128.8516 Q399.4063,128.5781 398.7813,128.5781 Q397.4375,128.5781 396.75,129.6484 Q396.0625,130.7188 396.0625,132.8125 Q396.0625,134.9063 396.75,135.9766 Q397.4375,137.0469 398.7813,137.0469 Q399.4063,137.0469 400,136.7734 Q400.5938,136.5 401.2188,135.9219 L401.2188,138.6406 Z "/><text fill="#000000" font-family="sans-serif" font-size="12" lengthAdjust="spacingAndGlyphs" textLength="231" x="418.75" y="137.1543">CreatePaymentTransactionController</text><line style="stroke: #A80036; stroke-width: 1.5;" x1="246" x2="790" y1="149" y2="149"/><line style="stroke: #A80036; stroke-width: 1.5;" x1="246" x2="790" y1="157" y2="157"/><text fill="#000000" font-family="sans-serif" font-size="11" lengthAdjust="spacingAndGlyphs" textLength="530" x="251" y="171.2104">+newPaymentTransaction(taskId, briefDescription, timeDuration, costPerHour, taskCategory,</text><text fill="#000000" font-family="sans-serif" font-size="11" lengthAdjust="spacingAndGlyphs" textLength="227" x="251" y="184.0151">endDate, delay, workQualityDescription,</text><text fill="#000000" font-family="sans-serif" font-size="11" lengthAdjust="spacingAndGlyphs" textLength="359" x="251" y="196.8198">frlId, name, expertiseLevel, email, NIF, IBAN, address, country)</text><text fill="#000000" font-family="sans-serif" font-size="11" lengthAdjust="spacingAndGlyphs" textLength="180" x="251" y="209.6245">+paymentTransactionRegister()</text><!--MD5=[e472615a113cc15971a8fcaedb5e2163]
class CreatePaymentTransactionUI--><rect fill="#FEFECE" filter="url(#fbf545kg9v4gy)" height="48" id="CreatePaymentTransactionUI" style="stroke: #A80036; stroke-width: 1.5;" width="214" x="411" y="8"/><ellipse cx="426" cy="24" fill="#ADD1B2" rx="11" ry="11" style="stroke: #A80036; stroke-width: 1.0;"/><path d="M428.9688,29.6406 Q428.3906,29.9375 427.75,30.0859 Q427.1094,30.2344 426.4063,30.2344 Q423.9063,30.2344 422.5859,28.5859 Q421.2656,26.9375 421.2656,23.8125 Q421.2656,20.6875 422.5859,19.0313 Q423.9063,17.375 426.4063,17.375 Q427.1094,17.375 427.7578,17.5313 Q428.4063,17.6875 428.9688,17.9844 L428.9688,20.7031 Q428.3438,20.125 427.75,19.8516 Q427.1563,19.5781 426.5313,19.5781 Q425.1875,19.5781 424.5,20.6484 Q423.8125,21.7188 423.8125,23.8125 Q423.8125,25.9063 424.5,26.9766 Q425.1875,28.0469 426.5313,28.0469 Q427.1563,28.0469 427.75,27.7734 Q428.3438,27.5 428.9688,26.9219 L428.9688,29.6406 Z "/><text fill="#000000" font-family="sans-serif" font-size="12" lengthAdjust="spacingAndGlyphs" textLength="182" x="440" y="28.1543">CreatePaymentTransactionUI</text><line style="stroke: #A80036; stroke-width: 1.5;" x1="412" x2="624" y1="40" y2="40"/><line style="stroke: #A80036; stroke-width: 1.5;" x1="412" x2="624" y1="48" y2="48"/><!--MD5=[b645a18afb25b7e5623af7186d8eb36f]
class PaymentTransaction--><rect fill="#FEFECE" filter="url(#fbf545kg9v4gy)" height="60.8047" id="PaymentTransaction" style="stroke: #A80036; stroke-width: 1.5;" width="329" x="416.5" y="805"/><ellipse cx="512.75" cy="821" fill="#ADD1B2" rx="11" ry="11" style="stroke: #A80036; stroke-width: 1.0;"/><path d="M515.7188,826.6406 Q515.1406,826.9375 514.5,827.0859 Q513.8594,827.2344 513.1563,827.2344 Q510.6563,827.2344 509.3359,825.5859 Q508.0156,823.9375 508.0156,820.8125 Q508.0156,817.6875 509.3359,816.0313 Q510.6563,814.375 513.1563,814.375 Q513.8594,814.375 514.5078,814.5313 Q515.1563,814.6875 515.7188,814.9844 L515.7188,817.7031 Q515.0938,817.125 514.5,816.8516 Q513.9063,816.5781 513.2813,816.5781 Q511.9375,816.5781 511.25,817.6484 Q510.5625,818.7188 510.5625,820.8125 Q510.5625,822.9063 511.25,823.9766 Q511.9375,825.0469 513.2813,825.0469 Q513.9063,825.0469 514.5,824.7734 Q515.0938,824.5 515.7188,823.9219 L515.7188,826.6406 Z "/><text fill="#000000" font-family="sans-serif" font-size="12" lengthAdjust="spacingAndGlyphs" textLength="128" x="533.25" y="825.1543">PaymentTransaction</text><line style="stroke: #A80036; stroke-width: 1.5;" x1="417.5" x2="744.5" y1="837" y2="837"/><line style="stroke: #A80036; stroke-width: 1.5;" x1="417.5" x2="744.5" y1="845" y2="845"/><text fill="#000000" font-family="sans-serif" font-size="11" lengthAdjust="spacingAndGlyphs" textLength="317" x="422.5" y="859.2104">+PaymentTransaction(task, taskExec, free, payAmount)</text><!--MD5=[5ce80547de3caced9d0089e35ded5090]
class TaskExecution--><rect fill="#FEFECE" filter="url(#fbf545kg9v4gy)" height="86.4141" id="TaskExecution" style="stroke: #A80036; stroke-width: 1.5;" width="184" x="384" y="1177"/><ellipse cx="426.9" cy="1193" fill="#ADD1B2" rx="11" ry="11" style="stroke: #A80036; stroke-width: 1.0;"/><path d="M429.8688,1198.6406 Q429.2906,1198.9375 428.65,1199.0859 Q428.0094,1199.2344 427.3063,1199.2344 Q424.8063,1199.2344 423.4859,1197.5859 Q422.1656,1195.9375 422.1656,1192.8125 Q422.1656,1189.6875 423.4859,1188.0313 Q424.8063,1186.375 427.3063,1186.375 Q428.0094,1186.375 428.6578,1186.5313 Q429.3063,1186.6875 429.8688,1186.9844 L429.8688,1189.7031 Q429.2438,1189.125 428.65,1188.8516 Q428.0563,1188.5781 427.4313,1188.5781 Q426.0875,1188.5781 425.4,1189.6484 Q424.7125,1190.7188 424.7125,1192.8125 Q424.7125,1194.9063 425.4,1195.9766 Q426.0875,1197.0469 427.4313,1197.0469 Q428.0563,1197.0469 428.65,1196.7734 Q429.2438,1196.5 429.8688,1195.9219 L429.8688,1198.6406 Z "/><text fill="#000000" font-family="sans-serif" font-size="12" lengthAdjust="spacingAndGlyphs" textLength="90" x="447.1" y="1197.1543">TaskExecution</text><line style="stroke: #A80036; stroke-width: 1.5;" x1="385" x2="567" y1="1209" y2="1209"/><text fill="#000000" font-family="sans-serif" font-size="11" lengthAdjust="spacingAndGlyphs" textLength="81" x="390" y="1223.2104">-Date endDate</text><text fill="#000000" font-family="sans-serif" font-size="11" lengthAdjust="spacingAndGlyphs" textLength="77" x="390" y="1236.0151">-Double delay</text><text fill="#000000" font-family="sans-serif" font-size="11" lengthAdjust="spacingAndGlyphs" textLength="172" x="390" y="1248.8198">-String workQualityDescription</text><line style="stroke: #A80036; stroke-width: 1.5;" x1="385" x2="567" y1="1255.4141" y2="1255.4141"/><!--MD5=[d75f8faab7003fe4f7fadde3e00b3cf7]
link CreatePaymentTransactionUI to CreatePaymentTransactionController--><path d="M518,56.0459 C518,71.4478 518,92.0929 518,111.3652 " fill="none" id="CreatePaymentTransactionUI-&gt;CreatePaymentTransactionController" style="stroke: #A80036; stroke-width: 1.0; stroke-dasharray: 7.0,7.0;"/><polygon fill="#A80036" points="518,116.759,522,107.759,518,111.759,514,107.759,518,116.759" style="stroke: #A80036; stroke-width: 1.0;"/><!--MD5=[c21c0329c000ce3a64d50b793859385d]
link CreatePaymentTransactionController to Platform--><path d="M638.7392,216.1053 C662.3991,225.9354 687.0036,236.2348 710,246 C731.7137,255.2204 754.9274,265.2263 777.0028,274.8123 " fill="none" id="CreatePaymentTransactionController-&gt;Platform" style="stroke: #A80036; stroke-width: 1.0; stroke-dasharray: 7.0,7.0;"/><polygon fill="#A80036" points="781.6952,276.851,775.0346,269.5959,777.1093,274.8586,771.8467,276.9333,781.6952,276.851" style="stroke: #A80036; stroke-width: 1.0;"/><!--MD5=[f04e3b22971df4e8085f55a70756c755]
link CreatePaymentTransactionController to Task--><path d="M558.736,216.0727 C599.8015,265.7059 665.3297,343.9832 724,410 C736.1157,423.6328 744.7027,423.285 752,440 C827.7788,613.5759 841.1466,693.4772 763,866 C753.9363,886.0097 718.6188,917.7837 683.5654,945.9562 " fill="none" id="CreatePaymentTransactionController-&gt;Task" style="stroke: #A80036; stroke-width: 1.0; stroke-dasharray: 7.0,7.0;"/><polygon fill="#A80036" points="679.2937,949.373,688.8205,946.875,683.1983,946.2498,683.8234,940.6276,679.2937,949.373" style="stroke: #A80036; stroke-width: 1.0;"/><!--MD5=[d808bb2ca26b86ab5f675405e49fd624]
link CreatePaymentTransactionController to Organization--><path d="M505.9354,216.2292 C491.9196,282.1885 473.4221,401.8362 496,501 C501.5517,525.3833 511.5266,550.4186 522.3547,572.9557 " fill="none" id="CreatePaymentTransactionController-&gt;Organization" style="stroke: #A80036; stroke-width: 1.0; stroke-dasharray: 7.0,7.0;"/><polygon fill="#A80036" points="524.677,577.7258,524.3338,567.8829,522.4883,573.2303,517.141,571.3848,524.677,577.7258" style="stroke: #A80036; stroke-width: 1.0;"/><!--MD5=[c3f8496c633e2f7f52d8bf9bc86aad29]
link CreatePaymentTransactionController to POTApplication--><path d="M335.5763,216.1102 C278.3371,233.4102 215.3937,254.2485 159,277 C155.0316,278.601 150.9971,280.3177 146.9503,282.1102 " fill="none" id="CreatePaymentTransactionController-&gt;POTApplication" style="stroke: #A80036; stroke-width: 1.0; stroke-dasharray: 7.0,7.0;"/><polygon fill="#A80036" points="142.1974,284.247,152.0462,284.2048,146.7577,282.1968,148.7658,276.9083,142.1974,284.247" style="stroke: #A80036; stroke-width: 1.0;"/><!--MD5=[044b46cd6ff48909710cb1d203e462f9]
link CreatePaymentTransactionController to UserSession--><path d="M371.6449,216.0237 C351.7101,224.9101 331.9531,234.9216 314,246 C296.2492,256.9536 278.7789,271.9586 264.5554,285.5947 " fill="none" id="CreatePaymentTransactionController-&gt;UserSession" style="stroke: #A80036; stroke-width: 1.0; stroke-dasharray: 7.0,7.0;"/><polygon fill="#A80036" points="260.6322,289.4,269.8774,286.0049,264.2212,285.9187,264.3074,280.2625,260.6322,289.4" style="stroke: #A80036; stroke-width: 1.0;"/><!--MD5=[a5b2a848340ab19653babd02d4515d20]
link CreatePaymentTransactionController to TasksList--><path d="M409.5842,216.0445 C372.4178,240.9328 340,275.4189 340,320 C340,320 340,320 340,653 C340,704.1601 332.5222,762.9557 326.949,799.6717 " fill="none" id="CreatePaymentTransactionController-&gt;TasksList" style="stroke: #A80036; stroke-width: 1.0; stroke-dasharray: 7.0,7.0;"/><polygon fill="#A80036" points="326.1417,804.925,331.4625,796.6371,326.9013,799.983,323.5553,795.4218,326.1417,804.925" style="stroke: #A80036; stroke-width: 1.0;"/><!--MD5=[546fd7e0e055f1eba4c284893e3481a0]
link CreatePaymentTransactionController to FreelancersRecord--><path d="M791.3199,192.9701 C899.8385,209.6386 1006.7906,236.0248 1040,277 C1064.0664,306.6942 1055.8738,328.2299 1040,363 C1026.13,393.3809 998.964,418.4782 973.5861,436.7609 " fill="none" id="CreatePaymentTransactionController-&gt;FreelancersRecord" style="stroke: #A80036; stroke-width: 1.0; stroke-dasharray: 7.0,7.0;"/><polygon fill="#A80036" points="969.2025,439.8652,978.859,437.9283,973.283,436.9756,974.2357,431.3995,969.2025,439.8652" style="stroke: #A80036; stroke-width: 1.0;"/><!--MD5=[19aba29190c83d802a073857acc5c053]
link CreatePaymentTransactionController to OrganizationsRecord--><path d="M535.2666,216.0194 C556.7353,277.59 592.846,381.1527 611.7,435.2244 " fill="none" id="CreatePaymentTransactionController-&gt;OrganizationsRecord" style="stroke: #A80036; stroke-width: 1.0; stroke-dasharray: 7.0,7.0;"/><polygon fill="#A80036" points="613.359,439.9825,614.173,430.1673,611.7129,435.2612,606.619,432.8011,613.359,439.9825" style="stroke: #A80036; stroke-width: 1.0;"/><!--MD5=[d77b6fe82f72fca34ebf8190bf84198d]
link Platform to FreelancersRecord--><path d="M890.3162,363.1273 C895.7405,385.8039 902.3109,413.2718 907.4482,434.7488 " fill="none" id="Platform-&gt;FreelancersRecord" style="stroke: #A80036; stroke-width: 1.0;"/><polygon fill="#A80036" points="908.6548,439.7931,910.4511,430.1094,907.4915,434.9303,902.6707,431.9707,908.6548,439.7931" style="stroke: #A80036; stroke-width: 1.0;"/><text fill="#000000" font-family="sans-serif" font-size="13" lengthAdjust="spacingAndGlyphs" textLength="23" x="902" y="406.0669">has</text><text fill="#000000" font-family="sans-serif" font-size="13" lengthAdjust="spacingAndGlyphs" textLength="8" x="883.3623" y="383.5561">1</text><text fill="#000000" font-family="sans-serif" font-size="13" lengthAdjust="spacingAndGlyphs" textLength="8" x="898.3149" y="429.0137">1</text><!--MD5=[d9ffa4e24b0f90d8cdc0d9eb36306584]
link Platform to OrganizationsRecord--><path d="M806.6407,363.1273 C766.603,386.665 717.7847,415.3649 680.6958,437.1691 " fill="none" id="Platform-&gt;OrganizationsRecord" style="stroke: #A80036; stroke-width: 1.0;"/><polygon fill="#A80036" points="676.2323,439.7931,686.0181,438.6801,680.5426,437.2591,681.9636,431.7836,676.2323,439.7931" style="stroke: #A80036; stroke-width: 1.0;"/><text fill="#000000" font-family="sans-serif" font-size="13" lengthAdjust="spacingAndGlyphs" textLength="23" x="753" y="406.0669">has</text><text fill="#000000" font-family="sans-serif" font-size="13" lengthAdjust="spacingAndGlyphs" textLength="8" x="785.8281" y="383.5561">1</text><text fill="#000000" font-family="sans-serif" font-size="13" lengthAdjust="spacingAndGlyphs" textLength="8" x="678.1802" y="429.0137">1</text><!--MD5=[0634d34efc8f03ad94b2231e46fef7de]
link FreelancersRecord to Freelancer--><path d="M913.2939,501.148 C910.3323,537.3851 906,599.5323 906,653 C906,653 906,653 906,1005.5 C906,1067.6425 862.5617,1123.7582 821.3823,1162.9939 " fill="none" id="FreelancersRecord-&gt;Freelancer" style="stroke: #A80036; stroke-width: 1.0;"/><polygon fill="#A80036" points="817.4058,1166.7378,826.7005,1163.4808,821.0462,1163.3104,821.2166,1157.6561,817.4058,1166.7378" style="stroke: #A80036; stroke-width: 1.0;"/><text fill="#000000" font-family="sans-serif" font-size="13" lengthAdjust="spacingAndGlyphs" textLength="23" x="907" y="840.0669">has</text><text fill="#000000" font-family="sans-serif" font-size="13" lengthAdjust="spacingAndGlyphs" textLength="8" x="903.9736" y="520.7576">1</text><text fill="#000000" font-family="sans-serif" font-size="13" lengthAdjust="spacingAndGlyphs" textLength="7" x="824.8211" y="1157.5229">*</text><!--MD5=[15b500351a20fc4c9aef6172f83f2b2a]
link OrganizationsRecord to Organization--><path d="M614.7942,501.0464 C608.8597,520.7382 600.845,547.3325 593.1795,572.7679 " fill="none" id="OrganizationsRecord-&gt;Organization" style="stroke: #A80036; stroke-width: 1.0;"/><polygon fill="#A80036" points="591.6518,577.8371,598.0788,570.3743,593.0947,573.0498,590.4191,568.0657,591.6518,577.8371" style="stroke: #A80036; stroke-width: 1.0;"/><text fill="#000000" font-family="sans-serif" font-size="13" lengthAdjust="spacingAndGlyphs" textLength="23" x="606" y="544.0669">has</text><text fill="#000000" font-family="sans-serif" font-size="13" lengthAdjust="spacingAndGlyphs" textLength="8" x="604.0705" y="520.9942">1</text><text fill="#000000" font-family="sans-serif" font-size="13" lengthAdjust="spacingAndGlyphs" textLength="7" x="586.4772" y="567.0107">*</text><!--MD5=[d15cad16830e0e3b1d195407ed1d0016]
link Organization to TasksList--><path d="M467.0553,728.0198 C432.1655,753.6947 394.8687,781.1409 366.6978,801.8716 " fill="none" id="Organization-&gt;TasksList" style="stroke: #A80036; stroke-width: 1.0;"/><polygon fill="#A80036" points="362.609,804.8805,372.2286,802.7678,366.6361,801.917,367.4869,796.3245,362.609,804.8805" style="stroke: #A80036; stroke-width: 1.0;"/><text fill="#000000" font-family="sans-serif" font-size="13" lengthAdjust="spacingAndGlyphs" textLength="23" x="424" y="771.0669">has</text><text fill="#000000" font-family="sans-serif" font-size="13" lengthAdjust="spacingAndGlyphs" textLength="8" x="448.1298" y="748.5808">1</text><text fill="#000000" font-family="sans-serif" font-size="13" lengthAdjust="spacingAndGlyphs" textLength="8" x="362.3659" y="794.1191">1</text><!--MD5=[da2d560b3f89d8c66478284968d27dfa]
link Organization to PaymentTransaction--><path d="M573.9328,728.0198 C575.5657,752.8529 577.3075,779.3431 578.6533,799.8112 " fill="none" id="Organization-&gt;PaymentTransaction" style="stroke: #A80036; stroke-width: 1.0;"/><polygon fill="#A80036" points="578.9867,804.8805,582.3874,795.6374,578.6586,799.8913,574.4047,796.1624,578.9867,804.8805" style="stroke: #A80036; stroke-width: 1.0;"/><text fill="#000000" font-family="sans-serif" font-size="13" lengthAdjust="spacingAndGlyphs" textLength="23" x="578" y="771.0669">has</text><text fill="#000000" font-family="sans-serif" font-size="13" lengthAdjust="spacingAndGlyphs" textLength="8" x="566.029" y="748.5808">1</text><text fill="#000000" font-family="sans-serif" font-size="13" lengthAdjust="spacingAndGlyphs" textLength="7" x="570.8496" y="794.1191">*</text><!--MD5=[bbdb20f51a48c3a19382c1ddd3c52d99]
link TasksList to Task--><path d="M372.9969,866.1254 C409.2348,887.5318 458.6577,916.8518 502,943 C509.2159,947.3533 516.707,951.8969 524.2047,956.461 " fill="none" id="TasksList-&gt;Task" style="stroke: #A80036; stroke-width: 1.0;"/><polygon fill="#A80036" points="528.8716,959.3039,523.2665,951.2056,524.6015,956.7027,519.1045,958.0377,528.8716,959.3039" style="stroke: #A80036; stroke-width: 1.0;"/><text fill="#000000" font-family="sans-serif" font-size="13" lengthAdjust="spacingAndGlyphs" textLength="23" x="449" y="909.0669">has</text><text fill="#000000" font-family="sans-serif" font-size="13" lengthAdjust="spacingAndGlyphs" textLength="8" x="374.8963" y="886.0895">1</text><text fill="#000000" font-family="sans-serif" font-size="13" lengthAdjust="spacingAndGlyphs" textLength="7" x="513.763" y="950.8491">*</text><!--MD5=[bdc7b78a1b1f03a53fec8289ba75cac4]
link Task to TaskExecution--><path d="M566.633,1068.1189 C546.7994,1101.3557 522.8124,1141.5527 504.4986,1172.2426 " fill="none" id="Task-&gt;TaskExecution" style="stroke: #A80036; stroke-width: 1.0;"/><polygon fill="#A80036" points="501.8389,1176.6996,509.8859,1171.021,504.4012,1172.406,503.0162,1166.9214,501.8389,1176.6996" style="stroke: #A80036; stroke-width: 1.0;"/><text fill="#000000" font-family="sans-serif" font-size="13" lengthAdjust="spacingAndGlyphs" textLength="23" x="549" y="1111.0669">has</text><text fill="#000000" font-family="sans-serif" font-size="13" lengthAdjust="spacingAndGlyphs" textLength="8" x="554.1085" y="1087.8717">1</text><text fill="#000000" font-family="sans-serif" font-size="13" lengthAdjust="spacingAndGlyphs" textLength="8" x="497.183" y="1165.9662">1</text><!--MD5=[8853e9d83a8841c20c4ef075af762602]
link Task to Freelancer--><path d="M614.0459,1068.2617 C618.3317,1084.2518 624.4077,1100.8912 633,1115 C644.5593,1133.9807 660.5776,1151.5534 677.0243,1166.6797 " fill="none" id="Task-&gt;Freelancer" style="stroke: #A80036; stroke-width: 1.0;"/><polygon fill="#A80036" points="680.7615,1170.0692,676.7824,1161.0599,677.0579,1166.7101,671.4078,1166.9856,680.7615,1170.0692" style="stroke: #A80036; stroke-width: 1.0;"/><text fill="#000000" font-family="sans-serif" font-size="13" lengthAdjust="spacingAndGlyphs" textLength="88" x="634" y="1111.0669">is assigned to</text><text fill="#000000" font-family="sans-serif" font-size="13" lengthAdjust="spacingAndGlyphs" textLength="23" x="590.8869" y="1088.0301">1..*</text><text fill="#000000" font-family="sans-serif" font-size="13" lengthAdjust="spacingAndGlyphs" textLength="8" x="664.8604" y="1160.8379">1</text><!--MD5=[f6802b286771c18a16ea4be983074371]
link PaymentTransaction to Freelancer--><path d="M629.3563,866.0222 C654.3683,884.8106 682.4388,911.3469 696,943 C722.9995,1006.0192 736.3195,1082.9707 742.8469,1139.7597 " fill="none" id="PaymentTransaction-&gt;Freelancer" style="stroke: #A80036; stroke-width: 1.0;"/><polygon fill="#A80036" points="743.4196,1144.8456,746.3872,1135.4545,742.86,1139.877,738.4375,1136.3498,743.4196,1144.8456" style="stroke: #A80036; stroke-width: 1.0;"/><text fill="#000000" font-family="sans-serif" font-size="13" lengthAdjust="spacingAndGlyphs" textLength="61" x="733" y="1010.0669">relates to</text><text fill="#000000" font-family="sans-serif" font-size="13" lengthAdjust="spacingAndGlyphs" textLength="8" x="630.5048" y="885.965">1</text><text fill="#000000" font-family="sans-serif" font-size="13" lengthAdjust="spacingAndGlyphs" textLength="8" x="734.5065" y="1134.02">1</text><!--MD5=[271ce7fefd7250ebaca83b70495774bd]
link PaymentTransaction to Task--><path d="M585.1651,866.2857 C587.8602,886.2059 591.4777,912.9442 594.8219,937.6621 " fill="none" id="PaymentTransaction-&gt;Task" style="stroke: #A80036; stroke-width: 1.0;"/><polygon fill="#A80036" points="595.531,942.9027,598.2881,933.4476,594.8606,937.9479,590.3604,934.5203,595.531,942.9027" style="stroke: #A80036; stroke-width: 1.0;"/><text fill="#000000" font-family="sans-serif" font-size="13" lengthAdjust="spacingAndGlyphs" textLength="61" x="593" y="909.0669">relates to</text><text fill="#000000" font-family="sans-serif" font-size="13" lengthAdjust="spacingAndGlyphs" textLength="8" x="577.1976" y="885.9224">1</text><text fill="#000000" font-family="sans-serif" font-size="13" lengthAdjust="spacingAndGlyphs" textLength="8" x="586.0893" y="931.8822">1</text><!--MD5=[ccf9e4a23b86a8fcbc3774eff83a0cb7]
link PaymentTransaction to TaskExecution--><path d="M522.6573,866.1601 C494.5462,884.3676 463.6087,910.3142 448,943 C412.6475,1017.0309 436.4806,1114.6579 456.5589,1172.0506 " fill="none" id="PaymentTransaction-&gt;TaskExecution" style="stroke: #A80036; stroke-width: 1.0;"/><polygon fill="#A80036" points="458.2419,1176.7941,459.0021,1166.9746,456.5699,1172.0819,451.4626,1169.6498,458.2419,1176.7941" style="stroke: #A80036; stroke-width: 1.0;"/><text fill="#000000" font-family="sans-serif" font-size="13" lengthAdjust="spacingAndGlyphs" textLength="61" x="449" y="1010.0669">relates to</text><text fill="#000000" font-family="sans-serif" font-size="13" lengthAdjust="spacingAndGlyphs" textLength="8" x="502.3836" y="885.7721">1</text><text fill="#000000" font-family="sans-serif" font-size="13" lengthAdjust="spacingAndGlyphs" textLength="8" x="446.9102" y="1166.0751">1</text><!--MD5=[4456a789aae5f296fc9e18174454153b]
@startuml
skinparam classAttributeIconSize 0

class POTApplication
{
  +static getInstance()
  +getCurrentSession()
}

class UserSession
{
  +getUserEmail()
}

class Task {
  -String id
  -String briefDescription
  -Integer timeDuration
  -Double costPerHour
  -String taskCategory
  +getTaskExecData(task)
}

class Freelancer {
  -String id
  -String name
  -String expertiseLevel
  -String email
  -String NIF
  -String IBAN
  -String address
  -String country
}

class Organization {
  -String name
  -String NIF
  +getTasksList()
  +generatePayAmount(task, free)
  +newPaymentTransaction(task, taskExec, free, payAmount)
  +validatePaymentTransaction(payT)
  +paymentTransactionRegister(payT)
  +addPaymentTransaction(payT)
}

class TasksList {
  +taskExists(taskId)
}

class Platform {
  -String designation
  +OrganizationsRecord getOrganizationsRecord()
  +FreelancersRecord getFreelancersRecord()
}

class FreelancersRecord {
  +freelancerExists(frlId)
}

class OrganizationsRecord  {
  +getOrganizationByUserEmail(email)
}

class CreatePaymentTransactionController {
  +newPaymentTransaction(taskId, briefDescription, timeDuration, costPerHour, taskCategory, \nendDate, delay, workQualityDescription, \nfrlId, name, expertiseLevel, email, NIF, IBAN, address, country)
  +paymentTransactionRegister()
}

class CreatePaymentTransactionUI {
}

class PaymentTransaction{
  +PaymentTransaction(task, taskExec, free, payAmount)
}

class TaskExecution {
 -Date endDate
 -Double delay
 -String workQualityDescription
}

CreatePaymentTransactionUI ..> CreatePaymentTransactionController
CreatePaymentTransactionController ..> Platform
CreatePaymentTransactionController ..> Task
CreatePaymentTransactionController ..> Organization
CreatePaymentTransactionController ..> POTApplication
CreatePaymentTransactionController ..> UserSession
CreatePaymentTransactionController ..> TasksList
CreatePaymentTransactionController ..> FreelancersRecord
CreatePaymentTransactionController ..> OrganizationsRecord
Platform "1" - -> "1" FreelancersRecord : has
Platform "1" - -> "1" OrganizationsRecord : has

FreelancersRecord "1" - -> "*" Freelancer : has
OrganizationsRecord "1" - -> "*" Organization : has
Organization "1" - -> "1" TasksList : has
Organization "1" - -> "*" PaymentTransaction : has
TasksList "1" - -> "*" Task : has
Task "1" - -> "1" TaskExecution : has
Task "1..*" - -> "1" Freelancer : is assigned to

PaymentTransaction "1" - -> "1" Freelancer : relates to
PaymentTransaction "1" - -> "1" Task : relates to
PaymentTransaction "1" - -> "1" TaskExecution : relates to
@enduml

PlantUML version 1.2019.12(Sun Nov 03 10:24:54 UTC 2019)
(GPL source distribution)
Java Runtime: OpenJDK Runtime Environment
JVM: OpenJDK 64-Bit Server VM
Java Version: 1.8.0_232-heroku-b09
Operating System: Linux
Default Encoding: UTF-8
Language: en
Country: US
--></g></svg>