<?xml version="1.0" encoding="UTF-8" standalone="no"?><svg xmlns="http://www.w3.org/2000/svg" xmlns:xlink="http://www.w3.org/1999/xlink" contentScriptType="application/ecmascript" contentStyleType="text/css" height="489px" preserveAspectRatio="none" style="width:1777px;height:489px;" version="1.1" viewBox="0 0 1777 489" width="1777px" zoomAndPan="magnify"><defs><filter height="300%" id="f1a97qitvzra02" width="300%" x="-1" y="-1"><feGaussianBlur result="blurOut" stdDeviation="2.0"/><feColorMatrix in="blurOut" result="blurOut2" type="matrix" values="0 0 0 0 0 0 0 0 0 0 0 0 0 0 0 0 0 0 .4 0"/><feOffset dx="4.0" dy="4.0" in="blurOut2" result="blurOut3"/><feBlend in="SourceGraphic" in2="blurOut3" mode="normal"/></filter></defs><g><!--MD5=[99b8db98afdc2c8404e39242ef4c1e65]
class Platform--><rect fill="#FEFECE" filter="url(#f1a97qitvzra02)" height="52.8047" id="Platform" style="stroke: #A80036; stroke-width: 1.5;" width="120" x="6" y="421.5"/><ellipse cx="37.2" cy="437.5" fill="#ADD1B2" rx="11" ry="11" style="stroke: #A80036; stroke-width: 1.0;"/><path d="M40.1688,443.1406 Q39.5906,443.4375 38.95,443.5859 Q38.3094,443.7344 37.6063,443.7344 Q35.1063,443.7344 33.7859,442.0859 Q32.4656,440.4375 32.4656,437.3125 Q32.4656,434.1875 33.7859,432.5313 Q35.1063,430.875 37.6063,430.875 Q38.3094,430.875 38.9578,431.0313 Q39.6063,431.1875 40.1688,431.4844 L40.1688,434.2031 Q39.5438,433.625 38.95,433.3516 Q38.3563,433.0781 37.7313,433.0781 Q36.3875,433.0781 35.7,434.1484 Q35.0125,435.2188 35.0125,437.3125 Q35.0125,439.4063 35.7,440.4766 Q36.3875,441.5469 37.7313,441.5469 Q38.3563,441.5469 38.95,441.2734 Q39.5438,441 40.1688,440.4219 L40.1688,443.1406 Z "/><text fill="#000000" font-family="sans-serif" font-size="12" lengthAdjust="spacingAndGlyphs" textLength="52" x="54.8" y="441.6543">Platform</text><line style="stroke: #A80036; stroke-width: 1.5;" x1="7" x2="125" y1="453.5" y2="453.5"/><text fill="#000000" font-family="sans-serif" font-size="11" lengthAdjust="spacingAndGlyphs" textLength="108" x="12" y="467.7104">-String designation</text><!--MD5=[86c7c362de55a38b660185a1328fe18d]
class Organization--><rect fill="#FEFECE" filter="url(#f1a97qitvzra02)" height="52.8047" id="Organization" style="stroke: #A80036; stroke-width: 1.5;" width="110" x="293" y="162.5"/><ellipse cx="308" cy="178.5" fill="#ADD1B2" rx="11" ry="11" style="stroke: #A80036; stroke-width: 1.0;"/><path d="M310.9688,184.1406 Q310.3906,184.4375 309.75,184.5859 Q309.1094,184.7344 308.4063,184.7344 Q305.9063,184.7344 304.5859,183.0859 Q303.2656,181.4375 303.2656,178.3125 Q303.2656,175.1875 304.5859,173.5313 Q305.9063,171.875 308.4063,171.875 Q309.1094,171.875 309.7578,172.0313 Q310.4063,172.1875 310.9688,172.4844 L310.9688,175.2031 Q310.3438,174.625 309.75,174.3516 Q309.1563,174.0781 308.5313,174.0781 Q307.1875,174.0781 306.5,175.1484 Q305.8125,176.2188 305.8125,178.3125 Q305.8125,180.4063 306.5,181.4766 Q307.1875,182.5469 308.5313,182.5469 Q309.1563,182.5469 309.75,182.2734 Q310.3438,182 310.9688,181.4219 L310.9688,184.1406 Z "/><text fill="#000000" font-family="sans-serif" font-size="12" lengthAdjust="spacingAndGlyphs" textLength="78" x="322" y="182.6543">Organization</text><line style="stroke: #A80036; stroke-width: 1.5;" x1="294" x2="402" y1="194.5" y2="194.5"/><text fill="#000000" font-family="sans-serif" font-size="11" lengthAdjust="spacingAndGlyphs" textLength="74" x="299" y="208.7104">-String name</text><!--MD5=[f483d6e5de34a60207b28a5563be5e8b]
class Collaborator--><rect fill="#FEFECE" filter="url(#f1a97qitvzra02)" height="65.6094" id="Collaborator" style="stroke: #A80036; stroke-width: 1.5;" width="109" x="501" y="242"/><ellipse cx="516" cy="258" fill="#ADD1B2" rx="11" ry="11" style="stroke: #A80036; stroke-width: 1.0;"/><path d="M518.9688,263.6406 Q518.3906,263.9375 517.75,264.0859 Q517.1094,264.2344 516.4063,264.2344 Q513.9063,264.2344 512.5859,262.5859 Q511.2656,260.9375 511.2656,257.8125 Q511.2656,254.6875 512.5859,253.0313 Q513.9063,251.375 516.4063,251.375 Q517.1094,251.375 517.7578,251.5313 Q518.4063,251.6875 518.9688,251.9844 L518.9688,254.7031 Q518.3438,254.125 517.75,253.8516 Q517.1563,253.5781 516.5313,253.5781 Q515.1875,253.5781 514.5,254.6484 Q513.8125,255.7188 513.8125,257.8125 Q513.8125,259.9063 514.5,260.9766 Q515.1875,262.0469 516.5313,262.0469 Q517.1563,262.0469 517.75,261.7734 Q518.3438,261.5 518.9688,260.9219 L518.9688,263.6406 Z "/><text fill="#000000" font-family="sans-serif" font-size="12" lengthAdjust="spacingAndGlyphs" textLength="77" x="530" y="262.1543">Collaborator</text><line style="stroke: #A80036; stroke-width: 1.5;" x1="502" x2="609" y1="274" y2="274"/><text fill="#000000" font-family="sans-serif" font-size="11" lengthAdjust="spacingAndGlyphs" textLength="74" x="507" y="288.2104">-String name</text><text fill="#000000" font-family="sans-serif" font-size="11" lengthAdjust="spacingAndGlyphs" textLength="73" x="507" y="301.0151">-String email</text><!--MD5=[3fd616f346a44cd59a91eb10b19e157c]
class User--><rect fill="#FEFECE" filter="url(#f1a97qitvzra02)" height="65.6094" id="User" style="stroke: #A80036; stroke-width: 1.5;" width="110" x="1656" y="327"/><ellipse cx="1693.05" cy="343" fill="#ADD1B2" rx="11" ry="11" style="stroke: #A80036; stroke-width: 1.0;"/><path d="M1696.0188,348.6406 Q1695.4406,348.9375 1694.8,349.0859 Q1694.1594,349.2344 1693.4563,349.2344 Q1690.9563,349.2344 1689.6359,347.5859 Q1688.3156,345.9375 1688.3156,342.8125 Q1688.3156,339.6875 1689.6359,338.0313 Q1690.9563,336.375 1693.4563,336.375 Q1694.1594,336.375 1694.8078,336.5313 Q1695.4563,336.6875 1696.0188,336.9844 L1696.0188,339.7031 Q1695.3938,339.125 1694.8,338.8516 Q1694.2063,338.5781 1693.5813,338.5781 Q1692.2375,338.5781 1691.55,339.6484 Q1690.8625,340.7188 1690.8625,342.8125 Q1690.8625,344.9063 1691.55,345.9766 Q1692.2375,347.0469 1693.5813,347.0469 Q1694.2063,347.0469 1694.8,346.7734 Q1695.3938,346.5 1696.0188,345.9219 L1696.0188,348.6406 Z "/><text fill="#000000" font-family="sans-serif" font-size="12" lengthAdjust="spacingAndGlyphs" textLength="29" x="1711.95" y="347.1543">User</text><line style="stroke: #A80036; stroke-width: 1.5;" x1="1657" x2="1765" y1="359" y2="359"/><text fill="#000000" font-family="sans-serif" font-size="11" lengthAdjust="spacingAndGlyphs" textLength="73" x="1662" y="373.2104">-String email</text><text fill="#000000" font-family="sans-serif" font-size="11" lengthAdjust="spacingAndGlyphs" textLength="98" x="1662" y="386.0151">-String password</text><!--MD5=[1f687b5315377fe49fca59b457947463]
class Freelancer--><rect fill="#FEFECE" filter="url(#f1a97qitvzra02)" height="142.4375" id="Freelancer" style="stroke: #A80036; stroke-width: 1.5;" width="136" x="1369" y="194"/><ellipse cx="1400.65" cy="210" fill="#ADD1B2" rx="11" ry="11" style="stroke: #A80036; stroke-width: 1.0;"/><path d="M1403.6188,215.6406 Q1403.0406,215.9375 1402.4,216.0859 Q1401.7594,216.2344 1401.0563,216.2344 Q1398.5563,216.2344 1397.2359,214.5859 Q1395.9156,212.9375 1395.9156,209.8125 Q1395.9156,206.6875 1397.2359,205.0313 Q1398.5563,203.375 1401.0563,203.375 Q1401.7594,203.375 1402.4078,203.5313 Q1403.0563,203.6875 1403.6188,203.9844 L1403.6188,206.7031 Q1402.9938,206.125 1402.4,205.8516 Q1401.8063,205.5781 1401.1813,205.5781 Q1399.8375,205.5781 1399.15,206.6484 Q1398.4625,207.7188 1398.4625,209.8125 Q1398.4625,211.9063 1399.15,212.9766 Q1399.8375,214.0469 1401.1813,214.0469 Q1401.8063,214.0469 1402.4,213.7734 Q1402.9938,213.5 1403.6188,212.9219 L1403.6188,215.6406 Z "/><text fill="#000000" font-family="sans-serif" font-size="12" lengthAdjust="spacingAndGlyphs" textLength="67" x="1418.35" y="214.1543">Freelancer</text><line style="stroke: #A80036; stroke-width: 1.5;" x1="1370" x2="1504" y1="226" y2="226"/><text fill="#000000" font-family="sans-serif" font-size="11" lengthAdjust="spacingAndGlyphs" textLength="52" x="1375" y="240.2104">-String id</text><text fill="#000000" font-family="sans-serif" font-size="11" lengthAdjust="spacingAndGlyphs" textLength="74" x="1375" y="253.0151">-String name</text><text fill="#000000" font-family="sans-serif" font-size="11" lengthAdjust="spacingAndGlyphs" textLength="124" x="1375" y="265.8198">-String expertiseLevel</text><text fill="#000000" font-family="sans-serif" font-size="11" lengthAdjust="spacingAndGlyphs" textLength="73" x="1375" y="278.6245">-String email</text><text fill="#000000" font-family="sans-serif" font-size="11" lengthAdjust="spacingAndGlyphs" textLength="59" x="1375" y="291.4292">-String NIF</text><text fill="#000000" font-family="sans-serif" font-size="11" lengthAdjust="spacingAndGlyphs" textLength="68" x="1375" y="304.2339">-String IBAN</text><text fill="#000000" font-family="sans-serif" font-size="11" lengthAdjust="spacingAndGlyphs" textLength="89" x="1375" y="317.0386">-String address</text><text fill="#000000" font-family="sans-serif" font-size="11" lengthAdjust="spacingAndGlyphs" textLength="84" x="1375" y="329.8433">-String country</text><!--MD5=[b34797a66dc35cbf1d65f7e3ca75530e]
class Task--><rect fill="#FEFECE" filter="url(#f1a97qitvzra02)" height="104.0234" id="Task" style="stroke: #A80036; stroke-width: 1.5;" width="144" x="1038" y="137"/><ellipse cx="1091.25" cy="153" fill="#ADD1B2" rx="11" ry="11" style="stroke: #A80036; stroke-width: 1.0;"/><path d="M1094.2188,158.6406 Q1093.6406,158.9375 1093,159.0859 Q1092.3594,159.2344 1091.6563,159.2344 Q1089.1563,159.2344 1087.8359,157.5859 Q1086.5156,155.9375 1086.5156,152.8125 Q1086.5156,149.6875 1087.8359,148.0313 Q1089.1563,146.375 1091.6563,146.375 Q1092.3594,146.375 1093.0078,146.5313 Q1093.6563,146.6875 1094.2188,146.9844 L1094.2188,149.7031 Q1093.5938,149.125 1093,148.8516 Q1092.4063,148.5781 1091.7813,148.5781 Q1090.4375,148.5781 1089.75,149.6484 Q1089.0625,150.7188 1089.0625,152.8125 Q1089.0625,154.9063 1089.75,155.9766 Q1090.4375,157.0469 1091.7813,157.0469 Q1092.4063,157.0469 1093,156.7734 Q1093.5938,156.5 1094.2188,155.9219 L1094.2188,158.6406 Z "/><text fill="#000000" font-family="sans-serif" font-size="12" lengthAdjust="spacingAndGlyphs" textLength="29" x="1111.75" y="157.1543">Task</text><line style="stroke: #A80036; stroke-width: 1.5;" x1="1039" x2="1181" y1="169" y2="169"/><text fill="#000000" font-family="sans-serif" font-size="11" lengthAdjust="spacingAndGlyphs" textLength="52" x="1044" y="183.2104">-String id</text><text fill="#000000" font-family="sans-serif" font-size="11" lengthAdjust="spacingAndGlyphs" textLength="132" x="1044" y="196.0151">-String briefDescription</text><text fill="#000000" font-family="sans-serif" font-size="11" lengthAdjust="spacingAndGlyphs" textLength="121" x="1044" y="208.8198">-Integer timeDuration</text><text fill="#000000" font-family="sans-serif" font-size="11" lengthAdjust="spacingAndGlyphs" textLength="117" x="1044" y="221.6245">-Double costPerHour</text><text fill="#000000" font-family="sans-serif" font-size="11" lengthAdjust="spacingAndGlyphs" textLength="117" x="1044" y="234.4292">-String taskCategory</text><!--MD5=[5ce80547de3caced9d0089e35ded5090]
class TaskExecution--><rect fill="#FEFECE" filter="url(#f1a97qitvzra02)" height="78.4141" id="TaskExecution" style="stroke: #A80036; stroke-width: 1.5;" width="184" x="1345" y="8"/><ellipse cx="1387.9" cy="24" fill="#ADD1B2" rx="11" ry="11" style="stroke: #A80036; stroke-width: 1.0;"/><path d="M1390.8688,29.6406 Q1390.2906,29.9375 1389.65,30.0859 Q1389.0094,30.2344 1388.3063,30.2344 Q1385.8063,30.2344 1384.4859,28.5859 Q1383.1656,26.9375 1383.1656,23.8125 Q1383.1656,20.6875 1384.4859,19.0313 Q1385.8063,17.375 1388.3063,17.375 Q1389.0094,17.375 1389.6578,17.5313 Q1390.3063,17.6875 1390.8688,17.9844 L1390.8688,20.7031 Q1390.2438,20.125 1389.65,19.8516 Q1389.0563,19.5781 1388.4313,19.5781 Q1387.0875,19.5781 1386.4,20.6484 Q1385.7125,21.7188 1385.7125,23.8125 Q1385.7125,25.9063 1386.4,26.9766 Q1387.0875,28.0469 1388.4313,28.0469 Q1389.0563,28.0469 1389.65,27.7734 Q1390.2438,27.5 1390.8688,26.9219 L1390.8688,29.6406 Z "/><text fill="#000000" font-family="sans-serif" font-size="12" lengthAdjust="spacingAndGlyphs" textLength="90" x="1408.1" y="28.1543">TaskExecution</text><line style="stroke: #A80036; stroke-width: 1.5;" x1="1346" x2="1528" y1="40" y2="40"/><text fill="#000000" font-family="sans-serif" font-size="11" lengthAdjust="spacingAndGlyphs" textLength="81" x="1351" y="54.2104">-Date endDate</text><text fill="#000000" font-family="sans-serif" font-size="11" lengthAdjust="spacingAndGlyphs" textLength="77" x="1351" y="67.0151">-Double delay</text><text fill="#000000" font-family="sans-serif" font-size="11" lengthAdjust="spacingAndGlyphs" textLength="172" x="1351" y="79.8198">-String workQualityDescription</text><!--MD5=[b645a18afb25b7e5623af7186d8eb36f]
class PaymentTransaction--><rect fill="#FEFECE" filter="url(#f1a97qitvzra02)" height="40" id="PaymentTransaction" style="stroke: #A80036; stroke-width: 1.5;" width="160" x="742" y="52"/><ellipse cx="757" cy="68" fill="#ADD1B2" rx="11" ry="11" style="stroke: #A80036; stroke-width: 1.0;"/><path d="M759.9688,73.6406 Q759.3906,73.9375 758.75,74.0859 Q758.1094,74.2344 757.4063,74.2344 Q754.9063,74.2344 753.5859,72.5859 Q752.2656,70.9375 752.2656,67.8125 Q752.2656,64.6875 753.5859,63.0313 Q754.9063,61.375 757.4063,61.375 Q758.1094,61.375 758.7578,61.5313 Q759.4063,61.6875 759.9688,61.9844 L759.9688,64.7031 Q759.3438,64.125 758.75,63.8516 Q758.1563,63.5781 757.5313,63.5781 Q756.1875,63.5781 755.5,64.6484 Q754.8125,65.7188 754.8125,67.8125 Q754.8125,69.9063 755.5,70.9766 Q756.1875,72.0469 757.5313,72.0469 Q758.1563,72.0469 758.75,71.7734 Q759.3438,71.5 759.9688,70.9219 L759.9688,73.6406 Z "/><text fill="#000000" font-family="sans-serif" font-size="12" lengthAdjust="spacingAndGlyphs" textLength="128" x="771" y="72.1543">PaymentTransaction</text><line style="stroke: #A80036; stroke-width: 1.5;" x1="743" x2="901" y1="84" y2="84"/><!--MD5=[7640e466c042ba2d6f9c19c816f7f0fc]
link Platform to Organization--><path d="M94.8537,421.4996 C148.8983,371.8629 264.8023,265.4121 318.9763,215.6565 " fill="none" id="Platform-Organization" style="stroke: #A80036; stroke-width: 1.0;"/><text fill="#000000" font-family="sans-serif" font-size="13" lengthAdjust="spacingAndGlyphs" textLength="92" x="157" y="268.0669">has registered</text><polygon fill="#000000" points="252,262.0664,258,265.0664,252,268.0664,252,262.0664" style="stroke: #000000; stroke-width: 1.0;"/><text fill="#000000" font-family="sans-serif" font-size="13" lengthAdjust="spacingAndGlyphs" textLength="8" x="92.9118" y="410.3189">1</text><text fill="#000000" font-family="sans-serif" font-size="13" lengthAdjust="spacingAndGlyphs" textLength="7" x="304.8617" y="235.231">*</text><!--MD5=[22697d4d863c2e08ab1d60ca0d61f844]
link Platform to Freelancer--><path d="M126.0526,457.7776 C183.0182,466.1967 271.0992,477 348,477 C348,477 348,477 1110,477 C1215.8844,477 1314.5157,397.7709 1375.1906,336.1827 " fill="none" id="Platform-Freelancer" style="stroke: #A80036; stroke-width: 1.0;"/><text fill="#000000" font-family="sans-serif" font-size="13" lengthAdjust="spacingAndGlyphs" textLength="57" x="641" y="473.0669">has/uses</text><polygon fill="#000000" points="701,467.0664,707,470.0664,701,473.0664,701,467.0664" style="stroke: #000000; stroke-width: 1.0;"/><text fill="#000000" font-family="sans-serif" font-size="13" lengthAdjust="spacingAndGlyphs" textLength="8" x="133.859" y="471.9702">1</text><text fill="#000000" font-family="sans-serif" font-size="13" lengthAdjust="spacingAndGlyphs" textLength="7" x="1361.4556" y="356.348">*</text><!--MD5=[45817597bcd7048073a670d966abfd17]
link Organization to Collaborator--><path d="M403.0614,211.8206 C433.3176,224.3606 470.7184,239.8616 500.9013,252.3711 " fill="none" id="Organization-Collaborator" style="stroke: #A80036; stroke-width: 1.0;"/><text fill="#000000" font-family="sans-serif" font-size="13" lengthAdjust="spacingAndGlyphs" textLength="23" x="434" y="221.0669">has</text><polygon fill="#000000" points="460,215.0664,466,218.0664,460,221.0664,460,215.0664" style="stroke: #000000; stroke-width: 1.0;"/><text fill="#000000" font-family="sans-serif" font-size="13" lengthAdjust="spacingAndGlyphs" textLength="8" x="410.9978" y="227.9839">1</text><text fill="#000000" font-family="sans-serif" font-size="13" lengthAdjust="spacingAndGlyphs" textLength="8" x="485.0271" y="262.4402">1</text><!--MD5=[4078351e3988aa35b1504a42837f2ab1]
link Organization to Task--><path d="M403.1545,188.7482 C506.7682,188.2892 737.586,187.3329 932,187 C965.7777,186.9422 974.2238,186.6689 1008,187 C1017.6524,187.0946 1027.8179,187.2396 1037.8406,187.4092 " fill="none" id="Organization-Task" style="stroke: #A80036; stroke-width: 1.0;"/><text fill="#000000" font-family="sans-serif" font-size="13" lengthAdjust="spacingAndGlyphs" textLength="23" x="658" y="184.0669">has</text><polygon fill="#000000" points="684,178.0664,690,181.0664,684,184.0664,684,178.0664" style="stroke: #000000; stroke-width: 1.0;"/><text fill="#000000" font-family="sans-serif" font-size="13" lengthAdjust="spacingAndGlyphs" textLength="8" x="411.1034" y="201.8111">1</text><text fill="#000000" font-family="sans-serif" font-size="13" lengthAdjust="spacingAndGlyphs" textLength="7" x="1023.0382" y="183.5442">*</text><!--MD5=[da2d560b3f89d8c66478284968d27dfa]
link Organization to PaymentTransaction--><path d="M381.7906,162.4924 C396.7151,152.0509 414.9474,140.9227 433,134 C535.0055,94.8835 661.182,80.4431 741.6415,75.1141 " fill="none" id="Organization-PaymentTransaction" style="stroke: #A80036; stroke-width: 1.0;"/><text fill="#000000" font-family="sans-serif" font-size="13" lengthAdjust="spacingAndGlyphs" textLength="23" x="537.5" y="87.0669">has</text><polygon fill="#000000" points="563.5,81.0664,569.5,84.0664,563.5,87.0664,563.5,81.0664" style="stroke: #000000; stroke-width: 1.0;"/><text fill="#000000" font-family="sans-serif" font-size="13" lengthAdjust="spacingAndGlyphs" textLength="8" x="381.0521" y="151.3099">1</text><text fill="#000000" font-family="sans-serif" font-size="13" lengthAdjust="spacingAndGlyphs" textLength="7" x="726.9108" y="88.1656">*</text><!--MD5=[04ce0ecdab38a3951889ff50c232570f]
link Collaborator to User--><path d="M601.5734,308.28 C652.785,341.9286 739.2191,389 822,389 C822,389 822,389 1437,389 C1513.1775,389 1600.6096,377.7778 1655.8156,369.2954 " fill="none" id="Collaborator-User" style="stroke: #A80036; stroke-width: 1.0;"/><text fill="#000000" font-family="sans-serif" font-size="13" lengthAdjust="spacingAndGlyphs" textLength="52" x="1077.5" y="385.0669">acts like</text><polygon fill="#000000" points="1132.5,379.0664,1138.5,382.0664,1132.5,385.0664,1132.5,379.0664" style="stroke: #000000; stroke-width: 1.0;"/><text fill="#000000" font-family="sans-serif" font-size="13" lengthAdjust="spacingAndGlyphs" textLength="24" x="583.6427" y="327.6575">0..1</text><text fill="#000000" font-family="sans-serif" font-size="13" lengthAdjust="spacingAndGlyphs" textLength="8" x="1639.8627" y="383.6543">1</text><!--MD5=[65ab54bb4516ebbc699d18e0b28e9aea]
link Freelancer to User--><path d="M1505.0824,288.6052 C1551.5209,304.7062 1612.2447,325.76 1655.6956,340.8251 " fill="none" id="Freelancer-User" style="stroke: #A80036; stroke-width: 1.0;"/><text fill="#000000" font-family="sans-serif" font-size="13" lengthAdjust="spacingAndGlyphs" textLength="52" x="1560" y="305.0669">acts like</text><polygon fill="#000000" points="1615,299.0664,1621,302.0664,1615,305.0664,1615,299.0664" style="stroke: #000000; stroke-width: 1.0;"/><text fill="#000000" font-family="sans-serif" font-size="13" lengthAdjust="spacingAndGlyphs" textLength="24" x="1512.9655" y="303.719">0..1</text><text fill="#000000" font-family="sans-serif" font-size="13" lengthAdjust="spacingAndGlyphs" textLength="8" x="1640.0972" y="351.4297">1</text><!--MD5=[d2c3650dbd07e79cdad2ffd4a879dec6]
link Collaborator to Freelancer--><path d="M610.3087,274.3782 C764.151,272.633 1199.7397,267.6916 1368.7701,265.774 " fill="none" id="Collaborator-Freelancer" style="stroke: #A80036; stroke-width: 1.0;"/><text fill="#000000" font-family="sans-serif" font-size="13" lengthAdjust="spacingAndGlyphs" textLength="41" x="943" y="265.0669">create</text><polygon fill="#000000" points="987,259.0664,993,262.0664,987,265.0664,987,259.0664" style="stroke: #000000; stroke-width: 1.0;"/><text fill="#000000" font-family="sans-serif" font-size="13" lengthAdjust="spacingAndGlyphs" textLength="8" x="617.8436" y="287.3599">1</text><text fill="#000000" font-family="sans-serif" font-size="13" lengthAdjust="spacingAndGlyphs" textLength="7" x="1353.9246" y="278.7292">*</text><!--MD5=[f919d21ae7a75ef5ececc535e09d5009]
link Collaborator to Task--><path d="M610.2207,267.5777 C640.2836,263.432 678.2219,258.0895 712,253 C826.0131,235.8211 958.1156,214.2469 1037.8045,201.0495 " fill="none" id="Collaborator-Task" style="stroke: #A80036; stroke-width: 1.0;"/><text fill="#000000" font-family="sans-serif" font-size="13" lengthAdjust="spacingAndGlyphs" textLength="41" x="795" y="220.0669">create</text><polygon fill="#000000" points="839,214.0664,845,217.0664,839,220.0664,839,214.0664" style="stroke: #000000; stroke-width: 1.0;"/><text fill="#000000" font-family="sans-serif" font-size="13" lengthAdjust="spacingAndGlyphs" textLength="8" x="618.1113" y="262.6746">1</text><text fill="#000000" font-family="sans-serif" font-size="13" lengthAdjust="spacingAndGlyphs" textLength="7" x="1022.9984" y="215.1381">*</text><!--MD5=[c32d3c60a61e5638fef4971a1b3a8306]
link Collaborator to PaymentTransaction--><path d="M610.008,264.2795 C641.9682,256.0379 681.8544,242.2017 712,220 C759.4308,185.068 795.506,123.8937 812.0465,92.2464 " fill="none" id="Collaborator-PaymentTransaction" style="stroke: #A80036; stroke-width: 1.0;"/><text fill="#000000" font-family="sans-serif" font-size="13" lengthAdjust="spacingAndGlyphs" textLength="41" x="649" y="216.0669">create</text><polygon fill="#000000" points="693,210.0664,699,213.0664,693,216.0664,693,210.0664" style="stroke: #000000; stroke-width: 1.0;"/><text fill="#000000" font-family="sans-serif" font-size="13" lengthAdjust="spacingAndGlyphs" textLength="8" x="617.87" y="275.9488">1</text><text fill="#000000" font-family="sans-serif" font-size="13" lengthAdjust="spacingAndGlyphs" textLength="7" x="801.2627" y="112.1356">*</text><!--MD5=[f6802b286771c18a16ea4be983074371]
link PaymentTransaction to Freelancer--><path d="M902.1251,66.2313 C1023.2393,58.9246 1246.1209,51.4101 1315,89 C1356.6098,111.7081 1387.0345,155.4537 1407.0942,193.6487 " fill="none" id="PaymentTransaction-Freelancer" style="stroke: #A80036; stroke-width: 1.0;"/><text fill="#000000" font-family="sans-serif" font-size="13" lengthAdjust="spacingAndGlyphs" textLength="61" x="1073" y="57.0669">relates to</text><polygon fill="#000000" points="1137,51.0664,1143,54.0664,1137,57.0664,1137,51.0664" style="stroke: #000000; stroke-width: 1.0;"/><text fill="#000000" font-family="sans-serif" font-size="13" lengthAdjust="spacingAndGlyphs" textLength="8" x="909.8804" y="78.4639">1</text><text fill="#000000" font-family="sans-serif" font-size="13" lengthAdjust="spacingAndGlyphs" textLength="8" x="1395.7566" y="182.9387">1</text><!--MD5=[271ce7fefd7250ebaca83b70495774bd]
link PaymentTransaction to Task--><path d="M873.4293,92.1369 C910.8354,106.862 962.655,127.424 1008,146 C1017.6919,149.9704 1027.88,154.1991 1037.9138,158.3962 " fill="none" id="PaymentTransaction-Task" style="stroke: #A80036; stroke-width: 1.0;"/><text fill="#000000" font-family="sans-serif" font-size="13" lengthAdjust="spacingAndGlyphs" textLength="61" x="933" y="114.0669">relates to</text><polygon fill="#000000" points="997,108.0664,1003,111.0664,997,114.0664,997,108.0664" style="stroke: #000000; stroke-width: 1.0;"/><text fill="#000000" font-family="sans-serif" font-size="13" lengthAdjust="spacingAndGlyphs" textLength="8" x="878.7688" y="111.9953">1</text><text fill="#000000" font-family="sans-serif" font-size="13" lengthAdjust="spacingAndGlyphs" textLength="8" x="1022.0674" y="151.5393">1</text><!--MD5=[ccf9e4a23b86a8fcbc3774eff83a0cb7]
link PaymentTransaction to TaskExecution--><path d="M881.5972,51.9934 C897.7634,47.4531 915.3922,43.2955 932,41 C1075.0921,21.2222 1243.1612,29.3856 1344.7957,37.718 " fill="none" id="PaymentTransaction-TaskExecution" style="stroke: #A80036; stroke-width: 1.0;"/><text fill="#000000" font-family="sans-serif" font-size="13" lengthAdjust="spacingAndGlyphs" textLength="61" x="1073" y="25.0669">relates to</text><polygon fill="#000000" points="1137,19.0664,1143,22.0664,1137,25.0664,1137,19.0664" style="stroke: #000000; stroke-width: 1.0;"/><text fill="#000000" font-family="sans-serif" font-size="13" lengthAdjust="spacingAndGlyphs" textLength="8" x="889.9289" y="40.9997">1</text><text fill="#000000" font-family="sans-serif" font-size="13" lengthAdjust="spacingAndGlyphs" textLength="8" x="1329.1294" y="49.6317">1</text><!--MD5=[bdc7b78a1b1f03a53fec8289ba75cac4]
link Task to TaskExecution--><path d="M1182.1664,157.6617 C1230.6915,136.5896 1295.0202,108.6549 1346.9038,86.1244 " fill="none" id="Task-TaskExecution" style="stroke: #A80036; stroke-width: 1.0;"/><text fill="#000000" font-family="sans-serif" font-size="13" lengthAdjust="spacingAndGlyphs" textLength="23" x="1245.5" y="98.0669">has</text><polygon fill="#000000" points="1271.5,92.0664,1277.5,95.0664,1271.5,98.0664,1271.5,92.0664" style="stroke: #000000; stroke-width: 1.0;"/><text fill="#000000" font-family="sans-serif" font-size="13" lengthAdjust="spacingAndGlyphs" textLength="8" x="1190.0211" y="167.2759">1</text><text fill="#000000" font-family="sans-serif" font-size="13" lengthAdjust="spacingAndGlyphs" textLength="8" x="1329.2001" y="102.9849">1</text><!--MD5=[8853e9d83a8841c20c4ef075af762602]
link Task to Freelancer--><path d="M1182.1664,205.7726 C1237.8386,218.7117 1314.3125,236.4855 1368.9289,249.1792 " fill="none" id="Task-Freelancer" style="stroke: #A80036; stroke-width: 1.0;"/><text fill="#000000" font-family="sans-serif" font-size="13" lengthAdjust="spacingAndGlyphs" textLength="88" x="1213" y="210.0669">is assigned to</text><polygon fill="#000000" points="1304,204.0664,1310,207.0664,1304,210.0664,1304,204.0664" style="stroke: #000000; stroke-width: 1.0;"/><text fill="#000000" font-family="sans-serif" font-size="13" lengthAdjust="spacingAndGlyphs" textLength="23" x="1189.8794" y="220.0822">1..*</text><text fill="#000000" font-family="sans-serif" font-size="13" lengthAdjust="spacingAndGlyphs" textLength="8" x="1353.0461" y="260.3193">1</text><!--MD5=[d9d1215b05a679bf8c18801d7b902616]
@startuml
skinparam classAttributeIconSize 0
hide methods
left to right direction

class Platform {
  -String designation
}

class Organization {
  -String name
}

class Collaborator {
  -String name
  -String email
}


class User {
  -String email
  -String password
}

class Freelancer {
  -String id
  -String name
  -String expertiseLevel
  -String email
  -String NIF
  -String IBAN
  -String address
  -String country
  }

class Task {
 -String id
 -String briefDescription
 -Integer timeDuration
 -Double costPerHour
 -String taskCategory
}

class TaskExecution {
 -Date endDate
 -Double delay
 -String workQualityDescription
}

class PaymentTransaction{
}

Platform "1" - - "*" Organization : has registered >
Platform "1" - - "*" Freelancer : has/uses >
Organization "1" - - "1" Collaborator: has >
Organization "1" - - "*" Task: has >
Organization "1" - - "*" PaymentTransaction: has >
Collaborator "0..1" - - "1" User: acts like >
Freelancer "0..1" - - "1" User: acts like >
Collaborator "1" - - "*" Freelancer: create >
Collaborator "1" - - "*" Task: create >
Collaborator "1" - - "*" PaymentTransaction: create >
PaymentTransaction "1" - - "1" Freelancer: relates to >
PaymentTransaction "1" - - "1" Task: relates to >
PaymentTransaction "1" - - "1" TaskExecution: relates to >
Task "1" - - "1" TaskExecution: has >
Task "1..*" - - "1" Freelancer: is assigned to >
@enduml

PlantUML version 1.2019.12(Sun Nov 03 10:24:54 UTC 2019)
(GPL source distribution)
Java Runtime: OpenJDK Runtime Environment
JVM: OpenJDK 64-Bit Server VM
Java Version: 1.8.0_232-heroku-b09
Operating System: Linux
Default Encoding: UTF-8
Language: en
Country: US
--></g></svg>