<?xml version="1.0" encoding="UTF-8" standalone="no"?><svg xmlns="http://www.w3.org/2000/svg" xmlns:xlink="http://www.w3.org/1999/xlink" contentScriptType="application/ecmascript" contentStyleType="text/css" height="1255px" preserveAspectRatio="none" style="width:980px;height:1255px;" version="1.1" viewBox="0 0 980 1255" width="980px" zoomAndPan="magnify"><defs><filter height="300%" id="f14yrnv267bceb" width="300%" x="-1" y="-1"><feGaussianBlur result="blurOut" stdDeviation="2.0"/><feColorMatrix in="blurOut" result="blurOut2" type="matrix" values="0 0 0 0 0 0 0 0 0 0 0 0 0 0 0 0 0 0 .4 0"/><feOffset dx="4.0" dy="4.0" in="blurOut2" result="blurOut3"/><feBlend in="SourceGraphic" in2="blurOut3" mode="normal"/></filter></defs><g><!--MD5=[380d12a68ed0046a60f31008a02875d0]
class AplicacaoPOT--><rect fill="#FEFECE" filter="url(#f14yrnv267bceb)" height="73.6094" id="AplicacaoPOT" style="stroke: #A80036; stroke-width: 1.5;" width="136" x="6" y="283"/><ellipse cx="30" cy="299" fill="#ADD1B2" rx="11" ry="11" style="stroke: #A80036; stroke-width: 1.0;"/><path d="M32.9688,304.6406 Q32.3906,304.9375 31.75,305.0859 Q31.1094,305.2344 30.4063,305.2344 Q27.9063,305.2344 26.5859,303.5859 Q25.2656,301.9375 25.2656,298.8125 Q25.2656,295.6875 26.5859,294.0313 Q27.9063,292.375 30.4063,292.375 Q31.1094,292.375 31.7578,292.5313 Q32.4063,292.6875 32.9688,292.9844 L32.9688,295.7031 Q32.3438,295.125 31.75,294.8516 Q31.1563,294.5781 30.5313,294.5781 Q29.1875,294.5781 28.5,295.6484 Q27.8125,296.7188 27.8125,298.8125 Q27.8125,300.9063 28.5,301.9766 Q29.1875,303.0469 30.5313,303.0469 Q31.1563,303.0469 31.75,302.7734 Q32.3438,302.5 32.9688,301.9219 L32.9688,304.6406 Z "/><text fill="#000000" font-family="sans-serif" font-size="12" lengthAdjust="spacingAndGlyphs" textLength="84" x="46" y="303.1543">AplicacaoPOT</text><line style="stroke: #A80036; stroke-width: 1.5;" x1="7" x2="141" y1="315" y2="315"/><line style="stroke: #A80036; stroke-width: 1.5;" x1="7" x2="141" y1="323" y2="323"/><text fill="#000000" font-family="sans-serif" font-size="11" lengthAdjust="spacingAndGlyphs" textLength="118" x="12" y="337.2104">+static getInstance()</text><text fill="#000000" font-family="sans-serif" font-size="11" lengthAdjust="spacingAndGlyphs" textLength="124" x="12" y="350.0151">+getCurrentSession()</text><!--MD5=[1e13576e8c070e32200b62ceaa1f39ec]
class SessaoUtilizador--><rect fill="#FEFECE" filter="url(#f14yrnv267bceb)" height="60.8047" id="SessaoUtilizador" style="stroke: #A80036; stroke-width: 1.5;" width="135" x="177.5" y="289.5"/><ellipse cx="192.5" cy="305.5" fill="#ADD1B2" rx="11" ry="11" style="stroke: #A80036; stroke-width: 1.0;"/><path d="M195.4688,311.1406 Q194.8906,311.4375 194.25,311.5859 Q193.6094,311.7344 192.9063,311.7344 Q190.4063,311.7344 189.0859,310.0859 Q187.7656,308.4375 187.7656,305.3125 Q187.7656,302.1875 189.0859,300.5313 Q190.4063,298.875 192.9063,298.875 Q193.6094,298.875 194.2578,299.0313 Q194.9063,299.1875 195.4688,299.4844 L195.4688,302.2031 Q194.8438,301.625 194.25,301.3516 Q193.6563,301.0781 193.0313,301.0781 Q191.6875,301.0781 191,302.1484 Q190.3125,303.2188 190.3125,305.3125 Q190.3125,307.4063 191,308.4766 Q191.6875,309.5469 193.0313,309.5469 Q193.6563,309.5469 194.25,309.2734 Q194.8438,309 195.4688,308.4219 L195.4688,311.1406 Z "/><text fill="#000000" font-family="sans-serif" font-size="12" lengthAdjust="spacingAndGlyphs" textLength="103" x="206.5" y="309.6543">SessaoUtilizador</text><line style="stroke: #A80036; stroke-width: 1.5;" x1="178.5" x2="311.5" y1="321.5" y2="321.5"/><line style="stroke: #A80036; stroke-width: 1.5;" x1="178.5" x2="311.5" y1="329.5" y2="329.5"/><text fill="#000000" font-family="sans-serif" font-size="11" lengthAdjust="spacingAndGlyphs" textLength="93" x="183.5" y="343.7104">+getUserEmail()</text><!--MD5=[27c2d4bbe9f7b9d3b0ea2797cc54308a]
class Tarefa--><rect fill="#FEFECE" filter="url(#f14yrnv267bceb)" height="124.8281" id="Tarefa" style="stroke: #A80036; stroke-width: 1.5;" width="150" x="713" y="943.5"/><ellipse cx="763.75" cy="959.5" fill="#ADD1B2" rx="11" ry="11" style="stroke: #A80036; stroke-width: 1.0;"/><path d="M766.7188,965.1406 Q766.1406,965.4375 765.5,965.5859 Q764.8594,965.7344 764.1563,965.7344 Q761.6563,965.7344 760.3359,964.0859 Q759.0156,962.4375 759.0156,959.3125 Q759.0156,956.1875 760.3359,954.5313 Q761.6563,952.875 764.1563,952.875 Q764.8594,952.875 765.5078,953.0313 Q766.1563,953.1875 766.7188,953.4844 L766.7188,956.2031 Q766.0938,955.625 765.5,955.3516 Q764.9063,955.0781 764.2813,955.0781 Q762.9375,955.0781 762.25,956.1484 Q761.5625,957.2188 761.5625,959.3125 Q761.5625,961.4063 762.25,962.4766 Q762.9375,963.5469 764.2813,963.5469 Q764.9063,963.5469 765.5,963.2734 Q766.0938,963 766.7188,962.4219 L766.7188,965.1406 Z "/><text fill="#000000" font-family="sans-serif" font-size="12" lengthAdjust="spacingAndGlyphs" textLength="40" x="784.25" y="963.6543">Tarefa</text><line style="stroke: #A80036; stroke-width: 1.5;" x1="714" x2="862" y1="975.5" y2="975.5"/><text fill="#000000" font-family="sans-serif" font-size="11" lengthAdjust="spacingAndGlyphs" textLength="52" x="719" y="989.7104">-String id</text><text fill="#000000" font-family="sans-serif" font-size="11" lengthAdjust="spacingAndGlyphs" textLength="132" x="719" y="1002.5151">-String briefDescription</text><text fill="#000000" font-family="sans-serif" font-size="11" lengthAdjust="spacingAndGlyphs" textLength="121" x="719" y="1015.3198">-Integer timeDuration</text><text fill="#000000" font-family="sans-serif" font-size="11" lengthAdjust="spacingAndGlyphs" textLength="117" x="719" y="1028.1245">-Double costPerHour</text><text fill="#000000" font-family="sans-serif" font-size="11" lengthAdjust="spacingAndGlyphs" textLength="117" x="719" y="1040.9292">-String taskCategory</text><line style="stroke: #A80036; stroke-width: 1.5;" x1="714" x2="862" y1="1047.5234" y2="1047.5234"/><text fill="#000000" font-family="sans-serif" font-size="11" lengthAdjust="spacingAndGlyphs" textLength="138" x="719" y="1061.7339">+getTaskExecData(task)</text><!--MD5=[1f687b5315377fe49fca59b457947463]
class Freelancer--><rect fill="#FEFECE" filter="url(#f14yrnv267bceb)" height="150.4375" id="Freelancer" style="stroke: #A80036; stroke-width: 1.5;" width="136" x="508" y="931"/><ellipse cx="539.65" cy="947" fill="#ADD1B2" rx="11" ry="11" style="stroke: #A80036; stroke-width: 1.0;"/><path d="M542.6188,952.6406 Q542.0406,952.9375 541.4,953.0859 Q540.7594,953.2344 540.0563,953.2344 Q537.5563,953.2344 536.2359,951.5859 Q534.9156,949.9375 534.9156,946.8125 Q534.9156,943.6875 536.2359,942.0313 Q537.5563,940.375 540.0563,940.375 Q540.7594,940.375 541.4078,940.5313 Q542.0563,940.6875 542.6188,940.9844 L542.6188,943.7031 Q541.9938,943.125 541.4,942.8516 Q540.8063,942.5781 540.1813,942.5781 Q538.8375,942.5781 538.15,943.6484 Q537.4625,944.7188 537.4625,946.8125 Q537.4625,948.9063 538.15,949.9766 Q538.8375,951.0469 540.1813,951.0469 Q540.8063,951.0469 541.4,950.7734 Q541.9938,950.5 542.6188,949.9219 L542.6188,952.6406 Z "/><text fill="#000000" font-family="sans-serif" font-size="12" lengthAdjust="spacingAndGlyphs" textLength="67" x="557.35" y="951.1543">Freelancer</text><line style="stroke: #A80036; stroke-width: 1.5;" x1="509" x2="643" y1="963" y2="963"/><text fill="#000000" font-family="sans-serif" font-size="11" lengthAdjust="spacingAndGlyphs" textLength="52" x="514" y="977.2104">-String id</text><text fill="#000000" font-family="sans-serif" font-size="11" lengthAdjust="spacingAndGlyphs" textLength="74" x="514" y="990.0151">-String name</text><text fill="#000000" font-family="sans-serif" font-size="11" lengthAdjust="spacingAndGlyphs" textLength="124" x="514" y="1002.8198">-String expertiseLevel</text><text fill="#000000" font-family="sans-serif" font-size="11" lengthAdjust="spacingAndGlyphs" textLength="73" x="514" y="1015.6245">-String email</text><text fill="#000000" font-family="sans-serif" font-size="11" lengthAdjust="spacingAndGlyphs" textLength="59" x="514" y="1028.4292">-String NIF</text><text fill="#000000" font-family="sans-serif" font-size="11" lengthAdjust="spacingAndGlyphs" textLength="68" x="514" y="1041.2339">-String IBAN</text><text fill="#000000" font-family="sans-serif" font-size="11" lengthAdjust="spacingAndGlyphs" textLength="89" x="514" y="1054.0386">-String address</text><text fill="#000000" font-family="sans-serif" font-size="11" lengthAdjust="spacingAndGlyphs" textLength="84" x="514" y="1066.8433">-String country</text><line style="stroke: #A80036; stroke-width: 1.5;" x1="509" x2="643" y1="1073.4375" y2="1073.4375"/><!--MD5=[86c7c362de55a38b660185a1328fe18d]
class Organization--><rect fill="#FEFECE" filter="url(#f14yrnv267bceb)" height="137.6328" id="Organization" style="stroke: #A80036; stroke-width: 1.5;" width="281" x="547.5" y="578"/><ellipse cx="644.75" cy="594" fill="#ADD1B2" rx="11" ry="11" style="stroke: #A80036; stroke-width: 1.0;"/><path d="M647.7188,599.6406 Q647.1406,599.9375 646.5,600.0859 Q645.8594,600.2344 645.1563,600.2344 Q642.6563,600.2344 641.3359,598.5859 Q640.0156,596.9375 640.0156,593.8125 Q640.0156,590.6875 641.3359,589.0313 Q642.6563,587.375 645.1563,587.375 Q645.8594,587.375 646.5078,587.5313 Q647.1563,587.6875 647.7188,587.9844 L647.7188,590.7031 Q647.0938,590.125 646.5,589.8516 Q645.9063,589.5781 645.2813,589.5781 Q643.9375,589.5781 643.25,590.6484 Q642.5625,591.7188 642.5625,593.8125 Q642.5625,595.9063 643.25,596.9766 Q643.9375,598.0469 645.2813,598.0469 Q645.9063,598.0469 646.5,597.7734 Q647.0938,597.5 647.7188,596.9219 L647.7188,599.6406 Z "/><text fill="#000000" font-family="sans-serif" font-size="12" lengthAdjust="spacingAndGlyphs" textLength="78" x="665.25" y="598.1543">Organization</text><line style="stroke: #A80036; stroke-width: 1.5;" x1="548.5" x2="827.5" y1="610" y2="610"/><text fill="#000000" font-family="sans-serif" font-size="11" lengthAdjust="spacingAndGlyphs" textLength="74" x="553.5" y="624.2104">-String name</text><line style="stroke: #A80036; stroke-width: 1.5;" x1="548.5" x2="827.5" y1="630.8047" y2="630.8047"/><text fill="#000000" font-family="sans-serif" font-size="11" lengthAdjust="spacingAndGlyphs" textLength="89" x="553.5" y="645.0151">+getTasksList()</text><text fill="#000000" font-family="sans-serif" font-size="11" lengthAdjust="spacingAndGlyphs" textLength="186" x="553.5" y="657.8198">+generatePayAmount(task, free)</text><text fill="#000000" font-family="sans-serif" font-size="11" lengthAdjust="spacingAndGlyphs" textLength="269" x="553.5" y="670.6245">+newPaymentTransaction(task, taskExec, free)</text><text fill="#000000" font-family="sans-serif" font-size="11" lengthAdjust="spacingAndGlyphs" textLength="204" x="553.5" y="683.4292">+validatePaymentTransaction(payT)</text><text fill="#000000" font-family="sans-serif" font-size="11" lengthAdjust="spacingAndGlyphs" textLength="207" x="553.5" y="696.2339">+paymentTransactionRegister(payT)</text><text fill="#000000" font-family="sans-serif" font-size="11" lengthAdjust="spacingAndGlyphs" textLength="181" x="553.5" y="709.0386">+addPaymentTransaction(payT)</text><!--MD5=[cf2635f8a68afd84898027166f4516bc]
class TaskList--><rect fill="#FEFECE" filter="url(#f14yrnv267bceb)" height="60.8047" id="TaskList" style="stroke: #A80036; stroke-width: 1.5;" width="121" x="782.5" y="793"/><ellipse cx="815.05" cy="809" fill="#ADD1B2" rx="11" ry="11" style="stroke: #A80036; stroke-width: 1.0;"/><path d="M818.0188,814.6406 Q817.4406,814.9375 816.8,815.0859 Q816.1594,815.2344 815.4563,815.2344 Q812.9563,815.2344 811.6359,813.5859 Q810.3156,811.9375 810.3156,808.8125 Q810.3156,805.6875 811.6359,804.0313 Q812.9563,802.375 815.4563,802.375 Q816.1594,802.375 816.8078,802.5313 Q817.4563,802.6875 818.0188,802.9844 L818.0188,805.7031 Q817.3938,805.125 816.8,804.8516 Q816.2063,804.5781 815.5813,804.5781 Q814.2375,804.5781 813.55,805.6484 Q812.8625,806.7188 812.8625,808.8125 Q812.8625,810.9063 813.55,811.9766 Q814.2375,813.0469 815.5813,813.0469 Q816.2063,813.0469 816.8,812.7734 Q817.3938,812.5 818.0188,811.9219 L818.0188,814.6406 Z "/><text fill="#000000" font-family="sans-serif" font-size="12" lengthAdjust="spacingAndGlyphs" textLength="50" x="832.95" y="813.1543">TaskList</text><line style="stroke: #A80036; stroke-width: 1.5;" x1="783.5" x2="902.5" y1="825" y2="825"/><line style="stroke: #A80036; stroke-width: 1.5;" x1="783.5" x2="902.5" y1="833" y2="833"/><text fill="#000000" font-family="sans-serif" font-size="11" lengthAdjust="spacingAndGlyphs" textLength="109" x="788.5" y="847.2104">+taskExists(taskId)</text><!--MD5=[99b8db98afdc2c8404e39242ef4c1e65]
class Platform--><rect fill="#FEFECE" filter="url(#f14yrnv267bceb)" height="86.4141" id="Platform" style="stroke: #A80036; stroke-width: 1.5;" width="271" x="419.5" y="277"/><ellipse cx="524.75" cy="293" fill="#ADD1B2" rx="11" ry="11" style="stroke: #A80036; stroke-width: 1.0;"/><path d="M527.7188,298.6406 Q527.1406,298.9375 526.5,299.0859 Q525.8594,299.2344 525.1563,299.2344 Q522.6563,299.2344 521.3359,297.5859 Q520.0156,295.9375 520.0156,292.8125 Q520.0156,289.6875 521.3359,288.0313 Q522.6563,286.375 525.1563,286.375 Q525.8594,286.375 526.5078,286.5313 Q527.1563,286.6875 527.7188,286.9844 L527.7188,289.7031 Q527.0938,289.125 526.5,288.8516 Q525.9063,288.5781 525.2813,288.5781 Q523.9375,288.5781 523.25,289.6484 Q522.5625,290.7188 522.5625,292.8125 Q522.5625,294.9063 523.25,295.9766 Q523.9375,297.0469 525.2813,297.0469 Q525.9063,297.0469 526.5,296.7734 Q527.0938,296.5 527.7188,295.9219 L527.7188,298.6406 Z "/><text fill="#000000" font-family="sans-serif" font-size="12" lengthAdjust="spacingAndGlyphs" textLength="52" x="545.25" y="297.1543">Platform</text><line style="stroke: #A80036; stroke-width: 1.5;" x1="420.5" x2="689.5" y1="309" y2="309"/><text fill="#000000" font-family="sans-serif" font-size="11" lengthAdjust="spacingAndGlyphs" textLength="108" x="425.5" y="323.2104">-String designation</text><line style="stroke: #A80036; stroke-width: 1.5;" x1="420.5" x2="689.5" y1="329.8047" y2="329.8047"/><text fill="#000000" font-family="sans-serif" font-size="11" lengthAdjust="spacingAndGlyphs" textLength="259" x="425.5" y="344.0151">+OrganizationRecord getOrganizationRecord()</text><text fill="#000000" font-family="sans-serif" font-size="11" lengthAdjust="spacingAndGlyphs" textLength="237" x="425.5" y="356.8198">+FreelancerRecord getFreelancerRecord()</text><!--MD5=[8e99ddecb52374928abfa9bda10b0d1d]
class FreelancerRecord--><rect fill="#FEFECE" filter="url(#f14yrnv267bceb)" height="60.8047" id="FreelancerRecord" style="stroke: #A80036; stroke-width: 1.5;" width="143" x="362.5" y="440"/><ellipse cx="377.5" cy="456" fill="#ADD1B2" rx="11" ry="11" style="stroke: #A80036; stroke-width: 1.0;"/><path d="M380.4688,461.6406 Q379.8906,461.9375 379.25,462.0859 Q378.6094,462.2344 377.9063,462.2344 Q375.4063,462.2344 374.0859,460.5859 Q372.7656,458.9375 372.7656,455.8125 Q372.7656,452.6875 374.0859,451.0313 Q375.4063,449.375 377.9063,449.375 Q378.6094,449.375 379.2578,449.5313 Q379.9063,449.6875 380.4688,449.9844 L380.4688,452.7031 Q379.8438,452.125 379.25,451.8516 Q378.6563,451.5781 378.0313,451.5781 Q376.6875,451.5781 376,452.6484 Q375.3125,453.7188 375.3125,455.8125 Q375.3125,457.9063 376,458.9766 Q376.6875,460.0469 378.0313,460.0469 Q378.6563,460.0469 379.25,459.7734 Q379.8438,459.5 380.4688,458.9219 L380.4688,461.6406 Z "/><text fill="#000000" font-family="sans-serif" font-size="12" lengthAdjust="spacingAndGlyphs" textLength="111" x="391.5" y="460.1543">FreelancerRecord</text><line style="stroke: #A80036; stroke-width: 1.5;" x1="363.5" x2="504.5" y1="472" y2="472"/><line style="stroke: #A80036; stroke-width: 1.5;" x1="363.5" x2="504.5" y1="480" y2="480"/><text fill="#000000" font-family="sans-serif" font-size="11" lengthAdjust="spacingAndGlyphs" textLength="131" x="368.5" y="494.2104">+freelancerExists(frlId)</text><!--MD5=[cbc641a8e27dbfa422a9c525dae36a67]
class OrganizationRecord--><rect fill="#FEFECE" filter="url(#f14yrnv267bceb)" height="60.8047" id="OrganizationRecord" style="stroke: #A80036; stroke-width: 1.5;" width="221" x="540.5" y="440"/><ellipse cx="585.75" cy="456" fill="#ADD1B2" rx="11" ry="11" style="stroke: #A80036; stroke-width: 1.0;"/><path d="M588.7188,461.6406 Q588.1406,461.9375 587.5,462.0859 Q586.8594,462.2344 586.1563,462.2344 Q583.6563,462.2344 582.3359,460.5859 Q581.0156,458.9375 581.0156,455.8125 Q581.0156,452.6875 582.3359,451.0313 Q583.6563,449.375 586.1563,449.375 Q586.8594,449.375 587.5078,449.5313 Q588.1563,449.6875 588.7188,449.9844 L588.7188,452.7031 Q588.0938,452.125 587.5,451.8516 Q586.9063,451.5781 586.2813,451.5781 Q584.9375,451.5781 584.25,452.6484 Q583.5625,453.7188 583.5625,455.8125 Q583.5625,457.9063 584.25,458.9766 Q584.9375,460.0469 586.2813,460.0469 Q586.9063,460.0469 587.5,459.7734 Q588.0938,459.5 588.7188,458.9219 L588.7188,461.6406 Z "/><text fill="#000000" font-family="sans-serif" font-size="12" lengthAdjust="spacingAndGlyphs" textLength="122" x="606.25" y="460.1543">OrganizationRecord</text><line style="stroke: #A80036; stroke-width: 1.5;" x1="541.5" x2="760.5" y1="472" y2="472"/><line style="stroke: #A80036; stroke-width: 1.5;" x1="541.5" x2="760.5" y1="480" y2="480"/><text fill="#000000" font-family="sans-serif" font-size="11" lengthAdjust="spacingAndGlyphs" textLength="209" x="546.5" y="494.2104">+getOrganizationByUserEmail(email)</text><!--MD5=[9ab0068e71df7f673644752c40fe3ac4]
class CreatePaymentTransactionController--><rect fill="#FEFECE" filter="url(#f14yrnv267bceb)" height="99.2188" id="CreatePaymentTransactionController" style="stroke: #A80036; stroke-width: 1.5;" width="546" x="423" y="117"/><ellipse cx="576.25" cy="133" fill="#ADD1B2" rx="11" ry="11" style="stroke: #A80036; stroke-width: 1.0;"/><path d="M579.2188,138.6406 Q578.6406,138.9375 578,139.0859 Q577.3594,139.2344 576.6563,139.2344 Q574.1563,139.2344 572.8359,137.5859 Q571.5156,135.9375 571.5156,132.8125 Q571.5156,129.6875 572.8359,128.0313 Q574.1563,126.375 576.6563,126.375 Q577.3594,126.375 578.0078,126.5313 Q578.6563,126.6875 579.2188,126.9844 L579.2188,129.7031 Q578.5938,129.125 578,128.8516 Q577.4063,128.5781 576.7813,128.5781 Q575.4375,128.5781 574.75,129.6484 Q574.0625,130.7188 574.0625,132.8125 Q574.0625,134.9063 574.75,135.9766 Q575.4375,137.0469 576.7813,137.0469 Q577.4063,137.0469 578,136.7734 Q578.5938,136.5 579.2188,135.9219 L579.2188,138.6406 Z "/><text fill="#000000" font-family="sans-serif" font-size="12" lengthAdjust="spacingAndGlyphs" textLength="231" x="596.75" y="137.1543">CreatePaymentTransactionController</text><line style="stroke: #A80036; stroke-width: 1.5;" x1="424" x2="968" y1="149" y2="149"/><line style="stroke: #A80036; stroke-width: 1.5;" x1="424" x2="968" y1="157" y2="157"/><text fill="#000000" font-family="sans-serif" font-size="11" lengthAdjust="spacingAndGlyphs" textLength="530" x="429" y="171.2104">+newPaymentTransaction(taskId, briefDescription, timeDuration, costPerHour, taskCategory,</text><text fill="#000000" font-family="sans-serif" font-size="11" lengthAdjust="spacingAndGlyphs" textLength="227" x="429" y="184.0151">endDate, delay, workQualityDescription,</text><text fill="#000000" font-family="sans-serif" font-size="11" lengthAdjust="spacingAndGlyphs" textLength="359" x="429" y="196.8198">frlId, name, expertiseLevel, email, NIF, IBAN, address, country)</text><text fill="#000000" font-family="sans-serif" font-size="11" lengthAdjust="spacingAndGlyphs" textLength="180" x="429" y="209.6245">+paymentTransactionRegister()</text><!--MD5=[e472615a113cc15971a8fcaedb5e2163]
class CreatePaymentTransactionUI--><rect fill="#FEFECE" filter="url(#f14yrnv267bceb)" height="48" id="CreatePaymentTransactionUI" style="stroke: #A80036; stroke-width: 1.5;" width="214" x="589" y="8"/><ellipse cx="604" cy="24" fill="#ADD1B2" rx="11" ry="11" style="stroke: #A80036; stroke-width: 1.0;"/><path d="M606.9688,29.6406 Q606.3906,29.9375 605.75,30.0859 Q605.1094,30.2344 604.4063,30.2344 Q601.9063,30.2344 600.5859,28.5859 Q599.2656,26.9375 599.2656,23.8125 Q599.2656,20.6875 600.5859,19.0313 Q601.9063,17.375 604.4063,17.375 Q605.1094,17.375 605.7578,17.5313 Q606.4063,17.6875 606.9688,17.9844 L606.9688,20.7031 Q606.3438,20.125 605.75,19.8516 Q605.1563,19.5781 604.5313,19.5781 Q603.1875,19.5781 602.5,20.6484 Q601.8125,21.7188 601.8125,23.8125 Q601.8125,25.9063 602.5,26.9766 Q603.1875,28.0469 604.5313,28.0469 Q605.1563,28.0469 605.75,27.7734 Q606.3438,27.5 606.9688,26.9219 L606.9688,29.6406 Z "/><text fill="#000000" font-family="sans-serif" font-size="12" lengthAdjust="spacingAndGlyphs" textLength="182" x="618" y="28.1543">CreatePaymentTransactionUI</text><line style="stroke: #A80036; stroke-width: 1.5;" x1="590" x2="802" y1="40" y2="40"/><line style="stroke: #A80036; stroke-width: 1.5;" x1="590" x2="802" y1="48" y2="48"/><!--MD5=[b645a18afb25b7e5623af7186d8eb36f]
class PaymentTransaction--><rect fill="#FEFECE" filter="url(#f14yrnv267bceb)" height="60.8047" id="PaymentTransaction" style="stroke: #A80036; stroke-width: 1.5;" width="258" x="489" y="793"/><ellipse cx="549.75" cy="809" fill="#ADD1B2" rx="11" ry="11" style="stroke: #A80036; stroke-width: 1.0;"/><path d="M552.7188,814.6406 Q552.1406,814.9375 551.5,815.0859 Q550.8594,815.2344 550.1563,815.2344 Q547.6563,815.2344 546.3359,813.5859 Q545.0156,811.9375 545.0156,808.8125 Q545.0156,805.6875 546.3359,804.0313 Q547.6563,802.375 550.1563,802.375 Q550.8594,802.375 551.5078,802.5313 Q552.1563,802.6875 552.7188,802.9844 L552.7188,805.7031 Q552.0938,805.125 551.5,804.8516 Q550.9063,804.5781 550.2813,804.5781 Q548.9375,804.5781 548.25,805.6484 Q547.5625,806.7188 547.5625,808.8125 Q547.5625,810.9063 548.25,811.9766 Q548.9375,813.0469 550.2813,813.0469 Q550.9063,813.0469 551.5,812.7734 Q552.0938,812.5 552.7188,811.9219 L552.7188,814.6406 Z "/><text fill="#000000" font-family="sans-serif" font-size="12" lengthAdjust="spacingAndGlyphs" textLength="128" x="570.25" y="813.1543">PaymentTransaction</text><line style="stroke: #A80036; stroke-width: 1.5;" x1="490" x2="746" y1="825" y2="825"/><line style="stroke: #A80036; stroke-width: 1.5;" x1="490" x2="746" y1="833" y2="833"/><text fill="#000000" font-family="sans-serif" font-size="11" lengthAdjust="spacingAndGlyphs" textLength="246" x="495" y="847.2104">+PaymentTransaction(task, taskExec, free)</text><!--MD5=[5ce80547de3caced9d0089e35ded5090]
class TaskExecution--><rect fill="#FEFECE" filter="url(#f14yrnv267bceb)" height="86.4141" id="TaskExecution" style="stroke: #A80036; stroke-width: 1.5;" width="184" x="332" y="1158"/><ellipse cx="374.9" cy="1174" fill="#ADD1B2" rx="11" ry="11" style="stroke: #A80036; stroke-width: 1.0;"/><path d="M377.8688,1179.6406 Q377.2906,1179.9375 376.65,1180.0859 Q376.0094,1180.2344 375.3063,1180.2344 Q372.8063,1180.2344 371.4859,1178.5859 Q370.1656,1176.9375 370.1656,1173.8125 Q370.1656,1170.6875 371.4859,1169.0313 Q372.8063,1167.375 375.3063,1167.375 Q376.0094,1167.375 376.6578,1167.5313 Q377.3063,1167.6875 377.8688,1167.9844 L377.8688,1170.7031 Q377.2438,1170.125 376.65,1169.8516 Q376.0563,1169.5781 375.4313,1169.5781 Q374.0875,1169.5781 373.4,1170.6484 Q372.7125,1171.7188 372.7125,1173.8125 Q372.7125,1175.9063 373.4,1176.9766 Q374.0875,1178.0469 375.4313,1178.0469 Q376.0563,1178.0469 376.65,1177.7734 Q377.2438,1177.5 377.8688,1176.9219 L377.8688,1179.6406 Z "/><text fill="#000000" font-family="sans-serif" font-size="12" lengthAdjust="spacingAndGlyphs" textLength="90" x="395.1" y="1178.1543">TaskExecution</text><line style="stroke: #A80036; stroke-width: 1.5;" x1="333" x2="515" y1="1190" y2="1190"/><text fill="#000000" font-family="sans-serif" font-size="11" lengthAdjust="spacingAndGlyphs" textLength="81" x="338" y="1204.2104">-Date endDate</text><text fill="#000000" font-family="sans-serif" font-size="11" lengthAdjust="spacingAndGlyphs" textLength="77" x="338" y="1217.0151">-Double delay</text><text fill="#000000" font-family="sans-serif" font-size="11" lengthAdjust="spacingAndGlyphs" textLength="172" x="338" y="1229.8198">-String workQualityDescription</text><line style="stroke: #A80036; stroke-width: 1.5;" x1="333" x2="515" y1="1236.4141" y2="1236.4141"/><!--MD5=[d75f8faab7003fe4f7fadde3e00b3cf7]
link CreatePaymentTransactionUI to CreatePaymentTransactionController--><path d="M696,56.0459 C696,71.4478 696,92.0929 696,111.3652 " fill="none" id="CreatePaymentTransactionUI-&gt;CreatePaymentTransactionController" style="stroke: #A80036; stroke-width: 1.0; stroke-dasharray: 7.0,7.0;"/><polygon fill="#A80036" points="696,116.759,700,107.759,696,111.759,692,107.759,696,116.759" style="stroke: #A80036; stroke-width: 1.0;"/><!--MD5=[c21c0329c000ce3a64d50b793859385d]
link CreatePaymentTransactionController to Platform--><path d="M650.2213,216.3371 C633.5502,234.4861 614.7674,254.934 598.3165,272.8434 " fill="none" id="CreatePaymentTransactionController-&gt;Platform" style="stroke: #A80036; stroke-width: 1.0; stroke-dasharray: 7.0,7.0;"/><polygon fill="#A80036" points="594.6259,276.8612,603.6601,272.939,598.0083,273.1789,597.7684,267.5272,594.6259,276.8612" style="stroke: #A80036; stroke-width: 1.0;"/><!--MD5=[210f769589d3231071ce642d48ce0383]
link CreatePaymentTransactionController to Tarefa--><path d="M881.8581,216.1735 C924.2015,239.1218 957,272.2944 957,320 C957,320 957,320 957,823.5 C957,881.0205 911.2453,928.0919 867.3505,960.0152 " fill="none" id="CreatePaymentTransactionController-&gt;Tarefa" style="stroke: #A80036; stroke-width: 1.0; stroke-dasharray: 7.0,7.0;"/><polygon fill="#A80036" points="863.11,963.0571,872.7545,961.0613,867.1728,960.1426,868.0914,954.5609,863.11,963.0571" style="stroke: #A80036; stroke-width: 1.0;"/><!--MD5=[d808bb2ca26b86ab5f675405e49fd624]
link CreatePaymentTransactionController to Organization--><path d="M724.6138,216.0991 C758.7234,281.6649 807.7222,400.618 779,501 C771.7979,526.1708 758.8588,551.2217 744.9559,573.2837 " fill="none" id="CreatePaymentTransactionController-&gt;Organization" style="stroke: #A80036; stroke-width: 1.0; stroke-dasharray: 7.0,7.0;"/><polygon fill="#A80036" points="742.1639,577.6554,750.3793,572.2233,744.8551,573.4415,743.637,567.9173,742.1639,577.6554" style="stroke: #A80036; stroke-width: 1.0;"/><!--MD5=[7f575a012e9a165ea533ce68a26b6b57]
link CreatePaymentTransactionController to AplicacaoPOT--><path d="M422.7093,208.6005 C337.3132,225.5242 243.6059,248.0376 160,277 C155.7141,278.4847 151.3692,280.1387 147.026,281.9092 " fill="none" id="CreatePaymentTransactionController-&gt;AplicacaoPOT" style="stroke: #A80036; stroke-width: 1.0; stroke-dasharray: 7.0,7.0;"/><polygon fill="#A80036" points="142.3168,283.8737,152.1631,284.1001,146.9313,281.9486,149.0829,276.7168,142.3168,283.8737" style="stroke: #A80036; stroke-width: 1.0;"/><!--MD5=[f2c9a5521a5a338228b31f52f2317768]
link CreatePaymentTransactionController to SessaoUtilizador--><path d="M422.6004,214.4252 C394.1033,223.2734 366.0606,233.7076 340,246 C318.734,256.0309 297.8175,271.5309 281.048,285.7584 " fill="none" id="CreatePaymentTransactionController-&gt;SessaoUtilizador" style="stroke: #A80036; stroke-width: 1.0; stroke-dasharray: 7.0,7.0;"/><polygon fill="#A80036" points="276.8762,289.3441,286.3089,286.5113,280.6681,286.085,281.0944,280.4443,276.8762,289.3441" style="stroke: #A80036; stroke-width: 1.0;"/><!--MD5=[da3ba2fd2050f5fe3136cfce7fae0061]
link CreatePaymentTransactionController to TaskList--><path d="M814.4399,216.027 C852.9623,240.5254 886,274.7316 886,320 C886,320 886,320 886,647 C886,696.9 869.575,752.5382 857.0277,787.761 " fill="none" id="CreatePaymentTransactionController-&gt;TaskList" style="stroke: #A80036; stroke-width: 1.0; stroke-dasharray: 7.0,7.0;"/><polygon fill="#A80036" points="855.2071,792.8066,862.0246,785.6988,856.9043,788.1035,854.4996,782.9832,855.2071,792.8066" style="stroke: #A80036; stroke-width: 1.0;"/><!--MD5=[c32dea31d2938f3f9790d11b53b9a388]
link CreatePaymentTransactionController to FreelancerRecord--><path d="M514.4606,216.1291 C463.1478,234.0187 417.0942,255.2017 402,277 C369.243,324.306 393.6759,393.4738 414.0695,435.0281 " fill="none" id="CreatePaymentTransactionController-&gt;FreelancerRecord" style="stroke: #A80036; stroke-width: 1.0; stroke-dasharray: 7.0,7.0;"/><polygon fill="#A80036" points="416.4058,439.7066,415.9635,429.8677,414.172,435.2334,408.8063,433.4418,416.4058,439.7066" style="stroke: #A80036; stroke-width: 1.0;"/><!--MD5=[d668dbbb2dc11516af23cddbba338fa8]
link CreatePaymentTransactionController to OrganizationRecord--><path d="M707.1966,216.1083 C714.3304,256.2978 720.1678,314.0777 708,363 C701.6008,388.729 687.7757,415.0686 675.3441,435.2359 " fill="none" id="CreatePaymentTransactionController-&gt;OrganizationRecord" style="stroke: #A80036; stroke-width: 1.0; stroke-dasharray: 7.0,7.0;"/><polygon fill="#A80036" points="672.5512,439.7028,680.7142,434.1923,675.202,435.4633,673.931,429.9511,672.5512,439.7028" style="stroke: #A80036; stroke-width: 1.0;"/><!--MD5=[770acaf80676df7c88d7b123b317a68a]
link Platform to FreelancerRecord--><path d="M520.3263,363.1273 C501.7868,386.1866 479.2642,414.2003 461.8733,435.8311 " fill="none" id="Platform-&gt;FreelancerRecord" style="stroke: #A80036; stroke-width: 1.0;"/><polygon fill="#A80036" points="458.6879,439.7931,467.4446,435.2853,461.8208,435.8963,461.2098,430.2726,458.6879,439.7931" style="stroke: #A80036; stroke-width: 1.0;"/><text fill="#000000" font-family="sans-serif" font-size="13" lengthAdjust="spacingAndGlyphs" textLength="23" x="496" y="406.0669">has</text><text fill="#000000" font-family="sans-serif" font-size="13" lengthAdjust="spacingAndGlyphs" textLength="8" x="505.921" y="383.5561">1</text><text fill="#000000" font-family="sans-serif" font-size="13" lengthAdjust="spacingAndGlyphs" textLength="8" x="454.9548" y="429.0137">1</text><!--MD5=[76dd8b0213adc6164fe232d2ec5e06d4]
link Platform to OrganizationRecord--><path d="M582.5097,363.1273 C597.1577,386.0909 614.9397,413.9679 628.7137,435.5615 " fill="none" id="Platform-&gt;OrganizationRecord" style="stroke: #A80036; stroke-width: 1.0;"/><polygon fill="#A80036" points="631.4129,439.7931,629.9453,430.0542,628.724,435.5777,623.2006,434.3564,631.4129,439.7931" style="stroke: #A80036; stroke-width: 1.0;"/><text fill="#000000" font-family="sans-serif" font-size="13" lengthAdjust="spacingAndGlyphs" textLength="23" x="613" y="406.0669">has</text><text fill="#000000" font-family="sans-serif" font-size="13" lengthAdjust="spacingAndGlyphs" textLength="8" x="578.4035" y="383.5561">1</text><text fill="#000000" font-family="sans-serif" font-size="13" lengthAdjust="spacingAndGlyphs" textLength="8" x="618.5481" y="429.0137">1</text><!--MD5=[1ba6fe7fef303d4e20cc74b9f40a5114]
link FreelancerRecord to Freelancer--><path d="M431.8506,501.2278 C428.2757,567.8141 425.4856,729.4481 471,854 C480.2751,879.3818 494.8188,904.5211 510.1583,926.8281 " fill="none" id="FreelancerRecord-&gt;Freelancer" style="stroke: #A80036; stroke-width: 1.0;"/><polygon fill="#A80036" points="513.0307,930.9598,511.1776,921.2868,510.1766,926.8544,504.609,925.8534,513.0307,930.9598" style="stroke: #A80036; stroke-width: 1.0;"/><text fill="#000000" font-family="sans-serif" font-size="13" lengthAdjust="spacingAndGlyphs" textLength="23" x="448" y="759.0669">has</text><text fill="#000000" font-family="sans-serif" font-size="13" lengthAdjust="spacingAndGlyphs" textLength="8" x="422.6399" y="520.8531">1</text><text fill="#000000" font-family="sans-serif" font-size="13" lengthAdjust="spacingAndGlyphs" textLength="7" x="499.4876" y="919.8866">*</text><!--MD5=[896b68ddb41e7a366f2f4442a4840a84]
link OrganizationRecord to Organization--><path d="M657.4449,501.244 C661.5988,521.059 667.1888,547.725 672.4517,572.8304 " fill="none" id="OrganizationRecord-&gt;Organization" style="stroke: #A80036; stroke-width: 1.0;"/><polygon fill="#A80036" points="673.4994,577.8282,675.5675,568.1989,672.4734,572.9346,667.7377,569.8405,673.4994,577.8282" style="stroke: #A80036; stroke-width: 1.0;"/><text fill="#000000" font-family="sans-serif" font-size="13" lengthAdjust="spacingAndGlyphs" textLength="23" x="668" y="544.0669">has</text><text fill="#000000" font-family="sans-serif" font-size="13" lengthAdjust="spacingAndGlyphs" textLength="8" x="649.9262" y="520.8725">1</text><text fill="#000000" font-family="sans-serif" font-size="13" lengthAdjust="spacingAndGlyphs" textLength="7" x="664.6431" y="567.0141">*</text><!--MD5=[522c679f4dd7ba84a6aa9ac03f58229d]
link Organization to TaskList--><path d="M748.8152,716.2509 C770.6923,741.1625 794.4314,768.1945 812.6038,788.8875 " fill="none" id="Organization-&gt;TaskList" style="stroke: #A80036; stroke-width: 1.0;"/><polygon fill="#A80036" points="815.9304,792.6756,812.9971,783.2737,812.6311,788.9187,806.9861,788.5526,815.9304,792.6756" style="stroke: #A80036; stroke-width: 1.0;"/><text fill="#000000" font-family="sans-serif" font-size="13" lengthAdjust="spacingAndGlyphs" textLength="23" x="789" y="759.0669">has</text><text fill="#000000" font-family="sans-serif" font-size="13" lengthAdjust="spacingAndGlyphs" textLength="8" x="746.2304" y="735.6569">1</text><text fill="#000000" font-family="sans-serif" font-size="13" lengthAdjust="spacingAndGlyphs" textLength="8" x="801.5223" y="781.8719">1</text><!--MD5=[da2d560b3f89d8c66478284968d27dfa]
link Organization to PaymentTransaction--><path d="M660.5351,716.2509 C650.8191,740.749 640.2898,767.2978 632.138,787.8519 " fill="none" id="Organization-&gt;PaymentTransaction" style="stroke: #A80036; stroke-width: 1.0;"/><polygon fill="#A80036" points="630.225,792.6756,637.2613,785.7843,632.0684,788.0278,629.8249,782.8349,630.225,792.6756" style="stroke: #A80036; stroke-width: 1.0;"/><text fill="#000000" font-family="sans-serif" font-size="13" lengthAdjust="spacingAndGlyphs" textLength="23" x="648" y="759.0669">has</text><text fill="#000000" font-family="sans-serif" font-size="13" lengthAdjust="spacingAndGlyphs" textLength="8" x="649.5361" y="735.6569">1</text><text fill="#000000" font-family="sans-serif" font-size="13" lengthAdjust="spacingAndGlyphs" textLength="7" x="625.0245" y="781.8719">*</text><!--MD5=[9873476384f34901b938240dc2986d57]
link TaskList to Tarefa--><path d="M833.7942,854.0464 C826.8852,876.9718 817.1567,909.2528 808.4423,938.1687 " fill="none" id="TaskList-&gt;Tarefa" style="stroke: #A80036; stroke-width: 1.0;"/><polygon fill="#A80036" points="806.9408,943.1509,813.3678,935.6881,808.3837,938.3636,805.7081,933.3795,806.9408,943.1509" style="stroke: #A80036; stroke-width: 1.0;"/><text fill="#000000" font-family="sans-serif" font-size="13" lengthAdjust="spacingAndGlyphs" textLength="23" x="824" y="897.0669">has</text><text fill="#000000" font-family="sans-serif" font-size="13" lengthAdjust="spacingAndGlyphs" textLength="8" x="823.0705" y="873.9942">1</text><text fill="#000000" font-family="sans-serif" font-size="13" lengthAdjust="spacingAndGlyphs" textLength="7" x="801.6296" y="932.54">*</text><!--MD5=[8a6254df929d9688c19c0dc09f496a68]
link Tarefa to TaskExecution--><path d="M712.9119,1051.4272 C695.9572,1061.3808 677.9562,1071.7132 661,1081 C614.0717,1106.7023 561.0034,1133.7541 516.9983,1155.6535 " fill="none" id="Tarefa-&gt;TaskExecution" style="stroke: #A80036; stroke-width: 1.0;"/><polygon fill="#A80036" points="512.4971,1157.8913,522.3368,1157.4663,516.9743,1155.6654,518.7753,1150.3028,512.4971,1157.8913" style="stroke: #A80036; stroke-width: 1.0;"/><text fill="#000000" font-family="sans-serif" font-size="13" lengthAdjust="spacingAndGlyphs" textLength="23" x="605" y="1124.0669">has</text><text fill="#000000" font-family="sans-serif" font-size="13" lengthAdjust="spacingAndGlyphs" textLength="8" x="696.7559" y="1052.421">1</text><text fill="#000000" font-family="sans-serif" font-size="13" lengthAdjust="spacingAndGlyphs" textLength="8" x="517.9638" y="1146.87">1</text><!--MD5=[f6802b286771c18a16ea4be983074371]
link PaymentTransaction to Freelancer--><path d="M607.6264,854.0783 C604.6055,863.5978 601.4598,874.1747 599,884 C595.6433,897.4075 592.5251,911.7529 589.7366,925.7252 " fill="none" id="PaymentTransaction-&gt;Freelancer" style="stroke: #A80036; stroke-width: 1.0;"/><polygon fill="#A80036" points="588.7243,930.8536,594.3917,922.7988,589.6927,925.9483,586.5432,921.2493,588.7243,930.8536" style="stroke: #A80036; stroke-width: 1.0;"/><text fill="#000000" font-family="sans-serif" font-size="13" lengthAdjust="spacingAndGlyphs" textLength="62" x="600" y="897.0669">related to</text><text fill="#000000" font-family="sans-serif" font-size="13" lengthAdjust="spacingAndGlyphs" textLength="8" x="596.6618" y="874.0327">1</text><text fill="#000000" font-family="sans-serif" font-size="13" lengthAdjust="spacingAndGlyphs" textLength="8" x="581.5558" y="920.0287">1</text><!--MD5=[b41e08b5933bb8d57a68400b45ec2baf]
link PaymentTransaction to Tarefa--><path d="M646.4542,854.0464 C668.0741,877.256 698.6262,910.0546 725.815,939.2425 " fill="none" id="PaymentTransaction-&gt;Tarefa" style="stroke: #A80036; stroke-width: 1.0;"/><polygon fill="#A80036" points="729.4557,943.1509,726.2481,933.839,726.0477,939.4923,720.3944,939.2918,729.4557,943.1509" style="stroke: #A80036; stroke-width: 1.0;"/><text fill="#000000" font-family="sans-serif" font-size="13" lengthAdjust="spacingAndGlyphs" textLength="62" x="689" y="897.0669">related to</text><text fill="#000000" font-family="sans-serif" font-size="13" lengthAdjust="spacingAndGlyphs" textLength="8" x="643.4979" y="873.9942">1</text><text fill="#000000" font-family="sans-serif" font-size="13" lengthAdjust="spacingAndGlyphs" textLength="8" x="714.6149" y="932.54">1</text><!--MD5=[ccf9e4a23b86a8fcbc3774eff83a0cb7]
link PaymentTransaction to TaskExecution--><path d="M520.9877,854.0175 C484.6222,870.6869 447.0448,895.4011 426,931 C385.5926,999.3522 397.7824,1095.4593 410.656,1152.6669 " fill="none" id="PaymentTransaction-&gt;TaskExecution" style="stroke: #A80036; stroke-width: 1.0;"/><polygon fill="#A80036" points="411.822,1157.7386,413.7035,1148.0711,410.7016,1152.8658,405.907,1149.8638,411.822,1157.7386" style="stroke: #A80036; stroke-width: 1.0;"/><text fill="#000000" font-family="sans-serif" font-size="13" lengthAdjust="spacingAndGlyphs" textLength="62" x="427" y="1010.5669">related to</text><text fill="#000000" font-family="sans-serif" font-size="13" lengthAdjust="spacingAndGlyphs" textLength="8" x="492.1539" y="873.9593">1</text><text fill="#000000" font-family="sans-serif" font-size="13" lengthAdjust="spacingAndGlyphs" textLength="8" x="401.3447" y="1147.0111">1</text><!--MD5=[331c519ddefa40d565fcf895f2099612]
@startuml
skinparam classAttributeIconSize 0

class AplicacaoPOT
{
  +static getInstance()
  +getCurrentSession()
}

class SessaoUtilizador
{
  +getUserEmail()
}

class Tarefa {
  -String id
  -String briefDescription
  -Integer timeDuration
  -Double costPerHour
  -String taskCategory
  +getTaskExecData(task)
}

class Freelancer {
  -String id
  -String name
  -String expertiseLevel
  -String email
  -String NIF
  -String IBAN
  -String address
  -String country
}

class Organization {
  -String name
  +getTasksList()
  +generatePayAmount(task, free)
  +newPaymentTransaction(task, taskExec, free)
  +validatePaymentTransaction(payT)
  +paymentTransactionRegister(payT)
  +addPaymentTransaction(payT)
}

class TaskList {
  +taskExists(taskId)
}

class Platform {
  -String designation
  +OrganizationRecord getOrganizationRecord()
  +FreelancerRecord getFreelancerRecord()
}

class FreelancerRecord {
  +freelancerExists(frlId)
}

class OrganizationRecord  {
  +getOrganizationByUserEmail(email)
}

class CreatePaymentTransactionController {
  +newPaymentTransaction(taskId, briefDescription, timeDuration, costPerHour, taskCategory, \nendDate, delay, workQualityDescription, \nfrlId, name, expertiseLevel, email, NIF, IBAN, address, country)
  +paymentTransactionRegister()
}

class CreatePaymentTransactionUI {
}

class PaymentTransaction{
  +PaymentTransaction(task, taskExec, free)
}

class TaskExecution {
 -Date endDate
 -Double delay
 -String workQualityDescription
}

CreatePaymentTransactionUI ..> CreatePaymentTransactionController
CreatePaymentTransactionController ..> Platform
CreatePaymentTransactionController ..> Tarefa
CreatePaymentTransactionController ..> Organization
CreatePaymentTransactionController ..> AplicacaoPOT
CreatePaymentTransactionController ..> SessaoUtilizador
CreatePaymentTransactionController ..> TaskList
CreatePaymentTransactionController ..> FreelancerRecord
CreatePaymentTransactionController ..> OrganizationRecord
Platform "1" - -> "1" FreelancerRecord : has
Platform "1" - -> "1" OrganizationRecord : has

FreelancerRecord "1" - -> "*" Freelancer : has
OrganizationRecord "1" - -> "*" Organization : has
Organization "1" - -> "1" TaskList : has
Organization "1" - -> "*" PaymentTransaction : has
TaskList "1" - -> "*" Tarefa : has
Tarefa "1" - -> "1" TaskExecution : has

PaymentTransaction "1" - -> "1" Freelancer : related to
PaymentTransaction "1" - -> "1" Tarefa : related to
PaymentTransaction "1" - -> "1" TaskExecution : related to
@enduml

PlantUML version 1.2019.12(Sun Nov 03 10:24:54 UTC 2019)
(GPL source distribution)
Java Runtime: OpenJDK Runtime Environment
JVM: OpenJDK 64-Bit Server VM
Java Version: 1.8.0_232-heroku-b09
Operating System: Linux
Default Encoding: UTF-8
Language: en
Country: US
--></g></svg>