<?xml version="1.0" encoding="UTF-8" standalone="no"?><svg xmlns="http://www.w3.org/2000/svg" xmlns:xlink="http://www.w3.org/1999/xlink" contentScriptType="application/ecmascript" contentStyleType="text/css" height="1482px" preserveAspectRatio="none" style="width:1167px;height:1482px;" version="1.1" viewBox="0 0 1167 1482" width="1167px" zoomAndPan="magnify"><defs><filter height="300%" id="f1wiwsepvl0zni" width="300%" x="-1" y="-1"><feGaussianBlur result="blurOut" stdDeviation="2.0"/><feColorMatrix in="blurOut" result="blurOut2" type="matrix" values="0 0 0 0 0 0 0 0 0 0 0 0 0 0 0 0 0 0 .4 0"/><feOffset dx="4.0" dy="4.0" in="blurOut2" result="blurOut3"/><feBlend in="SourceGraphic" in2="blurOut3" mode="normal"/></filter></defs><g><!--MD5=[52de6b799a0982f4494b9c19495c1271]
class POTApplication--><rect fill="#FEFECE" filter="url(#f1wiwsepvl0zni)" height="73.6094" id="POTApplication" style="stroke: #A80036; stroke-width: 1.5;" width="136" x="6" y="283"/><ellipse cx="25.95" cy="299" fill="#ADD1B2" rx="11" ry="11" style="stroke: #A80036; stroke-width: 1.0;"/><path d="M28.9188,304.6406 Q28.3406,304.9375 27.7,305.0859 Q27.0594,305.2344 26.3563,305.2344 Q23.8563,305.2344 22.5359,303.5859 Q21.2156,301.9375 21.2156,298.8125 Q21.2156,295.6875 22.5359,294.0313 Q23.8563,292.375 26.3563,292.375 Q27.0594,292.375 27.7078,292.5313 Q28.3563,292.6875 28.9188,292.9844 L28.9188,295.7031 Q28.2938,295.125 27.7,294.8516 Q27.1063,294.5781 26.4813,294.5781 Q25.1375,294.5781 24.45,295.6484 Q23.7625,296.7188 23.7625,298.8125 Q23.7625,300.9063 24.45,301.9766 Q25.1375,303.0469 26.4813,303.0469 Q27.1063,303.0469 27.7,302.7734 Q28.2938,302.5 28.9188,301.9219 L28.9188,304.6406 Z "/><text fill="#000000" font-family="sans-serif" font-size="12" lengthAdjust="spacingAndGlyphs" textLength="93" x="41.05" y="303.1543">POTApplication</text><line style="stroke: #A80036; stroke-width: 1.5;" x1="7" x2="141" y1="315" y2="315"/><line style="stroke: #A80036; stroke-width: 1.5;" x1="7" x2="141" y1="323" y2="323"/><text fill="#000000" font-family="sans-serif" font-size="11" lengthAdjust="spacingAndGlyphs" textLength="118" x="12" y="337.2104">+static getInstance()</text><text fill="#000000" font-family="sans-serif" font-size="11" lengthAdjust="spacingAndGlyphs" textLength="124" x="12" y="350.0151">+getCurrentSession()</text><!--MD5=[c5b08e60048ef1bcd788d24cf324082e]
class UserSession--><rect fill="#FEFECE" filter="url(#f1wiwsepvl0zni)" height="60.8047" id="UserSession" style="stroke: #A80036; stroke-width: 1.5;" width="110" x="177" y="289.5"/><ellipse cx="192" cy="305.5" fill="#ADD1B2" rx="11" ry="11" style="stroke: #A80036; stroke-width: 1.0;"/><path d="M194.9688,311.1406 Q194.3906,311.4375 193.75,311.5859 Q193.1094,311.7344 192.4063,311.7344 Q189.9063,311.7344 188.5859,310.0859 Q187.2656,308.4375 187.2656,305.3125 Q187.2656,302.1875 188.5859,300.5313 Q189.9063,298.875 192.4063,298.875 Q193.1094,298.875 193.7578,299.0313 Q194.4063,299.1875 194.9688,299.4844 L194.9688,302.2031 Q194.3438,301.625 193.75,301.3516 Q193.1563,301.0781 192.5313,301.0781 Q191.1875,301.0781 190.5,302.1484 Q189.8125,303.2188 189.8125,305.3125 Q189.8125,307.4063 190.5,308.4766 Q191.1875,309.5469 192.5313,309.5469 Q193.1563,309.5469 193.75,309.2734 Q194.3438,309 194.9688,308.4219 L194.9688,311.1406 Z "/><text fill="#000000" font-family="sans-serif" font-size="12" lengthAdjust="spacingAndGlyphs" textLength="78" x="206" y="309.6543">UserSession</text><line style="stroke: #A80036; stroke-width: 1.5;" x1="178" x2="286" y1="321.5" y2="321.5"/><line style="stroke: #A80036; stroke-width: 1.5;" x1="178" x2="286" y1="329.5" y2="329.5"/><text fill="#000000" font-family="sans-serif" font-size="11" lengthAdjust="spacingAndGlyphs" textLength="93" x="183" y="343.7104">+getUserEmail()</text><!--MD5=[b34797a66dc35cbf1d65f7e3ca75530e]
class Task--><rect fill="#FEFECE" filter="url(#f1wiwsepvl0zni)" height="112.0234" id="Task" style="stroke: #A80036; stroke-width: 1.5;" width="144" x="749" y="1132"/><ellipse cx="802.25" cy="1148" fill="#ADD1B2" rx="11" ry="11" style="stroke: #A80036; stroke-width: 1.0;"/><path d="M805.2188,1153.6406 Q804.6406,1153.9375 804,1154.0859 Q803.3594,1154.2344 802.6563,1154.2344 Q800.1563,1154.2344 798.8359,1152.5859 Q797.5156,1150.9375 797.5156,1147.8125 Q797.5156,1144.6875 798.8359,1143.0313 Q800.1563,1141.375 802.6563,1141.375 Q803.3594,1141.375 804.0078,1141.5313 Q804.6563,1141.6875 805.2188,1141.9844 L805.2188,1144.7031 Q804.5938,1144.125 804,1143.8516 Q803.4063,1143.5781 802.7813,1143.5781 Q801.4375,1143.5781 800.75,1144.6484 Q800.0625,1145.7188 800.0625,1147.8125 Q800.0625,1149.9063 800.75,1150.9766 Q801.4375,1152.0469 802.7813,1152.0469 Q803.4063,1152.0469 804,1151.7734 Q804.5938,1151.5 805.2188,1150.9219 L805.2188,1153.6406 Z "/><text fill="#000000" font-family="sans-serif" font-size="12" lengthAdjust="spacingAndGlyphs" textLength="29" x="822.75" y="1152.1543">Task</text><line style="stroke: #A80036; stroke-width: 1.5;" x1="750" x2="892" y1="1164" y2="1164"/><text fill="#000000" font-family="sans-serif" font-size="11" lengthAdjust="spacingAndGlyphs" textLength="52" x="755" y="1178.2104">-String id</text><text fill="#000000" font-family="sans-serif" font-size="11" lengthAdjust="spacingAndGlyphs" textLength="132" x="755" y="1191.0151">-String briefDescription</text><text fill="#000000" font-family="sans-serif" font-size="11" lengthAdjust="spacingAndGlyphs" textLength="121" x="755" y="1203.8198">-Integer timeDuration</text><text fill="#000000" font-family="sans-serif" font-size="11" lengthAdjust="spacingAndGlyphs" textLength="117" x="755" y="1216.6245">-Double costPerHour</text><text fill="#000000" font-family="sans-serif" font-size="11" lengthAdjust="spacingAndGlyphs" textLength="117" x="755" y="1229.4292">-String taskCategory</text><line style="stroke: #A80036; stroke-width: 1.5;" x1="750" x2="892" y1="1236.0234" y2="1236.0234"/><!--MD5=[1f687b5315377fe49fca59b457947463]
class Freelancer--><rect fill="#FEFECE" filter="url(#f1wiwsepvl0zni)" height="150.4375" id="Freelancer" style="stroke: #A80036; stroke-width: 1.5;" width="136" x="753" y="1321"/><ellipse cx="784.65" cy="1337" fill="#ADD1B2" rx="11" ry="11" style="stroke: #A80036; stroke-width: 1.0;"/><path d="M787.6188,1342.6406 Q787.0406,1342.9375 786.4,1343.0859 Q785.7594,1343.2344 785.0563,1343.2344 Q782.5563,1343.2344 781.2359,1341.5859 Q779.9156,1339.9375 779.9156,1336.8125 Q779.9156,1333.6875 781.2359,1332.0313 Q782.5563,1330.375 785.0563,1330.375 Q785.7594,1330.375 786.4078,1330.5313 Q787.0563,1330.6875 787.6188,1330.9844 L787.6188,1333.7031 Q786.9938,1333.125 786.4,1332.8516 Q785.8063,1332.5781 785.1813,1332.5781 Q783.8375,1332.5781 783.15,1333.6484 Q782.4625,1334.7188 782.4625,1336.8125 Q782.4625,1338.9063 783.15,1339.9766 Q783.8375,1341.0469 785.1813,1341.0469 Q785.8063,1341.0469 786.4,1340.7734 Q786.9938,1340.5 787.6188,1339.9219 L787.6188,1342.6406 Z "/><text fill="#000000" font-family="sans-serif" font-size="12" lengthAdjust="spacingAndGlyphs" textLength="67" x="802.35" y="1341.1543">Freelancer</text><line style="stroke: #A80036; stroke-width: 1.5;" x1="754" x2="888" y1="1353" y2="1353"/><text fill="#000000" font-family="sans-serif" font-size="11" lengthAdjust="spacingAndGlyphs" textLength="52" x="759" y="1367.2104">-String id</text><text fill="#000000" font-family="sans-serif" font-size="11" lengthAdjust="spacingAndGlyphs" textLength="74" x="759" y="1380.0151">-String name</text><text fill="#000000" font-family="sans-serif" font-size="11" lengthAdjust="spacingAndGlyphs" textLength="124" x="759" y="1392.8198">-String expertiseLevel</text><text fill="#000000" font-family="sans-serif" font-size="11" lengthAdjust="spacingAndGlyphs" textLength="73" x="759" y="1405.6245">-String email</text><text fill="#000000" font-family="sans-serif" font-size="11" lengthAdjust="spacingAndGlyphs" textLength="59" x="759" y="1418.4292">-String NIF</text><text fill="#000000" font-family="sans-serif" font-size="11" lengthAdjust="spacingAndGlyphs" textLength="68" x="759" y="1431.2339">-String IBAN</text><text fill="#000000" font-family="sans-serif" font-size="11" lengthAdjust="spacingAndGlyphs" textLength="89" x="759" y="1444.0386">-String address</text><text fill="#000000" font-family="sans-serif" font-size="11" lengthAdjust="spacingAndGlyphs" textLength="84" x="759" y="1456.8433">-String country</text><line style="stroke: #A80036; stroke-width: 1.5;" x1="754" x2="888" y1="1463.4375" y2="1463.4375"/><!--MD5=[86c7c362de55a38b660185a1328fe18d]
class Organization--><rect fill="#FEFECE" filter="url(#f1wiwsepvl0zni)" height="99.2188" id="Organization" style="stroke: #A80036; stroke-width: 1.5;" width="183" x="555.5" y="578"/><ellipse cx="603.75" cy="594" fill="#ADD1B2" rx="11" ry="11" style="stroke: #A80036; stroke-width: 1.0;"/><path d="M606.7188,599.6406 Q606.1406,599.9375 605.5,600.0859 Q604.8594,600.2344 604.1563,600.2344 Q601.6563,600.2344 600.3359,598.5859 Q599.0156,596.9375 599.0156,593.8125 Q599.0156,590.6875 600.3359,589.0313 Q601.6563,587.375 604.1563,587.375 Q604.8594,587.375 605.5078,587.5313 Q606.1563,587.6875 606.7188,587.9844 L606.7188,590.7031 Q606.0938,590.125 605.5,589.8516 Q604.9063,589.5781 604.2813,589.5781 Q602.9375,589.5781 602.25,590.6484 Q601.5625,591.7188 601.5625,593.8125 Q601.5625,595.9063 602.25,596.9766 Q602.9375,598.0469 604.2813,598.0469 Q604.9063,598.0469 605.5,597.7734 Q606.0938,597.5 606.7188,596.9219 L606.7188,599.6406 Z "/><text fill="#000000" font-family="sans-serif" font-size="12" lengthAdjust="spacingAndGlyphs" textLength="78" x="624.25" y="598.1543">Organization</text><line style="stroke: #A80036; stroke-width: 1.5;" x1="556.5" x2="737.5" y1="610" y2="610"/><text fill="#000000" font-family="sans-serif" font-size="11" lengthAdjust="spacingAndGlyphs" textLength="74" x="561.5" y="624.2104">-String name</text><text fill="#000000" font-family="sans-serif" font-size="11" lengthAdjust="spacingAndGlyphs" textLength="59" x="561.5" y="637.0151">-String NIF</text><line style="stroke: #A80036; stroke-width: 1.5;" x1="556.5" x2="737.5" y1="643.6094" y2="643.6094"/><text fill="#000000" font-family="sans-serif" font-size="11" lengthAdjust="spacingAndGlyphs" textLength="89" x="561.5" y="657.8198">+getTasksList()</text><text fill="#000000" font-family="sans-serif" font-size="11" lengthAdjust="spacingAndGlyphs" textLength="171" x="561.5" y="670.6245">+getPaymentTransactionList()</text><!--MD5=[bfe5ad1e6c67e1aa0bfa76859c3b49e3]
class TasksList--><rect fill="#FEFECE" filter="url(#f1wiwsepvl0zni)" height="60.8047" id="TasksList" style="stroke: #A80036; stroke-width: 1.5;" width="108" x="928" y="773"/><ellipse cx="951.55" cy="789" fill="#ADD1B2" rx="11" ry="11" style="stroke: #A80036; stroke-width: 1.0;"/><path d="M954.5188,794.6406 Q953.9406,794.9375 953.3,795.0859 Q952.6594,795.2344 951.9563,795.2344 Q949.4563,795.2344 948.1359,793.5859 Q946.8156,791.9375 946.8156,788.8125 Q946.8156,785.6875 948.1359,784.0313 Q949.4563,782.375 951.9563,782.375 Q952.6594,782.375 953.3078,782.5313 Q953.9563,782.6875 954.5188,782.9844 L954.5188,785.7031 Q953.8938,785.125 953.3,784.8516 Q952.7063,784.5781 952.0813,784.5781 Q950.7375,784.5781 950.05,785.6484 Q949.3625,786.7188 949.3625,788.8125 Q949.3625,790.9063 950.05,791.9766 Q950.7375,793.0469 952.0813,793.0469 Q952.7063,793.0469 953.3,792.7734 Q953.8938,792.5 954.5188,791.9219 L954.5188,794.6406 Z "/><text fill="#000000" font-family="sans-serif" font-size="12" lengthAdjust="spacingAndGlyphs" textLength="57" x="967.45" y="793.1543">TasksList</text><line style="stroke: #A80036; stroke-width: 1.5;" x1="929" x2="1035" y1="805" y2="805"/><line style="stroke: #A80036; stroke-width: 1.5;" x1="929" x2="1035" y1="813" y2="813"/><text fill="#000000" font-family="sans-serif" font-size="11" lengthAdjust="spacingAndGlyphs" textLength="96" x="934" y="827.2104">+findById(taskId)</text><!--MD5=[99b8db98afdc2c8404e39242ef4c1e65]
class Platform--><rect fill="#FEFECE" filter="url(#f1wiwsepvl0zni)" height="86.4141" id="Platform" style="stroke: #A80036; stroke-width: 1.5;" width="285" x="614.5" y="277"/><ellipse cx="726.75" cy="293" fill="#ADD1B2" rx="11" ry="11" style="stroke: #A80036; stroke-width: 1.0;"/><path d="M729.7188,298.6406 Q729.1406,298.9375 728.5,299.0859 Q727.8594,299.2344 727.1563,299.2344 Q724.6563,299.2344 723.3359,297.5859 Q722.0156,295.9375 722.0156,292.8125 Q722.0156,289.6875 723.3359,288.0313 Q724.6563,286.375 727.1563,286.375 Q727.8594,286.375 728.5078,286.5313 Q729.1563,286.6875 729.7188,286.9844 L729.7188,289.7031 Q729.0938,289.125 728.5,288.8516 Q727.9063,288.5781 727.2813,288.5781 Q725.9375,288.5781 725.25,289.6484 Q724.5625,290.7188 724.5625,292.8125 Q724.5625,294.9063 725.25,295.9766 Q725.9375,297.0469 727.2813,297.0469 Q727.9063,297.0469 728.5,296.7734 Q729.0938,296.5 729.7188,295.9219 L729.7188,298.6406 Z "/><text fill="#000000" font-family="sans-serif" font-size="12" lengthAdjust="spacingAndGlyphs" textLength="52" x="747.25" y="297.1543">Platform</text><line style="stroke: #A80036; stroke-width: 1.5;" x1="615.5" x2="898.5" y1="309" y2="309"/><text fill="#000000" font-family="sans-serif" font-size="11" lengthAdjust="spacingAndGlyphs" textLength="108" x="620.5" y="323.2104">-String designation</text><line style="stroke: #A80036; stroke-width: 1.5;" x1="615.5" x2="898.5" y1="329.8047" y2="329.8047"/><text fill="#000000" font-family="sans-serif" font-size="11" lengthAdjust="spacingAndGlyphs" textLength="273" x="620.5" y="344.0151">+OrganizationsRecord getOrganizationsRecord()</text><text fill="#000000" font-family="sans-serif" font-size="11" lengthAdjust="spacingAndGlyphs" textLength="251" x="620.5" y="356.8198">+FreelancersRecord getFreelancersRecord()</text><!--MD5=[c7635c972eb61a4e069c06c1240b28a8]
class FreelancersRecord--><rect fill="#FEFECE" filter="url(#f1wiwsepvl0zni)" height="60.8047" id="FreelancersRecord" style="stroke: #A80036; stroke-width: 1.5;" width="150" x="1006" y="440"/><ellipse cx="1021" cy="456" fill="#ADD1B2" rx="11" ry="11" style="stroke: #A80036; stroke-width: 1.0;"/><path d="M1023.9688,461.6406 Q1023.3906,461.9375 1022.75,462.0859 Q1022.1094,462.2344 1021.4063,462.2344 Q1018.9063,462.2344 1017.5859,460.5859 Q1016.2656,458.9375 1016.2656,455.8125 Q1016.2656,452.6875 1017.5859,451.0313 Q1018.9063,449.375 1021.4063,449.375 Q1022.1094,449.375 1022.7578,449.5313 Q1023.4063,449.6875 1023.9688,449.9844 L1023.9688,452.7031 Q1023.3438,452.125 1022.75,451.8516 Q1022.1563,451.5781 1021.5313,451.5781 Q1020.1875,451.5781 1019.5,452.6484 Q1018.8125,453.7188 1018.8125,455.8125 Q1018.8125,457.9063 1019.5,458.9766 Q1020.1875,460.0469 1021.5313,460.0469 Q1022.1563,460.0469 1022.75,459.7734 Q1023.3438,459.5 1023.9688,458.9219 L1023.9688,461.6406 Z "/><text fill="#000000" font-family="sans-serif" font-size="12" lengthAdjust="spacingAndGlyphs" textLength="118" x="1035" y="460.1543">FreelancersRecord</text><line style="stroke: #A80036; stroke-width: 1.5;" x1="1007" x2="1155" y1="472" y2="472"/><line style="stroke: #A80036; stroke-width: 1.5;" x1="1007" x2="1155" y1="480" y2="480"/><text fill="#000000" font-family="sans-serif" font-size="11" lengthAdjust="spacingAndGlyphs" textLength="131" x="1012" y="494.2104">+freelancerExists(frlId)</text><!--MD5=[759d9d4bd7fe37fb1c4b72776400893c]
class OrganizationsRecord--><rect fill="#FEFECE" filter="url(#f1wiwsepvl0zni)" height="60.8047" id="OrganizationsRecord" style="stroke: #A80036; stroke-width: 1.5;" width="221" x="543.5" y="440"/><ellipse cx="585.5" cy="456" fill="#ADD1B2" rx="11" ry="11" style="stroke: #A80036; stroke-width: 1.0;"/><path d="M588.4688,461.6406 Q587.8906,461.9375 587.25,462.0859 Q586.6094,462.2344 585.9063,462.2344 Q583.4063,462.2344 582.0859,460.5859 Q580.7656,458.9375 580.7656,455.8125 Q580.7656,452.6875 582.0859,451.0313 Q583.4063,449.375 585.9063,449.375 Q586.6094,449.375 587.2578,449.5313 Q587.9063,449.6875 588.4688,449.9844 L588.4688,452.7031 Q587.8438,452.125 587.25,451.8516 Q586.6563,451.5781 586.0313,451.5781 Q584.6875,451.5781 584,452.6484 Q583.3125,453.7188 583.3125,455.8125 Q583.3125,457.9063 584,458.9766 Q584.6875,460.0469 586.0313,460.0469 Q586.6563,460.0469 587.25,459.7734 Q587.8438,459.5 588.4688,458.9219 L588.4688,461.6406 Z "/><text fill="#000000" font-family="sans-serif" font-size="12" lengthAdjust="spacingAndGlyphs" textLength="129" x="605.5" y="460.1543">OrganizationsRecord</text><line style="stroke: #A80036; stroke-width: 1.5;" x1="544.5" x2="763.5" y1="472" y2="472"/><line style="stroke: #A80036; stroke-width: 1.5;" x1="544.5" x2="763.5" y1="480" y2="480"/><text fill="#000000" font-family="sans-serif" font-size="11" lengthAdjust="spacingAndGlyphs" textLength="209" x="549.5" y="494.2104">+getOrganizationByUserEmail(email)</text><!--MD5=[9ab0068e71df7f673644752c40fe3ac4]
class CreatePaymentTransactionController--><rect fill="#FEFECE" filter="url(#f1wiwsepvl0zni)" height="99.2188" id="CreatePaymentTransactionController" style="stroke: #A80036; stroke-width: 1.5;" width="591" x="194.5" y="117"/><ellipse cx="370.25" cy="133" fill="#ADD1B2" rx="11" ry="11" style="stroke: #A80036; stroke-width: 1.0;"/><path d="M373.2188,138.6406 Q372.6406,138.9375 372,139.0859 Q371.3594,139.2344 370.6563,139.2344 Q368.1563,139.2344 366.8359,137.5859 Q365.5156,135.9375 365.5156,132.8125 Q365.5156,129.6875 366.8359,128.0313 Q368.1563,126.375 370.6563,126.375 Q371.3594,126.375 372.0078,126.5313 Q372.6563,126.6875 373.2188,126.9844 L373.2188,129.7031 Q372.5938,129.125 372,128.8516 Q371.4063,128.5781 370.7813,128.5781 Q369.4375,128.5781 368.75,129.6484 Q368.0625,130.7188 368.0625,132.8125 Q368.0625,134.9063 368.75,135.9766 Q369.4375,137.0469 370.7813,137.0469 Q371.4063,137.0469 372,136.7734 Q372.5938,136.5 373.2188,135.9219 L373.2188,138.6406 Z "/><text fill="#000000" font-family="sans-serif" font-size="12" lengthAdjust="spacingAndGlyphs" textLength="231" x="390.75" y="137.1543">CreatePaymentTransactionController</text><line style="stroke: #A80036; stroke-width: 1.5;" x1="195.5" x2="784.5" y1="149" y2="149"/><line style="stroke: #A80036; stroke-width: 1.5;" x1="195.5" x2="784.5" y1="157" y2="157"/><text fill="#000000" font-family="sans-serif" font-size="11" lengthAdjust="spacingAndGlyphs" textLength="575" x="200.5" y="171.2104">+newPaymentTransaction(payTId, taskId, briefDescription, timeDuration, costPerHour, taskCategory,</text><text fill="#000000" font-family="sans-serif" font-size="11" lengthAdjust="spacingAndGlyphs" textLength="227" x="200.5" y="184.0151">endDate, delay, workQualityDescription,</text><text fill="#000000" font-family="sans-serif" font-size="11" lengthAdjust="spacingAndGlyphs" textLength="359" x="200.5" y="196.8198">frlId, name, expertiseLevel, email, NIF, IBAN, address, country)</text><text fill="#000000" font-family="sans-serif" font-size="11" lengthAdjust="spacingAndGlyphs" textLength="180" x="200.5" y="209.6245">+paymentTransactionRegister()</text><!--MD5=[e472615a113cc15971a8fcaedb5e2163]
class CreatePaymentTransactionUI--><rect fill="#FEFECE" filter="url(#f1wiwsepvl0zni)" height="48" id="CreatePaymentTransactionUI" style="stroke: #A80036; stroke-width: 1.5;" width="214" x="383" y="8"/><ellipse cx="398" cy="24" fill="#ADD1B2" rx="11" ry="11" style="stroke: #A80036; stroke-width: 1.0;"/><path d="M400.9688,29.6406 Q400.3906,29.9375 399.75,30.0859 Q399.1094,30.2344 398.4063,30.2344 Q395.9063,30.2344 394.5859,28.5859 Q393.2656,26.9375 393.2656,23.8125 Q393.2656,20.6875 394.5859,19.0313 Q395.9063,17.375 398.4063,17.375 Q399.1094,17.375 399.7578,17.5313 Q400.4063,17.6875 400.9688,17.9844 L400.9688,20.7031 Q400.3438,20.125 399.75,19.8516 Q399.1563,19.5781 398.5313,19.5781 Q397.1875,19.5781 396.5,20.6484 Q395.8125,21.7188 395.8125,23.8125 Q395.8125,25.9063 396.5,26.9766 Q397.1875,28.0469 398.5313,28.0469 Q399.1563,28.0469 399.75,27.7734 Q400.3438,27.5 400.9688,26.9219 L400.9688,29.6406 Z "/><text fill="#000000" font-family="sans-serif" font-size="12" lengthAdjust="spacingAndGlyphs" textLength="182" x="412" y="28.1543">CreatePaymentTransactionUI</text><line style="stroke: #A80036; stroke-width: 1.5;" x1="384" x2="596" y1="40" y2="40"/><line style="stroke: #A80036; stroke-width: 1.5;" x1="384" x2="596" y1="48" y2="48"/><!--MD5=[b645a18afb25b7e5623af7186d8eb36f]
class PaymentTransaction--><rect fill="#FEFECE" filter="url(#f1wiwsepvl0zni)" height="124.8281" id="PaymentTransaction" style="stroke: #A80036; stroke-width: 1.5;" width="476" x="413" y="930"/><ellipse cx="582.75" cy="946" fill="#ADD1B2" rx="11" ry="11" style="stroke: #A80036; stroke-width: 1.0;"/><path d="M585.7188,951.6406 Q585.1406,951.9375 584.5,952.0859 Q583.8594,952.2344 583.1563,952.2344 Q580.6563,952.2344 579.3359,950.5859 Q578.0156,948.9375 578.0156,945.8125 Q578.0156,942.6875 579.3359,941.0313 Q580.6563,939.375 583.1563,939.375 Q583.8594,939.375 584.5078,939.5313 Q585.1563,939.6875 585.7188,939.9844 L585.7188,942.7031 Q585.0938,942.125 584.5,941.8516 Q583.9063,941.5781 583.2813,941.5781 Q581.9375,941.5781 581.25,942.6484 Q580.5625,943.7188 580.5625,945.8125 Q580.5625,947.9063 581.25,948.9766 Q581.9375,950.0469 583.2813,950.0469 Q583.9063,950.0469 584.5,949.7734 Q585.0938,949.5 585.7188,948.9219 L585.7188,951.6406 Z "/><text fill="#000000" font-family="sans-serif" font-size="12" lengthAdjust="spacingAndGlyphs" textLength="128" x="603.25" y="950.1543">PaymentTransaction</text><line style="stroke: #A80036; stroke-width: 1.5;" x1="414" x2="888" y1="962" y2="962"/><text fill="#000000" font-family="sans-serif" font-size="11" lengthAdjust="spacingAndGlyphs" textLength="52" x="419" y="976.2104">-String id</text><text fill="#000000" font-family="sans-serif" font-size="11" lengthAdjust="spacingAndGlyphs" textLength="81" x="419" y="989.0151">-Date endDate</text><text fill="#000000" font-family="sans-serif" font-size="11" lengthAdjust="spacingAndGlyphs" textLength="77" x="419" y="1001.8198">-Double delay</text><text fill="#000000" font-family="sans-serif" font-size="11" lengthAdjust="spacingAndGlyphs" textLength="172" x="419" y="1014.6245">-String workQualityDescription</text><line style="stroke: #A80036; stroke-width: 1.5;" x1="414" x2="888" y1="1021.2188" y2="1021.2188"/><text fill="#000000" font-family="sans-serif" font-size="11" lengthAdjust="spacingAndGlyphs" textLength="186" x="419" y="1035.4292">+generatePayAmount(task, free)</text><text fill="#000000" font-family="sans-serif" font-size="11" lengthAdjust="spacingAndGlyphs" textLength="464" x="419" y="1048.2339">+PaymentTransaction(payTId, task, free, endDate, delay, workQualityDescription)</text><!--MD5=[ba54b1997298830925be59f10364c919]
class PaymentTransactionList--><rect fill="#FEFECE" filter="url(#f1wiwsepvl0zni)" height="99.2188" id="PaymentTransactionList" style="stroke: #A80036; stroke-width: 1.5;" width="499" x="393.5" y="754"/><ellipse cx="564.25" cy="770" fill="#ADD1B2" rx="11" ry="11" style="stroke: #A80036; stroke-width: 1.0;"/><path d="M567.2188,775.6406 Q566.6406,775.9375 566,776.0859 Q565.3594,776.2344 564.6563,776.2344 Q562.1563,776.2344 560.8359,774.5859 Q559.5156,772.9375 559.5156,769.8125 Q559.5156,766.6875 560.8359,765.0313 Q562.1563,763.375 564.6563,763.375 Q565.3594,763.375 566.0078,763.5313 Q566.6563,763.6875 567.2188,763.9844 L567.2188,766.7031 Q566.5938,766.125 566,765.8516 Q565.4063,765.5781 564.7813,765.5781 Q563.4375,765.5781 562.75,766.6484 Q562.0625,767.7188 562.0625,769.8125 Q562.0625,771.9063 562.75,772.9766 Q563.4375,774.0469 564.7813,774.0469 Q565.4063,774.0469 566,773.7734 Q566.5938,773.5 567.2188,772.9219 L567.2188,775.6406 Z "/><text fill="#000000" font-family="sans-serif" font-size="12" lengthAdjust="spacingAndGlyphs" textLength="149" x="584.75" y="774.1543">PaymentTransactionList</text><line style="stroke: #A80036; stroke-width: 1.5;" x1="394.5" x2="891.5" y1="786" y2="786"/><line style="stroke: #A80036; stroke-width: 1.5;" x1="394.5" x2="891.5" y1="794" y2="794"/><text fill="#000000" font-family="sans-serif" font-size="11" lengthAdjust="spacingAndGlyphs" textLength="487" x="399.5" y="808.2104">+newPaymentTransaction(payTId, task, free, endDate, delay, workQualityDescription)</text><text fill="#000000" font-family="sans-serif" font-size="11" lengthAdjust="spacingAndGlyphs" textLength="204" x="399.5" y="821.0151">+validatePaymentTransaction(payT)</text><text fill="#000000" font-family="sans-serif" font-size="11" lengthAdjust="spacingAndGlyphs" textLength="207" x="399.5" y="833.8198">+paymentTransactionRegister(payT)</text><text fill="#000000" font-family="sans-serif" font-size="11" lengthAdjust="spacingAndGlyphs" textLength="181" x="399.5" y="846.6245">+addPaymentTransaction(payT)</text><!--MD5=[d75f8faab7003fe4f7fadde3e00b3cf7]
link CreatePaymentTransactionUI to CreatePaymentTransactionController--><path d="M490,56.0459 C490,71.4478 490,92.0929 490,111.3652 " fill="none" id="CreatePaymentTransactionUI-&gt;CreatePaymentTransactionController" style="stroke: #A80036; stroke-width: 1.0; stroke-dasharray: 7.0,7.0;"/><polygon fill="#A80036" points="490,116.759,494,107.759,490,111.759,486,107.759,490,116.759" style="stroke: #A80036; stroke-width: 1.0;"/><!--MD5=[c21c0329c000ce3a64d50b793859385d]
link CreatePaymentTransactionController to Platform--><path d="M576.3185,216.1251 C608.8472,234.826 645.6648,255.9927 677.5383,274.317 " fill="none" id="CreatePaymentTransactionController-&gt;Platform" style="stroke: #A80036; stroke-width: 1.0; stroke-dasharray: 7.0,7.0;"/><polygon fill="#A80036" points="682.204,276.9993,676.3953,269.0458,677.8693,274.5072,672.4079,275.9812,682.204,276.9993" style="stroke: #A80036; stroke-width: 1.0;"/><!--MD5=[f04e3b22971df4e8085f55a70756c755]
link CreatePaymentTransactionController to Task--><path d="M403.1788,216.2441 C370.007,242.1298 340,277.3366 340,320 C340,320 340,320 340,992.5 C340,1141.245 485.0235,1021.7071 739,1132 C740.7641,1132.7661 742.5301,1133.5717 744.2947,1134.4121 " fill="none" id="CreatePaymentTransactionController-&gt;Task" style="stroke: #A80036; stroke-width: 1.0; stroke-dasharray: 7.0,7.0;"/><polygon fill="#A80036" points="748.9594,1136.7141,742.6588,1129.1443,744.4756,1134.5014,739.1185,1136.3183,748.9594,1136.7141" style="stroke: #A80036; stroke-width: 1.0;"/><!--MD5=[d808bb2ca26b86ab5f675405e49fd624]
link CreatePaymentTransactionController to Organization--><path d="M485.6849,216.1952 C481.8938,283.9362 482.5383,407.5187 526,501 C538.7779,528.4839 559.9637,553.7523 581.0672,574.3603 " fill="none" id="CreatePaymentTransactionController-&gt;Organization" style="stroke: #A80036; stroke-width: 1.0; stroke-dasharray: 7.0,7.0;"/><polygon fill="#A80036" points="584.7274,577.8897,581.0253,568.7631,581.1282,574.419,575.4722,574.5219,584.7274,577.8897" style="stroke: #A80036; stroke-width: 1.0;"/><!--MD5=[c3f8496c633e2f7f52d8bf9bc86aad29]
link CreatePaymentTransactionController to POTApplication--><path d="M325.7867,216.0695 C272.0161,233.6875 212.3954,254.7217 159,277 C155.0508,278.6477 151.0316,280.4017 146.9968,282.2235 " fill="none" id="CreatePaymentTransactionController-&gt;POTApplication" style="stroke: #A80036; stroke-width: 1.0; stroke-dasharray: 7.0,7.0;"/><polygon fill="#A80036" points="142.2565,284.3911,152.1048,284.2862,146.8037,282.3119,148.778,277.0107,142.2565,284.3911" style="stroke: #A80036; stroke-width: 1.0;"/><!--MD5=[044b46cd6ff48909710cb1d203e462f9]
link CreatePaymentTransactionController to UserSession--><path d="M367.1468,216.0423 C348.8277,225.1126 330.5551,235.1722 314,246 C296.6905,257.3213 279.4106,272.2388 265.2081,285.7125 " fill="none" id="CreatePaymentTransactionController-&gt;UserSession" style="stroke: #A80036; stroke-width: 1.0; stroke-dasharray: 7.0,7.0;"/><polygon fill="#A80036" points="261.2864,289.4703,270.5521,286.1317,264.8966,286.011,265.0172,280.3554,261.2864,289.4703" style="stroke: #A80036; stroke-width: 1.0;"/><!--MD5=[a5b2a848340ab19653babd02d4515d20]
link CreatePaymentTransactionController to TasksList--><path d="M778.2895,216.0104 C872.3038,240.5247 953,274.7468 953,320 C953,320 953,320 953,627.5 C953,676.6441 964.1441,732.4923 972.6158,767.8478 " fill="none" id="CreatePaymentTransactionController-&gt;TasksList" style="stroke: #A80036; stroke-width: 1.0; stroke-dasharray: 7.0,7.0;"/><polygon fill="#A80036" points="973.8447,772.9122,975.6095,763.2227,972.6656,768.0532,967.8351,765.1093,973.8447,772.9122" style="stroke: #A80036; stroke-width: 1.0;"/><!--MD5=[546fd7e0e055f1eba4c284893e3481a0]
link CreatePaymentTransactionController to FreelancersRecord--><path d="M785.517,191.4135 C869.037,203.4305 946.1598,220.8919 979,246 C1039.9918,292.6316 1065.5866,384.1056 1075.4461,434.7079 " fill="none" id="CreatePaymentTransactionController-&gt;FreelancersRecord" style="stroke: #A80036; stroke-width: 1.0; stroke-dasharray: 7.0,7.0;"/><polygon fill="#A80036" points="1076.4071,439.7734,1078.6594,430.1855,1075.4751,434.861,1070.7996,431.6767,1076.4071,439.7734" style="stroke: #A80036; stroke-width: 1.0;"/><!--MD5=[19aba29190c83d802a073857acc5c053]
link CreatePaymentTransactionController to OrganizationsRecord--><path d="M516.7144,216.0194 C549.9969,277.7138 606.0244,381.5696 635.1455,435.5502 " fill="none" id="CreatePaymentTransactionController-&gt;OrganizationsRecord" style="stroke: #A80036; stroke-width: 1.0; stroke-dasharray: 7.0,7.0;"/><polygon fill="#A80036" points="637.5366,439.9825,636.7839,430.1624,635.1626,435.582,629.7431,433.9608,637.5366,439.9825" style="stroke: #A80036; stroke-width: 1.0;"/><!--MD5=[59ac9a6802ae404b65a1b78c8af4ba66]
link CreatePaymentTransactionController to PaymentTransactionList--><path d="M453.876,216.0852 C436.3364,244.941 419,282.8571 419,320 C419,320 419,320 419,627.5 C419,682.7092 461.5928,723.2354 509.6326,751.386 " fill="none" id="CreatePaymentTransactionController-&gt;PaymentTransactionList" style="stroke: #A80036; stroke-width: 1.0; stroke-dasharray: 7.0,7.0;"/><polygon fill="#A80036" points="513.9962,753.9011,508.1963,745.9412,509.6643,751.4042,504.2012,752.8722,513.9962,753.9011" style="stroke: #A80036; stroke-width: 1.0;"/><!--MD5=[d77b6fe82f72fca34ebf8190bf84198d]
link Platform to FreelancersRecord--><path d="M849.8454,363.1273 C900.9175,386.8505 963.2784,415.8176 1010.3515,437.6833 " fill="none" id="Platform-&gt;FreelancersRecord" style="stroke: #A80036; stroke-width: 1.0;"/><polygon fill="#A80036" points="1015.1463,439.9105,1008.6691,432.4912,1010.6117,437.804,1005.2988,439.7466,1015.1463,439.9105" style="stroke: #A80036; stroke-width: 1.0;"/><text fill="#000000" font-family="sans-serif" font-size="13" lengthAdjust="spacingAndGlyphs" textLength="23" x="949" y="406.0669">has</text><text fill="#000000" font-family="sans-serif" font-size="13" lengthAdjust="spacingAndGlyphs" textLength="8" x="856.5604" y="383.5561">1</text><text fill="#000000" font-family="sans-serif" font-size="13" lengthAdjust="spacingAndGlyphs" textLength="8" x="992.739" y="429.1553">1</text><!--MD5=[d9ffa4e24b0f90d8cdc0d9eb36306584]
link Platform to OrganizationsRecord--><path d="M727.4843,363.1273 C711.7683,386.0909 692.6897,413.9679 677.9114,435.5615 " fill="none" id="Platform-&gt;OrganizationsRecord" style="stroke: #A80036; stroke-width: 1.0;"/><polygon fill="#A80036" points="675.0153,439.7931,683.3993,434.6251,677.8392,435.6669,676.7974,430.1068,675.0153,439.7931" style="stroke: #A80036; stroke-width: 1.0;"/><text fill="#000000" font-family="sans-serif" font-size="13" lengthAdjust="spacingAndGlyphs" textLength="23" x="707" y="406.0669">has</text><text fill="#000000" font-family="sans-serif" font-size="13" lengthAdjust="spacingAndGlyphs" textLength="8" x="713.9333" y="383.5561">1</text><text fill="#000000" font-family="sans-serif" font-size="13" lengthAdjust="spacingAndGlyphs" textLength="8" x="670.5247" y="429.0137">1</text><!--MD5=[0634d34efc8f03ad94b2231e46fef7de]
link FreelancersRecord to Freelancer--><path d="M1083.4874,501.1619 C1085.8358,532.7907 1089,583.5594 1089,627.5 C1089,627.5 1089,627.5 1089,1188 C1089,1286.8381 973.8355,1345.4751 894.4938,1374.1445 " fill="none" id="FreelancersRecord-&gt;Freelancer" style="stroke: #A80036; stroke-width: 1.0;"/><polygon fill="#A80036" points="889.3211,1375.9896,899.1419,1376.7331,894.0304,1374.3096,896.4539,1369.1982,889.3211,1375.9896" style="stroke: #A80036; stroke-width: 1.0;"/><text fill="#000000" font-family="sans-serif" font-size="13" lengthAdjust="spacingAndGlyphs" textLength="23" x="1090" y="896.0669">has</text><text fill="#000000" font-family="sans-serif" font-size="13" lengthAdjust="spacingAndGlyphs" textLength="8" x="1075.1896" y="520.7742">1</text><text fill="#000000" font-family="sans-serif" font-size="13" lengthAdjust="spacingAndGlyphs" textLength="7" x="897.1765" y="1370.0309">*</text><!--MD5=[15b500351a20fc4c9aef6172f83f2b2a]
link OrganizationsRecord to Organization--><path d="M652.6337,501.1439 C651.7274,521.472 650.5123,548.7237 649.4427,572.7143 " fill="none" id="OrganizationsRecord-&gt;Organization" style="stroke: #A80036; stroke-width: 1.0;"/><polygon fill="#A80036" points="649.2168,577.7804,653.614,568.9676,649.4397,572.7854,645.6219,568.6111,649.2168,577.7804" style="stroke: #A80036; stroke-width: 1.0;"/><text fill="#000000" font-family="sans-serif" font-size="13" lengthAdjust="spacingAndGlyphs" textLength="23" x="653" y="544.0669">has</text><text fill="#000000" font-family="sans-serif" font-size="13" lengthAdjust="spacingAndGlyphs" textLength="8" x="643.5772" y="520.7527">1</text><text fill="#000000" font-family="sans-serif" font-size="13" lengthAdjust="spacingAndGlyphs" textLength="7" x="642.0364" y="566.7947">*</text><!--MD5=[d15cad16830e0e3b1d195407ed1d0016]
link Organization to TasksList--><path d="M738.5472,667.3262 C789.9366,690.7173 854.6577,721.9221 910,754 C918.305,758.8138 926.9036,764.2724 935.1432,769.7628 " fill="none" id="Organization-&gt;TasksList" style="stroke: #A80036; stroke-width: 1.0;"/><polygon fill="#A80036" points="939.6797,772.8124,934.4423,764.4715,935.5302,770.0228,929.979,771.1107,939.6797,772.8124" style="stroke: #A80036; stroke-width: 1.0;"/><text fill="#000000" font-family="sans-serif" font-size="13" lengthAdjust="spacingAndGlyphs" textLength="23" x="854" y="720.0669">has</text><text fill="#000000" font-family="sans-serif" font-size="13" lengthAdjust="spacingAndGlyphs" textLength="8" x="746.4597" y="667.0665">1</text><text fill="#000000" font-family="sans-serif" font-size="13" lengthAdjust="spacingAndGlyphs" textLength="8" x="922.1261" y="762.0369">1</text><!--MD5=[322d55b5ad1658b7791494cedb432ac7]
link Organization to PaymentTransactionList--><path d="M645.8645,677.4638 C645.3598,699.667 644.7643,725.8705 644.2473,748.6176 " fill="none" id="Organization-&gt;PaymentTransactionList" style="stroke: #A80036; stroke-width: 1.0;"/><polygon fill="#A80036" points="644.1315,753.7161,648.3352,744.8094,644.2452,748.7174,640.3372,744.6275,644.1315,753.7161" style="stroke: #A80036; stroke-width: 1.0;"/><text fill="#000000" font-family="sans-serif" font-size="13" lengthAdjust="spacingAndGlyphs" textLength="23" x="647" y="720.0669">has</text><text fill="#000000" font-family="sans-serif" font-size="13" lengthAdjust="spacingAndGlyphs" textLength="8" x="637.1744" y="697.2466">1</text><text fill="#000000" font-family="sans-serif" font-size="13" lengthAdjust="spacingAndGlyphs" textLength="8" x="635.746" y="743.0797">1</text><!--MD5=[ad9e6b825fedf9daad488846d3a92887]
link PaymentTransactionList to PaymentTransaction--><path d="M645.1019,853.1575 C646.0311,875.1106 647.1383,901.2667 648.141,924.9564 " fill="none" id="PaymentTransactionList-&gt;PaymentTransaction" style="stroke: #A80036; stroke-width: 1.0;"/><polygon fill="#A80036" points="648.3533,929.9717,651.9692,920.8106,648.1419,924.9762,643.9763,921.1489,648.3533,929.9717" style="stroke: #A80036; stroke-width: 1.0;"/><text fill="#000000" font-family="sans-serif" font-size="13" lengthAdjust="spacingAndGlyphs" textLength="23" x="648" y="896.0669">has</text><text fill="#000000" font-family="sans-serif" font-size="13" lengthAdjust="spacingAndGlyphs" textLength="8" x="636.835" y="873.2561">1</text><text fill="#000000" font-family="sans-serif" font-size="13" lengthAdjust="spacingAndGlyphs" textLength="7" x="640.6426" y="918.9592">*</text><!--MD5=[bbdb20f51a48c3a19382c1ddd3c52d99]
link TasksList to Task--><path d="M975.7823,834.3189 C965.3583,882.7721 941.9986,979.069 907,1055 C895.5617,1079.8158 880.0447,1105.4068 865.3391,1127.4317 " fill="none" id="TasksList-&gt;Task" style="stroke: #A80036; stroke-width: 1.0;"/><polygon fill="#A80036" points="862.4103,1131.7878,870.7515,1126.551,865.2002,1127.6385,864.1126,1122.0872,862.4103,1131.7878" style="stroke: #A80036; stroke-width: 1.0;"/><text fill="#000000" font-family="sans-serif" font-size="13" lengthAdjust="spacingAndGlyphs" textLength="23" x="952" y="997.0669">has</text><text fill="#000000" font-family="sans-serif" font-size="13" lengthAdjust="spacingAndGlyphs" textLength="8" x="965.7707" y="853.9621">1</text><text fill="#000000" font-family="sans-serif" font-size="13" lengthAdjust="spacingAndGlyphs" textLength="7" x="860.0306" y="1121.0964">*</text><!--MD5=[8853e9d83a8841c20c4ef075af762602]
link Task to Freelancer--><path d="M821,1244.0138 C821,1266.0314 821,1291.7242 821,1315.6529 " fill="none" id="Task-&gt;Freelancer" style="stroke: #A80036; stroke-width: 1.0;"/><polygon fill="#A80036" points="821,1320.7303,825,1311.7303,821,1315.7303,817,1311.7303,821,1320.7303" style="stroke: #A80036; stroke-width: 1.0;"/><text fill="#000000" font-family="sans-serif" font-size="13" lengthAdjust="spacingAndGlyphs" textLength="88" x="822" y="1287.0669">is assigned to</text><text fill="#000000" font-family="sans-serif" font-size="13" lengthAdjust="spacingAndGlyphs" textLength="23" x="796.5266" y="1264.2254">1..*</text><text fill="#000000" font-family="sans-serif" font-size="13" lengthAdjust="spacingAndGlyphs" textLength="8" x="812.6188" y="1309.8937">1</text><!--MD5=[f6802b286771c18a16ea4be983074371]
link PaymentTransaction to Freelancer--><path d="M643.3325,1055.1688 C639.5927,1107.9445 640.7038,1184.1798 668,1244 C685.7763,1282.9571 718.205,1317.4424 748.6467,1343.6765 " fill="none" id="PaymentTransaction-&gt;Freelancer" style="stroke: #A80036; stroke-width: 1.0;"/><polygon fill="#A80036" points="752.7335,1347.1598,748.4786,1338.2775,748.9282,1343.9164,743.2892,1344.366,752.7335,1347.1598" style="stroke: #A80036; stroke-width: 1.0;"/><text fill="#000000" font-family="sans-serif" font-size="13" lengthAdjust="spacingAndGlyphs" textLength="61" x="669" y="1192.5669">relates to</text><text fill="#000000" font-family="sans-serif" font-size="13" lengthAdjust="spacingAndGlyphs" textLength="8" x="634.0564" y="1074.9271">1</text><text fill="#000000" font-family="sans-serif" font-size="13" lengthAdjust="spacingAndGlyphs" textLength="8" x="736.8294" y="1338.0478">1</text><!--MD5=[271ce7fefd7250ebaca83b70495774bd]
link PaymentTransaction to Task--><path d="M705.4905,1055.1641 C725.7798,1078.4968 748.7431,1104.9046 768.8202,1127.9932 " fill="none" id="PaymentTransaction-&gt;Task" style="stroke: #A80036; stroke-width: 1.0;"/><polygon fill="#A80036" points="772.2746,1131.9658,769.3872,1122.5497,768.9936,1128.1928,763.3505,1127.7992,772.2746,1131.9658" style="stroke: #A80036; stroke-width: 1.0;"/><text fill="#000000" font-family="sans-serif" font-size="13" lengthAdjust="spacingAndGlyphs" textLength="61" x="748" y="1098.0669">relates to</text><text fill="#000000" font-family="sans-serif" font-size="13" lengthAdjust="spacingAndGlyphs" textLength="8" x="703.0129" y="1074.9219">1</text><text fill="#000000" font-family="sans-serif" font-size="13" lengthAdjust="spacingAndGlyphs" textLength="8" x="757.5192" y="1120.8994">1</text><!--MD5=[b55731cfd60e2f7562d532be8385b150]
@startuml
skinparam classAttributeIconSize 0

class POTApplication
{
  +static getInstance()
  +getCurrentSession()
}

class UserSession
{
  +getUserEmail()
}

class Task {
  -String id
  -String briefDescription
  -Integer timeDuration
  -Double costPerHour
  -String taskCategory
}

class Freelancer {
  -String id
  -String name
  -String expertiseLevel
  -String email
  -String NIF
  -String IBAN
  -String address
  -String country
}

class Organization {
  -String name
  -String NIF
  +getTasksList()
  +getPaymentTransactionList()
  
}

class TasksList {
  +findById(taskId)
}

class Platform {
  -String designation
  +OrganizationsRecord getOrganizationsRecord()
  +FreelancersRecord getFreelancersRecord()
}

class FreelancersRecord {
  +freelancerExists(frlId)
}

class OrganizationsRecord  {
  +getOrganizationByUserEmail(email)
}

class CreatePaymentTransactionController {
  +newPaymentTransaction(payTId, taskId, briefDescription, timeDuration, costPerHour, taskCategory, \nendDate, delay, workQualityDescription, \nfrlId, name, expertiseLevel, email, NIF, IBAN, address, country)
  +paymentTransactionRegister()
}

class CreatePaymentTransactionUI {
}

class PaymentTransaction{
  -String id
  -Date endDate
  -Double delay
  -String workQualityDescription
  +generatePayAmount(task, free)
  +PaymentTransaction(payTId, task, free, endDate, delay, workQualityDescription)
}

class PaymentTransactionList{
  +newPaymentTransaction(payTId, task, free, endDate, delay, workQualityDescription)
  +validatePaymentTransaction(payT)
  +paymentTransactionRegister(payT)
  +addPaymentTransaction(payT)
}

CreatePaymentTransactionUI ..> CreatePaymentTransactionController
CreatePaymentTransactionController ..> Platform
CreatePaymentTransactionController ..> Task
CreatePaymentTransactionController ..> Organization
CreatePaymentTransactionController ..> POTApplication
CreatePaymentTransactionController ..> UserSession
CreatePaymentTransactionController ..> TasksList
CreatePaymentTransactionController ..> FreelancersRecord
CreatePaymentTransactionController ..> OrganizationsRecord
CreatePaymentTransactionController ..> PaymentTransactionList
Platform "1" - -> "1" FreelancersRecord : has
Platform "1" - -> "1" OrganizationsRecord : has

FreelancersRecord "1" - -> "*" Freelancer : has
OrganizationsRecord "1" - -> "*" Organization : has
Organization "1" - -> "1" TasksList : has
Organization "1" - -> "1" PaymentTransactionList : has
PaymentTransactionList "1" - -> "*" PaymentTransaction : has
TasksList "1" - -> "*" Task : has
Task "1..*" - -> "1" Freelancer : is assigned to

PaymentTransaction "1" - -> "1" Freelancer : relates to
PaymentTransaction "1" - -> "1" Task : relates to
@enduml

PlantUML version 1.2019.12(Sun Nov 03 10:24:54 UTC 2019)
(GPL source distribution)
Java Runtime: OpenJDK Runtime Environment
JVM: OpenJDK 64-Bit Server VM
Java Version: 1.8.0_232-heroku-b09
Operating System: Linux
Default Encoding: UTF-8
Language: en
Country: US
--></g></svg>