<?xml version="1.0" encoding="UTF-8" standalone="no"?><svg xmlns="http://www.w3.org/2000/svg" xmlns:xlink="http://www.w3.org/1999/xlink" contentScriptType="application/ecmascript" contentStyleType="text/css" height="512px" preserveAspectRatio="none" style="width:1488px;height:512px;" version="1.1" viewBox="0 0 1488 512" width="1488px" zoomAndPan="magnify"><defs><filter height="300%" id="f1xm2iqrma3t7k" width="300%" x="-1" y="-1"><feGaussianBlur result="blurOut" stdDeviation="2.0"/><feColorMatrix in="blurOut" result="blurOut2" type="matrix" values="0 0 0 0 0 0 0 0 0 0 0 0 0 0 0 0 0 0 .4 0"/><feOffset dx="4.0" dy="4.0" in="blurOut2" result="blurOut3"/><feBlend in="SourceGraphic" in2="blurOut3" mode="normal"/></filter></defs><g><!--MD5=[99b8db98afdc2c8404e39242ef4c1e65]
class Platform--><rect fill="#FEFECE" filter="url(#f1xm2iqrma3t7k)" height="52.8047" id="Platform" style="stroke: #A80036; stroke-width: 1.5;" width="120" x="6" y="444.5"/><ellipse cx="37.2" cy="460.5" fill="#ADD1B2" rx="11" ry="11" style="stroke: #A80036; stroke-width: 1.0;"/><path d="M40.1688,466.1406 Q39.5906,466.4375 38.95,466.5859 Q38.3094,466.7344 37.6063,466.7344 Q35.1063,466.7344 33.7859,465.0859 Q32.4656,463.4375 32.4656,460.3125 Q32.4656,457.1875 33.7859,455.5313 Q35.1063,453.875 37.6063,453.875 Q38.3094,453.875 38.9578,454.0313 Q39.6063,454.1875 40.1688,454.4844 L40.1688,457.2031 Q39.5438,456.625 38.95,456.3516 Q38.3563,456.0781 37.7313,456.0781 Q36.3875,456.0781 35.7,457.1484 Q35.0125,458.2188 35.0125,460.3125 Q35.0125,462.4063 35.7,463.4766 Q36.3875,464.5469 37.7313,464.5469 Q38.3563,464.5469 38.95,464.2734 Q39.5438,464 40.1688,463.4219 L40.1688,466.1406 Z "/><text fill="#000000" font-family="sans-serif" font-size="12" lengthAdjust="spacingAndGlyphs" textLength="52" x="54.8" y="464.6543">Platform</text><line style="stroke: #A80036; stroke-width: 1.5;" x1="7" x2="125" y1="476.5" y2="476.5"/><text fill="#000000" font-family="sans-serif" font-size="11" lengthAdjust="spacingAndGlyphs" textLength="108" x="12" y="490.7104">-String designation</text><!--MD5=[86c7c362de55a38b660185a1328fe18d]
class Organization--><rect fill="#FEFECE" filter="url(#f1xm2iqrma3t7k)" height="52.8047" id="Organization" style="stroke: #A80036; stroke-width: 1.5;" width="110" x="293" y="65.5"/><ellipse cx="308" cy="81.5" fill="#ADD1B2" rx="11" ry="11" style="stroke: #A80036; stroke-width: 1.0;"/><path d="M310.9688,87.1406 Q310.3906,87.4375 309.75,87.5859 Q309.1094,87.7344 308.4063,87.7344 Q305.9063,87.7344 304.5859,86.0859 Q303.2656,84.4375 303.2656,81.3125 Q303.2656,78.1875 304.5859,76.5313 Q305.9063,74.875 308.4063,74.875 Q309.1094,74.875 309.7578,75.0313 Q310.4063,75.1875 310.9688,75.4844 L310.9688,78.2031 Q310.3438,77.625 309.75,77.3516 Q309.1563,77.0781 308.5313,77.0781 Q307.1875,77.0781 306.5,78.1484 Q305.8125,79.2188 305.8125,81.3125 Q305.8125,83.4063 306.5,84.4766 Q307.1875,85.5469 308.5313,85.5469 Q309.1563,85.5469 309.75,85.2734 Q310.3438,85 310.9688,84.4219 L310.9688,87.1406 Z "/><text fill="#000000" font-family="sans-serif" font-size="12" lengthAdjust="spacingAndGlyphs" textLength="78" x="322" y="85.6543">Organization</text><line style="stroke: #A80036; stroke-width: 1.5;" x1="294" x2="402" y1="97.5" y2="97.5"/><text fill="#000000" font-family="sans-serif" font-size="11" lengthAdjust="spacingAndGlyphs" textLength="74" x="299" y="111.7104">-String name</text><!--MD5=[f483d6e5de34a60207b28a5563be5e8b]
class Collaborator--><rect fill="#FEFECE" filter="url(#f1xm2iqrma3t7k)" height="65.6094" id="Collaborator" style="stroke: #A80036; stroke-width: 1.5;" width="109" x="501" y="136"/><ellipse cx="516" cy="152" fill="#ADD1B2" rx="11" ry="11" style="stroke: #A80036; stroke-width: 1.0;"/><path d="M518.9688,157.6406 Q518.3906,157.9375 517.75,158.0859 Q517.1094,158.2344 516.4063,158.2344 Q513.9063,158.2344 512.5859,156.5859 Q511.2656,154.9375 511.2656,151.8125 Q511.2656,148.6875 512.5859,147.0313 Q513.9063,145.375 516.4063,145.375 Q517.1094,145.375 517.7578,145.5313 Q518.4063,145.6875 518.9688,145.9844 L518.9688,148.7031 Q518.3438,148.125 517.75,147.8516 Q517.1563,147.5781 516.5313,147.5781 Q515.1875,147.5781 514.5,148.6484 Q513.8125,149.7188 513.8125,151.8125 Q513.8125,153.9063 514.5,154.9766 Q515.1875,156.0469 516.5313,156.0469 Q517.1563,156.0469 517.75,155.7734 Q518.3438,155.5 518.9688,154.9219 L518.9688,157.6406 Z "/><text fill="#000000" font-family="sans-serif" font-size="12" lengthAdjust="spacingAndGlyphs" textLength="77" x="530" y="156.1543">Collaborator</text><line style="stroke: #A80036; stroke-width: 1.5;" x1="502" x2="609" y1="168" y2="168"/><text fill="#000000" font-family="sans-serif" font-size="11" lengthAdjust="spacingAndGlyphs" textLength="74" x="507" y="182.2104">-String name</text><text fill="#000000" font-family="sans-serif" font-size="11" lengthAdjust="spacingAndGlyphs" textLength="73" x="507" y="195.0151">-String email</text><!--MD5=[3fd616f346a44cd59a91eb10b19e157c]
class User--><rect fill="#FEFECE" filter="url(#f1xm2iqrma3t7k)" height="65.6094" id="User" style="stroke: #A80036; stroke-width: 1.5;" width="110" x="1330" y="350"/><ellipse cx="1367.05" cy="366" fill="#ADD1B2" rx="11" ry="11" style="stroke: #A80036; stroke-width: 1.0;"/><path d="M1370.0188,371.6406 Q1369.4406,371.9375 1368.8,372.0859 Q1368.1594,372.2344 1367.4563,372.2344 Q1364.9563,372.2344 1363.6359,370.5859 Q1362.3156,368.9375 1362.3156,365.8125 Q1362.3156,362.6875 1363.6359,361.0313 Q1364.9563,359.375 1367.4563,359.375 Q1368.1594,359.375 1368.8078,359.5313 Q1369.4563,359.6875 1370.0188,359.9844 L1370.0188,362.7031 Q1369.3938,362.125 1368.8,361.8516 Q1368.2063,361.5781 1367.5813,361.5781 Q1366.2375,361.5781 1365.55,362.6484 Q1364.8625,363.7188 1364.8625,365.8125 Q1364.8625,367.9063 1365.55,368.9766 Q1366.2375,370.0469 1367.5813,370.0469 Q1368.2063,370.0469 1368.8,369.7734 Q1369.3938,369.5 1370.0188,368.9219 L1370.0188,371.6406 Z "/><text fill="#000000" font-family="sans-serif" font-size="12" lengthAdjust="spacingAndGlyphs" textLength="29" x="1385.95" y="370.1543">User</text><line style="stroke: #A80036; stroke-width: 1.5;" x1="1331" x2="1439" y1="382" y2="382"/><text fill="#000000" font-family="sans-serif" font-size="11" lengthAdjust="spacingAndGlyphs" textLength="73" x="1336" y="396.2104">-String email</text><text fill="#000000" font-family="sans-serif" font-size="11" lengthAdjust="spacingAndGlyphs" textLength="98" x="1336" y="409.0151">-String password</text><!--MD5=[1f687b5315377fe49fca59b457947463]
class Freelancer--><rect fill="#FEFECE" filter="url(#f1xm2iqrma3t7k)" height="142.4375" id="Freelancer" style="stroke: #A80036; stroke-width: 1.5;" width="136" x="1026" y="234"/><ellipse cx="1057.65" cy="250" fill="#ADD1B2" rx="11" ry="11" style="stroke: #A80036; stroke-width: 1.0;"/><path d="M1060.6188,255.6406 Q1060.0406,255.9375 1059.4,256.0859 Q1058.7594,256.2344 1058.0563,256.2344 Q1055.5563,256.2344 1054.2359,254.5859 Q1052.9156,252.9375 1052.9156,249.8125 Q1052.9156,246.6875 1054.2359,245.0313 Q1055.5563,243.375 1058.0563,243.375 Q1058.7594,243.375 1059.4078,243.5313 Q1060.0563,243.6875 1060.6188,243.9844 L1060.6188,246.7031 Q1059.9938,246.125 1059.4,245.8516 Q1058.8063,245.5781 1058.1813,245.5781 Q1056.8375,245.5781 1056.15,246.6484 Q1055.4625,247.7188 1055.4625,249.8125 Q1055.4625,251.9063 1056.15,252.9766 Q1056.8375,254.0469 1058.1813,254.0469 Q1058.8063,254.0469 1059.4,253.7734 Q1059.9938,253.5 1060.6188,252.9219 L1060.6188,255.6406 Z "/><text fill="#000000" font-family="sans-serif" font-size="12" lengthAdjust="spacingAndGlyphs" textLength="67" x="1075.35" y="254.1543">Freelancer</text><line style="stroke: #A80036; stroke-width: 1.5;" x1="1027" x2="1161" y1="266" y2="266"/><text fill="#000000" font-family="sans-serif" font-size="11" lengthAdjust="spacingAndGlyphs" textLength="52" x="1032" y="280.2104">-String id</text><text fill="#000000" font-family="sans-serif" font-size="11" lengthAdjust="spacingAndGlyphs" textLength="74" x="1032" y="293.0151">-String name</text><text fill="#000000" font-family="sans-serif" font-size="11" lengthAdjust="spacingAndGlyphs" textLength="124" x="1032" y="305.8198">-String expertiseLevel</text><text fill="#000000" font-family="sans-serif" font-size="11" lengthAdjust="spacingAndGlyphs" textLength="73" x="1032" y="318.6245">-String email</text><text fill="#000000" font-family="sans-serif" font-size="11" lengthAdjust="spacingAndGlyphs" textLength="59" x="1032" y="331.4292">-String NIF</text><text fill="#000000" font-family="sans-serif" font-size="11" lengthAdjust="spacingAndGlyphs" textLength="68" x="1032" y="344.2339">-String IBAN</text><text fill="#000000" font-family="sans-serif" font-size="11" lengthAdjust="spacingAndGlyphs" textLength="89" x="1032" y="357.0386">-String address</text><text fill="#000000" font-family="sans-serif" font-size="11" lengthAdjust="spacingAndGlyphs" textLength="84" x="1032" y="369.8433">-String country</text><!--MD5=[b34797a66dc35cbf1d65f7e3ca75530e]
class Task--><rect fill="#FEFECE" filter="url(#f1xm2iqrma3t7k)" height="104.0234" id="Task" style="stroke: #A80036; stroke-width: 1.5;" width="144" x="1022" y="8"/><ellipse cx="1075.25" cy="24" fill="#ADD1B2" rx="11" ry="11" style="stroke: #A80036; stroke-width: 1.0;"/><path d="M1078.2188,29.6406 Q1077.6406,29.9375 1077,30.0859 Q1076.3594,30.2344 1075.6563,30.2344 Q1073.1563,30.2344 1071.8359,28.5859 Q1070.5156,26.9375 1070.5156,23.8125 Q1070.5156,20.6875 1071.8359,19.0313 Q1073.1563,17.375 1075.6563,17.375 Q1076.3594,17.375 1077.0078,17.5313 Q1077.6563,17.6875 1078.2188,17.9844 L1078.2188,20.7031 Q1077.5938,20.125 1077,19.8516 Q1076.4063,19.5781 1075.7813,19.5781 Q1074.4375,19.5781 1073.75,20.6484 Q1073.0625,21.7188 1073.0625,23.8125 Q1073.0625,25.9063 1073.75,26.9766 Q1074.4375,28.0469 1075.7813,28.0469 Q1076.4063,28.0469 1077,27.7734 Q1077.5938,27.5 1078.2188,26.9219 L1078.2188,29.6406 Z "/><text fill="#000000" font-family="sans-serif" font-size="12" lengthAdjust="spacingAndGlyphs" textLength="29" x="1095.75" y="28.1543">Task</text><line style="stroke: #A80036; stroke-width: 1.5;" x1="1023" x2="1165" y1="40" y2="40"/><text fill="#000000" font-family="sans-serif" font-size="11" lengthAdjust="spacingAndGlyphs" textLength="52" x="1028" y="54.2104">-String id</text><text fill="#000000" font-family="sans-serif" font-size="11" lengthAdjust="spacingAndGlyphs" textLength="132" x="1028" y="67.0151">-String briefDescription</text><text fill="#000000" font-family="sans-serif" font-size="11" lengthAdjust="spacingAndGlyphs" textLength="121" x="1028" y="79.8198">-Integer timeDuration</text><text fill="#000000" font-family="sans-serif" font-size="11" lengthAdjust="spacingAndGlyphs" textLength="117" x="1028" y="92.6245">-Double costPerHour</text><text fill="#000000" font-family="sans-serif" font-size="11" lengthAdjust="spacingAndGlyphs" textLength="117" x="1028" y="105.4292">-String taskCategory</text><!--MD5=[5ce80547de3caced9d0089e35ded5090]
class TaskExecution--><rect fill="#FEFECE" filter="url(#f1xm2iqrma3t7k)" height="78.4141" id="TaskExecution" style="stroke: #A80036; stroke-width: 1.5;" width="184" x="1293" y="96"/><ellipse cx="1335.9" cy="112" fill="#ADD1B2" rx="11" ry="11" style="stroke: #A80036; stroke-width: 1.0;"/><path d="M1338.8688,117.6406 Q1338.2906,117.9375 1337.65,118.0859 Q1337.0094,118.2344 1336.3063,118.2344 Q1333.8063,118.2344 1332.4859,116.5859 Q1331.1656,114.9375 1331.1656,111.8125 Q1331.1656,108.6875 1332.4859,107.0313 Q1333.8063,105.375 1336.3063,105.375 Q1337.0094,105.375 1337.6578,105.5313 Q1338.3063,105.6875 1338.8688,105.9844 L1338.8688,108.7031 Q1338.2438,108.125 1337.65,107.8516 Q1337.0563,107.5781 1336.4313,107.5781 Q1335.0875,107.5781 1334.4,108.6484 Q1333.7125,109.7188 1333.7125,111.8125 Q1333.7125,113.9063 1334.4,114.9766 Q1335.0875,116.0469 1336.4313,116.0469 Q1337.0563,116.0469 1337.65,115.7734 Q1338.2438,115.5 1338.8688,114.9219 L1338.8688,117.6406 Z "/><text fill="#000000" font-family="sans-serif" font-size="12" lengthAdjust="spacingAndGlyphs" textLength="90" x="1356.1" y="116.1543">TaskExecution</text><line style="stroke: #A80036; stroke-width: 1.5;" x1="1294" x2="1476" y1="128" y2="128"/><text fill="#000000" font-family="sans-serif" font-size="11" lengthAdjust="spacingAndGlyphs" textLength="81" x="1299" y="142.2104">-Date endDate</text><text fill="#000000" font-family="sans-serif" font-size="11" lengthAdjust="spacingAndGlyphs" textLength="77" x="1299" y="155.0151">-Double delay</text><text fill="#000000" font-family="sans-serif" font-size="11" lengthAdjust="spacingAndGlyphs" textLength="172" x="1299" y="167.8198">-String workQualityDescription</text><!--MD5=[b645a18afb25b7e5623af7186d8eb36f]
class PaymentTransaction--><rect fill="#FEFECE" filter="url(#f1xm2iqrma3t7k)" height="40" id="PaymentTransaction" style="stroke: #A80036; stroke-width: 1.5;" width="160" x="726" y="144"/><ellipse cx="741" cy="160" fill="#ADD1B2" rx="11" ry="11" style="stroke: #A80036; stroke-width: 1.0;"/><path d="M743.9688,165.6406 Q743.3906,165.9375 742.75,166.0859 Q742.1094,166.2344 741.4063,166.2344 Q738.9063,166.2344 737.5859,164.5859 Q736.2656,162.9375 736.2656,159.8125 Q736.2656,156.6875 737.5859,155.0313 Q738.9063,153.375 741.4063,153.375 Q742.1094,153.375 742.7578,153.5313 Q743.4063,153.6875 743.9688,153.9844 L743.9688,156.7031 Q743.3438,156.125 742.75,155.8516 Q742.1563,155.5781 741.5313,155.5781 Q740.1875,155.5781 739.5,156.6484 Q738.8125,157.7188 738.8125,159.8125 Q738.8125,161.9063 739.5,162.9766 Q740.1875,164.0469 741.5313,164.0469 Q742.1563,164.0469 742.75,163.7734 Q743.3438,163.5 743.9688,162.9219 L743.9688,165.6406 Z "/><text fill="#000000" font-family="sans-serif" font-size="12" lengthAdjust="spacingAndGlyphs" textLength="128" x="755" y="164.1543">PaymentTransaction</text><line style="stroke: #A80036; stroke-width: 1.5;" x1="727" x2="885" y1="176" y2="176"/><!--MD5=[7640e466c042ba2d6f9c19c816f7f0fc]
link Platform to Organization--><path d="M85.8297,444.3495 C137.6073,374.7618 276.4392,188.1757 328.1922,118.6211 " fill="none" id="Platform-Organization" style="stroke: #A80036; stroke-width: 1.0;"/><polygon fill="#000000" points="198.5,208,201.5,202,204.5,208,198.5,208" style="stroke: #000000; stroke-width: 1.0;"/><text fill="#000000" font-family="sans-serif" font-size="13" lengthAdjust="spacingAndGlyphs" textLength="92" x="157" y="223.0669">has registered</text><text fill="#000000" font-family="sans-serif" font-size="13" lengthAdjust="spacingAndGlyphs" textLength="8" x="81.4903" y="433.557">1</text><text fill="#000000" font-family="sans-serif" font-size="13" lengthAdjust="spacingAndGlyphs" textLength="7" x="316.0936" y="138.1879">*</text><!--MD5=[22697d4d863c2e08ab1d60ca0d61f844]
link Platform to Freelancer--><path d="M126.0526,480.7776 C183.0182,489.1967 271.0992,500 348,500 C348,500 348,500 806,500 C897.3293,500 981.2719,431.9316 1034.6761,376.2272 " fill="none" id="Platform-Freelancer" style="stroke: #A80036; stroke-width: 1.0;"/><text fill="#000000" font-family="sans-serif" font-size="13" lengthAdjust="spacingAndGlyphs" textLength="57" x="520.5" y="496.0669">has/uses</text><polygon fill="#000000" points="580.5,490.0664,586.5,493.0664,580.5,496.0664,580.5,490.0664" style="stroke: #000000; stroke-width: 1.0;"/><text fill="#000000" font-family="sans-serif" font-size="13" lengthAdjust="spacingAndGlyphs" textLength="8" x="133.859" y="494.9702">1</text><text fill="#000000" font-family="sans-serif" font-size="13" lengthAdjust="spacingAndGlyphs" textLength="7" x="1021.1974" y="396.3971">*</text><!--MD5=[45817597bcd7048073a670d966abfd17]
link Organization to Collaborator--><path d="M403.0614,112.4324 C433.3176,123.66 470.7184,137.5389 500.9013,148.7393 " fill="none" id="Organization-Collaborator" style="stroke: #A80036; stroke-width: 1.0;"/><text fill="#000000" font-family="sans-serif" font-size="13" lengthAdjust="spacingAndGlyphs" textLength="23" x="434" y="120.0669">has</text><polygon fill="#000000" points="460,114.0664,466,117.0664,460,120.0664,460,114.0664" style="stroke: #000000; stroke-width: 1.0;"/><text fill="#000000" font-family="sans-serif" font-size="13" lengthAdjust="spacingAndGlyphs" textLength="8" x="410.9978" y="128.2748">1</text><text fill="#000000" font-family="sans-serif" font-size="13" lengthAdjust="spacingAndGlyphs" textLength="8" x="485.0271" y="159.1266">1</text><!--MD5=[4078351e3988aa35b1504a42837f2ab1]
link Organization to Task--><path d="M403.0354,77.4146 C412.9484,75.2563 423.2346,73.3181 433,72 C645.8851,43.2645 701.2216,58.0007 916,54 C949.7719,53.3709 958.2368,53.0078 992,54 C1001.6636,54.284 1011.8354,54.719 1021.8612,55.2278 " fill="none" id="Organization-Task" style="stroke: #A80036; stroke-width: 1.0;"/><text fill="#000000" font-family="sans-serif" font-size="13" lengthAdjust="spacingAndGlyphs" textLength="23" x="650" y="50.0669">has</text><polygon fill="#000000" points="676,44.0664,682,47.0664,676,50.0664,676,44.0664" style="stroke: #000000; stroke-width: 1.0;"/><text fill="#000000" font-family="sans-serif" font-size="13" lengthAdjust="spacingAndGlyphs" textLength="8" x="410.9683" y="88.5514">1</text><text fill="#000000" font-family="sans-serif" font-size="13" lengthAdjust="spacingAndGlyphs" textLength="7" x="1007.0609" y="51.0348">*</text><!--MD5=[da2d560b3f89d8c66478284968d27dfa]
link Organization to PaymentTransaction--><path d="M403.1774,94.2096 C424.4076,95.3036 448.8589,96.8601 471,99 C533.0631,104.9983 548.691,106.6418 610,118 C649.179,125.2584 692.3316,135.1742 728.1496,143.9414 " fill="none" id="Organization-PaymentTransaction" style="stroke: #A80036; stroke-width: 1.0;"/><text fill="#000000" font-family="sans-serif" font-size="13" lengthAdjust="spacingAndGlyphs" textLength="23" x="537.5" y="99.0669">has</text><polygon fill="#000000" points="563.5,93.0664,569.5,96.0664,563.5,99.0664,563.5,93.0664" style="stroke: #000000; stroke-width: 1.0;"/><text fill="#000000" font-family="sans-serif" font-size="13" lengthAdjust="spacingAndGlyphs" textLength="8" x="411.1294" y="107.6033">1</text><text fill="#000000" font-family="sans-serif" font-size="13" lengthAdjust="spacingAndGlyphs" textLength="7" x="711.235" y="137.6577">*</text><!--MD5=[04ce0ecdab38a3951889ff50c232570f]
link Collaborator to User--><path d="M603.691,202.1282 C685.3004,255.8785 857.8805,359.5484 1022,394 C1129.2122,416.5058 1258.1077,403.3946 1329.8659,392.6464 " fill="none" id="Collaborator-User" style="stroke: #A80036; stroke-width: 1.0;"/><text fill="#000000" font-family="sans-serif" font-size="13" lengthAdjust="spacingAndGlyphs" textLength="52" x="921.5" y="360.0669">acts like</text><polygon fill="#000000" points="976.5,354.0664,982.5,357.0664,976.5,360.0664,976.5,354.0664" style="stroke: #000000; stroke-width: 1.0;"/><text fill="#000000" font-family="sans-serif" font-size="13" lengthAdjust="spacingAndGlyphs" textLength="24" x="586.3637" y="221.7342">0..1</text><text fill="#000000" font-family="sans-serif" font-size="13" lengthAdjust="spacingAndGlyphs" textLength="8" x="1313.9198" y="407.0525">1</text><!--MD5=[65ab54bb4516ebbc699d18e0b28e9aea]
link Freelancer to User--><path d="M1162.2266,323.2875 C1213.2955,336.9761 1282.2564,355.4605 1329.8588,368.2199 " fill="none" id="Freelancer-User" style="stroke: #A80036; stroke-width: 1.0;"/><text fill="#000000" font-family="sans-serif" font-size="13" lengthAdjust="spacingAndGlyphs" textLength="52" x="1197" y="328.0669">acts like</text><polygon fill="#000000" points="1252,322.0664,1258,325.0664,1252,328.0664,1252,322.0664" style="stroke: #000000; stroke-width: 1.0;"/><text fill="#000000" font-family="sans-serif" font-size="13" lengthAdjust="spacingAndGlyphs" textLength="24" x="1170.1239" y="337.8779">0..1</text><text fill="#000000" font-family="sans-serif" font-size="13" lengthAdjust="spacingAndGlyphs" textLength="8" x="1313.9117" y="379.3437">1</text><!--MD5=[d2c3650dbd07e79cdad2ffd4a879dec6]
link Collaborator to Freelancer--><path d="M610.2188,185.4446 C643.5705,195.2883 687.1173,207.8228 726,218 C830.1573,245.2624 951.8904,273.2997 1025.9341,289.9305 " fill="none" id="Collaborator-Freelancer" style="stroke: #A80036; stroke-width: 1.0;"/><text fill="#000000" font-family="sans-serif" font-size="13" lengthAdjust="spacingAndGlyphs" textLength="41" x="779" y="214.0669">create</text><polygon fill="#000000" points="823,208.0664,829,211.0664,823,214.0664,823,208.0664" style="stroke: #000000; stroke-width: 1.0;"/><text fill="#000000" font-family="sans-serif" font-size="13" lengthAdjust="spacingAndGlyphs" textLength="8" x="618.1091" y="200.7642">1</text><text fill="#000000" font-family="sans-serif" font-size="13" lengthAdjust="spacingAndGlyphs" textLength="7" x="1011.1066" y="301.1528">*</text><!--MD5=[f919d21ae7a75ef5ececc535e09d5009]
link Collaborator to Task--><path d="M610.2312,150.4941 C620.0838,147.4542 630.3037,144.4887 640,142 C773.0499,107.8506 931.5868,82.6549 1021.7499,69.7423 " fill="none" id="Collaborator-Task" style="stroke: #A80036; stroke-width: 1.0;"/><text fill="#000000" font-family="sans-serif" font-size="13" lengthAdjust="spacingAndGlyphs" textLength="41" x="779" y="88.0669">create</text><polygon fill="#000000" points="823,82.0664,829,85.0664,823,88.0664,823,82.0664" style="stroke: #000000; stroke-width: 1.0;"/><text fill="#000000" font-family="sans-serif" font-size="13" lengthAdjust="spacingAndGlyphs" textLength="8" x="618.1232" y="161.1172">1</text><text fill="#000000" font-family="sans-serif" font-size="13" lengthAdjust="spacingAndGlyphs" textLength="7" x="1006.9382" y="83.5929">*</text><!--MD5=[c32d3c60a61e5638fef4971a1b3a8306]
link Collaborator to PaymentTransaction--><path d="M610.1637,167.9089 C643.9941,167.2337 688.0254,166.3548 725.7666,165.6015 " fill="none" id="Collaborator-PaymentTransaction" style="stroke: #A80036; stroke-width: 1.0;"/><text fill="#000000" font-family="sans-serif" font-size="13" lengthAdjust="spacingAndGlyphs" textLength="41" x="641" y="163.0669">create</text><polygon fill="#000000" points="685,157.0664,691,160.0664,685,163.0664,685,157.0664" style="stroke: #000000; stroke-width: 1.0;"/><text fill="#000000" font-family="sans-serif" font-size="13" lengthAdjust="spacingAndGlyphs" textLength="8" x="618.0466" y="180.8722">1</text><text fill="#000000" font-family="sans-serif" font-size="13" lengthAdjust="spacingAndGlyphs" textLength="7" x="711.0474" y="178.5136">*</text><!--MD5=[f6802b286771c18a16ea4be983074371]
link PaymentTransaction to Freelancer--><path d="M846.9575,184.0521 C893.5464,206.8613 970.3542,244.4651 1025.9732,271.6952 " fill="none" id="PaymentTransaction-Freelancer" style="stroke: #A80036; stroke-width: 1.0;"/><text fill="#000000" font-family="sans-serif" font-size="13" lengthAdjust="spacingAndGlyphs" textLength="61" x="917" y="217.0669">relates to</text><polygon fill="#000000" points="981,211.0664,987,214.0664,981,217.0664,981,211.0664" style="stroke: #000000; stroke-width: 1.0;"/><text fill="#000000" font-family="sans-serif" font-size="13" lengthAdjust="spacingAndGlyphs" textLength="8" x="849.8138" y="204.2319">1</text><text fill="#000000" font-family="sans-serif" font-size="13" lengthAdjust="spacingAndGlyphs" textLength="8" x="1010.0953" y="280.923">1</text><!--MD5=[271ce7fefd7250ebaca83b70495774bd]
link PaymentTransaction to Task--><path d="M883.8483,143.9845 C917.519,134.5599 957.1201,122.4353 992,109 C1001.808,105.2221 1011.9714,100.8832 1021.9132,96.3827 " fill="none" id="PaymentTransaction-Task" style="stroke: #A80036; stroke-width: 1.0;"/><text fill="#000000" font-family="sans-serif" font-size="13" lengthAdjust="spacingAndGlyphs" textLength="61" x="917" y="105.0669">relates to</text><polygon fill="#000000" points="981,99.0664,987,102.0664,981,105.0664,981,99.0664" style="stroke: #000000; stroke-width: 1.0;"/><text fill="#000000" font-family="sans-serif" font-size="13" lengthAdjust="spacingAndGlyphs" textLength="8" x="893.8488" y="134.3607">1</text><text fill="#000000" font-family="sans-serif" font-size="13" lengthAdjust="spacingAndGlyphs" textLength="8" x="1006.0667" y="112.9806">1</text><!--MD5=[ccf9e4a23b86a8fcbc3774eff83a0cb7]
link PaymentTransaction to TaskExecution--><path d="M886.071,160.0017 C959.0253,156.3575 1069.7505,150.8235 1166,146 C1207.6331,143.9136 1253.7178,141.5995 1292.829,139.6343 " fill="none" id="PaymentTransaction-TaskExecution" style="stroke: #A80036; stroke-width: 1.0;"/><text fill="#000000" font-family="sans-serif" font-size="13" lengthAdjust="spacingAndGlyphs" textLength="61" x="1057" y="142.0669">relates to</text><polygon fill="#000000" points="1121,136.0664,1127,139.0664,1121,142.0664,1121,136.0664" style="stroke: #000000; stroke-width: 1.0;"/><text fill="#000000" font-family="sans-serif" font-size="13" lengthAdjust="spacingAndGlyphs" textLength="8" x="894.084" y="172.4087">1</text><text fill="#000000" font-family="sans-serif" font-size="13" lengthAdjust="spacingAndGlyphs" textLength="8" x="1276.8648" y="152.6944">1</text><!--MD5=[bdc7b78a1b1f03a53fec8289ba75cac4]
link Task to TaskExecution--><path d="M1166.3065,78.6357 C1204.6008,88.5054 1252.0417,100.7324 1292.9402,111.2733 " fill="none" id="Task-TaskExecution" style="stroke: #A80036; stroke-width: 1.0;"/><text fill="#000000" font-family="sans-serif" font-size="13" lengthAdjust="spacingAndGlyphs" textLength="23" x="1211.5" y="83.0669">has</text><polygon fill="#000000" points="1237.5,77.0664,1243.5,80.0664,1237.5,83.0664,1237.5,77.0664" style="stroke: #000000; stroke-width: 1.0;"/><text fill="#000000" font-family="sans-serif" font-size="13" lengthAdjust="spacingAndGlyphs" textLength="8" x="1174.1756" y="93.4035">1</text><text fill="#000000" font-family="sans-serif" font-size="13" lengthAdjust="spacingAndGlyphs" textLength="8" x="1276.9852" y="121.9848">1</text><!--MD5=[d52446bf0028449dfede48186ca48116]
@startuml
skinparam classAttributeIconSize 0
hide methods
left to right direction

class Platform {
  -String designation
}

class Organization {
  -String name
}

class Collaborator {
  -String name
  -String email
}


class User {
  -String email
  -String password
}

class Freelancer {
  -String id
  -String name
  -String expertiseLevel
  -String email
  -String NIF
  -String IBAN
  -String address
  -String country
  }

class Task {
 -String id
 -String briefDescription
 -Integer timeDuration
 -Double costPerHour
 -String taskCategory
}

class TaskExecution {
 -Date endDate
 -Double delay
 -String workQualityDescription
}

class PaymentTransaction{
}

Platform "1" - - "*" Organization : has registered >
Platform "1" - - "*" Freelancer : has/uses >
Organization "1" - - "1" Collaborator: has >
Organization "1" - - "*" Task: has >
Organization "1" - - "*" PaymentTransaction: has >
Collaborator "0..1" - - "1" User: acts like >
Freelancer "0..1" - - "1" User: acts like >
Collaborator "1" - - "*" Freelancer: create >
Collaborator "1" - - "*" Task: create >
Collaborator "1" - - "*" PaymentTransaction: create >
PaymentTransaction "1" - - "1" Freelancer: relates to >
PaymentTransaction "1" - - "1" Task: relates to >
PaymentTransaction "1" - - "1" TaskExecution: relates to >
Task "1" - - "1" TaskExecution: has >
@enduml

PlantUML version 1.2019.12(Sun Nov 03 10:24:54 UTC 2019)
(GPL source distribution)
Java Runtime: OpenJDK Runtime Environment
JVM: OpenJDK 64-Bit Server VM
Java Version: 1.8.0_232-heroku-b09
Operating System: Linux
Default Encoding: UTF-8
Language: en
Country: US
--></g></svg>