<?xml version="1.0" encoding="UTF-8" standalone="no"?><svg xmlns="http://www.w3.org/2000/svg" xmlns:xlink="http://www.w3.org/1999/xlink" contentScriptType="application/ecmascript" contentStyleType="text/css" height="754px" preserveAspectRatio="none" style="width:2106px;height:754px;" version="1.1" viewBox="0 0 2106 754" width="2106px" zoomAndPan="magnify"><defs><filter height="300%" id="fpvh0bpdc914g" width="300%" x="-1" y="-1"><feGaussianBlur result="blurOut" stdDeviation="2.0"/><feColorMatrix in="blurOut" result="blurOut2" type="matrix" values="0 0 0 0 0 0 0 0 0 0 0 0 0 0 0 0 0 0 .4 0"/><feOffset dx="4.0" dy="4.0" in="blurOut2" result="blurOut3"/><feBlend in="SourceGraphic" in2="blurOut3" mode="normal"/></filter></defs><g><!--MD5=[99b8db98afdc2c8404e39242ef4c1e65]
class Platform--><rect fill="#FEFECE" filter="url(#fpvh0bpdc914g)" height="52.8047" id="Platform" style="stroke: #A80036; stroke-width: 1.5;" width="120" x="6" y="86.5"/><ellipse cx="37.2" cy="102.5" fill="#ADD1B2" rx="11" ry="11" style="stroke: #A80036; stroke-width: 1.0;"/><path d="M40.1688,108.1406 Q39.5906,108.4375 38.95,108.5859 Q38.3094,108.7344 37.6063,108.7344 Q35.1063,108.7344 33.7859,107.0859 Q32.4656,105.4375 32.4656,102.3125 Q32.4656,99.1875 33.7859,97.5313 Q35.1063,95.875 37.6063,95.875 Q38.3094,95.875 38.9578,96.0313 Q39.6063,96.1875 40.1688,96.4844 L40.1688,99.2031 Q39.5438,98.625 38.95,98.3516 Q38.3563,98.0781 37.7313,98.0781 Q36.3875,98.0781 35.7,99.1484 Q35.0125,100.2188 35.0125,102.3125 Q35.0125,104.4063 35.7,105.4766 Q36.3875,106.5469 37.7313,106.5469 Q38.3563,106.5469 38.95,106.2734 Q39.5438,106 40.1688,105.4219 L40.1688,108.1406 Z "/><text fill="#000000" font-family="sans-serif" font-size="12" lengthAdjust="spacingAndGlyphs" textLength="52" x="54.8" y="106.6543">Platform</text><line style="stroke: #A80036; stroke-width: 1.5;" x1="7" x2="125" y1="118.5" y2="118.5"/><text fill="#000000" font-family="sans-serif" font-size="11" lengthAdjust="spacingAndGlyphs" textLength="108" x="12" y="132.7104">-String designation</text><!--MD5=[86c7c362de55a38b660185a1328fe18d]
class Organization--><rect fill="#FEFECE" filter="url(#fpvh0bpdc914g)" height="65.6094" id="Organization" style="stroke: #A80036; stroke-width: 1.5;" width="110" x="293" y="466"/><ellipse cx="308" cy="482" fill="#ADD1B2" rx="11" ry="11" style="stroke: #A80036; stroke-width: 1.0;"/><path d="M310.9688,487.6406 Q310.3906,487.9375 309.75,488.0859 Q309.1094,488.2344 308.4063,488.2344 Q305.9063,488.2344 304.5859,486.5859 Q303.2656,484.9375 303.2656,481.8125 Q303.2656,478.6875 304.5859,477.0313 Q305.9063,475.375 308.4063,475.375 Q309.1094,475.375 309.7578,475.5313 Q310.4063,475.6875 310.9688,475.9844 L310.9688,478.7031 Q310.3438,478.125 309.75,477.8516 Q309.1563,477.5781 308.5313,477.5781 Q307.1875,477.5781 306.5,478.6484 Q305.8125,479.7188 305.8125,481.8125 Q305.8125,483.9063 306.5,484.9766 Q307.1875,486.0469 308.5313,486.0469 Q309.1563,486.0469 309.75,485.7734 Q310.3438,485.5 310.9688,484.9219 L310.9688,487.6406 Z "/><text fill="#000000" font-family="sans-serif" font-size="12" lengthAdjust="spacingAndGlyphs" textLength="78" x="322" y="486.1543">Organization</text><line style="stroke: #A80036; stroke-width: 1.5;" x1="294" x2="402" y1="498" y2="498"/><text fill="#000000" font-family="sans-serif" font-size="11" lengthAdjust="spacingAndGlyphs" textLength="74" x="299" y="512.2104">-String name</text><text fill="#000000" font-family="sans-serif" font-size="11" lengthAdjust="spacingAndGlyphs" textLength="59" x="299" y="525.0151">-String NIF</text><!--MD5=[f483d6e5de34a60207b28a5563be5e8b]
class Collaborator--><rect fill="#FEFECE" filter="url(#fpvh0bpdc914g)" height="65.6094" id="Collaborator" style="stroke: #A80036; stroke-width: 1.5;" width="109" x="997" y="466"/><ellipse cx="1012" cy="482" fill="#ADD1B2" rx="11" ry="11" style="stroke: #A80036; stroke-width: 1.0;"/><path d="M1014.9688,487.6406 Q1014.3906,487.9375 1013.75,488.0859 Q1013.1094,488.2344 1012.4063,488.2344 Q1009.9063,488.2344 1008.5859,486.5859 Q1007.2656,484.9375 1007.2656,481.8125 Q1007.2656,478.6875 1008.5859,477.0313 Q1009.9063,475.375 1012.4063,475.375 Q1013.1094,475.375 1013.7578,475.5313 Q1014.4063,475.6875 1014.9688,475.9844 L1014.9688,478.7031 Q1014.3438,478.125 1013.75,477.8516 Q1013.1563,477.5781 1012.5313,477.5781 Q1011.1875,477.5781 1010.5,478.6484 Q1009.8125,479.7188 1009.8125,481.8125 Q1009.8125,483.9063 1010.5,484.9766 Q1011.1875,486.0469 1012.5313,486.0469 Q1013.1563,486.0469 1013.75,485.7734 Q1014.3438,485.5 1014.9688,484.9219 L1014.9688,487.6406 Z "/><text fill="#000000" font-family="sans-serif" font-size="12" lengthAdjust="spacingAndGlyphs" textLength="77" x="1026" y="486.1543">Collaborator</text><line style="stroke: #A80036; stroke-width: 1.5;" x1="998" x2="1105" y1="498" y2="498"/><text fill="#000000" font-family="sans-serif" font-size="11" lengthAdjust="spacingAndGlyphs" textLength="74" x="1003" y="512.2104">-String name</text><text fill="#000000" font-family="sans-serif" font-size="11" lengthAdjust="spacingAndGlyphs" textLength="73" x="1003" y="525.0151">-String email</text><!--MD5=[b24ed8d4ae84bae9290d9aab401637c7]
class Manager--><rect fill="#FEFECE" filter="url(#fpvh0bpdc914g)" height="65.6094" id="Manager" style="stroke: #A80036; stroke-width: 1.5;" width="87" x="694" y="302"/><ellipse cx="709" cy="318" fill="#ADD1B2" rx="11" ry="11" style="stroke: #A80036; stroke-width: 1.0;"/><path d="M711.9688,323.6406 Q711.3906,323.9375 710.75,324.0859 Q710.1094,324.2344 709.4063,324.2344 Q706.9063,324.2344 705.5859,322.5859 Q704.2656,320.9375 704.2656,317.8125 Q704.2656,314.6875 705.5859,313.0313 Q706.9063,311.375 709.4063,311.375 Q710.1094,311.375 710.7578,311.5313 Q711.4063,311.6875 711.9688,311.9844 L711.9688,314.7031 Q711.3438,314.125 710.75,313.8516 Q710.1563,313.5781 709.5313,313.5781 Q708.1875,313.5781 707.5,314.6484 Q706.8125,315.7188 706.8125,317.8125 Q706.8125,319.9063 707.5,320.9766 Q708.1875,322.0469 709.5313,322.0469 Q710.1563,322.0469 710.75,321.7734 Q711.3438,321.5 711.9688,320.9219 L711.9688,323.6406 Z "/><text fill="#000000" font-family="sans-serif" font-size="12" lengthAdjust="spacingAndGlyphs" textLength="55" x="723" y="322.1543">Manager</text><line style="stroke: #A80036; stroke-width: 1.5;" x1="695" x2="780" y1="334" y2="334"/><text fill="#000000" font-family="sans-serif" font-size="11" lengthAdjust="spacingAndGlyphs" textLength="74" x="700" y="348.2104">-String name</text><text fill="#000000" font-family="sans-serif" font-size="11" lengthAdjust="spacingAndGlyphs" textLength="73" x="700" y="361.0151">-String email</text><!--MD5=[1f687b5315377fe49fca59b457947463]
class Freelancer--><rect fill="#FEFECE" filter="url(#fpvh0bpdc914g)" height="142.4375" id="Freelancer" style="stroke: #A80036; stroke-width: 1.5;" width="136" x="1959" y="414"/><ellipse cx="1990.65" cy="430" fill="#ADD1B2" rx="11" ry="11" style="stroke: #A80036; stroke-width: 1.0;"/><path d="M1993.6188,435.6406 Q1993.0406,435.9375 1992.4,436.0859 Q1991.7594,436.2344 1991.0563,436.2344 Q1988.5563,436.2344 1987.2359,434.5859 Q1985.9156,432.9375 1985.9156,429.8125 Q1985.9156,426.6875 1987.2359,425.0313 Q1988.5563,423.375 1991.0563,423.375 Q1991.7594,423.375 1992.4078,423.5313 Q1993.0563,423.6875 1993.6188,423.9844 L1993.6188,426.7031 Q1992.9938,426.125 1992.4,425.8516 Q1991.8063,425.5781 1991.1813,425.5781 Q1989.8375,425.5781 1989.15,426.6484 Q1988.4625,427.7188 1988.4625,429.8125 Q1988.4625,431.9063 1989.15,432.9766 Q1989.8375,434.0469 1991.1813,434.0469 Q1991.8063,434.0469 1992.4,433.7734 Q1992.9938,433.5 1993.6188,432.9219 L1993.6188,435.6406 Z "/><text fill="#000000" font-family="sans-serif" font-size="12" lengthAdjust="spacingAndGlyphs" textLength="67" x="2008.35" y="434.1543">Freelancer</text><line style="stroke: #A80036; stroke-width: 1.5;" x1="1960" x2="2094" y1="446" y2="446"/><text fill="#000000" font-family="sans-serif" font-size="11" lengthAdjust="spacingAndGlyphs" textLength="52" x="1965" y="460.2104">-String id</text><text fill="#000000" font-family="sans-serif" font-size="11" lengthAdjust="spacingAndGlyphs" textLength="74" x="1965" y="473.0151">-String name</text><text fill="#000000" font-family="sans-serif" font-size="11" lengthAdjust="spacingAndGlyphs" textLength="124" x="1965" y="485.8198">-String expertiseLevel</text><text fill="#000000" font-family="sans-serif" font-size="11" lengthAdjust="spacingAndGlyphs" textLength="73" x="1965" y="498.6245">-String email</text><text fill="#000000" font-family="sans-serif" font-size="11" lengthAdjust="spacingAndGlyphs" textLength="59" x="1965" y="511.4292">-String NIF</text><text fill="#000000" font-family="sans-serif" font-size="11" lengthAdjust="spacingAndGlyphs" textLength="68" x="1965" y="524.2339">-String IBAN</text><text fill="#000000" font-family="sans-serif" font-size="11" lengthAdjust="spacingAndGlyphs" textLength="89" x="1965" y="537.0386">-String address</text><text fill="#000000" font-family="sans-serif" font-size="11" lengthAdjust="spacingAndGlyphs" textLength="84" x="1965" y="549.8433">-String country</text><!--MD5=[3fd616f346a44cd59a91eb10b19e157c]
class User--><rect fill="#FEFECE" filter="url(#fpvh0bpdc914g)" height="65.6094" id="User" style="stroke: #A80036; stroke-width: 1.5;" width="110" x="1369" y="150"/><ellipse cx="1406.05" cy="166" fill="#ADD1B2" rx="11" ry="11" style="stroke: #A80036; stroke-width: 1.0;"/><path d="M1409.0188,171.6406 Q1408.4406,171.9375 1407.8,172.0859 Q1407.1594,172.2344 1406.4563,172.2344 Q1403.9563,172.2344 1402.6359,170.5859 Q1401.3156,168.9375 1401.3156,165.8125 Q1401.3156,162.6875 1402.6359,161.0313 Q1403.9563,159.375 1406.4563,159.375 Q1407.1594,159.375 1407.8078,159.5313 Q1408.4563,159.6875 1409.0188,159.9844 L1409.0188,162.7031 Q1408.3938,162.125 1407.8,161.8516 Q1407.2063,161.5781 1406.5813,161.5781 Q1405.2375,161.5781 1404.55,162.6484 Q1403.8625,163.7188 1403.8625,165.8125 Q1403.8625,167.9063 1404.55,168.9766 Q1405.2375,170.0469 1406.5813,170.0469 Q1407.2063,170.0469 1407.8,169.7734 Q1408.3938,169.5 1409.0188,168.9219 L1409.0188,171.6406 Z "/><text fill="#000000" font-family="sans-serif" font-size="12" lengthAdjust="spacingAndGlyphs" textLength="29" x="1424.95" y="170.1543">User</text><line style="stroke: #A80036; stroke-width: 1.5;" x1="1370" x2="1478" y1="182" y2="182"/><text fill="#000000" font-family="sans-serif" font-size="11" lengthAdjust="spacingAndGlyphs" textLength="73" x="1375" y="196.2104">-String email</text><text fill="#000000" font-family="sans-serif" font-size="11" lengthAdjust="spacingAndGlyphs" textLength="98" x="1375" y="209.0151">-String password</text><!--MD5=[b34797a66dc35cbf1d65f7e3ca75530e]
class Task--><rect fill="#FEFECE" filter="url(#fpvh0bpdc914g)" height="104.0234" id="Task" style="stroke: #A80036; stroke-width: 1.5;" width="144" x="1652" y="514"/><ellipse cx="1705.25" cy="530" fill="#ADD1B2" rx="11" ry="11" style="stroke: #A80036; stroke-width: 1.0;"/><path d="M1708.2188,535.6406 Q1707.6406,535.9375 1707,536.0859 Q1706.3594,536.2344 1705.6563,536.2344 Q1703.1563,536.2344 1701.8359,534.5859 Q1700.5156,532.9375 1700.5156,529.8125 Q1700.5156,526.6875 1701.8359,525.0313 Q1703.1563,523.375 1705.6563,523.375 Q1706.3594,523.375 1707.0078,523.5313 Q1707.6563,523.6875 1708.2188,523.9844 L1708.2188,526.7031 Q1707.5938,526.125 1707,525.8516 Q1706.4063,525.5781 1705.7813,525.5781 Q1704.4375,525.5781 1703.75,526.6484 Q1703.0625,527.7188 1703.0625,529.8125 Q1703.0625,531.9063 1703.75,532.9766 Q1704.4375,534.0469 1705.7813,534.0469 Q1706.4063,534.0469 1707,533.7734 Q1707.5938,533.5 1708.2188,532.9219 L1708.2188,535.6406 Z "/><text fill="#000000" font-family="sans-serif" font-size="12" lengthAdjust="spacingAndGlyphs" textLength="29" x="1725.75" y="534.1543">Task</text><line style="stroke: #A80036; stroke-width: 1.5;" x1="1653" x2="1795" y1="546" y2="546"/><text fill="#000000" font-family="sans-serif" font-size="11" lengthAdjust="spacingAndGlyphs" textLength="52" x="1658" y="560.2104">-String id</text><text fill="#000000" font-family="sans-serif" font-size="11" lengthAdjust="spacingAndGlyphs" textLength="132" x="1658" y="573.0151">-String briefDescription</text><text fill="#000000" font-family="sans-serif" font-size="11" lengthAdjust="spacingAndGlyphs" textLength="121" x="1658" y="585.8198">-Integer timeDuration</text><text fill="#000000" font-family="sans-serif" font-size="11" lengthAdjust="spacingAndGlyphs" textLength="117" x="1658" y="598.6245">-Double costPerHour</text><text fill="#000000" font-family="sans-serif" font-size="11" lengthAdjust="spacingAndGlyphs" textLength="117" x="1658" y="611.4292">-String taskCategory</text><!--MD5=[b645a18afb25b7e5623af7186d8eb36f]
class PaymentTransaction--><rect fill="#FEFECE" filter="url(#fpvh0bpdc914g)" height="104.0234" id="PaymentTransaction" style="stroke: #A80036; stroke-width: 1.5;" width="184" x="1332" y="404"/><ellipse cx="1357.8" cy="420" fill="#ADD1B2" rx="11" ry="11" style="stroke: #A80036; stroke-width: 1.0;"/><path d="M1360.7688,425.6406 Q1360.1906,425.9375 1359.55,426.0859 Q1358.9094,426.2344 1358.2063,426.2344 Q1355.7063,426.2344 1354.3859,424.5859 Q1353.0656,422.9375 1353.0656,419.8125 Q1353.0656,416.6875 1354.3859,415.0313 Q1355.7063,413.375 1358.2063,413.375 Q1358.9094,413.375 1359.5578,413.5313 Q1360.2063,413.6875 1360.7688,413.9844 L1360.7688,416.7031 Q1360.1438,416.125 1359.55,415.8516 Q1358.9563,415.5781 1358.3313,415.5781 Q1356.9875,415.5781 1356.3,416.6484 Q1355.6125,417.7188 1355.6125,419.8125 Q1355.6125,421.9063 1356.3,422.9766 Q1356.9875,424.0469 1358.3313,424.0469 Q1358.9563,424.0469 1359.55,423.7734 Q1360.1438,423.5 1360.7688,422.9219 L1360.7688,425.6406 Z "/><text fill="#000000" font-family="sans-serif" font-size="12" lengthAdjust="spacingAndGlyphs" textLength="128" x="1374.2" y="424.1543">PaymentTransaction</text><line style="stroke: #A80036; stroke-width: 1.5;" x1="1333" x2="1515" y1="436" y2="436"/><text fill="#000000" font-family="sans-serif" font-size="11" lengthAdjust="spacingAndGlyphs" textLength="52" x="1338" y="450.2104">-String id</text><text fill="#000000" font-family="sans-serif" font-size="11" lengthAdjust="spacingAndGlyphs" textLength="81" x="1338" y="463.0151">-Date endDate</text><text fill="#000000" font-family="sans-serif" font-size="11" lengthAdjust="spacingAndGlyphs" textLength="78" x="1338" y="475.8198">-Integer delay</text><text fill="#000000" font-family="sans-serif" font-size="11" lengthAdjust="spacingAndGlyphs" textLength="172" x="1338" y="488.6245">-String workQualityDescription</text><text fill="#000000" font-family="sans-serif" font-size="11" lengthAdjust="spacingAndGlyphs" textLength="110" x="1338" y="501.4292">-Double payAmount</text><!--MD5=[0d00cfda1000b92a6c505ab1f4092a67]
class PaymentDay--><rect fill="#FEFECE" filter="url(#fpvh0bpdc914g)" height="65.6094" id="PaymentDay" style="stroke: #A80036; stroke-width: 1.5;" width="113" x="995" y="253"/><ellipse cx="1011.8" cy="269" fill="#ADD1B2" rx="11" ry="11" style="stroke: #A80036; stroke-width: 1.0;"/><path d="M1014.7688,274.6406 Q1014.1906,274.9375 1013.55,275.0859 Q1012.9094,275.2344 1012.2063,275.2344 Q1009.7063,275.2344 1008.3859,273.5859 Q1007.0656,271.9375 1007.0656,268.8125 Q1007.0656,265.6875 1008.3859,264.0313 Q1009.7063,262.375 1012.2063,262.375 Q1012.9094,262.375 1013.5578,262.5313 Q1014.2063,262.6875 1014.7688,262.9844 L1014.7688,265.7031 Q1014.1438,265.125 1013.55,264.8516 Q1012.9563,264.5781 1012.3313,264.5781 Q1010.9875,264.5781 1010.3,265.6484 Q1009.6125,266.7188 1009.6125,268.8125 Q1009.6125,270.9063 1010.3,271.9766 Q1010.9875,273.0469 1012.3313,273.0469 Q1012.9563,273.0469 1013.55,272.7734 Q1014.1438,272.5 1014.7688,271.9219 L1014.7688,274.6406 Z "/><text fill="#000000" font-family="sans-serif" font-size="12" lengthAdjust="spacingAndGlyphs" textLength="77" x="1026.2" y="273.1543">PaymentDay</text><line style="stroke: #A80036; stroke-width: 1.5;" x1="996" x2="1107" y1="285" y2="285"/><text fill="#000000" font-family="sans-serif" font-size="11" lengthAdjust="spacingAndGlyphs" textLength="93" x="1001" y="299.2104">-Date timeOfDay</text><text fill="#000000" font-family="sans-serif" font-size="11" lengthAdjust="spacingAndGlyphs" textLength="101" x="1001" y="312.0151">-Date dayOfMonth</text><!--MD5=[38d767b50186fba503091f69c245e88c]
class ExternalPwdGeneratorAlgorithm--><rect fill="#FEFECE" filter="url(#fpvh0bpdc914g)" height="40" id="ExternalPwdGeneratorAlgorithm" style="stroke: #A80036; stroke-width: 1.5;" width="231" x="433" y="93"/><ellipse cx="448" cy="109" fill="#ADD1B2" rx="11" ry="11" style="stroke: #A80036; stroke-width: 1.0;"/><path d="M450.9688,114.6406 Q450.3906,114.9375 449.75,115.0859 Q449.1094,115.2344 448.4063,115.2344 Q445.9063,115.2344 444.5859,113.5859 Q443.2656,111.9375 443.2656,108.8125 Q443.2656,105.6875 444.5859,104.0313 Q445.9063,102.375 448.4063,102.375 Q449.1094,102.375 449.7578,102.5313 Q450.4063,102.6875 450.9688,102.9844 L450.9688,105.7031 Q450.3438,105.125 449.75,104.8516 Q449.1563,104.5781 448.5313,104.5781 Q447.1875,104.5781 446.5,105.6484 Q445.8125,106.7188 445.8125,108.8125 Q445.8125,110.9063 446.5,111.9766 Q447.1875,113.0469 448.5313,113.0469 Q449.1563,113.0469 449.75,112.7734 Q450.3438,112.5 450.9688,111.9219 L450.9688,114.6406 Z "/><text fill="#000000" font-family="sans-serif" font-size="12" lengthAdjust="spacingAndGlyphs" textLength="199" x="462" y="113.1543">ExternalPwdGeneratorAlgorithm</text><line style="stroke: #A80036; stroke-width: 1.5;" x1="434" x2="663" y1="125" y2="125"/><!--MD5=[7640e466c042ba2d6f9c19c816f7f0fc]
link Platform to Organization--><path d="M85.383,139.5313 C135.4067,208.0035 268.7732,390.5548 323.7701,465.8342 " fill="none" id="Platform-Organization" style="stroke: #A80036; stroke-width: 1.0;"/><text fill="#000000" font-family="sans-serif" font-size="13" lengthAdjust="spacingAndGlyphs" textLength="92" x="157" y="234.0669">has registered</text><polygon fill="#000000" points="198.5,243.1328,201.5,249.1328,204.5,243.1328,198.5,243.1328" style="stroke: #000000; stroke-width: 1.0;"/><text fill="#000000" font-family="sans-serif" font-size="13" lengthAdjust="spacingAndGlyphs" textLength="8" x="80.9403" y="159.5059">1</text><text fill="#000000" font-family="sans-serif" font-size="13" lengthAdjust="spacingAndGlyphs" textLength="7" x="311.3108" y="454.9465">*</text><!--MD5=[3313b9194d9f022f4001b189f9265f96]
link Platform to ExternalPwdGeneratorAlgorithm--><path d="M126.1334,113 C202.5516,113 336.1059,113 432.6068,113 " fill="none" id="Platform-ExternalPwdGeneratorAlgorithm" style="stroke: #A80036; stroke-width: 1.0;"/><text fill="#000000" font-family="sans-serif" font-size="13" lengthAdjust="spacingAndGlyphs" textLength="55" x="175.5" y="109.0669">resort to</text><polygon fill="#000000" points="233.5,103.0664,239.5,106.0664,233.5,109.0664,233.5,103.0664" style="stroke: #000000; stroke-width: 1.0;"/><text fill="#000000" font-family="sans-serif" font-size="13" lengthAdjust="spacingAndGlyphs" textLength="8" x="133.9497" y="126.001">1</text><text fill="#000000" font-family="sans-serif" font-size="13" lengthAdjust="spacingAndGlyphs" textLength="8" x="416.9261" y="125.5516">1</text><!--MD5=[22697d4d863c2e08ab1d60ca0d61f844]
link Platform to Freelancer--><path d="M117.7667,86.4778 C173.216,60.5668 264.5308,25 348,25 C348,25 348,25 1724,25 C1907.9672,25 1986.5486,284.7617 2014.2454,413.8816 " fill="none" id="Platform-Freelancer" style="stroke: #A80036; stroke-width: 1.0;"/><text fill="#000000" font-family="sans-serif" font-size="13" lengthAdjust="spacingAndGlyphs" textLength="57" x="1016.5" y="21.0669">has/uses</text><polygon fill="#000000" points="1076.5,15.0664,1082.5,18.0664,1076.5,21.0664,1076.5,15.0664" style="stroke: #000000; stroke-width: 1.0;"/><text fill="#000000" font-family="sans-serif" font-size="13" lengthAdjust="spacingAndGlyphs" textLength="8" x="121.4098" y="75.2918">1</text><text fill="#000000" font-family="sans-serif" font-size="13" lengthAdjust="spacingAndGlyphs" textLength="7" x="2005.5691" y="402.8253">*</text><!--MD5=[45817597bcd7048073a670d966abfd17]
link Organization to Collaborator--><path d="M403.2025,499 C534.7112,499 865.3044,499 996.554,499 " fill="none" id="Organization-Collaborator" style="stroke: #A80036; stroke-width: 1.0;"/><text fill="#000000" font-family="sans-serif" font-size="13" lengthAdjust="spacingAndGlyphs" textLength="23" x="719.5" y="495.0669">has</text><polygon fill="#000000" points="745.5,489.0664,751.5,492.0664,745.5,495.0664,745.5,489.0664" style="stroke: #000000; stroke-width: 1.0;"/><text fill="#000000" font-family="sans-serif" font-size="13" lengthAdjust="spacingAndGlyphs" textLength="8" x="411.1578" y="512.1099">1</text><text fill="#000000" font-family="sans-serif" font-size="13" lengthAdjust="spacingAndGlyphs" textLength="8" x="981.0015" y="512.0614">1</text><!--MD5=[bc039f41cf0b27fadee5cae63fc6e1fe]
link Organization to Manager--><path d="M403.3922,475.677 C481.5224,442.78 622.4928,383.4241 693.7444,353.4234 " fill="none" id="Organization-Manager" style="stroke: #A80036; stroke-width: 1.0;"/><text fill="#000000" font-family="sans-serif" font-size="13" lengthAdjust="spacingAndGlyphs" textLength="23" x="530.5" y="363.0669">has</text><polygon fill="#000000" points="556.5,357.0664,562.5,360.0664,556.5,363.0664,556.5,357.0664" style="stroke: #000000; stroke-width: 1.0;"/><text fill="#000000" font-family="sans-serif" font-size="13" lengthAdjust="spacingAndGlyphs" textLength="8" x="411.0018" y="485.7501">1</text><text fill="#000000" font-family="sans-serif" font-size="13" lengthAdjust="spacingAndGlyphs" textLength="8" x="678.1334" y="369.6635">1</text><!--MD5=[4078351e3988aa35b1504a42837f2ab1]
link Organization to Task--><path d="M375.7349,532.025 C434.8437,598.4657 580.6857,742 737.5,742 C737.5,742 737.5,742 1424,742 C1516.0816,742 1544.5782,730.8485 1622,681 C1647.3553,664.6748 1670.2003,640.3552 1687.8108,618.2795 " fill="none" id="Organization-Task" style="stroke: #A80036; stroke-width: 1.0;"/><text fill="#000000" font-family="sans-serif" font-size="13" lengthAdjust="spacingAndGlyphs" textLength="23" x="1033.5" y="738.0669">has</text><polygon fill="#000000" points="1059.5,732.0664,1065.5,735.0664,1059.5,738.0664,1059.5,732.0664" style="stroke: #000000; stroke-width: 1.0;"/><text fill="#000000" font-family="sans-serif" font-size="13" lengthAdjust="spacingAndGlyphs" textLength="8" x="372.111" y="551.6119">1</text><text fill="#000000" font-family="sans-serif" font-size="13" lengthAdjust="spacingAndGlyphs" textLength="7" x="1675.7256" y="638.0126">*</text><!--MD5=[da2d560b3f89d8c66478284968d27dfa]
link Organization to PaymentTransaction--><path d="M403.0904,507.2335 C530.2374,525.2249 854.0433,565.2597 1125,550 C1204.042,545.5485 1227.0755,555.5691 1302,530 C1318.0596,524.5194 1334.2598,516.6735 1349.3755,508.1206 " fill="none" id="Organization-PaymentTransaction" style="stroke: #A80036; stroke-width: 1.0;"/><text fill="#000000" font-family="sans-serif" font-size="13" lengthAdjust="spacingAndGlyphs" textLength="23" x="861.5" y="544.0669">has</text><polygon fill="#000000" points="887.5,538.0664,893.5,541.0664,887.5,544.0664,887.5,538.0664" style="stroke: #000000; stroke-width: 1.0;"/><text fill="#000000" font-family="sans-serif" font-size="13" lengthAdjust="spacingAndGlyphs" textLength="8" x="411.0307" y="521.4498">1</text><text fill="#000000" font-family="sans-serif" font-size="13" lengthAdjust="spacingAndGlyphs" textLength="7" x="1331.8775" y="528.2064">*</text><!--MD5=[04ce0ecdab38a3951889ff50c232570f]
link Collaborator to User--><path d="M1090.5228,465.6642 C1109.584,449.8149 1133.086,430.9026 1155,415 C1217.9585,369.3121 1242.9314,370.6168 1302,320 C1339.1223,288.1893 1375.5897,245.2708 1398.8409,216.0021 " fill="none" id="Collaborator-User" style="stroke: #A80036; stroke-width: 1.0;"/><text fill="#000000" font-family="sans-serif" font-size="13" lengthAdjust="spacingAndGlyphs" textLength="52" x="1196" y="316.0669">acts like</text><polygon fill="#000000" points="1251,310.0664,1257,313.0664,1251,316.0664,1251,310.0664" style="stroke: #000000; stroke-width: 1.0;"/><text fill="#000000" font-family="sans-serif" font-size="13" lengthAdjust="spacingAndGlyphs" textLength="24" x="1071.674" y="454.9967">0..1</text><text fill="#000000" font-family="sans-serif" font-size="13" lengthAdjust="spacingAndGlyphs" textLength="8" x="1385.4647" y="235.5848">1</text><!--MD5=[d2c3650dbd07e79cdad2ffd4a879dec6]
link Collaborator to Freelancer--><path d="M1101.0773,532.1027 C1117.6217,541.8086 1136.553,551.5391 1155,558 C1425.858,652.8652 1520.9505,717.9222 1796,636 C1856.1536,618.0835 1915.2325,578.9632 1958.585,545.0313 " fill="none" id="Collaborator-Freelancer" style="stroke: #A80036; stroke-width: 1.0;"/><text fill="#000000" font-family="sans-serif" font-size="13" lengthAdjust="spacingAndGlyphs" textLength="41" x="1557" y="667.0669">create</text><polygon fill="#000000" points="1601,661.0664,1607,664.0664,1601,667.0664,1601,661.0664" style="stroke: #000000; stroke-width: 1.0;"/><text fill="#000000" font-family="sans-serif" font-size="13" lengthAdjust="spacingAndGlyphs" textLength="8" x="1101.4806" y="551.704">1</text><text fill="#000000" font-family="sans-serif" font-size="13" lengthAdjust="spacingAndGlyphs" textLength="7" x="1944.1688" y="564.0466">*</text><!--MD5=[f919d21ae7a75ef5ececc535e09d5009]
link Collaborator to Task--><path d="M1106.002,517.8055 C1121.6493,522.5241 1138.8505,527.0721 1155,530 C1331.5275,562.0047 1543.3148,566.7361 1651.9447,566.7705 " fill="none" id="Collaborator-Task" style="stroke: #A80036; stroke-width: 1.0;"/><text fill="#000000" font-family="sans-serif" font-size="13" lengthAdjust="spacingAndGlyphs" textLength="41" x="1397" y="549.0669">create</text><polygon fill="#000000" points="1441,543.0664,1447,546.0664,1441,549.0664,1441,543.0664" style="stroke: #000000; stroke-width: 1.0;"/><text fill="#000000" font-family="sans-serif" font-size="13" lengthAdjust="spacingAndGlyphs" textLength="8" x="1113.8632" y="533.4424">1</text><text fill="#000000" font-family="sans-serif" font-size="13" lengthAdjust="spacingAndGlyphs" textLength="7" x="1637.1531" y="579.6959">*</text><!--MD5=[c32d3c60a61e5638fef4971a1b3a8306]
link Collaborator to PaymentTransaction--><path d="M1106.2502,493.0559 C1157.0124,487.503 1234.6337,478.9061 1302,471 C1311.6435,469.8682 1321.713,468.6649 1331.7524,467.4513 " fill="none" id="Collaborator-PaymentTransaction" style="stroke: #A80036; stroke-width: 1.0;"/><text fill="#000000" font-family="sans-serif" font-size="13" lengthAdjust="spacingAndGlyphs" textLength="41" x="1201.5" y="467.0669">create</text><polygon fill="#000000" points="1245.5,461.0664,1251.5,464.0664,1245.5,467.0664,1245.5,461.0664" style="stroke: #000000; stroke-width: 1.0;"/><text fill="#000000" font-family="sans-serif" font-size="13" lengthAdjust="spacingAndGlyphs" textLength="8" x="1114.1448" y="505.367">1</text><text fill="#000000" font-family="sans-serif" font-size="13" lengthAdjust="spacingAndGlyphs" textLength="7" x="1317.1225" y="481.0327">*</text><!--MD5=[c32d3c60a61e5638fef4971a1b3a8306]
link Collaborator to PaymentTransaction--><path d="M1106.4361,510.5682 C1157.66,519.3641 1235.8791,527.6844 1302,513 C1311.9277,510.7952 1322.004,507.6939 1331.8919,504.0645 " fill="none" id="Collaborator-PaymentTransaction-1" style="stroke: #A80036; stroke-width: 1.0;"/><text fill="#000000" font-family="sans-serif" font-size="13" lengthAdjust="spacingAndGlyphs" textLength="72" x="1186" y="509.0669">loads file of</text><polygon fill="#000000" points="1261,503.0664,1267,506.0664,1261,509.0664,1261,503.0664" style="stroke: #000000; stroke-width: 1.0;"/><text fill="#000000" font-family="sans-serif" font-size="13" lengthAdjust="spacingAndGlyphs" textLength="8" x="1113.9873" y="520.8813">1</text><text fill="#000000" font-family="sans-serif" font-size="13" lengthAdjust="spacingAndGlyphs" textLength="7" x="1316.9744" y="520.7374">*</text><!--MD5=[c32d3c60a61e5638fef4971a1b3a8306]
link Collaborator to PaymentTransaction--><path d="M1106.0075,467.7065 C1121.3642,460.4308 1138.4157,453.7274 1155,450 C1212.7676,437.0163 1279.2747,438.3604 1331.7059,443.0272 " fill="none" id="Collaborator-PaymentTransaction-2" style="stroke: #A80036; stroke-width: 1.0;"/><text fill="#000000" font-family="sans-serif" font-size="13" lengthAdjust="spacingAndGlyphs" textLength="132" x="1156" y="436.0669">sees statistics about</text><polygon fill="#000000" points="1291,430.0664,1297,433.0664,1291,436.0664,1291,430.0664" style="stroke: #000000; stroke-width: 1.0;"/><text fill="#000000" font-family="sans-serif" font-size="13" lengthAdjust="spacingAndGlyphs" textLength="8" x="1113.8694" y="476.6113">1</text><text fill="#000000" font-family="sans-serif" font-size="13" lengthAdjust="spacingAndGlyphs" textLength="23" x="1301.0835" y="454.6962">1..*</text><!--MD5=[6eb6e197a729f6ec2412743e0bdbca1d]
link Manager to User--><path d="M775.2889,301.7235 C786.241,293.3614 798.6034,285.0548 811,279 C999.9868,186.6935 1257.2796,179.3469 1368.7506,181.0582 " fill="none" id="Manager-User" style="stroke: #A80036; stroke-width: 1.0;"/><text fill="#000000" font-family="sans-serif" font-size="13" lengthAdjust="spacingAndGlyphs" textLength="52" x="1019" y="191.0669">acts like</text><polygon fill="#000000" points="1074,185.0664,1080,188.0664,1074,191.0664,1074,185.0664" style="stroke: #000000; stroke-width: 1.0;"/><text fill="#000000" font-family="sans-serif" font-size="13" lengthAdjust="spacingAndGlyphs" textLength="24" x="756.3661" y="290.814">0..1</text><text fill="#000000" font-family="sans-serif" font-size="13" lengthAdjust="spacingAndGlyphs" textLength="8" x="1353.1593" y="193.8708">1</text><!--MD5=[992f4b4175a916b1c6d7449a56795069]
link Manager to PaymentDay--><path d="M781.1604,328.1868 C836.9381,319.4826 933.5833,304.401 994.9437,294.8257 " fill="none" id="Manager-PaymentDay" style="stroke: #A80036; stroke-width: 1.0;"/><text fill="#000000" font-family="sans-serif" font-size="13" lengthAdjust="spacingAndGlyphs" textLength="27" x="859.5" y="300.0669">sets</text><polygon fill="#000000" points="889.5,294.0664,895.5,297.0664,889.5,300.0664,889.5,294.0664" style="stroke: #000000; stroke-width: 1.0;"/><text fill="#000000" font-family="sans-serif" font-size="13" lengthAdjust="spacingAndGlyphs" textLength="8" x="789.0542" y="322.9264">1</text><text fill="#000000" font-family="sans-serif" font-size="13" lengthAdjust="spacingAndGlyphs" textLength="8" x="979.1849" y="309.0179">1</text><!--MD5=[07c33ebd6bf1a7067fcb1cdb0e1b530a]
link Manager to PaymentTransaction--><path d="M781.206,338.4433 C876.7172,346.5653 1110.8056,369.7298 1302,415 C1311.7846,417.3167 1321.8989,420.0859 1331.9248,423.0768 " fill="none" id="Manager-PaymentTransaction" style="stroke: #A80036; stroke-width: 1.0;"/><text fill="#000000" font-family="sans-serif" font-size="13" lengthAdjust="spacingAndGlyphs" textLength="132" x="979" y="356.0669">sees statistics about</text><polygon fill="#000000" points="1114,350.0664,1120,353.0664,1114,356.0664,1114,350.0664" style="stroke: #000000; stroke-width: 1.0;"/><text fill="#000000" font-family="sans-serif" font-size="13" lengthAdjust="spacingAndGlyphs" textLength="8" x="789.1073" y="352.366">1</text><text fill="#000000" font-family="sans-serif" font-size="13" lengthAdjust="spacingAndGlyphs" textLength="23" x="1300.9948" y="433.2014">1..*</text><!--MD5=[8853e9d83a8841c20c4ef075af762602]
link Task to Freelancer--><path d="M1796.1911,546.7014 C1845.5527,533.5057 1910.5576,516.1282 1958.9994,503.1784 " fill="none" id="Task-Freelancer" style="stroke: #A80036; stroke-width: 1.0;"/><text fill="#000000" font-family="sans-serif" font-size="13" lengthAdjust="spacingAndGlyphs" textLength="88" x="1827" y="508.0669">is assigned to</text><polygon fill="#000000" points="1918,502.0664,1924,505.0664,1918,508.0664,1918,502.0664" style="stroke: #000000; stroke-width: 1.0;"/><text fill="#000000" font-family="sans-serif" font-size="13" lengthAdjust="spacingAndGlyphs" textLength="23" x="1803.9064" y="557.6857">1..*</text><text fill="#000000" font-family="sans-serif" font-size="13" lengthAdjust="spacingAndGlyphs" textLength="8" x="1943.1243" y="518.0372">1</text><!--MD5=[f6802b286771c18a16ea4be983074371]
link PaymentTransaction to Freelancer--><path d="M1516.2391,460.436 C1638.144,466.2988 1850.1116,476.4929 1958.6584,481.7133 " fill="none" id="PaymentTransaction-Freelancer" style="stroke: #A80036; stroke-width: 1.0;"/><text fill="#000000" font-family="sans-serif" font-size="13" lengthAdjust="spacingAndGlyphs" textLength="61" x="1687" y="464.0669">relates to</text><polygon fill="#000000" points="1751,458.0664,1757,461.0664,1751,464.0664,1751,458.0664" style="stroke: #000000; stroke-width: 1.0;"/><text fill="#000000" font-family="sans-serif" font-size="13" lengthAdjust="spacingAndGlyphs" textLength="8" x="1523.9082" y="473.4584">1</text><text fill="#000000" font-family="sans-serif" font-size="13" lengthAdjust="spacingAndGlyphs" textLength="8" x="1943.1982" y="494.199">1</text><!--MD5=[271ce7fefd7250ebaca83b70495774bd]
link PaymentTransaction to Task--><path d="M1516.0487,489.7512 C1559.6251,505.7292 1610.9123,524.5345 1651.6495,539.4715 " fill="none" id="PaymentTransaction-Task" style="stroke: #A80036; stroke-width: 1.0;"/><text fill="#000000" font-family="sans-serif" font-size="13" lengthAdjust="spacingAndGlyphs" textLength="61" x="1547" y="498.0669">relates to</text><polygon fill="#000000" points="1611,492.0664,1617,495.0664,1611,498.0664,1611,492.0664" style="stroke: #000000; stroke-width: 1.0;"/><text fill="#000000" font-family="sans-serif" font-size="13" lengthAdjust="spacingAndGlyphs" textLength="8" x="1524.0027" y="505.2387">1</text><text fill="#000000" font-family="sans-serif" font-size="13" lengthAdjust="spacingAndGlyphs" textLength="8" x="1635.7759" y="549.5817">1</text><!--MD5=[4a1c7143ce927f33beebc726c4a57307]
link PaymentDay to PaymentTransaction--><path d="M1108.2202,274.7929 C1161.4029,267.2303 1241.5637,263.6031 1302,295 C1346.8141,318.2811 1379.8139,366.3124 1400.111,403.8836 " fill="none" id="PaymentDay-PaymentTransaction" style="stroke: #A80036; stroke-width: 1.0;"/><text fill="#000000" font-family="sans-serif" font-size="13" lengthAdjust="spacingAndGlyphs" textLength="76" x="1184" y="266.0669">is related to</text><polygon fill="#000000" points="1263,260.0664,1269,263.0664,1263,266.0664,1263,260.0664" style="stroke: #000000; stroke-width: 1.0;"/><text fill="#000000" font-family="sans-serif" font-size="13" lengthAdjust="spacingAndGlyphs" textLength="8" x="1116" y="286.4184">1</text><text fill="#000000" font-family="sans-serif" font-size="13" lengthAdjust="spacingAndGlyphs" textLength="23" x="1372.3556" y="392.9469">0..*</text><!--MD5=[ee83525721cfd00449d18a755fcc2712]
link ExternalPwdGeneratorAlgorithm to User--><path d="M664.1249,115.7613 C812.3749,120.3211 1077.161,131.904 1302,160 C1324.0289,162.7528 1348.0809,167.0136 1368.9619,171.1235 " fill="none" id="ExternalPwdGeneratorAlgorithm-User" style="stroke: #A80036; stroke-width: 1.0;"/><text fill="#000000" font-family="sans-serif" font-size="13" lengthAdjust="spacingAndGlyphs" textLength="122" x="812" y="118.0669">generate password</text><polygon fill="#000000" points="937,112.0664,943,115.0664,937,118.0664,937,112.0664" style="stroke: #000000; stroke-width: 1.0;"/><text fill="#000000" font-family="sans-serif" font-size="13" lengthAdjust="spacingAndGlyphs" textLength="8" x="672.1622" y="128.5221">1</text><text fill="#000000" font-family="sans-serif" font-size="13" lengthAdjust="spacingAndGlyphs" textLength="7" x="1354.0958" y="165.6218">*</text><!--MD5=[c5bf0760ca4071bf2e51f0ab41c8a742]
@startuml
skinparam classAttributeIconSize 0
hide methods
left to right direction

class Platform {
  -String designation
}

class Organization {
  -String name
  -String NIF
}

class Collaborator {
  -String name
  -String email
}

class Manager {
  -String name
  -String email
}

class Freelancer {
  -String id
  -String name
  -String expertiseLevel
  -String email
  -String NIF
  -String IBAN
  -String address
  -String country
}

class User {
  -String email
  -String password
}

class Task {
 -String id
 -String briefDescription
 -Integer timeDuration
 -Double costPerHour
 -String taskCategory
}

class PaymentTransaction{
  -String id
  -Date endDate
  -Integer delay
  -String workQualityDescription
  -Double payAmount
}

class PaymentDay {
  -Date timeOfDay
  -Date dayOfMonth
}

class ExternalPwdGeneratorAlgorithm {
}

Platform "1" - - "*" Organization : has registered >
Platform "1" - - "1" ExternalPwdGeneratorAlgorithm : resort to >
Platform "1" - - "*" Freelancer : has/uses >

Organization "1" - - "1" Collaborator: has >
Organization "1" - - "1" Manager: has >
Organization "1" - - "*" Task: has >
Organization "1" - - "*" PaymentTransaction: has >

Collaborator "0..1" - - "1" User: acts like >
Collaborator "1" - - "*" Freelancer: create >
Collaborator "1" - - "*" Task: create >
Collaborator "1" - - "*" PaymentTransaction: create >
Collaborator "1" - - "*" PaymentTransaction: loads file of >
Collaborator "1" - - "1..*" PaymentTransaction: sees statistics about >

Manager "0..1" - - "1" User: acts like >
Manager "1" - - "1" PaymentDay : sets >
Manager "1" - - "1..*" PaymentTransaction: sees statistics about >

Task "1..*" - - "1" Freelancer: is assigned to >

PaymentTransaction "1" - - "1" Freelancer: relates to >
PaymentTransaction "1" - - "1" Task: relates to >

PaymentDay "1" - - "0..*" PaymentTransaction : is related to >

ExternalPwdGeneratorAlgorithm "1" - - "*" User : generate password >
@enduml

PlantUML version 1.2019.12(Sun Nov 03 10:24:54 UTC 2019)
(GPL source distribution)
Java Runtime: OpenJDK Runtime Environment
JVM: OpenJDK 64-Bit Server VM
Java Version: 1.8.0_232-heroku-b09
Operating System: Linux
Default Encoding: UTF-8
Language: en
Country: US
--></g></svg>