<?xml version="1.0" encoding="UTF-8" standalone="no"?><svg xmlns="http://www.w3.org/2000/svg" xmlns:xlink="http://www.w3.org/1999/xlink" contentScriptType="application/ecmascript" contentStyleType="text/css" height="831px" preserveAspectRatio="none" style="width:2248px;height:831px;" version="1.1" viewBox="0 0 2248 831" width="2248px" zoomAndPan="magnify"><defs><filter height="300%" id="frcsbddmlaxxp" width="300%" x="-1" y="-1"><feGaussianBlur result="blurOut" stdDeviation="2.0"/><feColorMatrix in="blurOut" result="blurOut2" type="matrix" values="0 0 0 0 0 0 0 0 0 0 0 0 0 0 0 0 0 0 .4 0"/><feOffset dx="4.0" dy="4.0" in="blurOut2" result="blurOut3"/><feBlend in="SourceGraphic" in2="blurOut3" mode="normal"/></filter></defs><g><!--MD5=[99b8db98afdc2c8404e39242ef4c1e65]
class Platform--><rect fill="#FEFECE" filter="url(#frcsbddmlaxxp)" height="52.8047" id="Platform" style="stroke: #A80036; stroke-width: 1.5;" width="120" x="6" y="693.5"/><ellipse cx="37.2" cy="709.5" fill="#ADD1B2" rx="11" ry="11" style="stroke: #A80036; stroke-width: 1.0;"/><path d="M40.1688,715.1406 Q39.5906,715.4375 38.95,715.5859 Q38.3094,715.7344 37.6063,715.7344 Q35.1063,715.7344 33.7859,714.0859 Q32.4656,712.4375 32.4656,709.3125 Q32.4656,706.1875 33.7859,704.5313 Q35.1063,702.875 37.6063,702.875 Q38.3094,702.875 38.9578,703.0313 Q39.6063,703.1875 40.1688,703.4844 L40.1688,706.2031 Q39.5438,705.625 38.95,705.3516 Q38.3563,705.0781 37.7313,705.0781 Q36.3875,705.0781 35.7,706.1484 Q35.0125,707.2188 35.0125,709.3125 Q35.0125,711.4063 35.7,712.4766 Q36.3875,713.5469 37.7313,713.5469 Q38.3563,713.5469 38.95,713.2734 Q39.5438,713 40.1688,712.4219 L40.1688,715.1406 Z "/><text fill="#000000" font-family="sans-serif" font-size="12" lengthAdjust="spacingAndGlyphs" textLength="52" x="54.8" y="713.6543">Platform</text><line style="stroke: #A80036; stroke-width: 1.5;" x1="7" x2="125" y1="725.5" y2="725.5"/><text fill="#000000" font-family="sans-serif" font-size="11" lengthAdjust="spacingAndGlyphs" textLength="108" x="12" y="739.7104">-String designation</text><!--MD5=[86c7c362de55a38b660185a1328fe18d]
class Organization--><rect fill="#FEFECE" filter="url(#frcsbddmlaxxp)" height="65.6094" id="Organization" style="stroke: #A80036; stroke-width: 1.5;" width="110" x="293" y="529"/><ellipse cx="308" cy="545" fill="#ADD1B2" rx="11" ry="11" style="stroke: #A80036; stroke-width: 1.0;"/><path d="M310.9688,550.6406 Q310.3906,550.9375 309.75,551.0859 Q309.1094,551.2344 308.4063,551.2344 Q305.9063,551.2344 304.5859,549.5859 Q303.2656,547.9375 303.2656,544.8125 Q303.2656,541.6875 304.5859,540.0313 Q305.9063,538.375 308.4063,538.375 Q309.1094,538.375 309.7578,538.5313 Q310.4063,538.6875 310.9688,538.9844 L310.9688,541.7031 Q310.3438,541.125 309.75,540.8516 Q309.1563,540.5781 308.5313,540.5781 Q307.1875,540.5781 306.5,541.6484 Q305.8125,542.7188 305.8125,544.8125 Q305.8125,546.9063 306.5,547.9766 Q307.1875,549.0469 308.5313,549.0469 Q309.1563,549.0469 309.75,548.7734 Q310.3438,548.5 310.9688,547.9219 L310.9688,550.6406 Z "/><text fill="#000000" font-family="sans-serif" font-size="12" lengthAdjust="spacingAndGlyphs" textLength="78" x="322" y="549.1543">Organization</text><line style="stroke: #A80036; stroke-width: 1.5;" x1="294" x2="402" y1="561" y2="561"/><text fill="#000000" font-family="sans-serif" font-size="11" lengthAdjust="spacingAndGlyphs" textLength="74" x="299" y="575.2104">-String name</text><text fill="#000000" font-family="sans-serif" font-size="11" lengthAdjust="spacingAndGlyphs" textLength="59" x="299" y="588.0151">-String NIF</text><!--MD5=[f483d6e5de34a60207b28a5563be5e8b]
class Collaborator--><rect fill="#FEFECE" filter="url(#frcsbddmlaxxp)" height="65.6094" id="Collaborator" style="stroke: #A80036; stroke-width: 1.5;" width="109" x="902" y="177"/><ellipse cx="917" cy="193" fill="#ADD1B2" rx="11" ry="11" style="stroke: #A80036; stroke-width: 1.0;"/><path d="M919.9688,198.6406 Q919.3906,198.9375 918.75,199.0859 Q918.1094,199.2344 917.4063,199.2344 Q914.9063,199.2344 913.5859,197.5859 Q912.2656,195.9375 912.2656,192.8125 Q912.2656,189.6875 913.5859,188.0313 Q914.9063,186.375 917.4063,186.375 Q918.1094,186.375 918.7578,186.5313 Q919.4063,186.6875 919.9688,186.9844 L919.9688,189.7031 Q919.3438,189.125 918.75,188.8516 Q918.1563,188.5781 917.5313,188.5781 Q916.1875,188.5781 915.5,189.6484 Q914.8125,190.7188 914.8125,192.8125 Q914.8125,194.9063 915.5,195.9766 Q916.1875,197.0469 917.5313,197.0469 Q918.1563,197.0469 918.75,196.7734 Q919.3438,196.5 919.9688,195.9219 L919.9688,198.6406 Z "/><text fill="#000000" font-family="sans-serif" font-size="12" lengthAdjust="spacingAndGlyphs" textLength="77" x="931" y="197.1543">Collaborator</text><line style="stroke: #A80036; stroke-width: 1.5;" x1="903" x2="1010" y1="209" y2="209"/><text fill="#000000" font-family="sans-serif" font-size="11" lengthAdjust="spacingAndGlyphs" textLength="74" x="908" y="223.2104">-String name</text><text fill="#000000" font-family="sans-serif" font-size="11" lengthAdjust="spacingAndGlyphs" textLength="73" x="908" y="236.0151">-String email</text><!--MD5=[b24ed8d4ae84bae9290d9aab401637c7]
class Manager--><rect fill="#FEFECE" filter="url(#frcsbddmlaxxp)" height="65.6094" id="Manager" style="stroke: #A80036; stroke-width: 1.5;" width="87" x="694" y="415"/><ellipse cx="709" cy="431" fill="#ADD1B2" rx="11" ry="11" style="stroke: #A80036; stroke-width: 1.0;"/><path d="M711.9688,436.6406 Q711.3906,436.9375 710.75,437.0859 Q710.1094,437.2344 709.4063,437.2344 Q706.9063,437.2344 705.5859,435.5859 Q704.2656,433.9375 704.2656,430.8125 Q704.2656,427.6875 705.5859,426.0313 Q706.9063,424.375 709.4063,424.375 Q710.1094,424.375 710.7578,424.5313 Q711.4063,424.6875 711.9688,424.9844 L711.9688,427.7031 Q711.3438,427.125 710.75,426.8516 Q710.1563,426.5781 709.5313,426.5781 Q708.1875,426.5781 707.5,427.6484 Q706.8125,428.7188 706.8125,430.8125 Q706.8125,432.9063 707.5,433.9766 Q708.1875,435.0469 709.5313,435.0469 Q710.1563,435.0469 710.75,434.7734 Q711.3438,434.5 711.9688,433.9219 L711.9688,436.6406 Z "/><text fill="#000000" font-family="sans-serif" font-size="12" lengthAdjust="spacingAndGlyphs" textLength="55" x="723" y="435.1543">Manager</text><line style="stroke: #A80036; stroke-width: 1.5;" x1="695" x2="780" y1="447" y2="447"/><text fill="#000000" font-family="sans-serif" font-size="11" lengthAdjust="spacingAndGlyphs" textLength="74" x="700" y="461.2104">-String name</text><text fill="#000000" font-family="sans-serif" font-size="11" lengthAdjust="spacingAndGlyphs" textLength="73" x="700" y="474.0151">-String email</text><!--MD5=[1f687b5315377fe49fca59b457947463]
class Freelancer--><rect fill="#FEFECE" filter="url(#frcsbddmlaxxp)" height="142.4375" id="Freelancer" style="stroke: #A80036; stroke-width: 1.5;" width="136" x="1864" y="294"/><ellipse cx="1895.65" cy="310" fill="#ADD1B2" rx="11" ry="11" style="stroke: #A80036; stroke-width: 1.0;"/><path d="M1898.6188,315.6406 Q1898.0406,315.9375 1897.4,316.0859 Q1896.7594,316.2344 1896.0563,316.2344 Q1893.5563,316.2344 1892.2359,314.5859 Q1890.9156,312.9375 1890.9156,309.8125 Q1890.9156,306.6875 1892.2359,305.0313 Q1893.5563,303.375 1896.0563,303.375 Q1896.7594,303.375 1897.4078,303.5313 Q1898.0563,303.6875 1898.6188,303.9844 L1898.6188,306.7031 Q1897.9938,306.125 1897.4,305.8516 Q1896.8063,305.5781 1896.1813,305.5781 Q1894.8375,305.5781 1894.15,306.6484 Q1893.4625,307.7188 1893.4625,309.8125 Q1893.4625,311.9063 1894.15,312.9766 Q1894.8375,314.0469 1896.1813,314.0469 Q1896.8063,314.0469 1897.4,313.7734 Q1897.9938,313.5 1898.6188,312.9219 L1898.6188,315.6406 Z "/><text fill="#000000" font-family="sans-serif" font-size="12" lengthAdjust="spacingAndGlyphs" textLength="67" x="1913.35" y="314.1543">Freelancer</text><line style="stroke: #A80036; stroke-width: 1.5;" x1="1865" x2="1999" y1="326" y2="326"/><text fill="#000000" font-family="sans-serif" font-size="11" lengthAdjust="spacingAndGlyphs" textLength="52" x="1870" y="340.2104">-String id</text><text fill="#000000" font-family="sans-serif" font-size="11" lengthAdjust="spacingAndGlyphs" textLength="74" x="1870" y="353.0151">-String name</text><text fill="#000000" font-family="sans-serif" font-size="11" lengthAdjust="spacingAndGlyphs" textLength="124" x="1870" y="365.8198">-String expertiseLevel</text><text fill="#000000" font-family="sans-serif" font-size="11" lengthAdjust="spacingAndGlyphs" textLength="73" x="1870" y="378.6245">-String email</text><text fill="#000000" font-family="sans-serif" font-size="11" lengthAdjust="spacingAndGlyphs" textLength="59" x="1870" y="391.4292">-String NIF</text><text fill="#000000" font-family="sans-serif" font-size="11" lengthAdjust="spacingAndGlyphs" textLength="68" x="1870" y="404.2339">-String IBAN</text><text fill="#000000" font-family="sans-serif" font-size="11" lengthAdjust="spacingAndGlyphs" textLength="89" x="1870" y="417.0386">-String address</text><text fill="#000000" font-family="sans-serif" font-size="11" lengthAdjust="spacingAndGlyphs" textLength="84" x="1870" y="429.8433">-String country</text><!--MD5=[3fd616f346a44cd59a91eb10b19e157c]
class User--><rect fill="#FEFECE" filter="url(#frcsbddmlaxxp)" height="65.6094" id="User" style="stroke: #A80036; stroke-width: 1.5;" width="110" x="2127" y="394"/><ellipse cx="2164.05" cy="410" fill="#ADD1B2" rx="11" ry="11" style="stroke: #A80036; stroke-width: 1.0;"/><path d="M2167.0188,415.6406 Q2166.4406,415.9375 2165.8,416.0859 Q2165.1594,416.2344 2164.4563,416.2344 Q2161.9563,416.2344 2160.6359,414.5859 Q2159.3156,412.9375 2159.3156,409.8125 Q2159.3156,406.6875 2160.6359,405.0313 Q2161.9563,403.375 2164.4563,403.375 Q2165.1594,403.375 2165.8078,403.5313 Q2166.4563,403.6875 2167.0188,403.9844 L2167.0188,406.7031 Q2166.3938,406.125 2165.8,405.8516 Q2165.2063,405.5781 2164.5813,405.5781 Q2163.2375,405.5781 2162.55,406.6484 Q2161.8625,407.7188 2161.8625,409.8125 Q2161.8625,411.9063 2162.55,412.9766 Q2163.2375,414.0469 2164.5813,414.0469 Q2165.2063,414.0469 2165.8,413.7734 Q2166.3938,413.5 2167.0188,412.9219 L2167.0188,415.6406 Z "/><text fill="#000000" font-family="sans-serif" font-size="12" lengthAdjust="spacingAndGlyphs" textLength="29" x="2182.95" y="414.1543">User</text><line style="stroke: #A80036; stroke-width: 1.5;" x1="2128" x2="2236" y1="426" y2="426"/><text fill="#000000" font-family="sans-serif" font-size="11" lengthAdjust="spacingAndGlyphs" textLength="73" x="2133" y="440.2104">-String email</text><text fill="#000000" font-family="sans-serif" font-size="11" lengthAdjust="spacingAndGlyphs" textLength="98" x="2133" y="453.0151">-String password</text><!--MD5=[b34797a66dc35cbf1d65f7e3ca75530e]
class Task--><rect fill="#FEFECE" filter="url(#frcsbddmlaxxp)" height="104.0234" id="Task" style="stroke: #A80036; stroke-width: 1.5;" width="144" x="1557" y="313"/><ellipse cx="1610.25" cy="329" fill="#ADD1B2" rx="11" ry="11" style="stroke: #A80036; stroke-width: 1.0;"/><path d="M1613.2188,334.6406 Q1612.6406,334.9375 1612,335.0859 Q1611.3594,335.2344 1610.6563,335.2344 Q1608.1563,335.2344 1606.8359,333.5859 Q1605.5156,331.9375 1605.5156,328.8125 Q1605.5156,325.6875 1606.8359,324.0313 Q1608.1563,322.375 1610.6563,322.375 Q1611.3594,322.375 1612.0078,322.5313 Q1612.6563,322.6875 1613.2188,322.9844 L1613.2188,325.7031 Q1612.5938,325.125 1612,324.8516 Q1611.4063,324.5781 1610.7813,324.5781 Q1609.4375,324.5781 1608.75,325.6484 Q1608.0625,326.7188 1608.0625,328.8125 Q1608.0625,330.9063 1608.75,331.9766 Q1609.4375,333.0469 1610.7813,333.0469 Q1611.4063,333.0469 1612,332.7734 Q1612.5938,332.5 1613.2188,331.9219 L1613.2188,334.6406 Z "/><text fill="#000000" font-family="sans-serif" font-size="12" lengthAdjust="spacingAndGlyphs" textLength="29" x="1630.75" y="333.1543">Task</text><line style="stroke: #A80036; stroke-width: 1.5;" x1="1558" x2="1700" y1="345" y2="345"/><text fill="#000000" font-family="sans-serif" font-size="11" lengthAdjust="spacingAndGlyphs" textLength="52" x="1563" y="359.2104">-String id</text><text fill="#000000" font-family="sans-serif" font-size="11" lengthAdjust="spacingAndGlyphs" textLength="132" x="1563" y="372.0151">-String briefDescription</text><text fill="#000000" font-family="sans-serif" font-size="11" lengthAdjust="spacingAndGlyphs" textLength="121" x="1563" y="384.8198">-Integer timeDuration</text><text fill="#000000" font-family="sans-serif" font-size="11" lengthAdjust="spacingAndGlyphs" textLength="117" x="1563" y="397.6245">-Double costPerHour</text><text fill="#000000" font-family="sans-serif" font-size="11" lengthAdjust="spacingAndGlyphs" textLength="117" x="1563" y="410.4292">-String taskCategory</text><!--MD5=[b645a18afb25b7e5623af7186d8eb36f]
class PaymentTransaction--><rect fill="#FEFECE" filter="url(#frcsbddmlaxxp)" height="91.2188" id="PaymentTransaction" style="stroke: #A80036; stroke-width: 1.5;" width="184" x="1237" y="197.5"/><ellipse cx="1262.8" cy="213.5" fill="#ADD1B2" rx="11" ry="11" style="stroke: #A80036; stroke-width: 1.0;"/><path d="M1265.7688,219.1406 Q1265.1906,219.4375 1264.55,219.5859 Q1263.9094,219.7344 1263.2063,219.7344 Q1260.7063,219.7344 1259.3859,218.0859 Q1258.0656,216.4375 1258.0656,213.3125 Q1258.0656,210.1875 1259.3859,208.5313 Q1260.7063,206.875 1263.2063,206.875 Q1263.9094,206.875 1264.5578,207.0313 Q1265.2063,207.1875 1265.7688,207.4844 L1265.7688,210.2031 Q1265.1438,209.625 1264.55,209.3516 Q1263.9563,209.0781 1263.3313,209.0781 Q1261.9875,209.0781 1261.3,210.1484 Q1260.6125,211.2188 1260.6125,213.3125 Q1260.6125,215.4063 1261.3,216.4766 Q1261.9875,217.5469 1263.3313,217.5469 Q1263.9563,217.5469 1264.55,217.2734 Q1265.1438,217 1265.7688,216.4219 L1265.7688,219.1406 Z "/><text fill="#000000" font-family="sans-serif" font-size="12" lengthAdjust="spacingAndGlyphs" textLength="128" x="1279.2" y="217.6543">PaymentTransaction</text><line style="stroke: #A80036; stroke-width: 1.5;" x1="1238" x2="1420" y1="229.5" y2="229.5"/><text fill="#000000" font-family="sans-serif" font-size="11" lengthAdjust="spacingAndGlyphs" textLength="52" x="1243" y="243.7104">-String id</text><text fill="#000000" font-family="sans-serif" font-size="11" lengthAdjust="spacingAndGlyphs" textLength="81" x="1243" y="256.5151">-Date endDate</text><text fill="#000000" font-family="sans-serif" font-size="11" lengthAdjust="spacingAndGlyphs" textLength="78" x="1243" y="269.3198">-Integer delay</text><text fill="#000000" font-family="sans-serif" font-size="11" lengthAdjust="spacingAndGlyphs" textLength="172" x="1243" y="282.1245">-String workQualityDescription</text><!--MD5=[0d00cfda1000b92a6c505ab1f4092a67]
class PaymentDay--><rect fill="#FEFECE" filter="url(#frcsbddmlaxxp)" height="65.6094" id="PaymentDay" style="stroke: #A80036; stroke-width: 1.5;" width="113" x="900" y="373"/><ellipse cx="916.8" cy="389" fill="#ADD1B2" rx="11" ry="11" style="stroke: #A80036; stroke-width: 1.0;"/><path d="M919.7688,394.6406 Q919.1906,394.9375 918.55,395.0859 Q917.9094,395.2344 917.2063,395.2344 Q914.7063,395.2344 913.3859,393.5859 Q912.0656,391.9375 912.0656,388.8125 Q912.0656,385.6875 913.3859,384.0313 Q914.7063,382.375 917.2063,382.375 Q917.9094,382.375 918.5578,382.5313 Q919.2063,382.6875 919.7688,382.9844 L919.7688,385.7031 Q919.1438,385.125 918.55,384.8516 Q917.9563,384.5781 917.3313,384.5781 Q915.9875,384.5781 915.3,385.6484 Q914.6125,386.7188 914.6125,388.8125 Q914.6125,390.9063 915.3,391.9766 Q915.9875,393.0469 917.3313,393.0469 Q917.9563,393.0469 918.55,392.7734 Q919.1438,392.5 919.7688,391.9219 L919.7688,394.6406 Z "/><text fill="#000000" font-family="sans-serif" font-size="12" lengthAdjust="spacingAndGlyphs" textLength="77" x="931.2" y="393.1543">PaymentDay</text><line style="stroke: #A80036; stroke-width: 1.5;" x1="901" x2="1012" y1="405" y2="405"/><text fill="#000000" font-family="sans-serif" font-size="11" lengthAdjust="spacingAndGlyphs" textLength="93" x="906" y="419.2104">-Date timeOfDay</text><text fill="#000000" font-family="sans-serif" font-size="11" lengthAdjust="spacingAndGlyphs" textLength="101" x="906" y="432.0151">-Date dayOfMonth</text><!--MD5=[38d767b50186fba503091f69c245e88c]
class ExternalPwdGeneratorAlgorithm--><rect fill="#FEFECE" filter="url(#frcsbddmlaxxp)" height="40" id="ExternalPwdGeneratorAlgorithm" style="stroke: #A80036; stroke-width: 1.5;" width="231" x="433" y="780"/><ellipse cx="448" cy="796" fill="#ADD1B2" rx="11" ry="11" style="stroke: #A80036; stroke-width: 1.0;"/><path d="M450.9688,801.6406 Q450.3906,801.9375 449.75,802.0859 Q449.1094,802.2344 448.4063,802.2344 Q445.9063,802.2344 444.5859,800.5859 Q443.2656,798.9375 443.2656,795.8125 Q443.2656,792.6875 444.5859,791.0313 Q445.9063,789.375 448.4063,789.375 Q449.1094,789.375 449.7578,789.5313 Q450.4063,789.6875 450.9688,789.9844 L450.9688,792.7031 Q450.3438,792.125 449.75,791.8516 Q449.1563,791.5781 448.5313,791.5781 Q447.1875,791.5781 446.5,792.6484 Q445.8125,793.7188 445.8125,795.8125 Q445.8125,797.9063 446.5,798.9766 Q447.1875,800.0469 448.5313,800.0469 Q449.1563,800.0469 449.75,799.7734 Q450.3438,799.5 450.9688,798.9219 L450.9688,801.6406 Z "/><text fill="#000000" font-family="sans-serif" font-size="12" lengthAdjust="spacingAndGlyphs" textLength="199" x="462" y="800.1543">ExternalPwdGeneratorAlgorithm</text><line style="stroke: #A80036; stroke-width: 1.5;" x1="434" x2="663" y1="812" y2="812"/><!--MD5=[7640e466c042ba2d6f9c19c816f7f0fc]
link Platform to Organization--><path d="M113.5186,693.3761 C162.9636,665.6729 240.3224,622.33 292.5324,593.0776 " fill="none" id="Platform-Organization" style="stroke: #A80036; stroke-width: 1.0;"/><text fill="#000000" font-family="sans-serif" font-size="13" lengthAdjust="spacingAndGlyphs" textLength="92" x="157" y="610.0669">has registered</text><polygon fill="#000000" points="252,604.0664,258,607.0664,252,610.0664,252,604.0664" style="stroke: #000000; stroke-width: 1.0;"/><text fill="#000000" font-family="sans-serif" font-size="13" lengthAdjust="spacingAndGlyphs" textLength="8" x="115.5823" y="682.5898">1</text><text fill="#000000" font-family="sans-serif" font-size="13" lengthAdjust="spacingAndGlyphs" textLength="7" x="277.9772" y="610.1208">*</text><!--MD5=[3313b9194d9f022f4001b189f9265f96]
link Platform to ExternalPwdGeneratorAlgorithm--><path d="M113.8334,746.674 C127.1256,753.0173 141.8134,759.076 156,763 C246.8702,788.1345 353.5915,796.9328 432.7952,799.6981 " fill="none" id="Platform-ExternalPwdGeneratorAlgorithm" style="stroke: #A80036; stroke-width: 1.0;"/><text fill="#000000" font-family="sans-serif" font-size="13" lengthAdjust="spacingAndGlyphs" textLength="55" x="175.5" y="759.0669">resort to</text><polygon fill="#000000" points="233.5,753.0664,239.5,756.0664,233.5,759.0664,233.5,753.0664" style="stroke: #000000; stroke-width: 1.0;"/><text fill="#000000" font-family="sans-serif" font-size="13" lengthAdjust="spacingAndGlyphs" textLength="8" x="115.422" y="766.2523">1</text><text fill="#000000" font-family="sans-serif" font-size="13" lengthAdjust="spacingAndGlyphs" textLength="8" x="417.1266" y="812.2304">1</text><!--MD5=[22697d4d863c2e08ab1d60ca0d61f844]
link Platform to Freelancer--><path d="M126.2363,720 C183.3326,720 271.5026,720 348,720 C348,720 348,720 1629,720 C1776.6753,720 1867.6533,540.0783 1907.8162,436.4125 " fill="none" id="Platform-Freelancer" style="stroke: #A80036; stroke-width: 1.0;"/><text fill="#000000" font-family="sans-serif" font-size="13" lengthAdjust="spacingAndGlyphs" textLength="57" x="921.5" y="716.0669">has/uses</text><polygon fill="#000000" points="981.5,710.0664,987.5,713.0664,981.5,716.0664,981.5,710.0664" style="stroke: #000000; stroke-width: 1.0;"/><text fill="#000000" font-family="sans-serif" font-size="13" lengthAdjust="spacingAndGlyphs" textLength="8" x="134.0651" y="733.001">1</text><text fill="#000000" font-family="sans-serif" font-size="13" lengthAdjust="spacingAndGlyphs" textLength="7" x="1897.9613" y="456.6015">*</text><!--MD5=[45817597bcd7048073a670d966abfd17]
link Organization to Collaborator--><path d="M365.6806,528.8236 C380.7407,503.1559 404.4509,468.1917 433,445 C581.0762,324.7108 800.5536,252.8856 901.7497,224.3284 " fill="none" id="Organization-Collaborator" style="stroke: #A80036; stroke-width: 1.0;"/><text fill="#000000" font-family="sans-serif" font-size="13" lengthAdjust="spacingAndGlyphs" textLength="23" x="719.5" y="261.0669">has</text><polygon fill="#000000" points="745.5,255.0664,751.5,258.0664,745.5,261.0664,745.5,255.0664" style="stroke: #000000; stroke-width: 1.0;"/><text fill="#000000" font-family="sans-serif" font-size="13" lengthAdjust="spacingAndGlyphs" textLength="8" x="360.374" y="517.9339">1</text><text fill="#000000" font-family="sans-serif" font-size="13" lengthAdjust="spacingAndGlyphs" textLength="8" x="885.8551" y="239.3637">1</text><!--MD5=[bc039f41cf0b27fadee5cae63fc6e1fe]
link Organization to Manager--><path d="M403.2874,544.9527 C413.1736,541.9432 423.3855,538.8595 433,536 C525.6985,508.4295 634.6328,477.2389 693.8203,460.3932 " fill="none" id="Organization-Manager" style="stroke: #A80036; stroke-width: 1.0;"/><text fill="#000000" font-family="sans-serif" font-size="13" lengthAdjust="spacingAndGlyphs" textLength="23" x="530.5" y="466.0669">has</text><polygon fill="#000000" points="556.5,460.0664,562.5,463.0664,556.5,466.0664,556.5,460.0664" style="stroke: #000000; stroke-width: 1.0;"/><text fill="#000000" font-family="sans-serif" font-size="13" lengthAdjust="spacingAndGlyphs" textLength="8" x="410.8836" y="555.8299">1</text><text fill="#000000" font-family="sans-serif" font-size="13" lengthAdjust="spacingAndGlyphs" textLength="8" x="677.9233" y="475.7983">1</text><!--MD5=[4078351e3988aa35b1504a42837f2ab1]
link Organization to Task--><path d="M398.0589,595.0076 C409.1635,600.9591 421.1619,606.4063 433,610 C562.8668,649.4234 601.7812,633 737.5,633 C737.5,633 737.5,633 1329,633 C1424.7662,633 1455.8874,612.1417 1527,548 C1566.5683,512.3105 1594.2532,457.5384 1610.6975,417.2123 " fill="none" id="Organization-Task" style="stroke: #A80036; stroke-width: 1.0;"/><text fill="#000000" font-family="sans-serif" font-size="13" lengthAdjust="spacingAndGlyphs" textLength="23" x="938.5" y="629.0669">has</text><polygon fill="#000000" points="964.5,623.0664,970.5,626.0664,964.5,629.0664,964.5,623.0664" style="stroke: #000000; stroke-width: 1.0;"/><text fill="#000000" font-family="sans-serif" font-size="13" lengthAdjust="spacingAndGlyphs" textLength="8" x="398.551" y="614.5913">1</text><text fill="#000000" font-family="sans-serif" font-size="13" lengthAdjust="spacingAndGlyphs" textLength="7" x="1600.9041" y="436.9368">*</text><!--MD5=[da2d560b3f89d8c66478284968d27dfa]
link Organization to PaymentTransaction--><path d="M403.1954,573.7775 C554.7768,602.5858 981.1659,659.2908 1207,442 C1251.6037,399.0836 1202.3708,357.3043 1237,306 C1241.2238,299.7424 1246.2958,293.9292 1251.8596,288.5703 " fill="none" id="Organization-PaymentTransaction" style="stroke: #A80036; stroke-width: 1.0;"/><text fill="#000000" font-family="sans-serif" font-size="13" lengthAdjust="spacingAndGlyphs" textLength="23" x="814" y="590.0669">has</text><polygon fill="#000000" points="840,584.0664,846,587.0664,840,590.0664,840,584.0664" style="stroke: #000000; stroke-width: 1.0;"/><text fill="#000000" font-family="sans-serif" font-size="13" lengthAdjust="spacingAndGlyphs" textLength="8" x="411.1498" y="588.47">1</text><text fill="#000000" font-family="sans-serif" font-size="13" lengthAdjust="spacingAndGlyphs" textLength="7" x="1232.5115" y="308.757">*</text><!--MD5=[04ce0ecdab38a3951889ff50c232570f]
link Collaborator to User--><path d="M993.6677,176.9257 C1057.4521,123.7132 1193.9736,25 1329,25 C1329,25 1329,25 1932,25 C2105.2088,25 2162.6639,297.4465 2177.5636,393.7606 " fill="none" id="Collaborator-User" style="stroke: #A80036; stroke-width: 1.0;"/><text fill="#000000" font-family="sans-serif" font-size="13" lengthAdjust="spacingAndGlyphs" textLength="52" x="1596.5" y="21.0669">acts like</text><polygon fill="#000000" points="1651.5,15.0664,1657.5,18.0664,1651.5,21.0664,1651.5,15.0664" style="stroke: #000000; stroke-width: 1.0;"/><text fill="#000000" font-family="sans-serif" font-size="13" lengthAdjust="spacingAndGlyphs" textLength="24" x="974.6226" y="166.0561">0..1</text><text fill="#000000" font-family="sans-serif" font-size="13" lengthAdjust="spacingAndGlyphs" textLength="8" x="2167.9027" y="382.8585">1</text><!--MD5=[d2c3650dbd07e79cdad2ffd4a879dec6]
link Collaborator to Freelancer--><path d="M1011.0075,178.7065 C1026.3642,171.4308 1043.4157,164.7274 1060,161 C1123.7432,146.6733 1141.7307,158.1082 1207,161 C1429.7159,170.8675 1486.471,187.3614 1701,248 C1760.7815,264.8978 1778.8888,262.3274 1834,291 C1844.0239,296.2151 1854.0977,302.4426 1863.7712,309.0398 " fill="none" id="Collaborator-Freelancer" style="stroke: #A80036; stroke-width: 1.0;"/><text fill="#000000" font-family="sans-serif" font-size="13" lengthAdjust="spacingAndGlyphs" textLength="41" x="1462" y="181.0669">create</text><polygon fill="#000000" points="1506,175.0664,1512,178.0664,1506,181.0664,1506,175.0664" style="stroke: #000000; stroke-width: 1.0;"/><text fill="#000000" font-family="sans-serif" font-size="13" lengthAdjust="spacingAndGlyphs" textLength="8" x="1018.8694" y="187.6113">1</text><text fill="#000000" font-family="sans-serif" font-size="13" lengthAdjust="spacingAndGlyphs" textLength="7" x="1848.9259" y="315.7897">*</text><!--MD5=[f919d21ae7a75ef5ececc535e09d5009]
link Collaborator to Task--><path d="M1003.6517,243.0745 C1020.8133,254.0412 1040.7375,265.5835 1060,274 C1227.3001,347.1001 1445.2401,362.2229 1556.5944,364.8808 " fill="none" id="Collaborator-Task" style="stroke: #A80036; stroke-width: 1.0;"/><text fill="#000000" font-family="sans-serif" font-size="13" lengthAdjust="spacingAndGlyphs" textLength="41" x="1302" y="327.0669">create</text><polygon fill="#000000" points="1346,321.0664,1352,324.0664,1346,327.0664,1346,321.0664" style="stroke: #000000; stroke-width: 1.0;"/><text fill="#000000" font-family="sans-serif" font-size="13" lengthAdjust="spacingAndGlyphs" textLength="8" x="1003.6078" y="262.6706">1</text><text fill="#000000" font-family="sans-serif" font-size="13" lengthAdjust="spacingAndGlyphs" textLength="7" x="1541.7666" y="377.7145">*</text><!--MD5=[c32d3c60a61e5638fef4971a1b3a8306]
link Collaborator to PaymentTransaction--><path d="M1011.2718,197.6901 C1062.3809,188.1709 1140.5237,178.6645 1207,192 C1216.9037,193.9867 1227.0069,196.7971 1236.9487,200.0893 " fill="none" id="Collaborator-PaymentTransaction" style="stroke: #A80036; stroke-width: 1.0;"/><text fill="#000000" font-family="sans-serif" font-size="13" lengthAdjust="spacingAndGlyphs" textLength="41" x="1106.5" y="182.0669">create</text><polygon fill="#000000" points="1150.5,176.0664,1156.5,179.0664,1150.5,182.0664,1150.5,176.0664" style="stroke: #000000; stroke-width: 1.0;"/><text fill="#000000" font-family="sans-serif" font-size="13" lengthAdjust="spacingAndGlyphs" textLength="8" x="1019.1693" y="209.1458">1</text><text fill="#000000" font-family="sans-serif" font-size="13" lengthAdjust="spacingAndGlyphs" textLength="7" x="1222.0359" y="209.2202">*</text><!--MD5=[c32d3c60a61e5638fef4971a1b3a8306]
link Collaborator to PaymentTransaction--><path d="M1011.0636,214.8338 C1070.2734,220.0793 1165.836,228.5452 1236.7541,234.8279 " fill="none" id="Collaborator-PaymentTransaction-1" style="stroke: #A80036; stroke-width: 1.0;"/><text fill="#000000" font-family="sans-serif" font-size="13" lengthAdjust="spacingAndGlyphs" textLength="72" x="1091" y="216.0669">loads file of</text><polygon fill="#000000" points="1166,210.0664,1172,213.0664,1166,216.0664,1166,210.0664" style="stroke: #000000; stroke-width: 1.0;"/><text fill="#000000" font-family="sans-serif" font-size="13" lengthAdjust="spacingAndGlyphs" textLength="8" x="1018.9331" y="228.5932">1</text><text fill="#000000" font-family="sans-serif" font-size="13" lengthAdjust="spacingAndGlyphs" textLength="7" x="1222.1243" y="246.8378">*</text><!--MD5=[c32d3c60a61e5638fef4971a1b3a8306]
link Collaborator to PaymentTransaction--><path d="M1011.1312,240.0246 C1026.488,247.0033 1043.5086,253.431 1060,257 C1117.9329,269.5378 1184.4416,266.2282 1236.8323,259.6904 " fill="none" id="Collaborator-PaymentTransaction-2" style="stroke: #A80036; stroke-width: 1.0;"/><text fill="#000000" font-family="sans-serif" font-size="13" lengthAdjust="spacingAndGlyphs" textLength="132" x="1061" y="253.0669">sees statistics about</text><polygon fill="#000000" points="1196,247.0664,1202,250.0664,1196,253.0664,1196,247.0664" style="stroke: #000000; stroke-width: 1.0;"/><text fill="#000000" font-family="sans-serif" font-size="13" lengthAdjust="spacingAndGlyphs" textLength="8" x="1019.0098" y="257.169">1</text><text fill="#000000" font-family="sans-serif" font-size="13" lengthAdjust="spacingAndGlyphs" textLength="23" x="1205.8952" y="273.6061">1..*</text><!--MD5=[6eb6e197a729f6ec2412743e0bdbca1d]
link Manager to User--><path d="M781.1419,455.1038 C878.9308,470.3837 1123.1825,505 1329,505 C1329,505 1329,505 1932,505 C2001.5633,505 2077.275,477.1389 2126.9383,454.7195 " fill="none" id="Manager-User" style="stroke: #A80036; stroke-width: 1.0;"/><text fill="#000000" font-family="sans-serif" font-size="13" lengthAdjust="spacingAndGlyphs" textLength="52" x="1456.5" y="501.0669">acts like</text><polygon fill="#000000" points="1511.5,495.0664,1517.5,498.0664,1511.5,501.0664,1511.5,495.0664" style="stroke: #000000; stroke-width: 1.0;"/><text fill="#000000" font-family="sans-serif" font-size="13" lengthAdjust="spacingAndGlyphs" textLength="24" x="788.9665" y="469.2612">0..1</text><text fill="#000000" font-family="sans-serif" font-size="13" lengthAdjust="spacingAndGlyphs" textLength="8" x="2111.0019" y="471.5542">1</text><!--MD5=[992f4b4175a916b1c6d7449a56795069]
link Manager to PaymentDay--><path d="M781.0292,439.6519 C815.0833,433.121 862.7092,423.9873 899.7521,416.8832 " fill="none" id="Manager-PaymentDay" style="stroke: #A80036; stroke-width: 1.0;"/><text fill="#000000" font-family="sans-serif" font-size="13" lengthAdjust="spacingAndGlyphs" textLength="27" x="812" y="423.0669">sets</text><polygon fill="#000000" points="842,417.0664,848,420.0664,842,423.0664,842,417.0664" style="stroke: #000000; stroke-width: 1.0;"/><text fill="#000000" font-family="sans-serif" font-size="13" lengthAdjust="spacingAndGlyphs" textLength="8" x="788.9012" y="451.6217">1</text><text fill="#000000" font-family="sans-serif" font-size="13" lengthAdjust="spacingAndGlyphs" textLength="8" x="883.9688" y="431.339">1</text><!--MD5=[07c33ebd6bf1a7067fcb1cdb0e1b530a]
link Manager to PaymentTransaction--><path d="M780.9448,414.9262 C808.8245,395.0801 846.5196,370.7192 883,355 C1019.3154,296.2624 1063.0696,310.2774 1207,274 C1216.6419,271.5698 1226.7102,269.0242 1236.749,266.4809 " fill="none" id="Manager-PaymentTransaction" style="stroke: #A80036; stroke-width: 1.0;"/><text fill="#000000" font-family="sans-serif" font-size="13" lengthAdjust="spacingAndGlyphs" textLength="132" x="884" y="305.0669">sees statistics about</text><polygon fill="#000000" points="1019,299.0664,1025,302.0664,1019,305.0664,1019,299.0664" style="stroke: #000000; stroke-width: 1.0;"/><text fill="#000000" font-family="sans-serif" font-size="13" lengthAdjust="spacingAndGlyphs" textLength="8" x="789.0994" y="422.6426">1</text><text fill="#000000" font-family="sans-serif" font-size="13" lengthAdjust="spacingAndGlyphs" textLength="23" x="1206.1298" y="264.7182">1..*</text><!--MD5=[65ab54bb4516ebbc699d18e0b28e9aea]
link Freelancer to User--><path d="M2000.3136,381.9418 C2040.0706,391.8015 2089.534,404.0684 2126.8076,413.3123 " fill="none" id="Freelancer-User" style="stroke: #A80036; stroke-width: 1.0;"/><text fill="#000000" font-family="sans-serif" font-size="13" lengthAdjust="spacingAndGlyphs" textLength="52" x="2031" y="387.0669">acts like</text><polygon fill="#000000" points="2086,381.0664,2092,384.0664,2086,387.0664,2086,381.0664" style="stroke: #000000; stroke-width: 1.0;"/><text fill="#000000" font-family="sans-serif" font-size="13" lengthAdjust="spacingAndGlyphs" textLength="24" x="2007.9685" y="396.3238">0..1</text><text fill="#000000" font-family="sans-serif" font-size="13" lengthAdjust="spacingAndGlyphs" textLength="8" x="2110.8536" y="424.5829">1</text><!--MD5=[8853e9d83a8841c20c4ef075af762602]
link Task to Freelancer--><path d="M1701.1911,365 C1750.5527,365 1815.5576,365 1863.9994,365 " fill="none" id="Task-Freelancer" style="stroke: #A80036; stroke-width: 1.0;"/><text fill="#000000" font-family="sans-serif" font-size="13" lengthAdjust="spacingAndGlyphs" textLength="88" x="1732" y="361.0669">is assigned to</text><polygon fill="#000000" points="1823,355.0664,1829,358.0664,1823,361.0664,1823,355.0664" style="stroke: #000000; stroke-width: 1.0;"/><text fill="#000000" font-family="sans-serif" font-size="13" lengthAdjust="spacingAndGlyphs" textLength="23" x="1708.9064" y="377.7633">1..*</text><text fill="#000000" font-family="sans-serif" font-size="13" lengthAdjust="spacingAndGlyphs" textLength="8" x="1848.1243" y="377.8705">1</text><!--MD5=[f6802b286771c18a16ea4be983074371]
link PaymentTransaction to Freelancer--><path d="M1421.2201,254.7643 C1454.5663,259.1094 1492.4948,264.1569 1527,269 C1604.4329,279.8683 1624.7146,277.8385 1701,295 C1756.6013,307.5083 1818.3205,326.4824 1863.9653,341.5222 " fill="none" id="PaymentTransaction-Freelancer" style="stroke: #A80036; stroke-width: 1.0;"/><text fill="#000000" font-family="sans-serif" font-size="13" lengthAdjust="spacingAndGlyphs" textLength="61" x="1592" y="269.0669">relates to</text><polygon fill="#000000" points="1656,263.0664,1662,266.0664,1656,269.0664,1656,263.0664" style="stroke: #000000; stroke-width: 1.0;"/><text fill="#000000" font-family="sans-serif" font-size="13" lengthAdjust="spacingAndGlyphs" textLength="8" x="1428.8876" y="268.3629">1</text><text fill="#000000" font-family="sans-serif" font-size="13" lengthAdjust="spacingAndGlyphs" textLength="8" x="1848.0865" y="351.8249">1</text><!--MD5=[271ce7fefd7250ebaca83b70495774bd]
link PaymentTransaction to Task--><path d="M1421.3232,279.4077 C1454.6794,292.6747 1492.5879,307.883 1527,322 C1536.6899,325.9751 1546.8769,330.2066 1556.9102,334.4051 " fill="none" id="PaymentTransaction-Task" style="stroke: #A80036; stroke-width: 1.0;"/><text fill="#000000" font-family="sans-serif" font-size="13" lengthAdjust="spacingAndGlyphs" textLength="61" x="1452" y="290.0669">relates to</text><polygon fill="#000000" points="1516,284.0664,1522,287.0664,1516,290.0664,1516,284.0664" style="stroke: #000000; stroke-width: 1.0;"/><text fill="#000000" font-family="sans-serif" font-size="13" lengthAdjust="spacingAndGlyphs" textLength="8" x="1428.999" y="294.9701">1</text><text fill="#000000" font-family="sans-serif" font-size="13" lengthAdjust="spacingAndGlyphs" textLength="8" x="1541.0634" y="344.096">1</text><!--MD5=[4a1c7143ce927f33beebc726c4a57307]
link PaymentDay to PaymentTransaction--><path d="M1013.0606,424.4984 C1068.0036,438.6907 1151.0968,449.7065 1207,409 C1242.1091,383.4349 1212.261,351.696 1237,316 C1243.8524,306.1126 1252.433,296.9052 1261.5811,288.5896 " fill="none" id="PaymentDay-PaymentTransaction" style="stroke: #A80036; stroke-width: 1.0;"/><text fill="#000000" font-family="sans-serif" font-size="13" lengthAdjust="spacingAndGlyphs" textLength="76" x="1089" y="405.0669">is related to</text><polygon fill="#000000" points="1168,399.0664,1174,402.0664,1168,405.0664,1168,399.0664" style="stroke: #000000; stroke-width: 1.0;"/><text fill="#000000" font-family="sans-serif" font-size="13" lengthAdjust="spacingAndGlyphs" textLength="8" x="1020.8199" y="439.9299">1</text><text fill="#000000" font-family="sans-serif" font-size="13" lengthAdjust="spacingAndGlyphs" textLength="23" x="1253.0185" y="308.7793">0..*</text><!--MD5=[ee83525721cfd00449d18a755fcc2712]
link ExternalPwdGeneratorAlgorithm to User--><path d="M664.3432,804.7461 C715.696,806.4687 776.8531,808 832,808 C832,808 832,808 1932,808 C2097.7445,808 2159.6399,552.8397 2176.6569,460.1448 " fill="none" id="ExternalPwdGeneratorAlgorithm-User" style="stroke: #A80036; stroke-width: 1.0;"/><text fill="#000000" font-family="sans-serif" font-size="13" lengthAdjust="spacingAndGlyphs" textLength="122" x="1261.5" y="804.0669">generate password</text><polygon fill="#000000" points="1386.5,798.0664,1392.5,801.0664,1386.5,804.0664,1386.5,798.0664" style="stroke: #000000; stroke-width: 1.0;"/><text fill="#000000" font-family="sans-serif" font-size="13" lengthAdjust="spacingAndGlyphs" textLength="8" x="672.0207" y="817.6018">1</text><text fill="#000000" font-family="sans-serif" font-size="13" lengthAdjust="spacingAndGlyphs" textLength="7" x="2168.0265" y="479.7538">*</text><!--MD5=[64076412d870a4d05d559b3e64d0b7d2]
@startuml
skinparam classAttributeIconSize 0
hide methods
left to right direction

class Platform {
  -String designation
}

class Organization {
  -String name
  -String NIF
}

class Collaborator {
  -String name
  -String email
}

class Manager {
  -String name
  -String email
}

class Freelancer {
  -String id
  -String name
  -String expertiseLevel
  -String email
  -String NIF
  -String IBAN
  -String address
  -String country
}

class User {
  -String email
  -String password
}

class Task {
 -String id
 -String briefDescription
 -Integer timeDuration
 -Double costPerHour
 -String taskCategory
}

class PaymentTransaction{
  -String id
  -Date endDate
  -Integer delay
  -String workQualityDescription
}

class PaymentDay {
  -Date timeOfDay
  -Date dayOfMonth
}

class ExternalPwdGeneratorAlgorithm {
}

Platform "1" - - "*" Organization : has registered >
Platform "1" - - "1" ExternalPwdGeneratorAlgorithm : resort to >
Platform "1" - - "*" Freelancer : has/uses >

Organization "1" - - "1" Collaborator: has >
Organization "1" - - "1" Manager: has >
Organization "1" - - "*" Task: has >
Organization "1" - - "*" PaymentTransaction: has >

Collaborator "0..1" - - "1" User: acts like >
Collaborator "1" - - "*" Freelancer: create >
Collaborator "1" - - "*" Task: create >
Collaborator "1" - - "*" PaymentTransaction: create >
Collaborator "1" - - "*" PaymentTransaction: loads file of >
Collaborator "1" - - "1..*" PaymentTransaction: sees statistics about >

Manager "0..1" - - "1" User: acts like >
Manager "1" - - "1" PaymentDay : sets >
Manager "1" - - "1..*" PaymentTransaction: sees statistics about >

Freelancer "0..1" - - "1" User: acts like >

Task "1..*" - - "1" Freelancer: is assigned to >

PaymentTransaction "1" - - "1" Freelancer: relates to >
PaymentTransaction "1" - - "1" Task: relates to >

PaymentDay "1" - - "0..*" PaymentTransaction : is related to >

ExternalPwdGeneratorAlgorithm "1" - - "*" User : generate password >
@enduml

PlantUML version 1.2019.12(Sun Nov 03 10:24:54 UTC 2019)
(GPL source distribution)
Java Runtime: OpenJDK Runtime Environment
JVM: OpenJDK 64-Bit Server VM
Java Version: 1.8.0_232-heroku-b09
Operating System: Linux
Default Encoding: UTF-8
Language: en
Country: US
--></g></svg>