<?xml version="1.0" encoding="UTF-8" standalone="no"?><svg xmlns="http://www.w3.org/2000/svg" xmlns:xlink="http://www.w3.org/1999/xlink" contentScriptType="application/ecmascript" contentStyleType="text/css" height="636px" preserveAspectRatio="none" style="width:2022px;height:636px;" version="1.1" viewBox="0 0 2022 636" width="2022px" zoomAndPan="magnify"><defs><filter height="300%" id="fguvmck8h4vlu" width="300%" x="-1" y="-1"><feGaussianBlur result="blurOut" stdDeviation="2.0"/><feColorMatrix in="blurOut" result="blurOut2" type="matrix" values="0 0 0 0 0 0 0 0 0 0 0 0 0 0 0 0 0 0 .4 0"/><feOffset dx="4.0" dy="4.0" in="blurOut2" result="blurOut3"/><feBlend in="SourceGraphic" in2="blurOut3" mode="normal"/></filter></defs><g><!--MD5=[99b8db98afdc2c8404e39242ef4c1e65]
class Platform--><rect fill="#FEFECE" filter="url(#fguvmck8h4vlu)" height="52.8047" id="Platform" style="stroke: #A80036; stroke-width: 1.5;" width="120" x="6" y="387.1515"/><ellipse cx="37.2" cy="403.1515" fill="#ADD1B2" rx="11" ry="11" style="stroke: #A80036; stroke-width: 1.0;"/><path d="M40.1688,408.7921 Q39.5906,409.089 38.95,409.2374 Q38.3094,409.3859 37.6063,409.3859 Q35.1063,409.3859 33.7859,407.7374 Q32.4656,406.089 32.4656,402.964 Q32.4656,399.839 33.7859,398.1828 Q35.1063,396.5265 37.6063,396.5265 Q38.3094,396.5265 38.9578,396.6828 Q39.6063,396.839 40.1688,397.1359 L40.1688,399.8546 Q39.5438,399.2765 38.95,399.0031 Q38.3563,398.7296 37.7313,398.7296 Q36.3875,398.7296 35.7,399.7999 Q35.0125,400.8703 35.0125,402.964 Q35.0125,405.0578 35.7,406.1281 Q36.3875,407.1984 37.7313,407.1984 Q38.3563,407.1984 38.95,406.9249 Q39.5438,406.6515 40.1688,406.0734 L40.1688,408.7921 Z "/><text fill="#000000" font-family="sans-serif" font-size="12" lengthAdjust="spacingAndGlyphs" textLength="52" x="54.8" y="407.3058">Platform</text><line style="stroke: #A80036; stroke-width: 1.5;" x1="7" x2="125" y1="419.1515" y2="419.1515"/><text fill="#000000" font-family="sans-serif" font-size="11" lengthAdjust="spacingAndGlyphs" textLength="108" x="12" y="433.3619">-String designation</text><!--MD5=[86c7c362de55a38b660185a1328fe18d]
class Organization--><rect fill="#FEFECE" filter="url(#fguvmck8h4vlu)" height="65.6094" id="Organization" style="stroke: #A80036; stroke-width: 1.5;" width="110" x="293" y="380.6515"/><ellipse cx="308" cy="396.6515" fill="#ADD1B2" rx="11" ry="11" style="stroke: #A80036; stroke-width: 1.0;"/><path d="M310.9688,402.2921 Q310.3906,402.589 309.75,402.7374 Q309.1094,402.8859 308.4063,402.8859 Q305.9063,402.8859 304.5859,401.2374 Q303.2656,399.589 303.2656,396.464 Q303.2656,393.339 304.5859,391.6828 Q305.9063,390.0265 308.4063,390.0265 Q309.1094,390.0265 309.7578,390.1828 Q310.4063,390.339 310.9688,390.6359 L310.9688,393.3546 Q310.3438,392.7765 309.75,392.5031 Q309.1563,392.2296 308.5313,392.2296 Q307.1875,392.2296 306.5,393.2999 Q305.8125,394.3703 305.8125,396.464 Q305.8125,398.5578 306.5,399.6281 Q307.1875,400.6984 308.5313,400.6984 Q309.1563,400.6984 309.75,400.4249 Q310.3438,400.1515 310.9688,399.5734 L310.9688,402.2921 Z "/><text fill="#000000" font-family="sans-serif" font-size="12" lengthAdjust="spacingAndGlyphs" textLength="78" x="322" y="400.8058">Organization</text><line style="stroke: #A80036; stroke-width: 1.5;" x1="294" x2="402" y1="412.6515" y2="412.6515"/><text fill="#000000" font-family="sans-serif" font-size="11" lengthAdjust="spacingAndGlyphs" textLength="74" x="299" y="426.8619">-String name</text><text fill="#000000" font-family="sans-serif" font-size="11" lengthAdjust="spacingAndGlyphs" textLength="59" x="299" y="439.6666">-String NIF</text><!--MD5=[f483d6e5de34a60207b28a5563be5e8b]
class Collaborator--><rect fill="#FEFECE" filter="url(#fguvmck8h4vlu)" height="65.6094" id="Collaborator" style="stroke: #A80036; stroke-width: 1.5;" width="109" x="694" y="237.6515"/><ellipse cx="709" cy="253.6515" fill="#ADD1B2" rx="11" ry="11" style="stroke: #A80036; stroke-width: 1.0;"/><path d="M711.9688,259.2921 Q711.3906,259.589 710.75,259.7374 Q710.1094,259.8859 709.4063,259.8859 Q706.9063,259.8859 705.5859,258.2374 Q704.2656,256.589 704.2656,253.464 Q704.2656,250.339 705.5859,248.6828 Q706.9063,247.0265 709.4063,247.0265 Q710.1094,247.0265 710.7578,247.1828 Q711.4063,247.339 711.9688,247.6359 L711.9688,250.3546 Q711.3438,249.7765 710.75,249.5031 Q710.1563,249.2296 709.5313,249.2296 Q708.1875,249.2296 707.5,250.2999 Q706.8125,251.3703 706.8125,253.464 Q706.8125,255.5578 707.5,256.6281 Q708.1875,257.6984 709.5313,257.6984 Q710.1563,257.6984 710.75,257.4249 Q711.3438,257.1515 711.9688,256.5734 L711.9688,259.2921 Z "/><text fill="#000000" font-family="sans-serif" font-size="12" lengthAdjust="spacingAndGlyphs" textLength="77" x="723" y="257.8058">Collaborator</text><line style="stroke: #A80036; stroke-width: 1.5;" x1="695" x2="802" y1="269.6515" y2="269.6515"/><text fill="#000000" font-family="sans-serif" font-size="11" lengthAdjust="spacingAndGlyphs" textLength="74" x="700" y="283.8619">-String name</text><text fill="#000000" font-family="sans-serif" font-size="11" lengthAdjust="spacingAndGlyphs" textLength="73" x="700" y="296.6666">-String email</text><!--MD5=[b24ed8d4ae84bae9290d9aab401637c7]
class Manager--><rect fill="#FEFECE" filter="url(#fguvmck8h4vlu)" height="65.6094" id="Manager" style="stroke: #A80036; stroke-width: 1.5;" width="87" x="833" y="497.6515"/><ellipse cx="848" cy="513.6515" fill="#ADD1B2" rx="11" ry="11" style="stroke: #A80036; stroke-width: 1.0;"/><path d="M850.9688,519.2921 Q850.3906,519.589 849.75,519.7374 Q849.1094,519.8859 848.4063,519.8859 Q845.9063,519.8859 844.5859,518.2374 Q843.2656,516.589 843.2656,513.464 Q843.2656,510.339 844.5859,508.6827 Q845.9063,507.0265 848.4063,507.0265 Q849.1094,507.0265 849.7578,507.1827 Q850.4063,507.339 850.9688,507.6359 L850.9688,510.3546 Q850.3438,509.7765 849.75,509.5031 Q849.1563,509.2296 848.5313,509.2296 Q847.1875,509.2296 846.5,510.2999 Q845.8125,511.3702 845.8125,513.464 Q845.8125,515.5577 846.5,516.6281 Q847.1875,517.6984 848.5313,517.6984 Q849.1563,517.6984 849.75,517.4249 Q850.3438,517.1515 850.9688,516.5734 L850.9688,519.2921 Z "/><text fill="#000000" font-family="sans-serif" font-size="12" lengthAdjust="spacingAndGlyphs" textLength="55" x="862" y="517.8058">Manager</text><line style="stroke: #A80036; stroke-width: 1.5;" x1="834" x2="919" y1="529.6515" y2="529.6515"/><text fill="#000000" font-family="sans-serif" font-size="11" lengthAdjust="spacingAndGlyphs" textLength="74" x="839" y="543.8619">-String name</text><text fill="#000000" font-family="sans-serif" font-size="11" lengthAdjust="spacingAndGlyphs" textLength="73" x="839" y="556.6666">-String email</text><!--MD5=[1f687b5315377fe49fca59b457947463]
class Freelancer--><rect fill="#FEFECE" filter="url(#fguvmck8h4vlu)" height="142.4375" id="Freelancer" style="stroke: #A80036; stroke-width: 1.5;" width="136" x="1638" y="182.6515"/><ellipse cx="1669.65" cy="198.6515" fill="#ADD1B2" rx="11" ry="11" style="stroke: #A80036; stroke-width: 1.0;"/><path d="M1672.6188,204.2921 Q1672.0406,204.589 1671.4,204.7374 Q1670.7594,204.8859 1670.0563,204.8859 Q1667.5563,204.8859 1666.2359,203.2374 Q1664.9156,201.589 1664.9156,198.464 Q1664.9156,195.339 1666.2359,193.6828 Q1667.5563,192.0265 1670.0563,192.0265 Q1670.7594,192.0265 1671.4078,192.1828 Q1672.0563,192.339 1672.6188,192.6359 L1672.6188,195.3546 Q1671.9938,194.7765 1671.4,194.5031 Q1670.8063,194.2296 1670.1813,194.2296 Q1668.8375,194.2296 1668.15,195.2999 Q1667.4625,196.3703 1667.4625,198.464 Q1667.4625,200.5578 1668.15,201.6281 Q1668.8375,202.6984 1670.1813,202.6984 Q1670.8063,202.6984 1671.4,202.4249 Q1671.9938,202.1515 1672.6188,201.5734 L1672.6188,204.2921 Z "/><text fill="#000000" font-family="sans-serif" font-size="12" lengthAdjust="spacingAndGlyphs" textLength="67" x="1687.35" y="202.8058">Freelancer</text><line style="stroke: #A80036; stroke-width: 1.5;" x1="1639" x2="1773" y1="214.6515" y2="214.6515"/><text fill="#000000" font-family="sans-serif" font-size="11" lengthAdjust="spacingAndGlyphs" textLength="52" x="1644" y="228.8619">-String id</text><text fill="#000000" font-family="sans-serif" font-size="11" lengthAdjust="spacingAndGlyphs" textLength="74" x="1644" y="241.6666">-String name</text><text fill="#000000" font-family="sans-serif" font-size="11" lengthAdjust="spacingAndGlyphs" textLength="124" x="1644" y="254.4713">-String expertiseLevel</text><text fill="#000000" font-family="sans-serif" font-size="11" lengthAdjust="spacingAndGlyphs" textLength="73" x="1644" y="267.276">-String email</text><text fill="#000000" font-family="sans-serif" font-size="11" lengthAdjust="spacingAndGlyphs" textLength="59" x="1644" y="280.0807">-String NIF</text><text fill="#000000" font-family="sans-serif" font-size="11" lengthAdjust="spacingAndGlyphs" textLength="68" x="1644" y="292.8854">-String IBAN</text><text fill="#000000" font-family="sans-serif" font-size="11" lengthAdjust="spacingAndGlyphs" textLength="89" x="1644" y="305.6901">-String address</text><text fill="#000000" font-family="sans-serif" font-size="11" lengthAdjust="spacingAndGlyphs" textLength="84" x="1644" y="318.4948">-String country</text><!--MD5=[3fd616f346a44cd59a91eb10b19e157c]
class User--><rect fill="#FEFECE" filter="url(#fguvmck8h4vlu)" height="65.6094" id="User" style="stroke: #A80036; stroke-width: 1.5;" width="110" x="1901" y="361.6515"/><ellipse cx="1938.05" cy="377.6515" fill="#ADD1B2" rx="11" ry="11" style="stroke: #A80036; stroke-width: 1.0;"/><path d="M1941.0188,383.2921 Q1940.4406,383.589 1939.8,383.7374 Q1939.1594,383.8859 1938.4563,383.8859 Q1935.9563,383.8859 1934.6359,382.2374 Q1933.3156,380.589 1933.3156,377.464 Q1933.3156,374.339 1934.6359,372.6828 Q1935.9563,371.0265 1938.4563,371.0265 Q1939.1594,371.0265 1939.8078,371.1828 Q1940.4563,371.339 1941.0188,371.6359 L1941.0188,374.3546 Q1940.3938,373.7765 1939.8,373.5031 Q1939.2063,373.2296 1938.5813,373.2296 Q1937.2375,373.2296 1936.55,374.2999 Q1935.8625,375.3703 1935.8625,377.464 Q1935.8625,379.5578 1936.55,380.6281 Q1937.2375,381.6984 1938.5813,381.6984 Q1939.2063,381.6984 1939.8,381.4249 Q1940.3938,381.1515 1941.0188,380.5734 L1941.0188,383.2921 Z "/><text fill="#000000" font-family="sans-serif" font-size="12" lengthAdjust="spacingAndGlyphs" textLength="29" x="1956.95" y="381.8058">User</text><line style="stroke: #A80036; stroke-width: 1.5;" x1="1902" x2="2010" y1="393.6515" y2="393.6515"/><text fill="#000000" font-family="sans-serif" font-size="11" lengthAdjust="spacingAndGlyphs" textLength="73" x="1907" y="407.8619">-String email</text><text fill="#000000" font-family="sans-serif" font-size="11" lengthAdjust="spacingAndGlyphs" textLength="98" x="1907" y="420.6666">-String password</text><!--MD5=[b34797a66dc35cbf1d65f7e3ca75530e]
class Task--><rect fill="#FEFECE" filter="url(#fguvmck8h4vlu)" height="104.0234" id="Task" style="stroke: #A80036; stroke-width: 1.5;" width="144" x="1331" y="323.6515"/><ellipse cx="1384.25" cy="339.6515" fill="#ADD1B2" rx="11" ry="11" style="stroke: #A80036; stroke-width: 1.0;"/><path d="M1387.2188,345.2921 Q1386.6406,345.589 1386,345.7374 Q1385.3594,345.8859 1384.6563,345.8859 Q1382.1563,345.8859 1380.8359,344.2374 Q1379.5156,342.589 1379.5156,339.464 Q1379.5156,336.339 1380.8359,334.6828 Q1382.1563,333.0265 1384.6563,333.0265 Q1385.3594,333.0265 1386.0078,333.1828 Q1386.6563,333.339 1387.2188,333.6359 L1387.2188,336.3546 Q1386.5938,335.7765 1386,335.5031 Q1385.4063,335.2296 1384.7813,335.2296 Q1383.4375,335.2296 1382.75,336.2999 Q1382.0625,337.3703 1382.0625,339.464 Q1382.0625,341.5578 1382.75,342.6281 Q1383.4375,343.6984 1384.7813,343.6984 Q1385.4063,343.6984 1386,343.4249 Q1386.5938,343.1515 1387.2188,342.5734 L1387.2188,345.2921 Z "/><text fill="#000000" font-family="sans-serif" font-size="12" lengthAdjust="spacingAndGlyphs" textLength="29" x="1404.75" y="343.8058">Task</text><line style="stroke: #A80036; stroke-width: 1.5;" x1="1332" x2="1474" y1="355.6515" y2="355.6515"/><text fill="#000000" font-family="sans-serif" font-size="11" lengthAdjust="spacingAndGlyphs" textLength="52" x="1337" y="369.8619">-String id</text><text fill="#000000" font-family="sans-serif" font-size="11" lengthAdjust="spacingAndGlyphs" textLength="132" x="1337" y="382.6666">-String briefDescription</text><text fill="#000000" font-family="sans-serif" font-size="11" lengthAdjust="spacingAndGlyphs" textLength="121" x="1337" y="395.4713">-Integer timeDuration</text><text fill="#000000" font-family="sans-serif" font-size="11" lengthAdjust="spacingAndGlyphs" textLength="117" x="1337" y="408.276">-Double costPerHour</text><text fill="#000000" font-family="sans-serif" font-size="11" lengthAdjust="spacingAndGlyphs" textLength="117" x="1337" y="421.0807">-String taskCategory</text><!--MD5=[b645a18afb25b7e5623af7186d8eb36f]
class PaymentTransaction--><rect fill="#FEFECE" filter="url(#fguvmck8h4vlu)" height="91.2188" id="PaymentTransaction" style="stroke: #A80036; stroke-width: 1.5;" width="184" x="950" y="226.1515"/><ellipse cx="975.8" cy="242.1515" fill="#ADD1B2" rx="11" ry="11" style="stroke: #A80036; stroke-width: 1.0;"/><path d="M978.7688,247.7921 Q978.1906,248.089 977.55,248.2374 Q976.9094,248.3859 976.2063,248.3859 Q973.7063,248.3859 972.3859,246.7374 Q971.0656,245.089 971.0656,241.964 Q971.0656,238.839 972.3859,237.1828 Q973.7063,235.5265 976.2063,235.5265 Q976.9094,235.5265 977.5578,235.6828 Q978.2063,235.839 978.7688,236.1359 L978.7688,238.8546 Q978.1438,238.2765 977.55,238.0031 Q976.9563,237.7296 976.3313,237.7296 Q974.9875,237.7296 974.3,238.7999 Q973.6125,239.8703 973.6125,241.964 Q973.6125,244.0578 974.3,245.1281 Q974.9875,246.1984 976.3313,246.1984 Q976.9563,246.1984 977.55,245.9249 Q978.1438,245.6515 978.7688,245.0734 L978.7688,247.7921 Z "/><text fill="#000000" font-family="sans-serif" font-size="12" lengthAdjust="spacingAndGlyphs" textLength="128" x="992.2" y="246.3058">PaymentTransaction</text><line style="stroke: #A80036; stroke-width: 1.5;" x1="951" x2="1133" y1="258.1515" y2="258.1515"/><text fill="#000000" font-family="sans-serif" font-size="11" lengthAdjust="spacingAndGlyphs" textLength="52" x="956" y="272.3619">-String id</text><text fill="#000000" font-family="sans-serif" font-size="11" lengthAdjust="spacingAndGlyphs" textLength="81" x="956" y="285.1666">-Date endDate</text><text fill="#000000" font-family="sans-serif" font-size="11" lengthAdjust="spacingAndGlyphs" textLength="78" x="956" y="297.9713">-Integer delay</text><text fill="#000000" font-family="sans-serif" font-size="11" lengthAdjust="spacingAndGlyphs" textLength="172" x="956" y="310.776">-String workQualityDescription</text><!--MD5=[38d767b50186fba503091f69c245e88c]
class ExternalPwdGeneratorAlgorithm--><rect fill="#FEFECE" filter="url(#fguvmck8h4vlu)" height="40" id="ExternalPwdGeneratorAlgorithm" style="stroke: #A80036; stroke-width: 1.5;" width="231" x="433" y="582.6515"/><ellipse cx="448" cy="598.6515" fill="#ADD1B2" rx="11" ry="11" style="stroke: #A80036; stroke-width: 1.0;"/><path d="M450.9688,604.2921 Q450.3906,604.589 449.75,604.7374 Q449.1094,604.8859 448.4063,604.8859 Q445.9063,604.8859 444.5859,603.2374 Q443.2656,601.589 443.2656,598.464 Q443.2656,595.339 444.5859,593.6827 Q445.9063,592.0265 448.4063,592.0265 Q449.1094,592.0265 449.7578,592.1827 Q450.4063,592.339 450.9688,592.6359 L450.9688,595.3546 Q450.3438,594.7765 449.75,594.5031 Q449.1563,594.2296 448.5313,594.2296 Q447.1875,594.2296 446.5,595.2999 Q445.8125,596.3702 445.8125,598.464 Q445.8125,600.5577 446.5,601.6281 Q447.1875,602.6984 448.5313,602.6984 Q449.1563,602.6984 449.75,602.4249 Q450.3438,602.1515 450.9688,601.5734 L450.9688,604.2921 Z "/><text fill="#000000" font-family="sans-serif" font-size="12" lengthAdjust="spacingAndGlyphs" textLength="199" x="462" y="602.8058">ExternalPwdGeneratorAlgorithm</text><line style="stroke: #A80036; stroke-width: 1.5;" x1="434" x2="663" y1="614.6515" y2="614.6515"/><!--MD5=[7640e466c042ba2d6f9c19c816f7f0fc]
link Platform to Organization--><path d="M126.1502,413.6515 C175.4865,413.6515 244.7693,413.6515 292.7267,413.6515 " fill="none" id="Platform-Organization" style="stroke: #A80036; stroke-width: 1.0;"/><text fill="#000000" font-family="sans-serif" font-size="13" lengthAdjust="spacingAndGlyphs" textLength="92" x="157" y="409.7184">has registered</text><polygon fill="#000000" points="252,403.7179,258,406.7179,252,409.7179,252,403.7179" style="stroke: #000000; stroke-width: 1.0;"/><text fill="#000000" font-family="sans-serif" font-size="13" lengthAdjust="spacingAndGlyphs" textLength="8" x="133.9685" y="426.6525">1</text><text fill="#000000" font-family="sans-serif" font-size="13" lengthAdjust="spacingAndGlyphs" textLength="7" x="277.829" y="426.7614">*</text><!--MD5=[3313b9194d9f022f4001b189f9265f96]
link Platform to ExternalPwdGeneratorAlgorithm--><path d="M126.1334,437.2063 C221.8772,474.7101 407.3098,547.3459 497.1872,582.5518 " fill="none" id="Platform-ExternalPwdGeneratorAlgorithm" style="stroke: #A80036; stroke-width: 1.0;"/><text fill="#000000" font-family="sans-serif" font-size="13" lengthAdjust="spacingAndGlyphs" textLength="55" x="175.5" y="446.7184">resort to</text><polygon fill="#000000" points="233.5,440.7179,239.5,443.7179,233.5,446.7179,233.5,440.7179" style="stroke: #000000; stroke-width: 1.0;"/><text fill="#000000" font-family="sans-serif" font-size="13" lengthAdjust="spacingAndGlyphs" textLength="8" x="133.9497" y="453.078">1</text><text fill="#000000" font-family="sans-serif" font-size="13" lengthAdjust="spacingAndGlyphs" textLength="8" x="472.9391" y="571.5308">1</text><!--MD5=[22697d4d863c2e08ab1d60ca0d61f844]
link Platform to Freelancer--><path d="M71.5828,386.9139 C91.6501,299.0278 168.6604,24.6515 348,24.6515 C348,24.6515 348,24.6515 1403,24.6515 C1509.1601,24.6515 1601.6342,115.2263 1655.6479,182.4498 " fill="none" id="Platform-Freelancer" style="stroke: #A80036; stroke-width: 1.0;"/><text fill="#000000" font-family="sans-serif" font-size="13" lengthAdjust="spacingAndGlyphs" textLength="57" x="841.5" y="20.7184">has/uses</text><polygon fill="#000000" points="901.5,14.7179,907.5,17.7179,901.5,20.7179,901.5,14.7179" style="stroke: #000000; stroke-width: 1.0;"/><text fill="#000000" font-family="sans-serif" font-size="13" lengthAdjust="spacingAndGlyphs" textLength="8" x="63.9488" y="376.1013">1</text><text fill="#000000" font-family="sans-serif" font-size="13" lengthAdjust="spacingAndGlyphs" textLength="7" x="1643.0944" y="171.3849">*</text><!--MD5=[45817597bcd7048073a670d966abfd17]
link Organization to Collaborator--><path d="M381.0028,380.3927 C395.7942,367.1844 414.14,352.9523 433,343.6515 C518.3416,301.5655 628.7429,283.2203 693.7658,275.6199 " fill="none" id="Organization-Collaborator" style="stroke: #A80036; stroke-width: 1.0;"/><text fill="#000000" font-family="sans-serif" font-size="13" lengthAdjust="spacingAndGlyphs" textLength="23" x="530.5" y="276.7184">has</text><polygon fill="#000000" points="556.5,270.7179,562.5,273.7179,556.5,276.7179,556.5,270.7179" style="stroke: #000000; stroke-width: 1.0;"/><text fill="#000000" font-family="sans-serif" font-size="13" lengthAdjust="spacingAndGlyphs" textLength="8" x="378.7127" y="369.4867">1</text><text fill="#000000" font-family="sans-serif" font-size="13" lengthAdjust="spacingAndGlyphs" textLength="8" x="677.8734" y="289.3974">1</text><!--MD5=[bc039f41cf0b27fadee5cae63fc6e1fe]
link Organization to Manager--><path d="M370.6941,446.8938 C385.8824,466.2083 407.6904,488.974 433,500.6515 C567.7163,562.8079 750.2139,548.5273 832.7521,537.5604 " fill="none" id="Organization-Manager" style="stroke: #A80036; stroke-width: 1.0;"/><text fill="#000000" font-family="sans-serif" font-size="13" lengthAdjust="spacingAndGlyphs" textLength="23" x="530.5" y="496.7184">has</text><polygon fill="#000000" points="556.5,490.7179,562.5,493.7179,556.5,496.7179,556.5,490.7179" style="stroke: #000000; stroke-width: 1.0;"/><text fill="#000000" font-family="sans-serif" font-size="13" lengthAdjust="spacingAndGlyphs" textLength="8" x="366.024" y="466.2645">1</text><text fill="#000000" font-family="sans-serif" font-size="13" lengthAdjust="spacingAndGlyphs" textLength="8" x="817.1423" y="551.9654">1</text><!--MD5=[4078351e3988aa35b1504a42837f2ab1]
link Organization to Task--><path d="M403.0927,413.2927 C466.1528,412.8033 572.5356,411.7378 664,409.6515 C947.1913,403.1918 1018.6379,411.2494 1301,388.6515 C1310.6981,387.8753 1320.8898,386.8405 1330.9254,385.6922 " fill="none" id="Organization-Task" style="stroke: #A80036; stroke-width: 1.0;"/><text fill="#000000" font-family="sans-serif" font-size="13" lengthAdjust="spacingAndGlyphs" textLength="23" x="858.5" y="401.7184">has</text><polygon fill="#000000" points="884.5,395.7179,890.5,398.7179,884.5,401.7179,884.5,395.7179" style="stroke: #000000; stroke-width: 1.0;"/><text fill="#000000" font-family="sans-serif" font-size="13" lengthAdjust="spacingAndGlyphs" textLength="8" x="411.0333" y="426.3544">1</text><text fill="#000000" font-family="sans-serif" font-size="13" lengthAdjust="spacingAndGlyphs" textLength="7" x="1316.1318" y="399.5736">*</text><!--MD5=[da2d560b3f89d8c66478284968d27dfa]
link Organization to PaymentTransaction--><path d="M403.3358,406.3017 C489.3452,394.4529 660.0875,369.2301 803,337.6515 C851.8624,326.8546 905.6316,312.2538 949.7754,299.5301 " fill="none" id="Organization-PaymentTransaction" style="stroke: #A80036; stroke-width: 1.0;"/><text fill="#000000" font-family="sans-serif" font-size="13" lengthAdjust="spacingAndGlyphs" textLength="23" x="730.5" y="333.7184">has</text><polygon fill="#000000" points="756.5,327.7179,762.5,330.7179,756.5,333.7179,756.5,327.7179" style="stroke: #000000; stroke-width: 1.0;"/><text fill="#000000" font-family="sans-serif" font-size="13" lengthAdjust="spacingAndGlyphs" textLength="8" x="410.9382" y="401.4995">1</text><text fill="#000000" font-family="sans-serif" font-size="13" lengthAdjust="spacingAndGlyphs" textLength="7" x="935.1473" y="314.4128">*</text><!--MD5=[04ce0ecdab38a3951889ff50c232570f]
link Collaborator to User--><path d="M778.7813,237.3234 C828.4116,186.5488 932.5453,95.6515 1042,95.6515 C1042,95.6515 1042,95.6515 1706,95.6515 C1843.358,95.6515 1920.0746,283.6625 1945.9527,361.5108 " fill="none" id="Collaborator-User" style="stroke: #A80036; stroke-width: 1.0;"/><text fill="#000000" font-family="sans-serif" font-size="13" lengthAdjust="spacingAndGlyphs" textLength="52" x="1370.5" y="91.7184">acts like</text><polygon fill="#000000" points="1425.5,85.7179,1431.5,88.7179,1425.5,91.7179,1425.5,85.7179" style="stroke: #000000; stroke-width: 1.0;"/><text fill="#000000" font-family="sans-serif" font-size="13" lengthAdjust="spacingAndGlyphs" textLength="24" x="758.2662" y="226.6573">0..1</text><text fill="#000000" font-family="sans-serif" font-size="13" lengthAdjust="spacingAndGlyphs" textLength="8" x="1935.1871" y="350.6281">1</text><!--MD5=[d2c3650dbd07e79cdad2ffd4a879dec6]
link Collaborator to Freelancer--><path d="M803.0586,249.0036 C843.0222,234.3543 898.9661,216.3253 950,208.6515 C1082.0634,188.7934 1485.5719,215.0653 1608,231.6515 C1617.6765,232.9624 1627.809,234.7526 1637.7349,236.7495 " fill="none" id="Collaborator-Freelancer" style="stroke: #A80036; stroke-width: 1.0;"/><text fill="#000000" font-family="sans-serif" font-size="13" lengthAdjust="spacingAndGlyphs" textLength="41" x="1205.5" y="198.7184">create</text><polygon fill="#000000" points="1249.5,192.7179,1255.5,195.7179,1249.5,198.7179,1249.5,192.7179" style="stroke: #000000; stroke-width: 1.0;"/><text fill="#000000" font-family="sans-serif" font-size="13" lengthAdjust="spacingAndGlyphs" textLength="8" x="810.9274" y="259.2045">1</text><text fill="#000000" font-family="sans-serif" font-size="13" lengthAdjust="spacingAndGlyphs" textLength="7" x="1622.8856" y="247.7714">*</text><!--MD5=[f919d21ae7a75ef5ececc535e09d5009]
link Collaborator to Task--><path d="M803.3765,298.4545 C843.0287,317.1007 898.4598,340.2574 950,351.6515 C1081.8824,380.8071 1240.3673,381.6699 1330.6233,379.0628 " fill="none" id="Collaborator-Task" style="stroke: #A80036; stroke-width: 1.0;"/><text fill="#000000" font-family="sans-serif" font-size="13" lengthAdjust="spacingAndGlyphs" textLength="41" x="1015" y="347.7184">create</text><polygon fill="#000000" points="1059,341.7179,1065,344.7179,1059,347.7179,1059,341.7179" style="stroke: #000000; stroke-width: 1.0;"/><text fill="#000000" font-family="sans-serif" font-size="13" lengthAdjust="spacingAndGlyphs" textLength="8" x="810.9201" y="315.0781">1</text><text fill="#000000" font-family="sans-serif" font-size="13" lengthAdjust="spacingAndGlyphs" textLength="7" x="1315.7985" y="375.7137">*</text><!--MD5=[c32d3c60a61e5638fef4971a1b3a8306]
link Collaborator to PaymentTransaction--><path d="M803.0173,270.8372 C844.2129,270.9776 901.7161,271.1735 949.9927,271.338 " fill="none" id="Collaborator-PaymentTransaction" style="stroke: #A80036; stroke-width: 1.0;"/><text fill="#000000" font-family="sans-serif" font-size="13" lengthAdjust="spacingAndGlyphs" textLength="41" x="849.5" y="267.7184">create</text><polygon fill="#000000" points="893.5,261.7179,899.5,264.7179,893.5,267.7179,893.5,261.7179" style="stroke: #000000; stroke-width: 1.0;"/><text fill="#000000" font-family="sans-serif" font-size="13" lengthAdjust="spacingAndGlyphs" textLength="8" x="810.8806" y="283.972">1</text><text fill="#000000" font-family="sans-serif" font-size="13" lengthAdjust="spacingAndGlyphs" textLength="7" x="935.0835" y="283.9965">*</text><!--MD5=[6eb6e197a729f6ec2412743e0bdbca1d]
link Manager to User--><path d="M920.0679,530.2492 C987.1701,529.6651 1119.8576,528.6515 1232.5,528.6515 C1232.5,528.6515 1232.5,528.6515 1706,528.6515 C1791.1928,528.6515 1875.4123,467.4563 1921.0681,427.7751 " fill="none" id="Manager-User" style="stroke: #A80036; stroke-width: 1.0;"/><text fill="#000000" font-family="sans-serif" font-size="13" lengthAdjust="spacingAndGlyphs" textLength="52" x="1370.5" y="524.7184">acts like</text><polygon fill="#000000" points="1425.5,518.7179,1431.5,521.7179,1425.5,524.7179,1425.5,518.7179" style="stroke: #000000; stroke-width: 1.0;"/><text fill="#000000" font-family="sans-serif" font-size="13" lengthAdjust="spacingAndGlyphs" textLength="24" x="927.8821" y="543.351">0..1</text><text fill="#000000" font-family="sans-serif" font-size="13" lengthAdjust="spacingAndGlyphs" textLength="8" x="1905.89" y="447.3802">1</text><!--MD5=[65ab54bb4516ebbc699d18e0b28e9aea]
link Freelancer to User--><path d="M1774.3136,292.1804 C1814.0706,314.6033 1863.534,342.5007 1900.8076,363.523 " fill="none" id="Freelancer-User" style="stroke: #A80036; stroke-width: 1.0;"/><text fill="#000000" font-family="sans-serif" font-size="13" lengthAdjust="spacingAndGlyphs" textLength="52" x="1805" y="307.7184">acts like</text><polygon fill="#000000" points="1860,301.7179,1866,304.7179,1860,307.7179,1860,301.7179" style="stroke: #000000; stroke-width: 1.0;"/><text fill="#000000" font-family="sans-serif" font-size="13" lengthAdjust="spacingAndGlyphs" textLength="24" x="1781.9685" y="308.6199">0..1</text><text fill="#000000" font-family="sans-serif" font-size="13" lengthAdjust="spacingAndGlyphs" textLength="8" x="1884.8536" y="372.45">1</text><!--MD5=[8853e9d83a8841c20c4ef075af762602]
link Task to Freelancer--><path d="M1475.4219,348.6653 C1514.8042,333.759 1564.2677,314.6613 1608,296.6515 C1617.7066,292.6541 1627.9022,288.3267 1637.8982,284.0096 " fill="none" id="Task-Freelancer" style="stroke: #A80036; stroke-width: 1.0;"/><text fill="#000000" font-family="sans-serif" font-size="13" lengthAdjust="spacingAndGlyphs" textLength="88" x="1506" y="292.7184">is assigned to</text><polygon fill="#000000" points="1597,286.7179,1603,289.7179,1597,292.7179,1597,286.7179" style="stroke: #000000; stroke-width: 1.0;"/><text fill="#000000" font-family="sans-serif" font-size="13" lengthAdjust="spacingAndGlyphs" textLength="23" x="1482.8962" y="359.0016">1..*</text><text fill="#000000" font-family="sans-serif" font-size="13" lengthAdjust="spacingAndGlyphs" textLength="8" x="1622.0121" y="300.2006">1</text><!--MD5=[f6802b286771c18a16ea4be983074371]
link PaymentTransaction to Freelancer--><path d="M1134.3264,269.1487 C1269.3814,265.4875 1517.7385,258.755 1637.6545,255.5042 " fill="none" id="PaymentTransaction-Freelancer" style="stroke: #A80036; stroke-width: 1.0;"/><text fill="#000000" font-family="sans-serif" font-size="13" lengthAdjust="spacingAndGlyphs" textLength="61" x="1366" y="256.7184">relates to</text><polygon fill="#000000" points="1430,250.7179,1436,253.7179,1430,256.7179,1430,250.7179" style="stroke: #000000; stroke-width: 1.0;"/><text fill="#000000" font-family="sans-serif" font-size="13" lengthAdjust="spacingAndGlyphs" textLength="8" x="1142.0024" y="281.6104">1</text><text fill="#000000" font-family="sans-serif" font-size="13" lengthAdjust="spacingAndGlyphs" textLength="8" x="1622.1939" y="268.5199">1</text><!--MD5=[271ce7fefd7250ebaca83b70495774bd]
link PaymentTransaction to Task--><path d="M1134.2085,296.4936 C1183.7604,310.0427 1245.8408,327.337 1301,343.6515 C1310.6995,346.5203 1320.892,349.618 1330.928,352.717 " fill="none" id="PaymentTransaction-Task" style="stroke: #A80036; stroke-width: 1.0;"/><text fill="#000000" font-family="sans-serif" font-size="13" lengthAdjust="spacingAndGlyphs" textLength="61" x="1195.5" y="301.7184">relates to</text><polygon fill="#000000" points="1259.5,295.7179,1265.5,298.7179,1259.5,301.7179,1259.5,295.7179" style="stroke: #000000; stroke-width: 1.0;"/><text fill="#000000" font-family="sans-serif" font-size="13" lengthAdjust="spacingAndGlyphs" textLength="8" x="1141.8751" y="311.1343">1</text><text fill="#000000" font-family="sans-serif" font-size="13" lengthAdjust="spacingAndGlyphs" textLength="8" x="1315.0831" y="346.651">1</text><!--MD5=[ee83525721cfd00449d18a755fcc2712]
link ExternalPwdGeneratorAlgorithm to User--><path d="M664.1941,610 C726.9801,613.3801 805.9671,616.6515 876.5,616.6515 C876.5,616.6515 876.5,616.6515 1706,616.6515 C1818.3177,616.6515 1903.6735,489.8177 1938.6564,427.8871 " fill="none" id="ExternalPwdGeneratorAlgorithm-User" style="stroke: #A80036; stroke-width: 1.0;"/><text fill="#000000" font-family="sans-serif" font-size="13" lengthAdjust="spacingAndGlyphs" textLength="122" x="1165" y="612.7184">generate password</text><polygon fill="#000000" points="1290,606.7179,1296,609.7179,1290,612.7179,1290,606.7179" style="stroke: #000000; stroke-width: 1.0;"/><text fill="#000000" font-family="sans-serif" font-size="13" lengthAdjust="spacingAndGlyphs" textLength="8" x="671.862" y="623.0224">1</text><text fill="#000000" font-family="sans-serif" font-size="13" lengthAdjust="spacingAndGlyphs" textLength="7" x="1927.9436" y="447.2566">*</text><!--MD5=[3f346d504a9c3b7b1f897ae6ce0e74e0]
@startuml
skinparam classAttributeIconSize 0
hide methods
left to right direction

class Platform {
  -String designation
}

class Organization {
  -String name
  -String NIF
}

class Collaborator {
  -String name
  -String email
}

class Manager {
  -String name
  -String email
}

class Freelancer {
  -String id
  -String name
  -String expertiseLevel
  -String email
  -String NIF
  -String IBAN
  -String address
  -String country
}

class User {
  -String email
  -String password
}

class Task {
 -String id
 -String briefDescription
 -Integer timeDuration
 -Double costPerHour
 -String taskCategory
}

class PaymentTransaction{
  -String id
  -Date endDate
  -Integer delay
  -String workQualityDescription
}

class ExternalPwdGeneratorAlgorithm {
}

Platform "1" - - "*" Organization : has registered >
Platform "1" - - "1" ExternalPwdGeneratorAlgorithm : resort to >
Platform "1" - - "*" Freelancer : has/uses >

Organization "1" - - "1" Collaborator: has >
Organization "1" - - "1" Manager: has >
Organization "1" - - "*" Task: has >
Organization "1" - - "*" PaymentTransaction: has >

Collaborator "0..1" - - "1" User: acts like >
Collaborator "1" - - "*" Freelancer: create >
Collaborator "1" - - "*" Task: create >
Collaborator "1" - - "*" PaymentTransaction: create >

Manager "0..1" - - "1" User: acts like >

Freelancer "0..1" - - "1" User: acts like >

Task "1..*" - - "1" Freelancer: is assigned to >

PaymentTransaction "1" - - "1" Freelancer: relates to >
PaymentTransaction "1" - - "1" Task: relates to >

ExternalPwdGeneratorAlgorithm "1" - - "*" User : generate password >
@enduml

PlantUML version 1.2019.12(Sun Nov 03 10:24:54 UTC 2019)
(GPL source distribution)
Java Runtime: OpenJDK Runtime Environment
JVM: OpenJDK 64-Bit Server VM
Java Version: 1.8.0_232-heroku-b09
Operating System: Linux
Default Encoding: UTF-8
Language: en
Country: US
--></g></svg>